<svg width="14" height="14" viewBox="0 0 14 14" fill="none" xmlns="http://www.w3.org/2000/svg">
<path d="M7 0C3.14005 0 0 3.14005 0 7C0 10.86 3.14005 14 7 14C10.86 14 14 10.86 14 7C14 3.14005 10.86 0 7 0Z" fill="#FF2D3B"/>
<path d="M9.81195 8.90388L7.90807 7.00001L9.81195 5.09613C10.0627 4.84539 10.0627 4.43885 9.81198 4.18808C9.56118 3.93731 9.15464 3.93734 8.90393 4.18808L7.00002 6.09195L5.09611 4.18808C4.84541 3.93731 4.4388 3.93731 4.18806 4.18808C3.93732 4.43885 3.93732 4.84539 4.18809 5.09613L6.09197 7.00001L4.18809 8.90388C3.93732 9.15465 3.93729 9.5612 4.18806 9.81193C4.4389 10.0627 4.84544 10.0626 5.09611 9.81193L7.00002 7.90806L8.90393 9.81193C9.15461 10.0627 9.56121 10.0627 9.81198 9.81193C10.0628 9.56116 10.0627 9.15462 9.81195 8.90388Z" fill="white"/>
</svg>
