<svg width="15" height="10" viewBox="0 0 15 10" fill="none" xmlns="http://www.w3.org/2000/svg">
<path d="M14.8999 5.22023C13.5366 3.55923 10.6502 1.62085 7.50002 1.62085C4.33852 1.62085 1.45201 3.57241 0.100103 5.22023C-0.0333676 5.38291 -0.0333676 5.6172 0.100103 5.77988C1.49575 7.48106 4.3889 9.37929 7.50002 9.37929C10.7217 9.37929 13.5958 7.36879 14.8999 5.77991C15.0334 5.6172 15.0334 5.38291 14.8999 5.22023ZM10.4969 5.50006C10.4969 7.15253 9.15249 8.49694 7.49999 8.49694C5.84746 8.49694 4.5031 7.15244 4.5031 5.50006C4.5031 3.84759 5.84749 2.50317 7.49999 2.50317C9.15263 2.5032 10.4969 3.84776 10.4969 5.50006ZM1.03713 5.50017C1.53369 4.98409 2.73099 3.87029 4.41172 3.15544C3.35696 4.54138 3.35654 6.45759 4.41122 7.84403C3.13331 7.30241 1.94619 6.4467 1.03713 5.50017ZM10.5883 7.84467C11.6431 6.4587 11.6435 4.54253 10.5888 3.15608C11.8667 3.6977 13.0538 4.55344 13.9629 5.49991C13.4663 6.01606 12.269 7.12979 10.5883 7.84467Z" fill="#011727"/>
<path d="M6 5.5C6 6.32712 6.67288 7 7.5 7C8.32709 7 9 6.32712 9 5.5C9 4.67288 8.32709 4 7.5 4C6.67288 4 6 4.67288 6 5.5ZM8.11765 5.5C8.11765 5.84059 7.84056 6.11765 7.5 6.11765C7.15941 6.11765 6.88235 5.84059 6.88235 5.5C6.88235 5.15941 7.15941 4.88235 7.5 4.88235C7.84056 4.88235 8.11765 5.15941 8.11765 5.5Z" fill="#011727"/>
<path d="M7.49977 1.91176C7.74342 1.91176 7.94095 1.71424 7.94095 1.47059V0.441177C7.94095 0.197529 7.74342 0 7.49977 0C7.25612 0 7.05859 0.197529 7.05859 0.441177V1.47059C7.05859 1.71424 7.25612 1.91176 7.49977 1.91176Z" fill="#011727"/>
<path d="M10.1328 2.50186C10.3444 2.62251 10.6139 2.54895 10.7346 2.33718L11.3217 1.30777C11.4424 1.09612 11.3688 0.826713 11.1571 0.705977C10.9454 0.585272 10.676 0.658948 10.5553 0.870654L9.96818 1.90007C9.84747 2.11168 9.92118 2.38112 10.1328 2.50186Z" fill="#011727"/>
<path d="M4.26623 2.33718C4.38694 2.54882 4.65635 2.62253 4.86803 2.50182C5.07968 2.38112 5.15338 2.11168 5.03268 1.90003L4.44556 0.870619C4.32485 0.658972 4.05538 0.585266 3.84376 0.705972C3.63212 0.826678 3.55841 1.09612 3.67912 1.30777L4.26623 2.33718Z" fill="#011727"/>
</svg>
