<svg width="303" height="209" viewBox="0 0 303 209" fill="none" xmlns="http://www.w3.org/2000/svg">
<path d="M48.1876 200.189C57.8718 192.264 59.1253 178.937 57.7539 167.163C57.5251 165.197 57.5738 163.1 56.4826 161.45C55.3907 159.799 53.0784 158.8 51.3577 159.778C49.9316 160.588 49.4242 162.344 48.7095 163.822C47.7591 165.786 46.2417 167.472 44.3875 168.623C43.1689 169.379 41.6286 169.907 40.317 169.327C38.5175 168.531 38.1224 166.199 37.9743 164.236C37.6984 160.582 37.4225 156.926 37.1469 153.271C36.9987 151.31 36.8415 149.308 36.0713 147.498C35.3014 145.688 33.7956 144.073 31.8634 143.705C29.931 143.34 27.682 144.607 27.4403 146.559C27.3393 147.371 27.5726 148.186 27.5838 149.005C27.595 149.822 27.2844 150.755 26.52 151.047C25.7463 151.342 24.9061 150.851 24.265 150.326C22.0531 148.515 20.4534 146.08 18.9459 143.652C17.4381 141.224 15.9641 138.732 13.9275 136.727C11.8913 134.72 9.1774 133.222 6.32061 133.297C3.46299 133.373 0.574203 135.356 0.0807085 138.171C-0.414153 140.994 1.44937 143.664 3.41023 145.754C6.31842 148.856 9.67854 151.534 13.3506 153.677C14.0128 154.064 14.73 154.483 15.0293 155.189C15.5671 156.46 14.4189 157.862 13.147 158.4C11.7056 159.008 10.087 158.988 8.5535 159.296C7.01915 159.604 5.39651 160.416 4.92844 161.909C4.27965 163.981 6.14919 165.941 7.93233 167.179C11.5024 169.657 15.501 171.518 19.6963 172.656C21.2009 173.064 22.7757 173.399 24.0367 174.315C25.2981 175.231 26.1533 176.934 25.5548 178.374C24.9559 179.815 23.1645 180.407 21.6113 180.253C20.0581 180.099 18.6211 179.392 17.1179 178.97C14.3054 178.177 10.7957 178.654 9.23809 181.126C8.21418 182.751 8.28718 184.891 9.01803 186.667C9.74797 188.444 11.0549 189.918 12.4249 191.263C17.2138 195.969 23.1481 199.585 29.657 201.23C36.1662 202.875 42.0808 202.979 48.1876 200.189Z" fill="#40EAEA"/>
<path d="M49.0366 208.934C48.2178 204.294 46.7245 198.858 44.4645 193.052C42.215 187.241 39.2141 181.073 35.8517 174.727C35.005 173.144 34.1684 171.58 33.3438 170.038C32.5176 168.5 31.6988 166.977 30.8039 165.536C29.0271 162.645 27.0957 159.999 25.1827 157.544C23.2694 155.087 21.3627 152.825 19.5645 150.722C17.7617 148.622 16.0442 146.696 14.4024 145.006C11.1287 141.615 8.16661 139.193 6.06439 137.61C5.01424 136.817 4.17982 136.226 3.60895 135.832C3.33144 135.644 3.11545 135.496 2.95797 135.389C2.81033 135.29 2.73022 135.246 2.73022 135.246C2.73022 135.246 2.79831 135.307 2.9402 135.414C3.09331 135.527 3.30437 135.682 3.57477 135.881C4.13334 136.29 4.95655 136.895 5.99412 137.702C8.07199 139.311 11.0053 141.75 14.2509 145.153C15.8793 146.847 17.5848 148.777 19.3775 150.881C21.1658 152.99 23.0628 155.256 24.9659 157.712C26.8699 160.166 28.7909 162.807 30.5559 165.688C31.4451 167.124 32.2565 168.637 33.0836 170.179C33.9076 171.72 34.7431 173.284 35.5893 174.866C38.9491 181.207 41.9514 187.359 44.2092 193.152C46.4776 198.938 47.9873 204.35 48.8308 208.971" fill="#263238"/>
<path d="M30.7274 165.512C30.7479 165.514 30.7867 165.21 30.8397 164.659C30.8949 164.109 30.9518 163.31 31.0084 162.322C31.1238 160.348 31.1927 157.614 31.2613 154.602C31.3302 151.586 31.4467 148.861 31.6044 146.894C31.6802 145.91 31.7513 145.113 31.8087 144.565C31.8625 144.015 31.8833 143.709 31.8625 143.706C31.8428 143.702 31.7835 144.003 31.6941 144.549C31.6011 145.096 31.4978 145.89 31.3953 146.875C31.1828 148.843 31.033 151.576 30.9641 154.594C30.9001 157.582 30.8424 160.285 30.7987 162.313C30.7689 163.259 30.7432 164.046 30.7241 164.652C30.7069 165.204 30.7069 165.511 30.7274 165.512Z" fill="#263238"/>
<path d="M4.80652 162.907C4.80679 162.918 4.89893 162.924 5.07282 162.928C5.28197 162.929 5.53241 162.93 5.83425 162.93C6.49452 162.93 7.44926 162.925 8.62981 162.96C10.989 163.01 14.2469 163.197 17.8298 163.562C21.4139 163.935 24.6417 164.411 26.9657 164.826C28.129 165.025 29.0656 165.213 29.7139 165.34C30.01 165.396 30.2566 165.443 30.4617 165.483C30.6334 165.512 30.7247 165.522 30.7274 165.512C30.7296 165.503 30.643 165.472 30.4753 165.424C30.2735 165.37 30.0308 165.305 29.7393 165.227C29.0985 165.066 28.1659 164.846 27.0045 164.619C24.6854 164.15 21.4527 163.64 17.8599 163.267C14.2685 162.9 10.9991 162.746 8.63226 162.75C7.44927 162.743 6.49178 162.778 5.83124 162.815C5.52967 162.836 5.27951 162.853 5.07063 162.868C4.89757 162.884 4.80598 162.897 4.80652 162.907Z" fill="#263238"/>
<path d="M44.142 192.602C44.1518 192.606 44.2008 192.494 44.2847 192.279C44.3777 192.031 44.4955 191.717 44.6415 191.329C44.9485 190.504 45.363 189.298 45.8565 187.802C46.8465 184.812 48.0864 180.64 49.3963 176.019C50.707 171.397 51.9138 167.221 52.8512 164.217C53.3175 162.745 53.6988 161.54 53.9752 160.664C54.0996 160.269 54.2 159.948 54.2787 159.697C54.3449 159.475 54.375 159.357 54.3654 159.353C54.3558 159.35 54.3066 159.462 54.2218 159.678C54.1297 159.924 54.0118 160.238 53.8658 160.627C53.5589 161.453 53.1452 162.658 52.6517 164.153C51.6611 167.144 50.421 171.315 49.1111 175.938C47.8004 180.559 46.5939 184.735 45.6566 187.738C45.1899 189.211 44.8091 190.416 44.5321 191.291C44.4078 191.687 44.3077 192.008 44.2289 192.259C44.1625 192.481 44.1324 192.599 44.142 192.602Z" fill="#CAC7D7" fill-opacity="0.3"/>
<path d="M9.32582 184.606C9.32421 184.616 9.44453 184.651 9.67522 184.709C9.93769 184.771 10.274 184.85 10.6888 184.947C11.6068 185.157 12.8721 185.445 14.4204 185.799C17.5698 186.522 21.9079 187.574 26.6979 188.749C31.4896 189.923 35.8389 190.945 39.0022 191.616C40.5844 191.952 41.8661 192.211 42.7552 192.375C43.1757 192.45 43.5158 192.511 43.7802 192.558C44.0156 192.598 44.1398 192.612 44.1419 192.603C44.1441 192.593 44.0235 192.558 43.7923 192.5C43.5304 192.438 43.1949 192.359 42.779 192.262C41.8618 192.052 40.5962 191.763 39.0479 191.411C35.8983 190.687 31.5599 189.634 26.7685 188.46C21.9785 187.286 17.6291 186.265 14.4661 185.593C12.8842 185.258 11.6019 184.997 10.7123 184.834C10.2926 184.759 9.95273 184.698 9.68754 184.649C9.45244 184.612 9.32827 184.596 9.32582 184.606Z" fill="#263238"/>
<path d="M150.405 34.291L99.8008 49.5162L89.5387 15.4073L140.143 0.18206L150.405 34.291Z" fill="white"/>
<path d="M150.405 34.291C150.405 34.291 150.33 34.0754 150.201 33.6674C150.072 33.2481 149.885 32.6476 149.642 31.8658C149.155 30.2784 148.446 27.9645 147.539 25.0074C145.738 19.0819 143.153 10.5807 140.003 0.224075L140.185 0.32206C126.221 4.53344 108.643 9.83529 89.5955 15.5802L89.5913 15.5816L89.7131 15.3541C93.3659 27.5137 96.8382 39.0735 99.9605 49.468L99.7533 49.356C114.648 44.9101 127.286 41.1369 136.213 38.4723C140.678 37.1495 144.214 36.101 146.648 35.3801C147.855 35.0252 148.787 34.7529 149.43 34.5633C149.74 34.4744 149.978 34.4065 150.153 34.3568C150.316 34.3113 150.405 34.291 150.405 34.291C150.405 34.291 150.332 34.3197 150.177 34.3701C150.009 34.4226 149.778 34.4954 149.478 34.5906C148.845 34.7859 147.928 35.0686 146.739 35.4354C144.32 36.1738 140.805 37.2475 136.366 38.6032C127.426 41.314 114.768 45.1516 99.8492 49.6758L99.6896 49.7241L99.6413 49.5638C96.5099 39.1729 93.0272 27.6159 89.3645 15.4591L89.312 15.2848L89.4863 15.2323L89.4905 15.2309C108.546 9.51194 126.132 4.23458 140.101 0.0420914L140.241 0.000106812L140.283 0.140091C143.382 10.5513 145.925 19.098 147.698 25.0542C148.57 28.0072 149.253 30.3176 149.72 31.9029C149.946 32.677 150.119 33.2726 150.24 33.6877C150.356 34.0894 150.405 34.291 150.405 34.291Z" fill="#CAC7D7" fill-opacity="0.3"/>
<path d="M140.143 0.181952C140.148 0.184752 140.124 0.236559 140.073 0.335245C140.01 0.452131 139.931 0.594212 139.836 0.76989C139.606 1.17234 139.292 1.72456 138.894 2.42308C138.047 3.8789 136.845 5.94294 135.363 8.48993C132.333 13.6294 128.157 20.7104 123.504 28.6027L123.425 28.7357L123.281 28.6797C122.79 28.4893 122.263 28.2849 121.732 28.0798C112.842 24.6118 104.797 21.4727 98.9393 19.1881C96.0508 18.0431 93.7032 17.1122 92.0479 16.4557C91.2584 16.1337 90.6348 15.8796 90.1806 15.6949C89.9853 15.6116 89.8264 15.5437 89.6983 15.4884C89.5906 15.4401 89.5367 15.4128 89.5388 15.4072C89.5409 15.4009 89.5996 15.417 89.7116 15.4534C89.8439 15.5003 90.0063 15.557 90.2072 15.6263C90.667 15.7964 91.299 16.0287 92.099 16.3227C93.7648 16.954 96.1264 17.8478 99.0331 18.9481C104.9 21.2074 112.959 24.3108 121.864 27.7397C122.395 27.9455 122.922 28.1498 123.413 28.3402L123.191 28.4172C127.881 20.5481 132.091 13.4866 135.147 8.36186C136.67 5.83937 137.905 3.79491 138.775 2.35309C139.198 1.66857 139.532 1.12824 139.774 0.733494C139.882 0.565514 139.97 0.428333 140.042 0.317047C140.103 0.224659 140.138 0.178452 140.143 0.181952Z" fill="#CAC7D7" fill-opacity="0.3"/>
<path d="M287.37 136.422C287.37 136.422 284.09 133.173 277.687 141.288C271.283 149.403 268.502 154.264 268.502 154.264C268.502 154.264 266.908 155.915 265.854 154.419C264.801 152.922 263.719 149.059 261.384 149.25C258.962 149.449 257.697 151.856 257.386 155.701C257.074 159.546 256.081 167.946 255.989 168.705C255.898 169.451 255.262 170.448 254.381 169.544C253.499 168.64 248.932 160.931 245.403 163.318C241.875 165.705 242.766 176.561 242.841 177.749C242.916 178.937 242.599 179.375 242.007 179.548C241.415 179.72 240.124 176.985 238.734 174.846C237.345 172.706 235.36 170.469 233.44 172.017C231.519 173.565 229.487 181.172 234.327 195.148L236.993 201.478L243.824 202.45C258.567 203.637 265.424 199.768 266.442 197.521C267.46 195.275 264.797 193.912 262.378 193.102C259.96 192.292 256.988 191.727 257.007 191.111C257.025 190.495 257.371 190.078 258.54 189.853C259.709 189.628 270.442 187.774 271.87 183.761C273.298 179.748 264.691 177.254 263.596 176.628C262.5 176.001 263.307 175.136 264.006 174.861C264.717 174.581 272.601 171.518 276.247 170.254C279.891 168.99 281.905 167.164 281.492 164.768C281.093 162.459 277.081 162.38 275.369 161.734C273.657 161.088 274.856 159.132 274.856 159.132C274.856 159.132 278.866 155.222 285.121 146.992C291.376 138.762 287.298 136.36 287.298 136.36" fill="#40EAEA"/>
<path d="M236.862 180.302C236.909 180.285 237.233 181.076 237.716 182.368C238.201 183.658 238.846 185.451 239.537 187.438C240.228 189.426 240.835 191.232 241.257 192.545C241.678 193.858 241.916 194.679 241.869 194.695C241.821 194.711 241.498 193.921 241.014 192.63C240.53 191.338 239.885 189.546 239.193 187.558C238.502 185.571 237.895 183.766 237.473 182.452C237.051 181.139 236.813 180.319 236.862 180.302Z" fill="#CAC7D7" fill-opacity="0.3"/>
<path d="M281.622 143.679C281.627 143.683 281.589 143.744 281.511 143.857C281.418 143.987 281.301 144.151 281.154 144.357C280.818 144.811 280.348 145.447 279.752 146.255C278.531 147.901 276.743 150.265 274.52 153.179C270.077 159.005 263.859 166.993 256.955 175.785C250.068 184.581 243.834 192.542 239.304 198.328C237.068 201.206 235.255 203.541 233.981 205.179C233.362 205.97 232.874 206.592 232.526 207.037C232.367 207.233 232.24 207.39 232.14 207.514C232.052 207.62 232.003 207.673 231.999 207.669C231.994 207.665 232.031 207.604 232.11 207.491C232.202 207.362 232.32 207.198 232.468 206.992C232.803 206.537 233.272 205.902 233.868 205.093C235.089 203.448 236.877 201.083 239.1 198.171C243.544 192.345 249.761 184.356 256.668 175.56C263.552 166.768 269.786 158.808 274.316 153.021C276.552 150.144 278.366 147.808 279.64 146.169C280.258 145.379 280.746 144.757 281.095 144.313C281.254 144.115 281.381 143.958 281.481 143.835C281.569 143.729 281.617 143.676 281.622 143.679Z" fill="#263238"/>
<path d="M262.679 154.717C262.728 154.713 262.833 155.412 262.937 156.55C263.042 157.687 263.135 159.262 263.198 161.001C263.243 162.675 263.285 164.188 263.318 165.455C263.344 166.594 263.369 167.297 263.316 167.303C263.269 167.308 263.153 166.608 263.061 165.468C262.968 164.329 262.896 162.753 262.833 161.015C262.776 159.343 262.724 157.831 262.68 156.565C262.642 155.427 262.627 154.721 262.679 154.717Z" fill="#263238"/>
<path d="M263.912 167.546C263.903 167.445 267.139 167.093 271.138 166.76C275.139 166.426 278.388 166.238 278.395 166.337C278.404 166.438 275.169 166.79 271.168 167.123C267.169 167.457 263.92 167.646 263.912 167.546Z" fill="#263238"/>
<path d="M252.297 181.045C252.31 180.995 253.02 181.124 254.161 181.344C255.304 181.56 256.881 181.862 258.631 182.14C260.382 182.423 261.973 182.632 263.127 182.781C264.279 182.931 264.995 183.029 264.99 183.081C264.986 183.13 264.264 183.123 263.101 183.038C261.937 182.954 260.333 182.784 258.574 182.5C256.814 182.22 255.238 181.876 254.106 181.595C252.974 181.311 252.286 181.092 252.297 181.045Z" fill="#263238"/>
<path d="M248.629 169.687C248.676 169.67 248.932 170.286 249.307 171.295C249.682 172.304 250.176 173.706 250.701 175.262C251.225 176.818 251.681 178.232 251.994 179.262C252.306 180.292 252.475 180.937 252.428 180.953C252.38 180.969 252.124 180.353 251.749 179.344C251.374 178.335 250.88 176.934 250.355 175.378C249.831 173.822 249.375 172.407 249.062 171.378C248.75 170.348 248.581 169.703 248.629 169.687Z" fill="#263238"/>
<path d="M241.846 194.317C241.856 194.266 242.76 194.402 244.218 194.63C245.676 194.856 247.69 195.171 249.921 195.465C252.153 195.762 254.179 195.987 255.646 196.146C257.113 196.307 258.021 196.41 258.018 196.462C258.014 196.51 257.1 196.498 255.624 196.403C254.148 196.309 252.112 196.125 249.873 195.827C247.635 195.532 245.623 195.176 244.173 194.884C242.724 194.591 241.837 194.364 241.846 194.317Z" fill="#263238"/>
<path d="M294.501 123.084L254.836 121.873L256.493 67.5935L296.158 68.8051L294.501 123.084Z" fill="#CAC7D7" fill-opacity="0.3"/>
<path d="M287.194 130.294L247.53 129.083L249.186 74.804L288.852 76.0149L287.194 130.294Z" fill="white"/>
<path d="M287.194 130.294C287.194 130.294 287.191 130.201 287.193 130.027C287.197 129.844 287.201 129.59 287.206 129.26C287.223 128.575 287.247 127.583 287.278 126.294C287.346 123.698 287.447 119.923 287.574 115.145C287.845 105.592 288.231 92.0437 288.687 76.01L288.847 76.1801C276.902 75.8204 263.413 75.4144 249.186 74.9861H249.181L249.369 74.8097C248.737 95.0841 248.152 113.854 247.678 129.088L247.534 128.935C259.533 129.333 269.429 129.662 276.339 129.892C279.791 130.013 282.496 130.109 284.351 130.174C285.268 130.209 285.972 130.237 286.462 130.256C286.94 130.276 287.194 130.294 287.194 130.294C287.194 130.294 286.961 130.298 286.492 130.288C286.009 130.278 285.314 130.262 284.408 130.242C282.56 130.195 279.867 130.125 276.427 130.036C269.495 129.843 259.565 129.567 247.525 129.232L247.376 129.227L247.381 129.078C247.836 113.845 248.398 95.0736 249.004 74.7985L249.01 74.6165L249.192 74.6221H249.197C263.424 75.0624 276.912 75.4802 288.857 75.8505L289.022 75.8554L289.017 76.0205C288.492 92.0962 288.049 105.68 287.737 115.258C287.572 120.019 287.443 123.781 287.353 126.367C287.306 127.64 287.269 128.622 287.244 129.299C287.23 129.621 287.22 129.868 287.212 130.048C287.203 130.214 287.194 130.294 287.194 130.294Z" fill="#CAC7D7" fill-opacity="0.3"/>
<path d="M273.361 87.3677C273.358 87.4678 269.04 87.4181 263.718 87.2557C258.394 87.0926 254.082 86.8791 254.085 86.7791C254.089 86.6783 258.405 86.7287 263.729 86.891C269.051 87.0534 273.364 87.2669 273.361 87.3677Z" fill="#CAC7D7" fill-opacity="0.3"/>
<path d="M283.642 92.4022C283.639 92.503 276.987 92.3812 268.787 92.1307C260.583 91.8801 253.938 91.5959 253.941 91.4951C253.944 91.395 260.595 91.5161 268.797 91.7667C276.998 92.0173 283.645 92.3021 283.642 92.4022Z" fill="#CAC7D7" fill-opacity="0.3"/>
<path d="M283.492 97.3225C283.489 97.4225 276.837 97.3022 268.636 97.0516C260.433 96.801 253.788 96.5169 253.791 96.4161C253.794 96.3146 260.445 96.4364 268.648 96.6869C276.848 96.9375 283.495 97.2217 283.492 97.3225Z" fill="#CAC7D7" fill-opacity="0.3"/>
<path d="M283.342 102.243C283.339 102.344 276.687 102.222 268.486 101.971C260.283 101.721 253.637 101.437 253.641 101.336C253.643 101.236 260.294 101.357 268.498 101.607C276.698 101.858 283.345 102.143 283.342 102.243Z" fill="#CAC7D7" fill-opacity="0.3"/>
<path d="M283.191 107.163C283.188 107.264 276.536 107.142 268.336 106.892C260.133 106.642 253.487 106.357 253.49 106.257C253.493 106.156 260.144 106.278 268.347 106.528C276.547 106.778 283.194 107.063 283.191 107.163Z" fill="#CAC7D7" fill-opacity="0.3"/>
<path d="M283.041 112.084C283.038 112.184 276.386 112.063 268.186 111.813C259.983 111.563 253.338 111.277 253.34 111.177C253.343 111.076 259.993 111.198 268.197 111.448C276.397 111.699 283.044 111.983 283.041 112.084Z" fill="#CAC7D7" fill-opacity="0.3"/>
<path d="M282.891 117.005C282.887 117.105 276.235 116.984 268.036 116.733C259.832 116.482 253.187 116.198 253.19 116.098C253.193 115.997 259.844 116.118 268.046 116.369C276.247 116.619 282.894 116.904 282.891 117.005Z" fill="#CAC7D7" fill-opacity="0.3"/>
<path d="M269.004 121.506C269.002 121.606 265.424 121.579 261.016 121.444C256.607 121.309 253.037 121.119 253.04 121.018C253.043 120.918 256.618 120.945 261.028 121.08C265.436 121.215 269.007 121.405 269.004 121.506Z" fill="#CAC7D7" fill-opacity="0.3"/>
<path d="M210.002 54.2512L197.591 85.4226L158.601 69.8992L171.012 38.7271L210.002 54.2512Z" fill="white"/>
<path d="M210.002 54.2509C210.002 54.2509 209.937 54.2278 209.814 54.1803C209.689 54.1313 209.507 54.0599 209.268 53.9668C208.786 53.7764 208.075 53.4964 207.151 53.1318C205.301 52.3997 202.597 51.3288 199.167 49.971C192.316 47.2518 182.572 43.3841 170.988 38.7856L171.071 38.7506C167.379 48.0287 163.147 58.666 158.668 69.9213L158.667 69.9248L158.627 69.8331C173.06 75.5843 186.474 80.9296 197.612 85.3677L197.536 85.4006C201.288 76.012 204.398 68.2296 206.571 62.792C207.661 60.0721 208.516 57.9388 209.099 56.4837C209.391 55.7572 209.615 55.2007 209.768 54.8228C209.919 54.4462 210.002 54.2509 210.002 54.2509C210.002 54.2509 209.931 54.442 209.784 54.8158C209.636 55.1923 209.418 55.7474 209.132 56.4711C208.556 57.9262 207.713 60.0588 206.637 62.7787C204.474 68.2296 201.379 76.0316 197.645 85.444L197.624 85.4993L197.569 85.4776C186.429 81.0451 173.012 75.7082 158.575 69.9647L158.509 69.9381L158.535 69.8723L158.536 69.8688C163.02 58.6156 167.257 47.9797 170.953 38.7038L170.976 38.6442L171.035 38.6681C182.625 43.2966 192.374 47.1902 199.229 49.9276C202.647 51.2966 205.343 52.3759 207.187 53.1143C208.104 53.4824 208.809 53.7666 209.286 53.9584C209.521 54.0536 209.701 54.1264 209.824 54.1761C209.944 54.2251 210.002 54.2509 210.002 54.2509Z" fill="#CAC7D7" fill-opacity="0.3"/>
<path d="M160.702 68.4979L196.953 82.9315L207.801 55.6845L171.55 41.2516L160.702 68.4979Z" fill="#CAC7D7" fill-opacity="0.3"/>
<path d="M160.847 68.5827L180.252 56.6876L183.876 70.4067L191.451 66.8595L197.098 83.0156L160.847 68.5827Z" fill="#CAC7D7" fill-opacity="0.3"/>
<path d="M192.25 59.061C191.623 60.6379 189.836 61.4071 188.259 60.7786C186.683 60.1515 185.915 58.3646 186.542 56.7884C187.17 55.2115 188.956 54.443 190.533 55.0708C192.109 55.6979 192.878 57.4848 192.25 59.061Z" fill="#CAC7D7" fill-opacity="0.3"/>
<path d="M69.335 88.7639C69.3407 88.7331 69.6049 88.9494 70.1664 88.9018C70.438 88.8675 70.7789 88.7464 71.0588 88.456C71.3262 88.1662 71.5194 87.7056 71.7979 87.2493C72.8821 85.3567 74.4296 82.6558 76.3369 79.327C76.8184 78.492 77.3224 77.6171 77.8473 76.7058C78.1105 76.2501 78.3785 75.7854 78.6522 75.3123C78.7824 75.0715 78.9476 74.8384 79.021 74.6081C79.098 74.3695 79.1071 74.1077 79.0427 73.862C78.9755 73.6171 78.837 73.391 78.6396 73.2272C78.4513 73.0753 78.1636 72.9431 77.9173 72.7968C77.4063 72.5112 76.887 72.2207 76.36 71.9261C75.3066 71.3367 74.2217 70.7299 73.111 70.1077C68.6638 67.6118 63.7791 64.8702 58.6514 61.9922C58.0874 61.6611 57.3049 61.8774 56.9509 62.417C56.5865 63.0407 56.2245 63.6587 55.8649 64.2725C55.1445 65.5107 54.4342 66.7306 53.7362 67.9289C52.3394 70.3247 50.9915 72.6358 49.7073 74.8377C49.5466 75.1128 49.3872 75.3865 49.2286 75.658C49.0676 75.9107 48.9949 76.178 49.0033 76.4573C49.0156 76.7324 49.1129 77.0025 49.2879 77.2097C49.4492 77.4246 49.7114 77.538 49.9808 77.6962C51.0311 78.2904 52.0515 78.8678 53.0379 79.4257C55.0078 80.5427 56.8443 81.5842 58.523 82.5354C61.8547 84.4377 64.5578 85.9804 66.452 87.0617C67.3676 87.593 68.0866 88.0108 68.5985 88.3076C68.8281 88.4455 69.0107 88.5553 69.1524 88.64C69.2762 88.7163 69.338 88.759 69.335 88.7639C69.332 88.7695 69.2639 88.7387 69.1341 88.6722C68.9878 88.5959 68.7994 88.4965 68.5626 88.372C68.0423 88.0885 67.3121 87.6916 66.3823 87.1849C64.475 86.128 61.7521 84.6197 58.3964 82.7607C56.7111 81.8208 54.8678 80.7926 52.8897 79.6895C51.9003 79.1359 50.8772 78.5641 49.8236 77.9754C49.5772 77.8306 49.2576 77.6955 49.038 77.4162C48.816 77.1551 48.6914 76.8157 48.6749 76.4713C48.6577 76.1298 48.7633 75.7693 48.941 75.4907C49.0987 75.2185 49.2573 74.9448 49.4173 74.669C50.6954 72.4636 52.037 70.149 53.4276 67.7497C54.1242 66.55 54.8326 65.3294 55.5516 64.0905C55.9155 63.469 56.2819 62.8419 56.6509 62.2113C57.0985 61.5274 58.0932 61.2454 58.8297 61.6751C63.9531 64.5616 68.833 67.3115 73.2754 69.8144C74.3841 70.4416 75.4662 71.0526 76.5175 71.6468C77.0424 71.9443 77.5603 72.2368 78.0699 72.5252C78.3246 72.6799 78.5752 72.7849 78.8384 72.9927C79.0833 73.1992 79.2548 73.4827 79.3346 73.785C79.413 74.0888 79.3997 74.4094 79.3038 74.7005C79.2009 75.0008 79.0336 75.2199 78.9042 75.4585C78.6277 75.9303 78.3568 76.3936 78.0909 76.8472C77.5589 77.7543 77.048 78.625 76.5601 79.4565C74.6109 82.7608 73.0291 85.4421 71.9204 87.3207C71.6286 87.7749 71.4403 88.2145 71.1358 88.5322C70.8264 88.836 70.4597 88.9508 70.1727 88.9746C69.8816 88.9928 69.6631 88.9298 69.5283 88.8724C69.3927 88.815 69.335 88.7639 69.335 88.7639Z" fill="#CAC7D7" fill-opacity="0.3"/>
<path d="M65.636 74.4148L67.4004 77.5476L63.7609 77.6141L60.1213 77.6806L61.9966 74.482L63.8717 71.2827L65.636 74.4148Z" fill="#CAC7D7" fill-opacity="0.3"/>
<path d="M303 207.862C303 207.969 236.055 208.056 153.494 208.056C70.9042 208.056 3.97375 207.969 3.97375 207.862C3.97375 207.755 70.9042 207.669 153.494 207.669C236.055 207.669 303 207.755 303 207.862Z" fill="#17282F"/>
<path d="M77.986 163.394L56.8512 142.169L67.4773 122.652C78.1028 109.052 100.595 109.928 100.595 109.928C100.595 109.928 115.901 108.453 133.767 111.93C151.632 115.406 150.193 127.23 150.193 127.23L152.587 171.026L155.152 206.685L89.2574 208.014L77.986 163.394Z" fill="#FF2D3B"/>
<path d="M113.483 205.961L54.4618 206.684C40.279 206.858 30.8176 192.113 36.8849 179.292L62.121 132.49L85.1075 148.03L69.4279 180.572L117.208 181.424L113.483 205.961Z" fill="#FF2D3B"/>
<path d="M148.084 120.121L195.448 193.247L167.815 195.054C167.815 195.054 151.314 169.05 151.687 169.588C152.362 170.562 148.084 120.121 148.084 120.121Z" fill="#FF2D3B"/>
<path d="M83.9226 152.231C83.9107 152.227 83.9331 152.098 83.9884 151.855C84.0556 151.573 84.1382 151.223 84.2397 150.795C84.4581 149.876 84.7765 148.545 85.1104 146.891C85.4422 145.236 85.7956 143.256 86.0371 141.04C86.2604 138.828 86.401 136.365 86.0623 133.828C85.6857 131.3 84.736 129.009 83.6175 127.097C82.5004 125.176 81.242 123.601 80.1018 122.364C78.9602 121.126 77.9524 120.201 77.2343 119.59C76.5182 118.976 76.1088 118.649 76.1277 118.624C76.1347 118.615 76.2453 118.685 76.4497 118.829C76.6498 118.976 76.9585 119.179 77.3246 119.481C78.0735 120.061 79.1142 120.963 80.2901 122.188C81.4645 123.413 82.7573 124.988 83.9072 126.927C85.0572 128.857 86.0378 131.188 86.4234 133.777C86.7685 136.366 86.6138 138.85 86.3709 141.077C86.1092 143.306 85.7277 145.29 85.3624 146.944C84.9949 148.598 84.638 149.921 84.3769 150.831C84.246 151.286 84.1375 151.638 84.0591 151.874C83.9814 152.112 83.9345 152.234 83.9226 152.231Z" fill="#17282F"/>
<path d="M82.0244 154.753C82.0475 154.764 81.9012 155.139 81.6177 155.811C81.3357 156.482 80.9115 157.447 80.3768 158.634C79.3073 161.01 77.785 164.271 76.0345 167.839C74.2826 171.407 72.635 174.608 71.4102 176.906C70.7985 178.056 70.2945 178.981 69.9362 179.615C69.5787 180.25 69.3706 180.595 69.3485 180.584C69.326 180.572 69.4919 180.205 69.8107 179.55C70.1629 178.841 70.6242 177.91 71.1813 176.788C72.367 174.402 73.9537 171.208 75.7077 167.678C77.426 164.132 78.9812 160.924 80.143 158.526C80.6904 157.399 81.1432 156.464 81.489 155.751C81.8123 155.099 82.0013 154.743 82.0244 154.753Z" fill="#17282F"/>
<path d="M113.483 205.961C113.478 205.961 113.478 205.918 113.483 205.838C113.491 205.74 113.501 205.623 113.512 205.478C113.546 205.139 113.593 204.675 113.652 204.083C113.789 202.84 113.985 201.065 114.23 198.833C114.752 194.308 115.489 187.934 116.356 180.425L116.522 180.612C111.212 180.617 105.304 180.622 99.0876 180.627C87.1849 180.606 76.4118 180.588 68.5851 180.574C64.7008 180.55 61.5496 180.53 59.3421 180.516C58.2695 180.501 57.428 180.49 56.8287 180.481C56.5577 180.475 56.3426 180.468 56.1753 180.463C56.0282 180.457 55.953 180.451 55.953 180.445C55.953 180.439 56.0282 180.432 56.1753 180.426C56.3426 180.421 56.5577 180.416 56.8287 180.408C57.428 180.4 58.2695 180.388 59.3421 180.374C61.5496 180.36 64.7008 180.34 68.5851 180.315C76.4118 180.302 87.1849 180.283 99.0876 180.262C105.304 180.268 111.212 180.273 116.522 180.278H116.71L116.687 180.465C115.767 187.968 114.985 194.336 114.43 198.856C114.145 201.084 113.917 202.855 113.759 204.096C113.677 204.685 113.614 205.147 113.567 205.485C113.544 205.629 113.526 205.745 113.511 205.842C113.497 205.921 113.487 205.961 113.483 205.961Z" fill="#17282F"/>
<path d="M69.8439 181.071C69.7941 181.102 69.3916 180.502 68.6663 179.596C67.942 178.69 66.8654 177.498 65.5169 176.356C64.1647 175.217 62.8094 174.355 61.7948 173.794C60.7805 173.23 60.1213 172.934 60.1437 172.879C60.1588 172.84 60.8557 173.053 61.9146 173.565C62.9718 174.075 64.3758 174.919 65.7521 176.078C67.1248 177.239 68.1914 178.483 68.8713 179.44C69.5537 180.398 69.8796 181.05 69.8439 181.071Z" fill="#17282F"/>
<path d="M153.565 185.701C153.554 185.703 153.521 185.494 153.472 185.097C153.423 184.667 153.358 184.087 153.275 183.355C153.113 181.842 152.896 179.65 152.663 176.938C152.184 171.516 151.632 164.017 151.14 155.727C150.649 147.434 150.307 139.922 150.109 134.483C150.009 131.763 149.944 129.562 149.911 128.041C149.899 127.305 149.888 126.721 149.881 126.288C149.878 125.887 149.883 125.677 149.896 125.677C149.908 125.676 149.929 125.885 149.955 126.286C149.978 126.717 150.011 127.301 150.052 128.035C150.128 129.589 150.235 131.78 150.367 134.472C150.63 139.907 151.013 147.415 151.504 155.705C151.996 163.993 152.507 171.492 152.919 176.917C153.127 179.604 153.297 181.79 153.416 183.342C153.47 184.076 153.514 184.658 153.546 185.09C153.571 185.49 153.578 185.7 153.565 185.701Z" fill="#17282F"/>
<path d="M100.881 145.913C100.861 145.909 100.888 145.573 100.956 144.956C101.037 144.288 101.144 143.401 101.276 142.308C101.584 139.998 102.004 136.833 102.491 133.169L102.762 133.335C101.352 134.322 99.8226 135.394 98.2345 136.505C96.6177 137.631 95.0603 138.713 93.6269 139.709L93.2952 139.94L93.3561 139.543C93.9118 135.909 94.3919 132.773 94.7419 130.484C94.9197 129.407 95.0646 128.53 95.1737 127.871C95.2801 127.263 95.348 126.936 95.3676 126.939C95.3879 126.941 95.3592 127.275 95.2885 127.888C95.2045 128.551 95.0932 129.432 94.9568 130.515C94.6383 132.809 94.2037 135.951 93.6997 139.592L93.4282 139.425C94.8588 138.424 96.4119 137.337 98.0252 136.207C99.6168 135.099 101.15 134.033 102.564 133.05L102.894 132.821L102.835 133.217C102.296 136.874 101.831 140.032 101.491 142.338C101.318 143.424 101.177 144.308 101.071 144.972C100.967 145.584 100.901 145.915 100.881 145.913Z" fill="#FFC4B4"/>
<path d="M127.22 148.751C127.205 148.765 126.965 148.53 126.533 148.082C126.071 147.594 125.457 146.943 124.702 146.144C123.121 144.431 120.956 142.084 118.449 139.367L118.751 139.265C118.608 140.981 118.454 142.842 118.295 144.774C118.126 146.736 117.964 148.626 117.814 150.366L117.779 150.768L117.512 150.467C115.073 147.717 112.968 145.343 111.431 143.611C110.717 142.785 110.135 142.113 109.698 141.608C109.299 141.138 109.09 140.877 109.106 140.863C109.12 140.849 109.358 141.085 109.784 141.531C110.24 142.019 110.847 142.668 111.592 143.466C113.154 145.176 115.292 147.52 117.77 150.235L117.468 150.336C117.612 148.596 117.768 146.705 117.931 144.744C118.097 142.812 118.257 140.951 118.405 139.236L118.439 138.835L118.706 139.133C121.174 141.885 123.306 144.262 124.863 145.998C125.587 146.824 126.176 147.498 126.619 148.004C127.023 148.476 127.235 148.738 127.22 148.751Z" fill="#FFC4B4"/>
<path d="M140.48 147.814C140.497 147.825 140.329 148.117 140.005 148.647C139.647 149.216 139.172 149.974 138.587 150.905C137.325 152.866 135.596 155.55 133.595 158.658L133.421 158.391C135.116 158.099 136.957 157.782 138.868 157.451C140.81 157.122 142.68 156.806 144.401 156.515L144.8 156.447L144.575 156.782C142.524 159.832 140.754 162.465 139.462 164.387C138.843 165.286 138.338 166.017 137.959 166.567C137.604 167.071 137.403 167.339 137.386 167.328C137.369 167.317 137.537 167.028 137.862 166.503C138.221 165.939 138.697 165.19 139.282 164.267C140.546 162.328 142.279 159.67 144.286 156.59L144.46 156.856C142.739 157.153 140.87 157.476 138.93 157.811C137.018 158.135 135.176 158.447 133.479 158.734L133.083 158.801L133.304 158.468C135.349 155.389 137.115 152.728 138.405 150.787C139.025 149.878 139.529 149.139 139.907 148.583C140.262 148.074 140.463 147.802 140.48 147.814Z" fill="#FFC4B4"/>
<path d="M122.85 161.376C122.867 161.387 122.7 161.679 122.375 162.209C122.018 162.778 121.542 163.536 120.958 164.467C119.696 166.428 117.966 169.112 115.965 172.22L115.791 171.953C117.487 171.661 119.328 171.344 121.238 171.014C123.18 170.685 125.05 170.368 126.771 170.077L127.17 170.009L126.946 170.344C124.895 173.394 123.125 176.027 121.833 177.949C121.213 178.848 120.709 179.579 120.329 180.129C119.974 180.633 119.774 180.901 119.757 180.889C119.74 180.879 119.907 180.59 120.233 180.066C120.591 179.501 121.067 178.752 121.652 177.829C122.917 175.89 124.649 173.232 126.656 170.153L126.83 170.419C125.109 170.715 123.241 171.038 121.299 171.373C119.388 171.697 117.546 172.009 115.849 172.296L115.453 172.364L115.675 172.03C117.719 168.951 119.486 166.29 120.776 164.349C121.395 163.44 121.899 162.701 122.278 162.145C122.633 161.635 122.834 161.365 122.85 161.376Z" fill="#FFC4B4"/>
<path d="M160.941 147.622C160.957 147.633 160.79 147.926 160.465 148.455C160.108 149.025 159.633 149.783 159.049 150.714C157.786 152.674 156.057 155.358 154.056 158.466L153.881 158.2C155.578 157.906 157.419 157.589 159.329 157.26C161.271 156.931 163.14 156.614 164.861 156.323L165.26 156.255L165.036 156.59C162.985 159.641 161.216 162.274 159.924 164.196C159.303 165.094 158.799 165.826 158.42 166.375C158.065 166.88 157.864 167.147 157.847 167.136C157.831 167.124 157.998 166.835 158.324 166.311C158.681 165.748 159.157 164.998 159.743 164.076C161.008 162.135 162.739 159.478 164.746 156.398L164.92 156.665C163.199 156.962 161.331 157.284 159.39 157.619C157.479 157.943 155.637 158.254 153.939 158.543L153.544 158.609L153.765 158.276C155.81 155.196 157.577 152.537 158.867 150.595C159.486 149.686 159.99 148.948 160.368 148.392C160.723 147.882 160.924 147.611 160.941 147.622Z" fill="#FFC4B4"/>
<path d="M107.265 154.867C107.266 154.888 106.932 154.93 106.314 154.989C105.644 155.047 104.752 155.125 103.657 155.219C101.332 155.393 98.1477 155.629 94.4612 155.905L94.569 155.605C95.8247 156.783 97.1867 158.06 98.6012 159.387C100.033 160.739 101.412 162.041 102.682 163.239L102.976 163.516L102.574 163.538C98.9036 163.739 95.7358 163.913 93.4232 164.04C92.3321 164.087 91.4453 164.124 90.7776 164.153C90.1609 164.174 89.8264 164.175 89.8257 164.155C89.8243 164.134 90.156 164.094 90.7706 164.038C91.4362 163.984 92.3216 163.912 93.4099 163.824C95.7204 163.664 98.8854 163.446 102.552 163.192L102.444 163.492C101.171 162.297 99.7876 160.999 98.3513 159.653C96.941 158.321 95.5832 157.04 94.3303 155.858L94.0385 155.583L94.4381 155.558C98.1281 155.336 101.315 155.143 103.642 155.003C104.74 154.949 105.634 154.906 106.305 154.873C106.927 154.85 107.263 154.846 107.265 154.867Z" fill="#FFC4B4"/>
<path d="M71.7379 136.418C71.7547 136.43 71.5867 136.722 71.2619 137.252C70.905 137.821 70.4297 138.579 69.8453 139.51C68.583 141.47 66.8543 144.155 64.8527 147.262L64.678 146.996C66.3747 146.704 68.2153 146.386 70.126 146.056C72.0675 145.727 73.937 145.411 75.6588 145.12L76.0577 145.052L75.8324 145.387C73.7823 148.437 72.0122 151.07 70.7202 152.992C70.1001 153.891 69.5963 154.622 69.2173 155.172C68.8614 155.676 68.6609 155.944 68.644 155.932C68.6273 155.922 68.7951 155.632 69.1205 155.107C69.4784 154.544 69.9544 153.794 70.5396 152.872C71.8044 150.933 73.5359 148.274 75.5433 145.195L75.7176 145.461C73.9965 145.758 72.1277 146.081 70.1869 146.415C68.2757 146.739 66.4343 147.052 64.7368 147.339L64.3403 147.406L64.5621 147.073C66.6071 143.994 68.3739 141.333 69.6635 139.391C70.2827 138.482 70.786 137.743 71.1646 137.188C71.5202 136.677 71.7204 136.407 71.7379 136.418Z" fill="#FFC4B4"/>
<path d="M44.0671 188.753C44.0832 188.74 44.3088 188.99 44.7113 189.463C45.1418 189.98 45.7144 190.667 46.4181 191.512C47.889 193.321 49.9032 195.798 52.2351 198.666L51.9277 198.75C52.1765 197.046 52.4469 195.198 52.7272 193.279C53.0181 191.331 53.2983 189.457 53.5559 187.73L53.6157 187.33L53.8637 187.648C56.1261 190.544 58.0788 193.045 59.504 194.87C60.1662 195.738 60.7043 196.445 61.1089 196.976C61.4777 197.471 61.6699 197.744 61.6541 197.757C61.6379 197.77 61.4157 197.52 61.0181 197.048C60.5936 196.533 60.0287 195.847 59.3342 195.004C57.8833 193.199 55.8951 190.727 53.5917 187.863L53.8992 187.78C53.6469 189.508 53.3727 191.384 53.0878 193.333C52.8015 195.251 52.5259 197.098 52.2711 198.8L52.2121 199.198L51.9641 198.884C49.6724 195.983 47.6935 193.478 46.2485 191.648C45.5774 190.777 45.0311 190.069 44.6208 189.536C44.2464 189.04 44.0512 188.765 44.0671 188.753Z" fill="#FFC4B4"/>
<path d="M91.7553 190.145C91.7707 190.131 92.0017 190.377 92.4133 190.842C92.8535 191.35 93.44 192.026 94.1596 192.857C95.6658 194.637 97.7277 197.074 100.116 199.896L99.81 199.986C100.026 198.277 100.259 196.425 100.502 194.502C100.755 192.548 100.998 190.667 101.222 188.935L101.274 188.535L101.528 188.847C103.847 191.7 105.848 194.161 107.309 195.958C107.988 196.813 108.54 197.509 108.955 198.033C109.334 198.52 109.531 198.79 109.515 198.802C109.5 198.816 109.272 198.571 108.865 198.106C108.431 197.599 107.853 196.924 107.142 196.096C105.656 194.32 103.62 191.886 101.261 189.068L101.567 188.98C101.348 190.712 101.11 192.593 100.864 194.547C100.615 196.469 100.375 198.322 100.154 200.029L100.103 200.428L99.8492 200.119C97.5016 197.263 95.4733 194.797 93.993 192.997C93.305 192.139 92.745 191.441 92.3237 190.917C91.9401 190.428 91.7399 190.158 91.7553 190.145Z" fill="#FFC4B4"/>
<path d="M64.0368 164.272C64.0381 164.292 63.7041 164.335 63.0856 164.396C62.4155 164.453 61.5245 164.53 60.429 164.625C58.1042 164.798 54.9202 165.036 51.2341 165.311L51.341 165.011C52.5971 166.188 53.9592 167.467 55.3735 168.792C56.8055 170.145 58.1846 171.446 59.4543 172.644L59.7484 172.922L59.3463 172.944C55.6761 173.145 52.5085 173.319 50.1957 173.446C49.1048 173.492 48.2173 173.531 47.5503 173.56C46.9338 173.579 46.5991 173.581 46.598 173.56C46.5966 173.539 46.9285 173.5 47.5432 173.443C48.2089 173.389 49.0939 173.317 50.1824 173.229C52.4926 173.07 55.6578 172.851 59.3247 172.598L59.2167 172.896C57.9429 171.703 56.56 170.405 55.1235 169.058C53.7134 167.728 52.3553 166.446 51.1032 165.263L50.8109 164.988L51.2103 164.964C54.9005 164.741 58.0875 164.549 60.4142 164.408C61.5127 164.355 62.4062 164.312 63.078 164.279C63.6989 164.256 64.0354 164.253 64.0368 164.272Z" fill="#FFC4B4"/>
<path d="M87.8506 189.349C87.852 189.37 87.5174 189.412 86.8987 189.472C86.2289 189.53 85.3379 189.607 84.2425 189.702C81.9174 189.875 78.7335 190.112 75.047 190.387L75.1548 190.088C76.4105 191.266 77.7725 192.543 79.1863 193.87C80.6191 195.222 81.9979 196.523 83.2675 197.721L83.5622 197.999L83.1597 198.021C79.4894 198.222 76.3216 198.396 74.0091 198.523C72.9179 198.569 72.0311 198.607 71.3634 198.636C70.7468 198.656 70.4129 198.657 70.4115 198.637C70.4101 198.616 70.7419 198.576 71.3564 198.52C72.022 198.467 72.9074 198.394 73.9958 198.306C76.3062 198.147 79.4712 197.928 83.138 197.675L83.0296 197.974C81.7564 196.779 80.3734 195.482 78.9372 194.135C77.5268 192.804 76.1683 191.523 74.9169 190.34L74.6243 190.065L75.0239 190.041C78.7132 189.818 81.9006 189.626 84.2278 189.485C85.326 189.431 86.2198 189.389 86.891 189.356C87.5118 189.333 87.8492 189.329 87.8506 189.349Z" fill="#FFC4B4"/>
<path d="M141.611 125.547C141.612 125.568 141.278 125.61 140.66 125.67C139.99 125.728 139.098 125.805 138.003 125.899C135.678 126.073 132.494 126.31 128.808 126.585L128.915 126.286C130.171 127.463 131.533 128.741 132.947 130.067C134.379 131.419 135.758 132.721 137.029 133.919L137.323 134.196L136.92 134.218C133.25 134.42 130.083 134.594 127.77 134.72C126.679 134.767 125.791 134.805 125.124 134.834C124.508 134.853 124.173 134.855 124.172 134.835C124.17 134.814 124.502 134.774 125.117 134.718C125.782 134.664 126.668 134.592 127.756 134.504C130.067 134.344 133.232 134.125 136.898 133.873L136.791 134.172C135.517 132.977 134.134 131.68 132.698 130.333C131.287 129.002 129.929 127.72 128.677 126.538L128.385 126.263L128.784 126.238C132.474 126.015 135.662 125.824 137.988 125.682C139.086 125.629 139.98 125.586 140.652 125.554C141.273 125.53 141.61 125.527 141.611 125.547Z" fill="#FFC4B4"/>
<path d="M115.461 189.349C115.461 189.349 127.237 185.958 131.135 184.964C132.653 184.576 139.158 188.007 143.65 190.86C143.65 190.86 149.838 194.529 149.337 195.658C148.786 196.902 146.504 196.648 142.867 194.937C142.867 194.937 144.136 198.623 141.644 198.544C141.644 198.544 142.881 202.527 140.545 202.94C138.209 203.352 137.66 198.268 135.599 197.994C133.539 197.719 129.28 197.445 129.28 197.445C129.28 197.445 125.733 203.317 122.985 203.73C120.238 204.142 113.871 203.4 113.871 203.4L115.461 189.349Z" fill="#FFC4B4"/>
<path d="M135.56 190.161C135.614 190.076 137.087 190.909 138.849 192.021C140.612 193.133 141.998 194.102 141.944 194.188C141.891 194.272 140.418 193.441 138.655 192.329C136.893 191.217 135.507 190.246 135.56 190.161Z" fill="#F68260"/>
<path d="M134.864 192.427C134.906 192.335 136.654 193.052 138.769 194.028C140.883 195.004 142.563 195.869 142.521 195.961C142.478 196.052 140.73 195.335 138.615 194.358C136.502 193.383 134.822 192.518 134.864 192.427Z" fill="#F68260"/>
<path d="M136.124 197.917C136.138 197.818 137.328 197.898 138.783 198.098C140.237 198.296 141.404 198.539 141.39 198.639C141.377 198.739 140.187 198.658 138.733 198.459C137.278 198.259 136.11 198.017 136.124 197.917Z" fill="#F68260"/>
<path d="M100.143 67.877C100.417 68.7785 100.105 69.8291 99.3837 70.4345C98.6621 71.0399 97.5737 71.1652 96.7339 70.7389C95.138 69.9305 94.9358 67.7286 95.2493 65.9676C95.5636 64.2066 96.162 62.3267 95.4236 60.6973C94.8581 59.4507 93.6346 58.6612 92.68 57.6799C91.017 55.9707 90.1309 53.4798 90.5354 51.1294C90.94 48.7798 92.7016 46.6668 94.9988 46.025C97.3428 45.3691 100.232 46.0901 101.977 44.3928C103.242 43.163 103.32 41.1473 104.299 39.6795C105.818 37.3999 109.03 37.0388 111.744 37.409C114.458 37.7807 117.221 38.6507 119.879 37.99C122.099 37.437 123.921 35.8867 126.001 34.9348C130.511 32.8729 136.275 33.9892 139.688 37.5875C143.1 41.1858 143.911 47.0013 141.612 51.3947C140.786 52.9737 139.544 54.4078 137.892 55.0749" fill="#263238"/>
<path d="M113.649 125.689C121.168 125.682 127.23 119.529 127.126 112.01L126.948 99.1423C126.948 99.1423 137.757 98.0602 138.473 87.3508C139.189 76.6421 138.673 51.9324 138.673 51.9324C126.558 45.9257 112.141 46.9447 100.992 54.5976L99.3375 55.7343L100.142 112.388C100.247 119.77 106.266 125.698 113.649 125.689Z" fill="#FFC4B4"/>
<path d="M135.832 71.3305C133.93 70.9546 133.944 68.4979 135.851 68.1431C135.934 68.1277 136.028 68.1277 136.111 68.1445C138.013 68.5203 137.999 70.9777 136.093 71.3319C136.01 71.3473 135.916 71.3466 135.832 71.3305Z" fill="#17282F"/>
<path d="M137.934 67.9114C137.756 68.0871 136.748 67.2199 135.273 67.1324C133.799 67.0239 132.684 67.749 132.532 67.5509C132.456 67.462 132.642 67.1366 133.129 66.8069C133.607 66.4787 134.413 66.1812 135.332 66.2421C136.252 66.3037 137.01 66.7054 137.441 67.0939C137.88 67.4858 138.02 67.833 137.934 67.9114Z" fill="#17282F"/>
<path d="M120.859 68.271C121.567 68.7616 121.743 69.7324 121.253 70.44C120.763 71.1469 119.792 71.3233 119.084 70.8334C118.377 70.3434 118.2 69.3727 118.691 68.665C119.181 67.9574 120.152 67.781 120.859 68.271Z" fill="#17282F"/>
<path d="M121.831 68.3375C121.654 68.5139 120.646 67.646 119.17 67.5592C117.696 67.45 116.582 68.1758 116.429 67.977C116.354 67.8889 116.539 67.5634 117.026 67.233C117.504 66.9048 118.31 66.6073 119.23 66.6689C120.149 66.7298 120.908 67.1316 121.338 67.5207C121.777 67.912 121.917 68.2591 121.831 68.3375Z" fill="#17282F"/>
<path d="M127.087 80.8366C127.083 80.7204 128.006 80.5854 129.501 80.4608C129.89 80.4398 130.197 80.3684 130.237 80.1626C130.319 79.933 130.192 79.5124 130.02 79.042C129.694 78.0454 129.363 77.0361 129.017 75.9792C127.637 71.6187 126.699 68.0275 126.92 67.9582C127.141 67.8875 128.439 71.3647 129.819 75.7258C130.143 76.7897 130.453 77.8053 130.759 78.8083C130.876 79.2625 131.116 79.7986 130.883 80.4244C130.759 80.7379 130.442 80.9521 130.184 81.0046C129.924 81.0683 129.706 81.0564 129.521 81.055C128.021 81.0277 127.091 80.9528 127.087 80.8366Z" fill="#17282F"/>
<path d="M122.203 82.2056C124.093 83.0805 126.35 84.1717 129.326 84.7029C129.326 84.7029 127.453 87.3633 124.425 86.0643C121.281 84.7155 122.203 82.2056 122.203 82.2056Z" fill="white"/>
<path d="M126.974 98.9889C126.974 98.9889 120.171 99.1709 113.22 94.2575C113.22 94.2575 116.102 102.15 126.848 101.767L126.974 98.9889Z" fill="#FEAA91"/>
<path d="M138.746 54.641C138.746 54.641 132.279 57.9285 123.699 53.8529C118.069 51.1778 111.543 49.9446 110.132 51.0931C108.721 52.2424 108.531 57.9936 103.039 59.7783C103.039 59.7783 103.632 70.7334 99.2535 70.4276C94.8755 70.1217 97.277 53.09 97.277 53.09L107.867 47.6607L119.493 45.2292L130.517 46.5654L139.069 48.7295L138.746 54.641Z" fill="#17282F"/>
<path d="M100.054 66.9064C99.8751 66.8168 92.8088 64.3272 92.6436 71.6665C92.4784 79.0058 99.8807 77.6577 99.8982 77.4471C99.9157 77.2371 100.054 66.9064 100.054 66.9064Z" fill="#FFC4B4"/>
<path d="M97.7187 74.6158C97.6872 74.592 97.5892 74.7026 97.3708 74.797C97.158 74.8887 96.7941 74.9475 96.4147 74.7956C95.6455 74.4933 95.0205 73.2474 95.0149 71.9239C95.0107 71.2555 95.1654 70.6228 95.4138 70.1013C95.6497 69.5694 96.006 69.2019 96.3972 69.1417C96.7878 69.0605 97.0586 69.3006 97.144 69.5092C97.2378 69.7171 97.1881 69.8619 97.2266 69.8752C97.2462 69.8948 97.3869 69.7563 97.3344 69.4518C97.3071 69.3055 97.2252 69.1305 97.0565 68.9849C96.883 68.838 96.6261 68.7596 96.3531 68.7827C95.7869 68.8093 95.2654 69.3181 94.9918 69.8906C94.688 70.4646 94.499 71.1757 94.5032 71.926C94.5165 73.4056 95.2424 74.8068 96.2964 75.1379C96.8095 75.2835 97.2441 75.1379 97.4702 74.9692C97.7019 74.7935 97.7439 74.6298 97.7187 74.6158Z" fill="#F68260"/>
<path d="M96.3167 43.9293C96.2761 43.8439 97.4813 43.4989 98.8623 44.0238C100.25 44.5313 100.935 45.5811 100.848 45.6196C100.768 45.6952 100.015 44.8287 98.7349 44.3647C97.4645 43.8775 96.3279 44.0392 96.3167 43.9293Z" fill="#17282F"/>
<path d="M100.732 39.5333C100.861 39.5416 100.658 41.0808 100.915 42.9173C101.164 44.7686 102.038 46.0572 101.94 46.1152C101.905 46.1397 101.637 45.8535 101.325 45.3048C101.019 44.7553 100.688 43.928 100.555 42.9712C100.289 41.0493 100.663 39.5172 100.732 39.5333Z" fill="#17282F"/>
<path d="M130.888 64.3865C130.85 64.3004 131.164 64.047 131.76 63.8041C132.351 63.5605 133.233 63.3534 134.22 63.3618C135.207 63.373 136.084 63.597 136.671 63.8524C137.262 64.1079 137.571 64.3668 137.53 64.4515C137.44 64.6461 136.026 64.0946 134.212 64.0911C132.399 64.0589 130.974 64.5824 130.888 64.3865Z" fill="#17282F"/>
<path d="M114.523 62.8426C114.484 62.7565 114.799 62.5038 115.394 62.2602C115.986 62.0167 116.868 61.8102 117.854 61.8179C118.841 61.8291 119.718 62.0531 120.306 62.3092C120.896 62.564 121.205 62.823 121.164 62.9084C121.075 63.1022 119.661 62.5507 117.847 62.5472C116.033 62.5143 114.609 63.0385 114.523 62.8426Z" fill="#17282F"/>
<path d="M129.625 65.5401C129.634 65.5492 129.642 65.6989 129.653 65.974C129.662 66.2848 129.674 66.6767 129.689 67.1583C129.699 67.679 129.712 68.2921 129.726 68.9955C129.729 69.7046 129.772 70.5305 130.076 71.376C130.368 72.2193 130.874 73.0858 131.623 73.8222C132.378 74.5445 133.366 75.1471 134.516 75.411C135.086 75.546 135.693 75.6118 136.306 75.5677C136.919 75.5383 137.543 75.4145 138.137 75.1814C139.336 74.7418 140.422 73.8767 141.155 72.7394C141.858 71.6531 142.174 70.387 142.139 69.1565C142.143 67.9044 142.146 66.6949 142.149 65.5401L142.318 65.7094C138.651 65.6758 135.513 65.6478 133.235 65.6269C132.143 65.608 131.259 65.5926 130.598 65.5807C130.315 65.573 130.081 65.566 129.885 65.5604C129.72 65.5534 129.632 65.5464 129.625 65.5401C129.612 65.5268 129.926 65.5135 130.524 65.4988C131.175 65.4876 132.047 65.4722 133.123 65.4533C135.429 65.433 138.606 65.4043 142.318 65.3707L142.487 65.3693L142.488 65.5401C142.491 66.6949 142.494 67.9044 142.497 69.1565C142.538 70.4276 142.207 71.7924 141.462 72.9368C140.685 74.1413 139.533 75.0547 138.263 75.5159C137.633 75.7595 136.972 75.8883 136.325 75.9149C135.676 75.9576 135.038 75.8848 134.437 75.7371C133.227 75.4495 132.193 74.8048 131.411 74.037C130.635 73.2559 130.119 72.3411 129.831 71.4578C129.531 70.5697 129.505 69.7158 129.523 68.9794C129.538 68.2578 129.551 67.6279 129.561 67.0946C129.576 66.6193 129.588 66.233 129.597 65.9264C129.607 65.6639 129.617 65.531 129.625 65.5401Z" fill="#17282F"/>
<path d="M112.466 65.1775C112.474 65.1866 112.483 65.3371 112.493 65.6121C112.503 65.9229 112.514 66.3148 112.529 66.7964C112.54 67.3164 112.553 67.9303 112.567 68.6337C112.57 69.3427 112.612 70.1679 112.917 71.0141C113.208 71.8575 113.714 72.7233 114.463 73.4603C115.219 74.1826 116.207 74.7852 117.356 75.0491C117.927 75.1842 118.533 75.2499 119.146 75.2052C119.76 75.1765 120.383 75.0526 120.977 74.8195C122.176 74.38 123.262 73.5142 123.996 72.3775C124.699 71.2905 125.014 70.0251 124.98 68.7946C124.983 67.5425 124.987 66.3323 124.99 65.1775L125.159 65.3469C121.492 65.314 118.353 65.2853 116.076 65.265C114.983 65.2454 114.099 65.2307 113.439 65.2188C113.155 65.2104 112.921 65.2041 112.725 65.1978C112.561 65.1915 112.472 65.1845 112.466 65.1775C112.452 65.1642 112.767 65.1516 113.365 65.1369C114.015 65.1257 114.888 65.1103 115.964 65.0914C118.269 65.0704 121.446 65.0417 125.159 65.0088L125.328 65.0067V65.1775C125.331 66.3323 125.334 67.5425 125.338 68.7946C125.379 70.0657 125.047 71.4305 124.303 72.5742C123.526 73.7787 122.374 74.6928 121.103 75.1541C120.474 75.3976 119.813 75.5257 119.165 75.553C118.517 75.5957 117.878 75.5222 117.278 75.3752C116.067 75.0876 115.034 74.4429 114.251 73.6751C113.475 72.894 112.96 71.9793 112.672 71.0953C112.371 70.2071 112.345 69.3532 112.364 68.6176C112.379 67.8952 112.392 67.266 112.402 66.732C112.417 66.2575 112.428 65.8711 112.438 65.5638C112.448 65.3014 112.457 65.1691 112.466 65.1775Z" fill="#17282F"/>
<path d="M129.78 66.0503C129.78 66.1511 128.697 66.2323 127.363 66.2323C126.029 66.2323 124.947 66.1511 124.947 66.0503C124.947 65.9495 126.029 65.8676 127.363 65.8676C128.697 65.8676 129.78 65.9495 129.78 66.0503Z" fill="#17282F"/>
<path d="M99.0828 66.1462C99.0821 66.0454 102.078 65.9551 105.773 65.9432C109.47 65.9327 112.466 66.0048 112.467 66.1056C112.467 66.2064 109.471 66.2967 105.775 66.3079C102.079 66.3191 99.0828 66.2463 99.0828 66.1462Z" fill="#17282F"/>
<path d="M233.561 74.8413L212.726 67.3585L192.092 74.7405C189.458 75.9842 187.148 76.7289 187.148 79.1828V91.4005C187.148 99.8856 189.371 108.293 193.945 115.716C197.794 121.962 203.754 128.394 212.928 132.481C221.362 129.742 227.658 122.439 231.507 116.193C236.08 108.77 238.303 100.362 238.303 91.8772V80.8906C238.303 77.3911 236.449 75.6826 233.561 74.8413Z" fill="#FF2D3B"/>
<path d="M189.026 76.2473C189.955 75.637 191.089 75.1786 192.092 74.7404C190.957 75.2765 189.882 75.7196 189.026 76.2473Z" fill="#CAC7D7" fill-opacity="0.3"/>
<path d="M212.928 132.481C203.754 128.394 197.794 121.962 193.945 115.716C189.371 108.293 187.148 99.8856 187.148 91.4005V79.1828C187.148 77.8656 187.949 76.955 189.026 76.2474C189.882 75.7197 190.957 75.2766 192.092 74.7405L212.726 67.3585L212.729 73.1202L196.029 79.3655C193.703 80.4504 192.532 82.2695 192.532 84.2103V92.7808C192.532 99.493 194.29 106.146 197.909 112.019C200.955 116.961 205.669 122.157 212.928 125.391V132.481Z" fill="#263238"/>
<path d="M215.141 131.64C215.734 131.382 216.315 131.101 216.884 130.801C216.316 131.105 215.737 131.383 215.141 131.64ZM224.833 124.774C226.604 122.985 228.173 121.067 229.533 119.165C228.418 120.766 227.161 122.376 225.684 123.912C225.41 124.197 225.127 124.485 224.833 124.774ZM232.932 113.705C236.542 106.917 238.303 99.427 238.303 91.8771V80.8905C238.303 80.698 238.298 80.5118 238.287 80.3306C238.305 80.5979 238.315 80.8807 238.316 81.1803L238.303 91.2674C238.487 99.1688 236.678 106.816 232.932 113.705ZM238.235 79.7839C237.991 77.9005 237.1 76.635 235.745 75.7839C236.94 76.4292 237.95 77.4462 238.235 79.7839Z" fill="#CAC7D7" fill-opacity="0.3"/>
<path d="M212.928 132.481V125.391C220.187 122.157 224.7 117.061 227.744 112.119C231.363 106.246 233.123 99.5944 233.123 92.8816V84.3111C233.123 82.3703 231.952 80.5512 229.626 79.4663L212.729 73.1202L212.726 67.3585L233.561 74.8413C234.28 75.1548 235.045 75.4054 235.745 75.7841C237.1 76.6352 237.991 77.9006 238.235 79.7841C238.256 79.959 238.274 80.141 238.287 80.3307C238.298 80.512 238.303 80.6982 238.303 80.8906V91.8772C238.303 99.4272 236.542 106.917 232.932 113.705C232.545 114.418 232.138 115.121 231.709 115.817C231.035 116.91 230.319 118.036 229.533 119.165C228.173 121.067 226.604 122.985 224.833 124.775C222.708 126.872 220.061 129.071 217.022 130.726C216.976 130.751 216.929 130.776 216.884 130.801C216.315 131.101 215.734 131.382 215.141 131.64C214.43 131.947 213.695 132.224 212.928 132.481Z" fill="#263238"/>
<path d="M217.977 107.997H207.88C206.208 107.997 204.852 106.641 204.852 104.97V95.2444C204.852 93.7242 205.974 92.4692 207.434 92.2537L207.457 90.5739C207.457 87.5992 209.884 85.1726 212.866 85.1726C215.849 85.1726 218.276 87.5992 218.276 90.5816L218.254 92.2306C219.796 92.3705 221.004 93.6654 221.004 95.2444V104.97C221.004 106.641 219.649 107.997 217.977 107.997ZM212.928 97.6647C212.039 97.6647 211.318 98.3856 211.318 99.2752C211.318 99.8526 211.623 100.358 212.08 100.642L211.668 102.549H214.31C214.31 102.549 214.012 101.351 213.826 100.611C214.256 100.323 214.539 99.8316 214.539 99.2752C214.539 98.3856 213.818 97.6647 212.928 97.6647ZM212.866 86.338C210.527 86.338 208.623 88.2417 208.623 90.5816L208.6 92.2166H217.088L217.111 90.5739C217.111 88.2417 215.207 86.338 212.866 86.338Z" fill="white"/>
<path d="M195.908 92.1123C195.861 92.1186 195.717 91.476 195.595 90.4199C195.471 89.3651 195.378 87.8953 195.426 86.2722C195.449 85.461 195.503 84.689 195.576 83.989C195.644 83.2905 195.772 82.6354 196.042 82.1455C196.307 81.6527 196.677 81.3588 196.955 81.2286C197.237 81.097 197.413 81.1033 197.416 81.1229C197.452 81.1691 196.712 81.314 196.272 82.261C196.056 82.7194 195.959 83.3276 195.911 84.0198C195.856 84.7142 195.813 85.4792 195.791 86.2827C195.743 87.889 195.793 89.3448 195.852 90.3982C195.907 91.4522 195.961 92.1053 195.908 92.1123Z" fill="white"/>
<path d="M196.214 97.4303C196.113 97.4324 196.022 96.9306 196.01 96.3097C195.998 95.6882 196.069 95.1829 196.17 95.1808C196.27 95.1787 196.362 95.6812 196.374 96.3027C196.386 96.9236 196.315 97.4282 196.214 97.4303Z" fill="white"/>
<path d="M174.232 147.814L150.998 205.268H109.105V207.862H233.883L259.406 147.814H174.232Z" fill="#263238"/>
<path d="M209.744 181.734C208.903 184.625 206.451 186.455 204.269 185.819C202.087 185.185 201.001 182.326 201.842 179.433C202.685 176.542 205.135 174.713 207.318 175.348C209.5 175.984 210.587 178.843 209.744 181.734Z" fill="#FAFAF9"/>
</svg>
