<svg width="191" height="26" viewBox="0 0 191 26" fill="none" xmlns="http://www.w3.org/2000/svg">
<path fill-rule="evenodd" clip-rule="evenodd" d="M0 13.5797L1.8357 14.6377L0 15.6957V21.9314L1.83585 20.8733V1.05879L0 0.000732422V13.5797Z" fill="#011727"/>
<path fill-rule="evenodd" clip-rule="evenodd" d="M3.67188 19.8144L5.50772 18.7563V3.17426L3.67188 2.11621V19.8144Z" fill="#011727"/>
<path fill-rule="evenodd" clip-rule="evenodd" d="M7.34375 17.6984L9.1796 16.6404V5.29079L7.34375 4.23267V17.6984Z" fill="#011727"/>
<path fill-rule="evenodd" clip-rule="evenodd" d="M11.0156 15.582L12.8515 16.6318V5.29883L11.0156 6.35688V15.582Z" fill="#011727"/>
<path fill-rule="evenodd" clip-rule="evenodd" d="M16.5224 18.748V14.637L14.6865 13.5789V17.6981L16.5224 18.748Z" fill="#011727"/>
<path fill-rule="evenodd" clip-rule="evenodd" d="M16.5224 3.18262L14.6865 4.23246V13.579L16.5224 12.5207V3.18262Z" fill="#011727"/>
<path fill-rule="evenodd" clip-rule="evenodd" d="M36.6616 3.18652H34.3301V3.61799H35.2623V6.90418H35.7293V3.61799H36.6616V3.18652Z" fill="#011727"/>
<path fill-rule="evenodd" clip-rule="evenodd" d="M42.5774 3.18652H42.1104V6.90418H43.5096V6.47271H42.5774V3.18652Z" fill="#011727"/>
<path fill-rule="evenodd" clip-rule="evenodd" d="M29.9434 6.8219H32.7387L32.4695 6.35488H30.7517L32.086 4.03958L33.6897 6.8219H34.2288L32.086 3.10425L29.9434 6.8219Z" fill="#011727"/>
<path fill-rule="evenodd" clip-rule="evenodd" d="M36.791 6.90418H39.5864L39.3171 6.43708H37.5993L38.9337 4.12178L40.5374 6.90418H41.0765L38.9337 3.18652L36.791 6.90418Z" fill="#011727"/>
<path fill-rule="evenodd" clip-rule="evenodd" d="M48.2903 6.90418H48.8294L46.6867 3.18652L44.5439 6.90418H47.3393L47.0701 6.43708H45.3523L46.6867 4.12178L48.2903 6.90418Z" fill="#011727"/>
<path fill-rule="evenodd" clip-rule="evenodd" d="M28.5614 6.05713C28.4562 6.05713 28.368 6.09412 28.2919 6.17021C28.2157 6.24638 28.1787 6.33332 28.1787 6.43601C28.1787 6.54879 28.2145 6.63942 28.288 6.71288C28.3618 6.78656 28.4511 6.82234 28.5614 6.82234C28.669 6.82234 28.7572 6.78656 28.8308 6.71288C28.9069 6.63671 28.9439 6.54743 28.9439 6.4397C28.9439 6.3346 28.9069 6.24645 28.8308 6.17021C28.7546 6.09412 28.6665 6.05713 28.5614 6.05713Z" fill="#011727"/>
<mask id="mask0" mask-type="alpha" maskUnits="userSpaceOnUse" x="0" y="0" width="71" height="22">
<path d="M0 21.9307H70.8404V0H0V21.9307Z" fill="white"/>
</mask>
<g mask="url(#mask0)">
<path fill-rule="evenodd" clip-rule="evenodd" d="M22.0312 6.90418H22.4983V3.18652H22.0312V6.90418Z" fill="#F83633"/>
<path fill-rule="evenodd" clip-rule="evenodd" d="M26.4573 6.03997C26.1897 6.30908 25.858 6.44521 25.4706 6.44521C25.1117 6.44521 24.7916 6.31194 24.5192 6.04908C24.2441 5.78517 24.1044 5.44494 24.1044 5.03789C24.1044 4.64922 24.239 4.31766 24.5044 4.05224C24.7693 3.78418 25.099 3.6479 25.4836 3.6479C25.8699 3.6479 26.1991 3.78441 26.4618 4.05344C26.7249 4.31969 26.8585 4.65404 26.8585 5.04648C26.8585 5.43462 26.7234 5.76882 26.4573 6.03997ZM25.4914 3.18652C24.9688 3.18652 24.5337 3.36447 24.1614 3.73062C23.7879 4.09624 23.6064 4.52092 23.6064 5.02915C23.6064 5.60971 23.8048 6.06528 24.2129 6.42193C24.5807 6.74182 25.0009 6.90418 25.4615 6.90418C25.9911 6.90418 26.4304 6.72683 26.8044 6.36212C27.1758 6.00004 27.3565 5.57129 27.3565 5.05153C27.3565 4.53455 27.1764 4.10384 26.8058 3.73491C26.4368 3.36583 26.0068 3.18652 25.4914 3.18652Z" fill="#F83633"/>
<path fill-rule="evenodd" clip-rule="evenodd" d="M24.0633 11.3669H25.8528C26.6882 11.3669 27.288 11.5334 27.6348 11.8612C27.9829 12.1905 28.152 12.6677 28.152 13.3206C28.152 13.9516 27.9825 14.4214 27.6338 14.7565C27.2866 15.089 26.6877 15.2576 25.8528 15.2576H24.0633V11.3669ZM25.9841 9.58179H22.0312V21.7152H24.0633V17.0427H25.9841C27.3287 17.0427 28.3793 16.7128 29.1075 16.0614C29.8435 15.4022 30.2167 14.4798 30.2167 13.3206C30.2167 12.1738 29.856 11.253 29.1451 10.5839C28.4389 9.91893 27.3754 9.58179 25.9841 9.58179Z" fill="#F83633"/>
<path fill-rule="evenodd" clip-rule="evenodd" d="M38.7678 13.3864C38.7678 14.7304 38.0426 15.3567 36.4851 15.3567H34.5643V11.416H36.4851C38.0426 11.416 38.7678 12.0423 38.7678 13.3864ZM39.9728 15.7629C40.5433 15.1391 40.8325 14.3118 40.8325 13.3039C40.8325 12.1916 40.4726 11.2823 39.7632 10.6022C39.0571 9.92526 37.9985 9.58179 36.6165 9.58179H32.5322V21.7153H34.5643V16.9769H35.7791L38.8065 21.7153H41.1444L37.9354 16.8522C38.7968 16.6663 39.4811 16.301 39.9728 15.7629Z" fill="#F83633"/>
<path fill-rule="evenodd" clip-rule="evenodd" d="M43.2314 21.7153H45.2635V9.58179H43.2314V21.7153Z" fill="#F83633"/>
<path fill-rule="evenodd" clip-rule="evenodd" d="M54.3216 15.433C53.8604 15.2102 53.243 14.9732 52.4857 14.7279C51.8835 14.5342 51.406 14.3583 51.0664 14.2039C50.754 14.0628 50.4896 13.8655 50.28 13.6171C50.0846 13.3853 49.9896 13.0837 49.9896 12.6954C49.9896 12.2015 50.1368 11.8346 50.4393 11.5731C50.7548 11.3012 51.1715 11.1691 51.7131 11.1691C52.3076 11.1691 52.7599 11.3184 53.0955 11.6259C53.439 11.9401 53.6436 12.2903 53.7208 12.6959L53.7623 12.913H55.8998L55.8612 12.6118C55.7424 11.6906 55.3176 10.9212 54.598 10.3257C53.8818 9.73374 52.9112 9.43359 51.7131 9.43359C50.9426 9.43359 50.2597 9.56935 49.6835 9.83711C49.0955 10.1107 48.6369 10.5036 48.3198 11.0063C48.0033 11.5074 47.8428 12.0924 47.8428 12.7449C47.8428 13.5018 48.0179 14.125 48.3629 14.5974C48.7011 15.0599 49.1169 15.4111 49.5982 15.6423C50.0538 15.8621 50.6598 16.0965 51.4023 16.3391C52.0096 16.5307 52.4966 16.7123 52.8497 16.8773C53.1746 17.0302 53.4507 17.2417 53.671 17.5063C53.8784 17.7553 53.9795 18.0763 53.9795 18.487C53.9795 18.9662 53.8328 19.3456 53.5314 19.6473C53.2344 19.9444 52.7886 20.0947 52.2067 20.0947C51.7504 20.0947 51.3605 20.0044 51.0474 19.8259C50.7321 19.6463 50.4872 19.4171 50.3201 19.1447C50.1501 18.8681 50.0497 18.5825 50.0209 18.2954L49.9969 18.0549H47.8676L47.8932 18.3455C47.9519 19.0168 48.1763 19.6244 48.5601 20.15C48.9426 20.673 49.4588 21.089 50.0946 21.386C50.7251 21.6809 51.4524 21.8307 52.2559 21.8307C53.0872 21.8307 53.8002 21.6699 54.3757 21.3531C54.955 21.0342 55.3942 20.6114 55.6811 20.0978C55.9655 19.5878 56.1098 19.0293 56.1098 18.4374C56.1098 17.6482 55.9324 17.001 55.5827 16.5135C55.2393 16.0338 54.8149 15.6705 54.3216 15.433Z" fill="#F83633"/>
<path fill-rule="evenodd" clip-rule="evenodd" d="M68.6017 9.7793L64.7963 18.9303L60.9281 9.7793H58.6904V21.7149H60.7225V13.7613L63.9271 21.7149H65.6208L68.8089 13.7383V21.7149H70.8404V9.7793H68.6017Z" fill="#F83633"/>
</g>
<path d="M103.599 16C104.948 16 105.766 15.3171 105.766 14.2051C105.766 13.369 105.167 12.7518 104.309 12.6686V12.6336C104.956 12.5285 105.46 11.9375 105.46 11.259C105.46 10.3002 104.72 9.68299 103.573 9.68299H100.951V16H103.599ZM102.08 10.5629H103.289C103.963 10.5629 104.344 10.8737 104.344 11.4253C104.344 12.0119 103.901 12.3446 103.113 12.3446H102.08V10.5629ZM102.08 15.1201V13.1457H103.293C104.16 13.1457 104.615 13.4828 104.615 14.1263C104.615 14.7742 104.173 15.1201 103.341 15.1201H102.08ZM108.598 10.5979H109.85C110.563 10.5979 111.006 11.0094 111.006 11.6748C111.006 12.3578 110.59 12.7561 109.872 12.7561H108.598V10.5979ZM108.598 13.6229H109.819L111.062 16H112.349L110.971 13.4522C111.723 13.1808 112.161 12.4847 112.161 11.6486C112.161 10.4403 111.343 9.68299 109.977 9.68299H107.468V16H108.598V13.6229ZM116.753 9.57792C114.91 9.57792 113.754 10.8343 113.754 12.8437C113.754 14.853 114.91 16.1051 116.753 16.1051C118.591 16.1051 119.747 14.853 119.747 12.8437C119.747 10.8343 118.591 9.57792 116.753 9.57792ZM116.753 10.541C117.878 10.541 118.596 11.4341 118.596 12.8437C118.596 14.2489 117.878 15.142 116.753 15.142C115.623 15.142 114.91 14.2489 114.91 12.8437C114.91 11.4341 115.623 10.541 116.753 10.541ZM125.008 11.4297H125.052L126.343 16H127.407L129.101 9.68299H127.928L126.834 14.4678H126.798L125.529 9.68299H124.531L123.261 14.4678H123.226L122.132 9.68299H120.959L122.653 16H123.717L125.008 11.4297ZM130.435 14.2358C130.488 15.3915 131.455 16.1051 132.918 16.1051C134.437 16.1051 135.387 15.3433 135.387 14.1351C135.387 13.1983 134.831 12.6642 133.5 12.3884L132.817 12.2483C132.029 12.082 131.714 11.8062 131.714 11.3772C131.714 10.8475 132.213 10.5147 132.913 10.5147C133.636 10.5147 134.135 10.8737 134.187 11.4691H135.268C135.242 10.3396 134.318 9.57792 132.922 9.57792C131.552 9.57792 130.576 10.3309 130.576 11.4428C130.576 12.3665 131.167 12.9619 132.432 13.2202L133.11 13.3603C133.933 13.531 134.248 13.8112 134.248 14.2664C134.248 14.7918 133.719 15.1682 132.957 15.1682C132.169 15.1682 131.6 14.818 131.517 14.2358H130.435ZM141.217 15.0457H138.258V13.2421H141.055V12.3446H138.258V10.6373H141.217V9.68299H137.128V16H141.217V15.0457ZM144.223 10.5979H145.475C146.189 10.5979 146.631 11.0094 146.631 11.6748C146.631 12.3578 146.215 12.7561 145.497 12.7561H144.223V10.5979ZM144.223 13.6229H145.445L146.688 16H147.975L146.596 13.4522C147.349 13.1808 147.787 12.4847 147.787 11.6486C147.787 10.4403 146.968 9.68299 145.602 9.68299H143.094V16H144.223V13.6229ZM155.967 11.4297H156.011L157.302 16H158.366L160.06 9.68299H158.887L157.793 14.4678H157.758L156.488 9.68299H155.49L154.22 14.4678H154.185L153.091 9.68299H151.918L153.612 16H154.676L155.967 11.4297ZM165.243 16H166.433L164.192 9.68299H162.918L160.677 16H161.841L162.38 14.3671H164.704L165.243 16ZM163.526 10.7993H163.557L164.437 13.496H162.642L163.526 10.7993ZM172.005 15.0457H169.138V9.68299H168.008V16H172.005V15.0457ZM177.708 15.0457H174.841V9.68299H173.712V16H177.708V15.0457ZM183.504 15.0457H180.544V13.2421H183.342V12.3446H180.544V10.6373H183.504V9.68299H179.415V16H183.504V15.0457ZM188.051 16V10.6373H189.938V9.68299H185.035V10.6373H186.926V16H188.051Z" fill="#99A2A9"/>
<path d="M85 0V22.5" stroke="#CCD1D4"/>
</svg>
