<svg width="110" height="35" viewBox="0 0 110 35" fill="none" xmlns="http://www.w3.org/2000/svg">
<path fill-rule="evenodd" clip-rule="evenodd" d="M0 21.0858L2.85045 22.7287L0 24.3715V34.0542L2.85068 32.4112V1.64354L0 0.000610352V21.0858Z" fill="black"/>
<path fill-rule="evenodd" clip-rule="evenodd" d="M5.70142 30.7678L8.5521 29.1248V4.92919L5.70142 3.28625V30.7678Z" fill="black"/>
<path fill-rule="evenodd" clip-rule="evenodd" d="M11.4027 27.4816L14.2534 25.8387V8.21519L11.4027 6.57214V27.4816Z" fill="black"/>
<path fill-rule="evenodd" clip-rule="evenodd" d="M17.1041 24.1958L19.9548 25.826V8.22827L17.1041 9.8712V24.1958Z" fill="black"/>
<path fill-rule="evenodd" clip-rule="evenodd" d="M25.6565 29.1119V22.7284L22.8058 21.0853V27.4816L25.6565 29.1119Z" fill="black"/>
<path fill-rule="evenodd" clip-rule="evenodd" d="M25.6565 4.94202L22.8058 6.5722V21.0853L25.6565 19.4421V4.94202Z" fill="black"/>
<path fill-rule="evenodd" clip-rule="evenodd" d="M56.9283 4.94763H53.308V5.6176H54.7556V10.7204H55.4807V5.6176H56.9283V4.94763Z" fill="black"/>
<path fill-rule="evenodd" clip-rule="evenodd" d="M66.1136 4.94763H65.3884V10.7204H67.5612V10.0504H66.1136V4.94763Z" fill="black"/>
<path fill-rule="evenodd" clip-rule="evenodd" d="M46.4955 10.5932H50.8361L50.418 9.86797H47.7506L49.8225 6.2728L52.3128 10.5932H53.1498L49.8225 4.82043L46.4955 10.5932Z" fill="black"/>
<path fill-rule="evenodd" clip-rule="evenodd" d="M57.1283 10.7204H61.4689L61.0508 9.99505H58.3834L60.4555 6.39988L62.9456 10.7204H63.7827L60.4555 4.94763L57.1283 10.7204Z" fill="black"/>
<path fill-rule="evenodd" clip-rule="evenodd" d="M74.9842 10.7204H75.8212L72.4941 4.94763L69.1669 10.7204H73.5075L73.0895 9.99505H70.422L72.4941 6.39988L74.9842 10.7204Z" fill="black"/>
<path fill-rule="evenodd" clip-rule="evenodd" d="M44.3498 9.40503C44.1865 9.40503 44.0495 9.46247 43.9313 9.58062C43.8131 9.69889 43.7556 9.83389 43.7556 9.99334C43.7556 10.1685 43.8112 10.3092 43.9254 10.4233C44.0399 10.5377 44.1786 10.5932 44.3498 10.5932C44.5169 10.5932 44.6538 10.5377 44.7681 10.4233C44.8864 10.305 44.9438 10.1664 44.9438 9.99908C44.9438 9.83588 44.8864 9.69901 44.7681 9.58062C44.6498 9.46247 44.5131 9.40503 44.3498 9.40503Z" fill="black"/>
<mask id="mask0" mask-type="alpha" maskUnits="userSpaceOnUse" x="0" y="0" width="110" height="35">
<path d="M0 34.0537H110V0H0V34.0537Z" fill="white"/>
</mask>
<g mask="url(#mask0)">
<path fill-rule="evenodd" clip-rule="evenodd" d="M34.2085 10.7204H34.9337V4.94763H34.2085V10.7204Z" fill="#E42527"/>
<path fill-rule="evenodd" clip-rule="evenodd" d="M41.0829 9.37842C40.6674 9.79629 40.1525 10.0077 39.5509 10.0077C38.9936 10.0077 38.4965 9.80074 38.0735 9.39258C37.6464 8.98278 37.4295 8.45448 37.4295 7.82241C37.4295 7.21889 37.6385 6.70404 38.0506 6.2919C38.4619 5.87567 38.9738 5.66405 39.571 5.66405C40.1709 5.66405 40.682 5.87602 41.0901 6.29377C41.4985 6.7072 41.706 7.22637 41.706 7.83575C41.706 8.43845 41.4963 8.95739 41.0829 9.37842ZM39.5832 4.94763C38.7717 4.94763 38.0961 5.22395 37.518 5.79249C36.9379 6.36022 36.6562 7.01966 36.6562 7.80884C36.6562 8.71032 36.9643 9.41773 37.598 9.97153C38.1691 10.4683 38.8215 10.7204 39.5368 10.7204C40.359 10.7204 41.0412 10.445 41.622 9.87865C42.1987 9.31642 42.4793 8.65066 42.4793 7.84358C42.4793 7.04084 42.1996 6.37204 41.6242 5.79916C41.0511 5.22605 40.3835 4.94763 39.5832 4.94763Z" fill="#E42527"/>
<path fill-rule="evenodd" clip-rule="evenodd" d="M37.3638 17.65H40.1425C41.4398 17.65 42.3711 17.9085 42.9096 18.4177C43.4502 18.929 43.7128 19.6699 43.7128 20.6838C43.7128 21.6636 43.4495 22.393 42.9081 22.9134C42.369 23.4296 41.439 23.6914 40.1425 23.6914H37.3638V17.65ZM40.3464 14.8782H34.2085V33.7188H37.3638V26.4634H40.3464C42.4343 26.4634 44.0657 25.9511 45.1964 24.9397C46.3392 23.916 46.9188 22.4838 46.9188 20.6838C46.9188 18.903 46.3586 17.4732 45.2548 16.4342C44.1581 15.4017 42.5068 14.8782 40.3464 14.8782Z" fill="#F83633"/>
<path fill-rule="evenodd" clip-rule="evenodd" d="M60.1976 20.7859C60.1976 22.8729 59.0715 23.8454 56.653 23.8454H53.6703V17.7263H56.653C59.0715 17.7263 60.1976 18.6988 60.1976 20.7859ZM62.0686 24.4761C62.9544 23.5075 63.4036 22.2228 63.4036 20.6578C63.4036 18.9306 62.8447 17.5187 61.7432 16.4627C60.6467 15.4115 59.0029 14.8782 56.8571 14.8782H50.515V33.7189H53.6703V26.3613H55.5567L60.2576 33.7189H63.8879L58.9049 26.1675C60.2426 25.8789 61.3052 25.3117 62.0686 24.4761Z" fill="#F83633"/>
<path fill-rule="evenodd" clip-rule="evenodd" d="M67.1293 33.7189H70.2846V14.8782H67.1293V33.7189Z" fill="#F83633"/>
<path fill-rule="evenodd" clip-rule="evenodd" d="M84.3507 23.964C83.6347 23.618 82.676 23.25 81.4999 22.8692C80.565 22.5683 79.8234 22.2952 79.2962 22.0554C78.811 21.8364 78.4005 21.53 78.0751 21.1442C77.7716 20.7844 77.6241 20.316 77.6241 19.713C77.6241 18.9462 77.8526 18.3765 78.3224 17.9704C78.8122 17.5481 79.4594 17.343 80.3004 17.343C81.2235 17.343 81.9258 17.5749 82.4469 18.0523C82.9803 18.5403 83.298 19.084 83.4179 19.7139L83.4824 20.051H86.8013L86.7414 19.5833C86.5569 18.1528 85.8973 16.9581 84.7799 16.0334C83.6679 15.1143 82.1608 14.6482 80.3004 14.6482C79.104 14.6482 78.0435 14.859 77.1488 15.2748C76.2357 15.6995 75.5237 16.3097 75.0313 17.0902C74.5398 17.8684 74.2905 18.7768 74.2905 19.79C74.2905 20.9652 74.5624 21.9329 75.0982 22.6664C75.6233 23.3846 76.269 23.93 77.0163 24.289C77.7238 24.6303 78.6648 24.9942 79.8177 25.371C80.7607 25.6685 81.5169 25.9505 82.0652 26.2067C82.5696 26.4441 82.9984 26.7725 83.3404 27.1833C83.6626 27.57 83.8195 28.0684 83.8195 28.7062C83.8195 29.4502 83.5917 30.0395 83.1237 30.5079C82.6625 30.9692 81.9703 31.2026 81.0667 31.2026C80.3583 31.2026 79.7528 31.0624 79.2666 30.7852C78.777 30.5064 78.3968 30.1505 78.1372 29.7275C77.8733 29.2979 77.7174 28.8546 77.6727 28.4087L77.6355 28.0352H74.329L74.3688 28.4865C74.4599 29.5289 74.8084 30.4723 75.4044 31.2884C75.9983 32.1006 76.7998 32.7465 77.7871 33.2078C78.7661 33.6657 79.8955 33.8982 81.1432 33.8982C82.4339 33.8982 83.5411 33.6486 84.4347 33.1567C85.3343 32.6615 86.0163 32.005 86.4617 31.2075C86.9034 30.4155 87.1275 29.5483 87.1275 28.6293C87.1275 27.4037 86.852 26.3987 86.3089 25.6418C85.7757 24.897 85.1167 24.3328 84.3507 23.964Z" fill="#F83633"/>
<path fill-rule="evenodd" clip-rule="evenodd" d="M106.524 15.1854L100.615 29.395L94.6081 15.1854H91.1334V33.7189H94.2887V21.3686L99.2648 33.7189H101.895L106.845 21.333V33.7189H110V15.1854H106.524Z" fill="#F83633"/>
</g>
</svg>
