<svg width="143" height="92" viewBox="0 0 143 92" fill="none" xmlns="http://www.w3.org/2000/svg">
<path fill-rule="evenodd" clip-rule="evenodd" d="M25.7936 62.4796C25.7936 65.0364 27.8663 67.1092 30.4232 67.1092H126.984C129.54 67.1092 131.613 65.0364 131.613 62.4796C131.613 59.9227 129.54 57.85 126.984 57.85H123.015C120.459 57.85 118.386 55.7772 118.386 53.2204C118.386 50.6635 120.459 48.5907 123.015 48.5907H135.581C138.138 48.5907 140.211 46.518 140.211 43.9611C140.211 41.4043 138.138 39.3315 135.581 39.3315H121.031C123.588 39.3315 125.661 37.2588 125.661 34.7019C125.661 32.1451 123.588 30.0723 121.031 30.0723H78.7034C81.2603 30.0723 83.333 27.9996 83.333 25.4427C83.333 22.8858 81.2603 20.8131 78.7034 20.8131H41.0051C38.4483 20.8131 36.3755 22.8858 36.3755 25.4427C36.3755 27.9996 38.4483 30.0723 41.0051 30.0723H14.5502C11.9933 30.0723 9.9206 32.1451 9.9206 34.7019C9.9206 37.2588 11.9933 39.3315 14.5502 39.3315H31.0845C33.6414 39.3315 35.7141 41.4043 35.7141 43.9611C35.7141 46.518 33.6414 48.5907 31.0845 48.5907H4.62961C2.07275 48.5907 0 50.6635 0 53.2204C0 55.7772 2.07275 57.85 4.62961 57.85H30.4232C27.8663 57.85 25.7936 59.9227 25.7936 62.4796ZM142.857 62.4796C142.857 65.0364 140.784 67.1092 138.227 67.1092C135.67 67.1092 133.597 65.0364 133.597 62.4796C133.597 59.9227 135.67 57.8499 138.227 57.8499C140.784 57.8499 142.857 59.9227 142.857 62.4796Z" fill="#FF2D3B" fill-opacity="0.1"/>
<path fill-rule="evenodd" clip-rule="evenodd" d="M92.5084 72.4789C94.5177 71.1859 96.3042 69.5727 97.4665 68.2703L92.5084 72.4789ZM99.342 66.106C100.303 64.9285 101.167 63.6971 101.934 62.4226C103.621 59.6194 104.837 56.6078 105.579 53.5029C106.331 50.3627 106.599 47.127 106.381 43.9149C106.192 41.112 105.632 38.3271 104.702 35.6392C103.779 32.9726 102.492 30.4015 100.838 28.0031C99.8523 26.574 98.7368 25.2062 97.4909 23.9161C95.6618 22.022 93.6555 20.4027 91.5238 19.0592C89.2333 17.6156 86.7981 16.4905 84.2821 15.685C81.1312 14.6763 77.8538 14.1688 74.5759 14.1651C72.0255 14.1623 69.4748 14.4644 66.9832 15.0725C64.1781 15.7572 61.4478 16.8299 58.8771 18.2921C56.6173 19.5775 54.4808 21.164 52.5251 23.0526C50.0674 25.426 48.0766 28.1014 46.5545 30.9647C45.0643 33.7679 44.0234 36.7513 43.4335 39.8075C42.8257 42.9562 42.6966 46.1823 43.048 49.3687C43.5035 53.4985 44.7662 57.5615 46.8401 61.3024C48.1672 63.6961 49.8263 65.958 51.8187 68.0212C54.9817 71.2965 58.6744 73.7501 62.6294 75.3768C67.439 77.355 72.6366 78.1104 77.7412 77.6337C82.0254 77.2337 86.2441 75.9657 90.1129 73.8245" fill="white"/>
<path d="M92.1486 71.9197C91.8397 72.1185 91.7505 72.53 91.9492 72.8388C92.1479 73.1476 92.5594 73.2369 92.8683 73.0381L92.1486 71.9197ZM97.9626 68.7131C98.2072 68.439 98.1832 68.0186 97.9092 67.7741C97.6352 67.5296 97.2148 67.5535 96.9703 67.8275L97.9626 68.7131ZM101.934 62.4226L101.365 62.0797L101.934 62.4226ZM105.579 53.5029L106.226 53.6577L105.579 53.5029ZM106.381 43.9149L107.045 43.87L106.381 43.9149ZM104.702 35.6392L104.074 35.8567L104.702 35.6392ZM100.838 28.0031L100.29 28.3806L100.838 28.0031ZM97.4909 23.9161L97.0126 24.378L97.4909 23.9161ZM91.5238 19.0592L91.8784 18.4966L91.5238 19.0592ZM84.2821 15.685L84.0794 16.3184L84.2821 15.685ZM74.5759 14.1651L74.5752 14.8301L74.5759 14.1651ZM66.9832 15.0725L67.1408 15.7186L66.9832 15.0725ZM58.8771 18.2921L58.5483 17.7141L58.8771 18.2921ZM52.5251 23.0526L52.987 23.5309L52.5251 23.0526ZM46.5545 30.9647L45.9673 30.6525L46.5545 30.9647ZM43.4335 39.8075L42.7806 39.6815L43.4335 39.8075ZM43.048 49.3687L42.3871 49.4416L43.048 49.3687ZM46.8401 61.3024L47.4217 60.98L46.8401 61.3024ZM51.8187 68.0212L52.2971 67.5592L51.8187 68.0212ZM62.6294 75.3768L62.3764 75.9918L62.6294 75.3768ZM77.7412 77.6337L77.6794 76.9716L77.7412 77.6337ZM90.4349 74.4063C90.7563 74.2284 90.8726 73.8238 90.6947 73.5024C90.5169 73.1811 90.1122 73.0648 89.7909 73.2426L90.4349 74.4063ZM92.8683 73.0381C94.9318 71.7102 96.7635 70.0568 97.9626 68.7131L96.9703 67.8275C95.8449 69.0886 94.1036 70.6616 92.1486 71.9197L92.8683 73.0381ZM99.8571 66.5265C100.839 65.3243 101.721 64.0669 102.504 62.7654L101.365 62.0797C100.614 63.3272 99.768 64.5327 98.8269 65.6854L99.8571 66.5265ZM102.504 62.7654C104.226 59.9028 105.468 56.8277 106.226 53.6577L104.933 53.3482C104.205 56.388 103.015 59.336 101.365 62.0797L102.504 62.7654ZM106.226 53.6577C106.993 50.4518 107.267 47.1488 107.045 43.87L105.718 43.9598C105.931 47.1053 105.668 50.2736 104.933 53.3482L106.226 53.6577ZM107.045 43.87C106.851 41.0089 106.28 38.1659 105.331 35.4218L104.074 35.8567C104.984 38.4883 105.532 41.2152 105.718 43.9598L107.045 43.87ZM105.331 35.4218C104.389 32.6992 103.074 30.0741 101.385 27.6256L100.29 28.3806C101.91 30.7288 103.17 33.246 104.074 35.8567L105.331 35.4218ZM101.385 27.6256C100.379 26.1666 99.2405 24.7705 97.9693 23.4541L97.0126 24.378C98.233 25.6418 99.3255 26.9813 100.29 28.3806L101.385 27.6256ZM97.9693 23.4541C96.1028 21.5213 94.0549 19.8683 91.8784 18.4966L91.1692 19.6218C93.2562 20.937 95.2208 22.5226 97.0126 24.378L97.9693 23.4541ZM91.8784 18.4966C89.5398 17.0227 87.0535 15.874 84.4849 15.0517L84.0794 16.3184C86.5427 17.107 88.9269 18.2085 91.1692 19.6218L91.8784 18.4966ZM84.4849 15.0517C81.2682 14.0219 77.9226 13.5039 74.5767 13.5001L74.5752 14.8301C77.785 14.8337 80.9943 15.3307 84.0794 16.3184L84.4849 15.0517ZM74.5767 13.5001C71.9733 13.4972 69.3694 13.8056 66.8255 14.4265L67.1408 15.7186C69.5802 15.1231 72.0777 14.8273 74.5752 14.8301L74.5767 13.5001ZM66.8255 14.4265C63.9615 15.1256 61.1735 16.2209 58.5483 17.7141L59.2059 18.8702C61.7221 17.4389 64.3947 16.3889 67.1408 15.7186L66.8255 14.4265ZM58.5483 17.7141C56.2405 19.0268 54.0592 20.6466 52.0631 22.5742L52.987 23.5309C54.9023 21.6813 56.994 20.1283 59.2059 18.8702L58.5483 17.7141ZM52.0631 22.5742C49.5546 24.9967 47.5217 27.7284 45.9673 30.6525L47.1417 31.2768C48.6314 28.4744 50.5801 25.8552 52.987 23.5309L52.0631 22.5742ZM45.9673 30.6525C44.4456 33.5152 43.3828 36.5614 42.7806 39.6815L44.0865 39.9335C44.6641 36.9412 45.6831 34.0207 47.1417 31.2768L45.9673 30.6525ZM42.7806 39.6815C42.1601 42.8959 42.0283 46.1891 42.3871 49.4416L43.709 49.2958C43.3649 46.1756 43.4914 43.0166 44.0865 39.9335L42.7806 39.6815ZM42.3871 49.4416C42.852 53.6572 44.141 57.8053 46.2585 61.6248L47.4217 60.98C45.3914 57.3177 44.155 53.3398 43.709 49.2958L42.3871 49.4416ZM46.2585 61.6248C47.6135 64.0689 49.3073 66.3778 51.3404 68.4831L52.2971 67.5592C50.3454 65.5382 48.7208 63.3233 47.4217 60.98L46.2585 61.6248ZM51.3404 68.4831C54.5682 71.8257 58.3381 74.3308 62.3764 75.9918L62.8823 74.7618C59.0106 73.1693 55.3951 70.7673 52.2971 67.5592L51.3404 68.4831ZM62.3764 75.9918C67.2867 78.0114 72.5925 78.7824 77.8031 78.2959L77.6794 76.9716C72.6808 77.4384 67.5913 76.6986 62.8823 74.7618L62.3764 75.9918ZM77.8031 78.2959C82.1765 77.8875 86.484 76.593 90.4349 74.4063L89.7909 73.2426C86.0042 75.3385 81.8744 76.5799 77.6794 76.9716L77.8031 78.2959Z" fill="#FF2D3B"/>
<path d="M105.489 8.24698V12.2152" stroke="#FF2D3B" stroke-width="1.33" stroke-linecap="round" stroke-linejoin="round"/>
<path d="M105.489 17.5062V21.4744" stroke="#FF2D3B" stroke-width="1.33" stroke-linecap="round" stroke-linejoin="round"/>
<path d="M98.8752 14.8607H102.843" stroke="#FF2D3B" stroke-width="1.33" stroke-linecap="round" stroke-linejoin="round"/>
<path d="M108.134 14.8607H112.103" stroke="#FF2D3B" stroke-width="1.33" stroke-linecap="round" stroke-linejoin="round"/>
<path d="M50.595 76.3684V79.0139" stroke="#FF2D3B" stroke-width="1.33" stroke-linecap="round" stroke-linejoin="round"/>
<path d="M50.595 84.3049V86.9504" stroke="#FF2D3B" stroke-width="1.33" stroke-linecap="round" stroke-linejoin="round"/>
<path d="M45.3041 81.6594H47.9496" stroke="#FF2D3B" stroke-width="1.33" stroke-linecap="round" stroke-linejoin="round"/>
<path d="M53.2405 81.6594H55.886" stroke="#FF2D3B" stroke-width="1.33" stroke-linecap="round" stroke-linejoin="round"/>
<path fill-rule="evenodd" clip-rule="evenodd" d="M64.9352 19.9539C63.5868 20.4598 62.2697 21.0745 60.9972 21.7982C59.0199 22.923 57.1504 24.3111 55.4392 25.9636C54.7377 26.641 54.0797 27.3466 53.4653 28.0767M51.5639 30.619C51.0753 31.3573 50.6256 32.1142 50.215 32.8867C49.9117 33.4573 49.6296 34.0364 49.3689 34.6228" fill="white"/>
<path d="M65.1688 20.5765C65.5127 20.4475 65.6869 20.0642 65.5579 19.7203C65.4289 19.3764 65.0455 19.2023 64.7017 19.3313L65.1688 20.5765ZM60.9972 21.7982L61.326 22.3763L60.9972 21.7982ZM55.4392 25.9636L54.9773 25.4853L55.4392 25.9636ZM52.9565 27.6485C52.72 27.9295 52.7561 28.3491 53.0371 28.5855C53.3181 28.822 53.7376 28.7859 53.9741 28.5049L52.9565 27.6485ZM52.1184 30.986C52.3211 30.6797 52.2371 30.2671 51.9309 30.0644C51.6246 29.8617 51.212 29.9457 51.0093 30.252L52.1184 30.986ZM50.215 32.8867L50.8022 33.1989L50.215 32.8867ZM48.7613 34.3526C48.6121 34.6882 48.7631 35.0812 49.0987 35.2304C49.4343 35.3797 49.8273 35.2286 49.9766 34.893L48.7613 34.3526ZM64.7017 19.3313C63.3207 19.8493 61.9717 20.4789 60.6684 21.2202L61.326 22.3763C62.5677 21.67 63.853 21.0702 65.1688 20.5765L64.7017 19.3313ZM60.6684 21.2202C58.6431 22.3722 56.7289 23.7938 54.9773 25.4853L55.9012 26.442C57.572 24.8285 59.3967 23.4737 61.326 22.3763L60.6684 21.2202ZM54.9773 25.4853C54.2593 26.1786 53.5857 26.9009 52.9565 27.6485L53.9741 28.5049C54.5738 27.7922 55.2162 27.1035 55.9012 26.442L54.9773 25.4853ZM51.0093 30.252C50.5089 31.0082 50.0484 31.7834 49.6278 32.5746L50.8022 33.1989C51.2029 32.445 51.6417 31.7065 52.1184 30.986L51.0093 30.252ZM49.6278 32.5746C49.3171 33.159 49.0283 33.752 48.7613 34.3526L49.9766 34.893C50.231 34.3207 50.5062 33.7556 50.8022 33.1989L49.6278 32.5746Z" fill="#FF2D3B"/>
<path d="M82.1772 53.9832H65.0338C63.9214 53.9832 63.0169 53.0787 63.0169 51.9664C63.0169 50.8541 63.9215 49.9495 65.0338 49.9495H67.0506C67.6073 49.9495 68.0591 49.4977 68.0591 48.9411C68.0591 48.3844 67.6073 47.9326 67.0506 47.9326H65.0338C62.8091 47.9326 61 49.7418 61 51.9664C61 54.191 62.8091 56.0001 65.0338 56.0001H82.1772C82.7339 56.0001 83.1857 55.5483 83.1857 54.9917C83.1857 54.435 82.7339 53.9832 82.1772 53.9832Z" fill="#F83633"/>
<path d="M83.8999 36.1277C82.3953 34.6251 79.9468 34.6231 78.4392 36.1277L76.8962 37.6706C76.8771 37.6867 76.8539 37.6928 76.8358 37.711C76.8176 37.7291 76.8115 37.7523 76.7954 37.7714L71.6211 42.9457C70.6248 43.9441 70.0762 45.2712 70.0762 46.682V48.9409C70.0762 49.4976 70.528 49.9494 71.0846 49.9494H73.3435C74.7544 49.9494 76.0814 49.4008 77.0818 48.4035L83.8989 41.5864C85.4025 40.0818 85.4025 37.6323 83.8999 36.1277ZM75.6569 46.9765C75.0387 47.5926 74.2168 47.9325 73.3435 47.9325H72.093V46.682C72.093 45.8087 72.4329 44.9868 73.048 44.3697L77.5588 39.8589L80.1666 42.4667L75.6569 46.9765ZM82.4729 40.1604L81.5925 41.0408L78.9847 38.433L79.8641 37.5537C80.5831 36.8357 81.7539 36.8367 82.4719 37.5537C83.1899 38.2727 83.1899 39.4424 82.4729 40.1604Z" fill="#F83633"/>
</svg>
