<svg width="40" height="40" viewBox="0 0 40 40" fill="none" xmlns="http://www.w3.org/2000/svg">
<rect width="40" height="40" rx="8" fill="#FED7D6"/>
<path d="M29.1772 27.9832H12.0338C10.9214 27.9832 10.0169 27.0787 10.0169 25.9664C10.0169 24.8541 10.9215 23.9495 12.0338 23.9495H14.0506C14.6073 23.9495 15.0591 23.4977 15.0591 22.9411C15.0591 22.3844 14.6073 21.9326 14.0506 21.9326H12.0338C9.80913 21.9326 8 23.7418 8 25.9664C8 28.191 9.80913 30.0001 12.0338 30.0001H29.1772C29.7339 30.0001 30.1857 29.5483 30.1857 28.9917C30.1857 28.435 29.7339 27.9832 29.1772 27.9832Z" fill="#F83633"/>
<path d="M30.8996 10.1277C29.3951 8.62511 26.9466 8.6231 25.4389 10.1277L23.896 11.6706C23.8769 11.6867 23.8536 11.6928 23.8355 11.711C23.8174 11.7291 23.8113 11.7523 23.7952 11.7714L18.6209 16.9457C17.6245 17.9441 17.0759 19.2712 17.0759 20.682V22.9409C17.0759 23.4976 17.5277 23.9494 18.0844 23.9494H20.3433C21.7541 23.9494 23.0812 23.4008 24.0816 22.4035L30.8987 15.5864C32.4022 14.0818 32.4022 11.6323 30.8996 10.1277ZM22.6566 20.9765C22.0385 21.5926 21.2166 21.9325 20.3433 21.9325H19.0928V20.682C19.0928 19.8087 19.4326 18.9868 20.0478 18.3697L24.5585 13.8589L27.1664 16.4667L22.6566 20.9765ZM29.4727 14.1604L28.5923 15.0408L25.9845 12.433L26.8638 11.5537C27.5828 10.8357 28.7536 10.8367 29.4716 11.5537C30.1897 12.2727 30.1897 13.4424 29.4727 14.1604Z" fill="#F83633"/>
</svg>
