<svg width="88" height="88" viewBox="0 0 88 88" fill="none" xmlns="http://www.w3.org/2000/svg">
<g filter="url(#filter0_d)">
<rect x="18.508" y="14.4475" width="51.117" height="51.117" rx="8.60606" fill="white"/>
<rect x="18.508" y="14.4475" width="51.117" height="51.117" rx="8.60606" stroke="#D8D8D8"/>
</g>
<path d="M56.5896 34.0223C56.3441 33.4844 56.2588 32.8906 56.3431 32.3052C56.6307 30.3081 55.7198 28.3125 54.0226 27.2213C53.5252 26.9015 53.1325 26.4481 52.8869 25.9101C52.0491 24.0745 50.204 22.8882 48.1863 22.8878C47.595 22.8877 47.0194 22.7186 46.522 22.3988C44.8248 21.3076 42.6313 21.3072 40.9336 22.3977C40.4362 22.7172 39.8609 22.886 39.2698 22.886C39.2693 22.886 39.2687 22.886 39.2681 22.886C37.2508 22.886 35.4057 24.0715 34.5673 25.9063C34.3215 26.4442 33.9286 26.8974 33.431 27.2171C31.7334 28.3076 30.8217 30.3028 31.1085 32.3C31.1926 32.8853 31.107 33.4791 30.8613 34.0169C30.0227 35.8521 30.3344 38.0234 31.6554 39.5486C32.0425 39.9956 32.2916 40.5414 32.3757 41.1267C32.6624 43.124 34.0985 44.782 36.0344 45.351C36.1637 45.3889 36.2892 45.4362 36.4113 45.4901V56.1983C36.4113 56.5692 36.608 56.9123 36.928 57.0998C37.2481 57.2873 37.6435 57.2911 37.967 57.1098L43.725 53.8824L49.4829 57.1096C49.6418 57.1986 49.8178 57.243 49.9938 57.243C50.1764 57.243 50.359 57.1951 50.522 57.0997C50.842 56.9121 51.0387 56.569 51.0387 56.1981V45.4915C51.1596 45.4383 51.2838 45.3916 51.4117 45.3541C53.3478 44.786 54.7847 43.1285 55.0722 41.1315C55.1565 40.5461 55.4058 40.0005 55.7931 39.5537C57.1148 38.0291 57.4274 35.8579 56.5896 34.0223ZM44.2358 51.7731C43.9184 51.5953 43.5315 51.5953 43.2141 51.7731L38.501 54.4147V47.1821C39.7596 48.0329 41.3575 48.3039 42.8552 47.8646C43.4226 47.6981 44.0224 47.6982 44.5897 47.8649C45.0678 48.0054 45.556 48.0735 46.0403 48.0735C47.0749 48.0735 48.0907 47.7614 48.9488 47.1804V54.4147L44.2358 51.7731ZM54.2141 38.1848C53.5638 38.9349 53.1454 39.8509 53.0038 40.8336C52.8325 42.0231 51.9766 43.0105 50.8234 43.3488C49.8707 43.6284 49.0234 44.1726 48.3732 44.9227C47.5859 45.8309 46.3322 46.1987 45.179 45.8599C44.7024 45.7199 44.2122 45.6499 43.7219 45.6499C43.2324 45.6499 42.7428 45.7196 42.2669 45.8593C41.1135 46.1977 39.8599 45.8292 39.0731 44.9208C38.4231 44.1703 37.5761 43.6257 36.6236 43.3458C35.4704 43.007 34.615 42.0193 34.4442 40.8297C34.3031 39.8469 33.885 38.9308 33.235 38.1804C32.4481 37.2719 32.2624 35.9786 32.762 34.8854C33.1746 33.9823 33.3181 32.9856 33.177 32.003C33.0062 30.8133 33.5492 29.6248 34.5605 28.9752C35.3958 28.4387 36.0554 27.6777 36.468 26.7748C36.9674 25.6818 38.0664 24.9757 39.2681 24.9757H39.2699C40.2622 24.9757 41.2282 24.6922 42.0631 24.1558C43.0744 23.5063 44.381 23.5065 45.3919 24.1565C46.227 24.6934 47.1931 24.9773 48.1859 24.9775C49.3878 24.9777 50.4868 25.6844 50.9859 26.7777C51.3981 27.6808 52.0574 28.442 52.8924 28.979C53.9034 29.629 54.4459 30.8176 54.2747 32.0073C54.1332 32.99 54.2763 33.9867 54.6885 34.8899C55.1875 35.9834 55.0014 37.2767 54.2141 38.1848Z" fill="#0C8762"/>
<path d="M43.7252 27.2629C39.5548 27.2629 36.162 30.6558 36.162 34.8261C36.162 38.9964 39.5548 42.3894 43.7252 42.3894C47.8956 42.3894 51.2884 38.9965 51.2884 34.8262C51.2884 30.6559 47.8955 27.2629 43.7252 27.2629ZM43.7252 40.2996C40.7072 40.2996 38.2518 37.8442 38.2518 34.8262C38.2518 31.8081 40.7072 29.3528 43.7252 29.3528C46.7432 29.3528 49.1986 31.8081 49.1986 34.8262C49.1986 37.8442 46.7432 40.2996 43.7252 40.2996Z" fill="#0C8762"/>
<defs>
<filter id="filter0_d" x="0.417965" y="0.35751" width="87.297" height="87.297" filterUnits="userSpaceOnUse" color-interpolation-filters="sRGB">
<feFlood flood-opacity="0" result="BackgroundImageFix"/>
<feColorMatrix in="SourceAlpha" type="matrix" values="0 0 0 0 0 0 0 0 0 0 0 0 0 0 0 0 0 0 127 0"/>
<feOffset dy="4"/>
<feGaussianBlur stdDeviation="8.795"/>
<feColorMatrix type="matrix" values="0 0 0 0 0 0 0 0 0 0 0 0 0 0 0 0 0 0 0.0524 0"/>
<feBlend mode="normal" in2="BackgroundImageFix" result="effect1_dropShadow"/>
<feBlend mode="normal" in="SourceGraphic" in2="effect1_dropShadow" result="shape"/>
</filter>
</defs>
</svg>
