<svg width="88" height="88" viewBox="0 0 88 88" fill="none" xmlns="http://www.w3.org/2000/svg">
<g filter="url(#filter0_d)">
<rect x="18.6079" y="14.4475" width="51.117" height="51.117" rx="8.60606" fill="white"/>
<rect x="18.6079" y="14.4475" width="51.117" height="51.117" rx="8.60606" stroke="#D8D8D8"/>
</g>
<path d="M56.6896 34.0223C56.4441 33.4844 56.3588 32.8906 56.4431 32.3052C56.7307 30.3081 55.8199 28.3125 54.1227 27.2213C53.6253 26.9015 53.2326 26.4481 52.987 25.9101C52.1492 24.0745 50.304 22.8882 48.2864 22.8878C47.695 22.8877 47.1194 22.7186 46.622 22.3988C44.9249 21.3076 42.7313 21.3072 41.0336 22.3977C40.5362 22.7172 39.961 22.886 39.3698 22.886C39.3693 22.886 39.3687 22.886 39.3681 22.886C37.3508 22.886 35.5057 24.0715 34.6673 25.9063C34.4215 26.4442 34.0287 26.8974 33.5311 27.2171C31.8334 28.3076 30.9217 30.3028 31.2085 32.3C31.2926 32.8853 31.207 33.4791 30.9613 34.0169C30.1227 35.8521 30.4344 38.0234 31.7554 39.5486C32.1426 39.9956 32.3917 40.5414 32.4757 41.1267C32.7624 43.124 34.1985 44.782 36.1344 45.351C36.2637 45.3889 36.3892 45.4362 36.5113 45.4901V56.1983C36.5113 56.5692 36.708 56.9123 37.028 57.0998C37.3481 57.2873 37.7435 57.2911 38.0671 57.1098L43.825 53.8824L49.583 57.1096C49.7418 57.1986 49.9178 57.243 50.0938 57.243C50.2764 57.243 50.459 57.1951 50.622 57.0997C50.9421 56.9121 51.1387 56.569 51.1387 56.1981V45.4915C51.2596 45.4383 51.3838 45.3916 51.5118 45.3541C53.4479 44.786 54.8847 43.1285 55.1722 41.1315C55.2566 40.5461 55.5059 40.0005 55.8931 39.5537C57.2148 38.0291 57.5274 35.8579 56.6896 34.0223ZM44.3359 51.7731C44.0184 51.5953 43.6315 51.5953 43.3141 51.7731L38.601 54.4147V47.1821C39.8596 48.0329 41.4575 48.3039 42.9552 47.8646C43.5226 47.6981 44.1224 47.6982 44.6898 47.8649C45.1678 48.0054 45.656 48.0735 46.1403 48.0735C47.175 48.0735 48.1907 47.7614 49.0488 47.1804V54.4147L44.3359 51.7731ZM54.3141 38.1848C53.6639 38.9349 53.2454 39.8509 53.1038 40.8336C52.9326 42.0231 52.0767 43.0105 50.9234 43.3488C49.9707 43.6284 49.1235 44.1726 48.4732 44.9227C47.6859 45.8309 46.4322 46.1987 45.279 45.8599C44.8025 45.7199 44.3122 45.6499 43.8219 45.6499C43.3324 45.6499 42.8428 45.7196 42.3669 45.8593C41.2135 46.1977 39.9599 45.8292 39.1731 44.9208C38.5232 44.1703 37.6761 43.6257 36.7236 43.3458C35.5705 43.007 34.715 42.0193 34.5442 40.8297C34.4031 39.8469 33.985 38.9308 33.335 38.1804C32.5482 37.2719 32.3625 35.9786 32.862 34.8854C33.2746 33.9823 33.4181 32.9856 33.277 32.003C33.1062 30.8133 33.6493 29.6248 34.6605 28.9752C35.4959 28.4387 36.1554 27.6777 36.568 26.7748C37.0675 25.6818 38.1665 24.9757 39.3681 24.9757H39.3699C40.3622 24.9757 41.3282 24.6922 42.1631 24.1558C43.1744 23.5063 44.481 23.5065 45.4919 24.1565C46.327 24.6934 47.2932 24.9773 48.2859 24.9775C49.4878 24.9777 50.5868 25.6844 51.0859 26.7777C51.4981 27.6808 52.1574 28.442 52.9925 28.979C54.0034 29.629 54.546 30.8176 54.3747 32.0073C54.2332 32.99 54.3763 33.9867 54.7885 34.8899C55.2876 35.9834 55.1014 37.2767 54.3141 38.1848Z" fill="#FF2D3B"/>
<path d="M43.825 27.2629C39.6546 27.2629 36.2619 30.6558 36.2619 34.8261C36.2619 38.9964 39.6546 42.3894 43.825 42.3894C47.9954 42.3894 51.3882 38.9965 51.3882 34.8262C51.3882 30.6559 47.9954 27.2629 43.825 27.2629ZM43.825 40.2996C40.807 40.2996 38.3516 37.8442 38.3516 34.8262C38.3516 31.8081 40.807 29.3528 43.825 29.3528C46.8431 29.3528 49.2985 31.8081 49.2985 34.8262C49.2985 37.8442 46.8431 40.2996 43.825 40.2996Z" fill="#FF2D3B"/>
<defs>
<filter id="filter0_d" x="0.51791" y="0.35751" width="87.297" height="87.297" filterUnits="userSpaceOnUse" color-interpolation-filters="sRGB">
<feFlood flood-opacity="0" result="BackgroundImageFix"/>
<feColorMatrix in="SourceAlpha" type="matrix" values="0 0 0 0 0 0 0 0 0 0 0 0 0 0 0 0 0 0 127 0"/>
<feOffset dy="4"/>
<feGaussianBlur stdDeviation="8.795"/>
<feColorMatrix type="matrix" values="0 0 0 0 0 0 0 0 0 0 0 0 0 0 0 0 0 0 0.0524 0"/>
<feBlend mode="normal" in2="BackgroundImageFix" result="effect1_dropShadow"/>
<feBlend mode="normal" in="SourceGraphic" in2="effect1_dropShadow" result="shape"/>
</filter>
</defs>
</svg>
