<svg width="89" height="88" viewBox="0 0 89 88" fill="none" xmlns="http://www.w3.org/2000/svg">
<g filter="url(#filter0_d)">
<rect x="18.8829" y="14.4475" width="51.117" height="51.117" rx="8.60606" fill="white"/>
<rect x="18.8829" y="14.4475" width="51.117" height="51.117" rx="8.60606" stroke="#D8D8D8"/>
</g>
<path d="M43.2692 47.5755V44.5003H40.1939C39.5147 44.5003 38.9638 43.9496 38.9638 43.2702C38.9638 42.5908 39.5147 42.0401 40.1939 42.0401H43.2692V38.9649C43.2692 38.2854 43.82 37.7348 44.4992 37.7348C45.1787 37.7348 45.7293 38.2854 45.7293 38.9649V42.0401H48.8046C49.484 42.0401 50.0347 42.5908 50.0347 43.2702C50.0347 43.9496 49.484 44.5003 48.8046 44.5003H45.7293V47.5755C45.7293 48.255 45.1787 48.8056 44.4992 48.8056C43.82 48.8056 43.2692 48.255 43.2692 47.5755ZM54.463 44.4388V31.9534C54.463 30.5969 53.3595 29.4932 52.0028 29.4932H48.128V30.1082C48.128 32.1432 46.4727 33.7985 44.4377 33.7985C42.403 33.7985 40.7475 32.1432 40.7475 30.1082V29.4932H36.8796C35.5229 29.4932 34.4195 30.5969 34.4195 31.9534V50.5277C34.4195 51.8842 35.5229 52.9879 36.8796 52.9879H52.0028C53.3595 52.9879 54.463 51.8842 54.463 50.5277C54.463 49.8483 55.0139 49.2977 55.6931 49.2977C56.3725 49.2977 56.9232 49.8483 56.9232 50.5277C56.9232 53.2409 54.716 55.4481 52.0028 55.4481H36.8796C34.1665 55.4481 31.9593 53.2409 31.9593 50.5277V31.9534C31.9593 29.2402 34.1665 27.033 36.8796 27.033H40.7477V25.1879C40.7477 24.5084 41.2984 23.9578 41.9778 23.9578H46.8982C47.5774 23.9578 48.1283 24.5084 48.1283 25.1879V27.033H52.003C54.716 27.033 56.9234 29.2402 56.9234 31.9534V44.4388C56.9234 45.1182 56.3725 45.6689 55.6933 45.6689C55.0139 45.6689 54.463 45.1182 54.463 44.4388ZM45.6678 26.4179H43.2076V30.1082C43.2076 30.7865 43.7595 31.3383 44.4377 31.3383C45.116 31.3383 45.6678 30.7865 45.6678 30.1082V26.4179Z" fill="#FF2D3B"/>
<defs>
<filter id="filter0_d" x="0.792904" y="0.35751" width="87.297" height="87.297" filterUnits="userSpaceOnUse" color-interpolation-filters="sRGB">
<feFlood flood-opacity="0" result="BackgroundImageFix"/>
<feColorMatrix in="SourceAlpha" type="matrix" values="0 0 0 0 0 0 0 0 0 0 0 0 0 0 0 0 0 0 127 0"/>
<feOffset dy="4"/>
<feGaussianBlur stdDeviation="8.795"/>
<feColorMatrix type="matrix" values="0 0 0 0 0 0 0 0 0 0 0 0 0 0 0 0 0 0 0.0524 0"/>
<feBlend mode="normal" in2="BackgroundImageFix" result="effect1_dropShadow"/>
<feBlend mode="normal" in="SourceGraphic" in2="effect1_dropShadow" result="shape"/>
</filter>
</defs>
</svg>
