<svg width="87" height="87" viewBox="0 0 87 87" fill="none" xmlns="http://www.w3.org/2000/svg">
<g filter="url(#filter0_d)">
<rect x="18.0999" y="14" width="51.117" height="51.117" rx="8.60606" fill="#FF2D3B"/>
</g>
<path d="M56.1354 31.5334C56.1193 30.6917 56.1044 29.8972 56.1044 29.1286C56.1044 28.5261 55.6163 28.038 55.0138 28.038C50.3497 28.038 46.7981 26.6973 43.838 23.8193C43.6266 23.613 43.3525 23.5103 43.0784 23.5103C42.8037 23.5103 42.5296 23.613 42.3175 23.8193C39.3574 26.6973 35.8071 28.038 31.143 28.038C30.5411 28.038 30.0524 28.5261 30.0524 29.1286C30.0524 29.8972 30.0375 30.6923 30.0214 31.534C29.872 39.3626 29.6671 50.0846 42.7209 54.6091C42.8366 54.6492 42.9569 54.6693 43.0778 54.6693H43.0784C43.1993 54.6693 43.3195 54.6492 43.4346 54.6091C56.4897 50.0846 56.2848 39.3619 56.1354 31.5334Z" fill="white"/>
<path d="M49.7494 36.5083V40.3786C49.7494 40.7354 49.4605 41.025 49.103 41.025H45.6599V44.4687C45.6599 44.8255 45.3703 45.1152 45.0135 45.1152H41.1431C40.7863 45.1152 40.4967 44.8255 40.4967 44.4687V41.025H37.053C36.6955 41.025 36.4065 40.7354 36.4065 40.3786V36.5083C36.4065 36.1514 36.6955 35.8618 37.053 35.8618H40.4967V32.4182C40.4967 32.0613 40.7863 31.7717 41.1431 31.7717H45.0135C45.3704 31.7717 45.66 32.0613 45.66 32.4182V35.8618H49.103C49.4605 35.8618 49.7494 36.1514 49.7494 36.5083Z" fill="#FF2D3B"/>
<defs>
<filter id="filter0_d" x="0.50993" y="0.41" width="86.297" height="86.297" filterUnits="userSpaceOnUse" color-interpolation-filters="sRGB">
<feFlood flood-opacity="0" result="BackgroundImageFix"/>
<feColorMatrix in="SourceAlpha" type="matrix" values="0 0 0 0 0 0 0 0 0 0 0 0 0 0 0 0 0 0 127 0"/>
<feOffset dy="4"/>
<feGaussianBlur stdDeviation="8.795"/>
<feColorMatrix type="matrix" values="0 0 0 0 0 0 0 0 0 0 0 0 0 0 0 0 0 0 0.0524 0"/>
<feBlend mode="normal" in2="BackgroundImageFix" result="effect1_dropShadow"/>
<feBlend mode="normal" in="SourceGraphic" in2="effect1_dropShadow" result="shape"/>
</filter>
</defs>
</svg>
