<svg width="87" height="87" viewBox="0 0 87 87" fill="none" xmlns="http://www.w3.org/2000/svg">
<g filter="url(#filter0_d)">
<rect x="17.6499" y="14" width="51.117" height="51.117" rx="8.60606" fill="#4A2DFF"/>
</g>
<path d="M55.6853 31.5334C55.6692 30.6917 55.6543 29.8972 55.6543 29.1286C55.6543 28.5261 55.1662 28.038 54.5637 28.038C49.8996 28.038 46.348 26.6973 43.3879 23.8193C43.1765 23.613 42.9024 23.5103 42.6283 23.5103C42.3535 23.5103 42.0794 23.613 41.8674 23.8193C38.9073 26.6973 35.357 28.038 30.6928 28.038C30.091 28.038 29.6023 28.5261 29.6023 29.1286C29.6023 29.8972 29.5874 30.6923 29.5712 31.534C29.4219 39.3626 29.217 50.0846 42.2708 54.6091C42.3865 54.6492 42.5068 54.6693 42.6276 54.6693H42.6283C42.7492 54.6693 42.8694 54.6492 42.9845 54.6091C56.0396 50.0846 55.8347 39.3619 55.6853 31.5334Z" fill="#D1CAFF"/>
<path d="M49.2995 36.5083V40.3786C49.2995 40.7354 49.0105 41.025 48.653 41.025H45.2099V44.4687C45.2099 44.8255 44.9203 45.1152 44.5635 45.1152H40.6932C40.3363 45.1152 40.0467 44.8255 40.0467 44.4687V41.025H36.603C36.2455 41.025 35.9566 40.7354 35.9566 40.3786V36.5083C35.9566 36.1514 36.2455 35.8618 36.603 35.8618H40.0467V32.4182C40.0467 32.0613 40.3363 31.7717 40.6932 31.7717H44.5636C44.9204 31.7717 45.21 32.0613 45.21 32.4182V35.8618H48.6531C49.0105 35.8618 49.2995 36.1514 49.2995 36.5083Z" fill="#4A2DFF"/>
<defs>
<filter id="filter0_d" x="0.0599022" y="0.41" width="86.297" height="86.297" filterUnits="userSpaceOnUse" color-interpolation-filters="sRGB">
<feFlood flood-opacity="0" result="BackgroundImageFix"/>
<feColorMatrix in="SourceAlpha" type="matrix" values="0 0 0 0 0 0 0 0 0 0 0 0 0 0 0 0 0 0 127 0"/>
<feOffset dy="4"/>
<feGaussianBlur stdDeviation="8.795"/>
<feColorMatrix type="matrix" values="0 0 0 0 0 0 0 0 0 0 0 0 0 0 0 0 0 0 0.0524 0"/>
<feBlend mode="normal" in2="BackgroundImageFix" result="effect1_dropShadow"/>
<feBlend mode="normal" in="SourceGraphic" in2="effect1_dropShadow" result="shape"/>
</filter>
</defs>
</svg>
