<svg width="52" height="52" viewBox="0 0 52 52" fill="none" xmlns="http://www.w3.org/2000/svg">
<rect x="0.549957" y="0.14917" width="51.117" height="51.117" rx="8" fill="#011727"/>
<path d="M41.1403 22.5489C41.3263 22.4593 41.4446 22.2711 41.4446 22.0646C41.4446 21.8582 41.3263 21.6699 41.1403 21.5803L29.5746 16.0091C27.3807 14.9522 24.8248 14.9522 22.6309 16.009L11.0844 21.571C10.8949 21.6623 10.7744 21.8541 10.7744 22.0646C10.7744 22.275 10.8949 22.4668 11.0844 22.5581L22.6309 28.1202C24.8248 29.177 27.3807 29.177 29.5746 28.1202L41.1403 22.5489Z" fill="white"/>
<path d="M18.937 27.6881C17.6161 27.0518 16.084 28.0143 16.084 29.4805C16.084 30.2447 16.5217 30.9413 17.2102 31.273L24.6258 34.8451C25.0862 35.0669 25.5907 35.1821 26.1017 35.1821C26.6128 35.1821 27.1173 35.0669 27.5777 34.8451L36.0572 30.7604C36.081 30.749 36.1001 30.7296 36.1105 30.7054C36.1165 30.6915 36.1195 30.6765 36.1195 30.6614V30.1895C36.1195 28.395 34.2444 27.2169 32.6277 27.9957L28.4291 30.0182C26.9584 30.7266 25.2451 30.7266 23.7743 30.0182L18.937 27.6881Z" fill="white"/>
<path d="M40.0135 33.637C39.8903 33.2617 39.8275 32.8691 39.8275 32.4741V25.4634C39.8275 25.0115 39.3512 24.7182 38.9477 24.9217C38.7432 25.0249 38.6142 25.2344 38.6142 25.4634V32.474C38.6142 32.8691 38.5515 33.2617 38.4283 33.637L38.1407 34.513C37.942 35.1184 38.0507 35.7828 38.4321 36.2933L38.8977 36.9164C38.9739 37.0184 39.0936 37.0784 39.2209 37.0784C39.3481 37.0784 39.4679 37.0184 39.5441 36.9164L40.0096 36.2933C40.391 35.7828 40.4998 35.1185 40.301 34.513L40.0135 33.637Z" fill="white"/>
</svg>
