<svg width="52" height="52" viewBox="0 0 52 52" fill="none" xmlns="http://www.w3.org/2000/svg">
<rect y="0.14917" width="51.117" height="51.117" rx="8" fill="#40EAEA"/>
<path d="M40.5905 22.5489C40.7765 22.4593 40.8947 22.2711 40.8947 22.0646C40.8947 21.8582 40.7765 21.6699 40.5905 21.5803L29.0247 16.0091C26.8308 14.9522 24.275 14.9522 22.0811 16.009L10.5346 21.571C10.345 21.6623 10.2245 21.8541 10.2245 22.0646C10.2245 22.275 10.345 22.4668 10.5346 22.5581L22.081 28.1202C24.275 29.177 26.8308 29.177 29.0248 28.1202L40.5905 22.5489Z" fill="#D9FBFB"/>
<path d="M18.3872 27.6881C17.0663 27.0518 15.5342 28.0143 15.5342 29.4805C15.5342 30.2447 15.9719 30.9413 16.6604 31.273L24.076 34.8451C24.5364 35.0669 25.0409 35.1821 25.5519 35.1821C26.063 35.1821 26.5675 35.0669 27.0279 34.8451L35.5075 30.7604C35.5312 30.749 35.5503 30.7296 35.5607 30.7054C35.5667 30.6915 35.5697 30.6765 35.5697 30.6614V30.1895C35.5697 28.395 33.6946 27.2169 32.0779 27.9957L27.8793 30.0182C26.4086 30.7266 24.6953 30.7266 23.2246 30.0182L18.3872 27.6881Z" fill="#D9FBFB"/>
<path d="M39.4637 33.637C39.3405 33.2617 39.2778 32.8691 39.2778 32.4741V25.4634C39.2778 25.0115 38.8014 24.7182 38.398 24.9217C38.1935 25.0249 38.0645 25.2344 38.0645 25.4634V32.474C38.0645 32.8691 38.0017 33.2617 37.8785 33.637L37.591 34.513C37.3922 35.1184 37.501 35.7828 37.8824 36.2933L38.3479 36.9164C38.4241 37.0184 38.5439 37.0784 38.6711 37.0784C38.7984 37.0784 38.9181 37.0184 38.9943 36.9164L39.4599 36.2933C39.8412 35.7828 39.95 35.1185 39.7513 34.513L39.4637 33.637Z" fill="#D9FBFB"/>
</svg>
