<svg width="53" height="52" viewBox="0 0 53 52" fill="none" xmlns="http://www.w3.org/2000/svg">
<rect x="0.924866" y="0.14917" width="51.117" height="51.117" rx="8" fill="#FF8718"/>
<path d="M20.0404 21.4011C20.4246 22.7372 21.2945 24.3882 21.9976 25.5875C22.6817 26.7544 23.7568 27.8177 25.1715 28.3166C26.1177 28.6468 27.1528 28.6531 28.099 28.3102C29.4892 27.8078 30.5714 26.7466 31.2665 25.5835C31.9812 24.3875 32.858 22.7357 33.2363 21.3947C33.5246 20.375 33.5224 19.7789 33.3826 19.4417C33.224 19.0594 32.8194 18.595 32.8934 18.1879C33.2372 16.1227 33.0623 14.8181 32.7141 13.9943C32.1777 12.7249 30.728 11.7605 29.5214 11.0946C28.7403 10.631 27.6544 10.2754 26.2256 10.396C25.7621 10.4151 25.3239 10.5104 24.9111 10.6437C24.384 10.8215 23.9014 11.0819 23.4633 11.3867C22.9298 11.7233 22.4218 12.1424 21.9773 12.6186C21.2724 13.3426 20.6437 14.2761 20.3707 15.4382C20.1421 16.3082 20.1929 17.2163 20.3834 18.1942C20.4558 18.6017 20.0527 19.0657 19.8942 19.4481C19.7544 19.7853 19.7522 20.3814 20.0404 21.4011Z" fill="#FFE7D1"/>
<path d="M37.1157 30.4821C34.0008 29.6896 30.2475 30.9273 29.2788 33.992L29.1779 34.3113L28.7935 35.5273C28.7926 35.5303 28.7883 35.5303 28.7873 35.5273C28.7863 35.5243 28.7821 35.5243 28.7811 35.5273L28.6134 36.0461C28.5598 36.212 28.3262 36.2151 28.2682 36.0506L27.5242 33.9404C27.4224 33.6515 27.4724 33.3304 27.6393 33.0735C29.7908 29.761 26.8152 29.7965 26.6441 29.8026C26.473 29.7965 23.4974 29.761 25.6489 33.0735C25.8158 33.3304 25.8658 33.6515 25.764 33.9404L25.02 36.0506C24.962 36.215 24.7284 36.212 24.6748 36.046L24.5071 35.5273C24.5062 35.5243 24.5019 35.5243 24.5009 35.5273C24.4999 35.5303 24.4956 35.5303 24.4947 35.5273L24.1103 34.3113L24.0086 33.9903C23.0367 30.9253 19.2822 29.6893 16.1661 30.4821C13.7561 31.0956 13.6333 33.8704 13.7265 35.254C13.7273 35.2651 13.7268 35.2593 13.7276 35.2704C13.8557 36.9846 14.8304 38.5089 16.425 39.1509C18.5725 40.0157 22.0773 41.0389 26.6441 41.0426C31.2207 41.0426 34.7307 40.0144 36.877 39.1473C38.4628 38.5067 39.4329 36.9764 39.5605 35.2709C39.5621 35.2505 39.5612 35.2607 39.5625 35.2403C39.6477 33.8522 39.5178 31.0936 37.1157 30.4821Z" fill="#FFE7D1"/>
</svg>
