<svg width="52" height="52" viewBox="0 0 52 52" fill="none" xmlns="http://www.w3.org/2000/svg">
<rect opacity="0.2" x="0.824951" width="51.117" height="51.117" rx="8" fill="#4A2DFF"/>
<path d="M26.5466 25.251C29.9566 25.251 32.7212 22.173 32.7212 18.3761C32.7212 14.5792 31.8136 11.5012 26.5466 11.5012C21.2797 11.5012 20.3718 14.5792 20.3718 18.3761C20.3718 22.173 23.1364 25.251 26.5466 25.251Z" fill="#4A2DFF"/>
<path d="M38.1961 35.4708C38.093 29.5063 37.3166 27.3878 31.8771 26.1543C30.6766 25.882 29.4001 26.3956 28.2181 26.7395C27.7612 26.8724 27.2066 26.9645 26.5471 26.9645C25.8874 26.9645 25.3327 26.8723 24.8757 26.7394C23.6938 26.3955 22.4172 25.8821 21.2167 26.1543C15.8432 27.3729 15.0205 29.4553 14.9021 35.2559C14.8913 35.7818 14.8863 35.8095 14.8844 35.7484C14.8861 36.2045 15.0023 36.6565 15.3376 36.9657C16.3143 37.8663 19.1619 39.6159 26.5471 39.6159C34.2907 39.6159 37.0457 37.6923 37.8858 36.8408C38.1228 36.6006 38.2084 36.2667 38.2092 35.9293C38.2073 35.9671 38.2034 35.8939 38.1961 35.4708Z" fill="#4A2DFF"/>
</svg>
