<svg width="89" height="88" viewBox="0 0 89 88" fill="none" xmlns="http://www.w3.org/2000/svg">
<g filter="url(#filter0_d)">
<rect x="19.0579" y="14.4475" width="51.117" height="51.117" rx="8.60606" fill="white"/>
<rect x="19.0579" y="14.4475" width="51.117" height="51.117" rx="8.60606" stroke="#D8D8D8"/>
</g>
<g clip-path="url(#clip0)">
<path d="M63.8073 47.325C62.6707 46.4274 61.4457 45.6918 60.1542 45.1245V42.578C61.6406 42.1046 62.7205 40.7114 62.7205 39.0702C62.7205 36.5577 62.0846 32.9097 60.6638 30.4236L59.8355 28.9739H58.2441L57.4157 30.4235C55.995 32.9097 55.359 36.5577 55.359 39.0702C55.359 40.7113 56.4389 42.1046 57.9253 42.5779V44.331C56.6214 43.9705 55.2673 43.7698 53.882 43.7343V34.7339L43.6862 29.7063L35.1434 34.3386C34.961 31.2016 34.1293 27.2232 32.519 24.4052L31.5294 22.6733H29.8435L28.8538 24.4051C27.0141 27.6248 26.1905 32.3591 26.1905 35.6227C26.1905 37.7171 27.6302 39.4815 29.5719 39.9785V44.9554C28.4418 45.7831 27.3995 46.7336 26.4669 47.7974L26.1905 48.1127V56.1502H64.2311V47.6596L63.8073 47.325ZM62.0022 53.9213H60.2077C59.1811 50.9187 57.3289 48.1818 54.8756 46.0262C57.4609 46.2771 59.8937 47.2054 62.0022 48.7517V53.9213ZM54.6996 53.9213C53.6447 51.7435 51.9636 49.8798 49.8011 48.4996C47.3791 46.9539 44.5289 46.1369 41.5587 46.1369C38.5885 46.1369 35.7383 46.9539 33.3163 48.4996C31.1548 49.879 29.4745 51.7415 28.4195 53.9178V48.9591C31.7264 45.3683 36.4907 43.317 41.5586 43.317C48.8511 43.317 55.3318 47.6088 57.8345 53.9214H54.6996V53.9213ZM30.9608 53.9213C31.8303 52.5285 33.0371 51.3219 34.5153 50.3785C36.5786 49.0618 39.0141 48.3659 41.5586 48.3659C44.1032 48.3659 46.5388 49.0618 48.6019 50.3785C50.0802 51.3219 51.2869 52.5284 52.1565 53.9213H30.9608ZM30.6864 37.8896C29.4365 37.8896 28.4195 36.8727 28.4195 35.6227C28.4195 32.811 29.1299 28.5462 30.6864 25.6949C32.2429 28.5462 32.9533 32.8111 32.9533 35.6227C32.9533 36.8727 31.9364 37.8896 30.6864 37.8896ZM31.8009 39.9785C32.8502 39.7099 33.7519 39.0705 34.36 38.2096V42.3796C33.4785 42.7085 32.6229 43.0963 31.8009 43.543V39.9785ZM51.6531 36.1199V43.7304C48.617 41.9962 45.1688 41.0879 41.5586 41.0879C39.8608 41.0879 38.1931 41.295 36.5889 41.6913V36.0903L43.7348 32.2154L51.6531 36.1199ZM59.0398 40.5219C58.2393 40.5219 57.588 39.8707 57.588 39.0702C57.588 37.1174 58.0448 34.2297 59.0398 32.1284C60.0348 34.2297 60.4916 37.1174 60.4916 39.0702C60.4916 39.8707 59.8403 40.5219 59.0398 40.5219Z" fill="#FF2D3B"/>
<path d="M39.8365 36.6785H42.0654V38.9074H39.8365V36.6785Z" fill="#FF2D3B"/>
<path d="M46.1766 36.6785H48.4056V38.9074H46.1766V36.6785Z" fill="#FF2D3B"/>
</g>
<defs>
<filter id="filter0_d" x="0.967922" y="0.35751" width="87.297" height="87.297" filterUnits="userSpaceOnUse" color-interpolation-filters="sRGB">
<feFlood flood-opacity="0" result="BackgroundImageFix"/>
<feColorMatrix in="SourceAlpha" type="matrix" values="0 0 0 0 0 0 0 0 0 0 0 0 0 0 0 0 0 0 127 0"/>
<feOffset dy="4"/>
<feGaussianBlur stdDeviation="8.795"/>
<feColorMatrix type="matrix" values="0 0 0 0 0 0 0 0 0 0 0 0 0 0 0 0 0 0 0.0524 0"/>
<feBlend mode="normal" in2="BackgroundImageFix" result="effect1_dropShadow"/>
<feBlend mode="normal" in="SourceGraphic" in2="effect1_dropShadow" result="shape"/>
</filter>
<clipPath id="clip0">
<rect width="38.0406" height="38.0406" fill="white" transform="translate(26.1905 20.3914)"/>
</clipPath>
</defs>
</svg>
