<svg width="52" height="52" viewBox="0 0 52 52" fill="none" xmlns="http://www.w3.org/2000/svg">
<rect x="0.274979" y="0.14917" width="51.117" height="51.117" rx="8" fill="#D9FBFB"/>
<path d="M40.8655 22.5489C41.0515 22.4593 41.1698 22.2711 41.1698 22.0646C41.1698 21.8582 41.0515 21.6699 40.8655 21.5803L29.2997 16.0091C27.1058 14.9522 24.55 14.9522 22.3561 16.009L10.8096 21.571C10.62 21.6623 10.4995 21.8541 10.4995 22.0646C10.4995 22.275 10.62 22.4668 10.8096 22.5581L22.3561 28.1202C24.55 29.177 27.1059 29.177 29.2998 28.1202L40.8655 22.5489Z" fill="#40EAEA"/>
<path d="M18.6621 27.6881C17.3412 27.0518 15.8091 28.0143 15.8091 29.4805C15.8091 30.2447 16.2468 30.9413 16.9353 31.273L24.3509 34.8451C24.8113 35.0669 25.3158 35.1821 25.8268 35.1821C26.3379 35.1821 26.8424 35.0669 27.3028 34.8451L35.7823 30.7604C35.8061 30.749 35.8252 30.7296 35.8356 30.7054C35.8416 30.6915 35.8446 30.6765 35.8446 30.6614V30.1895C35.8446 28.395 33.9695 27.2169 32.3528 27.9957L28.1542 30.0182C26.6835 30.7266 24.9702 30.7266 23.4994 30.0182L18.6621 27.6881Z" fill="#40EAEA"/>
<path d="M39.7388 33.637C39.6156 33.2617 39.5529 32.8691 39.5529 32.4741V25.4634C39.5529 25.0115 39.0765 24.7182 38.6731 24.9217C38.4686 25.0249 38.3396 25.2344 38.3396 25.4634V32.474C38.3396 32.8691 38.2768 33.2617 38.1536 33.637L37.8661 34.513C37.6673 35.1184 37.7761 35.7828 38.1575 36.2933L38.623 36.9164C38.6992 37.0184 38.819 37.0784 38.9462 37.0784C39.0735 37.0784 39.1932 37.0184 39.2694 36.9164L39.735 36.2933C40.1163 35.7828 40.2251 35.1185 40.0264 34.513L39.7388 33.637Z" fill="#40EAEA"/>
</svg>
