<svg width="87" height="87" viewBox="0 0 87 87" fill="none" xmlns="http://www.w3.org/2000/svg">
<g filter="url(#filter0_d)">
<rect x="17.9249" y="14" width="51.117" height="51.117" rx="8.60606" fill="#D1CAFF"/>
</g>
<path d="M55.9604 31.5334C55.9442 30.6917 55.9293 29.8972 55.9293 29.1286C55.9293 28.5261 55.4413 28.038 54.8388 28.038C50.1746 28.038 46.623 26.6973 43.6629 23.8193C43.4515 23.613 43.1774 23.5103 42.9033 23.5103C42.6286 23.5103 42.3545 23.613 42.1425 23.8193C39.1824 26.6973 35.632 28.038 30.9679 28.038C30.366 28.038 29.8773 28.5261 29.8773 29.1286C29.8773 29.8972 29.8625 30.6923 29.8463 31.534C29.697 39.3626 29.492 50.0846 42.5458 54.6091C42.6616 54.6492 42.7818 54.6693 42.9027 54.6693H42.9033C43.0242 54.6693 43.1445 54.6492 43.2595 54.6091C56.3146 50.0846 56.1097 39.3619 55.9604 31.5334Z" fill="#4A2DFF"/>
<path d="M49.5746 36.5083V40.3786C49.5746 40.7354 49.2856 41.025 48.9281 41.025H45.4851V44.4687C45.4851 44.8255 45.1955 45.1152 44.8386 45.1152H40.9683C40.6115 45.1152 40.3219 44.8255 40.3219 44.4687V41.025H36.8781C36.5207 41.025 36.2317 40.7354 36.2317 40.3786V36.5083C36.2317 36.1514 36.5207 35.8618 36.8781 35.8618H40.3219V32.4182C40.3219 32.0613 40.6115 31.7717 40.9683 31.7717H44.8387C45.1955 31.7717 45.4851 32.0613 45.4851 32.4182V35.8618H48.9282C49.2856 35.8618 49.5746 36.1514 49.5746 36.5083Z" fill="#D1CAFF"/>
<defs>
<filter id="filter0_d" x="0.334866" y="0.41" width="86.297" height="86.297" filterUnits="userSpaceOnUse" color-interpolation-filters="sRGB">
<feFlood flood-opacity="0" result="BackgroundImageFix"/>
<feColorMatrix in="SourceAlpha" type="matrix" values="0 0 0 0 0 0 0 0 0 0 0 0 0 0 0 0 0 0 127 0"/>
<feOffset dy="4"/>
<feGaussianBlur stdDeviation="8.795"/>
<feColorMatrix type="matrix" values="0 0 0 0 0 0 0 0 0 0 0 0 0 0 0 0 0 0 0.0524 0"/>
<feBlend mode="normal" in2="BackgroundImageFix" result="effect1_dropShadow"/>
<feBlend mode="normal" in="SourceGraphic" in2="effect1_dropShadow" result="shape"/>
</filter>
</defs>
</svg>
