<svg width="53" height="53" viewBox="0 0 53 53" fill="none" xmlns="http://www.w3.org/2000/svg">
<rect x="1" y="1" width="51.117" height="51.117" rx="8" fill="white" stroke="#D8D8D8"/>
<path d="M26.7153 26.2552C30.1253 26.2552 32.8899 23.1772 32.8899 19.3803C32.8899 15.5833 31.9823 12.5054 26.7153 12.5054C21.4484 12.5054 20.5405 15.5833 20.5405 19.3803C20.5405 23.1772 23.3051 26.2552 26.7153 26.2552Z" fill="#FF2D3B"/>
<path d="M15.0543 36.7533C15.0533 36.5217 15.0522 36.688 15.0543 36.7533V36.7533Z" fill="#FF2D3B"/>
<path d="M38.3793 36.9325C38.3827 36.8691 38.3805 36.4927 38.3793 36.9325V36.9325Z" fill="#FF2D3B"/>
<path d="M38.3648 36.4742C38.2505 29.8599 37.3081 27.9752 30.0968 26.7822C30.0968 26.7822 29.0817 27.9679 26.7158 27.9679C24.3498 27.9679 23.3345 26.7822 23.3345 26.7822C16.2019 27.9622 15.2022 29.819 15.0708 36.2593C15.06 36.7852 15.055 36.8129 15.0531 36.7518C15.0535 36.8662 15.0541 37.0778 15.0541 37.4467C15.0541 37.4467 16.7709 40.6193 26.7158 40.6193C36.6605 40.6193 38.3775 37.4467 38.3775 37.4467C38.3775 37.2097 38.3776 37.0449 38.3779 36.9327C38.376 36.9705 38.3721 36.8973 38.3648 36.4742Z" fill="#FF2D3B"/>
</svg>
