<svg width="89" height="88" viewBox="0 0 89 88" fill="none" xmlns="http://www.w3.org/2000/svg">
<g filter="url(#filter0_d)">
<rect x="18.958" y="14.4475" width="51.117" height="51.117" rx="8.60606" fill="white"/>
<rect x="18.958" y="14.4475" width="51.117" height="51.117" rx="8.60606" stroke="#D8D8D8"/>
</g>
<g clip-path="url(#clip0)">
<path d="M63.7076 47.325C62.571 46.4274 61.3459 45.6918 60.0545 45.1245V42.578C61.5409 42.1046 62.6207 40.7114 62.6207 39.0702C62.6207 36.5577 61.9848 32.9097 60.5641 30.4236L59.7358 28.9739H58.1444L57.3159 30.4235C55.8952 32.9097 55.2593 36.5577 55.2593 39.0702C55.2593 40.7113 56.3391 42.1046 57.8256 42.5779V44.331C56.5217 43.9705 55.1675 43.7698 53.7823 43.7343V34.7339L43.5865 29.7063L35.0437 34.3386C34.8613 31.2016 34.0295 27.2232 32.4193 24.4052L31.4296 22.6733H29.7437L28.7541 24.4051C26.9143 27.6248 26.0908 32.3591 26.0908 35.6227C26.0908 37.7171 27.5305 39.4815 29.4722 39.9785V44.9554C28.3421 45.7831 27.2998 46.7336 26.3672 47.7974L26.0908 48.1127V56.1502H64.1314V47.6596L63.7076 47.325ZM61.9024 53.9213H60.108C59.0813 50.9187 57.2292 48.1818 54.7758 46.0262C57.3611 46.2771 59.7939 47.2054 61.9024 48.7517V53.9213ZM54.5998 53.9213C53.5449 51.7435 51.8639 49.8798 49.7014 48.4996C47.2793 46.9539 44.4292 46.1369 41.459 46.1369C38.4888 46.1369 35.6386 46.9539 33.2166 48.4996C31.0551 49.879 29.3748 51.7415 28.3197 53.9178V48.9591C31.6267 45.3683 36.3909 43.317 41.4589 43.317C48.7514 43.317 55.232 47.6088 57.7348 53.9214H54.5998V53.9213ZM30.861 53.9213C31.7306 52.5285 32.9374 51.3219 34.4156 50.3785C36.4788 49.0618 38.9143 48.3659 41.4589 48.3659C44.0034 48.3659 46.439 49.0618 48.5022 50.3785C49.9804 51.3219 51.1872 52.5284 52.0568 53.9213H30.861ZM30.5866 37.8896C29.3367 37.8896 28.3197 36.8727 28.3197 35.6227C28.3197 32.811 29.0302 28.5462 30.5866 25.6949C32.1432 28.5462 32.8535 32.8111 32.8535 35.6227C32.8535 36.8727 31.8366 37.8896 30.5866 37.8896ZM31.7011 39.9785C32.7504 39.7099 33.6522 39.0705 34.2602 38.2096V42.3796C33.3788 42.7085 32.5231 43.0963 31.7011 43.543V39.9785ZM51.5533 36.1199V43.7304C48.5173 41.9962 45.0691 41.0879 41.4589 41.0879C39.761 41.0879 38.0933 41.295 36.4892 41.6913V36.0903L43.6351 32.2154L51.5533 36.1199ZM58.94 40.5219C58.1395 40.5219 57.4882 39.8707 57.4882 39.0702C57.4882 37.1174 57.945 34.2297 58.94 32.1284C59.935 34.2297 60.3918 37.1174 60.3918 39.0702C60.3918 39.8707 59.7405 40.5219 58.94 40.5219Z" fill="#0C8762"/>
<path d="M39.7367 36.6785H41.9657V38.9074H39.7367V36.6785Z" fill="#0C8762"/>
<path d="M46.0769 36.6785H48.3058V38.9074H46.0769V36.6785Z" fill="#0C8762"/>
</g>
<defs>
<filter id="filter0_d" x="0.868008" y="0.35751" width="87.297" height="87.297" filterUnits="userSpaceOnUse" color-interpolation-filters="sRGB">
<feFlood flood-opacity="0" result="BackgroundImageFix"/>
<feColorMatrix in="SourceAlpha" type="matrix" values="0 0 0 0 0 0 0 0 0 0 0 0 0 0 0 0 0 0 127 0"/>
<feOffset dy="4"/>
<feGaussianBlur stdDeviation="8.795"/>
<feColorMatrix type="matrix" values="0 0 0 0 0 0 0 0 0 0 0 0 0 0 0 0 0 0 0.0524 0"/>
<feBlend mode="normal" in2="BackgroundImageFix" result="effect1_dropShadow"/>
<feBlend mode="normal" in="SourceGraphic" in2="effect1_dropShadow" result="shape"/>
</filter>
<clipPath id="clip0">
<rect width="38.0406" height="38.0406" fill="white" transform="translate(26.0908 20.3914)"/>
</clipPath>
</defs>
</svg>
