<svg width="88" height="88" viewBox="0 0 88 88" fill="none" xmlns="http://www.w3.org/2000/svg">
<g filter="url(#filter0_d)">
<rect x="18.7829" y="14.4475" width="51.117" height="51.117" rx="8.60606" fill="white"/>
<rect x="18.7829" y="14.4475" width="51.117" height="51.117" rx="8.60606" stroke="#D8D8D8"/>
</g>
<path d="M43.1694 47.5755V44.5003H40.0941C39.4149 44.5003 38.864 43.9496 38.864 43.2702C38.864 42.5908 39.4149 42.0401 40.0941 42.0401H43.1694V38.9649C43.1694 38.2854 43.7203 37.7348 44.3995 37.7348C45.0789 37.7348 45.6295 38.2854 45.6295 38.9649V42.0401H48.7048C49.3842 42.0401 49.9349 42.5908 49.9349 43.2702C49.9349 43.9496 49.3842 44.5003 48.7048 44.5003H45.6295V47.5755C45.6295 48.255 45.0789 48.8056 44.3995 48.8056C43.7203 48.8056 43.1694 48.255 43.1694 47.5755ZM54.3632 44.4388V31.9534C54.3632 30.5969 53.2597 29.4932 51.903 29.4932H48.0282V30.1082C48.0282 32.1432 46.3729 33.7985 44.338 33.7985C42.3033 33.7985 40.6477 32.1432 40.6477 30.1082V29.4932H36.7799C35.4232 29.4932 34.3197 30.5969 34.3197 31.9534V50.5277C34.3197 51.8842 35.4232 52.9879 36.7799 52.9879H51.903C53.2597 52.9879 54.3632 51.8842 54.3632 50.5277C54.3632 49.8483 54.9141 49.2977 55.5933 49.2977C56.2727 49.2977 56.8234 49.8483 56.8234 50.5277C56.8234 53.2409 54.6162 55.4481 51.903 55.4481H36.7799C34.0667 55.4481 31.8595 53.2409 31.8595 50.5277V31.9534C31.8595 29.2402 34.0667 27.033 36.7799 27.033H40.6479V25.1879C40.6479 24.5084 41.1986 23.9578 41.878 23.9578H46.7984C47.4776 23.9578 48.0285 24.5084 48.0285 25.1879V27.033H51.9033C54.6162 27.033 56.8236 29.2402 56.8236 31.9534V44.4388C56.8236 45.1182 56.2727 45.6689 55.5935 45.6689C54.9141 45.6689 54.3632 45.1182 54.3632 44.4388ZM45.568 26.4179H43.1079V30.1082C43.1079 30.7865 43.6597 31.3383 44.338 31.3383C45.0162 31.3383 45.568 30.7865 45.568 30.1082V26.4179Z" fill="#0C8762"/>
<defs>
<filter id="filter0_d" x="0.692944" y="0.35751" width="87.297" height="87.297" filterUnits="userSpaceOnUse" color-interpolation-filters="sRGB">
<feFlood flood-opacity="0" result="BackgroundImageFix"/>
<feColorMatrix in="SourceAlpha" type="matrix" values="0 0 0 0 0 0 0 0 0 0 0 0 0 0 0 0 0 0 127 0"/>
<feOffset dy="4"/>
<feGaussianBlur stdDeviation="8.795"/>
<feColorMatrix type="matrix" values="0 0 0 0 0 0 0 0 0 0 0 0 0 0 0 0 0 0 0.0524 0"/>
<feBlend mode="normal" in2="BackgroundImageFix" result="effect1_dropShadow"/>
<feBlend mode="normal" in="SourceGraphic" in2="effect1_dropShadow" result="shape"/>
</filter>
</defs>
</svg>
