<svg width="52" height="52" viewBox="0 0 52 52" fill="none" xmlns="http://www.w3.org/2000/svg">
<rect x="0.0999298" y="0.14917" width="51.117" height="51.117" rx="8" fill="#F7EAFF"/>
<path d="M19.2155 21.4011C19.5996 22.7372 20.4696 24.3882 21.1727 25.5875C21.8568 26.7544 22.9318 27.8177 24.3465 28.3166C25.2927 28.6468 26.3278 28.6531 27.274 28.3102C28.6643 27.8078 29.7465 26.7466 30.4415 25.5835C31.1563 24.3875 32.033 22.7357 32.4114 21.3947C32.6997 20.375 32.6975 19.7789 32.5576 19.4417C32.3991 19.0594 31.9945 18.595 32.0685 18.1879C32.4123 16.1227 32.2373 14.8181 31.8892 13.9943C31.3527 12.7249 29.903 11.7605 28.6965 11.0946C27.9154 10.631 26.8295 10.2754 25.4007 10.396C24.9371 10.4151 24.499 10.5104 24.0862 10.6437C23.5591 10.8215 23.0765 11.0819 22.6383 11.3867C22.1049 11.7233 21.5969 12.1424 21.1524 12.6186C20.4475 13.3426 19.8188 14.2761 19.5457 15.4382C19.3171 16.3082 19.3679 17.2163 19.5584 18.1942C19.6309 18.6017 19.2278 19.0657 19.0693 19.4481C18.9295 19.7853 18.9273 20.3814 19.2155 21.4011Z" fill="#AF2DFF"/>
<path d="M36.2908 30.4821C33.1759 29.6896 29.4226 30.9273 28.4539 33.992L28.3529 34.3113L27.9686 35.5273C27.9677 35.5303 27.9634 35.5303 27.9624 35.5273C27.9614 35.5243 27.9571 35.5243 27.9562 35.5273L27.7885 36.0461C27.7349 36.212 27.5013 36.2151 27.4433 36.0506L26.6993 33.9404C26.5974 33.6515 26.6475 33.3304 26.8144 33.0735C28.9659 29.761 25.9903 29.7965 25.8192 29.8026C25.6481 29.7965 22.6725 29.761 24.824 33.0735C24.9908 33.3304 25.0409 33.6515 24.939 33.9404L24.1951 36.0506C24.1371 36.215 23.9034 36.212 23.8498 36.046L23.6822 35.5273C23.6812 35.5243 23.677 35.5243 23.676 35.5273C23.675 35.5303 23.6707 35.5303 23.6697 35.5273L23.2854 34.3113L23.1836 33.9903C22.2118 30.9253 18.4573 29.6893 15.3412 30.4821C12.9312 31.0956 12.8084 33.8704 12.9016 35.254C12.9023 35.2651 12.9019 35.2593 12.9027 35.2704C13.0308 36.9846 14.0055 38.5089 15.6001 39.1509C17.7476 40.0157 21.2524 41.0389 25.8192 41.0426C30.3957 41.0426 33.9058 40.0144 36.052 39.1473C37.6378 38.5067 38.608 36.9764 38.7356 35.2709C38.7371 35.2505 38.7363 35.2607 38.7375 35.2403C38.8228 33.8522 38.6929 31.0936 36.2908 30.4821Z" fill="#AF2DFF"/>
</svg>
