<svg width="52" height="52" viewBox="0 0 52 52" fill="none" xmlns="http://www.w3.org/2000/svg">
<rect x="0.374908" y="0.14917" width="51.117" height="51.117" rx="8" fill="#AF2DFF"/>
<path d="M19.4904 21.4011C19.8745 22.7372 20.7445 24.3882 21.4476 25.5875C22.1317 26.7544 23.2067 27.8177 24.6214 28.3166C25.5676 28.6468 26.6027 28.6531 27.5489 28.3102C28.9392 27.8078 30.0214 26.7466 30.7164 25.5835C31.4311 24.3875 32.3079 22.7357 32.6863 21.3947C32.9746 20.375 32.9723 19.7789 32.8325 19.4417C32.674 19.0594 32.2694 18.595 32.3434 18.1879C32.6872 16.1227 32.5122 14.8181 32.1641 13.9943C31.6276 12.7249 30.1779 11.7605 28.9714 11.0946C28.1903 10.631 27.1044 10.2754 25.6756 10.396C25.212 10.4151 24.7738 10.5104 24.3611 10.6437C23.834 10.8215 23.3514 11.0819 22.9132 11.3867C22.3798 11.7233 21.8718 12.1424 21.4272 12.6186C20.7224 13.3426 20.0937 14.2761 19.8206 15.4382C19.592 16.3082 19.6428 17.2163 19.8333 18.1942C19.9058 18.6017 19.5027 19.0657 19.3442 19.4481C19.2044 19.7853 19.2022 20.3814 19.4904 21.4011Z" fill="#F7EAFF"/>
<path d="M36.5657 30.4821C33.4508 29.6896 29.6975 30.9273 28.7288 33.992L28.6278 34.3113L28.2435 35.5273C28.2425 35.5303 28.2383 35.5303 28.2373 35.5273C28.2363 35.5243 28.232 35.5243 28.231 35.5273L28.0634 36.0461C28.0098 36.212 27.7762 36.2151 27.7182 36.0506L26.9742 33.9404C26.8723 33.6515 26.9224 33.3304 27.0893 33.0735C29.2408 29.761 26.2652 29.7965 26.0941 29.8026C25.923 29.7965 22.9474 29.761 25.0989 33.0735C25.2657 33.3304 25.3158 33.6515 25.2139 33.9404L24.4699 36.0506C24.412 36.215 24.1783 36.212 24.1247 36.046L23.9571 35.5273C23.9561 35.5243 23.9519 35.5243 23.9509 35.5273C23.9499 35.5303 23.9456 35.5303 23.9446 35.5273L23.5603 34.3113L23.4585 33.9903C22.4867 30.9253 18.7322 29.6893 15.6161 30.4821C13.2061 31.0956 13.0833 33.8704 13.1765 35.254C13.1772 35.2651 13.1768 35.2593 13.1776 35.2704C13.3057 36.9846 14.2804 38.5089 15.875 39.1509C18.0225 40.0157 21.5273 41.0389 26.0941 41.0426C30.6706 41.0426 34.1807 40.0144 36.3269 39.1473C37.9127 38.5067 38.8829 36.9764 39.0105 35.2709C39.012 35.2505 39.0112 35.2607 39.0124 35.2403C39.0977 33.8522 38.9678 31.0936 36.5657 30.4821Z" fill="#F7EAFF"/>
</svg>
