<svg width="52" height="52" viewBox="0 0 52 52" fill="none" xmlns="http://www.w3.org/2000/svg">
<rect opacity="0.2" x="0.649902" y="0.14917" width="51.117" height="51.117" rx="8" fill="#FF8718"/>
<path d="M19.7656 21.4011C20.1497 22.7372 21.0197 24.3882 21.7228 25.5875C22.4068 26.7544 23.4819 27.8177 24.8966 28.3166C25.8428 28.6468 26.8779 28.6531 27.8241 28.3102C29.2143 27.8078 30.2965 26.7466 30.9916 25.5835C31.7063 24.3875 32.5831 22.7357 32.9615 21.3947C33.2497 20.375 33.2475 19.7789 33.1077 19.4417C32.9492 19.0594 32.5445 18.595 32.6185 18.1879C32.9623 16.1227 32.7874 14.8181 32.4392 13.9943C31.9028 12.7249 30.4531 11.7605 29.2465 11.0946C28.4655 10.631 27.3796 10.2754 25.9507 10.396C25.4872 10.4151 25.049 10.5104 24.6362 10.6437C24.1092 10.8215 23.6265 11.0819 23.1884 11.3867C22.6549 11.7233 22.1469 12.1424 21.7024 12.6186C20.9975 13.3426 20.3688 14.2761 20.0958 15.4382C19.8672 16.3082 19.918 17.2163 20.1085 18.1942C20.1809 18.6017 19.7778 19.0657 19.6193 19.4481C19.4795 19.7853 19.4773 20.3814 19.7656 21.4011Z" fill="#FF8718"/>
<path d="M36.8408 30.4821C33.7259 29.6896 29.9726 30.9273 29.0039 33.992L28.903 34.3113L28.5187 35.5273C28.5177 35.5303 28.5134 35.5303 28.5124 35.5273C28.5114 35.5243 28.5072 35.5243 28.5062 35.5273L28.3386 36.0461C28.2849 36.212 28.0513 36.2151 27.9934 36.0506L27.2494 33.9404C27.1475 33.6515 27.1976 33.3304 27.3644 33.0735C29.5159 29.761 26.5403 29.7965 26.3692 29.8026C26.1981 29.7965 23.2225 29.761 25.374 33.0735C25.5409 33.3304 25.591 33.6515 25.4891 33.9404L24.7451 36.0506C24.6871 36.215 24.4535 36.212 24.3999 36.046L24.2322 35.5273C24.2313 35.5243 24.227 35.5243 24.226 35.5273C24.225 35.5303 24.2207 35.5303 24.2198 35.5273L23.8355 34.3113L23.7337 33.9903C22.7619 30.9253 19.0073 29.6893 15.8912 30.4821C13.4812 31.0956 13.3584 33.8704 13.4516 35.254C13.4524 35.2651 13.4519 35.2593 13.4528 35.2704C13.5808 36.9846 14.5555 38.5089 16.1501 39.1509C18.2976 40.0157 21.8025 41.0389 26.3692 41.0426C30.9458 41.0426 34.4558 40.0144 36.6021 39.1473C38.1879 38.5067 39.1581 36.9764 39.2857 35.2709C39.2872 35.2505 39.2863 35.2607 39.2876 35.2403C39.3729 33.8522 39.2429 31.0936 36.8408 30.4821Z" fill="#FF8718"/>
</svg>
