<svg width="88" height="88" viewBox="0 0 88 88" fill="none" xmlns="http://www.w3.org/2000/svg">
<g filter="url(#filter0_d)">
<rect x="18.3329" y="14.4475" width="51.117" height="51.117" rx="8.60606" fill="white"/>
<rect x="18.3329" y="14.4475" width="51.117" height="51.117" rx="8.60606" stroke="#D8D8D8"/>
</g>
<path d="M48.0351 40.7611C50.8089 40.7611 53.0657 38.4859 53.0657 35.6892V31.6385C53.0657 31.0746 52.6121 30.6175 52.0529 30.6175H48.5103C49.4624 28.7151 49.1526 26.3303 47.5789 24.7435L44.738 21.8792C44.5478 21.6877 44.2903 21.5801 44.0216 21.5801C43.753 21.5801 43.4955 21.6877 43.3055 21.8792L40.4645 24.7434C39.5144 25.7013 38.9912 26.9749 38.9912 28.3297C38.9912 29.138 39.1788 29.9167 39.5308 30.6174H35.9885C35.4292 30.6174 34.9757 31.0745 34.9757 31.6385V35.6892C34.9757 38.4857 37.2323 40.761 40.0061 40.761C40.5654 40.761 41.0189 40.3039 41.0189 39.74C41.0189 39.176 40.5653 38.7189 40.0061 38.7189C38.3493 38.7189 37.0013 37.3598 37.0013 35.6892V32.6596H40.0061C40.6747 32.6596 41.2928 32.8811 41.7925 33.2548L42.4207 33.8882C42.7682 34.3604 42.9824 34.9379 43.0079 35.5635C43.0069 35.6055 43.0048 35.647 43.0048 35.6892V39.74C43.0048 39.7613 43.0067 39.7821 43.0079 39.8031V43.8751C42.1694 43.2444 41.1303 42.8705 40.0061 42.8705H35.9885C35.4292 42.8705 34.9757 43.3277 34.9757 43.8916V47.9423C34.9757 50.7389 37.2323 53.0142 40.0061 53.0142H43.0079V56.2221C43.0079 56.786 43.4615 57.2431 44.0207 57.2431C44.5799 57.2431 45.0334 56.786 45.0334 56.2221V52.0563C45.0347 52.0352 45.0365 52.0144 45.0365 51.9931V47.9424C45.0365 47.9002 45.0344 47.8585 45.0334 47.8167C45.0991 46.2042 46.42 44.9127 48.0351 44.9127H51.04V47.9424C51.04 49.6129 49.692 50.972 48.0351 50.972C47.4758 50.972 47.0223 51.4292 47.0223 51.9931C47.0223 52.557 47.4759 53.0142 48.0351 53.0142C50.8089 53.0142 53.0656 50.739 53.0656 47.9423V43.8916C53.0656 43.3277 52.6121 42.8705 52.0529 42.8705H48.0351C46.911 42.8705 45.8719 43.2444 45.0334 43.875V40.761H48.0351V40.7611ZM51.04 35.6893C51.04 37.3598 49.6919 38.719 48.035 38.719H45.0365V35.6893C45.0365 35.6472 45.0344 35.6054 45.0334 35.5636C45.0587 34.9408 45.2713 34.3659 45.6159 33.8949L46.2554 33.2501C46.7538 32.8794 47.3694 32.6596 48.0351 32.6596H51.04V35.6893H51.04ZM41.8969 26.1875L44.0216 24.0454L46.1463 26.1875C47.3179 27.3688 47.3179 29.2908 46.1463 30.472L44.9061 31.7224C44.6081 31.9617 44.3379 32.2344 44.1003 32.5348L44.0215 32.6143L43.9332 32.5253C43.7 32.2317 43.4353 31.9648 43.1442 31.7298L41.8967 30.4719C41.3292 29.8998 41.0167 29.139 41.0167 28.3298C41.0167 27.5205 41.3292 26.7596 41.8969 26.1875ZM37.0012 47.9426V44.9129H40.0061C41.6211 44.9129 42.9422 46.2044 43.0079 47.8169C43.0068 47.8589 43.0047 47.9004 43.0047 47.9426V50.9722H40.0062C38.3492 50.9722 37.0012 49.6131 37.0012 47.9426Z" fill="#FF2D3B"/>
<defs>
<filter id="filter0_d" x="0.242916" y="0.35751" width="87.297" height="87.297" filterUnits="userSpaceOnUse" color-interpolation-filters="sRGB">
<feFlood flood-opacity="0" result="BackgroundImageFix"/>
<feColorMatrix in="SourceAlpha" type="matrix" values="0 0 0 0 0 0 0 0 0 0 0 0 0 0 0 0 0 0 127 0"/>
<feOffset dy="4"/>
<feGaussianBlur stdDeviation="8.795"/>
<feColorMatrix type="matrix" values="0 0 0 0 0 0 0 0 0 0 0 0 0 0 0 0 0 0 0.0524 0"/>
<feBlend mode="normal" in2="BackgroundImageFix" result="effect1_dropShadow"/>
<feBlend mode="normal" in="SourceGraphic" in2="effect1_dropShadow" result="shape"/>
</filter>
</defs>
</svg>
