<svg width="88" height="88" viewBox="0 0 88 88" fill="none" xmlns="http://www.w3.org/2000/svg">
<g filter="url(#filter0_d)">
<rect x="18.233" y="14.4475" width="51.117" height="51.117" rx="8.60606" fill="white"/>
<rect x="18.233" y="14.4475" width="51.117" height="51.117" rx="8.60606" stroke="#D8D8D8"/>
</g>
<path d="M47.9351 40.7611C50.7089 40.7611 52.9657 38.4859 52.9657 35.6892V31.6385C52.9657 31.0746 52.5121 30.6175 51.9529 30.6175H48.4103C49.3624 28.7151 49.0526 26.3303 47.4789 24.7435L44.638 21.8792C44.4478 21.6877 44.1903 21.5801 43.9216 21.5801C43.653 21.5801 43.3955 21.6877 43.2055 21.8792L40.3645 24.7434C39.4144 25.7013 38.8912 26.9749 38.8912 28.3297C38.8912 29.138 39.0788 29.9167 39.4308 30.6174H35.8885C35.3292 30.6174 34.8757 31.0745 34.8757 31.6385V35.6892C34.8757 38.4857 37.1323 40.761 39.9061 40.761C40.4654 40.761 40.9189 40.3039 40.9189 39.74C40.9189 39.176 40.4653 38.7189 39.9061 38.7189C38.2493 38.7189 36.9013 37.3598 36.9013 35.6892V32.6596H39.9061C40.5747 32.6596 41.1928 32.8811 41.6925 33.2548L42.3207 33.8882C42.6682 34.3604 42.8824 34.9379 42.9079 35.5635C42.9069 35.6055 42.9048 35.647 42.9048 35.6892V39.74C42.9048 39.7613 42.9067 39.7821 42.9079 39.8031V43.8751C42.0694 43.2444 41.0303 42.8705 39.9061 42.8705H35.8885C35.3292 42.8705 34.8757 43.3277 34.8757 43.8916V47.9423C34.8757 50.7389 37.1323 53.0142 39.9061 53.0142H42.9079V56.2221C42.9079 56.786 43.3615 57.2431 43.9207 57.2431C44.4799 57.2431 44.9334 56.786 44.9334 56.2221V52.0563C44.9347 52.0352 44.9365 52.0144 44.9365 51.9931V47.9424C44.9365 47.9002 44.9344 47.8585 44.9334 47.8167C44.9991 46.2042 46.32 44.9127 47.9351 44.9127H50.94V47.9424C50.94 49.6129 49.592 50.972 47.9351 50.972C47.3758 50.972 46.9223 51.4292 46.9223 51.9931C46.9223 52.557 47.3759 53.0142 47.9351 53.0142C50.7089 53.0142 52.9656 50.739 52.9656 47.9423V43.8916C52.9656 43.3277 52.5121 42.8705 51.9529 42.8705H47.9351C46.811 42.8705 45.7719 43.2444 44.9334 43.875V40.761H47.9351V40.7611ZM50.94 35.6893C50.94 37.3598 49.5919 38.719 47.935 38.719H44.9365V35.6893C44.9365 35.6472 44.9344 35.6054 44.9334 35.5636C44.9587 34.9408 45.1713 34.3659 45.5159 33.8949L46.1554 33.2501C46.6538 32.8794 47.2694 32.6596 47.9351 32.6596H50.94V35.6893H50.94ZM41.7969 26.1875L43.9216 24.0454L46.0463 26.1875C47.2179 27.3688 47.2179 29.2908 46.0463 30.472L44.8061 31.7224C44.5081 31.9617 44.2379 32.2344 44.0003 32.5348L43.9215 32.6143L43.8332 32.5253C43.6 32.2317 43.3353 31.9648 43.0442 31.7298L41.7967 30.4719C41.2292 29.8998 40.9167 29.139 40.9167 28.3298C40.9167 27.5205 41.2292 26.7596 41.7969 26.1875ZM36.9012 47.9426V44.9129H39.9061C41.5211 44.9129 42.8421 46.2044 42.9079 47.8169C42.9068 47.8589 42.9047 47.9004 42.9047 47.9426V50.9722H39.9062C38.2492 50.9722 36.9012 49.6131 36.9012 47.9426Z" fill="#0C8762"/>
<defs>
<filter id="filter0_d" x="0.142986" y="0.35751" width="87.297" height="87.297" filterUnits="userSpaceOnUse" color-interpolation-filters="sRGB">
<feFlood flood-opacity="0" result="BackgroundImageFix"/>
<feColorMatrix in="SourceAlpha" type="matrix" values="0 0 0 0 0 0 0 0 0 0 0 0 0 0 0 0 0 0 127 0"/>
<feOffset dy="4"/>
<feGaussianBlur stdDeviation="8.795"/>
<feColorMatrix type="matrix" values="0 0 0 0 0 0 0 0 0 0 0 0 0 0 0 0 0 0 0.0524 0"/>
<feBlend mode="normal" in2="BackgroundImageFix" result="effect1_dropShadow"/>
<feBlend mode="normal" in="SourceGraphic" in2="effect1_dropShadow" result="shape"/>
</filter>
</defs>
</svg>
