<svg width="307" height="25" viewBox="0 0 307 25" fill="none" xmlns="http://www.w3.org/2000/svg">
<path d="M0 0H306V25H0V0Z" fill="#FFD100"/>
<path d="M20.8078 4.93315C20.5584 4.69613 20.2607 4.51147 19.9465 4.42328C19.6337 4.33233 19.3016 4.36265 19.0591 4.53903C18.5726 4.88906 18.3811 5.62769 18.5244 6.17477C18.5588 6.31119 18.6305 6.42144 18.7173 6.52617C18.8096 6.62814 18.9268 6.72047 19.0577 6.8059C19.3209 6.9754 19.631 7.11872 19.9383 7.26342C20.557 7.55694 21.1812 7.86699 21.7876 8.20461C22.3925 8.55739 22.9741 8.90603 23.5597 9.28775C23.8491 9.48343 24.1371 9.68738 24.4114 9.91752C24.6856 10.1476 24.9543 10.4067 25.1514 10.7374C25.3498 11.0654 25.4683 11.4595 25.4352 11.8454C25.4063 12.2271 25.2726 12.5799 25.0935 12.8899C24.7256 13.5101 24.2047 13.991 23.6438 14.3906C24.1151 13.8918 24.5629 13.3612 24.8275 12.7549C24.9626 12.4572 25.0466 12.1389 25.0384 11.8344C25.0342 11.5298 24.9295 11.2418 24.7559 10.9951C24.3921 10.5018 23.8202 10.1242 23.2497 9.77144C22.6764 9.41729 22.0783 9.06451 21.4899 8.73102C20.9029 8.39203 20.2979 8.09024 19.6833 7.77605C19.3788 7.61344 19.0673 7.45772 18.76 7.24275C18.6085 7.13388 18.4555 7.01123 18.3273 6.84725C18.2033 6.68188 18.1041 6.4862 18.0669 6.28501C17.9883 5.88813 18.0448 5.50091 18.1854 5.14951C18.3287 4.80362 18.5616 4.47703 18.9061 4.28686C19.2547 4.09393 19.6778 4.11598 20.003 4.26619C20.3365 4.41226 20.6038 4.65479 20.8078 4.93315Z" fill="white"/>
<path d="M14.9769 12.6592C15.291 13.1953 15.7155 13.6886 16.2653 13.9711C16.5354 14.1158 16.8372 14.1944 17.1404 14.1985C17.4435 14.1971 17.7453 14.1393 18.0264 14.0235C18.5859 13.7865 19.0738 13.3827 19.4431 12.9018C19.8165 12.425 20.0921 11.8559 20.1665 11.2716C20.2492 10.6873 20.0577 10.0961 19.7407 9.59173C19.4224 9.08324 18.9856 8.65053 18.5019 8.2826C17.5304 7.55637 16.3618 7.07131 15.1656 6.93626C14.569 6.87149 13.9667 6.91559 13.3825 7.05615C13.0862 7.10713 12.8064 7.22427 12.5198 7.31108L12.105 7.49299C12.0375 7.52468 11.9672 7.55224 11.8997 7.58532L11.7026 7.69693C11.1652 7.97254 10.687 8.35013 10.2364 8.74838C10.0214 8.96197 9.79957 9.1673 9.61353 9.40433C9.4082 9.62619 9.24422 9.87975 9.06921 10.125C8.75501 10.6349 8.46288 11.1668 8.29613 11.7415L8.22447 11.9537C8.2038 12.0254 8.1914 12.0998 8.17348 12.1714L8.07841 12.6083L8.03292 13.0506C8.02603 13.125 8.01363 13.1994 8.01225 13.2725L8.0164 13.4957C7.99848 14.0896 8.11423 14.6794 8.30716 15.2362C8.5111 15.7901 8.806 16.311 9.18221 16.7741C9.9291 17.7056 10.9406 18.4263 12.032 18.9596C12.5791 19.227 13.1496 19.4516 13.7339 19.6307C14.3181 19.8057 14.9121 19.9477 15.5157 20.0014C16.7187 20.1392 17.9534 20.0331 19.133 19.7217C20.3112 19.4047 21.4371 18.8811 22.4376 18.181C23.4366 17.4782 24.3062 16.5853 24.9497 15.5435C25.5933 14.5044 26.0012 13.3193 26.1376 12.097C26.2795 10.8747 26.1197 9.62343 25.7655 8.43418C25.585 7.84025 25.348 7.26286 25.0751 6.70337C24.8009 6.14251 24.4867 5.60094 24.1201 5.09244C24.8987 6.07361 25.5023 7.19533 25.9185 8.38458C25.9736 8.53341 26.0135 8.68637 26.0604 8.83657C26.1073 8.98678 26.1527 9.13836 26.1844 9.2927L26.2905 9.75572L26.3636 10.2243C26.4242 10.5371 26.4242 10.8554 26.4531 11.171C26.4628 11.3294 26.4504 11.4893 26.4504 11.6478C26.4435 11.8062 26.4545 11.9661 26.4339 12.1246C26.3264 13.3937 25.9254 14.6395 25.2777 15.7405C24.63 16.8443 23.7398 17.8007 22.7104 18.5586C20.6516 20.0827 18.0237 20.8296 15.4536 20.5706C14.8073 20.5223 14.1776 20.3694 13.5644 20.1902C12.9498 20.0042 12.3503 19.7713 11.7729 19.4929C10.6209 18.9321 9.53499 18.1755 8.70954 17.1516C8.29889 16.6418 7.96953 16.0589 7.74353 15.4374C7.52856 14.8131 7.40455 14.153 7.42384 13.4943L7.42245 13.2477C7.42383 13.1664 7.43762 13.0851 7.44451 13.0024L7.49825 12.5118L7.60436 12.0322C7.62365 11.9537 7.6388 11.8724 7.66085 11.7938L7.7394 11.561C7.92819 10.9326 8.24377 10.3552 8.59241 9.80947C8.78258 9.54626 8.96586 9.27617 9.18773 9.03915C9.39168 8.78559 9.63145 8.56786 9.86434 8.34186C10.3535 7.9188 10.8717 7.52192 11.4518 7.23116L11.6654 7.11403C11.7385 7.07957 11.8143 7.04926 11.8887 7.01618L12.3365 6.82602C12.648 6.73369 12.9511 6.61104 13.275 6.56281C13.9089 6.42501 14.5745 6.39056 15.2208 6.476C16.5106 6.65239 17.7219 7.18982 18.7361 7.98081C19.2377 8.3832 19.6953 8.85449 20.0301 9.41535C20.3636 9.96932 20.5731 10.6473 20.4587 11.3115C20.4022 11.6367 20.303 11.9523 20.1514 12.2389C20.0053 12.5283 19.8303 12.7998 19.6208 13.0451C19.2116 13.5384 18.6865 13.9422 18.0843 14.171C17.7825 14.2853 17.4573 14.3349 17.1362 14.3239C16.8124 14.3088 16.4954 14.2137 16.2212 14.0511C15.6645 13.73 15.2662 13.2105 14.9769 12.6592Z" fill="white"/>
<path d="M34.1798 4.93705C34.3834 4.65858 34.6511 4.41609 34.9844 4.27009C35.3093 4.11977 35.7332 4.09774 36.0832 4.29073C36.4263 4.48093 36.6591 4.80751 36.8042 5.15333C36.9436 5.50486 37.0008 5.89196 36.9213 6.28882C36.8836 6.49003 36.7846 6.68581 36.6619 6.85119C36.5336 7.01504 36.3788 7.13775 36.2282 7.24665C35.9215 7.46154 35.6105 7.61729 35.3037 7.77988C34.6916 8.09405 34.085 8.39595 33.4979 8.73493C32.9109 9.06834 32.3113 9.42113 31.7382 9.77532C31.1678 10.1281 30.5961 10.5057 30.2336 10.9991C30.0579 11.2458 29.9533 11.5337 29.9491 11.8382C29.9421 12.1428 30.0258 12.4611 30.1597 12.7589C30.4246 13.3652 30.8722 13.8957 31.3435 14.3945C30.7844 13.9949 30.2629 13.5139 29.8961 12.8938C29.7162 12.5839 29.5824 12.2309 29.5517 11.8493C29.521 11.4634 29.6395 11.0692 29.8362 10.7414C30.0328 10.4106 30.3019 10.1515 30.5766 9.92132C30.8513 9.69124 31.1386 9.48723 31.4286 9.29159C32.0157 8.90993 32.5971 8.56119 33.1995 8.20854C33.8061 7.87094 34.4322 7.56082 35.0499 7.26729C35.3567 7.12255 35.6663 6.9792 35.9298 6.80978C36.0609 6.7243 36.1794 6.63199 36.2701 6.53005C36.3565 6.42533 36.429 6.31503 36.4639 6.17866C36.6075 5.63162 36.4151 4.89285 35.9298 4.54284C35.6872 4.36645 35.3553 4.33619 35.0416 4.4271C34.7264 4.51537 34.4308 4.7 34.1798 4.93705Z" fill="white"/>
<path d="M40.0137 12.6592C39.7248 13.2104 39.3264 13.7299 38.7703 14.051C38.496 14.2136 38.1778 14.3087 37.8568 14.3239C37.5342 14.3348 37.2103 14.2852 36.9067 14.1708C36.304 13.9421 35.7786 13.5383 35.3715 13.045C35.1613 12.7997 34.9862 12.5283 34.8403 12.2389C34.6885 11.9523 34.5892 11.6366 34.5323 11.3115C34.4185 10.6472 34.6272 9.96927 34.9614 9.4153C35.297 8.85446 35.7538 8.38309 36.2544 7.98074C37.2686 7.18976 38.4799 6.65228 39.77 6.47584C40.4165 6.39047 41.082 6.4249 41.7153 6.56267C42.0393 6.61097 42.3429 6.73356 42.6537 6.82594L43.1032 7.0161C43.1762 7.04923 43.2521 7.07943 43.325 7.11402L43.5396 7.23106C44.1189 7.52177 44.637 7.91871 45.1259 8.34179C45.3594 8.56784 45.6002 8.78558 45.8045 9.03908C46.0249 9.27608 46.2087 9.5462 46.3985 9.80947C46.7472 10.3551 47.0639 10.9325 47.2522 11.5609L47.3295 11.7938C47.3529 11.8723 47.3675 11.9536 47.3864 12.0321L47.493 12.5118L47.547 13.0023C47.5528 13.085 47.5674 13.1663 47.5689 13.2476L47.5674 13.4942C47.5864 14.153 47.4623 14.8131 47.2478 15.4372C47.0231 16.0588 46.6932 16.6417 46.2817 17.1516C45.4572 18.1754 44.3699 18.932 43.2185 19.4928C42.6406 19.7713 42.0408 20.004 41.4278 20.1901C40.8135 20.3693 40.183 20.5223 39.538 20.5706C36.968 20.8296 34.3397 20.0827 32.282 18.5585C31.2531 17.8007 30.3629 16.8442 29.715 15.7405C29.0655 14.6394 28.6657 13.3937 28.5591 12.1245C28.5358 11.966 28.5475 11.8062 28.5402 11.6477C28.5402 11.4892 28.5299 11.3294 28.5387 11.1709C28.5664 10.8553 28.5679 10.537 28.6277 10.2242L28.7007 9.75562L28.8058 9.29271C28.8393 9.13831 28.8831 8.98668 28.9298 8.83651C28.9794 8.68634 29.0174 8.5334 29.0728 8.38455C29.4888 7.19531 30.0915 6.07349 30.8708 5.09235C30.5045 5.6008 30.1907 6.14237 29.9164 6.70335C29.6434 7.26273 29.4056 7.8402 29.2261 8.43417C28.8714 9.62326 28.7109 10.8747 28.8539 12.097C28.9897 13.3193 29.3983 14.5044 30.0419 15.5435C30.6854 16.5852 31.5538 17.4782 32.5534 18.181C33.5531 18.8811 34.6797 19.4047 35.8574 19.7217C37.0381 20.0331 38.2727 20.1392 39.4752 20.0014C40.0794 19.9477 40.6734 19.8057 41.2571 19.6307C41.8408 19.4515 42.4115 19.2269 42.9587 18.9596C44.0518 18.4263 45.0617 17.7055 45.8089 16.774C46.1854 16.311 46.4802 15.7901 46.6845 15.2361C46.8771 14.6794 46.9924 14.0895 46.9764 13.4957L46.9807 13.2724C46.9793 13.1994 46.9647 13.125 46.9589 13.0506L46.9136 12.6083L46.8173 12.1713C46.8012 12.0997 46.7867 12.0252 46.7677 11.9536L46.6962 11.7414C46.5283 11.1668 46.2365 10.6349 45.9213 10.125C45.7476 9.87967 45.5827 9.62617 45.3769 9.4042C45.1916 9.1672 44.9697 8.96187 44.7552 8.74822C44.3057 8.35011 43.8256 7.97242 43.29 7.69689L43.0915 7.58525C43.0244 7.55212 42.9544 7.52469 42.8858 7.49287L42.4728 7.31104C42.1853 7.2242 41.9051 7.10701 41.6103 7.05608C41.0236 6.91554 40.4223 6.87133 39.8255 6.93612C38.6288 7.07126 37.4598 7.55621 36.4893 8.28253C36.0063 8.65044 35.5685 9.08314 35.2503 9.59173C34.9337 10.0959 34.7425 10.6873 34.8242 11.2715C34.9001 11.8558 35.1744 12.425 35.548 12.9017C35.9187 13.3826 36.4047 13.7864 36.9666 14.0234C37.2453 14.1393 37.5489 14.1971 37.8509 14.1985C38.1545 14.1943 38.4551 14.1158 38.7266 13.971C39.2767 13.6885 39.7 13.1952 40.0137 12.6592Z" fill="white"/>
<path d="M6.21357 14.8263C5.98758 15.055 5.7161 15.248 5.40466 15.3623C5.09598 15.474 4.72805 15.4877 4.41524 15.3348C4.25538 15.2645 4.11482 15.157 3.99907 15.0302C3.88055 14.9048 3.78409 14.7615 3.70968 14.6086C3.55534 14.304 3.47266 13.9678 3.45474 13.626C3.43407 13.2843 3.51537 12.9218 3.67936 12.6118C3.84197 12.3003 4.07899 12.0371 4.34495 11.8222C4.87963 11.3908 5.52041 11.1263 6.19152 11.0009C6.52914 10.9361 6.88054 10.9361 7.22367 10.9692C7.56818 11.005 7.90167 11.1028 8.22275 11.2213C8.54107 11.3495 8.84287 11.5149 9.12812 11.705C9.40511 11.9049 9.66969 12.1226 9.90258 12.3734C10.1355 12.6242 10.3504 12.8929 10.5227 13.1892C10.6963 13.4841 10.8507 13.7955 10.9485 14.129C11.1635 14.7863 11.2076 15.4988 11.0973 16.1768C10.9802 16.8548 10.7239 17.4955 10.3821 18.0771C10.2085 18.3692 10.0238 18.6435 9.79095 18.9122L9.4299 19.276L9.03166 19.5998C7.9251 20.4032 6.54292 20.7587 5.20898 20.665C4.54063 20.6196 3.87918 20.4707 3.26733 20.2061C2.65411 19.9402 2.08911 19.5654 1.61782 19.0982C0.683512 18.1487 0.143316 16.8823 0 15.6035C0.274229 16.8589 0.884702 18.0454 1.82177 18.8832C2.75883 19.7169 3.99631 20.1565 5.23241 20.1924C6.46575 20.2268 7.72115 19.8823 8.68991 19.1395L9.03716 18.8488L9.35274 18.5236C9.54153 18.3045 9.71929 18.0412 9.87088 17.778C10.1782 17.2489 10.4014 16.6701 10.5006 16.0775C10.5999 15.485 10.5654 14.8773 10.3849 14.3081C10.2154 13.7349 9.88466 13.2112 9.48365 12.762C8.68163 11.8607 7.4607 11.2971 6.26456 11.4653C5.66787 11.5521 5.07531 11.7794 4.5861 12.1336C4.34357 12.3114 4.13136 12.5277 3.98115 12.7813C3.8337 13.0335 3.75102 13.3187 3.75102 13.6205C3.74551 13.9209 3.802 14.231 3.92051 14.5093C3.97839 14.6499 4.05556 14.7822 4.15202 14.8966C4.24435 15.0137 4.35873 15.1157 4.48964 15.186C4.74871 15.3403 5.07669 15.3568 5.3771 15.2755C5.68165 15.1956 5.96691 15.033 6.21357 14.8263Z" fill="white"/>
<path d="M48.7848 14.8264C49.0316 15.033 49.3175 15.1957 49.6215 15.2756C49.9224 15.3568 50.249 15.3403 50.5093 15.186C50.6417 15.1158 50.7546 15.0137 50.8479 14.8967C50.9427 14.7823 51.0195 14.6499 51.0782 14.5093C51.197 14.2311 51.2527 13.9209 51.2467 13.6205C51.2467 13.3188 51.1654 13.0335 51.018 12.7813C50.869 12.5277 50.6553 12.3113 50.4115 12.1336C49.9239 11.7794 49.331 11.5521 48.7336 11.4653C47.5388 11.2971 46.3168 11.8608 45.5147 12.762C45.113 13.2112 44.7834 13.7349 44.6133 14.3081C44.4328 14.8772 44.3997 15.485 44.499 16.0775C44.5983 16.6701 44.8195 17.2489 45.128 17.7781C45.28 18.0413 45.4576 18.3045 45.6457 18.5236L45.9632 18.8488L46.3093 19.1396C47.2769 19.8824 48.5335 20.2268 49.7674 20.1923C51.0029 20.1565 52.2399 19.717 53.1759 18.8833C54.1134 18.0454 54.7244 16.859 54.9998 15.6035C54.8568 16.8823 54.3166 18.1488 53.3821 19.0982C52.9111 19.5654 52.3437 19.9403 51.7328 20.2062C51.1188 20.4707 50.4582 20.6196 49.79 20.665C48.4552 20.7588 47.0738 20.4032 45.9662 19.5997L45.5704 19.2759L45.2093 18.9122C44.976 18.6434 44.7909 18.3692 44.6179 18.0771C44.2747 17.4955 44.0174 16.8548 43.9016 16.1768C43.7917 15.4987 43.8368 14.7863 44.0505 14.129C44.1484 13.7956 44.3018 13.4841 44.4764 13.1893C44.648 12.893 44.8647 12.6242 45.0964 12.3733C45.3282 12.1226 45.5945 11.9049 45.8714 11.705C46.1573 11.5148 46.4568 11.3494 46.7773 11.2214C47.0978 11.1028 47.4319 11.005 47.7765 10.9692C48.1181 10.9361 48.4688 10.9361 48.8073 11.0009C49.48 11.1263 50.1181 11.3908 50.6553 11.8221C50.9201 12.0371 51.1564 12.3003 51.3204 12.6118C51.483 12.9218 51.5642 13.2844 51.5431 13.626C51.5266 13.9677 51.4423 14.304 51.2903 14.6086C51.2136 14.7615 51.1173 14.9048 50.9999 15.0303C50.884 15.157 50.7426 15.2646 50.5846 15.3349C50.27 15.4878 49.9029 15.4739 49.5944 15.3624C49.2844 15.248 49.012 15.0551 48.7848 14.8264Z" fill="white"/>
<path d="M66.8078 4.93315C66.5584 4.69613 66.2607 4.51147 65.9465 4.42328C65.6337 4.33233 65.3016 4.36265 65.0591 4.53903C64.5726 4.88906 64.3811 5.62769 64.5244 6.17477C64.5588 6.31119 64.6305 6.42144 64.7173 6.52617C64.8096 6.62814 64.9268 6.72047 65.0577 6.8059C65.3209 6.9754 65.631 7.11872 65.9383 7.26342C66.557 7.55694 67.1812 7.86699 67.7876 8.20461C68.3925 8.55739 68.9741 8.90603 69.5597 9.28775C69.8491 9.48343 70.1371 9.68738 70.4114 9.91752C70.6856 10.1476 70.9543 10.4067 71.1514 10.7374C71.3498 11.0654 71.4683 11.4595 71.4352 11.8454C71.4063 12.2271 71.2726 12.5799 71.0935 12.8899C70.7256 13.5101 70.2047 13.991 69.6438 14.3906C70.1151 13.8918 70.5629 13.3612 70.8275 12.7549C70.9626 12.4572 71.0466 12.1389 71.0384 11.8344C71.0342 11.5298 70.9295 11.2418 70.7559 10.9951C70.3921 10.5018 69.8202 10.1242 69.2497 9.77144C68.6764 9.41729 68.0783 9.06451 67.4899 8.73102C66.9029 8.39203 66.2979 8.09024 65.6833 7.77605C65.3788 7.61344 65.0673 7.45772 64.76 7.24275C64.6085 7.13388 64.4555 7.01123 64.3273 6.84725C64.2033 6.68188 64.1041 6.4862 64.0669 6.28501C63.9883 5.88813 64.0448 5.50091 64.1854 5.14951C64.3287 4.80362 64.5616 4.47703 64.9061 4.28686C65.2547 4.09393 65.6778 4.11598 66.003 4.26619C66.3365 4.41226 66.6038 4.65479 66.8078 4.93315Z" fill="white"/>
<path d="M60.9769 12.6592C61.291 13.1953 61.7155 13.6886 62.2653 13.9711C62.5354 14.1158 62.8372 14.1944 63.1404 14.1985C63.4435 14.1971 63.7453 14.1393 64.0264 14.0235C64.5859 13.7865 65.0738 13.3827 65.4431 12.9018C65.8165 12.425 66.0921 11.8559 66.1665 11.2716C66.2492 10.6873 66.0577 10.0961 65.7407 9.59173C65.4224 9.08324 64.9856 8.65053 64.5019 8.2826C63.5304 7.55637 62.3618 7.07131 61.1656 6.93626C60.569 6.87149 59.9667 6.91559 59.3825 7.05615C59.0862 7.10713 58.8064 7.22427 58.5198 7.31108L58.105 7.49299C58.0375 7.52468 57.9672 7.55224 57.8997 7.58532L57.7026 7.69693C57.1652 7.97254 56.687 8.35013 56.2364 8.74838C56.0214 8.96197 55.7996 9.1673 55.6135 9.40433C55.4082 9.62619 55.2442 9.87975 55.0692 10.125C54.755 10.6349 54.4629 11.1668 54.2961 11.7415L54.2245 11.9537C54.2038 12.0254 54.1914 12.0998 54.1735 12.1714L54.0784 12.6083L54.0329 13.0506C54.026 13.125 54.0136 13.1994 54.0123 13.2725L54.0164 13.4957C53.9985 14.0896 54.1142 14.6794 54.3072 15.2362C54.5111 15.7901 54.806 16.311 55.1822 16.7741C55.9291 17.7056 56.9406 18.4263 58.032 18.9596C58.5791 19.227 59.1496 19.4516 59.7339 19.6307C60.3181 19.8057 60.9121 19.9477 61.5157 20.0014C62.7187 20.1392 63.9534 20.0331 65.133 19.7217C66.3112 19.4047 67.4371 18.8811 68.4376 18.181C69.4366 17.4782 70.3062 16.5853 70.9497 15.5435C71.5933 14.5044 72.0012 13.3193 72.1376 12.097C72.2795 10.8747 72.1197 9.62343 71.7655 8.43418C71.585 7.84025 71.348 7.26286 71.0751 6.70337C70.8009 6.14251 70.4867 5.60094 70.1201 5.09244C70.8987 6.07361 71.5023 7.19533 71.9185 8.38458C71.9736 8.53341 72.0135 8.68637 72.0604 8.83657C72.1073 8.98678 72.1527 9.13836 72.1844 9.2927L72.2905 9.75572L72.3636 10.2243C72.4242 10.5371 72.4242 10.8554 72.4531 11.171C72.4628 11.3294 72.4504 11.4893 72.4504 11.6478C72.4435 11.8062 72.4545 11.9661 72.4339 12.1246C72.3264 13.3937 71.9254 14.6395 71.2777 15.7405C70.63 16.8443 69.7398 17.8007 68.7104 18.5586C66.6516 20.0827 64.0237 20.8296 61.4536 20.5706C60.8073 20.5223 60.1776 20.3694 59.5644 20.1902C58.9498 20.0042 58.3503 19.7713 57.7729 19.4929C56.6209 18.9321 55.535 18.1755 54.7095 17.1516C54.2989 16.6418 53.9695 16.0589 53.7435 15.4374C53.5286 14.8131 53.4045 14.153 53.4238 13.4943L53.4225 13.2477C53.4238 13.1664 53.4376 13.0851 53.4445 13.0024L53.4982 12.5118L53.6044 12.0322C53.6236 11.9537 53.6388 11.8724 53.6609 11.7938L53.7394 11.561C53.9282 10.9326 54.2438 10.3552 54.5924 9.80947C54.7826 9.54626 54.9659 9.27617 55.1877 9.03915C55.3917 8.78559 55.6314 8.56786 55.8643 8.34186C56.3535 7.9188 56.8717 7.52192 57.4518 7.23116L57.6654 7.11403C57.7385 7.07957 57.8143 7.04926 57.8887 7.01618L58.3365 6.82602C58.648 6.73369 58.9511 6.61104 59.275 6.56281C59.9089 6.42501 60.5745 6.39056 61.2208 6.476C62.5106 6.65239 63.7219 7.18982 64.7361 7.98081C65.2377 8.3832 65.6953 8.85449 66.0301 9.41535C66.3636 9.96932 66.5731 10.6473 66.4587 11.3115C66.4022 11.6367 66.303 11.9523 66.1514 12.2389C66.0053 12.5283 65.8303 12.7998 65.6208 13.0451C65.2116 13.5384 64.6865 13.9422 64.0843 14.171C63.7825 14.2853 63.4573 14.3349 63.1362 14.3239C62.8124 14.3088 62.4954 14.2137 62.2212 14.0511C61.6645 13.73 61.2662 13.2105 60.9769 12.6592Z" fill="white"/>
<path d="M80.1798 4.93705C80.3834 4.65858 80.6511 4.41609 80.9844 4.27009C81.3093 4.11977 81.7332 4.09774 82.0832 4.29073C82.4263 4.48093 82.6591 4.80751 82.8042 5.15333C82.9436 5.50486 83.0008 5.89196 82.9213 6.28882C82.8836 6.49003 82.7846 6.68581 82.6619 6.85119C82.5336 7.01504 82.3788 7.13775 82.2282 7.24665C81.9215 7.46154 81.6105 7.61729 81.3037 7.77988C80.6916 8.09405 80.085 8.39595 79.4979 8.73493C78.9109 9.06834 78.3113 9.42113 77.7382 9.77532C77.1678 10.1281 76.5961 10.5057 76.2336 10.9991C76.0579 11.2458 75.9533 11.5337 75.9491 11.8382C75.9421 12.1428 76.0258 12.4611 76.1597 12.7589C76.4246 13.3652 76.8722 13.8957 77.3435 14.3945C76.7844 13.9949 76.2629 13.5139 75.8961 12.8938C75.7162 12.5839 75.5824 12.2309 75.5517 11.8493C75.521 11.4634 75.6395 11.0692 75.8362 10.7414C76.0328 10.4106 76.3019 10.1515 76.5766 9.92132C76.8513 9.69124 77.1386 9.48723 77.4286 9.29159C78.0157 8.90993 78.5971 8.56119 79.1995 8.20854C79.8061 7.87094 80.4322 7.56082 81.0499 7.26729C81.3567 7.12255 81.6663 6.9792 81.9298 6.80978C82.0609 6.7243 82.1794 6.63199 82.2701 6.53005C82.3565 6.42533 82.429 6.31503 82.4639 6.17866C82.6075 5.63162 82.4151 4.89285 81.9298 4.54284C81.6872 4.36645 81.3553 4.33619 81.0416 4.4271C80.7264 4.51537 80.4308 4.7 80.1798 4.93705Z" fill="white"/>
<path d="M86.0137 12.6592C85.7248 13.2104 85.3264 13.7299 84.7703 14.051C84.496 14.2136 84.1778 14.3087 83.8568 14.3239C83.5342 14.3348 83.2103 14.2852 82.9067 14.1708C82.304 13.9421 81.7786 13.5383 81.3715 13.045C81.1613 12.7997 80.9862 12.5283 80.8403 12.2389C80.6885 11.9523 80.5892 11.6366 80.5323 11.3115C80.4185 10.6472 80.6272 9.96927 80.9614 9.4153C81.297 8.85446 81.7538 8.38309 82.2544 7.98074C83.2686 7.18976 84.4799 6.65228 85.77 6.47584C86.4165 6.39047 87.082 6.4249 87.7153 6.56267C88.0393 6.61097 88.3429 6.73356 88.6537 6.82594L89.1032 7.0161C89.1762 7.04923 89.2521 7.07943 89.325 7.11402L89.5396 7.23106C90.1189 7.52177 90.637 7.91871 91.1259 8.34179C91.3594 8.56784 91.6002 8.78558 91.8045 9.03908C92.0249 9.27608 92.2087 9.5462 92.3985 9.80947C92.7472 10.3551 93.0639 10.9325 93.2522 11.5609L93.3295 11.7938C93.3529 11.8723 93.3675 11.9536 93.3864 12.0321L93.493 12.5118L93.547 13.0023C93.5528 13.085 93.5674 13.1663 93.5689 13.2476L93.5674 13.4942C93.5864 14.153 93.4623 14.8131 93.2478 15.4372C93.0231 16.0588 92.6932 16.6417 92.2817 17.1516C91.4572 18.1754 90.3699 18.932 89.2185 19.4928C88.6406 19.7713 88.0408 20.004 87.4278 20.1901C86.8135 20.3693 86.183 20.5223 85.538 20.5706C82.968 20.8296 80.3397 20.0827 78.282 18.5585C77.2531 17.8007 76.3629 16.8442 75.715 15.7405C75.0655 14.6394 74.6657 13.3937 74.5591 12.1245C74.5358 11.966 74.5475 11.8062 74.5402 11.6477C74.5402 11.4892 74.5299 11.3294 74.5387 11.1709C74.5664 10.8553 74.5679 10.537 74.6277 10.2242L74.7007 9.75562L74.8058 9.29271C74.8393 9.13831 74.8831 8.98668 74.9298 8.83651C74.9794 8.68634 75.0174 8.5334 75.0728 8.38455C75.4888 7.19531 76.0915 6.07349 76.8708 5.09235C76.5045 5.6008 76.1907 6.14237 75.9164 6.70335C75.6434 7.26273 75.4056 7.8402 75.2261 8.43417C74.8714 9.62326 74.7109 10.8747 74.8539 12.097C74.9897 13.3193 75.3983 14.5044 76.0419 15.5435C76.6854 16.5852 77.5538 17.4782 78.5534 18.181C79.5531 18.8811 80.6797 19.4047 81.8574 19.7217C83.0381 20.0331 84.2727 20.1392 85.4752 20.0014C86.0794 19.9477 86.6734 19.8057 87.2571 19.6307C87.8408 19.4515 88.4115 19.2269 88.9587 18.9596C90.0518 18.4263 91.0617 17.7055 91.8089 16.774C92.1854 16.311 92.4802 15.7901 92.6845 15.2361C92.8771 14.6794 92.9924 14.0895 92.9764 13.4957L92.9807 13.2724C92.9793 13.1994 92.9647 13.125 92.9589 13.0506L92.9136 12.6083L92.8173 12.1713C92.8012 12.0997 92.7867 12.0252 92.7677 11.9536L92.6962 11.7414C92.5283 11.1668 92.2365 10.6349 91.9213 10.125C91.7476 9.87967 91.5827 9.62617 91.3769 9.4042C91.1916 9.1672 90.9697 8.96187 90.7552 8.74822C90.3057 8.35011 89.8256 7.97242 89.29 7.69689L89.0915 7.58525C89.0244 7.55212 88.9544 7.52469 88.8858 7.49287L88.4728 7.31104C88.1853 7.2242 87.9051 7.10701 87.6103 7.05608C87.0236 6.91554 86.4223 6.87133 85.8255 6.93612C84.6288 7.07126 83.4598 7.55621 82.4893 8.28253C82.0063 8.65044 81.5685 9.08314 81.2503 9.59173C80.9337 10.0959 80.7425 10.6873 80.8242 11.2715C80.9001 11.8558 81.1744 12.425 81.548 12.9017C81.9187 13.3826 82.4047 13.7864 82.9666 14.0234C83.2453 14.1393 83.5489 14.1971 83.8509 14.1985C84.1545 14.1943 84.4551 14.1158 84.7266 13.971C85.2767 13.6885 85.7 13.1952 86.0137 12.6592Z" fill="white"/>
<path d="M52.2136 14.8263C51.9876 15.055 51.7161 15.248 51.4047 15.3623C51.096 15.474 50.728 15.4877 50.4152 15.3348C50.2554 15.2645 50.1148 15.157 49.9991 15.0302C49.8806 14.9048 49.7841 14.7615 49.7097 14.6086C49.5553 14.304 49.4727 13.9678 49.4547 13.626C49.4341 13.2843 49.5154 12.9218 49.6794 12.6118C49.842 12.3003 50.079 12.0371 50.3449 11.8222C50.8796 11.3908 51.5204 11.1263 52.1915 11.0009C52.5291 10.9361 52.8805 10.9361 53.2237 10.9692C53.5682 11.005 53.9017 11.1028 54.2227 11.2213C54.5411 11.3495 54.8429 11.5149 55.1281 11.705C55.4051 11.9049 55.6697 12.1226 55.9026 12.3734C56.1355 12.6242 56.3504 12.8929 56.5227 13.1892C56.6963 13.4841 56.8507 13.7955 56.9485 14.129C57.1635 14.7863 57.2076 15.4988 57.0973 16.1768C56.9802 16.8548 56.7239 17.4955 56.3821 18.0771C56.2085 18.3692 56.0238 18.6435 55.791 18.9122L55.4299 19.276L55.0317 19.5998C53.9251 20.4032 52.5429 20.7587 51.209 20.665C50.5406 20.6196 49.8792 20.4707 49.2673 20.2061C48.6541 19.9402 48.0891 19.5654 47.6178 19.0982C46.6835 18.1487 46.1433 16.8823 46 15.6035C46.2742 16.8589 46.8847 18.0454 47.8218 18.8832C48.7588 19.7169 49.9963 20.1565 51.2324 20.1924C52.4658 20.2268 53.7211 19.8823 54.6899 19.1395L55.0372 18.8488L55.3527 18.5236C55.5415 18.3045 55.7193 18.0412 55.8709 17.778C56.1782 17.2489 56.4014 16.6701 56.5006 16.0775C56.5999 15.485 56.5654 14.8773 56.3849 14.3081C56.2154 13.7349 55.8847 13.2112 55.4837 12.762C54.6816 11.8607 53.4607 11.2971 52.2646 11.4653C51.6679 11.5521 51.0753 11.7794 50.5861 12.1336C50.3436 12.3114 50.1314 12.5277 49.9812 12.7813C49.8337 13.0335 49.751 13.3187 49.751 13.6205C49.7455 13.9209 49.802 14.231 49.9205 14.5093C49.9784 14.6499 50.0556 14.7822 50.152 14.8966C50.2444 15.0137 50.3587 15.1157 50.4896 15.186C50.7487 15.3403 51.0767 15.3568 51.3771 15.2755C51.6816 15.1956 51.9669 15.033 52.2136 14.8263Z" fill="white"/>
<path d="M94.7848 14.8264C95.0316 15.033 95.3175 15.1957 95.6215 15.2756C95.9224 15.3568 96.249 15.3403 96.5093 15.186C96.6417 15.1158 96.7546 15.0137 96.8479 14.8967C96.9427 14.7823 97.0195 14.6499 97.0782 14.5093C97.197 14.2311 97.2527 13.9209 97.2467 13.6205C97.2467 13.3188 97.1654 13.0335 97.018 12.7813C96.869 12.5277 96.6553 12.3113 96.4115 12.1336C95.9239 11.7794 95.331 11.5521 94.7336 11.4653C93.5388 11.2971 92.3168 11.8608 91.5147 12.762C91.113 13.2112 90.7834 13.7349 90.6133 14.3081C90.4328 14.8772 90.3997 15.485 90.499 16.0775C90.5983 16.6701 90.8195 17.2489 91.128 17.7781C91.28 18.0413 91.4576 18.3045 91.6457 18.5236L91.9632 18.8488L92.3093 19.1396C93.2769 19.8824 94.5335 20.2268 95.7674 20.1923C97.0029 20.1565 98.2399 19.717 99.1759 18.8833C100.113 18.0454 100.724 16.859 101 15.6035C100.857 16.8823 100.317 18.1488 99.3821 19.0982C98.9111 19.5654 98.3437 19.9403 97.7328 20.2062C97.1188 20.4707 96.4582 20.6196 95.79 20.665C94.4552 20.7588 93.0738 20.4032 91.9662 19.5997L91.5704 19.2759L91.2093 18.9122C90.976 18.6434 90.7909 18.3692 90.6179 18.0771C90.2747 17.4955 90.0174 16.8548 89.9016 16.1768C89.7917 15.4987 89.8368 14.7863 90.0505 14.129C90.1484 13.7956 90.3018 13.4841 90.4764 13.1893C90.648 12.893 90.8647 12.6242 91.0964 12.3733C91.3282 12.1226 91.5945 11.9049 91.8714 11.705C92.1573 11.5148 92.4568 11.3494 92.7773 11.2214C93.0978 11.1028 93.4319 11.005 93.7765 10.9692C94.1181 10.9361 94.4688 10.9361 94.8073 11.0009C95.48 11.1263 96.1181 11.3908 96.6553 11.8221C96.9201 12.0371 97.1564 12.3003 97.3204 12.6118C97.483 12.9218 97.5642 13.2844 97.5431 13.626C97.5266 13.9677 97.4423 14.304 97.2903 14.6086C97.2136 14.7615 97.1173 14.9048 96.9999 15.0303C96.884 15.157 96.7426 15.2646 96.5846 15.3349C96.27 15.4878 95.9029 15.4739 95.5944 15.3624C95.2844 15.248 95.012 15.0551 94.7848 14.8264Z" fill="white"/>
<path d="M112.808 4.93315C112.558 4.69613 112.261 4.51147 111.947 4.42328C111.634 4.33233 111.302 4.36265 111.059 4.53903C110.573 4.88906 110.381 5.62769 110.524 6.17477C110.559 6.31119 110.63 6.42144 110.717 6.52617C110.81 6.62814 110.927 6.72047 111.058 6.8059C111.321 6.9754 111.631 7.11872 111.938 7.26342C112.557 7.55694 113.181 7.86699 113.788 8.20461C114.393 8.55739 114.974 8.90603 115.56 9.28775C115.849 9.48343 116.137 9.68738 116.411 9.91752C116.686 10.1476 116.954 10.4067 117.151 10.7374C117.35 11.0654 117.468 11.4595 117.435 11.8454C117.406 12.2271 117.273 12.5799 117.093 12.8899C116.726 13.5101 116.205 13.991 115.644 14.3906C116.115 13.8918 116.563 13.3612 116.828 12.7549C116.963 12.4572 117.047 12.1389 117.038 11.8344C117.034 11.5298 116.93 11.2418 116.756 10.9951C116.392 10.5018 115.82 10.1242 115.25 9.77144C114.676 9.41729 114.078 9.06451 113.49 8.73102C112.903 8.39203 112.298 8.09024 111.683 7.77605C111.379 7.61344 111.067 7.45772 110.76 7.24275C110.608 7.13388 110.455 7.01123 110.327 6.84725C110.203 6.68188 110.104 6.4862 110.067 6.28501C109.988 5.88813 110.045 5.50091 110.185 5.14951C110.329 4.80362 110.562 4.47703 110.906 4.28686C111.255 4.09393 111.678 4.11598 112.003 4.26619C112.337 4.41226 112.604 4.65479 112.808 4.93315Z" fill="white"/>
<path d="M106.977 12.6592C107.291 13.1953 107.715 13.6886 108.265 13.9711C108.535 14.1158 108.837 14.1944 109.14 14.1985C109.444 14.1971 109.745 14.1393 110.026 14.0235C110.586 13.7865 111.074 13.3827 111.443 12.9018C111.817 12.425 112.092 11.8559 112.167 11.2716C112.249 10.6873 112.058 10.0961 111.741 9.59173C111.422 9.08324 110.986 8.65053 110.502 8.2826C109.53 7.55637 108.362 7.07131 107.166 6.93626C106.569 6.87149 105.967 6.91559 105.382 7.05615C105.086 7.10713 104.806 7.22427 104.52 7.31108L104.105 7.49299C104.037 7.52468 103.967 7.55224 103.9 7.58532L103.703 7.69693C103.165 7.97254 102.687 8.35013 102.236 8.74838C102.021 8.96197 101.8 9.1673 101.614 9.40433C101.408 9.62619 101.244 9.87975 101.069 10.125C100.755 10.6349 100.463 11.1668 100.296 11.7415L100.224 11.9537C100.204 12.0254 100.191 12.0998 100.173 12.1714L100.078 12.6083L100.033 13.0506C100.026 13.125 100.014 13.1994 100.012 13.2725L100.016 13.4957C99.9985 14.0896 100.114 14.6794 100.307 15.2362C100.511 15.7901 100.806 16.311 101.182 16.7741C101.929 17.7056 102.941 18.4263 104.032 18.9596C104.579 19.227 105.15 19.4516 105.734 19.6307C106.318 19.8057 106.912 19.9477 107.516 20.0014C108.719 20.1392 109.953 20.0331 111.133 19.7217C112.311 19.4047 113.437 18.8811 114.438 18.181C115.437 17.4782 116.306 16.5853 116.95 15.5435C117.593 14.5044 118.001 13.3193 118.138 12.097C118.28 10.8747 118.12 9.62343 117.766 8.43418C117.585 7.84025 117.348 7.26286 117.075 6.70337C116.801 6.14251 116.487 5.60094 116.12 5.09244C116.899 6.07361 117.502 7.19533 117.918 8.38458C117.974 8.53341 118.014 8.68637 118.06 8.83657C118.107 8.98678 118.153 9.13836 118.184 9.2927L118.291 9.75572L118.364 10.2243C118.424 10.5371 118.424 10.8554 118.453 11.171C118.463 11.3294 118.45 11.4893 118.45 11.6478C118.443 11.8062 118.455 11.9661 118.434 12.1246C118.326 13.3937 117.925 14.6395 117.278 15.7405C116.63 16.8443 115.74 17.8007 114.71 18.5586C112.652 20.0827 110.024 20.8296 107.454 20.5706C106.807 20.5223 106.178 20.3694 105.564 20.1902C104.95 20.0042 104.35 19.7713 103.773 19.4929C102.621 18.9321 101.535 18.1755 100.71 17.1516C100.299 16.6418 99.9695 16.0589 99.7435 15.4374C99.5286 14.8131 99.4045 14.153 99.4238 13.4943L99.4225 13.2477C99.4238 13.1664 99.4376 13.0851 99.4445 13.0024L99.4982 12.5118L99.6044 12.0322C99.6236 11.9537 99.6388 11.8724 99.6609 11.7938L99.7394 11.561C99.9282 10.9326 100.244 10.3552 100.592 9.80947C100.783 9.54626 100.966 9.27617 101.188 9.03915C101.392 8.78559 101.631 8.56786 101.864 8.34186C102.354 7.9188 102.872 7.52192 103.452 7.23116L103.665 7.11403C103.738 7.07957 103.814 7.04926 103.889 7.01618L104.337 6.82602C104.648 6.73369 104.951 6.61104 105.275 6.56281C105.909 6.42501 106.574 6.39056 107.221 6.476C108.511 6.65239 109.722 7.18982 110.736 7.98081C111.238 8.3832 111.695 8.85449 112.03 9.41535C112.364 9.96932 112.573 10.6473 112.459 11.3115C112.402 11.6367 112.303 11.9523 112.151 12.2389C112.005 12.5283 111.83 12.7998 111.621 13.0451C111.212 13.5384 110.687 13.9422 110.084 14.171C109.783 14.2853 109.457 14.3349 109.136 14.3239C108.812 14.3088 108.495 14.2137 108.221 14.0511C107.664 13.73 107.266 13.2105 106.977 12.6592Z" fill="white"/>
<path d="M126.18 4.93705C126.383 4.65858 126.651 4.41609 126.984 4.27009C127.309 4.11977 127.733 4.09774 128.083 4.29073C128.426 4.48093 128.659 4.80751 128.804 5.15333C128.944 5.50486 129.001 5.89196 128.921 6.28882C128.884 6.49003 128.785 6.68581 128.662 6.85119C128.534 7.01504 128.379 7.13775 128.228 7.24665C127.921 7.46154 127.611 7.61729 127.304 7.77988C126.692 8.09405 126.085 8.39595 125.498 8.73493C124.911 9.06834 124.311 9.42113 123.738 9.77532C123.168 10.1281 122.596 10.5057 122.234 10.9991C122.058 11.2458 121.953 11.5337 121.949 11.8382C121.942 12.1428 122.026 12.4611 122.16 12.7589C122.425 13.3652 122.872 13.8957 123.344 14.3945C122.784 13.9949 122.263 13.5139 121.896 12.8938C121.716 12.5839 121.582 12.2309 121.552 11.8493C121.521 11.4634 121.64 11.0692 121.836 10.7414C122.033 10.4106 122.302 10.1515 122.577 9.92132C122.851 9.69124 123.139 9.48723 123.429 9.29159C124.016 8.90993 124.597 8.56119 125.2 8.20854C125.806 7.87094 126.432 7.56082 127.05 7.26729C127.357 7.12255 127.666 6.9792 127.93 6.80978C128.061 6.7243 128.179 6.63199 128.27 6.53005C128.357 6.42533 128.429 6.31503 128.464 6.17866C128.608 5.63162 128.415 4.89285 127.93 4.54284C127.687 4.36645 127.355 4.33619 127.042 4.4271C126.726 4.51537 126.431 4.7 126.18 4.93705Z" fill="white"/>
<path d="M132.014 12.6592C131.725 13.2104 131.326 13.7299 130.77 14.051C130.496 14.2136 130.178 14.3087 129.857 14.3239C129.534 14.3348 129.21 14.2852 128.907 14.1708C128.304 13.9421 127.779 13.5383 127.371 13.045C127.161 12.7997 126.986 12.5283 126.84 12.2389C126.688 11.9523 126.589 11.6366 126.532 11.3115C126.418 10.6472 126.627 9.96927 126.961 9.4153C127.297 8.85446 127.754 8.38309 128.254 7.98074C129.269 7.18976 130.48 6.65228 131.77 6.47584C132.417 6.39047 133.082 6.4249 133.715 6.56267C134.039 6.61097 134.343 6.73356 134.654 6.82594L135.103 7.0161C135.176 7.04923 135.252 7.07943 135.325 7.11402L135.54 7.23106C136.119 7.52177 136.637 7.91871 137.126 8.34179C137.359 8.56784 137.6 8.78558 137.805 9.03908C138.025 9.27608 138.209 9.5462 138.398 9.80947C138.747 10.3551 139.064 10.9325 139.252 11.5609L139.33 11.7938C139.353 11.8723 139.367 11.9536 139.386 12.0321L139.493 12.5118L139.547 13.0023C139.553 13.085 139.567 13.1663 139.569 13.2476L139.567 13.4942C139.586 14.153 139.462 14.8131 139.248 15.4372C139.023 16.0588 138.693 16.6417 138.282 17.1516C137.457 18.1754 136.37 18.932 135.218 19.4928C134.641 19.7713 134.041 20.004 133.428 20.1901C132.813 20.3693 132.183 20.5223 131.538 20.5706C128.968 20.8296 126.34 20.0827 124.282 18.5585C123.253 17.8007 122.363 16.8442 121.715 15.7405C121.066 14.6394 120.666 13.3937 120.559 12.1245C120.536 11.966 120.547 11.8062 120.54 11.6477C120.54 11.4892 120.53 11.3294 120.539 11.1709C120.566 10.8553 120.568 10.537 120.628 10.2242L120.701 9.75562L120.806 9.29271C120.839 9.13831 120.883 8.98668 120.93 8.83651C120.979 8.68634 121.017 8.5334 121.073 8.38455C121.489 7.19531 122.091 6.07349 122.871 5.09235C122.504 5.6008 122.191 6.14237 121.916 6.70335C121.643 7.26273 121.406 7.8402 121.226 8.43417C120.871 9.62326 120.711 10.8747 120.854 12.097C120.99 13.3193 121.398 14.5044 122.042 15.5435C122.685 16.5852 123.554 17.4782 124.553 18.181C125.553 18.8811 126.68 19.4047 127.857 19.7217C129.038 20.0331 130.273 20.1392 131.475 20.0014C132.079 19.9477 132.673 19.8057 133.257 19.6307C133.841 19.4515 134.411 19.2269 134.959 18.9596C136.052 18.4263 137.062 17.7055 137.809 16.774C138.185 16.311 138.48 15.7901 138.684 15.2361C138.877 14.6794 138.992 14.0895 138.976 13.4957L138.981 13.2724C138.979 13.1994 138.965 13.125 138.959 13.0506L138.914 12.6083L138.817 12.1713C138.801 12.0997 138.787 12.0252 138.768 11.9536L138.696 11.7414C138.528 11.1668 138.236 10.6349 137.921 10.125C137.748 9.87967 137.583 9.62617 137.377 9.4042C137.192 9.1672 136.97 8.96187 136.755 8.74822C136.306 8.35011 135.826 7.97242 135.29 7.69689L135.092 7.58525C135.024 7.55212 134.954 7.52469 134.886 7.49287L134.473 7.31104C134.185 7.2242 133.905 7.10701 133.61 7.05608C133.024 6.91554 132.422 6.87133 131.825 6.93612C130.629 7.07126 129.46 7.55621 128.489 8.28253C128.006 8.65044 127.568 9.08314 127.25 9.59173C126.934 10.0959 126.742 10.6873 126.824 11.2715C126.9 11.8558 127.174 12.425 127.548 12.9017C127.919 13.3826 128.405 13.7864 128.967 14.0234C129.245 14.1393 129.549 14.1971 129.851 14.1985C130.154 14.1943 130.455 14.1158 130.727 13.971C131.277 13.6885 131.7 13.1952 132.014 12.6592Z" fill="white"/>
<path d="M98.2136 14.8263C97.9876 15.055 97.7161 15.248 97.4047 15.3623C97.096 15.474 96.728 15.4877 96.4152 15.3348C96.2554 15.2645 96.1148 15.157 95.9991 15.0302C95.8806 14.9048 95.7841 14.7615 95.7097 14.6086C95.5553 14.304 95.4727 13.9678 95.4547 13.626C95.4341 13.2843 95.5154 12.9218 95.6794 12.6118C95.842 12.3003 96.079 12.0371 96.3449 11.8222C96.8796 11.3908 97.5204 11.1263 98.1915 11.0009C98.5291 10.9361 98.8805 10.9361 99.2237 10.9692C99.5682 11.005 99.9017 11.1028 100.223 11.2213C100.541 11.3495 100.843 11.5149 101.128 11.705C101.405 11.9049 101.67 12.1226 101.903 12.3734C102.135 12.6242 102.35 12.8929 102.523 13.1892C102.696 13.4841 102.851 13.7955 102.949 14.129C103.163 14.7863 103.208 15.4988 103.097 16.1768C102.98 16.8548 102.724 17.4955 102.382 18.0771C102.209 18.3692 102.024 18.6435 101.791 18.9122L101.43 19.276L101.032 19.5998C99.9251 20.4032 98.5429 20.7587 97.209 20.665C96.5406 20.6196 95.8792 20.4707 95.2673 20.2061C94.6541 19.9402 94.0891 19.5654 93.6178 19.0982C92.6835 18.1487 92.1433 16.8823 92 15.6035C92.2742 16.8589 92.8847 18.0454 93.8218 18.8832C94.7588 19.7169 95.9963 20.1565 97.2324 20.1924C98.4658 20.2268 99.7211 19.8823 100.69 19.1395L101.037 18.8488L101.353 18.5236C101.542 18.3045 101.719 18.0412 101.871 17.778C102.178 17.2489 102.401 16.6701 102.501 16.0775C102.6 15.485 102.565 14.8773 102.385 14.3081C102.215 13.7349 101.885 13.2112 101.484 12.762C100.682 11.8607 99.4607 11.2971 98.2646 11.4653C97.6679 11.5521 97.0753 11.7794 96.5861 12.1336C96.3436 12.3114 96.1314 12.5277 95.9812 12.7813C95.8337 13.0335 95.751 13.3187 95.751 13.6205C95.7455 13.9209 95.802 14.231 95.9205 14.5093C95.9784 14.6499 96.0556 14.7822 96.152 14.8966C96.2444 15.0137 96.3587 15.1157 96.4896 15.186C96.7487 15.3403 97.0767 15.3568 97.3771 15.2755C97.6816 15.1956 97.9669 15.033 98.2136 14.8263Z" fill="white"/>
<path d="M140.785 14.8264C141.032 15.033 141.317 15.1957 141.621 15.2756C141.922 15.3568 142.249 15.3403 142.509 15.186C142.642 15.1158 142.755 15.0137 142.848 14.8967C142.943 14.7823 143.019 14.6499 143.078 14.5093C143.197 14.2311 143.253 13.9209 143.247 13.6205C143.247 13.3188 143.165 13.0335 143.018 12.7813C142.869 12.5277 142.655 12.3113 142.412 12.1336C141.924 11.7794 141.331 11.5521 140.734 11.4653C139.539 11.2971 138.317 11.8608 137.515 12.762C137.113 13.2112 136.783 13.7349 136.613 14.3081C136.433 14.8772 136.4 15.485 136.499 16.0775C136.598 16.6701 136.82 17.2489 137.128 17.7781C137.28 18.0413 137.458 18.3045 137.646 18.5236L137.963 18.8488L138.309 19.1396C139.277 19.8824 140.533 20.2268 141.767 20.1923C143.003 20.1565 144.24 19.717 145.176 18.8833C146.113 18.0454 146.724 16.859 147 15.6035C146.857 16.8823 146.317 18.1488 145.382 19.0982C144.911 19.5654 144.344 19.9403 143.733 20.2062C143.119 20.4707 142.458 20.6196 141.79 20.665C140.455 20.7588 139.074 20.4032 137.966 19.5997L137.57 19.2759L137.209 18.9122C136.976 18.6434 136.791 18.3692 136.618 18.0771C136.275 17.4955 136.017 16.8548 135.902 16.1768C135.792 15.4987 135.837 14.7863 136.051 14.129C136.148 13.7956 136.302 13.4841 136.476 13.1893C136.648 12.893 136.865 12.6242 137.096 12.3733C137.328 12.1226 137.595 11.9049 137.871 11.705C138.157 11.5148 138.457 11.3494 138.777 11.2214C139.098 11.1028 139.432 11.005 139.777 10.9692C140.118 10.9361 140.469 10.9361 140.807 11.0009C141.48 11.1263 142.118 11.3908 142.655 11.8221C142.92 12.0371 143.156 12.3003 143.32 12.6118C143.483 12.9218 143.564 13.2844 143.543 13.626C143.527 13.9677 143.442 14.304 143.29 14.6086C143.214 14.7615 143.117 14.9048 143 15.0303C142.884 15.157 142.743 15.2646 142.585 15.3349C142.27 15.4878 141.903 15.4739 141.594 15.3624C141.284 15.248 141.012 15.0551 140.785 14.8264Z" fill="white"/>
<path d="M158.808 4.93315C158.558 4.69613 158.261 4.51147 157.947 4.42328C157.634 4.33233 157.302 4.36265 157.059 4.53903C156.573 4.88906 156.381 5.62769 156.524 6.17477C156.559 6.31119 156.63 6.42144 156.717 6.52617C156.81 6.62814 156.927 6.72047 157.058 6.8059C157.321 6.9754 157.631 7.11872 157.938 7.26342C158.557 7.55694 159.181 7.86699 159.788 8.20461C160.393 8.55739 160.974 8.90603 161.56 9.28775C161.849 9.48343 162.137 9.68738 162.411 9.91752C162.686 10.1476 162.954 10.4067 163.151 10.7374C163.35 11.0654 163.468 11.4595 163.435 11.8454C163.406 12.2271 163.273 12.5799 163.093 12.8899C162.726 13.5101 162.205 13.991 161.644 14.3906C162.115 13.8918 162.563 13.3612 162.828 12.7549C162.963 12.4572 163.047 12.1389 163.038 11.8344C163.034 11.5298 162.93 11.2418 162.756 10.9951C162.392 10.5018 161.82 10.1242 161.25 9.77144C160.676 9.41729 160.078 9.06451 159.49 8.73102C158.903 8.39203 158.298 8.09024 157.683 7.77605C157.379 7.61344 157.067 7.45772 156.76 7.24275C156.608 7.13388 156.455 7.01123 156.327 6.84725C156.203 6.68188 156.104 6.4862 156.067 6.28501C155.988 5.88813 156.045 5.50091 156.185 5.14951C156.329 4.80362 156.562 4.47703 156.906 4.28686C157.255 4.09393 157.678 4.11598 158.003 4.26619C158.337 4.41226 158.604 4.65479 158.808 4.93315Z" fill="white"/>
<path d="M152.977 12.6592C153.291 13.1953 153.715 13.6886 154.265 13.9711C154.535 14.1158 154.837 14.1944 155.14 14.1985C155.444 14.1971 155.745 14.1393 156.026 14.0235C156.586 13.7865 157.074 13.3827 157.443 12.9018C157.817 12.425 158.092 11.8559 158.167 11.2716C158.249 10.6873 158.058 10.0961 157.741 9.59173C157.422 9.08324 156.986 8.65053 156.502 8.2826C155.53 7.55637 154.362 7.07131 153.166 6.93626C152.569 6.87149 151.967 6.91559 151.382 7.05615C151.086 7.10713 150.806 7.22427 150.52 7.31108L150.105 7.49299C150.037 7.52468 149.967 7.55224 149.9 7.58532L149.703 7.69693C149.165 7.97254 148.687 8.35013 148.236 8.74838C148.021 8.96197 147.8 9.1673 147.614 9.40433C147.408 9.62619 147.244 9.87975 147.069 10.125C146.755 10.6349 146.463 11.1668 146.296 11.7415L146.224 11.9537C146.204 12.0254 146.191 12.0998 146.173 12.1714L146.078 12.6083L146.033 13.0506C146.026 13.125 146.014 13.1994 146.012 13.2725L146.016 13.4957C145.998 14.0896 146.114 14.6794 146.307 15.2362C146.511 15.7901 146.806 16.311 147.182 16.7741C147.929 17.7056 148.941 18.4263 150.032 18.9596C150.579 19.227 151.15 19.4516 151.734 19.6307C152.318 19.8057 152.912 19.9477 153.516 20.0014C154.719 20.1392 155.953 20.0331 157.133 19.7217C158.311 19.4047 159.437 18.8811 160.438 18.181C161.437 17.4782 162.306 16.5853 162.95 15.5435C163.593 14.5044 164.001 13.3193 164.138 12.097C164.28 10.8747 164.12 9.62343 163.766 8.43418C163.585 7.84025 163.348 7.26286 163.075 6.70337C162.801 6.14251 162.487 5.60094 162.12 5.09244C162.899 6.07361 163.502 7.19533 163.918 8.38458C163.974 8.53341 164.014 8.68637 164.06 8.83657C164.107 8.98678 164.153 9.13836 164.184 9.2927L164.291 9.75572L164.364 10.2243C164.424 10.5371 164.424 10.8554 164.453 11.171C164.463 11.3294 164.45 11.4893 164.45 11.6478C164.443 11.8062 164.455 11.9661 164.434 12.1246C164.326 13.3937 163.925 14.6395 163.278 15.7405C162.63 16.8443 161.74 17.8007 160.71 18.5586C158.652 20.0827 156.024 20.8296 153.454 20.5706C152.807 20.5223 152.178 20.3694 151.564 20.1902C150.95 20.0042 150.35 19.7713 149.773 19.4929C148.621 18.9321 147.535 18.1755 146.71 17.1516C146.299 16.6418 145.97 16.0589 145.744 15.4374C145.529 14.8131 145.405 14.153 145.424 13.4943L145.422 13.2477C145.424 13.1664 145.438 13.0851 145.445 13.0024L145.498 12.5118L145.604 12.0322C145.624 11.9537 145.639 11.8724 145.661 11.7938L145.739 11.561C145.928 10.9326 146.244 10.3552 146.592 9.80947C146.783 9.54626 146.966 9.27617 147.188 9.03915C147.392 8.78559 147.631 8.56786 147.864 8.34186C148.354 7.9188 148.872 7.52192 149.452 7.23116L149.665 7.11403C149.738 7.07957 149.814 7.04926 149.889 7.01618L150.337 6.82602C150.648 6.73369 150.951 6.61104 151.275 6.56281C151.909 6.42501 152.574 6.39056 153.221 6.476C154.511 6.65239 155.722 7.18982 156.736 7.98081C157.238 8.3832 157.695 8.85449 158.03 9.41535C158.364 9.96932 158.573 10.6473 158.459 11.3115C158.402 11.6367 158.303 11.9523 158.151 12.2389C158.005 12.5283 157.83 12.7998 157.621 13.0451C157.212 13.5384 156.687 13.9422 156.084 14.171C155.783 14.2853 155.457 14.3349 155.136 14.3239C154.812 14.3088 154.495 14.2137 154.221 14.0511C153.664 13.73 153.266 13.2105 152.977 12.6592Z" fill="white"/>
<path d="M172.18 4.93705C172.383 4.65858 172.651 4.41609 172.984 4.27009C173.309 4.11977 173.733 4.09774 174.083 4.29073C174.426 4.48093 174.659 4.80751 174.804 5.15333C174.944 5.50486 175.001 5.89196 174.921 6.28882C174.884 6.49003 174.785 6.68581 174.662 6.85119C174.534 7.01504 174.379 7.13775 174.228 7.24665C173.921 7.46154 173.611 7.61729 173.304 7.77988C172.692 8.09405 172.085 8.39595 171.498 8.73493C170.911 9.06834 170.311 9.42113 169.738 9.77532C169.168 10.1281 168.596 10.5057 168.234 10.9991C168.058 11.2458 167.953 11.5337 167.949 11.8382C167.942 12.1428 168.026 12.4611 168.16 12.7589C168.425 13.3652 168.872 13.8957 169.344 14.3945C168.784 13.9949 168.263 13.5139 167.896 12.8938C167.716 12.5839 167.582 12.2309 167.552 11.8493C167.521 11.4634 167.64 11.0692 167.836 10.7414C168.033 10.4106 168.302 10.1515 168.577 9.92132C168.851 9.69124 169.139 9.48723 169.429 9.29159C170.016 8.90993 170.597 8.56119 171.2 8.20854C171.806 7.87094 172.432 7.56082 173.05 7.26729C173.357 7.12255 173.666 6.9792 173.93 6.80978C174.061 6.7243 174.179 6.63199 174.27 6.53005C174.357 6.42533 174.429 6.31503 174.464 6.17866C174.608 5.63162 174.415 4.89285 173.93 4.54284C173.687 4.36645 173.355 4.33619 173.042 4.4271C172.726 4.51537 172.431 4.7 172.18 4.93705Z" fill="white"/>
<path d="M178.014 12.6592C177.725 13.2104 177.326 13.7299 176.77 14.051C176.496 14.2136 176.178 14.3087 175.857 14.3239C175.534 14.3348 175.21 14.2852 174.907 14.1708C174.304 13.9421 173.779 13.5383 173.371 13.045C173.161 12.7997 172.986 12.5283 172.84 12.2389C172.688 11.9523 172.589 11.6366 172.532 11.3115C172.418 10.6472 172.627 9.96927 172.961 9.4153C173.297 8.85446 173.754 8.38309 174.254 7.98074C175.269 7.18976 176.48 6.65228 177.77 6.47584C178.417 6.39047 179.082 6.4249 179.715 6.56267C180.039 6.61097 180.343 6.73356 180.654 6.82594L181.103 7.0161C181.176 7.04923 181.252 7.07943 181.325 7.11402L181.54 7.23106C182.119 7.52177 182.637 7.91871 183.126 8.34179C183.359 8.56784 183.6 8.78558 183.805 9.03908C184.025 9.27608 184.209 9.5462 184.398 9.80947C184.747 10.3551 185.064 10.9325 185.252 11.5609L185.33 11.7938C185.353 11.8723 185.367 11.9536 185.386 12.0321L185.493 12.5118L185.547 13.0023C185.553 13.085 185.567 13.1663 185.569 13.2476L185.567 13.4942C185.586 14.153 185.462 14.8131 185.248 15.4372C185.023 16.0588 184.693 16.6417 184.282 17.1516C183.457 18.1754 182.37 18.932 181.218 19.4928C180.641 19.7713 180.041 20.004 179.428 20.1901C178.813 20.3693 178.183 20.5223 177.538 20.5706C174.968 20.8296 172.34 20.0827 170.282 18.5585C169.253 17.8007 168.363 16.8442 167.715 15.7405C167.066 14.6394 166.666 13.3937 166.559 12.1245C166.536 11.966 166.547 11.8062 166.54 11.6477C166.54 11.4892 166.53 11.3294 166.539 11.1709C166.566 10.8553 166.568 10.537 166.628 10.2242L166.701 9.75562L166.806 9.29271C166.839 9.13831 166.883 8.98668 166.93 8.83651C166.979 8.68634 167.017 8.5334 167.073 8.38455C167.489 7.19531 168.091 6.07349 168.871 5.09235C168.504 5.6008 168.191 6.14237 167.916 6.70335C167.643 7.26273 167.406 7.8402 167.226 8.43417C166.871 9.62326 166.711 10.8747 166.854 12.097C166.99 13.3193 167.398 14.5044 168.042 15.5435C168.685 16.5852 169.554 17.4782 170.553 18.181C171.553 18.8811 172.68 19.4047 173.857 19.7217C175.038 20.0331 176.273 20.1392 177.475 20.0014C178.079 19.9477 178.673 19.8057 179.257 19.6307C179.841 19.4515 180.411 19.2269 180.959 18.9596C182.052 18.4263 183.062 17.7055 183.809 16.774C184.185 16.311 184.48 15.7901 184.684 15.2361C184.877 14.6794 184.992 14.0895 184.976 13.4957L184.981 13.2724C184.979 13.1994 184.965 13.125 184.959 13.0506L184.914 12.6083L184.817 12.1713C184.801 12.0997 184.787 12.0252 184.768 11.9536L184.696 11.7414C184.528 11.1668 184.236 10.6349 183.921 10.125C183.748 9.87967 183.583 9.62617 183.377 9.4042C183.192 9.1672 182.97 8.96187 182.755 8.74822C182.306 8.35011 181.826 7.97242 181.29 7.69689L181.092 7.58525C181.024 7.55212 180.954 7.52469 180.886 7.49287L180.473 7.31104C180.185 7.2242 179.905 7.10701 179.61 7.05608C179.024 6.91554 178.422 6.87133 177.825 6.93612C176.629 7.07126 175.46 7.55621 174.489 8.28253C174.006 8.65044 173.568 9.08314 173.25 9.59173C172.934 10.0959 172.742 10.6873 172.824 11.2715C172.9 11.8558 173.174 12.425 173.548 12.9017C173.919 13.3826 174.405 13.7864 174.967 14.0234C175.245 14.1393 175.549 14.1971 175.851 14.1985C176.154 14.1943 176.455 14.1158 176.727 13.971C177.277 13.6885 177.7 13.1952 178.014 12.6592Z" fill="white"/>
<path d="M144.214 14.8263C143.988 15.055 143.716 15.248 143.405 15.3623C143.096 15.474 142.728 15.4877 142.415 15.3348C142.255 15.2645 142.115 15.157 141.999 15.0302C141.881 14.9048 141.784 14.7615 141.71 14.6086C141.555 14.304 141.473 13.9678 141.455 13.626C141.434 13.2843 141.515 12.9218 141.679 12.6118C141.842 12.3003 142.079 12.0371 142.345 11.8222C142.88 11.3908 143.52 11.1263 144.192 11.0009C144.529 10.9361 144.881 10.9361 145.224 10.9692C145.568 11.005 145.902 11.1028 146.223 11.2213C146.541 11.3495 146.843 11.5149 147.128 11.705C147.405 11.9049 147.67 12.1226 147.903 12.3734C148.135 12.6242 148.35 12.8929 148.523 13.1892C148.696 13.4841 148.851 13.7955 148.949 14.129C149.163 14.7863 149.208 15.4988 149.097 16.1768C148.98 16.8548 148.724 17.4955 148.382 18.0771C148.209 18.3692 148.024 18.6435 147.791 18.9122L147.43 19.276L147.032 19.5998C145.925 20.4032 144.543 20.7587 143.209 20.665C142.541 20.6196 141.879 20.4707 141.267 20.2061C140.654 19.9402 140.089 19.5654 139.618 19.0982C138.684 18.1487 138.143 16.8823 138 15.6035C138.274 16.8589 138.885 18.0454 139.822 18.8832C140.759 19.7169 141.996 20.1565 143.232 20.1924C144.466 20.2268 145.721 19.8823 146.69 19.1395L147.037 18.8488L147.353 18.5236C147.542 18.3045 147.719 18.0412 147.871 17.778C148.178 17.2489 148.401 16.6701 148.501 16.0775C148.6 15.485 148.565 14.8773 148.385 14.3081C148.215 13.7349 147.885 13.2112 147.484 12.762C146.682 11.8607 145.461 11.2971 144.265 11.4653C143.668 11.5521 143.075 11.7794 142.586 12.1336C142.344 12.3114 142.131 12.5277 141.981 12.7813C141.834 13.0335 141.751 13.3187 141.751 13.6205C141.746 13.9209 141.802 14.231 141.921 14.5093C141.978 14.6499 142.056 14.7822 142.152 14.8966C142.244 15.0137 142.359 15.1157 142.49 15.186C142.749 15.3403 143.077 15.3568 143.377 15.2755C143.682 15.1956 143.967 15.033 144.214 14.8263Z" fill="white"/>
<path d="M186.785 14.8264C187.032 15.033 187.317 15.1957 187.621 15.2756C187.922 15.3568 188.249 15.3403 188.509 15.186C188.642 15.1158 188.755 15.0137 188.848 14.8967C188.943 14.7823 189.019 14.6499 189.078 14.5093C189.197 14.2311 189.253 13.9209 189.247 13.6205C189.247 13.3188 189.165 13.0335 189.018 12.7813C188.869 12.5277 188.655 12.3113 188.412 12.1336C187.924 11.7794 187.331 11.5521 186.734 11.4653C185.539 11.2971 184.317 11.8608 183.515 12.762C183.113 13.2112 182.783 13.7349 182.613 14.3081C182.433 14.8772 182.4 15.485 182.499 16.0775C182.598 16.6701 182.82 17.2489 183.128 17.7781C183.28 18.0413 183.458 18.3045 183.646 18.5236L183.963 18.8488L184.309 19.1396C185.277 19.8824 186.533 20.2268 187.767 20.1923C189.003 20.1565 190.24 19.717 191.176 18.8833C192.113 18.0454 192.724 16.859 193 15.6035C192.857 16.8823 192.317 18.1488 191.382 19.0982C190.911 19.5654 190.344 19.9403 189.733 20.2062C189.119 20.4707 188.458 20.6196 187.79 20.665C186.455 20.7588 185.074 20.4032 183.966 19.5997L183.57 19.2759L183.209 18.9122C182.976 18.6434 182.791 18.3692 182.618 18.0771C182.275 17.4955 182.017 16.8548 181.902 16.1768C181.792 15.4987 181.837 14.7863 182.051 14.129C182.148 13.7956 182.302 13.4841 182.476 13.1893C182.648 12.893 182.865 12.6242 183.096 12.3733C183.328 12.1226 183.595 11.9049 183.871 11.705C184.157 11.5148 184.457 11.3494 184.777 11.2214C185.098 11.1028 185.432 11.005 185.777 10.9692C186.118 10.9361 186.469 10.9361 186.807 11.0009C187.48 11.1263 188.118 11.3908 188.655 11.8221C188.92 12.0371 189.156 12.3003 189.32 12.6118C189.483 12.9218 189.564 13.2844 189.543 13.626C189.527 13.9677 189.442 14.304 189.29 14.6086C189.214 14.7615 189.117 14.9048 189 15.0303C188.884 15.157 188.743 15.2646 188.585 15.3349C188.27 15.4878 187.903 15.4739 187.594 15.3624C187.284 15.248 187.012 15.0551 186.785 14.8264Z" fill="white"/>
<path d="M204.808 4.93315C204.558 4.69613 204.261 4.51147 203.947 4.42328C203.634 4.33233 203.302 4.36265 203.059 4.53903C202.573 4.88906 202.381 5.62769 202.524 6.17477C202.559 6.31119 202.63 6.42144 202.717 6.52617C202.81 6.62814 202.927 6.72047 203.058 6.8059C203.321 6.9754 203.631 7.11872 203.938 7.26342C204.557 7.55694 205.181 7.86699 205.788 8.20461C206.393 8.55739 206.974 8.90603 207.56 9.28775C207.849 9.48343 208.137 9.68738 208.411 9.91752C208.686 10.1476 208.954 10.4067 209.151 10.7374C209.35 11.0654 209.468 11.4595 209.435 11.8454C209.406 12.2271 209.273 12.5799 209.093 12.8899C208.726 13.5101 208.205 13.991 207.644 14.3906C208.115 13.8918 208.563 13.3612 208.828 12.7549C208.963 12.4572 209.047 12.1389 209.038 11.8344C209.034 11.5298 208.93 11.2418 208.756 10.9951C208.392 10.5018 207.82 10.1242 207.25 9.77144C206.676 9.41729 206.078 9.06451 205.49 8.73102C204.903 8.39203 204.298 8.09024 203.683 7.77605C203.379 7.61344 203.067 7.45772 202.76 7.24275C202.608 7.13388 202.455 7.01123 202.327 6.84725C202.203 6.68188 202.104 6.4862 202.067 6.28501C201.988 5.88813 202.045 5.50091 202.185 5.14951C202.329 4.80362 202.562 4.47703 202.906 4.28686C203.255 4.09393 203.678 4.11598 204.003 4.26619C204.337 4.41226 204.604 4.65479 204.808 4.93315Z" fill="white"/>
<path d="M198.977 12.6592C199.291 13.1953 199.715 13.6886 200.265 13.9711C200.535 14.1158 200.837 14.1944 201.14 14.1985C201.444 14.1971 201.745 14.1393 202.026 14.0235C202.586 13.7865 203.074 13.3827 203.443 12.9018C203.817 12.425 204.092 11.8559 204.167 11.2716C204.249 10.6873 204.058 10.0961 203.741 9.59173C203.422 9.08324 202.986 8.65053 202.502 8.2826C201.53 7.55637 200.362 7.07131 199.166 6.93626C198.569 6.87149 197.967 6.91559 197.382 7.05615C197.086 7.10713 196.806 7.22427 196.52 7.31108L196.105 7.49299C196.037 7.52468 195.967 7.55224 195.9 7.58532L195.703 7.69693C195.165 7.97254 194.687 8.35013 194.236 8.74838C194.021 8.96197 193.8 9.1673 193.614 9.40433C193.408 9.62619 193.244 9.87975 193.069 10.125C192.755 10.6349 192.463 11.1668 192.296 11.7415L192.224 11.9537C192.204 12.0254 192.191 12.0998 192.173 12.1714L192.078 12.6083L192.033 13.0506C192.026 13.125 192.014 13.1994 192.012 13.2725L192.016 13.4957C191.998 14.0896 192.114 14.6794 192.307 15.2362C192.511 15.7901 192.806 16.311 193.182 16.7741C193.929 17.7056 194.941 18.4263 196.032 18.9596C196.579 19.227 197.15 19.4516 197.734 19.6307C198.318 19.8057 198.912 19.9477 199.516 20.0014C200.719 20.1392 201.953 20.0331 203.133 19.7217C204.311 19.4047 205.437 18.8811 206.438 18.181C207.437 17.4782 208.306 16.5853 208.95 15.5435C209.593 14.5044 210.001 13.3193 210.138 12.097C210.28 10.8747 210.12 9.62343 209.766 8.43418C209.585 7.84025 209.348 7.26286 209.075 6.70337C208.801 6.14251 208.487 5.60094 208.12 5.09244C208.899 6.07361 209.502 7.19533 209.918 8.38458C209.974 8.53341 210.014 8.68637 210.06 8.83657C210.107 8.98678 210.153 9.13836 210.184 9.2927L210.291 9.75572L210.364 10.2243C210.424 10.5371 210.424 10.8554 210.453 11.171C210.463 11.3294 210.45 11.4893 210.45 11.6478C210.443 11.8062 210.455 11.9661 210.434 12.1246C210.326 13.3937 209.925 14.6395 209.278 15.7405C208.63 16.8443 207.74 17.8007 206.71 18.5586C204.652 20.0827 202.024 20.8296 199.454 20.5706C198.807 20.5223 198.178 20.3694 197.564 20.1902C196.95 20.0042 196.35 19.7713 195.773 19.4929C194.621 18.9321 193.535 18.1755 192.71 17.1516C192.299 16.6418 191.97 16.0589 191.744 15.4374C191.529 14.8131 191.405 14.153 191.424 13.4943L191.422 13.2477C191.424 13.1664 191.438 13.0851 191.445 13.0024L191.498 12.5118L191.604 12.0322C191.624 11.9537 191.639 11.8724 191.661 11.7938L191.739 11.561C191.928 10.9326 192.244 10.3552 192.592 9.80947C192.783 9.54626 192.966 9.27617 193.188 9.03915C193.392 8.78559 193.631 8.56786 193.864 8.34186C194.354 7.9188 194.872 7.52192 195.452 7.23116L195.665 7.11403C195.738 7.07957 195.814 7.04926 195.889 7.01618L196.337 6.82602C196.648 6.73369 196.951 6.61104 197.275 6.56281C197.909 6.42501 198.574 6.39056 199.221 6.476C200.511 6.65239 201.722 7.18982 202.736 7.98081C203.238 8.3832 203.695 8.85449 204.03 9.41535C204.364 9.96932 204.573 10.6473 204.459 11.3115C204.402 11.6367 204.303 11.9523 204.151 12.2389C204.005 12.5283 203.83 12.7998 203.621 13.0451C203.212 13.5384 202.687 13.9422 202.084 14.171C201.783 14.2853 201.457 14.3349 201.136 14.3239C200.812 14.3088 200.495 14.2137 200.221 14.0511C199.664 13.73 199.266 13.2105 198.977 12.6592Z" fill="white"/>
<path d="M218.18 4.93705C218.383 4.65858 218.651 4.41609 218.984 4.27009C219.309 4.11977 219.733 4.09774 220.083 4.29073C220.426 4.48093 220.659 4.80751 220.804 5.15333C220.944 5.50486 221.001 5.89196 220.921 6.28882C220.884 6.49003 220.785 6.68581 220.662 6.85119C220.534 7.01504 220.379 7.13775 220.228 7.24665C219.921 7.46154 219.611 7.61729 219.304 7.77988C218.692 8.09405 218.085 8.39595 217.498 8.73493C216.911 9.06834 216.311 9.42113 215.738 9.77532C215.168 10.1281 214.596 10.5057 214.234 10.9991C214.058 11.2458 213.953 11.5337 213.949 11.8382C213.942 12.1428 214.026 12.4611 214.16 12.7589C214.425 13.3652 214.872 13.8957 215.344 14.3945C214.784 13.9949 214.263 13.5139 213.896 12.8938C213.716 12.5839 213.582 12.2309 213.552 11.8493C213.521 11.4634 213.64 11.0692 213.836 10.7414C214.033 10.4106 214.302 10.1515 214.577 9.92132C214.851 9.69124 215.139 9.48723 215.429 9.29159C216.016 8.90993 216.597 8.56119 217.2 8.20854C217.806 7.87094 218.432 7.56082 219.05 7.26729C219.357 7.12255 219.666 6.9792 219.93 6.80978C220.061 6.7243 220.179 6.63199 220.27 6.53005C220.357 6.42533 220.429 6.31503 220.464 6.17866C220.608 5.63162 220.415 4.89285 219.93 4.54284C219.687 4.36645 219.355 4.33619 219.042 4.4271C218.726 4.51537 218.431 4.7 218.18 4.93705Z" fill="white"/>
<path d="M224.014 12.6592C223.725 13.2104 223.326 13.7299 222.77 14.051C222.496 14.2136 222.178 14.3087 221.857 14.3239C221.534 14.3348 221.21 14.2852 220.907 14.1708C220.304 13.9421 219.779 13.5383 219.371 13.045C219.161 12.7997 218.986 12.5283 218.84 12.2389C218.688 11.9523 218.589 11.6366 218.532 11.3115C218.418 10.6472 218.627 9.96927 218.961 9.4153C219.297 8.85446 219.754 8.38309 220.254 7.98074C221.269 7.18976 222.48 6.65228 223.77 6.47584C224.417 6.39047 225.082 6.4249 225.715 6.56267C226.039 6.61097 226.343 6.73356 226.654 6.82594L227.103 7.0161C227.176 7.04923 227.252 7.07943 227.325 7.11402L227.54 7.23106C228.119 7.52177 228.637 7.91871 229.126 8.34179C229.359 8.56784 229.6 8.78558 229.805 9.03908C230.025 9.27608 230.209 9.5462 230.398 9.80947C230.747 10.3551 231.064 10.9325 231.252 11.5609L231.33 11.7938C231.353 11.8723 231.367 11.9536 231.386 12.0321L231.493 12.5118L231.547 13.0023C231.553 13.085 231.567 13.1663 231.569 13.2476L231.567 13.4942C231.586 14.153 231.462 14.8131 231.248 15.4372C231.023 16.0588 230.693 16.6417 230.282 17.1516C229.457 18.1754 228.37 18.932 227.218 19.4928C226.641 19.7713 226.041 20.004 225.428 20.1901C224.813 20.3693 224.183 20.5223 223.538 20.5706C220.968 20.8296 218.34 20.0827 216.282 18.5585C215.253 17.8007 214.363 16.8442 213.715 15.7405C213.066 14.6394 212.666 13.3937 212.559 12.1245C212.536 11.966 212.547 11.8062 212.54 11.6477C212.54 11.4892 212.53 11.3294 212.539 11.1709C212.566 10.8553 212.568 10.537 212.628 10.2242L212.701 9.75562L212.806 9.29271C212.839 9.13831 212.883 8.98668 212.93 8.83651C212.979 8.68634 213.017 8.5334 213.073 8.38455C213.489 7.19531 214.091 6.07349 214.871 5.09235C214.504 5.6008 214.191 6.14237 213.916 6.70335C213.643 7.26273 213.406 7.8402 213.226 8.43417C212.871 9.62326 212.711 10.8747 212.854 12.097C212.99 13.3193 213.398 14.5044 214.042 15.5435C214.685 16.5852 215.554 17.4782 216.553 18.181C217.553 18.8811 218.68 19.4047 219.857 19.7217C221.038 20.0331 222.273 20.1392 223.475 20.0014C224.079 19.9477 224.673 19.8057 225.257 19.6307C225.841 19.4515 226.411 19.2269 226.959 18.9596C228.052 18.4263 229.062 17.7055 229.809 16.774C230.185 16.311 230.48 15.7901 230.684 15.2361C230.877 14.6794 230.992 14.0895 230.976 13.4957L230.981 13.2724C230.979 13.1994 230.965 13.125 230.959 13.0506L230.914 12.6083L230.817 12.1713C230.801 12.0997 230.787 12.0252 230.768 11.9536L230.696 11.7414C230.528 11.1668 230.236 10.6349 229.921 10.125C229.748 9.87967 229.583 9.62617 229.377 9.4042C229.192 9.1672 228.97 8.96187 228.755 8.74822C228.306 8.35011 227.826 7.97242 227.29 7.69689L227.092 7.58525C227.024 7.55212 226.954 7.52469 226.886 7.49287L226.473 7.31104C226.185 7.2242 225.905 7.10701 225.61 7.05608C225.024 6.91554 224.422 6.87133 223.825 6.93612C222.629 7.07126 221.46 7.55621 220.489 8.28253C220.006 8.65044 219.568 9.08314 219.25 9.59173C218.934 10.0959 218.742 10.6873 218.824 11.2715C218.9 11.8558 219.174 12.425 219.548 12.9017C219.919 13.3826 220.405 13.7864 220.967 14.0234C221.245 14.1393 221.549 14.1971 221.851 14.1985C222.154 14.1943 222.455 14.1158 222.727 13.971C223.277 13.6885 223.7 13.1952 224.014 12.6592Z" fill="white"/>
<path d="M190.214 14.8263C189.988 15.055 189.716 15.248 189.405 15.3623C189.096 15.474 188.728 15.4877 188.415 15.3348C188.255 15.2645 188.115 15.157 187.999 15.0302C187.881 14.9048 187.784 14.7615 187.71 14.6086C187.555 14.304 187.473 13.9678 187.455 13.626C187.434 13.2843 187.515 12.9218 187.679 12.6118C187.842 12.3003 188.079 12.0371 188.345 11.8222C188.88 11.3908 189.52 11.1263 190.192 11.0009C190.529 10.9361 190.881 10.9361 191.224 10.9692C191.568 11.005 191.902 11.1028 192.223 11.2213C192.541 11.3495 192.843 11.5149 193.128 11.705C193.405 11.9049 193.67 12.1226 193.903 12.3734C194.135 12.6242 194.35 12.8929 194.523 13.1892C194.696 13.4841 194.851 13.7955 194.949 14.129C195.163 14.7863 195.208 15.4988 195.097 16.1768C194.98 16.8548 194.724 17.4955 194.382 18.0771C194.209 18.3692 194.024 18.6435 193.791 18.9122L193.43 19.276L193.032 19.5998C191.925 20.4032 190.543 20.7587 189.209 20.665C188.541 20.6196 187.879 20.4707 187.267 20.2061C186.654 19.9402 186.089 19.5654 185.618 19.0982C184.684 18.1487 184.143 16.8823 184 15.6035C184.274 16.8589 184.885 18.0454 185.822 18.8832C186.759 19.7169 187.996 20.1565 189.232 20.1924C190.466 20.2268 191.721 19.8823 192.69 19.1395L193.037 18.8488L193.353 18.5236C193.542 18.3045 193.719 18.0412 193.871 17.778C194.178 17.2489 194.401 16.6701 194.501 16.0775C194.6 15.485 194.565 14.8773 194.385 14.3081C194.215 13.7349 193.885 13.2112 193.484 12.762C192.682 11.8607 191.461 11.2971 190.265 11.4653C189.668 11.5521 189.075 11.7794 188.586 12.1336C188.344 12.3114 188.131 12.5277 187.981 12.7813C187.834 13.0335 187.751 13.3187 187.751 13.6205C187.746 13.9209 187.802 14.231 187.921 14.5093C187.978 14.6499 188.056 14.7822 188.152 14.8966C188.244 15.0137 188.359 15.1157 188.49 15.186C188.749 15.3403 189.077 15.3568 189.377 15.2755C189.682 15.1956 189.967 15.033 190.214 14.8263Z" fill="white"/>
<path d="M232.785 14.8264C233.032 15.033 233.317 15.1957 233.621 15.2756C233.922 15.3568 234.249 15.3403 234.509 15.186C234.642 15.1158 234.755 15.0137 234.848 14.8967C234.943 14.7823 235.019 14.6499 235.078 14.5093C235.197 14.2311 235.253 13.9209 235.247 13.6205C235.247 13.3188 235.165 13.0335 235.018 12.7813C234.869 12.5277 234.655 12.3113 234.412 12.1336C233.924 11.7794 233.331 11.5521 232.734 11.4653C231.539 11.2971 230.317 11.8608 229.515 12.762C229.113 13.2112 228.783 13.7349 228.613 14.3081C228.433 14.8772 228.4 15.485 228.499 16.0775C228.598 16.6701 228.82 17.2489 229.128 17.7781C229.28 18.0413 229.458 18.3045 229.646 18.5236L229.963 18.8488L230.309 19.1396C231.277 19.8824 232.533 20.2268 233.767 20.1923C235.003 20.1565 236.24 19.717 237.176 18.8833C238.113 18.0454 238.724 16.859 239 15.6035C238.857 16.8823 238.317 18.1488 237.382 19.0982C236.911 19.5654 236.344 19.9403 235.733 20.2062C235.119 20.4707 234.458 20.6196 233.79 20.665C232.455 20.7588 231.074 20.4032 229.966 19.5997L229.57 19.2759L229.209 18.9122C228.976 18.6434 228.791 18.3692 228.618 18.0771C228.275 17.4955 228.017 16.8548 227.902 16.1768C227.792 15.4987 227.837 14.7863 228.051 14.129C228.148 13.7956 228.302 13.4841 228.476 13.1893C228.648 12.893 228.865 12.6242 229.096 12.3733C229.328 12.1226 229.595 11.9049 229.871 11.705C230.157 11.5148 230.457 11.3494 230.777 11.2214C231.098 11.1028 231.432 11.005 231.777 10.9692C232.118 10.9361 232.469 10.9361 232.807 11.0009C233.48 11.1263 234.118 11.3908 234.655 11.8221C234.92 12.0371 235.156 12.3003 235.32 12.6118C235.483 12.9218 235.564 13.2844 235.543 13.626C235.527 13.9677 235.442 14.304 235.29 14.6086C235.214 14.7615 235.117 14.9048 235 15.0303C234.884 15.157 234.743 15.2646 234.585 15.3349C234.27 15.4878 233.903 15.4739 233.594 15.3624C233.284 15.248 233.012 15.0551 232.785 14.8264Z" fill="white"/>
<path d="M250.808 4.93315C250.558 4.69613 250.261 4.51147 249.947 4.42328C249.634 4.33233 249.302 4.36265 249.059 4.53903C248.573 4.88906 248.381 5.62769 248.524 6.17477C248.559 6.31119 248.63 6.42144 248.717 6.52617C248.81 6.62814 248.927 6.72047 249.058 6.8059C249.321 6.9754 249.631 7.11872 249.938 7.26342C250.557 7.55694 251.181 7.86699 251.788 8.20461C252.393 8.55739 252.974 8.90603 253.56 9.28775C253.849 9.48343 254.137 9.68738 254.411 9.91752C254.686 10.1476 254.954 10.4067 255.151 10.7374C255.35 11.0654 255.468 11.4595 255.435 11.8454C255.406 12.2271 255.273 12.5799 255.093 12.8899C254.726 13.5101 254.205 13.991 253.644 14.3906C254.115 13.8918 254.563 13.3612 254.828 12.7549C254.963 12.4572 255.047 12.1389 255.038 11.8344C255.034 11.5298 254.93 11.2418 254.756 10.9951C254.392 10.5018 253.82 10.1242 253.25 9.77144C252.676 9.41729 252.078 9.06451 251.49 8.73102C250.903 8.39203 250.298 8.09024 249.683 7.77605C249.379 7.61344 249.067 7.45772 248.76 7.24275C248.608 7.13388 248.455 7.01123 248.327 6.84725C248.203 6.68188 248.104 6.4862 248.067 6.28501C247.988 5.88813 248.045 5.50091 248.185 5.14951C248.329 4.80362 248.562 4.47703 248.906 4.28686C249.255 4.09393 249.678 4.11598 250.003 4.26619C250.337 4.41226 250.604 4.65479 250.808 4.93315Z" fill="white"/>
<path d="M244.977 12.6592C245.291 13.1953 245.715 13.6886 246.265 13.9711C246.535 14.1158 246.837 14.1944 247.14 14.1985C247.444 14.1971 247.745 14.1393 248.026 14.0235C248.586 13.7865 249.074 13.3827 249.443 12.9018C249.817 12.425 250.092 11.8559 250.167 11.2716C250.249 10.6873 250.058 10.0961 249.741 9.59173C249.422 9.08324 248.986 8.65053 248.502 8.2826C247.53 7.55637 246.362 7.07131 245.166 6.93626C244.569 6.87149 243.967 6.91559 243.382 7.05615C243.086 7.10713 242.806 7.22427 242.52 7.31108L242.105 7.49299C242.037 7.52468 241.967 7.55224 241.9 7.58532L241.703 7.69693C241.165 7.97254 240.687 8.35013 240.236 8.74838C240.021 8.96197 239.8 9.1673 239.614 9.40433C239.408 9.62619 239.244 9.87975 239.069 10.125C238.755 10.6349 238.463 11.1668 238.296 11.7415L238.224 11.9537C238.204 12.0254 238.191 12.0998 238.173 12.1714L238.078 12.6083L238.033 13.0506C238.026 13.125 238.014 13.1994 238.012 13.2725L238.016 13.4957C237.998 14.0896 238.114 14.6794 238.307 15.2362C238.511 15.7901 238.806 16.311 239.182 16.7741C239.929 17.7056 240.941 18.4263 242.032 18.9596C242.579 19.227 243.15 19.4516 243.734 19.6307C244.318 19.8057 244.912 19.9477 245.516 20.0014C246.719 20.1392 247.953 20.0331 249.133 19.7217C250.311 19.4047 251.437 18.8811 252.438 18.181C253.437 17.4782 254.306 16.5853 254.95 15.5435C255.593 14.5044 256.001 13.3193 256.138 12.097C256.28 10.8747 256.12 9.62343 255.766 8.43418C255.585 7.84025 255.348 7.26286 255.075 6.70337C254.801 6.14251 254.487 5.60094 254.12 5.09244C254.899 6.07361 255.502 7.19533 255.918 8.38458C255.974 8.53341 256.014 8.68637 256.06 8.83657C256.107 8.98678 256.153 9.13836 256.184 9.2927L256.291 9.75572L256.364 10.2243C256.424 10.5371 256.424 10.8554 256.453 11.171C256.463 11.3294 256.45 11.4893 256.45 11.6478C256.443 11.8062 256.455 11.9661 256.434 12.1246C256.326 13.3937 255.925 14.6395 255.278 15.7405C254.63 16.8443 253.74 17.8007 252.71 18.5586C250.652 20.0827 248.024 20.8296 245.454 20.5706C244.807 20.5223 244.178 20.3694 243.564 20.1902C242.95 20.0042 242.35 19.7713 241.773 19.4929C240.621 18.9321 239.535 18.1755 238.71 17.1516C238.299 16.6418 237.97 16.0589 237.744 15.4374C237.529 14.8131 237.405 14.153 237.424 13.4943L237.422 13.2477C237.424 13.1664 237.438 13.0851 237.445 13.0024L237.498 12.5118L237.604 12.0322C237.624 11.9537 237.639 11.8724 237.661 11.7938L237.739 11.561C237.928 10.9326 238.244 10.3552 238.592 9.80947C238.783 9.54626 238.966 9.27617 239.188 9.03915C239.392 8.78559 239.631 8.56786 239.864 8.34186C240.354 7.9188 240.872 7.52192 241.452 7.23116L241.665 7.11403C241.738 7.07957 241.814 7.04926 241.889 7.01618L242.337 6.82602C242.648 6.73369 242.951 6.61104 243.275 6.56281C243.909 6.42501 244.574 6.39056 245.221 6.476C246.511 6.65239 247.722 7.18982 248.736 7.98081C249.238 8.3832 249.695 8.85449 250.03 9.41535C250.364 9.96932 250.573 10.6473 250.459 11.3115C250.402 11.6367 250.303 11.9523 250.151 12.2389C250.005 12.5283 249.83 12.7998 249.621 13.0451C249.212 13.5384 248.687 13.9422 248.084 14.171C247.783 14.2853 247.457 14.3349 247.136 14.3239C246.812 14.3088 246.495 14.2137 246.221 14.0511C245.664 13.73 245.266 13.2105 244.977 12.6592Z" fill="white"/>
<path d="M264.18 4.93705C264.383 4.65858 264.651 4.41609 264.984 4.27009C265.309 4.11977 265.733 4.09774 266.083 4.29073C266.426 4.48093 266.659 4.80751 266.804 5.15333C266.944 5.50486 267.001 5.89196 266.921 6.28882C266.884 6.49003 266.785 6.68581 266.662 6.85119C266.534 7.01504 266.379 7.13775 266.228 7.24665C265.921 7.46154 265.611 7.61729 265.304 7.77988C264.692 8.09405 264.085 8.39595 263.498 8.73493C262.911 9.06834 262.311 9.42113 261.738 9.77532C261.168 10.1281 260.596 10.5057 260.234 10.9991C260.058 11.2458 259.953 11.5337 259.949 11.8382C259.942 12.1428 260.026 12.4611 260.16 12.7589C260.425 13.3652 260.872 13.8957 261.344 14.3945C260.784 13.9949 260.263 13.5139 259.896 12.8938C259.716 12.5839 259.582 12.2309 259.552 11.8493C259.521 11.4634 259.64 11.0692 259.836 10.7414C260.033 10.4106 260.302 10.1515 260.577 9.92132C260.851 9.69124 261.139 9.48723 261.429 9.29159C262.016 8.90993 262.597 8.56119 263.2 8.20854C263.806 7.87094 264.432 7.56082 265.05 7.26729C265.357 7.12255 265.666 6.9792 265.93 6.80978C266.061 6.7243 266.179 6.63199 266.27 6.53005C266.357 6.42533 266.429 6.31503 266.464 6.17866C266.608 5.63162 266.415 4.89285 265.93 4.54284C265.687 4.36645 265.355 4.33619 265.042 4.4271C264.726 4.51537 264.431 4.7 264.18 4.93705Z" fill="white"/>
<path d="M270.014 12.6592C269.725 13.2104 269.326 13.7299 268.77 14.051C268.496 14.2136 268.178 14.3087 267.857 14.3239C267.534 14.3348 267.21 14.2852 266.907 14.1708C266.304 13.9421 265.779 13.5383 265.371 13.045C265.161 12.7997 264.986 12.5283 264.84 12.2389C264.688 11.9523 264.589 11.6366 264.532 11.3115C264.418 10.6472 264.627 9.96927 264.961 9.4153C265.297 8.85446 265.754 8.38309 266.254 7.98074C267.269 7.18976 268.48 6.65228 269.77 6.47584C270.417 6.39047 271.082 6.4249 271.715 6.56267C272.039 6.61097 272.343 6.73356 272.654 6.82594L273.103 7.0161C273.176 7.04923 273.252 7.07943 273.325 7.11402L273.54 7.23106C274.119 7.52177 274.637 7.91871 275.126 8.34179C275.359 8.56784 275.6 8.78558 275.805 9.03908C276.025 9.27608 276.209 9.5462 276.398 9.80947C276.747 10.3551 277.064 10.9325 277.252 11.5609L277.33 11.7938C277.353 11.8723 277.367 11.9536 277.386 12.0321L277.493 12.5118L277.547 13.0023C277.553 13.085 277.567 13.1663 277.569 13.2476L277.567 13.4942C277.586 14.153 277.462 14.8131 277.248 15.4372C277.023 16.0588 276.693 16.6417 276.282 17.1516C275.457 18.1754 274.37 18.932 273.218 19.4928C272.641 19.7713 272.041 20.004 271.428 20.1901C270.813 20.3693 270.183 20.5223 269.538 20.5706C266.968 20.8296 264.34 20.0827 262.282 18.5585C261.253 17.8007 260.363 16.8442 259.715 15.7405C259.066 14.6394 258.666 13.3937 258.559 12.1245C258.536 11.966 258.547 11.8062 258.54 11.6477C258.54 11.4892 258.53 11.3294 258.539 11.1709C258.566 10.8553 258.568 10.537 258.628 10.2242L258.701 9.75562L258.806 9.29271C258.839 9.13831 258.883 8.98668 258.93 8.83651C258.979 8.68634 259.017 8.5334 259.073 8.38455C259.489 7.19531 260.091 6.07349 260.871 5.09235C260.504 5.6008 260.191 6.14237 259.916 6.70335C259.643 7.26273 259.406 7.8402 259.226 8.43417C258.871 9.62326 258.711 10.8747 258.854 12.097C258.99 13.3193 259.398 14.5044 260.042 15.5435C260.685 16.5852 261.554 17.4782 262.553 18.181C263.553 18.8811 264.68 19.4047 265.857 19.7217C267.038 20.0331 268.273 20.1392 269.475 20.0014C270.079 19.9477 270.673 19.8057 271.257 19.6307C271.841 19.4515 272.411 19.2269 272.959 18.9596C274.052 18.4263 275.062 17.7055 275.809 16.774C276.185 16.311 276.48 15.7901 276.684 15.2361C276.877 14.6794 276.992 14.0895 276.976 13.4957L276.981 13.2724C276.979 13.1994 276.965 13.125 276.959 13.0506L276.914 12.6083L276.817 12.1713C276.801 12.0997 276.787 12.0252 276.768 11.9536L276.696 11.7414C276.528 11.1668 276.236 10.6349 275.921 10.125C275.748 9.87967 275.583 9.62617 275.377 9.4042C275.192 9.1672 274.97 8.96187 274.755 8.74822C274.306 8.35011 273.826 7.97242 273.29 7.69689L273.092 7.58525C273.024 7.55212 272.954 7.52469 272.886 7.49287L272.473 7.31104C272.185 7.2242 271.905 7.10701 271.61 7.05608C271.024 6.91554 270.422 6.87133 269.825 6.93612C268.629 7.07126 267.46 7.55621 266.489 8.28253C266.006 8.65044 265.568 9.08314 265.25 9.59173C264.934 10.0959 264.742 10.6873 264.824 11.2715C264.9 11.8558 265.174 12.425 265.548 12.9017C265.919 13.3826 266.405 13.7864 266.967 14.0234C267.245 14.1393 267.549 14.1971 267.851 14.1985C268.154 14.1943 268.455 14.1158 268.727 13.971C269.277 13.6885 269.7 13.1952 270.014 12.6592Z" fill="white"/>
<path d="M236.214 14.8263C235.988 15.055 235.716 15.248 235.405 15.3623C235.096 15.474 234.728 15.4877 234.415 15.3348C234.255 15.2645 234.115 15.157 233.999 15.0302C233.881 14.9048 233.784 14.7615 233.71 14.6086C233.555 14.304 233.473 13.9678 233.455 13.626C233.434 13.2843 233.515 12.9218 233.679 12.6118C233.842 12.3003 234.079 12.0371 234.345 11.8222C234.88 11.3908 235.52 11.1263 236.192 11.0009C236.529 10.9361 236.881 10.9361 237.224 10.9692C237.568 11.005 237.902 11.1028 238.223 11.2213C238.541 11.3495 238.843 11.5149 239.128 11.705C239.405 11.9049 239.67 12.1226 239.903 12.3734C240.135 12.6242 240.35 12.8929 240.523 13.1892C240.696 13.4841 240.851 13.7955 240.949 14.129C241.163 14.7863 241.208 15.4988 241.097 16.1768C240.98 16.8548 240.724 17.4955 240.382 18.0771C240.209 18.3692 240.024 18.6435 239.791 18.9122L239.43 19.276L239.032 19.5998C237.925 20.4032 236.543 20.7587 235.209 20.665C234.541 20.6196 233.879 20.4707 233.267 20.2061C232.654 19.9402 232.089 19.5654 231.618 19.0982C230.684 18.1487 230.143 16.8823 230 15.6035C230.274 16.8589 230.885 18.0454 231.822 18.8832C232.759 19.7169 233.996 20.1565 235.232 20.1924C236.466 20.2268 237.721 19.8823 238.69 19.1395L239.037 18.8488L239.353 18.5236C239.542 18.3045 239.719 18.0412 239.871 17.778C240.178 17.2489 240.401 16.6701 240.501 16.0775C240.6 15.485 240.565 14.8773 240.385 14.3081C240.215 13.7349 239.885 13.2112 239.484 12.762C238.682 11.8607 237.461 11.2971 236.265 11.4653C235.668 11.5521 235.075 11.7794 234.586 12.1336C234.344 12.3114 234.131 12.5277 233.981 12.7813C233.834 13.0335 233.751 13.3187 233.751 13.6205C233.746 13.9209 233.802 14.231 233.921 14.5093C233.978 14.6499 234.056 14.7822 234.152 14.8966C234.244 15.0137 234.359 15.1157 234.49 15.186C234.749 15.3403 235.077 15.3568 235.377 15.2755C235.682 15.1956 235.967 15.033 236.214 14.8263Z" fill="white"/>
<path d="M278.785 14.8264C279.032 15.033 279.317 15.1957 279.621 15.2756C279.922 15.3568 280.249 15.3403 280.509 15.186C280.642 15.1158 280.755 15.0137 280.848 14.8967C280.943 14.7823 281.019 14.6499 281.078 14.5093C281.197 14.2311 281.253 13.9209 281.247 13.6205C281.247 13.3188 281.165 13.0335 281.018 12.7813C280.869 12.5277 280.655 12.3113 280.412 12.1336C279.924 11.7794 279.331 11.5521 278.734 11.4653C277.539 11.2971 276.317 11.8608 275.515 12.762C275.113 13.2112 274.783 13.7349 274.613 14.3081C274.433 14.8772 274.4 15.485 274.499 16.0775C274.598 16.6701 274.82 17.2489 275.128 17.7781C275.28 18.0413 275.458 18.3045 275.646 18.5236L275.963 18.8488L276.309 19.1396C277.277 19.8824 278.533 20.2268 279.767 20.1923C281.003 20.1565 282.24 19.717 283.176 18.8833C284.113 18.0454 284.724 16.859 285 15.6035C284.857 16.8823 284.317 18.1488 283.382 19.0982C282.911 19.5654 282.344 19.9403 281.733 20.2062C281.119 20.4707 280.458 20.6196 279.79 20.665C278.455 20.7588 277.074 20.4032 275.966 19.5997L275.57 19.2759L275.209 18.9122C274.976 18.6434 274.791 18.3692 274.618 18.0771C274.275 17.4955 274.017 16.8548 273.902 16.1768C273.792 15.4987 273.837 14.7863 274.051 14.129C274.148 13.7956 274.302 13.4841 274.476 13.1893C274.648 12.893 274.865 12.6242 275.096 12.3733C275.328 12.1226 275.595 11.9049 275.871 11.705C276.157 11.5148 276.457 11.3494 276.777 11.2214C277.098 11.1028 277.432 11.005 277.777 10.9692C278.118 10.9361 278.469 10.9361 278.807 11.0009C279.48 11.1263 280.118 11.3908 280.655 11.8221C280.92 12.0371 281.156 12.3003 281.32 12.6118C281.483 12.9218 281.564 13.2844 281.543 13.626C281.527 13.9677 281.442 14.304 281.29 14.6086C281.214 14.7615 281.117 14.9048 281 15.0303C280.884 15.157 280.743 15.2646 280.585 15.3349C280.27 15.4878 279.903 15.4739 279.594 15.3624C279.284 15.248 279.012 15.0551 278.785 14.8264Z" fill="white"/>
<path d="M294.977 12.6592C295.291 13.1953 295.715 13.6886 296.265 13.9711C296.535 14.1158 296.837 14.1944 297.14 14.1985C297.444 14.1971 297.745 14.1393 298.026 14.0235C298.586 13.7865 299.074 13.3827 299.443 12.9018C299.817 12.425 300.092 11.8559 300.167 11.2716C300.249 10.6873 300.058 10.0961 299.741 9.59173C299.422 9.08324 298.986 8.65053 298.502 8.2826C297.53 7.55637 296.362 7.07131 295.166 6.93626C294.569 6.87149 293.967 6.91559 293.382 7.05615C293.086 7.10713 292.806 7.22427 292.52 7.31108L292.105 7.49299C292.037 7.52468 291.967 7.55224 291.9 7.58532L291.703 7.69693C291.165 7.97254 290.687 8.35013 290.236 8.74838C290.021 8.96197 289.8 9.1673 289.614 9.40433C289.408 9.62619 289.244 9.87975 289.069 10.125C288.755 10.6349 288.463 11.1668 288.296 11.7415L288.224 11.9537C288.204 12.0254 288.191 12.0998 288.173 12.1714L288.078 12.6083L288.033 13.0506C288.026 13.125 288.014 13.1994 288.012 13.2725L288.016 13.4957C287.998 14.0896 288.114 14.6794 288.307 15.2362C288.511 15.7901 288.806 16.311 289.182 16.7741C289.929 17.7056 290.941 18.4263 292.032 18.9596C292.579 19.227 293.15 19.4516 293.734 19.6307C294.318 19.8057 294.912 19.9477 295.516 20.0014C296.719 20.1392 297.953 20.0331 299.133 19.7217C300.311 19.4047 301.437 18.8811 302.438 18.181C303.437 17.4782 304.306 16.5853 304.95 15.5435C305.593 14.5044 306.001 13.3193 306.138 12.097C306.28 10.8747 306.12 9.62343 305.766 8.43418C305.585 7.84025 305.348 7.26286 305.075 6.70337C304.801 6.14251 304.487 5.60094 304.12 5.09244C304.899 6.07361 305.502 7.19533 305.918 8.38458C305.974 8.53341 306.014 8.68637 306.06 8.83657C306.107 8.98678 306.153 9.13836 306.184 9.2927L306.291 9.75572L306.364 10.2243C306.424 10.5371 306.424 10.8554 306.453 11.171C306.463 11.3294 306.45 11.4893 306.45 11.6478C306.443 11.8062 306.455 11.9661 306.434 12.1246C306.326 13.3937 305.925 14.6395 305.278 15.7405C304.63 16.8443 303.74 17.8007 302.71 18.5586C300.652 20.0827 298.024 20.8296 295.454 20.5706C294.807 20.5223 294.178 20.3694 293.564 20.1902C292.95 20.0042 292.35 19.7713 291.773 19.4929C290.621 18.9321 289.535 18.1755 288.71 17.1516C288.299 16.6418 287.97 16.0589 287.744 15.4374C287.529 14.8131 287.405 14.153 287.424 13.4943L287.422 13.2477C287.424 13.1664 287.438 13.0851 287.445 13.0024L287.498 12.5118L287.604 12.0322C287.624 11.9537 287.639 11.8724 287.661 11.7938L287.739 11.561C287.928 10.9326 288.244 10.3552 288.592 9.80947C288.783 9.54626 288.966 9.27617 289.188 9.03915C289.392 8.78559 289.631 8.56786 289.864 8.34186C290.354 7.9188 290.872 7.52192 291.452 7.23116L291.665 7.11403C291.738 7.07957 291.814 7.04926 291.889 7.01618L292.337 6.82602C292.648 6.73369 292.951 6.61104 293.275 6.56281C293.909 6.42501 294.574 6.39056 295.221 6.476C296.511 6.65239 297.722 7.18982 298.736 7.98081C299.238 8.3832 299.695 8.85449 300.03 9.41535C300.364 9.96932 300.573 10.6473 300.459 11.3115C300.402 11.6367 300.303 11.9523 300.151 12.2389C300.005 12.5283 299.83 12.7998 299.621 13.0451C299.212 13.5384 298.687 13.9422 298.084 14.171C297.783 14.2853 297.457 14.3349 297.136 14.3239C296.812 14.3088 296.495 14.2137 296.221 14.0511C295.664 13.73 295.266 13.2105 294.977 12.6592Z" fill="white"/>
<path d="M286.214 14.8263C285.988 15.055 285.716 15.248 285.405 15.3623C285.096 15.474 284.728 15.4877 284.415 15.3348C284.255 15.2645 284.115 15.157 283.999 15.0302C283.881 14.9048 283.784 14.7615 283.71 14.6086C283.555 14.304 283.473 13.9678 283.455 13.626C283.434 13.2843 283.515 12.9218 283.679 12.6118C283.842 12.3003 284.079 12.0371 284.345 11.8222C284.88 11.3908 285.52 11.1263 286.192 11.0009C286.529 10.9361 286.881 10.9361 287.224 10.9692C287.568 11.005 287.902 11.1028 288.223 11.2213C288.541 11.3495 288.843 11.5149 289.128 11.705C289.405 11.9049 289.67 12.1226 289.903 12.3734C290.135 12.6242 290.35 12.8929 290.523 13.1892C290.696 13.4841 290.851 13.7955 290.949 14.129C291.163 14.7863 291.208 15.4988 291.097 16.1768C290.98 16.8548 290.724 17.4955 290.382 18.0771C290.209 18.3692 290.024 18.6435 289.791 18.9122L289.43 19.276L289.032 19.5998C287.925 20.4032 286.543 20.7587 285.209 20.665C284.541 20.6196 283.879 20.4707 283.267 20.2061C282.654 19.9402 282.089 19.5654 281.618 19.0982C280.684 18.1487 280.143 16.8823 280 15.6035C280.274 16.8589 280.885 18.0454 281.822 18.8832C282.759 19.7169 283.996 20.1565 285.232 20.1924C286.466 20.2268 287.721 19.8823 288.69 19.1395L289.037 18.8488L289.353 18.5236C289.542 18.3045 289.719 18.0412 289.871 17.778C290.178 17.2489 290.401 16.6701 290.501 16.0775C290.6 15.485 290.565 14.8773 290.385 14.3081C290.215 13.7349 289.885 13.2112 289.484 12.762C288.682 11.8607 287.461 11.2971 286.265 11.4653C285.668 11.5521 285.075 11.7794 284.586 12.1336C284.344 12.3114 284.131 12.5277 283.981 12.7813C283.834 13.0335 283.751 13.3187 283.751 13.6205C283.746 13.9209 283.802 14.231 283.921 14.5093C283.978 14.6499 284.056 14.7822 284.152 14.8966C284.244 15.0137 284.359 15.1157 284.49 15.186C284.749 15.3403 285.077 15.3568 285.377 15.2755C285.682 15.1956 285.967 15.033 286.214 14.8263Z" fill="white"/>
</svg>
