<svg width="193" height="133" viewBox="0 0 193 133" fill="none" xmlns="http://www.w3.org/2000/svg">
<path fill-rule="evenodd" clip-rule="evenodd" d="M34.8472 95C34.8472 98.866 37.6475 102 41.1019 102H171.556C175.01 102 177.81 98.866 177.81 95C177.81 91.134 175.01 88 171.556 88H166.194C162.74 88 159.94 84.866 159.94 81C159.94 77.134 162.74 74 166.194 74H183.171C186.626 74 189.426 70.866 189.426 67C189.426 63.134 186.626 60 183.171 60H163.514C166.968 60 169.769 56.866 169.769 53C169.769 49.134 166.968 46 163.514 46H106.329C109.783 46 112.583 42.866 112.583 39C112.583 35.134 109.783 32 106.329 32H55.3981C51.9438 32 49.1435 35.134 49.1435 39C49.1435 42.866 51.9438 46 55.3981 46H19.6574C16.2031 46 13.4028 49.134 13.4028 53C13.4028 56.866 16.2031 60 19.6574 60H41.9954C45.4497 60 48.25 63.134 48.25 67C48.25 70.866 45.4497 74 41.9954 74H6.25463C2.80029 74 0 77.134 0 81C0 84.866 2.80029 88 6.25463 88H41.1019C37.6475 88 34.8472 91.134 34.8472 95ZM193 95C193 98.866 190.2 102 186.745 102C183.291 102 180.491 98.866 180.491 95C180.491 91.134 183.291 88 186.745 88C190.2 88 193 91.134 193 95Z" fill="#FFF6CF" fill-opacity="0.64"/>
<g filter="url(#filter0_d)">
<rect x="52" y="4" width="97" height="125" rx="4" fill="white"/>
<path d="M52.2695 8C52.2695 5.79086 54.0604 4 56.2695 4L144.852 4C147.061 4 148.852 5.79086 148.852 8V36.7847H52.2695V8Z" fill="#1A253A"/>
<rect x="60.2461" y="44.7578" width="22.1518" height="2.65822" rx="1.32911" fill="#D8D8D8"/>
<rect x="61" y="86" width="22.1518" height="2.65822" rx="1.32911" fill="#D8D8D8"/>
<rect x="109" y="86" width="22.1518" height="2.65822" rx="1.32911" fill="#D8D8D8"/>
<rect x="60.2461" y="66.0234" width="22.1518" height="2.65822" rx="1.32911" fill="#D8D8D8"/>
<rect x="61" y="107.266" width="22.1518" height="2.65822" rx="1.32911" fill="#D8D8D8"/>
<rect x="60" y="19" width="31" height="5" rx="2.5" fill="white"/>
<rect x="60.2422" y="50.9609" width="31.0126" height="4.43037" rx="2.21518" fill="#808080"/>
<rect x="61" y="92.2031" width="31.0126" height="4.43037" rx="2.21518" fill="#808080"/>
<rect x="109" y="92.2031" width="31.0126" height="4.43037" rx="2.21518" fill="#808080"/>
<rect x="60.2461" y="72.2266" width="31.0126" height="4.43037" rx="2.21518" fill="#808080"/>
<rect x="61" y="113.469" width="31.0126" height="4.43037" rx="2.21518" fill="#808080"/>
</g>
<line x1="52" y1="34.5" x2="149" y2="34.5" stroke="#FFD100" stroke-width="5"/>
<rect x="60" y="12" width="22" height="3" rx="1.5" fill="white" fill-opacity="0.4"/>
<circle cx="132.5" cy="18.5" r="7.5" fill="white"/>
<defs>
<filter id="filter0_d" x="48" y="0" width="105" height="133" filterUnits="userSpaceOnUse" color-interpolation-filters="sRGB">
<feFlood flood-opacity="0" result="BackgroundImageFix"/>
<feColorMatrix in="SourceAlpha" type="matrix" values="0 0 0 0 0 0 0 0 0 0 0 0 0 0 0 0 0 0 127 0"/>
<feOffset/>
<feGaussianBlur stdDeviation="2"/>
<feColorMatrix type="matrix" values="0 0 0 0 0 0 0 0 0 0 0 0 0 0 0 0 0 0 0.25 0"/>
<feBlend mode="normal" in2="BackgroundImageFix" result="effect1_dropShadow"/>
<feBlend mode="normal" in="SourceGraphic" in2="effect1_dropShadow" result="shape"/>
</filter>
</defs>
</svg>
