<svg width="28" height="33" viewBox="0 0 28 33" fill="none" xmlns="http://www.w3.org/2000/svg">
<path d="M27.4251 9.02115C27.4084 8.15105 27.3931 7.32973 27.3931 6.53515C27.3931 5.91231 26.8885 5.40775 26.2657 5.40775C21.444 5.40775 17.7725 4.02174 14.7124 1.04655C14.4939 0.833369 14.2105 0.727112 13.9272 0.727112C13.6432 0.727112 13.3598 0.833369 13.1406 1.04655C10.0806 4.02174 6.41036 5.40775 1.58871 5.40775C0.966539 5.40775 0.461318 5.91231 0.461318 6.53515C0.461318 7.32973 0.445948 8.15172 0.429241 9.02182C0.274868 17.1147 0.0630234 28.1988 13.5576 32.8761C13.6773 32.9176 13.8016 32.9383 13.9265 32.9383H13.9272C14.0522 32.9383 14.1765 32.9176 14.2954 32.8761C27.7914 28.1988 27.5795 17.114 27.4251 9.02115Z" fill="white"/>
<path d="M20.8237 14.164V18.165C20.8237 18.5339 20.525 18.8333 20.1555 18.8333H16.5961V22.3932C16.5961 22.7621 16.2967 23.0615 15.9278 23.0615H11.9268C11.5579 23.0615 11.2586 22.7621 11.2586 22.3932V18.8333H7.69855C7.329 18.8333 7.03027 18.5339 7.03027 18.165V14.164C7.03027 13.7951 7.329 13.4957 7.69855 13.4957H11.2586V9.9358C11.2586 9.56691 11.5579 9.26752 11.9268 9.26752H15.9279C16.2968 9.26752 16.5962 9.56691 16.5962 9.9358V13.4957H20.1555C20.525 13.4957 20.8237 13.7951 20.8237 14.164Z" fill="#4A2DFF"/>
</svg>
