<svg width="31" height="38" viewBox="0 0 31 38" fill="none" xmlns="http://www.w3.org/2000/svg">
<path d="M15.2099 18.6031C19.6128 18.6031 23.1823 14.6289 23.1823 9.72657C23.1823 4.8241 22.0104 0.849976 15.2099 0.849976C8.40946 0.849976 7.2373 4.8241 7.2373 9.72657C7.2373 14.6289 10.8068 18.6031 15.2099 18.6031Z" fill="#FF2D3B"/>
<path d="M0.15147 32.1565C0.150112 31.8576 0.148755 32.0723 0.15147 32.1565V32.1565Z" fill="#FF2D3B"/>
<path d="M30.2676 32.39C30.2719 32.3082 30.2691 31.8223 30.2676 32.39V32.39Z" fill="#FF2D3B"/>
<path d="M30.2504 31.798C30.1028 23.258 28.886 20.8245 19.5752 19.2842C19.5752 19.2842 18.2645 20.8151 15.2097 20.8151C12.1548 20.8151 10.8439 19.2842 10.8439 19.2842C1.63467 20.8077 0.343936 23.2051 0.174222 31.5206C0.160305 32.1996 0.153856 32.2353 0.151367 32.1565C0.151933 32.3042 0.152612 32.5774 0.152612 33.0537C0.152612 33.0537 2.36931 37.15 15.2097 37.15C28.0498 37.15 30.2667 33.0537 30.2667 33.0537C30.2667 32.7476 30.2669 32.5348 30.2673 32.39C30.2648 32.4388 30.2598 32.3443 30.2504 31.798Z" fill="#FF2D3B"/>
</svg>
