<svg width="13" height="11" viewBox="0 0 13 11" fill="none" xmlns="http://www.w3.org/2000/svg">
<path d="M12.7292 4.87124H0.924998L5.33782 0.458971C5.44174 0.351395 5.43875 0.179938 5.33117 0.0760171C5.22621 -0.025339 5.05983 -0.025339 4.95489 0.0760171L0.0800506 4.95086C-0.0258503 5.05648 -0.0260534 5.22796 0.0795682 5.33386C0.0797205 5.33402 0.0798983 5.33419 0.0800506 5.33435L4.95489 10.2092C5.05881 10.3168 5.23024 10.3197 5.33785 10.2158C5.44542 10.1119 5.44839 9.94049 5.3445 9.83289C5.34232 9.83063 5.34011 9.82842 5.33785 9.82623L0.924998 5.4129H12.7291C12.8787 5.4129 13 5.29164 13 5.14207C13 4.9925 12.8787 4.87124 12.7292 4.87124Z" fill="#808080"/>
<path d="M5.14588 10.2878C5.074 10.2879 5.00501 10.2594 4.95413 10.2087L0.0792923 5.33382C-0.0264308 5.22807 -0.0264308 5.05664 0.0792923 4.95087L4.95413 0.0760266C5.06171 -0.0278939 5.23317 -0.0248979 5.33709 0.0826787C5.43844 0.18764 5.43844 0.35402 5.33709 0.458956L0.65399 5.14208L5.33709 9.82518C5.44299 9.9308 5.44319 10.1023 5.33757 10.2082C5.28677 10.2591 5.21781 10.2877 5.14588 10.2878Z" fill="#808080"/>
<path d="M12.7288 5.413H0.270833C0.121262 5.413 0 5.29174 0 5.14217C0 4.9926 0.121262 4.87134 0.270833 4.87134H12.7288C12.8783 4.87134 12.9996 4.9926 12.9996 5.14217C12.9996 5.29174 12.8783 5.413 12.7288 5.413Z" fill="#808080"/>
</svg>
