<svg width="13" height="11" viewBox="0 0 13 11" fill="none" xmlns="http://www.w3.org/2000/svg">
<path d="M0.270826 6.12876L12.075 6.12876L7.66218 10.541C7.55826 10.6486 7.56125 10.8201 7.66883 10.924C7.77379 11.0253 7.94017 11.0253 8.04511 10.924L12.9199 6.04914C13.0258 5.94352 13.0261 5.77204 12.9204 5.66614C12.9203 5.66598 12.9201 5.66581 12.9199 5.66565L8.04511 0.790812C7.94119 0.683236 7.76975 0.680264 7.66215 0.784159C7.55458 0.88808 7.55161 1.05951 7.6555 1.16711C7.65768 1.16937 7.65989 1.17158 7.66215 1.17377L12.075 5.5871L0.270852 5.5871C0.12128 5.5871 1.86109e-05 5.70836 1.8624e-05 5.85793C1.8637e-05 6.0075 0.121254 6.12876 0.270826 6.12876Z" fill="#808080"/>
<path d="M7.85412 0.712246C7.926 0.71212 7.99498 0.740556 8.04587 0.791336L12.9207 5.66618C13.0264 5.77193 13.0264 5.94336 12.9207 6.04913L8.04587 10.924C7.93829 11.0279 7.76683 11.0249 7.66291 10.9173C7.56156 10.8124 7.56156 10.646 7.66291 10.541L12.346 5.85792L7.66291 1.17482C7.55701 1.0692 7.55681 0.897719 7.66243 0.791818C7.71323 0.740911 7.78219 0.712271 7.85412 0.712246Z" fill="#808080"/>
<path d="M0.271231 5.587L12.7292 5.587C12.8787 5.587 13 5.70826 13 5.85783C13 6.0074 12.8787 6.12866 12.7292 6.12866L0.271231 6.12866C0.121659 6.12866 0.000398625 6.0074 0.000398612 5.85783C0.000398599 5.70826 0.121659 5.587 0.271231 5.587Z" fill="#808080"/>
</svg>
