<svg width="1440" height="873" viewBox="0 0 1440 873" fill="none" xmlns="http://www.w3.org/2000/svg">
<path fill-rule="evenodd" clip-rule="evenodd" d="M0 0H1440V873H0V0Z" fill="#344552"/>
<mask id="mask0" mask-type="alpha" maskUnits="userSpaceOnUse" x="510" y="0" width="930" height="873">
<rect x="510" width="930" height="873" fill="white"/>
</mask>
<g mask="url(#mask0)">
<g filter="url(#filter0_d)">
<path fill-rule="evenodd" clip-rule="evenodd" d="M935.163 366.759L752.778 366.82L167.968 -646.101L350.37 -646.172L1203.73 831.892L1112.47 989.821L843.915 524.672L935.163 366.759ZM1384.93 518.127L1293.72 676.137L530.718 -645.417L713.167 -645.407L1384.93 518.127ZM1473.47 357.124L1565 199.662L1079.1 -641.937L896.968 -641.404L1473.47 357.124ZM1844.3 42.1813L1662.4 43.1259L1266.39 -642.789L1357.8 -800.461L1844.3 42.1813ZM2204.05 37.6175L2027.5 -268.184L1846.51 -267.9L1937.06 -424.325L1535.55 -1119.75L1443.86 -962.574L1845.72 -266.527L1845.86 -266.779L2022.13 38.5272L2204.05 37.6175Z" fill="#344552"/>
</g>
</g>
<defs>
<filter id="filter0_d" x="124.968" y="-1399.82" width="2275.5" height="2446.64" filterUnits="userSpaceOnUse" color-interpolation-filters="sRGB">
<feFlood flood-opacity="0" result="BackgroundImageFix"/>
<feColorMatrix in="SourceAlpha" type="matrix" values="0 0 0 0 0 0 0 0 0 0 0 0 0 0 0 0 0 0 127 0"/>
<feOffset dx="7" dy="7"/>
<feGaussianBlur stdDeviation="25"/>
<feColorMatrix type="matrix" values="0 0 0 0 0 0 0 0 0 0 0 0 0 0 0 0 0 0 0.2 0"/>
<feBlend mode="normal" in2="BackgroundImageFix" result="effect1_dropShadow"/>
<feBlend mode="normal" in="SourceGraphic" in2="effect1_dropShadow" result="shape"/>
</filter>
</defs>
</svg>
