<svg id="Layer_1" data-name="Layer 1" xmlns="http://www.w3.org/2000/svg" viewBox="0 0 260 164"><title>iconsArtboard 4</title><polygon points="98.88 51.65 105.8 55.63 98.88 59.62 98.88 83.11 105.8 79.12 105.8 4.49 98.88 0.5 98.88 51.65"/><polygon points="112.71 75.14 119.63 71.15 119.63 12.46 112.71 8.47 112.71 75.14"/><polygon points="126.54 67.17 133.46 63.18 133.46 20.43 126.54 16.44 126.54 67.17"/><polygon points="140.37 59.19 147.29 63.15 147.29 20.46 140.37 24.45 140.37 59.19"/><polygon points="161.12 71.12 161.12 55.63 154.2 51.65 154.2 67.17 161.12 71.12"/><polygon points="161.12 12.49 154.2 16.44 154.2 51.65 161.12 47.66 161.12 12.49"/><polygon points="96.27 110.08 62.77 110.08 62.77 116.28 76.17 116.28 76.17 163.5 82.88 163.5 82.88 116.28 96.27 116.28 96.27 110.08"/><polygon points="170.44 110.08 163.73 110.08 163.73 163.5 183.83 163.5 183.83 157.3 170.44 157.3 170.44 110.08"/><polygon points="5.15 163.5 45.31 163.5 41.44 156.79 16.76 156.79 35.94 123.52 58.98 163.5 66.72 163.5 35.94 110.08 5.15 163.5"/><polygon points="92.71 163.5 132.87 163.5 129.01 156.79 104.32 156.79 123.5 123.52 146.54 163.5 154.28 163.5 123.5 110.08 92.71 163.5"/><polygon points="247.11 163.5 254.85 163.5 224.06 110.08 193.28 163.5 233.44 163.5 229.57 156.79 204.89 156.79 224.06 123.52 247.11 163.5"/></svg>