<svg id="Layer_1" data-name="Layer 1" xmlns="http://www.w3.org/2000/svg" viewBox="0 0 870 230"><title>blackArtboard 3</title><path d="M116.59,5.2A109.8,109.8,0,1,0,226.39,115,109.8,109.8,0,0,0,116.59,5.2M79.78,171.75l-10.52,6.07V142.09L79.78,136,69.26,130V52.18l10.52,6.07Zm21-12.12L90.3,165.69V64.31l10.51,6.06Zm21-12.12-10.52,6.06V76.43l10.52,6.06Zm21,0-10.52-6V88.6l10.52-6.06Zm21-23.55L153.4,130,163.91,136v23.55l-10.51-6V76.43l10.51-6Z"/><polygon points="516.44 65.07 443.18 65.07 443.18 78.63 472.48 78.63 472.48 181.87 487.15 181.87 487.15 78.63 516.44 78.63 516.44 65.07"/><polygon points="678.63 65.07 663.95 65.07 663.95 181.87 707.92 181.87 707.92 168.32 678.63 168.32 678.63 65.07"/><polygon points="317.18 181.87 405 181.87 396.55 167.2 342.57 167.2 384.5 94.46 434.88 181.87 451.82 181.87 384.5 65.07 317.18 181.87"/><polygon points="508.65 181.87 596.48 181.87 588.02 167.2 534.05 167.2 575.98 94.46 626.36 181.87 643.3 181.87 575.98 65.07 508.65 181.87"/><polygon points="846.28 181.87 863.22 181.87 795.89 65.07 728.57 181.87 816.4 181.87 807.94 167.2 753.97 167.2 795.89 94.46 846.28 181.87"/></svg>