<svg width="44" height="44" viewBox="0 0 44 44" fill="none" xmlns="http://www.w3.org/2000/svg">
<rect width="44" height="44" rx="8" fill="#A0AABB"/>
<path d="M22.1258 21.7376C24.7942 21.7376 26.9576 19.1101 26.9576 15.8688C26.9576 12.6275 26.2473 10 22.1258 10C18.0043 10 17.2939 12.6275 17.2939 15.8688C17.2939 19.1101 19.4573 21.7376 22.1258 21.7376Z" fill="white"/>
<path d="M31.2419 30.4616C31.1524 24.8153 30.4149 23.2064 24.772 22.188C24.772 22.188 23.9777 23.2002 22.1262 23.2002C20.2748 23.2002 19.4803 22.188 19.4803 22.188C13.899 23.1953 13.1167 24.7803 13.0139 30.2782C13.0054 30.7271 13.0015 30.7507 13 30.6986C13.0003 30.7962 13.0008 30.9769 13.0008 31.2918C13.0008 31.2918 14.3442 34.0001 22.1262 34.0001C29.9081 34.0001 31.2517 31.2918 31.2517 31.2918C31.2517 31.0894 31.2519 30.9487 31.2521 30.853C31.2506 30.8852 31.2475 30.8228 31.2419 30.4616Z" fill="white"/>
</svg>
