<svg width="132" height="67" viewBox="0 0 132 67" fill="none" xmlns="http://www.w3.org/2000/svg">
<path fill-rule="evenodd" clip-rule="evenodd" d="M23.7302 63C23.7302 65.2091 25.6371 67 27.9894 67H116.825C119.178 67 121.085 65.2091 121.085 63C121.085 60.7909 119.178 59 116.825 59H113.175C110.822 59 108.915 57.2091 108.915 55C108.915 52.7909 110.822 51 113.175 51H124.735C127.088 51 128.995 49.2091 128.995 47C128.995 44.7909 127.088 43 124.735 43H111.349C113.702 43 115.608 41.2091 115.608 39C115.608 36.7909 113.702 35 111.349 35H72.4074C74.7597 35 76.6667 33.2091 76.6667 31C76.6667 28.7909 74.7597 27 72.4074 27H37.7249C35.3725 27 33.4656 28.7909 33.4656 31C33.4656 33.2091 35.3725 35 37.7249 35H13.3862C11.0339 35 9.12698 36.7909 9.12698 39C9.12698 41.2091 11.0339 43 13.3862 43H28.5979C30.9502 43 32.8571 44.7909 32.8571 47C32.8571 49.2091 30.9502 51 28.5979 51H4.25926C1.90694 51 0 52.7909 0 55C0 57.2091 1.90694 59 4.25926 59H27.9894C25.6371 59 23.7302 60.7909 23.7302 63ZM131.428 63C131.428 65.2091 129.521 67 127.169 67C124.817 67 122.91 65.2091 122.91 63C122.91 60.7909 124.817 59 127.169 59C129.521 59 131.428 60.7909 131.428 63Z" fill="#FFEAEB"/>
<path d="M93.75 22.4998C93.06 22.4998 92.5 21.9398 92.5 21.2498V9.99976C92.5 9.30976 93.06 8.74976 93.75 8.74976C94.44 8.74976 95 9.30976 95 9.99976V21.2498C95 21.9398 94.44 22.4998 93.75 22.4998Z" fill="#FF2D3B"/>
<path d="M88.75 59.9998C79.79 59.9998 72.5 52.7098 72.5 43.7498C72.5 34.7898 79.79 27.4998 88.75 27.4998C97.7101 27.4998 105 34.7898 105 43.7498C105 52.7098 97.7101 59.9998 88.75 59.9998ZM88.75 29.9998C81.17 29.9998 75 36.1698 75 43.7498C75 51.3298 81.17 57.4998 88.75 57.4998C96.3301 57.4998 102.5 51.3298 102.5 43.7498C102.5 36.1698 96.3301 29.9998 88.75 29.9998Z" fill="#FF2D3B"/>
<path d="M88.745 34.9999C89.065 34.9999 89.385 35.1224 89.63 35.3649L97.13 42.8649C97.6175 43.3524 97.6175 44.1449 97.13 44.6324C96.6425 45.1199 95.85 45.1199 95.3625 44.6324L88.7475 38.0174L82.1324 44.6324C81.6449 45.1199 80.8524 45.1199 80.3649 44.6324C79.8774 44.1449 79.8774 43.3524 80.3649 42.8649L87.865 35.3649C88.105 35.1224 88.425 34.9999 88.745 34.9999Z" fill="#FF2D3B"/>
<path d="M88.7451 35.625C89.4351 35.625 89.9951 36.185 89.9951 36.875L89.9951 51.25C89.9951 51.94 89.4351 52.5 88.7451 52.5C88.0551 52.5 87.4951 51.94 87.4951 51.25L87.4951 36.875C87.4951 36.185 88.0551 35.625 88.7451 35.625Z" fill="#FF2D3B"/>
<path d="M70.0001 19.9994C69.8526 19.9994 69.7076 19.9719 69.5676 19.9219L45.8175 11.1719C45.3275 10.9894 45 10.5244 45 9.9994C45 9.4744 45.3275 9.0094 45.8175 8.8269L69.5676 0.0768752C69.8451 -0.0256251 70.1526 -0.0256251 70.4326 0.0768752L94.1826 8.8269C94.6726 9.0094 95.0001 9.4744 95.0001 9.9994C95.0001 10.5244 94.6726 10.9894 94.1826 11.1719L70.4326 19.9219C70.2926 19.9719 70.1476 19.9994 70.0001 19.9994ZM49.865 9.9994L70.0001 17.4169L90.1351 9.9994L70.0001 2.58188L49.865 9.9994Z" fill="#FF2D3B"/>
<path d="M66.55 48.7248C66.405 48.7248 66.26 48.6999 66.1175 48.6474L45.8175 41.1723C45.3275 40.9898 45 40.5248 45 39.9998V9.99976C45 9.30976 45.56 8.74976 46.25 8.74976C46.94 8.74976 47.5 9.30976 47.5 9.99976V39.1273L66.9826 46.3023C67.6301 46.5398 67.9626 47.2598 67.7226 47.9073C67.5376 48.4123 67.0576 48.7248 66.55 48.7248Z" fill="#FF2D3B"/>
<path d="M70 32.575C69.31 32.575 68.75 32.015 68.75 31.325V18.75C68.75 18.06 69.31 17.5 70 17.5C70.69 17.5 71.25 18.06 71.25 18.75V31.325C71.25 32.0175 70.69 32.575 70 32.575Z" fill="#FF2D3B"/>
</svg>
