<svg width="23" height="20" viewBox="0 0 23 20" fill="none" xmlns="http://www.w3.org/2000/svg">
<path d="M22.2069 0H0.793103C0.355084 0 0 0.355084 0 0.793103V15.069C0 15.507 0.355084 15.8621 0.793103 15.8621H22.2069C22.6449 15.8621 23 15.507 23 15.069V0.793103C23 0.355084 22.6449 0 22.2069 0Z" fill="#FFEAEB"/>
<path d="M21.4138 7.85566V3.52928C21.4122 3.33651 21.2742 3.17192 21.0846 3.1367C20.4715 3.0074 19.9925 2.52841 19.8632 1.91532C19.828 1.72579 19.6634 1.5878 19.4707 1.58618H3.52928C3.33651 1.5878 3.17192 1.72579 3.1367 1.91532C3.0074 2.52841 2.52841 3.0074 1.91532 3.1367C1.72579 3.17192 1.5878 3.33651 1.58618 3.52928V12.3327C1.5878 12.5255 1.72579 12.6901 1.91532 12.7253C2.52841 12.8546 3.0074 13.3336 3.1367 13.9467C3.17192 14.1362 3.33651 14.2742 3.52928 14.2758H12.3922" fill="white"/>
<path d="M13.4827 13.8794V18.5951C13.4683 18.7473 13.543 18.8942 13.6745 18.9722C13.806 19.0502 13.9706 19.0455 14.0974 18.9599L15.6439 17.8218C15.7718 17.7207 15.9523 17.7207 16.0801 17.8218L17.6267 18.9599C17.7534 19.0455 17.9181 19.0502 18.0496 18.9722C18.181 18.8942 18.2557 18.7473 18.2413 18.5951V13.8794" fill="#BF222C"/>
<path d="M15.862 15.4654C15.2806 15.4654 14.8488 14.5418 14.3236 14.3667C13.78 14.1854 12.9012 14.6654 12.4483 14.3276C11.9911 13.9865 12.1678 12.9802 11.8347 12.5121C11.5048 12.0484 10.5137 11.9121 10.3367 11.3554C10.1656 10.8178 10.8827 10.1125 10.8827 9.51712C10.8827 8.92174 10.1657 8.21643 10.3367 7.67875C10.5137 7.12211 11.5049 6.98574 11.8348 6.52205C12.1679 6.05412 11.9912 5.04763 12.4484 4.70663C12.9012 4.36881 13.78 4.8488 14.3237 4.66749C14.8488 4.49242 15.2806 3.56885 15.862 3.56885C16.4434 3.56885 16.8753 4.49242 17.4006 4.66753C17.9443 4.8488 18.8231 4.36885 19.2759 4.70667C19.7331 5.04771 19.5565 6.054 19.8895 6.52213C20.2194 6.98581 21.2106 7.12219 21.3876 7.67883C21.5584 8.21643 20.8414 8.92174 20.8414 9.51712C20.8414 10.1125 21.5584 10.8178 21.3874 11.3555C21.2103 11.9121 20.2192 12.0485 19.8892 12.5122C19.5561 12.9803 19.7328 13.9866 19.2757 14.3276C18.8228 14.6654 17.944 14.1854 17.4004 14.3668C16.8753 14.5418 16.4434 15.4654 15.862 15.4654Z" fill="#FF2D3B"/>
<path d="M15.8622 13.0862C17.8333 13.0862 19.4311 11.4883 19.4311 9.51721C19.4311 7.54612 17.8333 5.94824 15.8622 5.94824C13.8911 5.94824 12.2932 7.54612 12.2932 9.51721C12.2932 11.4883 13.8911 13.0862 15.8622 13.0862Z" fill="white"/>
</svg>
