<svg width="22" height="20" viewBox="0 0 22 20" fill="none" xmlns="http://www.w3.org/2000/svg">
<rect width="21.327" height="19.9091" rx="4" fill="#FFEAEB"/>
<path d="M10.7315 9.83476C12.1542 9.83476 13.3077 8.63596 13.3077 7.15714C13.3077 5.6783 12.929 4.47949 10.7315 4.47949C8.53404 4.47949 8.15527 5.6783 8.15527 7.15714C8.15527 8.63596 9.30872 9.83476 10.7315 9.83476Z" fill="#FF2D3B"/>
<path d="M15.5923 13.8149C15.554 11.7438 15.2923 10.8633 13.6279 10.3563C12.7203 10.0797 11.6809 10.5018 10.7321 10.5018C9.78322 10.5018 8.74373 10.0798 7.83605 10.3563C6.19438 10.8565 5.91756 11.7201 5.8736 13.7312C5.8691 13.936 5.86702 13.9468 5.86621 13.923C5.86694 14.1003 5.91536 14.2755 6.04916 14.3918C6.45076 14.741 7.63523 15.4293 10.7321 15.4293C13.9753 15.4293 15.1211 14.6743 15.4669 14.3446C15.5618 14.2541 15.5974 14.1246 15.5978 13.9935C15.597 14.0082 15.5954 13.9797 15.5923 13.8149Z" fill="#FF2D3B"/>
</svg>
