<svg width="165" height="55" viewBox="0 0 165 55" fill="none" xmlns="http://www.w3.org/2000/svg">
<path fill-rule="evenodd" clip-rule="evenodd" d="M29.6627 50C29.6627 52.7614 32.0464 55 34.9868 55H146.032C148.972 55 151.356 52.7614 151.356 50C151.356 47.2386 148.972 45 146.032 45H141.468C138.528 45 136.144 42.7614 136.144 40C136.144 37.2386 138.528 35 141.468 35H155.919C158.86 35 161.243 32.7614 161.243 30C161.243 27.2386 158.86 25 155.919 25H139.186C142.127 25 144.511 22.7614 144.511 20C144.511 17.2386 142.127 15 139.186 15H90.5093C93.4497 15 95.8333 12.7614 95.8333 10C95.8333 7.23858 93.4497 5 90.5093 5H47.1561C44.2157 5 41.832 7.23858 41.832 10C41.832 12.7614 44.2157 15 47.1561 15H16.7328C13.7924 15 11.4087 17.2386 11.4087 20C11.4087 22.7614 13.7924 25 16.7328 25H35.7474C38.6878 25 41.0714 27.2386 41.0714 30C41.0714 32.7614 38.6878 35 35.7474 35H5.32407C2.38367 35 0 37.2386 0 40C0 42.7614 2.38367 45 5.32407 45H34.9868C32.0464 45 29.6627 47.2386 29.6627 50ZM164.286 50C164.286 52.7614 161.902 55 158.962 55C156.021 55 153.638 52.7614 153.638 50C153.638 47.2386 156.021 45 158.962 45C161.902 45 164.286 47.2386 164.286 50Z" fill="#FFEAEB"/>
<path d="M127.5 2V5.9" stroke="#FF2D3B" stroke-width="2.5" stroke-linecap="round" stroke-linejoin="round"/>
<path d="M127.5 11.1001V15.0001" stroke="#FF2D3B" stroke-width="2.5" stroke-linecap="round" stroke-linejoin="round"/>
<path d="M121 8.5002H124.9" stroke="#FF2D3B" stroke-width="2.5" stroke-linecap="round" stroke-linejoin="round"/>
<path d="M130.1 8.5002H134" stroke="#FF2D3B" stroke-width="2.5" stroke-linecap="round" stroke-linejoin="round"/>
<path d="M36.5 21V24.9" stroke="#FF2D3B" stroke-width="2.5" stroke-linecap="round" stroke-linejoin="round"/>
<path d="M36.5 30.1001V34.0001" stroke="#FF2D3B" stroke-width="2.5" stroke-linecap="round" stroke-linejoin="round"/>
<path d="M30 27.5002H33.9" stroke="#FF2D3B" stroke-width="2.5" stroke-linecap="round" stroke-linejoin="round"/>
<path d="M39.1 27.5002H43" stroke="#FF2D3B" stroke-width="2.5" stroke-linecap="round" stroke-linejoin="round"/>
<path d="M99.6365 38.8708V21.9069H99.1365M99.6365 38.8708L85.8462 16.0181C85.8462 18.9896 88.2635 21.4069 91.235 21.4069H99.1365V21.9069M99.6365 38.8708C99.6381 40.9504 97.9455 42.6429 95.8659 42.6429H92.5978L99.6365 38.8708ZM99.1365 21.9069H91.235C87.9873 21.9069 85.3462 19.2658 85.3462 16.0181V8.11583H77.5433C75.7399 8.11583 74.2711 9.58448 74.2711 11.3888V12.2412H77.4988C77.5451 12.2412 77.5838 12.247 77.6118 12.2528C77.6177 12.254 77.6234 12.2552 77.6287 12.2565C77.7312 12.2664 77.8281 12.2887 77.9211 12.3207L77.9315 12.3241L77.9554 12.3318C77.9747 12.3383 78.0039 12.3485 78.037 12.3633L78.0407 12.365L78.0407 12.365C78.1611 12.4202 78.2977 12.4991 78.4223 12.6224L78.4244 12.6244L78.4244 12.6244L92.2136 26.4128L92.2138 26.413L92.2138 26.4131L92.2141 26.4133L92.2148 26.4141L92.2163 26.4155L92.2192 26.4185L92.2255 26.4251C92.2273 26.427 92.2292 26.4291 92.2312 26.4313C92.2324 26.4326 92.2336 26.434 92.2349 26.4354C92.3467 26.553 92.4206 26.6809 92.4726 26.7947L92.4753 26.8007L92.4753 26.8007C92.4903 26.8347 92.5007 26.8646 92.5069 26.883C92.5113 26.896 92.5132 26.9017 92.5143 26.905C92.5153 26.9081 92.5157 26.9093 92.5168 26.9124L92.5202 26.9217L92.5201 26.9218C92.5529 27.0179 92.5718 27.1117 92.5812 27.2029C92.5828 27.2092 92.5843 27.216 92.5858 27.2232C92.5916 27.2508 92.5978 27.2906 92.5978 27.3386V42.1429H95.8659C97.6694 42.1429 99.1379 40.6742 99.1365 38.8712V38.8708V21.9069ZM101.37 19.671L87.5817 5.88521C87.5813 5.8848 87.5809 5.88438 87.5805 5.88396C87.4552 5.75766 87.3165 5.67845 87.1991 5.62439C87.1587 5.60544 87.1234 5.59385 87.1056 5.58817L87.0839 5.58144C87.0819 5.58082 87.0808 5.58047 87.0804 5.58033L87.0781 5.57953C86.988 5.54916 86.8898 5.52568 86.7842 5.51529C86.7788 5.51403 86.7731 5.51275 86.7671 5.51152C86.7391 5.50581 86.7003 5.5 86.6541 5.5H77.5441C74.2963 5.5 71.6561 8.14123 71.6561 11.3888V12.2412H68.3888C65.1411 12.2412 62.5 14.8824 62.5 18.13V45.612C62.5 48.8598 65.1412 51.5 68.3888 51.5H86.7099C89.9566 51.5 92.5978 48.8597 92.5978 45.612V44.7588H95.8659C99.1136 44.7588 101.754 42.1184 101.754 38.8708V20.5982C101.754 20.5514 101.748 20.5121 101.742 20.4835C101.741 20.4759 101.739 20.4687 101.737 20.4622C101.727 20.368 101.707 20.2737 101.675 20.1795L101.674 20.1765C101.674 20.1768 101.673 20.1756 101.672 20.1707L101.665 20.1484C101.658 20.1289 101.647 20.0944 101.629 20.0552L101.628 20.0523C101.599 19.9899 101.563 19.9218 101.517 19.8528V19.8191L101.516 19.8183V19.8174L101.37 19.671ZM72.964 14.8571H76.1917V22.7586C76.1917 26.0062 78.832 28.6465 82.0789 28.6465H89.9812V43.45V43.4502L89.982 45.6112C89.982 45.6113 89.982 45.6113 89.982 45.6114C89.9819 47.4147 88.5132 48.8834 86.7099 48.8834H68.3888C66.5845 48.8834 65.1158 47.4146 65.1158 45.6112V18.13C65.1158 16.3258 66.5846 14.8571 68.3888 14.8571H72.964ZM87.9628 9.96533L97.2878 19.2903H91.2358C89.4315 19.2903 87.9628 17.8216 87.9628 16.0173V9.96533ZM88.1325 26.0307H82.0797C80.2763 26.0307 78.8084 24.5629 78.8084 22.7586V16.7066L88.1325 26.0307Z" fill="#F83633" stroke="#F83633"/>
</svg>
