<svg width="162" height="67" viewBox="0 0 162 67" fill="none" xmlns="http://www.w3.org/2000/svg">
<path opacity="0.3" fill-rule="evenodd" clip-rule="evenodd" d="M29.2244 57.335C29.2244 60.0556 31.5728 62.2611 34.4698 62.2611H143.874C146.771 62.2611 149.119 60.0556 149.119 57.335C149.119 54.6144 146.771 52.4089 143.874 52.4089H139.378C136.481 52.4089 134.132 50.2034 134.132 47.4828C134.132 44.7622 136.481 42.5567 139.378 42.5567H153.615C156.512 42.5567 158.861 40.3512 158.861 37.6306C158.861 34.9099 156.512 32.7045 153.615 32.7045H137.13C140.027 32.7045 142.375 30.499 142.375 27.7783C142.375 25.0577 140.027 22.8522 137.13 22.8522H89.1718C92.0687 22.8522 94.4172 20.6467 94.4172 17.9261C94.4172 15.2055 92.0687 13 89.1718 13H46.4592C43.5623 13 41.2138 15.2055 41.2138 17.9261C41.2138 20.6467 43.5623 22.8522 46.4592 22.8522H16.4855C13.5886 22.8522 11.2401 25.0577 11.2401 27.7783C11.2401 30.499 13.5886 32.7045 16.4855 32.7045H35.2191C38.1161 32.7045 40.4645 34.9099 40.4645 37.6306C40.4645 40.3512 38.1161 42.5567 35.2191 42.5567H5.2454C2.34844 42.5567 0 44.7622 0 47.4828C0 50.2034 2.34844 52.4089 5.2454 52.4089H34.4698C31.5728 52.4089 29.2244 54.6144 29.2244 57.335ZM161.858 57.3351C161.858 60.0557 159.51 62.2612 156.613 62.2612C153.716 62.2612 151.367 60.0557 151.367 57.3351C151.367 54.6145 153.716 52.409 156.613 52.409C159.51 52.409 161.858 54.6145 161.858 57.3351Z" fill="#FED7D6"/>
<path d="M108.5 1V4.9" stroke="#F83633" stroke-linecap="round" stroke-linejoin="round"/>
<path d="M108.5 10.1V14" stroke="#F83633" stroke-linecap="round" stroke-linejoin="round"/>
<path d="M102 7.5H105.9" stroke="#F83633" stroke-linecap="round" stroke-linejoin="round"/>
<path d="M111.1 7.5H115" stroke="#F83633" stroke-linecap="round" stroke-linejoin="round"/>
<path d="M45.5 53V56.9" stroke="#F83633" stroke-linecap="round" stroke-linejoin="round"/>
<path d="M45.5 62.1V66" stroke="#F83633" stroke-linecap="round" stroke-linejoin="round"/>
<path d="M39 59.5H42.9" stroke="#F83633" stroke-linecap="round" stroke-linejoin="round"/>
<path d="M48.1 59.5H52" stroke="#F83633" stroke-linecap="round" stroke-linejoin="round"/>
<path d="M99.2651 47.088H71.8673V10.5578H90.1325L99.2651 19.6904V47.088Z" fill="white"/>
<path d="M80.704 19.7944C78.5299 19.7944 76.7674 18.032 76.7674 15.8579V10.5578H71.8673V19.7944V47.088H76.7674H93.0725V32.085C93.0725 31.1657 92.7073 30.2841 92.0573 29.6341L83.2881 20.8648C82.6027 20.1795 81.6733 19.7944 80.704 19.7944Z" fill="#FED7D6"/>
<path d="M90.1324 10.5578V19.6904H99.265L90.1324 10.5578Z" fill="#F83633"/>
<path d="M90.1324 59.2648H62.7347V22.7345H80.9999L90.1324 31.8671V59.2648Z" fill="white"/>
<path d="M62.7347 22.7345H67.6348V59.2648H62.7347V22.7345Z" fill="#FED7D6"/>
<path d="M80.9999 22.7345V31.8671H90.1325L80.9999 22.7345Z" fill="#F83633"/>
<path d="M99.2646 31C99.6706 31 99.9996 30.6709 99.9996 30.265V19.7131C100.006 19.511 99.9295 19.3253 99.7697 19.156L90.6525 10.0379C90.5147 9.90008 90.3277 9.82256 90.1327 9.82256H71.8669C71.4609 9.82256 71.1319 10.1516 71.1319 10.5576V21.9994H62.735C62.329 21.9994 62 22.3285 62 22.7344V30.265C62 30.6709 62.329 31 62.735 31C63.141 31 63.47 30.6709 63.47 30.265V23.4694H80.2649V31.8671C80.2649 32.273 80.5939 32.6021 80.9999 32.6021H89.3977V58.5299H82.6011C82.195 58.5299 81.8661 58.859 81.8661 59.265C81.8661 59.6709 82.195 60 82.6011 60H90.1327C90.5387 60 90.8677 59.6709 90.8677 59.265V47.8231H99.2646C99.6706 47.8231 99.9996 47.494 99.9996 47.0881V33.4687C99.9996 33.0627 99.6706 32.7337 99.2646 32.7337C98.8586 32.7337 98.5296 33.0627 98.5296 33.4687V46.3531H90.8677V31.8673C90.8677 31.6729 90.7901 31.4852 90.6525 31.3476L81.5196 22.2147C81.3858 22.0811 81.1886 21.9994 80.9998 21.9994H72.6019V11.2926H89.3975V19.6904C89.3975 20.0963 89.7265 20.4254 90.1325 20.4254H98.5297V30.265C98.5296 30.6709 98.8587 31 99.2646 31ZM81.7349 24.509L88.3581 31.1321H81.7349V24.509ZM90.8675 12.3319L97.4901 18.9553H90.8675V12.3319Z" fill="#F83633"/>
<path d="M79.3984 58.53H63.47V33.4687C63.47 33.0628 63.141 32.7337 62.735 32.7337C62.329 32.7337 62 33.0628 62 33.4687V59.265C62 59.6709 62.329 60 62.735 60H79.3984C79.8045 60 80.1335 59.6709 80.1335 59.265C80.1335 58.8591 79.8045 58.53 79.3984 58.53Z" fill="#F83633"/>
</svg>
