<svg width="22" height="20" viewBox="0 0 22 20" fill="none" xmlns="http://www.w3.org/2000/svg">
<rect width="21.327" height="19.9091" rx="4" fill="#FFEAEB"/>
<path d="M10.8086 15C10.75 14.9509 7 13.9772 7 10V6.19141H7.97931C9.98683 6.19141 10.6778 5.07416 10.8086 5C10.9468 5.07835 11.6199 6.19141 13.6379 6.19141H14.6172V10C14.6172 13.9774 10.8672 14.9509 10.8086 15Z" fill="#FF2D3B"/>
<path d="M10.8086 12.6367C9.35466 12.6367 8.17188 11.4539 8.17188 10C8.17188 8.54607 9.35466 7.36328 10.8086 7.36328C12.2625 7.36328 13.4453 8.54607 13.4453 10C13.4453 11.4539 12.2625 12.6367 10.8086 12.6367Z" fill="#FFEAEB"/>
<path d="M10.5157 11.2933L9.42969 10.2072L9.84396 9.79297L10.5157 10.4647L11.7734 9.20703L12.1877 9.62131L10.5157 11.2933Z" fill="#BF222C"/>
</svg>
