<svg width="23" height="20" viewBox="0 0 23 20" fill="none" xmlns="http://www.w3.org/2000/svg">
<path d="M5.06887 8.17357V11.3416C5.06887 11.8485 4.62534 12.292 4.11846 12.292H0.950413C0.443526 12.292 0 11.8485 0 11.3416V8.17357C0 7.66668 0.443526 7.22316 0.950413 7.22316H4.11846C4.62534 7.22316 5.06887 7.60332 5.06887 8.17357Z" fill="#BF222C"/>
<path d="M22.0496 7.22316H8.42703H7.92014C7.41325 7.22316 6.96973 7.66668 6.96973 8.17357V11.3416C6.96973 11.8485 7.41325 12.292 7.92014 12.292H8.42703H22.0496C22.5565 12.292 23 11.8485 23 11.3416V8.17357C23 7.60332 22.5565 7.22316 22.0496 7.22316Z" fill="#FF2D3B"/>
<path d="M4.11846 0H0.950413C0.443526 0 0 0.443526 0 0.950413V4.11846C0 4.62534 0.443526 5.06887 0.950413 5.06887H4.11846C4.62534 5.06887 5.06887 4.62534 5.06887 4.11846V0.950413C5.06887 0.443526 4.62534 0 4.11846 0Z" fill="#BF222C"/>
<path d="M22.0496 0H8.42703H7.92014C7.41325 0 6.96973 0.443526 6.96973 0.950413V4.11846C6.96973 4.62534 7.41325 5.06887 7.92014 5.06887H8.42703H22.0496C22.5565 5.06887 23 4.62534 23 4.11846V0.950413C23 0.443526 22.5565 0 22.0496 0Z" fill="#FF2D3B"/>
<path d="M4.11846 14.3829H0.950413C0.443526 14.3829 0 14.8265 0 15.3333V18.5014C0 19.0083 0.443526 19.4518 0.950413 19.4518H4.11846C4.62534 19.4518 5.06887 19.0083 5.06887 18.5014V15.3333C5.06887 14.8265 4.62534 14.3829 4.11846 14.3829Z" fill="#BF222C"/>
<path d="M22.0496 14.3829H8.42703H7.92014C7.41325 14.3829 6.96973 14.8265 6.96973 15.3333V18.5014C6.96973 19.0083 7.41325 19.4518 7.92014 19.4518H8.42703H22.0496C22.5565 19.4518 23 19.0083 23 18.5014V15.3333C23 14.8265 22.5565 14.3829 22.0496 14.3829Z" fill="#FF2D3B"/>
</svg>
