<svg width="32" height="32" viewBox="0 0 32 32" fill="none" xmlns="http://www.w3.org/2000/svg">
<rect width="32" height="32" rx="4" fill="#E8FDFD"/>
<path d="M25.4096 14.0228C25.526 13.9667 25.6 13.8489 25.6 13.7196C25.6 13.5904 25.526 13.4726 25.4096 13.4165L17.7317 9.71803C16.6348 9.18962 15.3569 9.18962 14.2599 9.71803L6.59414 13.4106C6.47547 13.4678 6.40002 13.5879 6.40002 13.7196C6.40002 13.8513 6.47547 13.9714 6.59414 14.0286L14.2599 17.7213C15.3569 18.2497 16.6348 18.2497 17.7318 17.7213L25.4096 14.0228Z" fill="#40EAEA"/>
<path d="M11.5105 17.2402C10.6836 16.8419 9.72449 17.4445 9.72449 18.3623C9.72449 18.8407 9.99848 19.2768 10.4295 19.4844L15.0717 21.7206C15.36 21.8595 15.6758 21.9316 15.9957 21.9316C16.3156 21.9316 16.6314 21.8595 16.9197 21.7206L22.228 19.1636C22.2429 19.1564 22.2548 19.1443 22.2613 19.1291C22.2651 19.1204 22.267 19.111 22.267 19.1016V18.8061C22.267 17.6828 21.0932 16.9453 20.0811 17.4328L17.4527 18.6989C16.532 19.1424 15.4594 19.1424 14.5387 18.6989L11.5105 17.2402Z" fill="#40EAEA"/>
<path d="M24.705 20.9641C24.6279 20.7291 24.5886 20.4834 24.5886 20.2361V15.8473C24.5886 15.5644 24.2904 15.3809 24.0378 15.5082C23.9098 15.5728 23.829 15.7039 23.829 15.8473V20.2361C23.829 20.4834 23.7897 20.7291 23.7126 20.9641L23.5326 21.5125C23.4082 21.8915 23.4762 22.3074 23.715 22.627L24.0065 23.0171C24.0541 23.0809 24.1291 23.1185 24.2088 23.1185C24.2884 23.1185 24.3634 23.0809 24.4111 23.0171L24.7026 22.627C24.9413 22.3074 25.0094 21.8915 24.885 21.5125L24.705 20.9641Z" fill="#40EAEA"/>
</svg>
