<svg width="17" height="16" viewBox="0 0 17 16" fill="none" xmlns="http://www.w3.org/2000/svg">
<path d="M0.665173 1.42526L10.7933 1.42526C11.0718 0.597815 11.854 -4.50111e-07 12.7737 -3.69666e-07C13.6934 -2.89221e-07 14.4756 0.597816 14.7541 1.42526L16.335 1.42526C16.7023 1.42526 17 1.72314 17 2.09058C17 2.45802 16.7023 2.7559 16.335 2.7559L14.7541 2.7559C14.4756 3.58335 13.6934 4.18116 12.7737 4.18116C11.8539 4.18116 11.0717 3.58335 10.7933 2.7559L0.665128 2.7559C0.297882 2.7559 0.000148326 2.45802 0.000148358 2.09058C0.00014839 1.72314 0.297882 1.42526 0.665173 1.42526V1.42526ZM12.7737 2.85051C13.1925 2.85051 13.5332 2.5096 13.5332 2.09058C13.5332 1.67156 13.1925 1.33065 12.7737 1.33065C12.3549 1.33065 12.0142 1.67156 12.0142 2.09058C12.0142 2.5096 12.3549 2.85051 12.7737 2.85051Z" fill="#011727"/>
<path d="M0.665173 7.12631L2.24614 7.12631C2.52459 6.29886 3.30687 5.70105 4.22654 5.70105C5.14621 5.70105 5.92844 6.29886 6.20689 7.12631L16.335 7.12631C16.7023 7.12631 17 7.42419 17 7.79163C17 8.15907 16.7023 8.45695 16.335 8.45695L6.20689 8.45695C5.92844 9.2844 5.14616 9.88221 4.22649 9.88221C3.30683 9.88221 2.52454 9.28439 2.2461 8.45695L0.665128 8.45695C0.297882 8.45695 0.000148326 8.15907 0.000148358 7.79163C0.00014839 7.42419 0.297882 7.12631 0.665173 7.12631ZM4.22649 8.55156C4.6453 8.55156 4.98603 8.21065 4.98603 7.79163C4.98603 7.37261 4.6453 7.0317 4.22649 7.0317C3.80769 7.0317 3.46695 7.37261 3.46695 7.79163C3.46695 8.21065 3.80769 8.55156 4.22649 8.55156Z" fill="#011727"/>
<path d="M0.665173 12.8275L7.94422 12.8275C8.22267 12 9.0049 11.4022 9.92462 11.4022C10.8443 11.4022 11.6266 12 11.905 12.8275L16.335 12.8275C16.7023 12.8275 17 13.1254 17 13.4928C17 13.8602 16.7023 14.1581 16.335 14.1581L11.905 14.1581C11.6266 14.9856 10.8443 15.5834 9.92462 15.5834C9.0049 15.5834 8.22267 14.9856 7.94422 14.1581L0.665128 14.1581C0.297882 14.1581 0.000148326 13.8602 0.000148358 13.4928C0.00014839 13.1254 0.297882 12.8275 0.665173 12.8275ZM9.92462 14.2528C10.3434 14.2528 10.6842 13.9119 10.6842 13.4928C10.6842 13.0738 10.3434 12.7329 9.92462 12.7329C9.50581 12.7329 9.16508 13.0738 9.16508 13.4928C9.16508 13.9118 9.50581 14.2528 9.92462 14.2528V14.2528Z" fill="#011727"/>
</svg>
