<svg width="17" height="16" viewBox="0 0 17 16" fill="none" xmlns="http://www.w3.org/2000/svg">
<path d="M0.665172 1.42526L10.7933 1.42526C11.0718 0.597815 11.854 -4.50111e-07 12.7737 -3.69666e-07C13.6934 -2.89221e-07 14.4756 0.597816 14.7541 1.42526L16.335 1.42526C16.7023 1.42526 17 1.72314 17 2.09058C17 2.45802 16.7023 2.7559 16.335 2.7559L14.7541 2.7559C14.4756 3.58335 13.6934 4.18116 12.7737 4.18116C11.8539 4.18116 11.0717 3.58335 10.7933 2.7559L0.665128 2.7559C0.297882 2.7559 0.000148558 2.45802 0.000148591 2.09058C0.000148623 1.72314 0.297882 1.42526 0.665172 1.42526ZM12.7737 2.85051C13.1925 2.85051 13.5332 2.5096 13.5332 2.09058C13.5332 1.67156 13.1925 1.33065 12.7737 1.33065C12.3549 1.33065 12.0142 1.67156 12.0142 2.09058C12.0142 2.5096 12.3549 2.85051 12.7737 2.85051Z" fill="white"/>
<path d="M0.665172 7.12635L2.24614 7.12635C2.52459 6.29891 3.30687 5.70109 4.22654 5.70109C5.14621 5.70109 5.92844 6.29891 6.20689 7.12635L16.335 7.12635C16.7023 7.12635 17 7.42424 17 7.79168C17 8.15911 16.7023 8.457 16.335 8.457L6.20689 8.457C5.92844 9.28444 5.14616 9.88226 4.22649 9.88226C3.30683 9.88226 2.52455 9.28444 2.2461 8.457L0.665128 8.457C0.297882 8.457 0.000148559 8.15911 0.000148591 7.79168C0.000148623 7.42424 0.297882 7.12635 0.665172 7.12635ZM4.22649 8.55161C4.6453 8.55161 4.98603 8.2107 4.98603 7.79168C4.98603 7.37265 4.6453 7.03174 4.22649 7.03174C3.80769 7.03174 3.46695 7.37265 3.46695 7.79168C3.46695 8.2107 3.80769 8.55161 4.22649 8.55161Z" fill="white"/>
<path d="M0.665172 12.8274L7.94422 12.8274C8.22267 12 9.0049 11.4022 9.92462 11.4022C10.8443 11.4022 11.6266 12 11.905 12.8274L16.335 12.8274C16.7023 12.8274 17 13.1253 17 13.4928C17 13.8602 16.7023 14.1581 16.335 14.1581L11.905 14.1581C11.6266 14.9855 10.8443 15.5833 9.92462 15.5833C9.0049 15.5833 8.22267 14.9855 7.94422 14.1581L0.665128 14.1581C0.297882 14.1581 0.000148559 13.8602 0.000148591 13.4928C0.000148623 13.1253 0.297882 12.8274 0.665172 12.8274ZM9.92462 14.2527C10.3434 14.2527 10.6842 13.9118 10.6842 13.4928C10.6842 13.0738 10.3434 12.7329 9.92462 12.7329C9.50581 12.7329 9.16508 13.0737 9.16508 13.4928C9.16508 13.9118 9.50581 14.2527 9.92462 14.2527Z" fill="white"/>
</svg>
