<svg width="44" height="44" viewBox="0 0 44 44" fill="none" xmlns="http://www.w3.org/2000/svg">
<rect width="44" height="44" rx="8" fill="#A0AABB"/>
<path d="M22.1263 21.7376C24.7947 21.7376 26.9581 19.1101 26.9581 15.8688C26.9581 12.6275 26.2478 10 22.1263 10C18.0048 10 17.2944 12.6275 17.2944 15.8688C17.2944 19.1101 19.4578 21.7376 22.1263 21.7376Z" fill="white"/>
<path d="M31.2419 30.4615C31.1524 24.8152 30.4149 23.2063 24.772 22.1879C24.772 22.1879 23.9777 23.2001 22.1262 23.2001C20.2748 23.2001 19.4803 22.1879 19.4803 22.1879C13.899 23.1952 13.1167 24.7802 13.0139 30.2781C13.0054 30.727 13.0015 30.7506 13 30.6985C13.0003 30.7961 13.0008 30.9768 13.0008 31.2917C13.0008 31.2917 14.3442 34 22.1262 34C29.9081 34 31.2517 31.2917 31.2517 31.2917C31.2517 31.0893 31.2519 30.9486 31.2521 30.8529C31.2506 30.8851 31.2475 30.8227 31.2419 30.4615Z" fill="white"/>
</svg>
