<svg width="55" height="59" viewBox="0 0 55 59" fill="none" xmlns="http://www.w3.org/2000/svg">
<path d="M0.556396 3.6255C0.556396 1.68279 2.13127 0.10791 4.07398 0.10791L50.9716 0.10791C52.9143 0.10791 54.4892 1.68279 54.4892 3.6255V55.4824C54.4892 57.4251 52.9143 59 50.9716 59H4.07399C2.13128 59 0.556396 57.4251 0.556396 55.4824L0.556396 3.6255Z" fill="#D8D8D8"/>
<path d="M27.6939 29.1993C31.2917 29.1993 34.2086 25.6532 34.2086 21.2788C34.2086 16.9043 33.251 13.3582 27.6939 13.3582C22.1368 13.3582 21.179 16.9043 21.179 21.2788C21.179 25.6532 24.0959 29.1993 27.6939 29.1993Z" fill="white"/>
<path d="M15.3897 41.2942C15.3886 41.0267 15.3875 41.2188 15.3897 41.2942V41.2942Z" fill="white"/>
<path d="M39.9998 41.5025C40.0033 41.4293 40.001 40.9944 39.9998 41.5025V41.5025Z" fill="white"/>
<path d="M39.9843 40.9728C39.8636 33.3525 38.8693 31.1811 31.2608 29.8066C31.2608 29.8066 30.1898 31.1727 27.6935 31.1727C25.1972 31.1727 24.126 29.8066 24.126 29.8066C16.6005 31.1661 15.5458 33.3053 15.4071 40.7253C15.3957 41.3311 15.3905 41.363 15.3884 41.2926C15.3889 41.4244 15.3894 41.6682 15.3894 42.0933C15.3894 42.0933 17.2008 45.7484 27.6935 45.7484C38.186 45.7484 39.9976 42.0933 39.9976 42.0933C39.9976 41.8202 39.9978 41.6303 39.998 41.5011C39.996 41.5446 39.9919 41.4602 39.9843 40.9728Z" fill="white"/>
</svg>
