<svg width="193" height="152" viewBox="0 0 193 152" fill="none" xmlns="http://www.w3.org/2000/svg">
<path fill-rule="evenodd" clip-rule="evenodd" d="M34.8472 104C34.8472 107.866 37.6475 111 41.1019 111H171.556C175.01 111 177.81 107.866 177.81 104C177.81 100.134 175.01 97 171.556 97H166.194C162.74 97 159.94 93.866 159.94 90C159.94 86.134 162.74 83 166.194 83H183.171C186.626 83 189.426 79.866 189.426 76C189.426 72.134 186.626 69 183.171 69H163.514C166.968 69 169.769 65.866 169.769 62C169.769 58.134 166.968 55 163.514 55H106.329C109.783 55 112.583 51.866 112.583 48C112.583 44.134 109.783 41 106.329 41H55.3981C51.9438 41 49.1435 44.134 49.1435 48C49.1435 51.866 51.9438 55 55.3981 55H19.6574C16.2031 55 13.4028 58.134 13.4028 62C13.4028 65.866 16.2031 69 19.6574 69H41.9954C45.4497 69 48.25 72.134 48.25 76C48.25 79.866 45.4497 83 41.9954 83H6.25463C2.80029 83 0 86.134 0 90C0 93.866 2.80029 97 6.25463 97H41.1019C37.6475 97 34.8472 100.134 34.8472 104ZM193 104C193 107.866 190.2 111 186.745 111C183.291 111 180.491 107.866 180.491 104C180.491 100.134 183.291 97 186.745 97C190.2 97 193 100.134 193 104Z" fill="#F3E0DC" fill-opacity="0.76"/>
<g filter="url(#filter0_d)">
<rect x="52" y="4" width="97" height="144" rx="4" fill="white"/>
<path d="M52.2695 8C52.2695 5.79086 54.0604 4 56.2695 4L144.852 4C147.061 4 148.852 5.79086 148.852 8V36.7847H52.2695V8Z" fill="#F3E0DC"/>
<rect x="60.2461" y="44.7578" width="22.1518" height="2.65822" rx="1.32911" fill="#D8D8D8"/>
<rect x="60.2461" y="87" width="22.1518" height="2.65822" rx="1.32911" fill="#D8D8D8"/>
<rect x="108.977" y="44.7578" width="22.1518" height="2.65822" rx="1.32911" fill="#D8D8D8"/>
<rect x="108.977" y="87" width="22.1518" height="2.65822" rx="1.32911" fill="#D8D8D8"/>
<rect x="60.2461" y="66.0234" width="22.1518" height="2.65822" rx="1.32911" fill="#D8D8D8"/>
<rect x="60.2461" y="108.266" width="22.1518" height="2.65822" rx="1.32911" fill="#D8D8D8"/>
<rect x="60.2461" y="129" width="22.1518" height="2.65822" rx="1.32911" fill="#D8D8D8"/>
<rect x="108.977" y="66.0234" width="22.1518" height="2.65822" rx="1.32911" fill="#D8D8D8"/>
<rect x="108.977" y="108.266" width="22.1518" height="2.65822" rx="1.32911" fill="#D8D8D8"/>
<rect x="108.977" y="129" width="22.1518" height="2.65822" rx="1.32911" fill="#D8D8D8"/>
<rect x="60" y="18" width="31.0126" height="4.43037" rx="2.21518" fill="#E9C7D8"/>
<rect x="119" y="18" width="24" height="5" rx="2.5" fill="#B71B62"/>
<rect x="60.2422" y="50.9609" width="31.0126" height="4.43037" rx="2.21518" fill="#808080"/>
<rect x="60.2422" y="93.2031" width="31.0126" height="4.43037" rx="2.21518" fill="#808080"/>
<rect x="108.977" y="50.9609" width="31.0126" height="4.43037" rx="2.21518" fill="#808080"/>
<rect x="108.977" y="93.2031" width="31.0126" height="4.43037" rx="2.21518" fill="#808080"/>
<rect x="60.2461" y="72.2266" width="31.0126" height="4.43037" rx="2.21518" fill="#808080"/>
<rect x="60.2461" y="114.469" width="31.0126" height="4.43037" rx="2.21518" fill="#808080"/>
<rect x="60.2461" y="135.203" width="31.0126" height="4.43037" rx="2.21518" fill="#808080"/>
<rect x="108.977" y="72.2266" width="31.0126" height="4.43037" rx="2.21518" fill="#808080"/>
<rect x="108.977" y="114.469" width="31.0126" height="4.43037" rx="2.21518" fill="#808080"/>
<rect x="108.977" y="135.203" width="31.0126" height="4.43037" rx="2.21518" fill="#808080"/>
</g>
<line x1="52" y1="36" x2="149" y2="36" stroke="#B71B62" stroke-width="2"/>
<defs>
<filter id="filter0_d" x="48" y="0" width="105" height="152" filterUnits="userSpaceOnUse" color-interpolation-filters="sRGB">
<feFlood flood-opacity="0" result="BackgroundImageFix"/>
<feColorMatrix in="SourceAlpha" type="matrix" values="0 0 0 0 0 0 0 0 0 0 0 0 0 0 0 0 0 0 127 0"/>
<feOffset/>
<feGaussianBlur stdDeviation="2"/>
<feColorMatrix type="matrix" values="0 0 0 0 0 0 0 0 0 0 0 0 0 0 0 0 0 0 0.25 0"/>
<feBlend mode="normal" in2="BackgroundImageFix" result="effect1_dropShadow"/>
<feBlend mode="normal" in="SourceGraphic" in2="effect1_dropShadow" result="shape"/>
</filter>
</defs>
</svg>
