<svg width="193" height="70" viewBox="0 0 193 70" fill="none" xmlns="http://www.w3.org/2000/svg">
<path fill-rule="evenodd" clip-rule="evenodd" d="M34.8472 63C34.8472 66.866 37.6475 70 41.1019 70H171.556C175.01 70 177.81 66.866 177.81 63C177.81 59.134 175.01 56 171.556 56H166.194C162.74 56 159.94 52.866 159.94 49C159.94 45.134 162.74 42 166.194 42H183.171C186.626 42 189.426 38.866 189.426 35C189.426 31.134 186.626 28 183.171 28H163.514C166.968 28 169.769 24.866 169.769 21C169.769 17.134 166.968 14 163.514 14H106.329C109.783 14 112.583 10.866 112.583 7C112.583 3.13401 109.783 0 106.329 0H55.3981C51.9438 0 49.1435 3.13401 49.1435 7C49.1435 10.866 51.9438 14 55.3981 14H19.6574C16.2031 14 13.4028 17.134 13.4028 21C13.4028 24.866 16.2031 28 19.6574 28H41.9954C45.4497 28 48.25 31.134 48.25 35C48.25 38.866 45.4497 42 41.9954 42H6.25463C2.80029 42 0 45.134 0 49C0 52.866 2.80029 56 6.25463 56H41.1019C37.6475 56 34.8472 59.134 34.8472 63ZM193 63C193 66.866 190.2 70 186.745 70C183.291 70 180.491 66.866 180.491 63C180.491 59.134 183.291 56 186.745 56C190.2 56 193 59.134 193 63Z" fill="#FFEAEB"/>
<g filter="url(#filter0_d)">
<rect x="43" y="12" width="100" height="53" rx="4" fill="white"/>
</g>
<path d="M43 16C43 13.7909 44.7909 12 47 12L139 12C141.209 12 143 13.7909 143 16V30L43 30V16Z" fill="#D8D8D8"/>
<path d="M50 39C50 36.7909 51.7909 35 54 35H66C68.2091 35 70 36.7909 70 39V51C70 53.2091 68.2091 55 66 55H54C51.7909 55 50 53.2091 50 51V39Z" fill="#FFEAEB"/>
<path d="M60.0636 44.8797C61.3978 44.8797 62.4795 43.6754 62.4795 42.1899C62.4795 40.7043 62.1244 39.5 60.0636 39.5C58.0029 39.5 57.6477 40.7043 57.6477 42.1899C57.6477 43.6754 58.7294 44.8797 60.0636 44.8797Z" fill="#FF2D3B"/>
<path d="M55.5005 48.987C55.5001 48.8964 55.4997 48.9615 55.5005 48.987V48.987Z" fill="#FF2D3B"/>
<path d="M64.6265 49.0579C64.6278 49.0331 64.6269 48.8858 64.6265 49.0579V49.0579Z" fill="#FF2D3B"/>
<path d="M64.6214 48.878C64.5767 46.2901 64.208 45.5527 61.3865 45.0859C61.3865 45.0859 60.9893 45.5499 60.0636 45.5499C59.1379 45.5499 58.7407 45.0859 58.7407 45.0859C55.95 45.5476 55.5588 46.2741 55.5074 48.7939C55.5032 48.9997 55.5012 49.0105 55.5005 48.9866C55.5007 49.0314 55.5009 49.1142 55.5009 49.2585C55.5009 49.2585 56.1726 50.4998 60.0636 50.4998C63.9546 50.4998 64.6264 49.2585 64.6264 49.2585C64.6264 49.1658 64.6264 49.1013 64.6265 49.0574C64.6258 49.0722 64.6243 49.0436 64.6214 48.878Z" fill="#FF2D3B"/>
<rect x="50" y="16" width="27" height="3" rx="1.5" fill="#BABABA"/>
<rect x="75" y="36" width="18" height="2" rx="1" fill="#808080"/>
<rect x="75" y="47" width="18" height="2" rx="1" fill="#808080"/>
<rect x="108" y="36" width="18" height="2" rx="1" fill="#808080"/>
<rect x="108" y="47" width="18" height="2" rx="1" fill="#808080"/>
<rect x="75" y="40" width="25" height="3" rx="1.5" fill="#D8D8D8"/>
<rect x="75" y="51" width="25" height="3" rx="1.5" fill="#D8D8D8"/>
<rect x="108" y="40" width="25" height="3" rx="1.5" fill="#D8D8D8"/>
<rect x="108" y="51" width="25" height="3" rx="1.5" fill="#D8D8D8"/>
<rect x="49.8129" y="21.4824" width="46" height="4" rx="2" fill="#808080"/>
<defs>
<filter id="filter0_d" x="39" y="8" width="108" height="61" filterUnits="userSpaceOnUse" color-interpolation-filters="sRGB">
<feFlood flood-opacity="0" result="BackgroundImageFix"/>
<feColorMatrix in="SourceAlpha" type="matrix" values="0 0 0 0 0 0 0 0 0 0 0 0 0 0 0 0 0 0 127 0"/>
<feOffset/>
<feGaussianBlur stdDeviation="2"/>
<feColorMatrix type="matrix" values="0 0 0 0 0 0 0 0 0 0 0 0 0 0 0 0 0 0 0.2 0"/>
<feBlend mode="normal" in2="BackgroundImageFix" result="effect1_dropShadow"/>
<feBlend mode="normal" in="SourceGraphic" in2="effect1_dropShadow" result="shape"/>
</filter>
</defs>
</svg>
