<svg width="22" height="20" viewBox="0 0 22 20" fill="none" xmlns="http://www.w3.org/2000/svg">
<rect width="21.327" height="19.9091" rx="4" fill="#FFEAEB"/>
<path d="M8.23914 10.6264V8.71605C8.23914 8.57819 8.2589 8.44376 8.2959 8.31543H7.00775C6.79886 8.31543 6.60942 8.40042 6.47224 8.5376C6.33507 8.67477 6.25 8.86429 6.25 9.0731V10.5932C6.25 10.7782 6.31752 10.9486 6.42937 11.0811C6.4875 11.1501 6.55785 11.2085 6.63704 11.2532V13.4626C6.63704 13.6241 6.76796 13.755 6.9294 13.755H8.72551V11.7126C8.41843 11.4353 8.23914 11.0403 8.23914 10.6264Z" fill="#FF2D3B"/>
<path d="M7.82907 7.96967C8.46071 7.96967 8.97455 7.45583 8.97455 6.82419C8.97455 6.19255 8.46071 5.67871 7.82907 5.67871C7.19743 5.67871 6.68359 6.19255 6.68359 6.82419C6.68359 7.45583 7.19743 7.96967 7.82907 7.96967Z" fill="#FF2D3B"/>
<path d="M11.7667 7.83887H9.70137C9.45967 7.83887 9.24033 7.93736 9.08148 8.09613C8.92264 8.25497 8.82422 8.47432 8.82422 8.7161V10.6264C8.82422 10.8407 8.90234 11.0379 9.03166 11.1912C9.10834 11.2821 9.20325 11.3572 9.31059 11.4109V14.2326C9.31059 14.3941 9.44151 14.525 9.60303 14.525H11.8651C12.0267 14.525 12.1576 14.3941 12.1576 14.2326V11.4109C12.2649 11.3572 12.3598 11.2821 12.4364 11.1912C12.5658 11.0379 12.644 10.8407 12.644 10.6264V8.7161C12.644 8.47432 12.5455 8.25497 12.3867 8.09621C12.2278 7.93736 12.0085 7.83887 11.7667 7.83887Z" fill="#BF222C"/>
<path d="M10.7337 7.25443C11.4861 7.25443 12.0982 6.64232 12.0982 5.88991C12.0982 5.1375 11.4861 4.52539 10.7337 4.52539C9.98125 4.52539 9.36914 5.1375 9.36914 5.88991C9.36914 6.64232 9.98125 7.25443 10.7337 7.25443Z" fill="#BF222C"/>
<path d="M15.0347 8.5376C14.8975 8.40042 14.7081 8.31543 14.4992 8.31543H13.1718C13.2087 8.44376 13.2286 8.57819 13.2286 8.71605V10.6264C13.2286 11.0403 13.0493 11.4353 12.7422 11.7126V13.7529C12.7537 13.7543 12.7655 13.755 12.7775 13.755H14.5774C14.739 13.755 14.8699 13.6241 14.8699 13.4626V11.2532C14.949 11.2086 15.0193 11.1501 15.0775 11.0811C15.1894 10.9486 15.2569 10.7782 15.2569 10.5932V9.0731C15.2569 8.86429 15.1718 8.67477 15.0347 8.5376Z" fill="#FF2D3B"/>
<path d="M13.6767 7.96967C14.3084 7.96967 14.8222 7.45583 14.8222 6.82419C14.8222 6.19255 14.3084 5.67871 13.6767 5.67871C13.0452 5.67871 12.5312 6.19255 12.5312 6.82419C12.5312 7.45583 13.0452 7.96967 13.6767 7.96967Z" fill="#FF2D3B"/>
</svg>
