<svg width="162" height="76" viewBox="0 0 162 76" fill="none" xmlns="http://www.w3.org/2000/svg">
<path fill-rule="evenodd" clip-rule="evenodd" d="M29.2244 65.335C29.2244 68.0556 31.5728 70.2611 34.4698 70.2611H143.874C146.771 70.2611 149.119 68.0556 149.119 65.335C149.119 62.6144 146.771 60.4089 143.874 60.4089H139.378C136.481 60.4089 134.132 58.2034 134.132 55.4828C134.132 52.7622 136.481 50.5567 139.378 50.5567H153.615C156.512 50.5567 158.861 48.3512 158.861 45.6306C158.861 42.9099 156.512 40.7045 153.615 40.7045H137.13C140.027 40.7045 142.375 38.499 142.375 35.7783C142.375 33.0577 140.027 30.8522 137.13 30.8522H89.1718C92.0687 30.8522 94.4172 28.6467 94.4172 25.9261C94.4172 23.2055 92.0687 21 89.1718 21H46.4592C43.5623 21 41.2138 23.2055 41.2138 25.9261C41.2138 28.6467 43.5623 30.8522 46.4592 30.8522H16.4855C13.5886 30.8522 11.2401 33.0577 11.2401 35.7783C11.2401 38.499 13.5886 40.7045 16.4855 40.7045H35.2191C38.1161 40.7045 40.4645 42.9099 40.4645 45.6306C40.4645 48.3512 38.1161 50.5567 35.2191 50.5567H5.2454C2.34844 50.5567 0 52.7622 0 55.4828C0 58.2034 2.34844 60.4089 5.2454 60.4089H34.4698C31.5728 60.4089 29.2244 62.6144 29.2244 65.335ZM161.858 65.3351C161.858 68.0557 159.51 70.2612 156.613 70.2612C153.716 70.2612 151.367 68.0557 151.367 65.3351C151.367 62.6145 153.716 60.409 156.613 60.409C159.51 60.409 161.858 62.6145 161.858 65.3351Z" fill="#FED7D6"/>
<path d="M126.5 2V5.9" stroke="#F83633" stroke-width="2.5" stroke-linecap="round" stroke-linejoin="round"/>
<path d="M126.5 11.1001V15.0001" stroke="#F83633" stroke-width="2.5" stroke-linecap="round" stroke-linejoin="round"/>
<path d="M120 8.5002H123.9" stroke="#F83633" stroke-width="2.5" stroke-linecap="round" stroke-linejoin="round"/>
<path d="M129.1 8.5002H133" stroke="#F83633" stroke-width="2.5" stroke-linecap="round" stroke-linejoin="round"/>
<path d="M35.5 61V64.9" stroke="#F83633" stroke-width="2.5" stroke-linecap="round" stroke-linejoin="round"/>
<path d="M35.5 70.1001V74.0001" stroke="#F83633" stroke-width="2.5" stroke-linecap="round" stroke-linejoin="round"/>
<path d="M29 67.5002H32.9" stroke="#F83633" stroke-width="2.5" stroke-linecap="round" stroke-linejoin="round"/>
<path d="M38.1001 67.5002H42.0001" stroke="#F83633" stroke-width="2.5" stroke-linecap="round" stroke-linejoin="round"/>
<path d="M77.2704 18.0182H85.6269V19.4243H88.6447V17.8214C88.6451 16.2657 87.3801 15 85.8252 15H77.072C75.5172 15 74.2522 16.2657 74.2522 17.8214V19.4243H77.2704V18.0182Z" fill="#F83633"/>
<path d="M95.6141 31.3818H67.2831C66.5068 31.3818 65.8957 32.0441 65.9583 32.8181L68.3268 62.1058C68.4588 63.7408 69.8226 65 71.461 65H91.4359C93.0743 65 94.438 63.7408 94.57 62.1054L96.9386 32.8181C97.0015 32.0441 96.3904 31.3818 95.6141 31.3818ZM74.1431 61.8761C74.1114 61.8781 74.0798 61.8792 74.0485 61.8792C73.2573 61.8792 72.5932 61.2631 72.544 60.4628L71.0597 36.4191C71.0085 35.5872 71.6414 34.8711 72.473 34.82C73.3019 34.7697 74.021 35.401 74.0721 36.2334L75.556 60.277C75.6075 61.109 74.9747 61.8246 74.1431 61.8761ZM82.9745 60.3701C82.9745 61.2032 82.2989 61.8788 81.4654 61.8788C80.6319 61.8788 79.9563 61.2032 79.9563 60.3701V36.3261C79.9563 35.4926 80.6319 34.817 81.4654 34.817C82.2985 34.817 82.9745 35.4926 82.9745 36.3261V60.3701ZM91.8376 36.4149L90.4204 60.4586C90.3735 61.2605 89.7082 61.8788 88.9155 61.8788C88.8857 61.8788 88.8556 61.8781 88.8255 61.8765C87.9935 61.8273 87.3587 61.1132 87.4079 60.2812L88.8247 36.2372C88.8735 35.4052 89.5854 34.7704 90.4196 34.8196C91.2516 34.8685 91.8864 35.583 91.8376 36.4149Z" fill="#F83633"/>
<path d="M100.833 26.7248L99.8417 23.7539C99.5804 22.9707 98.8473 22.4424 98.0214 22.4424H64.8758C64.0503 22.4424 63.3168 22.9707 63.0559 23.7539L62.0648 26.7248C61.8737 27.2977 62.1224 27.8821 62.5866 28.1736C62.7759 28.2922 62.9998 28.3636 63.2458 28.3636H99.6518C99.8978 28.3636 100.122 28.2922 100.311 28.1732C100.775 27.8818 101.024 27.2973 100.833 26.7248Z" fill="#F83633"/>
</svg>
