<svg width="150" height="150" viewBox="0 0 150 150" fill="none" xmlns="http://www.w3.org/2000/svg">
<path d="M49.975 72.8227C48.7949 70.7028 49.5587 68.0291 51.683 66.8488L76.9944 52.7854C79.1143 51.6009 81.7967 52.3735 82.9683 54.4934C84.1484 56.6133 83.3846 59.2869 81.2603 60.4673L55.9489 74.5307C53.8583 75.7026 51.163 74.9634 49.975 72.8227Z" fill="#FF8189"/>
<path d="M92.3675 122.747L51.6838 100.143C49.5594 98.9632 48.7957 96.2895 49.9757 94.1693C51.1558 92.0491 53.8295 91.2684 55.9497 92.4613L96.6334 115.065C98.7577 116.245 99.5215 118.918 98.3414 121.039C97.1534 123.179 94.4581 123.918 92.3675 122.747Z" fill="#FF8189"/>
<path d="M61.5234 83.4961C61.5234 92.1091 58.0075 99.9316 52.207 105.469L30.7617 101.074L29.7949 100.898L9.31641 105.469C3.51592 99.9316 0 92.1091 0 83.4961C0 66.5332 13.7988 52.7344 30.7617 52.7344C47.7246 52.7344 61.5234 66.5332 61.5234 83.4961Z" fill="#FFEAEB"/>
<path d="M150 39.5508C150 49.6579 146.221 58.7988 139.892 65.8301L110.449 58.0075L108.779 57.5681L81.0062 65.8298C74.6777 58.7988 70.8984 49.6579 70.8984 39.5508C70.8984 17.7542 88.6526 0 110.449 0C132.246 0 150 17.7542 150 39.5508Z" fill="#FFEAEB"/>
<path d="M132.773 53.5251C126.884 47.373 118.974 43.9453 110.449 43.9453C100.693 43.9453 91.8161 48.4277 85.9277 56.1621C83.6426 59.0622 82.0605 62.4021 81.0059 65.8298C87.861 73.8278 98.4958 79.1016 110.449 79.1016C122.227 79.1016 133.125 73.7402 139.892 65.8301C138.574 61.2595 136.201 57.041 132.773 53.5251Z" fill="#BF222C"/>
<path d="M109.863 106.055C97.7344 106.055 87.8906 115.898 87.8906 128.027C87.8906 140.156 97.7344 150 109.863 150C121.992 150 131.836 140.156 131.836 128.027C131.836 115.898 121.992 106.055 109.863 106.055Z" fill="#FFEAEB"/>
<path d="M47.9001 96.0645C43.6811 90.8786 37.4412 87.8906 30.7615 87.8906C23.5544 87.8906 16.7866 91.406 12.7439 97.3825C10.9861 99.8437 9.84351 102.568 9.31616 105.469C15.2045 111.094 22.851 114.258 30.7615 114.258C38.7592 114.258 46.6697 111.006 52.2068 105.469C51.5916 102.041 50.0974 98.7891 47.9001 96.0645Z" fill="#BF222C"/>
<path d="M30.7617 70.3125C23.4665 70.3125 17.5781 76.2009 17.5781 83.4961C17.5781 90.7907 23.4665 96.6797 30.7617 96.6797C38.0569 96.6797 43.9453 90.7907 43.9453 83.4961C43.9453 76.2009 38.0569 70.3125 30.7617 70.3125Z" fill="#FF2D3B"/>
<path d="M110.449 17.5781C100.782 17.5781 92.8711 25.4886 92.8711 35.1562C92.8711 44.8239 100.782 52.7344 110.449 52.7344C120.117 52.7344 128.027 44.8239 128.027 35.1562C128.027 25.4886 120.117 17.5781 110.449 17.5781Z" fill="#FF2D3B"/>
</svg>
