<svg width="35" height="35" viewBox="0 0 35 35" fill="none" xmlns="http://www.w3.org/2000/svg">
<rect width="35" height="35" rx="8" fill="#A0AABB"/>
<path d="M24.4315 11.268C22.7033 9.57703 19.9406 9.57739 18.2128 11.2688L10.9666 18.5151C9.65628 19.8563 9.68132 22.0057 11.0225 23.3159C12.3416 24.6047 14.4483 24.6047 15.7674 23.3159L22.329 16.7543C23.182 15.9013 23.182 14.5182 22.329 13.6652C21.476 12.8122 20.0929 12.8122 19.2399 13.6652L12.9636 19.9415C12.7446 20.1682 12.7509 20.5294 12.9776 20.7483C13.1987 20.9619 13.5493 20.9619 13.7704 20.7483L20.0467 14.472C20.4629 14.0733 21.1235 14.0875 21.5222 14.5037C21.9088 14.9073 21.9088 15.5439 21.5222 15.9475L14.9606 22.5091C14.0742 23.3829 12.6472 23.3727 11.7734 22.4863C10.9084 21.6088 10.9084 20.1993 11.7734 19.3219L19.0197 12.0756C20.3104 10.7844 22.4035 10.784 23.6947 12.0747C24.9859 13.3654 24.9863 15.4585 23.6955 16.7497L16.4492 23.996C16.2099 24.201 16.182 24.5612 16.387 24.8005C16.5919 25.0399 16.9521 25.0678 17.1915 24.8628C17.2138 24.8437 17.2346 24.8229 17.2537 24.8005L24.5 17.5542C26.217 15.7994 26.1864 12.9849 24.4315 11.268Z" fill="white"/>
</svg>
