<svg width="193" height="96" viewBox="0 0 193 96" fill="none" xmlns="http://www.w3.org/2000/svg">
<path fill-rule="evenodd" clip-rule="evenodd" d="M34.8472 74C34.8472 77.866 37.6475 81 41.1019 81H171.556C175.01 81 177.81 77.866 177.81 74C177.81 70.134 175.01 67 171.556 67H166.194C162.74 67 159.94 63.866 159.94 60C159.94 56.134 162.74 53 166.194 53H183.171C186.626 53 189.426 49.866 189.426 46C189.426 42.134 186.626 39 183.171 39H163.514C166.968 39 169.769 35.866 169.769 32C169.769 28.134 166.968 25 163.514 25H106.329C109.783 25 112.583 21.866 112.583 18C112.583 14.134 109.783 11 106.329 11H55.3981C51.9438 11 49.1435 14.134 49.1435 18C49.1435 21.866 51.9438 25 55.3981 25H19.6574C16.2031 25 13.4028 28.134 13.4028 32C13.4028 35.866 16.2031 39 19.6574 39H41.9954C45.4497 39 48.25 42.134 48.25 46C48.25 49.866 45.4497 53 41.9954 53H6.25463C2.80029 53 0 56.134 0 60C0 63.866 2.80029 67 6.25463 67H41.1019C37.6475 67 34.8472 70.134 34.8472 74ZM193 74C193 77.866 190.2 81 186.745 81C183.291 81 180.491 77.866 180.491 74C180.491 70.134 183.291 67 186.745 67C190.2 67 193 70.134 193 74Z" fill="#EDEAFF"/>
<g filter="url(#filter0_d)">
<rect x="52.2686" y="4.26611" width="96.582" height="86.8352" rx="4" fill="white"/>
<path d="M52.2686 8.26611C52.2686 6.05697 54.0594 4.26611 56.2686 4.26611L144.851 4.26611C147.06 4.26611 148.851 6.05697 148.851 8.26611V37.0508H52.2686V8.26611Z" fill="#4A2DFF"/>
<rect x="60.2433" y="14.8989" width="22.1518" height="2.65822" rx="1.32911" fill="white"/>
<rect x="60.2432" y="45.0254" width="22.1518" height="2.65822" rx="1.32911" fill="#D8D8D8"/>
<rect x="108.977" y="45.0254" width="22.1518" height="2.65822" rx="1.32911" fill="#D8D8D8"/>
<rect x="60.2432" y="66.291" width="22.1518" height="2.65822" rx="1.32911" fill="#D8D8D8"/>
<rect x="108.977" y="66.291" width="22.1518" height="2.65822" rx="1.32911" fill="#D8D8D8"/>
<rect x="60.2432" y="21.1016" width="31.0126" height="4.43037" rx="2.21518" fill="white"/>
<rect x="60.2432" y="51.228" width="31.0126" height="4.43037" rx="2.21518" fill="#D8D8D8"/>
<rect x="108.977" y="51.228" width="31.0126" height="4.43037" rx="2.21518" fill="#D8D8D8"/>
<rect x="60.2433" y="72.4937" width="31.0126" height="4.43037" rx="2.21518" fill="#D8D8D8"/>
<rect x="108.977" y="72.4937" width="31.0126" height="4.43037" rx="2.21518" fill="#D8D8D8"/>
</g>
<rect x="121.641" y="10.6406" width="19.37" height="19.37" rx="4" fill="#EDEAFF"/>
<path d="M136.046 17.4489C136.04 17.1411 136.035 16.8505 136.035 16.5694C136.035 16.3491 135.856 16.1706 135.636 16.1706C133.93 16.1706 132.631 15.6802 131.548 14.6277C131.471 14.5522 131.371 14.5146 131.271 14.5146C131.17 14.5146 131.07 14.5522 130.992 14.6277C129.91 15.6802 128.611 16.1706 126.906 16.1706C126.686 16.1706 126.507 16.3491 126.507 16.5694C126.507 16.8505 126.501 17.1413 126.495 17.4491C126.441 20.3122 126.366 24.2335 131.14 25.8882C131.182 25.9029 131.226 25.9102 131.27 25.9102H131.271C131.315 25.9102 131.359 25.9029 131.401 25.8882C136.176 24.2335 136.101 20.312 136.046 17.4489Z" fill="#4A2DFF"/>
<path d="M133.711 19.2684V20.6839C133.711 20.8144 133.605 20.9203 133.474 20.9203H132.215V22.1797C132.215 22.3102 132.109 22.4161 131.979 22.4161H130.563C130.433 22.4161 130.327 22.3102 130.327 22.1797V20.9203H129.067C128.936 20.9203 128.831 20.8144 128.831 20.6839V19.2684C128.831 19.1379 128.936 19.032 129.067 19.032H130.327V17.7726C130.327 17.6421 130.433 17.5361 130.563 17.5361H131.979C132.109 17.5361 132.215 17.6421 132.215 17.7726V19.032H133.474C133.605 19.032 133.711 19.1379 133.711 19.2684Z" fill="#EDEAFF"/>
<defs>
<filter id="filter0_d" x="48.2686" y="0.266113" width="104.582" height="94.8352" filterUnits="userSpaceOnUse" color-interpolation-filters="sRGB">
<feFlood flood-opacity="0" result="BackgroundImageFix"/>
<feColorMatrix in="SourceAlpha" type="matrix" values="0 0 0 0 0 0 0 0 0 0 0 0 0 0 0 0 0 0 127 0"/>
<feOffset/>
<feGaussianBlur stdDeviation="2"/>
<feColorMatrix type="matrix" values="0 0 0 0 0 0 0 0 0 0 0 0 0 0 0 0 0 0 0.25 0"/>
<feBlend mode="normal" in2="BackgroundImageFix" result="effect1_dropShadow"/>
<feBlend mode="normal" in="SourceGraphic" in2="effect1_dropShadow" result="shape"/>
</filter>
</defs>
</svg>
