<svg width="40" height="40" viewBox="0 0 40 40" fill="none" xmlns="http://www.w3.org/2000/svg">
<rect width="40" height="40" rx="8" fill="#A0AABB"/>
<path d="M20.1148 19.7613C22.5406 19.7613 24.5073 17.3727 24.5073 14.4261C24.5073 11.4795 23.8616 9.09082 20.1148 9.09082C16.368 9.09082 15.7222 11.4795 15.7222 14.4261C15.7222 17.3727 17.6889 19.7613 20.1148 19.7613Z" fill="white"/>
<path d="M28.4016 27.6924C28.3203 22.5594 27.6499 21.0967 22.5199 20.1709C22.5199 20.1709 21.7978 21.0911 20.1147 21.0911C18.4316 21.0911 17.7093 20.1709 17.7093 20.1709C12.6354 21.0866 11.9242 22.5276 11.8307 27.5256C11.823 27.9337 11.8195 27.9552 11.8181 27.9078C11.8184 27.9966 11.8188 28.1608 11.8188 28.4471C11.8188 28.4471 13.0401 30.9092 20.1147 30.9092C27.1891 30.9092 28.4106 28.4471 28.4106 28.4471C28.4106 28.2631 28.4107 28.1352 28.4109 28.0482C28.4095 28.0775 28.4068 28.0207 28.4016 27.6924Z" fill="white"/>
</svg>
