<svg width="11" height="11" viewBox="0 0 11 11" fill="none" xmlns="http://www.w3.org/2000/svg">
<path d="M9.27609 6.33666C9.13783 6.33666 9.02578 6.44871 9.02578 6.58696V8.80941C9.02529 9.22398 8.68943 9.55993 8.27486 9.56032H1.25153C0.836961 9.55993 0.501101 9.22398 0.500612 8.80941V2.28669C0.501101 1.87221 0.836961 1.53626 1.25153 1.53577H3.47397C3.61223 1.53577 3.72428 1.42372 3.72428 1.28546C3.72428 1.14731 3.61223 1.03516 3.47397 1.03516H1.25153C0.560646 1.03594 0.000782206 1.5958 0 2.28669V8.8095C0.000782206 9.50039 0.560646 10.0603 1.25153 10.061H8.27486C8.96575 10.0603 9.52561 9.50039 9.52639 8.8095V6.58696C9.52639 6.44871 9.41434 6.33666 9.27609 6.33666Z" fill="#FF2D3B"/>
<path d="M9.42622 0.390467C8.98633 -0.0494264 8.27315 -0.0494264 7.83326 0.390467L3.36765 4.85608C3.33704 4.88669 3.31494 4.92462 3.30341 4.96628L2.71617 7.08635C2.69201 7.17327 2.71656 7.26635 2.78031 7.3302C2.84415 7.39395 2.93724 7.41849 3.02416 7.39444L5.14423 6.8071C5.18588 6.79556 5.22382 6.77346 5.25442 6.74286L9.71994 2.27715C10.1592 1.83696 10.1592 1.12437 9.71994 0.684185L9.42622 0.390467ZM3.91304 5.01878L7.5678 1.36392L8.74649 2.54261L5.09163 6.19747L3.91304 5.01878ZM3.67759 5.49123L4.61927 6.43301L3.3167 6.7939L3.67759 5.49123ZM9.36599 1.9232L9.10053 2.18866L7.92175 1.00988L8.18731 0.744415C8.43165 0.500073 8.82784 0.500073 9.07218 0.744415L9.36599 1.03813C9.60994 1.28277 9.60994 1.67866 9.36599 1.9232Z" fill="#FF2D3B"/>
</svg>
