<svg width="23" height="21" viewBox="0 0 23 21" fill="none" xmlns="http://www.w3.org/2000/svg">
<path d="M19.9038 15.7018C19.2482 15.7018 18.635 15.3793 18.2637 14.839L17.2897 13.4223C16.1423 15.4795 13.9612 16.8076 11.5 16.8076C8.06566 16.8076 5.23235 14.1843 4.89831 10.8364H5.52888C5.77523 10.8364 6.00137 10.6999 6.11605 10.4818C6.23074 10.2638 6.21515 10.0001 6.07558 9.79709L5.10841 8.39032L3.64288 6.2586C3.51917 6.0786 3.31468 5.97101 3.09618 5.97101C3.06887 5.97101 3.04178 5.97267 3.01501 5.97595C2.98823 5.97923 2.96187 5.98417 2.93595 5.99059C2.87117 6.00672 2.80936 6.03246 2.75262 6.06683C2.6732 6.11489 2.60357 6.17981 2.54944 6.25855L0.116742 9.79705C-0.0228304 10 -0.0384183 10.2638 0.0762671 10.4818C0.190953 10.6998 0.417089 10.8364 0.663485 10.8364H1.34809C1.50595 13.304 2.54243 15.6022 4.3066 17.3665C6.22804 19.2879 8.7827 20.3461 11.5 20.3461C14.2173 20.3461 16.772 19.2879 18.6934 17.3665C19.2042 16.8557 19.6566 16.2953 20.0449 15.6964C19.9981 15.6996 19.9511 15.7018 19.9038 15.7018Z" fill="#FF2D3B"/>
<path d="M22.9238 9.8642C22.809 9.64615 22.583 9.50959 22.3366 9.50959H21.6519C21.4941 7.04199 20.4576 4.74379 18.6934 2.97957C16.772 1.05818 14.2173 0 11.5001 0C8.78279 0 6.22804 1.05818 4.30664 2.97962C3.79584 3.49043 3.34352 4.05078 2.95517 4.64972C3.00193 4.6464 3.04892 4.64424 3.09622 4.64424C3.75186 4.64424 4.365 4.96678 4.73636 5.50701L5.71036 6.92376C6.85771 4.86656 9.0388 3.53849 11.5 3.53849C14.9344 3.53849 17.7677 6.16175 18.1017 9.50964H17.4712C17.2248 9.50964 16.9987 9.64615 16.884 9.86425C16.7693 10.0823 16.7849 10.346 16.9245 10.549L17.8916 11.9558L19.3572 14.0875C19.3881 14.1325 19.4241 14.173 19.4641 14.2084C19.584 14.3146 19.74 14.3751 19.9039 14.3751C20.1224 14.3751 20.3269 14.2675 20.4506 14.0875L21.329 12.8098L22.8833 10.549C23.0229 10.3459 23.0385 10.0822 22.9238 9.8642Z" fill="#BF222C"/>
</svg>
