<svg width="9" height="9" viewBox="0 0 9 9" fill="none" xmlns="http://www.w3.org/2000/svg">
<path d="M8.02259 0.393918C7.49737 -0.131306 6.64585 -0.131306 6.12062 0.393918L0.788761 5.72578C0.752221 5.76232 0.725837 5.80762 0.712061 5.85735L0.0109057 8.38868C-0.0179297 8.49246 0.0113727 8.6036 0.0874888 8.67983C0.163722 8.75595 0.274861 8.78525 0.378645 8.75653L2.90997 8.05526C2.9597 8.04149 3.005 8.0151 3.04154 7.97856L8.37329 2.64658C8.89769 2.12101 8.89769 1.27019 8.37329 0.744613L8.02259 0.393918ZM1.43995 5.92004L5.80367 1.55621L7.211 2.96354L2.84716 7.32737L1.43995 5.92004ZM1.15883 6.48414L2.28318 7.60861L0.727938 8.0395L1.15883 6.48414ZM7.95068 2.22397L7.63372 2.54093L6.22628 1.13348L6.54335 0.816526C6.83509 0.524787 7.30813 0.524787 7.59987 0.816526L7.95068 1.16722C8.24195 1.45931 8.24195 1.932 7.95068 2.22397Z" fill="#FF2D3B"/>
</svg>
