<svg width="14" height="18" viewBox="0 0 14 18" fill="none" xmlns="http://www.w3.org/2000/svg">
<path d="M6.84462 8.80318C8.84591 8.80318 10.4684 6.83254 10.4684 4.40162C10.4684 1.97064 9.93573 0 6.84462 0C3.7535 0 3.2207 1.97064 3.2207 4.40162C3.2207 6.83254 4.84322 8.80318 6.84462 8.80318Z" fill="#B3C0D9"/>
<path d="M13.6814 15.3461C13.6143 11.1114 13.0612 9.90472 8.829 9.1409C8.829 9.1409 8.23325 9.90004 6.84468 9.90004C5.45611 9.90004 4.86026 9.1409 4.86026 9.1409C0.674228 9.89639 0.0875314 11.0852 0.0103886 15.2085C0.00406284 15.5452 0.00113143 15.5629 0 15.5239C0.000257143 15.5971 0.0005656 15.7326 0.0005656 15.9688C0.0005656 15.9688 1.00815 18 6.84468 18C12.6811 18 13.6888 15.9688 13.6888 15.9688C13.6888 15.817 13.6889 15.7115 13.6891 15.6397C13.6879 15.6638 13.6857 15.617 13.6814 15.3461Z" fill="#B3C0D9"/>
</svg>
