<svg width="32" height="32" viewBox="0 0 32 32" fill="none" xmlns="http://www.w3.org/2000/svg">
<rect width="32" height="32" rx="4" fill="#FFEAEB"/>
<path d="M16.102 15.8078C18.2367 15.8078 19.9674 13.8809 19.9674 11.504C19.9674 9.12704 19.3991 7.2002 16.102 7.2002C12.8048 7.2002 12.2365 9.12704 12.2365 11.504C12.2365 13.8809 13.9671 15.8078 16.102 15.8078Z" fill="#FF2D3B"/>
<path d="M23.3944 22.2055C23.3366 18.8635 22.9411 17.4503 20.417 16.6368C19.0847 16.2074 17.5474 16.8657 16.1477 16.8802C16.1325 16.8804 16.1172 16.8805 16.1019 16.8805C16.0864 16.8805 16.0711 16.8804 16.0558 16.8802C14.6562 16.8656 13.1188 16.2074 11.7866 16.6368C9.29668 17.4393 8.87822 18.8254 8.81198 22.071C8.80524 22.4002 8.80211 22.4175 8.8009 22.3793C8.802 22.6648 8.87473 22.9478 9.08462 23.1413C9.69602 23.7051 11.4787 24.8004 16.1019 24.8004C20.9495 24.8004 22.6742 23.5962 23.2001 23.0631C23.3485 22.9128 23.4021 22.7037 23.4026 22.4925C23.4014 22.5162 23.3989 22.4704 23.3944 22.2055Z" fill="#FF2D3B"/>
</svg>
