<svg width="40" height="40" viewBox="0 0 40 40" fill="none" xmlns="http://www.w3.org/2000/svg">
<rect width="40" height="40" rx="4" fill="#FFEAEB"/>
<path d="M20.1274 19.7594C22.7958 19.7594 24.9592 17.3509 24.9592 14.3798C24.9592 11.4086 24.2489 9 20.1274 9C16.0059 9 15.2955 11.4086 15.2955 14.3798C15.2955 17.3509 17.4589 19.7594 20.1274 19.7594Z" fill="#FF2D3B"/>
<path d="M29.243 27.7563C29.1668 23.351 28.6213 21.6268 24.9813 20.6355C23.6306 20.2676 22.1361 20.8939 20.7466 21.0633C20.555 21.0867 20.3487 21.1 20.1273 21.1C19.9058 21.1 19.6994 21.0867 19.5077 21.0633C18.1183 20.8938 16.6244 20.2676 15.2739 20.6353C11.68 21.614 11.1023 23.3068 11.015 27.5881C11.0065 27.9997 11.0026 28.0213 11.0011 27.9735C11.0025 28.3304 11.0934 28.6841 11.3557 28.926C12.12 29.6308 14.3483 30.9999 20.1273 30.9999C26.1869 30.9999 28.3427 29.4946 29.0001 28.8283C29.1855 28.6404 29.2526 28.379 29.2532 28.1151C29.2517 28.1446 29.2486 28.0873 29.243 27.7563Z" fill="#FF2D3B"/>
</svg>
