<svg width="185" height="120" viewBox="0 0 185 120" fill="none" xmlns="http://www.w3.org/2000/svg">
<path fill-rule="evenodd" clip-rule="evenodd" d="M33.245 82.1293C33.245 85.4248 35.9166 88.0963 39.2121 88.0963H163.668C166.963 88.0963 169.635 85.4248 169.635 82.1293C169.635 78.8338 166.963 76.1622 163.668 76.1622H158.553C155.258 76.1622 152.586 73.4907 152.586 70.1952C152.586 66.8997 155.258 64.2281 158.553 64.2281H174.749C178.045 64.2281 180.717 61.5566 180.717 58.2611C180.717 54.9655 178.045 52.294 174.749 52.294H155.996C159.291 52.294 161.963 49.6225 161.963 46.3269C161.963 43.0314 159.291 40.3599 155.996 40.3599H101.44C104.735 40.3599 107.407 37.6884 107.407 34.3928C107.407 31.0973 104.735 28.4258 101.44 28.4258H52.8511C49.5555 28.4258 46.884 31.0973 46.884 34.3928C46.884 37.6884 49.5555 40.3599 52.8511 40.3599H18.7536C15.4581 40.3599 12.7865 43.0314 12.7865 46.3269C12.7865 49.6225 15.4581 52.294 18.7536 52.294H40.0645C43.36 52.294 46.0316 54.9655 46.0316 58.2611C46.0316 61.5566 43.36 64.2281 40.0645 64.2281H5.96706C2.67154 64.2281 0 66.8997 0 70.1952C0 73.4907 2.67154 76.1622 5.96706 76.1622H39.2121C35.9166 76.1622 33.245 78.8338 33.245 82.1293ZM184.126 82.1293C184.126 85.4248 181.455 88.0963 178.159 88.0963C174.864 88.0963 172.192 85.4248 172.192 82.1293C172.192 78.8338 174.864 76.1622 178.159 76.1622C181.455 76.1622 184.126 78.8338 184.126 82.1293Z" fill="#FFEAEB"/>
<path fill-rule="evenodd" clip-rule="evenodd" d="M115.065 94.1283C117.654 92.4618 119.957 90.3825 121.455 88.7039L115.065 94.1283ZM123.873 85.9145C125.112 84.3968 126.226 82.8096 127.214 81.1669C129.388 77.554 130.954 73.6724 131.912 69.6705C132.881 65.6231 133.226 61.4527 132.946 57.3126C132.701 53.7 131.98 50.1106 130.781 46.6462C129.592 43.2092 127.932 39.8953 125.801 36.8041C124.53 34.9621 123.093 33.1991 121.487 31.5363C119.129 29.095 116.543 27.0079 113.796 25.2763C110.844 23.4158 107.705 21.9656 104.462 20.9274C100.401 19.6272 96.1768 18.9732 91.952 18.9685C88.6648 18.9648 85.3772 19.3541 82.1657 20.138C78.5503 21.0205 75.0313 22.403 71.7179 24.2877C68.8053 25.9444 66.0515 27.9892 63.5308 30.4234C60.3631 33.4824 57.7972 36.9307 55.8355 40.6212C53.9148 44.2343 52.5732 48.0795 51.8129 52.0186C51.0295 56.077 50.8631 60.2351 51.316 64.3419C51.9031 69.6648 53.5305 74.9015 56.2036 79.7232C57.914 82.8084 60.0525 85.7237 62.6205 88.3829C66.6971 92.6044 71.4566 95.7668 76.5542 97.8635C82.7533 100.413 89.4524 101.387 96.0317 100.772C101.554 100.257 106.991 98.6226 111.977 95.8627" fill="white"/>
<path d="M114.388 93.0772C113.808 93.4508 113.64 94.2242 114.013 94.8048C114.387 95.3853 115.16 95.5531 115.741 95.1795L114.388 93.0772ZM122.388 89.5361C122.847 89.021 122.802 88.2309 122.287 87.7712C121.772 87.3116 120.982 87.3565 120.522 87.8716L122.388 89.5361ZM127.214 81.1669L126.143 80.5225L127.214 81.1669ZM131.912 69.6705L133.128 69.9614L131.912 69.6705ZM132.946 57.3126L134.193 57.2282L132.946 57.3126ZM130.781 46.6462L129.6 47.055L130.781 46.6462ZM125.801 36.8041L124.772 37.5137L125.801 36.8041ZM121.487 31.5363L120.588 32.4046L121.487 31.5363ZM113.796 25.2763L114.462 24.2188L113.796 25.2763ZM104.462 20.9274L104.081 22.1179L104.462 20.9274ZM91.952 18.9685L91.9506 20.2185L91.952 18.9685ZM82.1657 20.138L82.4621 21.3523L82.1657 20.138ZM71.7179 24.2877L71.0999 23.2012L71.7179 24.2877ZM63.5308 30.4234L64.3992 31.3226L63.5308 30.4234ZM55.8355 40.6212L54.7317 40.0344L55.8355 40.6212ZM51.8129 52.0186L50.5855 51.7817L51.8129 52.0186ZM51.316 64.3419L50.0736 64.4789L51.316 64.3419ZM56.2036 79.7232L57.2968 79.1171L56.2036 79.7232ZM62.6205 88.3829L63.5196 87.5146L62.6205 88.3829ZM76.5542 97.8635L76.0787 99.0195L76.5542 97.8635ZM96.0317 100.772L95.9155 99.5278L96.0317 100.772ZM112.583 96.9564C113.187 96.6221 113.405 95.8614 113.071 95.2574C112.737 94.6534 111.976 94.4347 111.372 94.769L112.583 96.9564ZM115.741 95.1795C118.433 93.4473 120.82 91.2924 122.388 89.5361L120.522 87.8716C119.094 89.4726 116.876 91.4762 114.388 93.0772L115.741 95.1795ZM124.841 86.705C126.118 85.1408 127.266 83.5048 128.285 81.8113L126.143 80.5225C125.185 82.1144 124.106 83.6527 122.904 85.1239L124.841 86.705ZM128.285 81.8113C130.526 78.0867 132.141 74.0856 133.128 69.9614L130.696 69.3796C129.768 73.2592 128.249 77.0213 126.143 80.5225L128.285 81.8113ZM133.128 69.9614C134.126 65.7905 134.482 61.4936 134.193 57.2282L131.698 57.3971C131.97 61.4118 131.635 65.4557 130.696 69.3796L133.128 69.9614ZM134.193 57.2282C133.941 53.5062 133.198 49.8076 131.963 46.2374L129.6 47.055C130.762 50.4135 131.461 53.8939 131.698 57.3971L134.193 57.2282ZM131.963 46.2374C130.737 42.6953 129.026 39.28 126.83 36.0944L124.772 37.5137C126.838 40.5106 128.447 43.7231 129.6 47.055L131.963 46.2374ZM126.83 36.0944C125.521 34.1963 124.04 32.3802 122.386 30.668L120.588 32.4046C122.146 34.018 123.54 35.7278 124.772 37.5137L126.83 36.0944ZM122.386 30.668C119.958 28.154 117.294 26.0035 114.462 24.2188L113.129 26.3338C115.793 28.0124 118.3 30.0361 120.588 32.4046L122.386 30.668ZM114.462 24.2188C111.42 22.3013 108.185 20.8068 104.843 19.7369L104.081 22.1179C107.225 23.1244 110.268 24.5302 113.129 26.3338L114.462 24.2188ZM104.843 19.7369C100.658 18.3972 96.3061 17.7233 91.9534 17.7185L91.9506 20.2185C96.0475 20.2231 100.144 20.8573 104.081 22.1179L104.843 19.7369ZM91.9534 17.7185C88.5666 17.7146 85.179 18.1158 81.8693 18.9237L82.4621 21.3523C85.5754 20.5924 88.7629 20.2149 91.9506 20.2185L91.9534 17.7185ZM81.8693 18.9237C78.1431 19.8332 74.5157 21.2582 71.0999 23.2012L72.3359 25.3742C75.5469 23.5478 78.9574 22.2078 82.4621 21.3523L81.8693 18.9237ZM71.0999 23.2012C68.0971 24.9092 65.2591 27.0167 62.6625 29.5242L64.3992 31.3226C66.844 28.9617 69.5135 26.9797 72.3359 25.3742L71.0999 23.2012ZM62.6625 29.5242C59.3993 32.6755 56.7543 36.2296 54.7317 40.0344L56.9392 41.2079C58.8402 37.6319 61.327 34.2893 64.3992 31.3226L62.6625 29.5242ZM54.7317 40.0344C52.7517 43.7592 51.369 47.7225 50.5855 51.7817L53.0402 52.2555C53.7774 48.4364 55.0779 44.7093 56.9392 41.2079L54.7317 40.0344ZM50.5855 51.7817C49.7783 55.9636 49.6069 60.2477 50.0736 64.4789L52.5585 64.2049C52.1193 60.2224 52.2807 56.1904 53.0402 52.2555L50.5855 51.7817ZM50.0736 64.4789C50.6784 69.9632 52.3553 75.3598 55.1103 80.3292L57.2968 79.1171C54.7057 74.4433 53.1277 69.3664 52.5585 64.2049L50.0736 64.4789ZM55.1103 80.3292C56.8732 83.5092 59.0768 86.5128 61.7213 89.2512L63.5196 87.5146C61.0282 84.9346 58.9547 82.1077 57.2968 79.1171L55.1103 80.3292ZM61.7213 89.2512C65.92 93.5991 70.8245 96.8584 76.0787 99.0195L77.0297 96.7074C72.0887 94.6752 67.4743 91.6097 63.5196 87.5146L61.7213 89.2512ZM76.0787 99.0195C82.467 101.647 89.3694 102.65 96.1479 102.017L95.9155 99.5278C89.5355 100.124 83.0396 99.1793 77.0297 96.7074L76.0787 99.0195ZM96.1479 102.017C101.837 101.486 107.442 99.8016 112.583 96.9564L111.372 94.769C106.54 97.4435 101.27 99.0279 95.9155 99.5278L96.1479 102.017Z" fill="#FF2D3B"/>
<g clip-path="url(#clip0)">
<path d="M112.678 62.8712V66.7C112.678 67.8522 111.743 68.7876 110.591 68.7885C110.591 68.7885 110.496 68.7885 110.328 68.7885V77.7515C110.328 79.2892 109.081 80.5362 107.544 80.5362H75.0854C73.5478 80.5362 72.3008 79.2892 72.3008 77.7515V51.8197C72.3008 50.2821 73.5478 49.0351 75.0854 49.0351H77.9571V42.3346C77.9571 41.1816 78.8925 40.2461 80.0455 40.2461H91.7932C92.666 40.2461 93.4143 40.7821 93.7259 41.5436C97.3613 42.59 100.956 43.6245 104.528 44.6528C105.635 44.9721 106.276 46.1295 105.956 47.2381L105.439 49.0351H107.544C109.081 49.0351 110.328 50.2821 110.328 51.8197V60.7827H110.589C111.742 60.7827 112.678 61.7182 112.678 62.8712Z" fill="#FFC4B4"/>
<path d="M93.8816 49.0351H77.957V42.3346C77.957 41.1816 78.8925 40.2461 80.0455 40.2461H91.7931C92.666 40.2461 93.4143 40.7821 93.7259 41.5436C93.9381 42.0577 93.8816 41.7028 93.8816 49.0351Z" fill="#FFC4B4"/>
<path d="M105.956 47.2385L105.438 49.0355H93.8814C93.8814 41.7071 93.938 42.0584 93.7256 41.5439C97.361 42.5904 100.956 43.6249 104.527 44.6532C105.635 44.9725 106.276 46.1299 105.956 47.2385Z" fill="white"/>
<path d="M112.678 62.8717V66.7005C112.678 67.8527 111.744 68.7881 110.591 68.789C109.558 68.789 104.468 68.789 103.889 68.789C102.736 68.789 101.801 67.8535 101.801 66.7005V62.8717C101.801 61.7187 102.736 60.7832 103.889 60.7832H110.59C111.743 60.7832 112.678 61.7187 112.678 62.8717Z" fill="white"/>
<path d="M104.527 44.6537C105.635 44.973 106.276 46.1304 105.956 47.239L105.438 49.036H102.763C101.349 47.7205 101.241 45.5216 102.511 44.0732L104.527 44.6537Z" fill="white"/>
<path d="M110.598 63.3939H107.726C105.895 63.3939 104.411 64.8783 104.411 66.7092C104.411 68.3843 101.889 68.483 101.803 66.8102C101.798 66.7232 101.8 62.7895 101.8 62.8717C101.8 61.7182 102.735 60.7832 103.889 60.7832H110.589C112.389 60.7833 112.296 63.3939 110.598 63.3939Z" fill="white"/>
<path d="M110.328 51.8198C110.328 53.1655 109.237 54.2563 107.892 54.2563H101.365C88.197 54.2563 77.522 64.9314 77.522 78.0997C77.522 79.4454 76.4311 80.5362 75.0854 80.5362C73.5475 80.5362 72.3008 79.2895 72.3008 77.7516V51.8198C72.3008 50.2819 73.5475 49.0352 75.0854 49.0352H107.544C109.082 49.0352 110.328 50.2819 110.328 51.8198Z" fill="white"/>
<path d="M92.2587 43.7269H83.5263C82.3728 43.7269 81.4378 44.6619 81.4378 45.8153V49.0351H77.957V42.3346C77.957 41.1811 78.8921 40.2461 80.0455 40.2461H91.7931C92.6371 40.2461 93.4038 40.7516 93.7318 41.5579C94.1535 42.5947 93.3779 43.7269 92.2587 43.7269Z" fill="white"/>
<path d="M82.3945 40.2461H86.1364V49.0351H82.3945V40.2461Z" fill="#FFC4B4"/>
<path d="M86.1364 40.2461V43.7269H83.5258C83.109 43.7269 82.7209 43.8496 82.3945 44.061V40.2461H86.1364Z" fill="#FFC4B4"/>
<path d="M95.687 49.0355H93.8814C93.8814 41.7071 93.938 42.0584 93.7256 41.5439L95.674 42.1044C95.6926 42.2666 95.687 41.7898 95.687 49.0355Z" fill="white"/>
<path d="M111.024 60.1216V51.8205C111.024 49.9012 109.463 48.3398 107.544 48.3398H106.364L106.625 47.4312C107.051 45.9523 106.199 44.4107 104.72 43.9849L96.8208 41.711C96.4513 41.6047 96.0656 41.818 95.9594 42.1875C95.8529 42.557 96.0663 42.9426 96.4358 43.0491L101.401 44.4785C100.787 45.6752 100.765 47.1026 101.386 48.3398H86.8329V42.8575C86.8329 42.4731 86.5212 42.1614 86.1368 42.1614C85.7523 42.1614 85.4406 42.4731 85.4406 42.8575V48.3398H83.0911V42.8575C83.0911 42.4731 82.7794 42.1614 82.3949 42.1614C82.0105 42.1614 81.6988 42.4731 81.6988 42.8575V48.3398H78.6531V42.3354C78.6531 41.5677 79.2777 40.9431 80.0454 40.9431H91.793C92.5607 40.9431 93.1853 41.5677 93.1853 42.3354V46.1643C93.1853 46.5487 93.497 46.8604 93.8815 46.8604C94.266 46.8604 94.5777 46.5487 94.5777 46.1643V42.3354C94.5777 40.7999 93.3285 39.5508 91.793 39.5508H80.0454C78.5099 39.5508 77.2608 40.7999 77.2608 42.3354V48.3398H75.0853C73.166 48.3398 71.6045 49.9012 71.6045 51.8205V77.7524C71.6045 79.6717 73.166 81.2332 75.0853 81.2332H107.544C109.463 81.2332 111.024 79.6717 111.024 77.7524V72.6617C111.024 72.2773 110.713 71.9656 110.328 71.9656C109.944 71.9656 109.632 72.2773 109.632 72.6617V77.7524C109.632 78.9039 108.695 79.8408 107.544 79.8408H75.0853C73.9337 79.8408 72.9968 78.9039 72.9968 77.7524V51.8205C72.9968 50.669 73.9337 49.7321 75.0853 49.7321H107.544C108.695 49.7321 109.632 50.669 109.632 51.8205V60.0874H103.889C102.353 60.0874 101.104 61.3366 101.104 62.872V66.7009C101.104 68.2363 102.353 69.4855 103.889 69.4855H110.591C112.12 69.4855 113.374 68.2405 113.374 66.7009V62.872C113.374 61.4846 112.354 60.3311 111.024 60.1216ZM102.778 44.8747L104.335 45.323C105.074 45.5359 105.5 46.3065 105.287 47.046L104.915 48.3398H103.054C102.175 47.362 102.094 45.9401 102.778 44.8747ZM111.982 66.7009C111.982 67.4686 111.357 68.0932 110.589 68.0932H103.889C103.121 68.0932 102.496 67.4686 102.496 66.7009V62.872C102.496 62.1043 103.121 61.4797 103.889 61.4797H110.589C111.357 61.4797 111.982 62.1043 111.982 62.872V66.7009ZM106.499 64.7865C106.499 65.1709 106.188 65.4826 105.803 65.4826H104.759C104.374 65.4826 104.063 65.1709 104.063 64.7865C104.063 64.402 104.374 64.0903 104.759 64.0903H105.803C106.188 64.0903 106.499 64.402 106.499 64.7865Z" fill="#FF2D3B"/>
</g>
<path fill-rule="evenodd" clip-rule="evenodd" d="M80.6822 27.123C78.9442 27.775 77.2466 28.5673 75.6065 29.5002C73.0579 30.9498 70.6484 32.739 68.4428 34.8689C67.5387 35.742 66.6906 36.6513 65.8986 37.5924M63.448 40.8691C62.8182 41.8208 62.2387 42.7963 61.7094 43.792C61.3185 44.5274 60.955 45.2738 60.6189 46.0296" fill="white"/>
<path d="M81.1212 28.2933C81.7676 28.0508 82.095 27.3303 81.8525 26.6839C81.61 26.0376 80.8895 25.7101 80.2431 25.9526L81.1212 28.2933ZM75.6065 29.5002L76.2245 30.5867L75.6065 29.5002ZM68.4428 34.8689L67.5745 33.9697L68.4428 34.8689ZM64.9422 36.7876C64.4977 37.3158 64.5656 38.1043 65.0938 38.5488C65.622 38.9933 66.4105 38.9255 66.855 38.3973L64.9422 36.7876ZM64.4904 41.559C64.8714 40.9832 64.7135 40.2077 64.1378 39.8267C63.5621 39.4457 62.7866 39.6036 62.4056 40.1793L64.4904 41.559ZM61.7094 43.792L62.8131 44.3787L61.7094 43.792ZM59.4767 45.5218C59.1963 46.1526 59.4803 46.8913 60.1111 47.1718C60.7419 47.4523 61.4806 47.1683 61.7611 46.5374L59.4767 45.5218ZM80.2431 25.9526C78.444 26.6276 76.6864 27.4478 74.9885 28.4136L76.2245 30.5867C77.8067 29.6867 79.4445 28.9224 81.1212 28.2933L80.2431 25.9526ZM74.9885 28.4136C72.3498 29.9146 69.856 31.7665 67.5745 33.9697L69.3111 35.7681C71.4408 33.7114 73.7661 31.985 76.2245 30.5867L74.9885 28.4136ZM67.5745 33.9697C66.6394 34.8728 65.7619 35.8136 64.9422 36.7876L66.855 38.3973C67.6194 37.489 68.4381 36.6112 69.3111 35.7681L67.5745 33.9697ZM62.4056 40.1793C61.7536 41.1645 61.1536 42.1744 60.6057 43.2053L62.8131 44.3787C63.3238 43.4182 63.8829 42.477 64.4904 41.559L62.4056 40.1793ZM60.6057 43.2053C60.2009 43.9666 59.8246 44.7393 59.4767 45.5218L61.7611 46.5374C62.0853 45.8082 62.436 45.0882 62.8131 44.3787L60.6057 43.2053Z" fill="#FF2D3B"/>
<path d="M138.094 14.7861V18.1959" stroke="#FF2D3B" stroke-width="2.5" stroke-linecap="round" stroke-linejoin="round"/>
<path d="M138.094 25.0156V28.4254" stroke="#FF2D3B" stroke-width="2.5" stroke-linecap="round" stroke-linejoin="round"/>
<path d="M131.274 21.606H134.684" stroke="#FF2D3B" stroke-width="2.5" stroke-linecap="round" stroke-linejoin="round"/>
<path d="M141.504 21.606H144.914" stroke="#FF2D3B" stroke-width="2.5" stroke-linecap="round" stroke-linejoin="round"/>
<path d="M47.7368 93.21V98.3246" stroke="#FF2D3B" stroke-width="2.5" stroke-linecap="round" stroke-linejoin="round"/>
<path d="M47.7368 105.145V110.259" stroke="#FF2D3B" stroke-width="2.5" stroke-linecap="round" stroke-linejoin="round"/>
<path d="M39.2119 101.734H44.3265" stroke="#FF2D3B" stroke-width="2.5" stroke-linecap="round" stroke-linejoin="round"/>
<path d="M51.1465 101.734H56.2611" stroke="#FF2D3B" stroke-width="2.5" stroke-linecap="round" stroke-linejoin="round"/>
<defs>
<clipPath id="clip0">
<rect width="41.7694" height="41.7694" fill="white" transform="translate(71.6045 39.5068)"/>
</clipPath>
</defs>
</svg>
