<svg width="32" height="32" viewBox="0 0 32 32" fill="none" xmlns="http://www.w3.org/2000/svg">
<rect width="32" height="32" rx="4" fill="#EDEAFF"/>
<path d="M23.7981 11.2474C23.7884 10.7388 23.7794 10.2588 23.7794 9.79443C23.7794 9.43041 23.4845 9.13552 23.1205 9.13552C20.3024 9.13552 18.1566 8.32546 16.3681 6.5866C16.2404 6.462 16.0748 6.3999 15.9092 6.3999C15.7432 6.3999 15.5776 6.462 15.4495 6.5866C13.661 8.32546 11.516 9.13552 8.69794 9.13552C8.33431 9.13552 8.03903 9.43041 8.03903 9.79443C8.03903 10.2588 8.03005 10.7392 8.02029 11.2478C7.93006 15.9777 7.80625 22.4558 15.6932 25.1895C15.7631 25.2137 15.8358 25.2258 15.9088 25.2258H15.9092C15.9822 25.2258 16.0549 25.2137 16.1244 25.1895C24.0122 22.4558 23.8883 15.9773 23.7981 11.2474Z" fill="#4A2DFF"/>
<path d="M19.9399 14.2534V16.5918C19.9399 16.8074 19.7653 16.9824 19.5493 16.9824H17.4691V19.063C17.4691 19.2786 17.2941 19.4535 17.0785 19.4535H14.7401C14.5245 19.4535 14.3495 19.2786 14.3495 19.063V16.9824H12.2689C12.0529 16.9824 11.8783 16.8074 11.8783 16.5918V14.2534C11.8783 14.0378 12.0529 13.8628 12.2689 13.8628H14.3495V11.7822C14.3495 11.5666 14.5245 11.3916 14.7401 11.3916H17.0785C17.2941 11.3916 17.4691 11.5666 17.4691 11.7822V13.8628H19.5494C19.7653 13.8628 19.9399 14.0378 19.9399 14.2534Z" fill="#EDEAFF"/>
</svg>
