<svg width="206" height="34" viewBox="0 0 206 34" fill="none" xmlns="http://www.w3.org/2000/svg">
<path fill-rule="evenodd" clip-rule="evenodd" d="M0 17.3376L2.34369 18.6884L0 20.0392V28.0005L2.34388 26.6495V1.35182L0 0.000976562V17.3376Z" fill="white"/>
<path fill-rule="evenodd" clip-rule="evenodd" d="M4.68799 25.2979L7.03187 23.947V4.05299L4.68799 2.70215V25.2979Z" fill="white"/>
<path fill-rule="evenodd" clip-rule="evenodd" d="M9.37549 22.5954L11.7194 21.2446V6.75426L9.37549 5.40332V22.5954Z" fill="white"/>
<path fill-rule="evenodd" clip-rule="evenodd" d="M14.0635 19.8935L16.4074 21.2338V6.76465L14.0635 8.1155V19.8935Z" fill="white"/>
<path fill-rule="evenodd" clip-rule="evenodd" d="M21.0949 23.9365V18.6879L18.751 17.3369V22.596L21.0949 23.9365Z" fill="white"/>
<path fill-rule="evenodd" clip-rule="evenodd" d="M21.0949 4.06348L18.751 5.40384V17.3368L21.0949 15.9857V4.06348Z" fill="white"/>
<path fill-rule="evenodd" clip-rule="evenodd" d="M46.8073 4.06836H43.8306V4.61922H45.0208V8.81479H45.617V4.61922H46.8073V4.06836Z" fill="white"/>
<path fill-rule="evenodd" clip-rule="evenodd" d="M54.3599 4.06836H53.7637V8.81479H55.5502V8.26393H54.3599V4.06836Z" fill="white"/>
<path fill-rule="evenodd" clip-rule="evenodd" d="M38.2295 8.70932H41.7984L41.4546 8.11306H39.2615L40.965 5.15705L43.0126 8.70932H43.7008L40.965 3.96289L38.2295 8.70932Z" fill="white"/>
<path fill-rule="evenodd" clip-rule="evenodd" d="M46.9717 8.81479H50.5406L50.1968 8.21843H48.0037L49.7073 5.26242L51.7548 8.81479H52.4431L49.7073 4.06836L46.9717 8.81479Z" fill="white"/>
<path fill-rule="evenodd" clip-rule="evenodd" d="M61.6537 8.81479H62.3419L59.6064 4.06836L56.8706 8.81479H60.4395L60.0958 8.21843H57.9026L59.6064 5.26242L61.6537 8.81479Z" fill="white"/>
<path fill-rule="evenodd" clip-rule="evenodd" d="M36.4656 7.7334C36.3313 7.7334 36.2187 7.78063 36.1215 7.87778C36.0243 7.97502 35.9771 8.08602 35.9771 8.21712C35.9771 8.36111 36.0227 8.47683 36.1166 8.57061C36.2108 8.66468 36.3249 8.71037 36.4656 8.71037C36.603 8.71037 36.7156 8.66468 36.8095 8.57061C36.9068 8.47336 36.954 8.35938 36.954 8.22183C36.954 8.08765 36.9068 7.97512 36.8095 7.87778C36.7123 7.78063 36.5999 7.7334 36.4656 7.7334Z" fill="white"/>
<mask id="mask0" mask-type="alpha" maskUnits="userSpaceOnUse" x="0" y="0" width="91" height="28">
<path d="M0 27.9996H90.4439V0H0V27.9996Z" fill="white"/>
</mask>
<g mask="url(#mask0)">
<path fill-rule="evenodd" clip-rule="evenodd" d="M28.127 8.81479H28.7232V4.06836H28.127V8.81479Z" fill="white"/>
<path fill-rule="evenodd" clip-rule="evenodd" d="M33.7789 7.71143C33.4372 8.05501 33.0138 8.22882 32.5192 8.22882C32.061 8.22882 31.6523 8.05867 31.3045 7.72307C30.9533 7.38613 30.775 6.95175 30.775 6.43205C30.775 5.93582 30.9467 5.51251 31.2856 5.17364C31.6238 4.83141 32.0447 4.65741 32.5357 4.65741C33.029 4.65741 33.4492 4.8317 33.7847 5.17518C34.1205 5.5151 34.2912 5.94198 34.2912 6.44302C34.2912 6.93857 34.1187 7.36526 33.7789 7.71143ZM32.5458 4.06836C31.8785 4.06836 31.323 4.29555 30.8477 4.76302C30.3708 5.22981 30.1392 5.77202 30.1392 6.42089C30.1392 7.16211 30.3924 7.74375 30.9135 8.1991C31.383 8.60751 31.9195 8.81479 32.5076 8.81479C33.1837 8.81479 33.7445 8.58837 34.2221 8.12273C34.6963 7.66045 34.9269 7.11305 34.9269 6.44946C34.9269 5.78943 34.697 5.23953 34.2239 4.7685C33.7527 4.29728 33.2038 4.06836 32.5458 4.06836Z" fill="white"/>
<path fill-rule="evenodd" clip-rule="evenodd" d="M30.7213 14.5124H33.006C34.0726 14.5124 34.8384 14.725 35.2811 15.1436C35.7256 15.5641 35.9415 16.1732 35.9415 17.0069C35.9415 17.8125 35.725 18.4122 35.2799 18.8401C34.8366 19.2645 34.072 19.4798 33.006 19.4798H30.7213V14.5124ZM33.1737 12.2334H28.127V27.7245H30.7213V21.759H33.1737C34.8903 21.759 36.2317 21.3378 37.1614 20.5061C38.101 19.6645 38.5775 18.4869 38.5775 17.0069C38.5775 15.5427 38.117 14.3671 37.2094 13.5128C36.3077 12.6638 34.95 12.2334 33.1737 12.2334Z" fill="white"/>
<path fill-rule="evenodd" clip-rule="evenodd" d="M49.4954 17.0908C49.4954 18.8068 48.5695 19.6064 46.5809 19.6064H44.1285V14.5752H46.5809C48.5695 14.5752 49.4954 15.3748 49.4954 17.0908ZM51.0338 20.1249C51.7621 19.3286 52.1314 18.2723 52.1314 16.9855C52.1314 15.5654 51.6719 14.4045 50.7662 13.5362C49.8646 12.6719 48.5131 12.2334 46.7487 12.2334H41.5342V27.7246H44.1285V21.675H45.6795L49.5447 27.7246H52.5296L48.4325 21.5157C49.5324 21.2784 50.4061 20.812 51.0338 20.1249Z" fill="white"/>
<path fill-rule="evenodd" clip-rule="evenodd" d="M55.1948 27.7246H57.7892V12.2334H55.1948V27.7246Z" fill="white"/>
<path fill-rule="evenodd" clip-rule="evenodd" d="M69.3547 19.7036C68.7659 19.4191 67.9777 19.1165 67.0107 18.8034C66.242 18.556 65.6322 18.3315 65.1987 18.1343C64.7998 17.9542 64.4623 17.7023 64.1947 17.3851C63.9452 17.0892 63.8239 16.7041 63.8239 16.2083C63.8239 15.5778 64.0118 15.1094 64.3981 14.7756C64.8008 14.4283 65.3329 14.2597 66.0244 14.2597C66.7834 14.2597 67.3608 14.4503 67.7893 14.8429C68.2278 15.2441 68.4891 15.6912 68.5877 16.209L68.6407 16.4862H71.3696L71.3203 16.1017C71.1687 14.9255 70.6263 13.9432 69.7076 13.1829C68.7932 12.4272 67.5541 12.0439 66.0244 12.0439C65.0407 12.0439 64.1688 12.2173 63.4331 12.5591C62.6824 12.9084 62.0969 13.4101 61.6921 14.0518C61.288 14.6917 61.083 15.4386 61.083 16.2716C61.083 17.2379 61.3065 18.0336 61.7471 18.6367C62.1789 19.2272 62.7097 19.6756 63.3242 19.9708C63.9059 20.2514 64.6796 20.5506 65.6275 20.8604C66.4029 21.105 67.0247 21.3369 67.4755 21.5476C67.8902 21.7427 68.2428 22.0127 68.524 22.3505C68.7889 22.6684 68.9179 23.0783 68.9179 23.6027C68.9179 24.2144 68.7306 24.6989 68.3458 25.0841C67.9666 25.4633 67.3975 25.6552 66.6545 25.6552C66.072 25.6552 65.5742 25.54 65.1744 25.312C64.7719 25.0828 64.4593 24.7902 64.2458 24.4424C64.0288 24.0892 63.9006 23.7247 63.8639 23.3581L63.8333 23.051H61.1147L61.1474 23.4221C61.2223 24.2791 61.5088 25.0548 61.9989 25.7258C62.4871 26.3937 63.1462 26.9247 63.9579 27.304C64.7629 27.6804 65.6915 27.8717 66.7174 27.8717C67.7787 27.8717 68.689 27.6664 69.4237 27.2619C70.1634 26.8548 70.7242 26.315 71.0904 25.6593C71.4536 25.0081 71.6378 24.2951 71.6378 23.5394C71.6378 22.5318 71.4112 21.7054 70.9647 21.0831C70.5263 20.4707 69.9845 20.0068 69.3547 19.7036Z" fill="white"/>
<path fill-rule="evenodd" clip-rule="evenodd" d="M87.5857 12.4863L82.7272 24.1696L77.7886 12.4863H74.9316V27.7249H77.526V17.5703L81.6174 27.7249H83.7798L87.8502 17.5409V27.7249H90.4439V12.4863H87.5857Z" fill="white"/>
</g>
<path d="M135.42 15V7.9541H133.965L131.807 13.3301H131.768L129.609 7.9541H128.149V15H129.287V10H129.321L131.357 15H132.217L134.253 10H134.287V15H135.42ZM142.27 15H143.598L141.098 7.9541H139.677L137.177 15H138.476L139.076 13.1787H141.669L142.27 15ZM140.355 9.19922H140.39L141.371 12.207H139.369L140.355 9.19922ZM146.57 15V10.0586H146.614L150.115 15H151.199V7.9541H149.988V12.8906H149.944L146.448 7.9541H145.354V15H146.57ZM158.049 15H159.377L156.877 7.9541H155.456L152.956 15H154.255L154.855 13.1787H157.448L158.049 15ZM156.135 9.19922H156.169L157.15 12.207H155.148L156.135 9.19922ZM167.008 12.0605V11.3086H164.078V12.2705H165.777L165.772 12.3877C165.753 13.374 165.016 14.0479 163.951 14.0479C162.682 14.0479 161.891 13.0566 161.891 11.4355C161.891 9.84863 162.647 8.90625 163.917 8.90625C164.781 8.90625 165.436 9.38477 165.675 10.1953H166.954C166.725 8.78418 165.514 7.83691 163.912 7.83691C161.876 7.83691 160.602 9.21387 160.602 11.4502C160.602 13.7207 161.881 15.1172 163.937 15.1172C165.865 15.1172 167.008 13.9697 167.008 12.0605ZM173.599 13.9355H170.298V11.9238H173.418V10.9229H170.298V9.01855H173.599V7.9541H169.038V15H173.599V13.9355ZM182.963 15V7.9541H181.508L179.35 13.3301H179.311L177.152 7.9541H175.692V15H176.83V10H176.864L178.9 15H179.76L181.796 10H181.83V15H182.963ZM189.769 13.9355H186.468V11.9238H189.588V10.9229H186.468V9.01855H189.769V7.9541H185.208V15H189.769V13.9355ZM193.078 15V10.0586H193.122L196.623 15H197.707V7.9541H196.496V12.8906H196.452L192.956 7.9541H191.862V15H193.078ZM202.931 15V9.01855H205.035V7.9541H199.566V9.01855H201.676V15H202.931ZM131.187 30.1172C132.852 30.1172 134.004 29.2041 134.224 27.6953H132.988C132.793 28.5449 132.124 29.0479 131.191 29.0479C129.971 29.0479 129.199 28.0566 129.199 26.4746C129.199 24.9023 129.976 23.9062 131.187 23.9062C132.1 23.9062 132.817 24.4873 132.983 25.3711H134.224C134.067 23.8574 132.822 22.8369 131.187 22.8369C129.185 22.8369 127.91 24.2285 127.91 26.4746C127.91 28.7354 129.175 30.1172 131.187 30.1172ZM139.286 22.8369C137.23 22.8369 135.941 24.2383 135.941 26.4795C135.941 28.7207 137.23 30.1172 139.286 30.1172C141.337 30.1172 142.626 28.7207 142.626 26.4795C142.626 24.2383 141.337 22.8369 139.286 22.8369ZM139.286 23.9111C140.541 23.9111 141.342 24.9072 141.342 26.4795C141.342 28.0469 140.541 29.043 139.286 29.043C138.026 29.043 137.23 28.0469 137.23 26.4795C137.23 24.9072 138.026 23.9111 139.286 23.9111ZM145.848 30V25.0586H145.892L149.393 30H150.477V22.9541H149.266V27.8906H149.222L145.726 22.9541H144.632V30H145.848ZM152.429 28.0322C152.487 29.3213 153.566 30.1172 155.197 30.1172C156.892 30.1172 157.951 29.2676 157.951 27.9199C157.951 26.875 157.331 26.2793 155.847 25.9717L155.085 25.8154C154.206 25.6299 153.854 25.3223 153.854 24.8438C153.854 24.2529 154.411 23.8818 155.192 23.8818C155.998 23.8818 156.555 24.2822 156.613 24.9463H157.819C157.79 23.6865 156.76 22.8369 155.202 22.8369C153.674 22.8369 152.585 23.6768 152.585 24.917C152.585 25.9473 153.244 26.6113 154.655 26.8994L155.412 27.0557C156.33 27.2461 156.682 27.5586 156.682 28.0664C156.682 28.6523 156.091 29.0723 155.241 29.0723C154.362 29.0723 153.728 28.6816 153.635 28.0322H152.429ZM162.999 22.8369C160.943 22.8369 159.654 24.2383 159.654 26.4795C159.654 28.7207 160.943 30.1172 162.999 30.1172C165.05 30.1172 166.339 28.7207 166.339 26.4795C166.339 24.2383 165.05 22.8369 162.999 22.8369ZM162.999 23.9111C164.254 23.9111 165.055 24.9072 165.055 26.4795C165.055 28.0469 164.254 29.043 162.999 29.043C161.739 29.043 160.943 28.0469 160.943 26.4795C160.943 24.9072 161.739 23.9111 162.999 23.9111ZM172.803 28.9355H169.604V22.9541H168.345V30H172.803V28.9355ZM179.267 28.9355H175.966V26.9238H179.086V25.9229H175.966V24.0186H179.267V22.9541H174.706V30H179.267V28.9355Z" fill="white"/>
<path d="M111.294 2V32" stroke="white"/>
</svg>
