<svg width="210" height="77" viewBox="0 0 210 77" fill="none" xmlns="http://www.w3.org/2000/svg">
<path fill-rule="evenodd" clip-rule="evenodd" d="M0 28.7535L3.88697 30.9939L0 33.2341V46.4377L3.88729 44.1972V2.24134L0 0.000976562V28.7535Z" fill="black"/>
<path fill-rule="evenodd" clip-rule="evenodd" d="M7.77441 41.9563L11.6617 39.7158V6.72181L7.77441 4.48145V41.9563Z" fill="black"/>
<path fill-rule="evenodd" clip-rule="evenodd" d="M15.5488 37.4748L19.4361 35.2345V11.2024L15.5488 8.96191V37.4748Z" fill="black"/>
<path fill-rule="evenodd" clip-rule="evenodd" d="M23.3242 32.9947L27.2115 35.2176V11.2207L23.3242 13.4611V32.9947Z" fill="black"/>
<path fill-rule="evenodd" clip-rule="evenodd" d="M34.9859 39.6982V30.9934L31.0986 28.7529V37.4751L34.9859 39.6982Z" fill="black"/>
<path fill-rule="evenodd" clip-rule="evenodd" d="M34.9859 6.73926L31.0986 8.96223V28.7528L34.9859 26.5121V6.73926Z" fill="black"/>
<path fill-rule="evenodd" clip-rule="evenodd" d="M77.6292 6.74707H72.6924V7.66067H74.6663V14.619H75.6552V7.66067H77.6292V6.74707Z" fill="black"/>
<path fill-rule="evenodd" clip-rule="evenodd" d="M90.1549 6.74707H89.166V14.619H92.1289V13.7054H90.1549V6.74707Z" fill="black"/>
<path fill-rule="evenodd" clip-rule="evenodd" d="M63.4023 14.4451H69.3213L68.7512 13.4562H65.1139L67.9392 8.55374L71.335 14.4451H72.4764L67.9392 6.57324L63.4023 14.4451Z" fill="black"/>
<path fill-rule="evenodd" clip-rule="evenodd" d="M77.9023 14.619H83.8213L83.2512 13.6299H79.6139L82.4394 8.72741L85.835 14.619H86.9766L82.4394 6.74707L77.9023 14.619Z" fill="black"/>
<path fill-rule="evenodd" clip-rule="evenodd" d="M102.251 14.619H103.392L98.8556 6.74707L94.3184 14.619H100.237L99.6674 13.6299H96.0299L98.8556 8.72741L102.251 14.619Z" fill="black"/>
<path fill-rule="evenodd" clip-rule="evenodd" d="M60.4772 12.8252C60.2545 12.8252 60.0677 12.9035 59.9066 13.0646C59.7453 13.2259 59.667 13.41 59.667 13.6274C59.667 13.8663 59.7428 14.0582 59.8985 14.2137C60.0546 14.3697 60.2438 14.4455 60.4772 14.4455C60.7052 14.4455 60.8918 14.3697 61.0477 14.2137C61.209 14.0524 61.2873 13.8634 61.2873 13.6353C61.2873 13.4127 61.209 13.2261 61.0477 13.0646C60.8864 12.9035 60.6999 12.8252 60.4772 12.8252Z" fill="black"/>
<mask id="mask0" mask-type="alpha" maskUnits="userSpaceOnUse" x="0" y="0" width="150" height="47">
<path d="M0 46.4369H150V0H0V46.4369Z" fill="white"/>
</mask>
<g mask="url(#mask0)">
<path fill-rule="evenodd" clip-rule="evenodd" d="M46.6484 14.619H47.6373V6.74707H46.6484V14.619Z" fill="#E42527"/>
<path fill-rule="evenodd" clip-rule="evenodd" d="M56.0218 12.7891C55.4551 13.3589 54.7529 13.6471 53.9326 13.6471C53.1726 13.6471 52.4948 13.3649 51.918 12.8084C51.3356 12.2495 51.0398 11.5291 51.0398 10.6672C51.0398 9.84424 51.3247 9.14217 51.8867 8.58017C52.4476 8.01258 53.1457 7.724 53.9601 7.724C54.7781 7.724 55.4751 8.01306 56.0315 8.58272C56.5884 9.14648 56.8714 9.85445 56.8714 10.6854C56.8714 11.5073 56.5854 12.2149 56.0218 12.7891ZM53.9767 6.74707C52.87 6.74707 51.9488 7.12387 51.1604 7.89916C50.3695 8.67333 49.9854 9.57257 49.9854 10.6487C49.9854 11.878 50.4054 12.8427 51.2695 13.5978C52.0483 14.2752 52.938 14.619 53.9133 14.619C55.0346 14.619 55.9648 14.2434 56.7568 13.4712C57.5433 12.7045 57.9258 11.7967 57.9258 10.6961C57.9258 9.60144 57.5444 8.68944 56.7599 7.90825C55.9784 7.12674 55.068 6.74707 53.9767 6.74707Z" fill="#E42527"/>
<path fill-rule="evenodd" clip-rule="evenodd" d="M50.9511 24.0679H54.7403C56.5093 24.0679 57.7793 24.4204 58.5135 25.1147C59.2507 25.8119 59.6088 26.8222 59.6088 28.2048C59.6088 29.541 59.2497 30.5356 58.5115 31.2452C57.7764 31.9492 56.5082 32.3062 54.7403 32.3062H50.9511V24.0679ZM55.0184 20.2881H46.6484V45.9798H50.9511V36.0861H55.0184C57.8654 36.0861 60.0901 35.3875 61.6319 34.0083C63.1903 32.6125 63.9806 30.6594 63.9806 28.2048C63.9806 25.7765 63.2168 23.8268 61.7115 22.4099C60.2161 21.002 57.9643 20.2881 55.0184 20.2881Z" fill="#F83633"/>
<path fill-rule="evenodd" clip-rule="evenodd" d="M82.0873 28.3441C82.0873 31.19 80.5517 32.5161 77.2537 32.5161H73.1865V24.1719H77.2537C80.5517 24.1719 82.0873 25.498 82.0873 28.3441ZM84.6387 33.3761C85.8467 32.0554 86.4591 30.3035 86.4591 28.1694C86.4591 25.8142 85.697 23.8889 84.1949 22.4488C82.6997 21.0154 80.4582 20.2881 77.5321 20.2881H68.8838V45.98H73.1865V35.9468H75.7588L82.1691 45.98H87.1195L80.3246 35.6827C82.1487 35.2891 83.5977 34.5156 84.6387 33.3761Z" fill="#F83633"/>
<path fill-rule="evenodd" clip-rule="evenodd" d="M91.54 45.98H95.8427V20.2881H91.54V45.98Z" fill="#F83633"/>
<path fill-rule="evenodd" clip-rule="evenodd" d="M115.023 32.678C114.047 32.2061 112.739 31.7043 111.136 31.185C109.861 30.7747 108.85 30.4024 108.131 30.0754C107.469 29.7767 106.909 29.359 106.465 28.8328C106.052 28.3421 105.85 27.7034 105.85 26.8812C105.85 25.8355 106.162 25.0587 106.803 24.5049C107.471 23.9291 108.353 23.6494 109.5 23.6494C110.759 23.6494 111.716 23.9656 112.427 24.6166C113.154 25.282 113.588 26.0235 113.751 26.8823L113.839 27.3421H118.365L118.283 26.7043C118.032 24.7536 117.132 23.1244 115.608 21.8635C114.092 20.6102 112.037 19.9746 109.5 19.9746C107.868 19.9746 106.422 20.2621 105.202 20.829C103.957 21.4083 102.986 22.2403 102.315 23.3047C101.645 24.3658 101.305 25.6045 101.305 26.9862C101.305 28.5888 101.675 29.9084 102.406 30.9086C103.122 31.8879 104.003 32.6316 105.022 33.1212C105.986 33.5865 107.27 34.0828 108.842 34.5966C110.128 35.0023 111.159 35.3869 111.907 35.7363C112.594 36.0599 113.179 36.5077 113.645 37.068C114.085 37.5952 114.299 38.2749 114.299 39.1447C114.299 40.1592 113.988 40.9628 113.35 41.6015C112.721 42.2305 111.777 42.5487 110.545 42.5487C109.579 42.5487 108.753 42.3576 108.09 41.9796C107.423 41.5994 106.904 41.1141 106.55 40.5373C106.19 39.9515 105.978 39.3469 105.917 38.739L105.866 38.2296H101.357L101.411 38.8451C101.536 40.2664 102.011 41.553 102.824 42.6658C103.633 43.7734 104.726 44.6541 106.073 45.2831C107.408 45.9075 108.948 46.2247 110.649 46.2247C112.409 46.2247 113.919 45.8842 115.138 45.2134C116.364 44.5382 117.294 43.6429 117.902 42.5554C118.504 41.4755 118.81 40.2929 118.81 39.0397C118.81 37.3685 118.434 35.998 117.693 34.9659C116.966 33.9502 116.068 33.1808 115.023 32.678Z" fill="#F83633"/>
<path fill-rule="evenodd" clip-rule="evenodd" d="M145.26 20.707L137.202 40.0837L129.012 20.707H124.273V45.98H128.576V29.1387L135.362 45.98H138.948L145.699 29.09V45.98H150V20.707H145.26Z" fill="#F83633"/>
</g>
<path d="M56.2615 67V58.1926H54.4426L51.7449 64.9126H51.696L48.9983 58.1926H47.1733V67H48.5955V60.75H48.6382L51.1833 67H52.2576L54.8027 60.75H54.8455V67H56.2615ZM64.5735 67H66.2336L63.1086 58.1926H61.3325L58.2075 67H59.8311L60.5818 64.7234H63.8228L64.5735 67ZM62.1809 59.749H62.2236L63.4504 63.5088H60.948L62.1809 59.749ZM69.6995 67V60.8232H69.7544L74.1306 67H75.4856V58.1926H73.9719V64.3633H73.917L69.5469 58.1926H68.1797V67H69.6995ZM83.7976 67H85.4578L82.3328 58.1926H80.5566L77.4316 67H79.0552L79.8059 64.7234H83.0469L83.7976 67ZM81.405 59.749H81.4478L82.6746 63.5088H80.1721L81.405 59.749ZM94.7463 63.3257V62.3857H91.0842V63.5881H93.2083L93.2021 63.7346C93.1777 64.9675 92.2561 65.8098 90.9255 65.8098C89.3386 65.8098 88.3499 64.5708 88.3499 62.5444C88.3499 60.5608 89.2959 59.3828 90.8828 59.3828C91.9631 59.3828 92.781 59.981 93.0801 60.9941H94.6792C94.3923 59.2302 92.8787 58.0461 90.8767 58.0461C88.3315 58.0461 86.7385 59.7673 86.7385 62.5627C86.7385 65.4009 88.3376 67.1465 90.9072 67.1465C93.3181 67.1465 94.7463 65.7122 94.7463 63.3257ZM102.735 65.6694H98.6089V63.1548H102.509V61.9036H98.6089V59.5232H102.735V58.1926H97.0342V67H102.735V65.6694ZM114.19 67V58.1926H112.371L109.674 64.9126H109.625L106.927 58.1926H105.102V67H106.524V60.75H106.567L109.112 67H110.186L112.731 60.75H112.774V67H114.19ZM122.447 65.6694H118.321V63.1548H122.221V61.9036H118.321V59.5232H122.447V58.1926H116.747V67H122.447V65.6694ZM126.334 67V60.8232H126.389L130.765 67H132.12V58.1926H130.607V64.3633H130.552L126.182 58.1926H124.814V67H126.334ZM138.4 67V59.5232H141.031V58.1926H134.195V59.5232H136.831V67H138.4ZM150.41 67.1465C152.491 67.1465 153.931 66.0051 154.206 64.1191H152.662C152.418 65.1812 151.582 65.8098 150.416 65.8098C148.89 65.8098 147.926 64.5708 147.926 62.5933C147.926 60.6279 148.896 59.3828 150.41 59.3828C151.551 59.3828 152.448 60.1091 152.656 61.2139H154.206C154.011 59.3218 152.454 58.0461 150.41 58.0461C147.907 58.0461 146.314 59.7856 146.314 62.5933C146.314 65.4192 147.895 67.1465 150.41 67.1465ZM160.284 58.0461C157.715 58.0461 156.103 59.7979 156.103 62.5994C156.103 65.4009 157.715 67.1465 160.284 67.1465C162.848 67.1465 164.459 65.4009 164.459 62.5994C164.459 59.7979 162.848 58.0461 160.284 58.0461ZM160.284 59.3889C161.853 59.3889 162.854 60.634 162.854 62.5994C162.854 64.5586 161.853 65.8037 160.284 65.8037C158.709 65.8037 157.715 64.5586 157.715 62.5994C157.715 60.634 158.709 59.3889 160.284 59.3889ZM168.236 67V60.8232H168.291L172.667 67H174.022V58.1926H172.509V64.3633H172.454L168.083 58.1926H166.716V67H168.236ZM176.212 64.5403C176.286 66.1516 177.635 67.1465 179.673 67.1465C181.791 67.1465 183.115 66.0845 183.115 64.3999C183.115 63.0938 182.34 62.3491 180.485 61.9646L179.533 61.7693C178.434 61.5374 177.995 61.1528 177.995 60.5547C177.995 59.8162 178.69 59.3523 179.667 59.3523C180.674 59.3523 181.37 59.8528 181.443 60.6829H182.951C182.914 59.1082 181.626 58.0461 179.679 58.0461C177.769 58.0461 176.408 59.0959 176.408 60.6462C176.408 61.9341 177.232 62.7642 178.996 63.1243L179.942 63.3196C181.089 63.5576 181.529 63.9482 181.529 64.583C181.529 65.3154 180.79 65.8403 179.728 65.8403C178.629 65.8403 177.836 65.3521 177.72 64.5403H176.212ZM189.175 58.0461C186.606 58.0461 184.994 59.7979 184.994 62.5994C184.994 65.4009 186.606 67.1465 189.175 67.1465C191.739 67.1465 193.35 65.4009 193.35 62.5994C193.35 59.7979 191.739 58.0461 189.175 58.0461ZM189.175 59.3889C190.744 59.3889 191.745 60.634 191.745 62.5994C191.745 64.5586 190.744 65.8037 189.175 65.8037C187.601 65.8037 186.606 64.5586 186.606 62.5994C186.606 60.634 187.601 59.3889 189.175 59.3889ZM201.18 65.6694H197.182V58.1926H195.607V67H201.18V65.6694ZM209.01 65.6694H204.884V63.1548H208.784V61.9036H204.884V59.5232H209.01V58.1926H203.309V67H209.01V65.6694Z" fill="#979797"/>
</svg>
