<svg width="230" height="105" viewBox="0 0 230 105" fill="none" xmlns="http://www.w3.org/2000/svg">
<path fill-rule="evenodd" clip-rule="evenodd" d="M41.5278 80C41.5278 83.866 44.8649 87 48.9815 87H204.444C208.561 87 211.898 83.866 211.898 80C211.898 76.134 208.561 73 204.444 73H198.056C193.939 73 190.602 69.866 190.602 66C190.602 62.134 193.939 59 198.056 59H218.287C222.404 59 225.741 55.866 225.741 52C225.741 48.134 222.404 45 218.287 45H194.861C198.978 45 202.315 41.866 202.315 38C202.315 34.134 198.978 31 194.861 31H126.713C130.83 31 134.167 27.866 134.167 24C134.167 20.134 130.83 17 126.713 17H66.0185C61.902 17 58.5648 20.134 58.5648 24C58.5648 27.866 61.902 31 66.0185 31H23.4259C19.3094 31 15.9722 34.134 15.9722 38C15.9722 41.866 19.3094 45 23.4259 45H50.0463C54.1629 45 57.5 48.134 57.5 52C57.5 55.866 54.1629 59 50.0463 59H7.4537C3.33714 59 0 62.134 0 66C0 69.866 3.33714 73 7.4537 73H48.9815C44.8649 73 41.5278 76.134 41.5278 80ZM230 80C230 83.866 226.663 87 222.546 87C218.43 87 215.093 83.866 215.093 80C215.093 76.134 218.43 73 222.546 73C226.663 73 230 76.134 230 80Z" fill="#FFEAEB"/>
<path d="M173.636 2H62.3636C59.9537 2 58 3.85802 58 6.15V80.85C58 83.142 59.9537 85 62.3636 85H173.636C176.046 85 178 83.142 178 80.85V6.15C178 3.85802 176.046 2 173.636 2Z" fill="white"/>
<path d="M170.583 43.354V20.6248C170.575 19.6121 169.85 18.7474 168.854 18.5623C165.633 17.8831 163.117 15.3666 162.438 12.1457C162.253 11.1499 161.388 10.425 160.375 10.4165H76.6251C75.6123 10.425 74.7476 11.1499 74.5626 12.1457C73.8833 15.3666 71.3669 17.8831 68.1459 18.5623C67.1502 18.7474 66.4252 19.6121 66.4167 20.6248V66.8748C66.4252 67.8876 67.1502 68.7523 68.1459 68.9373C71.3669 69.6166 73.8833 72.133 74.5626 75.354C74.7476 76.3497 75.6123 77.0747 76.6251 77.0832H123.188" fill="white"/>
<path d="M153.917 75V99.7708C153.995 100.571 153.603 101.345 152.911 101.755C152.22 102.166 151.353 102.139 150.688 101.688L147.667 99.4583L142.563 95.7083C141.888 95.1872 140.946 95.1872 140.271 95.7083L138.292 97.1667L132.146 101.688C131.481 102.139 130.614 102.166 129.922 101.755C129.231 101.345 128.839 100.571 128.917 99.7708V75H153.917Z" fill="#FFB5B1"/>
<path d="M167.583 52.0835C167.583 55.2085 171.333 58.9168 170.438 61.7502C169.521 64.6668 164.313 65.3752 162.583 67.8127C160.833 70.271 161.75 75.5627 159.354 77.3543C157.792 78.521 155.25 77.8335 152.875 77.4793C151.758 77.2535 150.605 77.282 149.5 77.5627C149.291 77.6353 149.089 77.726 148.896 77.8335C146.417 79.1668 144.25 83.3335 141.417 83.3335C140.224 83.2272 139.111 82.6859 138.292 81.8127C136.625 80.2918 135.083 78.146 133.333 77.5627C131.453 77.2657 129.531 77.3579 127.688 77.8335C126.361 78.1861 124.952 78.0607 123.708 77.4793C123.622 77.4589 123.543 77.4157 123.479 77.3543C121.083 75.5627 122 70.271 120.25 67.8127C118.521 65.3752 113.313 64.6668 112.396 61.7502C111.5 58.9168 115.25 55.2085 115.25 52.0835C115.25 48.9585 111.5 45.2502 112.396 42.4168C113.313 39.5002 118.521 38.7918 120.25 36.3543C122 33.896 121.083 28.6043 123.479 26.8127C123.543 26.7513 123.622 26.7081 123.708 26.6877C124.952 26.1063 126.361 25.9809 127.688 26.3335C129.531 26.8091 131.453 26.9013 133.333 26.6043C135.083 26.021 136.625 23.8752 138.292 22.3543C139.111 21.4811 140.224 20.9398 141.417 20.8335C144.25 20.8335 146.417 25.0002 148.896 26.3335C149.089 26.441 149.291 26.5317 149.5 26.6043C150.605 26.885 151.758 26.9135 152.875 26.6877C155.25 26.3335 157.792 25.646 159.354 26.8127C161.75 28.6043 160.833 33.896 162.583 36.3543C164.313 38.7918 169.521 39.5002 170.438 42.4168C171.333 45.2502 167.583 48.9585 167.583 52.0835Z" fill="#FFEAEB"/>
<path d="M62.25 85.4168H68.5C66.2017 85.4101 64.3401 83.5486 64.3334 81.2502V6.25016C64.3401 3.95178 66.2017 2.09025 68.5 2.0835H62.25C59.9517 2.09025 58.0901 3.95178 58.0834 6.25016V81.2502C58.0901 83.5486 59.9517 85.4101 62.25 85.4168Z" fill="white"/>
<path d="M60.1667 6.25V33.3333V81.25H56V33.3333V6.25H60.1667Z" fill="white"/>
<path d="M58.0833 16.6667C59.2325 16.6633 60.1633 15.7325 60.1667 14.5833V6.25H56V14.5833C56.0034 15.7325 56.9342 16.6632 58.0833 16.6667Z" fill="#FF2D3B"/>
<path d="M56 81.2498H60.1667V31.2498C60.1667 30.0992 59.2339 29.1665 58.0833 29.1665C56.9327 29.1665 56 30.0992 56 31.2498V81.2498Z" fill="#FF2D3B"/>
<path d="M60.1667 22.9168C60.1584 22.3653 59.9427 21.8372 59.5625 21.4377L59.25 21.1877C59.1338 21.1089 59.0077 21.0458 58.875 21.0002C58.757 20.94 58.6306 20.8978 58.5 20.8752C58.3622 20.8517 58.223 20.8378 58.0833 20.8335C57.5317 20.8412 57.0034 21.057 56.6042 21.4377C55.8178 22.267 55.8178 23.5667 56.6042 24.396C56.8035 24.5842 57.0368 24.7327 57.2917 24.8335C57.5421 24.9402 57.8111 24.9969 58.0833 25.0002C58.6348 24.9917 59.1628 24.776 59.5625 24.396C59.9425 23.9963 60.1582 23.4683 60.1667 22.9168Z" fill="#FF2D3B"/>
<path d="M174.75 87.5H156C154.849 87.5 153.917 86.5673 153.917 85.4167C153.917 84.2661 154.849 83.3333 156 83.3333H174.75C175.9 83.3323 176.832 82.4002 176.833 81.25V6.25C176.832 5.09984 175.9 4.1677 174.75 4.16667H62.25C61.0998 4.1677 60.1677 5.09984 60.1667 6.25C60.1667 7.40059 59.2339 8.33333 58.0833 8.33333C56.9327 8.33333 56 7.40059 56 6.25C56.0038 2.79979 58.7998 0.00378898 62.25 0H174.75C178.2 0.00378898 180.996 2.79979 181 6.25V81.25C180.996 84.7002 178.2 87.4962 174.75 87.5Z" fill="#FF2D3B"/>
<path d="M128.917 87.5001H62.25C58.7998 87.4963 56.0038 84.7003 56 81.2501C56 80.0995 56.9327 79.1667 58.0833 79.1667C59.2339 79.1667 60.1667 80.0995 60.1667 81.2501C60.1677 82.4002 61.0998 83.3324 62.25 83.3334H128.917C130.067 83.3334 131 84.2662 131 85.4167C131 86.5673 130.067 87.5001 128.917 87.5001Z" fill="#FF2D3B"/>
<path d="M123.187 79.1668H76.6249C74.6215 79.166 72.9002 77.7444 72.5208 75.7773C72.0197 73.3639 70.1341 71.4781 67.7208 70.9768C65.7548 70.5977 64.334 68.8774 64.3333 66.8752V20.6252C64.3342 18.6224 65.7561 16.9019 67.7228 16.5237C70.1362 16.0221 72.0216 14.1358 72.5222 11.7222C72.9019 9.756 74.6223 8.33498 76.6249 8.3335H160.375C162.378 8.33436 164.1 9.75597 164.479 11.7231C164.98 14.1369 166.867 16.0228 169.281 16.5235C171.246 16.9032 172.666 18.6234 172.667 20.6252V43.3543C172.667 44.5049 171.734 45.4377 170.583 45.4377C169.433 45.4377 168.5 44.5049 168.5 43.3543V20.6252C164.434 19.7974 161.248 16.6317 160.396 12.5706L76.6249 12.5002C75.7964 16.5657 72.6309 19.7501 68.5703 20.6027L68.4999 66.8752C72.5662 67.7029 75.7514 70.8686 76.6041 74.9298L123.187 75.0002C124.338 75.0002 125.271 75.9329 125.271 77.0835C125.271 78.2341 124.338 79.1668 123.187 79.1668Z" fill="#FF2D3B"/>
<path d="M141.417 85.4167C138.958 85.0874 136.743 83.7608 135.292 81.7485C134.563 80.8568 133.676 80.1073 132.675 79.5379C131.495 79.3719 130.294 79.4369 129.139 79.7292C126.84 80.4517 124.345 80.1976 122.238 79.0262C120.496 77.3145 119.502 74.9835 119.473 72.5417C119.392 71.3229 119.083 70.1302 118.561 69.026C117.717 68.2045 116.723 67.5529 115.633 67.1065C113.322 66.2992 111.436 64.5917 110.403 62.3723C109.988 60.0116 110.514 57.5824 111.868 55.6044C112.526 54.5258 112.969 53.3303 113.174 52.0835C112.969 50.8368 112.525 49.6413 111.868 48.5627C110.515 46.5847 109.989 44.1562 110.403 41.7958C111.435 39.5754 113.323 37.8676 115.635 37.0617C116.725 36.6148 117.719 35.9632 118.563 35.1421C119.085 34.0371 119.394 32.8438 119.475 31.6244C119.504 29.1839 120.497 26.854 122.237 25.1425C124.344 23.9691 126.84 23.7146 129.14 24.4385C130.295 24.7334 131.497 24.7984 132.676 24.6298C133.678 24.0598 134.565 23.3095 135.293 22.4167C136.743 20.4048 138.958 19.0787 141.417 18.75C143.876 19.0793 146.091 20.4059 147.542 22.4181C148.27 23.3099 149.157 24.0594 150.158 24.6288C151.338 24.7974 152.539 24.7325 153.694 24.4375C155.993 23.7143 158.489 23.9685 160.595 25.1404C162.337 26.8521 163.331 29.1831 163.361 31.625C163.441 32.8437 163.75 34.0364 164.272 35.1406C165.116 35.9621 166.11 36.6138 167.2 37.0602C169.511 37.8675 171.398 39.575 172.431 41.7944C172.845 44.1551 172.319 46.5843 170.966 48.5623C170.308 49.6408 169.864 50.8364 169.66 52.0831C169.864 53.3299 170.308 54.5254 170.966 55.604C172.319 57.5819 172.844 60.0105 172.431 62.3708C171.398 64.5913 169.51 66.2991 167.198 67.105C166.108 67.5518 165.114 68.2035 164.27 69.0246C163.748 70.1295 163.439 71.3229 163.359 72.5423C163.329 74.9828 162.336 77.3126 160.596 79.0242C158.49 80.1975 155.993 80.4521 153.693 79.7281C152.538 79.4357 151.337 79.3708 150.157 79.5369C149.156 80.1069 148.269 80.8573 147.542 81.75C146.091 83.7621 143.876 85.0883 141.417 85.4167ZM131.757 75.2533C132.515 75.2424 133.27 75.3544 133.993 75.585C135.668 76.3179 137.144 77.4414 138.296 78.8615C139.319 79.9256 140.591 81.25 141.417 81.25C142.243 81.25 143.512 79.9265 144.536 78.8625C145.688 77.4421 147.163 76.3183 148.839 75.585C150.66 75.1501 152.559 75.1616 154.374 75.6185C155.766 75.8504 157.498 76.1352 158.106 75.6856C158.747 75.2075 159.019 73.3888 159.237 71.9279C159.363 70.0522 159.925 68.2317 160.877 66.6106C162.074 65.2017 163.59 64.0994 165.3 63.3958C166.663 62.7 168.205 61.9106 168.459 61.11C168.695 60.3685 167.89 58.7631 167.243 57.4744C166.25 55.8371 165.651 53.9916 165.493 52.0833C165.651 50.1752 166.25 48.3298 167.243 46.6929C167.889 45.4031 168.696 43.7988 168.46 43.0573C168.205 42.2556 166.663 41.4663 165.302 40.7704C163.592 40.0664 162.075 38.964 160.877 37.555C159.926 35.9351 159.366 34.1164 159.239 32.2425C159.021 30.7806 158.749 28.9608 158.106 28.4817C157.504 28.031 155.768 28.319 154.375 28.5487C152.56 29.0082 150.661 29.0197 148.841 28.5823C147.165 27.8494 145.69 26.7259 144.538 25.3058C143.514 24.241 142.243 22.9167 141.417 22.9167C140.591 22.9167 139.321 24.2402 138.298 25.3042C137.146 26.7245 135.67 27.8484 133.995 28.5817C132.174 29.0186 130.274 29.0071 128.459 28.5481C127.065 28.3163 125.334 28.0294 124.728 28.481C124.087 28.9602 123.814 30.7779 123.596 32.2388C123.47 34.1144 122.909 35.9349 121.957 37.556C120.76 38.965 119.243 40.0673 117.534 40.7708C116.17 41.4667 114.628 42.256 114.374 43.0567C114.138 43.7981 114.944 45.4035 115.591 46.6923C116.584 48.3296 117.183 50.1751 117.34 52.0833C117.183 53.9915 116.584 55.8368 115.59 57.4738C114.944 58.7635 114.138 60.3679 114.374 61.1094C114.628 61.911 116.17 62.7004 117.531 63.3963C119.242 64.1003 120.759 65.2027 121.956 66.6117C122.907 68.2316 123.468 70.0503 123.594 71.9242C123.812 73.386 124.085 75.2058 124.728 75.685C125.328 76.1335 127.063 75.8456 128.459 75.6179C129.546 75.4075 130.649 75.2855 131.757 75.2533Z" fill="#FF2D3B"/>
<path d="M141.417 72.9167C129.911 72.9167 120.583 63.5893 120.583 52.0833C120.583 40.5774 129.911 31.25 141.417 31.25C152.923 31.25 162.25 40.5774 162.25 52.0833C162.237 63.5838 152.917 72.9036 141.417 72.9167ZM141.417 35.4167C132.212 35.4167 124.75 42.8786 124.75 52.0833C124.75 61.2881 132.212 68.75 141.417 68.75C150.621 68.75 158.083 61.2881 158.083 52.0833C158.073 42.883 150.617 35.4272 141.417 35.4167Z" fill="#FF2D3B"/>
<path d="M130.996 104.163C128.697 104.162 126.833 102.299 126.833 100V77.6458C126.833 76.4952 127.766 75.5625 128.917 75.5625C130.067 75.5625 131 76.4952 131 77.6458V100L139.12 94.5983C140.52 93.6424 142.366 93.6534 143.754 94.6258L151.839 99.994L151.833 77.6458C151.833 76.4952 152.766 75.5625 153.917 75.5625C155.067 75.5625 156 76.4952 156 77.6458V100C156 101.534 155.156 102.945 153.803 103.669C152.451 104.393 150.809 104.314 149.532 103.463L141.411 98.0692L133.297 103.465C132.616 103.92 131.815 104.162 130.996 104.163Z" fill="#FF2D3B"/>
<path d="M103.917 45.8332H83.0833C81.9327 45.8332 81 44.9004 81 43.7498C81 42.5992 81.9327 41.6665 83.0833 41.6665H103.917C105.067 41.6665 106 42.5992 106 43.7498C106 44.9004 105.067 45.8332 103.917 45.8332Z" fill="#FF2D3B"/>
<path d="M108.083 37.5002H83.0833C81.9327 37.5002 81 36.5674 81 35.4168C81 34.2662 81.9327 33.3335 83.0833 33.3335H108.083C109.234 33.3335 110.167 34.2662 110.167 35.4168C110.167 36.5674 109.234 37.5002 108.083 37.5002Z" fill="#FF2D3B"/>
<path d="M106 54.1667H93.5001C92.3495 54.1667 91.4167 53.2339 91.4167 52.0833C91.4167 50.9327 92.3495 50 93.5001 50H106C107.151 50 108.083 50.9327 108.083 52.0833C108.083 53.2339 107.151 54.1667 106 54.1667Z" fill="#FF2D3B"/>
<circle cx="141.693" cy="52.3276" r="17.0898" fill="white"/>
</svg>
