<svg width="194" height="94" viewBox="0 0 194 94" fill="none" xmlns="http://www.w3.org/2000/svg">
<path fill-rule="evenodd" clip-rule="evenodd" d="M29.0694 61.1C29.0694 63.8062 31.4054 66 34.287 66H143.111C145.993 66 148.329 63.8062 148.329 61.1C148.329 58.3938 145.993 56.2 143.111 56.2H138.639C135.757 56.2 133.421 54.0062 133.421 51.3C133.421 48.5938 135.757 46.4 138.639 46.4H152.801C155.683 46.4 158.019 44.2062 158.019 41.5C158.019 38.7938 155.683 36.6 152.801 36.6H136.403C139.284 36.6 141.62 34.4062 141.62 31.7C141.62 28.9938 139.284 26.8 136.403 26.8H88.6991C91.5807 26.8 93.9167 24.6062 93.9167 21.9C93.9167 19.1938 91.5807 17 88.6991 17H46.213C43.3314 17 40.9954 19.1938 40.9954 21.9C40.9954 24.6062 43.3314 26.8 46.213 26.8H16.3981C13.5166 26.8 11.1806 28.9938 11.1806 31.7C11.1806 34.4062 13.5166 36.6 16.3981 36.6H35.0324C37.914 36.6 40.25 38.7938 40.25 41.5C40.25 44.2062 37.914 46.4 35.0324 46.4H5.21759C2.336 46.4 0 48.5938 0 51.3C0 54.0062 2.336 56.2 5.21759 56.2H34.287C31.4054 56.2 29.0694 58.3938 29.0694 61.1ZM194 70C194 73.866 190.663 77 186.546 77C182.43 77 179.093 73.866 179.093 70C179.093 66.134 182.43 63 186.546 63C190.663 63 194 66.134 194 70Z" fill="#FED7D6"/>
<g clip-path="url(#clip0)">
<rect x="59" y="9" width="55" height="78" rx="1" fill="white"/>
<rect x="86" y="21" width="44" height="35" fill="white"/>
<rect x="41" y="35" width="36" height="35" fill="#FED7D6"/>
<path d="M86 52.5V39L97 32L118.5 52.5H86Z" fill="#FDC3C2"/>
<path d="M87.8504 84.9331C87.8504 85.9545 87.0196 86.7835 86 86.7835C84.9804 86.7835 84.1496 85.9545 84.1496 84.9331C84.1496 83.9135 84.9804 83.0827 86 83.0827C87.0196 83.0827 87.8504 83.9135 87.8504 84.9331ZM53.7339 39.4134C52.712 39.4134 51.8836 40.2418 51.8836 41.2638C51.8836 42.2858 52.712 43.1142 53.7339 43.1142H57.5039V61.6181C57.5039 62.6401 58.3324 63.4685 59.3543 63.4685C60.3763 63.4685 61.2047 62.6401 61.2047 61.6181V43.1142H64.9747C65.9967 43.1142 66.8251 42.2858 66.8251 41.2638C66.8251 40.2418 65.9967 39.4134 64.9747 39.4134H53.7339ZM117.827 24.9803C122.112 24.9803 125.598 28.4667 125.598 32.752C125.598 37.0373 122.112 40.5236 117.827 40.5236C113.541 40.5236 110.055 37.0373 110.055 32.752C110.055 28.4667 113.541 24.9803 117.827 24.9803ZM113.756 32.752C113.756 34.9967 115.582 36.8229 117.827 36.8229C120.071 36.8229 121.898 34.9967 121.898 32.752C121.898 30.5073 120.071 28.6811 117.827 28.6811C115.582 28.6811 113.756 30.5073 113.756 32.752ZM112.646 86.7835H94.3268C93.2663 86.7835 92.41 85.8866 92.4804 84.8093C92.5448 83.8258 93.4062 83.0827 94.3917 83.0827H110.795V79.3819H97.1024C94.0364 79.3819 91.5512 76.8966 91.5512 73.8307V69.0197C91.5512 65.9538 94.0364 63.4685 97.1024 63.4685H110.795V55.6969H85.2598C84.2379 55.6969 83.4095 54.8684 83.4095 53.8465V19.4292C83.4095 18.4072 84.2379 17.5788 85.2598 17.5788H110.795V12.7677C110.795 11.7458 109.967 10.9173 108.945 10.9173H63.0551C62.0331 10.9173 61.2047 11.7458 61.2047 12.7677V31.0866H77.8583C78.8802 31.0866 79.7087 31.9151 79.7087 32.937V69.9449C79.7087 70.9669 78.8802 71.7953 77.8583 71.7953H61.2047V83.0827H77.6083C78.5938 83.0827 79.4552 83.8258 79.5196 84.8093C79.59 85.8866 78.7337 86.7835 77.6732 86.7835H59.3543C58.3324 86.7835 57.5039 85.9551 57.5039 84.9331V71.7953H40.8504C39.8284 71.7953 39 70.9669 39 69.9449V32.937C39 31.9151 39.8284 31.0866 40.8504 31.0866H57.5039V12.7677C57.5039 9.70182 59.9892 7.21655 63.0551 7.21655H108.945C112.011 7.21655 114.496 9.70182 114.496 12.7677V17.5788H131.15C132.172 17.5788 133 18.4072 133 19.4292V53.8465C133 54.8684 132.172 55.6969 131.15 55.6969H114.496V63.4685H119.307C122.373 63.4685 124.858 65.9538 124.858 69.0197V73.8307C124.858 76.8966 122.373 79.3819 119.307 79.3819H114.496V84.9331C114.496 85.9551 113.668 86.7835 112.646 86.7835ZM76.0079 34.7874H42.7008V68.0945H76.0079V34.7874ZM119.307 67.1693H97.1024C96.0821 67.1693 95.252 67.9994 95.252 69.0197V73.8307C95.252 74.851 96.0821 75.6811 97.1024 75.6811H119.307C120.327 75.6811 121.157 74.851 121.157 73.8307V69.0197C121.157 67.9994 120.327 67.1693 119.307 67.1693ZM87.1102 51.9961H115.772L98.6894 36.0277C96.5637 34.0408 93.2334 34.0404 91.1078 36.0277L87.1102 39.7648V51.9961ZM129.299 21.2795H87.1102V34.6988L88.5806 33.3243C92.1235 30.0125 97.6741 30.0127 101.217 33.3243L121.191 51.9961H129.299V21.2795Z" fill="#F83633"/>
</g>
<defs>
<clipPath id="clip0">
<rect width="94" height="94" fill="white" transform="translate(39)"/>
</clipPath>
</defs>
</svg>
