<svg width="23" height="17" viewBox="0 0 23 17" fill="none" xmlns="http://www.w3.org/2000/svg">
<path d="M1.64286 16.4286H21.3571C22.2607 16.4286 23 15.6893 23 14.7857V6.57143V3.28571V1.64286C23 0.739286 22.2607 0 21.3571 0H1.64286C0.739286 0 0 0.739286 0 1.64286V3.28571V6.57143V14.7857C0 15.6893 0.739286 16.4286 1.64286 16.4286Z" fill="#FF2D3B"/>
<path d="M23 3.28571H0V6.57143H23V3.28571Z" fill="#FFEAEB"/>
<path d="M19.7142 13.1428C20.6215 13.1428 21.3571 12.4073 21.3571 11.5C21.3571 10.5926 20.6215 9.8571 19.7142 9.8571C18.8069 9.8571 18.0714 10.5926 18.0714 11.5C18.0714 12.4073 18.8069 13.1428 19.7142 13.1428Z" fill="#BF222C"/>
<path d="M3.28563 13.5535H1.64277C1.39634 13.5535 1.23206 13.3892 1.23206 13.1428C1.23206 12.8964 1.39634 12.7321 1.64277 12.7321H3.28563C3.53206 12.7321 3.69634 12.8964 3.69634 13.1428C3.69634 13.3892 3.53206 13.5535 3.28563 13.5535Z" fill="#BF222C"/>
<path d="M6.57139 13.5535H4.92854C4.68211 13.5535 4.51782 13.3892 4.51782 13.1428C4.51782 12.8964 4.68211 12.7321 4.92854 12.7321H6.57139C6.81782 12.7321 6.98211 12.8964 6.98211 13.1428C6.98211 13.3892 6.81782 13.5535 6.57139 13.5535Z" fill="#BF222C"/>
<path d="M9.8571 13.5535H8.21424C7.96781 13.5535 7.80353 13.3892 7.80353 13.1428C7.80353 12.8964 7.96781 12.7321 8.21424 12.7321H9.8571C10.1035 12.7321 10.2678 12.8964 10.2678 13.1428C10.2678 13.3892 10.1035 13.5535 9.8571 13.5535Z" fill="#BF222C"/>
<path d="M13.1428 13.5535H11.4999C11.2535 13.5535 11.0892 13.3892 11.0892 13.1428C11.0892 12.8964 11.2535 12.7321 11.4999 12.7321H13.1428C13.3892 12.7321 13.5535 12.8964 13.5535 13.1428C13.5535 13.3892 13.3892 13.5535 13.1428 13.5535Z" fill="#BF222C"/>
<path d="M8.2142 11.9107H1.64277C1.39634 11.9107 1.23206 11.7464 1.23206 11.5C1.23206 11.2535 1.39634 11.0892 1.64277 11.0892H8.2142C8.46063 11.0892 8.62491 11.2535 8.62491 11.5C8.62491 11.7464 8.46063 11.9107 8.2142 11.9107Z" fill="#BF222C"/>
</svg>
