<svg width="16" height="17" viewBox="0 0 16 17" fill="none" xmlns="http://www.w3.org/2000/svg">
<path d="M13.037 3.93839C11.7126 2.61126 9.9873 1.83212 8.13473 1.71338V0.996094H8.8652C9.14026 0.996094 9.36325 0.773102 9.36325 0.498047C9.36325 0.222992 9.14026 0 8.8652 0H6.40817C6.13311 0 5.91012 0.222992 5.91012 0.498047C5.91012 0.773102 6.13311 0.996094 6.40817 0.996094H7.13864V1.71338C5.86839 1.79479 4.6581 2.18676 3.59577 2.85304L3.12265 2.37897C2.89239 2.14824 2.58609 2.02121 2.26014 2.02121C1.93418 2.02121 1.62788 2.14828 1.39765 2.37897L0.678107 3.10008C0.204465 3.57465 0.204465 4.34689 0.678107 4.82149L1.15444 5.29882C0.402621 6.5018 0 7.89408 0 9.34847C0 11.3921 0.794219 13.3134 2.23636 14.7586C3.67877 16.204 5.59665 17 7.63669 17C9.67672 17 11.5946 16.204 13.037 14.7586C14.4792 13.3134 15.2734 11.3921 15.2734 9.34847C15.2734 7.30489 14.4792 5.38352 13.037 3.93839ZM1.38318 3.80372L2.10275 3.08264C2.15946 3.02583 2.22571 3.01733 2.26017 3.01733C2.29463 3.01733 2.36091 3.0258 2.41762 3.08264L2.77854 3.44429C2.59137 3.59945 2.41035 3.76411 2.2364 3.93842C2.06294 4.11224 1.89909 4.2931 1.74466 4.4801L1.38318 4.11789C1.29671 4.03126 1.29671 3.89031 1.38318 3.80372ZM7.63669 16.0039C3.97504 16.0039 0.996094 13.0183 0.996094 9.34847C0.996094 5.67866 3.97504 2.69304 7.63669 2.69304C11.2983 2.69304 14.2773 5.67863 14.2773 9.34847C14.2773 13.0183 11.2983 16.0039 7.63669 16.0039Z" fill="#FFD100"/>
<path d="M7.63668 3.62659C4.48763 3.62659 1.92571 6.19339 1.92571 9.34841C1.92571 12.5034 4.48763 15.0702 7.63668 15.0702C10.7857 15.0702 13.3477 12.5034 13.3477 9.34841C13.3477 6.19339 10.7857 3.62659 7.63668 3.62659ZM8.13473 14.0478V13.4656C8.13473 13.1906 7.91174 12.9676 7.63668 12.9676C7.36163 12.9676 7.13864 13.1906 7.13864 13.4656V14.0478C4.93541 13.8149 3.17983 12.0549 2.94797 9.84646H3.5195C3.79455 9.84646 4.01754 9.62347 4.01754 9.34841C4.01754 9.07336 3.79455 8.85037 3.5195 8.85037H2.948C3.17983 6.64193 4.93541 4.88196 7.13864 4.64904V5.23119C7.13864 5.50625 7.36163 5.72924 7.63668 5.72924C7.91174 5.72924 8.13473 5.50625 8.13473 5.23119V4.64904C10.338 4.88196 12.0935 6.64193 12.3254 8.85037H11.7539C11.4788 8.85037 11.2558 9.07336 11.2558 9.34841C11.2558 9.62347 11.4788 9.84646 11.7539 9.84646H12.3254C12.0935 12.0549 10.338 13.8149 8.13473 14.0478Z" fill="#FFD100"/>
<path d="M8.8652 9.06097H8.16255V7.04663C8.16255 6.77158 7.93956 6.54858 7.66451 6.54858C7.38945 6.54858 7.16646 6.77158 7.16646 7.04663V9.55901C7.16646 9.83407 7.38945 10.0571 7.66451 10.0571H8.8652C9.14025 10.0571 9.36324 9.83407 9.36324 9.55901C9.36324 9.28396 9.14025 9.06097 8.8652 9.06097Z" fill="#FFD100"/>
</svg>
