<svg width="32" height="32" viewBox="0 0 32 32" fill="none" xmlns="http://www.w3.org/2000/svg">
<rect width="32" height="32" rx="4" fill="#F7EAFF"/>
<path d="M11.9653 13.3041C12.2058 14.1405 12.7504 15.174 13.1906 15.9248C13.6188 16.6553 14.2918 17.321 15.1774 17.6333C15.7698 17.84 16.4177 17.844 17.0101 17.6293C17.8804 17.3148 18.5579 16.6505 18.993 15.9223C19.4404 15.1736 19.9893 14.1396 20.2261 13.3001C20.4066 12.6617 20.4052 12.2885 20.3177 12.0774C20.2184 11.8381 19.9651 11.5474 20.0115 11.2925C20.2267 9.99971 20.1172 9.18302 19.8992 8.66733C19.5634 7.87267 18.6559 7.26892 17.9006 6.85205C17.4116 6.56185 16.7318 6.33923 15.8373 6.41476C15.5471 6.42669 15.2728 6.48632 15.0144 6.5698C14.6845 6.68111 14.3824 6.8441 14.1081 7.03492C13.7741 7.24561 13.4561 7.50799 13.1778 7.80614C12.7365 8.25933 12.343 8.84371 12.172 9.5712C12.0289 10.1158 12.0607 10.6843 12.18 11.2965C12.2253 11.5516 11.973 11.8421 11.8738 12.0814C11.7863 12.2926 11.7849 12.6657 11.9653 13.3041Z" fill="#AF2DFF"/>
<path d="M22.655 18.9891C20.7051 18.493 18.3554 19.2679 17.749 21.1864L17.6858 21.3863L17.4452 22.1475C17.4446 22.1494 17.442 22.1494 17.4413 22.1475C17.4407 22.1456 17.438 22.1457 17.4374 22.1475L17.3325 22.4723C17.2989 22.5761 17.1527 22.5781 17.1164 22.4751L16.6506 21.1541C16.5869 20.9733 16.6182 20.7723 16.7227 20.6114C18.0695 18.5377 16.2068 18.5599 16.0997 18.5638C15.9925 18.5599 14.1298 18.5377 15.4766 20.6114C15.5811 20.7723 15.6124 20.9733 15.5487 21.1541L15.0829 22.4751C15.0466 22.578 14.9004 22.5761 14.8668 22.4723L14.7619 22.1475C14.7613 22.1457 14.7586 22.1456 14.758 22.1475C14.7573 22.1494 14.7547 22.1494 14.7541 22.1475L14.5135 21.3863L14.4498 21.1853C13.8414 19.2666 11.491 18.4929 9.54029 18.9891C8.03158 19.3732 7.9547 21.1103 8.01306 21.9764C8.01353 21.9834 8.01324 21.9798 8.01376 21.9867C8.09393 23.0598 8.70413 24.014 9.70237 24.416C11.0467 24.9573 13.2408 25.5979 16.0997 25.6002C18.9646 25.6002 21.162 24.9565 22.5056 24.4137C23.4983 24.0127 24.1056 23.0547 24.1855 21.987C24.1865 21.9743 24.186 21.9806 24.1867 21.9679C24.2401 21.0989 24.1588 19.372 22.655 18.9891Z" fill="#AF2DFF"/>
</svg>
