<svg width="12" height="12" viewBox="0 0 12 12" fill="none" xmlns="http://www.w3.org/2000/svg">
<path d="M11.4239 5.28911C11.385 5.04533 11.1559 4.87926 10.9121 4.91815C10.6683 4.95705 10.5022 5.18621 10.5411 5.42999C10.5415 5.43266 10.542 5.43531 10.5425 5.43795C10.9976 8.1175 9.19444 10.6587 6.5149 11.1139C3.83535 11.5691 1.29417 9.76586 0.838982 7.08631C0.383796 4.40676 2.18702 1.86558 4.86654 1.41039C6.5144 1.13047 8.1917 1.70608 9.32042 2.93888L7.34031 3.59861C7.10606 3.67655 6.97938 3.9296 7.0573 4.16385C7.05732 4.1639 7.05735 4.16398 7.05737 4.16403C7.13532 4.39828 7.38837 4.52496 7.62261 4.44704C7.62269 4.44702 7.62274 4.44699 7.62279 4.44699L10.3047 3.55304C10.4873 3.49223 10.6104 3.32134 10.6104 3.12887V0.446988C10.6104 0.200119 10.4103 0 10.1634 0C9.91656 0 9.71644 0.200119 9.71644 0.446988V2.07979C7.41453 -0.109606 3.77359 -0.0183854 1.5842 2.28352C-0.605198 4.58543 -0.514004 8.22637 1.78793 10.4158C4.08987 12.6052 7.73078 12.514 9.9202 10.2121C11.1687 8.89941 11.7258 7.07534 11.4239 5.28911Z" fill="#A0AABB"/>
</svg>
