<svg width="240" height="140" viewBox="0 0 240 140" fill="none" xmlns="http://www.w3.org/2000/svg">
<path d="M239.951 138.089C239.951 138.2 186.951 138.255 121.531 138.255C56.112 138.255 3.11133 138.2 3.11133 138.089C3.11133 137.977 56.112 137.922 121.531 137.922C186.951 137.977 239.951 138.033 239.951 138.089Z" fill="#263238"/>
<path d="M87.6672 122.917C105.274 108.464 107.571 84.0346 105.147 62.5468C104.764 58.9655 104.764 55.1284 102.85 52.0587C100.809 48.9891 96.5982 47.1984 93.5361 48.9891C90.9844 50.5239 89.9637 53.7215 88.6879 56.4075C86.9016 59.9888 84.2223 63.0584 80.7775 65.2328C78.6085 66.6397 75.8016 67.5351 73.3775 66.5118C70.0602 65.1049 69.4223 60.7562 69.1671 57.1749C68.6568 50.5239 68.1464 43.8729 67.6361 37.0941C67.3809 33.5128 67.1257 29.8036 65.7223 26.606C64.3188 23.2805 61.5119 20.3387 58.0671 19.6992C54.4947 19.0597 50.4119 21.3619 50.0292 24.9432C49.9016 26.4781 50.2843 27.885 50.2843 29.4199C50.2843 30.9547 49.774 32.6174 48.3705 33.129C46.9671 33.6407 45.4361 32.7453 44.2878 31.85C40.205 28.5245 37.3981 24.0479 34.5912 19.6992C31.7843 15.2226 29.105 10.746 25.405 7.03677C21.705 3.32758 16.7291 0.641615 11.4981 0.769518C6.26703 0.897422 1.03599 4.47872 0.142882 9.72275C-0.750223 14.8389 2.69461 19.6992 6.26703 23.5363C11.6257 29.164 17.7498 34.1523 24.3843 37.9894C25.5326 38.7568 26.936 39.5242 27.4464 40.8032C28.4671 43.1055 26.2981 45.6636 24.0015 46.6868C21.3222 47.8379 18.3877 47.71 15.5808 48.3496C12.7739 48.8612 9.83945 50.396 8.94635 53.082C7.79807 56.9191 11.1153 60.5004 14.4326 62.6747C20.9395 67.1513 28.2119 70.6047 35.8671 72.6512C38.5464 73.4186 41.4809 74.0581 43.7774 75.7209C46.074 77.3836 47.605 80.4533 46.5843 83.1393C45.4361 85.8252 42.2464 86.8485 39.4395 86.5927C36.6326 86.3368 33.9533 85.0578 31.274 84.2904C26.1705 82.8834 19.7912 83.6509 16.8567 88.2554C14.9429 91.1972 15.0705 95.1622 16.4739 98.3598C17.7498 101.557 20.174 104.243 22.7257 106.801C31.4016 115.371 42.2464 122.022 54.1119 124.964C65.8499 127.778 76.5672 128.033 87.6672 122.917Z" fill="#FBA7AD"/>
<path d="M89.3261 138.905C87.795 130.464 85.1157 120.487 81.0329 109.871C76.9502 99.2554 71.464 87.9999 65.3398 76.3607C63.8088 73.4189 62.2777 70.605 60.7467 67.7911C59.2157 64.9773 57.6846 62.1634 56.1536 59.6053C52.9639 54.3613 49.3915 49.501 45.9467 45.0243C42.5018 40.5477 38.9294 36.4548 35.7398 32.6177C32.4225 28.7806 29.3604 25.1993 26.2984 22.1297C20.3018 15.9903 14.9432 11.5137 11.1156 8.57189C9.20178 7.16495 7.67075 6.01382 6.65006 5.3743C6.13971 4.99059 5.75695 4.7348 5.50178 4.6069C5.24661 4.47899 5.11902 4.35107 5.11902 4.35107C5.11902 4.35107 5.24661 4.47899 5.50178 4.6069C5.75695 4.8627 6.13971 5.11851 6.65006 5.50222C7.67075 6.26964 9.20178 7.29285 11.1156 8.82769C14.9432 11.7695 20.3018 16.2461 26.1708 22.3855C29.1053 25.4551 32.2949 29.0364 35.4846 32.8735C38.8018 36.7106 42.2467 40.8035 45.6915 45.4081C49.1363 49.8847 52.7088 54.745 55.8984 59.989C57.557 62.675 58.9605 65.361 60.4915 68.1749C62.0226 70.9887 63.5536 73.8026 65.0846 76.7444C71.2088 88.3836 76.695 99.6391 80.7778 110.127C84.8605 120.743 87.6674 130.592 89.1985 139.033" fill="#E0E0E0"/>
<path d="M55.8979 59.4772C55.8979 59.4772 56.0255 58.9656 56.1531 57.9424C56.2807 56.9191 56.4083 55.5122 56.4083 53.7215C56.6635 50.1402 56.7911 45.152 56.9186 39.6522C57.0462 34.1523 57.3014 29.1641 57.5566 25.5828C57.6842 23.7922 57.8117 22.3852 57.9393 21.362C58.0669 20.3388 58.0669 19.8271 58.0669 19.8271C58.0669 19.8271 57.9393 20.3388 57.8117 21.362C57.6842 22.3852 57.429 23.7922 57.3014 25.5828C56.9186 29.1641 56.6635 34.1523 56.5359 39.6522C56.4083 45.152 56.2807 50.0123 56.2807 53.7215C56.2807 55.5122 56.1531 56.9191 56.1531 57.9424C55.8979 58.9656 55.8979 59.4772 55.8979 59.4772Z" fill="#E0E0E0"/>
<path d="M8.69128 54.745C8.69128 54.745 8.81887 54.745 9.20163 54.745C9.58439 54.745 10.0947 54.745 10.6051 54.745C11.7534 54.745 13.5396 54.745 15.7085 54.745C20.0465 54.8729 25.9154 55.1287 32.4224 55.8962C38.9293 56.5357 44.7982 57.431 49.1362 58.1984C51.3051 58.5822 52.9638 58.9659 54.112 59.0938C54.6224 59.2217 55.1327 59.2217 55.5155 59.3496C55.7707 59.3496 56.0258 59.4775 56.0258 59.3496C56.0258 59.3496 55.8982 59.2217 55.5155 59.2217C55.1327 59.0938 54.75 58.9659 54.112 58.838C52.9638 58.5822 51.3051 58.1984 49.1362 57.6868C44.9258 56.7915 39.0568 55.8962 32.4224 55.2567C25.9154 54.6171 19.9189 54.3613 15.5809 54.3613C13.412 54.3613 11.6258 54.3613 10.4775 54.4892C9.96715 54.4892 9.4568 54.6171 9.07404 54.6171C8.81887 54.745 8.69128 54.745 8.69128 54.745Z" fill="#E0E0E0"/>
<path d="M80.3947 108.976C80.3947 108.976 80.5222 108.72 80.6498 108.336C80.7774 107.825 81.0326 107.313 81.2878 106.546C81.7981 105.011 82.5636 102.836 83.4567 100.15C85.2429 94.6506 87.5395 87.1043 89.9636 78.6626C92.3878 70.221 94.5568 62.5468 96.2154 57.047C97.1085 54.361 97.7464 52.1866 98.2568 50.5239C98.5119 49.7565 98.6395 49.2449 98.7671 48.7333C98.8947 48.3496 98.8947 48.0938 98.8947 48.0938C98.8947 48.0938 98.7671 48.3496 98.6395 48.7333C98.5119 49.2449 98.2568 49.7565 98.0016 50.5239C97.4912 52.0587 96.7257 54.2331 95.8326 56.9191C94.0464 62.4189 91.7498 69.9652 89.3257 78.4068C86.9016 86.8485 84.7326 94.5227 83.074 100.023C82.1809 102.708 81.5429 104.883 81.0326 106.546C80.7774 107.313 80.6498 107.825 80.5222 108.336C80.3947 108.848 80.3947 108.976 80.3947 108.976Z" fill="#E0E0E0"/>
<path d="M16.8566 94.3945C16.8566 94.3945 17.1118 94.5224 17.4946 94.5224C18.0049 94.6503 18.6428 94.7782 19.2808 94.9061C20.9394 95.2898 23.2359 95.8015 26.0429 96.441C31.7842 97.72 39.6946 99.6386 48.3705 101.813C57.0464 103.987 65.0843 105.778 70.8257 107.057C73.7602 107.696 76.0567 108.208 77.7154 108.464C78.4809 108.592 79.1188 108.72 79.6292 108.848C80.0119 108.976 80.2671 108.976 80.2671 108.976C80.2671 108.976 80.0119 108.848 79.6292 108.848C79.1188 108.72 78.4809 108.592 77.8429 108.464C76.1843 108.08 73.8878 107.569 71.0809 106.929C65.3395 105.65 57.4291 103.731 48.7532 101.557C40.0774 99.3827 32.0394 97.5921 26.298 96.3131C23.3635 95.6736 21.067 95.1619 19.4084 94.9061C18.6428 94.7782 18.0049 94.6503 17.4946 94.5224C17.1118 94.3945 16.8566 94.3945 16.8566 94.3945Z" fill="#E0E0E0"/>
<path d="M227.588 81.3986C227.588 81.3986 224.982 78.842 219.937 85.289C214.892 91.7361 212.675 95.5709 212.675 95.5709C212.675 95.5709 211.4 96.9048 210.568 95.6821C209.736 94.5149 208.849 91.4026 207.02 91.5693C205.079 91.7361 204.081 93.6257 203.86 96.6825C203.638 99.7393 202.806 106.409 202.751 107.02C202.695 107.631 202.197 108.409 201.476 107.687C200.755 106.964 197.151 100.851 194.379 102.74C191.607 104.63 192.273 113.245 192.328 114.189C192.384 115.134 192.162 115.468 191.663 115.635C191.219 115.746 190.166 113.578 189.057 111.911C187.948 110.188 186.396 108.409 184.844 109.688C183.347 110.91 181.739 116.968 185.565 128.028L187.671 133.03L193.104 133.808C204.802 134.753 210.235 131.696 211.012 129.918C211.843 128.14 209.681 127.028 207.796 126.417C205.911 125.805 203.527 125.305 203.527 124.86C203.527 124.36 203.804 124.027 204.747 123.86C205.689 123.693 214.172 122.193 215.28 119.025C216.389 115.857 209.57 113.856 208.738 113.356C207.851 112.856 208.517 112.189 209.071 111.966C209.626 111.744 215.89 109.299 218.773 108.298C221.656 107.298 223.264 105.853 222.931 103.963C222.598 102.129 219.438 102.074 218.108 101.573C216.777 101.073 217.72 99.517 217.72 99.517C217.72 99.517 220.88 96.4046 225.869 89.902C230.804 83.3438 227.588 81.4542 227.588 81.4542" fill="#FBA7AD"/>
<path d="M223.042 87.123C223.042 87.123 223.042 87.1786 222.931 87.2898C222.876 87.4009 222.765 87.5121 222.654 87.6788C222.377 88.0123 222.044 88.5681 221.545 89.1794C220.603 90.5133 219.161 92.3474 217.387 94.6816C213.894 99.2946 208.96 105.63 203.472 112.633C198.039 119.636 193.104 125.916 189.501 130.529C187.727 132.808 186.285 134.642 185.287 135.976C184.788 136.587 184.4 137.087 184.123 137.477C184.012 137.643 183.901 137.754 183.79 137.866C183.735 137.977 183.68 137.977 183.68 137.977C183.68 137.977 183.68 137.921 183.79 137.81C183.846 137.699 183.957 137.588 184.068 137.421C184.345 137.087 184.677 136.532 185.176 135.92C186.119 134.586 187.56 132.752 189.334 130.418C192.827 125.805 197.761 119.469 203.25 112.467C208.683 105.464 213.617 99.1834 217.221 94.5705C218.995 92.2918 220.436 90.4577 221.434 89.1238C221.933 88.5125 222.321 88.0123 222.598 87.6232C222.709 87.4565 222.82 87.3454 222.931 87.2342C222.987 87.1786 223.042 87.123 223.042 87.123Z" fill="#E0E0E0"/>
<path d="M208.018 95.9043C208.073 95.9043 208.129 96.4601 208.239 97.3493C208.295 98.2386 208.406 99.5168 208.461 100.906C208.517 102.24 208.517 103.463 208.572 104.463C208.572 105.353 208.628 105.908 208.572 105.908C208.517 105.908 208.461 105.353 208.35 104.463C208.295 103.574 208.239 102.296 208.184 100.906C208.129 99.5724 208.073 98.4053 208.073 97.3493C207.962 96.4601 207.962 95.9043 208.018 95.9043Z" fill="#E0E0E0"/>
<path d="M209.016 106.075C209.016 106.019 211.566 105.741 214.726 105.464C217.886 105.186 220.492 105.075 220.492 105.13C220.492 105.186 217.941 105.464 214.781 105.741C211.566 106.019 209.016 106.186 209.016 106.075Z" fill="#E0E0E0"/>
<path d="M199.813 116.802C199.813 116.746 200.367 116.857 201.31 117.024C202.197 117.191 203.472 117.413 204.858 117.635C206.244 117.858 207.519 118.024 208.406 118.135C209.293 118.247 209.903 118.358 209.903 118.358C209.903 118.413 209.348 118.413 208.406 118.302C207.463 118.247 206.188 118.08 204.802 117.858C203.416 117.635 202.141 117.357 201.254 117.135C200.312 117.024 199.813 116.857 199.813 116.802Z" fill="#E0E0E0"/>
<path d="M196.874 107.798C196.93 107.798 197.096 108.298 197.429 109.076C197.706 109.854 198.094 110.966 198.537 112.244C198.926 113.467 199.314 114.578 199.535 115.412C199.757 116.246 199.923 116.746 199.868 116.746C199.813 116.746 199.646 116.246 199.314 115.468C199.036 114.689 198.648 113.578 198.205 112.3C197.817 111.077 197.429 109.965 197.207 109.132C196.985 108.298 196.874 107.798 196.874 107.798Z" fill="#E0E0E0"/>
<path d="M187.56 116.246C187.616 116.246 187.838 116.857 188.226 117.913C188.614 118.914 189.113 120.359 189.667 121.915C190.221 123.471 190.72 124.916 191.053 125.972C191.386 127.028 191.552 127.64 191.552 127.695C191.497 127.695 191.275 127.084 190.887 126.028C190.499 125.027 190 123.582 189.445 122.026C188.891 120.47 188.392 119.025 188.059 117.969C187.727 116.913 187.505 116.246 187.56 116.246Z" fill="#E0E0E0"/>
<path d="M191.497 127.361C191.497 127.306 192.217 127.417 193.382 127.583C194.546 127.75 196.154 128.028 197.872 128.25C199.646 128.473 201.254 128.639 202.418 128.806C203.583 128.917 204.303 129.028 204.303 129.084C204.303 129.14 203.583 129.14 202.418 129.028C201.254 128.973 199.646 128.806 197.872 128.584C196.098 128.362 194.49 128.084 193.382 127.861C192.217 127.583 191.497 127.417 191.497 127.361Z" fill="#E0E0E0"/>
<path d="M61.7112 102.796L44.9683 85.9564L53.3952 70.4502C61.8221 59.6681 79.6184 60.335 79.6184 60.335C79.6184 60.335 91.7597 59.1679 105.897 61.9468C120.034 64.7257 118.925 74.1183 118.925 74.1183L120.81 108.91L122.862 137.199L70.6925 138.255L61.7112 102.796Z" fill="#7560FD"/>
<path d="M89.8194 136.588L43.0834 137.143C31.8291 137.31 24.3447 125.583 29.168 115.412L49.1818 78.231L67.3662 90.5692L54.9476 116.413L92.8131 117.08L89.8194 136.588Z" fill="#7560FD"/>
<path d="M117.262 68.4492L154.795 126.528L132.896 127.973C132.896 127.973 119.812 107.298 120.145 107.743C120.644 108.465 117.262 68.4492 117.262 68.4492Z" fill="#7560FD"/>
<path d="M66.4236 93.9595C66.4236 93.9595 66.4236 93.8483 66.4791 93.6816C66.5345 93.4593 66.59 93.1814 66.7008 92.8479C66.8672 92.1254 67.1444 91.0694 67.3661 89.7356C67.6433 88.4017 67.9205 86.8455 68.0868 85.067C68.2532 83.2885 68.364 81.3433 68.0868 79.3425C67.8096 77.3417 67.0335 75.5076 66.1464 74.007C65.2594 72.5064 64.2615 71.2282 63.3744 70.2278C62.4874 69.2274 61.6558 68.5049 61.1014 68.0047C60.547 67.5045 60.2144 67.2821 60.2144 67.2266C60.2144 67.2266 60.3252 67.2821 60.4916 67.3933C60.6579 67.5045 60.8796 67.6712 61.1568 67.8935C61.7667 68.3381 62.5983 69.0606 63.4853 70.061C64.4278 71.0058 65.4257 72.2841 66.3682 73.8403C67.2552 75.3965 68.0314 77.2306 68.364 79.2869C68.6412 81.3433 68.5304 83.2885 68.3086 85.067C68.0868 86.8455 67.8096 88.4017 67.5324 89.7356C67.2552 91.0694 66.978 92.1254 66.7563 92.8479C66.6454 93.237 66.59 93.5148 66.4791 93.6816C66.4791 93.8483 66.4236 93.9595 66.4236 93.9595Z" fill="#263238"/>
<path d="M64.9268 95.9606C64.9268 95.9606 64.8159 96.2941 64.5942 96.7943C64.3724 97.3501 64.0398 98.0726 63.5962 99.0174C62.7646 100.907 61.545 103.519 60.159 106.354C58.773 109.188 57.4424 111.745 56.4999 113.579C56.001 114.468 55.6129 115.246 55.3357 115.746C55.0585 116.247 54.8922 116.524 54.8922 116.524C54.8922 116.524 55.003 116.247 55.2802 115.691C55.5574 115.135 55.9455 114.412 56.389 113.523C57.3315 111.634 58.6066 109.077 59.9926 106.298C61.3786 103.464 62.5983 100.907 63.4854 99.0174C63.9289 98.1281 64.2615 97.4056 64.5387 96.7943C64.7605 96.2385 64.9268 95.905 64.9268 95.9606Z" fill="#263238"/>
<path d="M89.8194 136.588C89.8194 136.588 89.8194 136.532 89.8194 136.476C89.8194 136.421 89.8194 136.31 89.8194 136.199C89.8194 135.921 89.8749 135.587 89.9303 135.087C90.0412 134.087 90.2075 132.697 90.3738 130.919C90.7619 127.306 91.3717 122.248 92.037 116.302L92.1479 116.468C87.9345 116.468 83.2775 116.468 78.3433 116.468C68.9185 116.468 60.3808 116.413 54.1715 116.413C51.1223 116.413 48.572 116.357 46.8534 116.357C46.0218 116.357 45.3565 116.357 44.8575 116.357C44.6358 116.357 44.4695 116.357 44.3586 116.357C44.2477 116.357 44.1923 116.357 44.1923 116.357C44.1923 116.357 44.2477 116.357 44.3586 116.357C44.4695 116.357 44.6358 116.357 44.8575 116.357C45.3565 116.357 46.0218 116.357 46.8534 116.357C48.6275 116.357 51.1223 116.357 54.1715 116.302C60.3808 116.302 68.9185 116.302 78.3433 116.246C83.2775 116.246 87.9345 116.246 92.1479 116.246H92.3142V116.413C91.5935 122.36 90.9837 127.417 90.5401 131.03C90.3184 132.808 90.1521 134.198 89.9857 135.198C89.9303 135.643 89.8749 136.032 89.8194 136.31C89.8194 136.421 89.764 136.532 89.764 136.588C89.8749 136.588 89.8194 136.588 89.8194 136.588Z" fill="#263238"/>
<path d="M55.2802 116.858C55.2248 116.858 54.9476 116.413 54.3377 115.69C53.7833 114.968 52.8963 114.023 51.8429 113.134C50.7896 112.245 49.6808 111.522 48.9046 111.078C48.1284 110.633 47.574 110.411 47.574 110.355C47.574 110.299 48.1284 110.466 48.96 110.911C49.7916 111.3 50.9004 111.967 52.0092 112.912C53.118 113.856 53.9496 114.801 54.504 115.579C55.0584 116.302 55.2802 116.802 55.2802 116.858Z" fill="#263238"/>
<path d="M121.587 120.526C121.587 120.526 121.531 120.359 121.531 120.026C121.476 119.692 121.42 119.248 121.365 118.636C121.254 117.414 121.088 115.691 120.866 113.523C120.478 109.244 120.034 103.241 119.646 96.6831C119.258 90.1249 118.981 84.1225 118.815 79.7875C118.759 77.6199 118.704 75.897 118.648 74.6743C118.648 74.063 118.648 73.6183 118.648 73.2849C118.648 72.9514 118.648 72.7847 118.648 72.7847C118.648 72.7847 118.648 72.9514 118.704 73.2849C118.704 73.6183 118.759 74.1185 118.759 74.6743C118.815 75.897 118.925 77.6755 118.981 79.7875C119.203 84.1225 119.48 90.0693 119.868 96.6275C120.256 103.186 120.644 109.188 120.977 113.468C121.143 115.58 121.254 117.358 121.365 118.581C121.42 119.137 121.42 119.637 121.476 119.97C121.587 120.359 121.587 120.526 121.587 120.526Z" fill="#263238"/>
<path d="M79.8401 88.9018C79.8401 88.9018 79.8401 88.6239 79.8956 88.1237C79.951 87.568 80.0619 86.901 80.1728 86.0118C80.3945 84.1777 80.7272 81.6767 81.1153 78.7311L81.337 78.8422C80.2282 79.6203 79.0085 80.454 77.7334 81.3432C76.4583 82.2325 75.2386 83.1217 74.0744 83.8998L73.7972 84.0666L73.8526 83.7331C74.2961 80.843 74.6842 78.342 74.9614 76.5636C75.1277 75.7299 75.2386 75.0074 75.2941 74.5072C75.4049 74.007 75.4049 73.7847 75.4604 73.7847C75.4604 73.7847 75.4604 74.0626 75.4049 74.5628C75.3495 75.063 75.2386 75.7855 75.1277 76.6747C74.8505 78.5088 74.5179 81.0098 74.1298 83.8998L73.9081 83.7887C75.0169 83.0106 76.292 82.1213 77.5671 81.2321C78.8422 80.3428 80.0619 79.5092 81.1707 78.7311L81.4479 78.5644L81.3925 78.8978C80.9489 81.7879 80.6163 84.2889 80.3391 86.1229C80.2282 87.0122 80.1173 87.6791 80.0065 88.2349C79.951 88.6795 79.8956 88.9018 79.8401 88.9018Z" fill="#E0E0E0"/>
<path d="M100.741 91.1806C100.741 91.1806 100.519 91.0139 100.187 90.6248C99.7986 90.2358 99.3551 89.7356 98.7452 89.0687C97.4701 87.7348 95.7515 85.8452 93.8111 83.6776L94.0328 83.622C93.9219 85.0115 93.8111 86.4565 93.6447 88.0127C93.5339 89.5689 93.3675 91.0695 93.2567 92.4589V92.7924L93.0349 92.5701C91.0945 90.4025 89.4313 88.5129 88.2116 87.1234C87.6572 86.4565 87.1583 85.9563 86.8256 85.5117C86.493 85.1226 86.3266 84.9559 86.3821 84.9003C86.3821 84.9003 86.6038 85.0671 86.9365 85.4561C87.3246 85.8452 87.7681 86.3454 88.3779 87.0123C89.5976 88.3462 91.3163 90.2358 93.2567 92.4033L93.0349 92.4589C93.1458 91.0695 93.2567 89.5689 93.423 88.0127C93.5339 86.4565 93.7002 85.0115 93.8111 83.622V83.2886L94.0328 83.5109C95.9732 85.6784 97.6919 87.5681 98.9115 88.9575C99.466 89.6244 99.9649 90.1246 100.298 90.5693C100.575 90.9583 100.741 91.1806 100.741 91.1806Z" fill="#E0E0E0"/>
<path d="M111.219 90.4028C111.219 90.4028 111.108 90.6251 110.831 91.0698C110.554 91.5144 110.166 92.1257 109.722 92.8483C108.724 94.4044 107.338 96.5164 105.786 99.0174L105.675 98.7951C107.006 98.5728 108.503 98.2949 109.999 98.0726C111.552 97.7947 112.993 97.5724 114.379 97.35L114.712 97.2945L114.546 97.5724C112.938 100.018 111.496 102.074 110.498 103.63C109.999 104.353 109.611 104.909 109.334 105.353C109.057 105.742 108.891 105.965 108.891 105.965C108.891 105.965 109.002 105.742 109.279 105.298C109.556 104.853 109.944 104.242 110.388 103.519C111.385 101.963 112.771 99.8511 114.324 97.4056L114.435 97.6279C113.049 97.8502 111.607 98.1281 110.055 98.406C108.558 98.6839 107.061 98.9062 105.731 99.1285L105.398 99.1841L105.564 98.9062C107.172 96.4608 108.558 94.3489 109.611 92.7927C110.11 92.0702 110.498 91.4588 110.776 91.0698C111.053 90.6251 111.219 90.4028 111.219 90.4028Z" fill="#E0E0E0"/>
<path d="M97.2484 101.185C97.2484 101.185 97.1375 101.407 96.8603 101.852C96.5831 102.296 96.195 102.907 95.7515 103.63C94.7536 105.186 93.3676 107.298 91.8153 109.799L91.7044 109.577C93.0349 109.355 94.5318 109.077 96.0287 108.854C97.581 108.576 99.0225 108.354 100.408 108.132L100.741 108.076L100.575 108.354C98.967 110.8 97.5256 112.856 96.5277 114.412C96.0287 115.135 95.6406 115.69 95.3634 116.135C95.0862 116.524 94.9199 116.746 94.9199 116.746C94.9199 116.746 95.0308 116.524 95.308 116.079C95.5852 115.635 95.9733 115.023 96.4168 114.301C97.4147 112.745 98.8007 110.633 100.353 108.187L100.464 108.41C99.0779 108.632 97.6365 108.91 96.0841 109.188C94.5873 109.466 93.0904 109.688 91.7598 109.91L91.4272 109.966L91.5935 109.688C93.2013 107.243 94.5873 105.131 95.6406 103.574C96.1396 102.852 96.5277 102.241 96.8049 101.852C97.0821 101.407 97.2484 101.185 97.2484 101.185Z" fill="#E0E0E0"/>
<path d="M127.408 90.2915C127.408 90.2915 127.297 90.5138 127.02 90.9584C126.742 91.4031 126.354 92.0144 125.911 92.7369C124.913 94.2931 123.527 96.4051 121.975 98.9061L121.864 98.6838C123.194 98.4614 124.691 98.1836 126.188 97.9612C127.74 97.6834 129.182 97.461 130.568 97.2387L130.9 97.1831L130.734 97.461C129.126 99.9065 127.685 101.963 126.687 103.519C126.188 104.242 125.8 104.797 125.523 105.242C125.246 105.631 125.079 105.853 125.079 105.853C125.079 105.853 125.19 105.631 125.467 105.186C125.745 104.742 126.133 104.13 126.576 103.408C127.574 101.852 128.96 99.7397 130.512 97.2943L130.623 97.5166C129.237 97.7389 127.796 98.0168 126.244 98.2947C124.747 98.5726 123.25 98.7949 121.919 99.0172L121.587 99.0728L121.753 98.7949C123.361 96.3495 124.747 94.2375 125.8 92.6814C126.299 91.9588 126.687 91.3475 126.964 90.9584C127.241 90.4582 127.408 90.2915 127.408 90.2915Z" fill="#E0E0E0"/>
<path d="M56.7771 81.399C56.7771 81.399 56.6663 81.6213 56.3891 82.0659C56.1119 82.5105 55.7238 83.1219 55.2803 83.8444C54.2823 85.4006 52.8963 87.5125 51.344 90.0135L51.2331 89.7912C52.5637 89.5689 54.0606 89.291 55.5575 89.0687C57.1098 88.7908 58.5512 88.5685 59.9372 88.3462L60.2699 88.2906L60.1035 88.5685C58.4958 91.0139 57.0543 93.0703 56.0564 94.6265C55.5575 95.349 55.1694 95.9048 54.8922 96.3494C54.615 96.7384 54.4487 96.9607 54.4487 96.9607C54.4487 96.9607 54.5595 96.7384 54.8367 96.2938C55.1139 95.8492 55.502 95.2378 55.9455 94.5153C56.9435 92.9591 58.3295 90.8472 59.8818 88.4018L59.9927 88.6241C58.6067 88.8464 57.1652 89.1243 55.6129 89.4022C54.116 89.68 52.6191 89.9024 51.2886 90.1247L50.9559 90.1803L51.1223 89.9024C52.73 87.4569 54.116 85.345 55.1694 83.7888C55.6683 83.0663 56.0564 82.4549 56.3336 82.0659C56.6108 81.5657 56.7771 81.3434 56.7771 81.399Z" fill="#E0E0E0"/>
<path d="M34.8783 122.916C34.8783 122.916 35.0446 123.082 35.3773 123.471C35.7099 123.86 36.1534 124.416 36.7078 125.083C37.8721 126.528 39.4798 128.473 41.3093 130.752L41.0876 130.808C41.3093 129.474 41.4757 127.973 41.6974 126.473C41.9192 124.916 42.1409 123.416 42.3627 122.082L42.4181 121.749L42.6399 122.026C44.414 124.305 45.9663 126.306 47.1305 127.751C47.6295 128.418 48.073 129.029 48.4057 129.418C48.6829 129.807 48.8492 130.03 48.8492 130.03C48.8492 130.03 48.6829 129.863 48.3502 129.474C48.0176 129.085 47.5741 128.529 47.0197 127.862C45.8554 126.417 44.3031 124.472 42.4736 122.193L42.6953 122.138C42.4736 123.527 42.2518 124.972 42.0301 126.528C41.8083 128.029 41.5865 129.529 41.3648 130.863L41.3093 131.197L41.0876 130.974C39.2581 128.696 37.7057 126.695 36.5415 125.25C35.9871 124.583 35.599 123.972 35.2664 123.583C34.9892 123.138 34.8229 122.971 34.8783 122.916Z" fill="#E0E0E0"/>
<path d="M84.9407 96.0161C84.9407 96.0161 84.6635 96.0717 84.1645 96.1273C83.6101 96.1828 82.9449 96.2384 82.0578 96.294C80.2283 96.4052 77.6781 96.6275 74.7952 96.8498L74.906 96.6275C75.904 97.5723 76.9573 98.5727 78.1216 99.6287C79.2304 100.685 80.3392 101.741 81.3371 102.685L81.5589 102.908H81.2262C78.3433 103.074 75.7931 103.186 73.9636 103.297C73.0765 103.352 72.4112 103.352 71.8568 103.408C71.3579 103.408 71.0807 103.408 71.0807 103.408C71.0807 103.408 71.3579 103.352 71.8568 103.297C72.4112 103.241 73.0765 103.186 73.9636 103.13C75.7931 103.019 78.2879 102.852 81.2262 102.63L81.1153 102.852C80.1174 101.907 79.0086 100.851 77.8998 99.7954C76.791 98.7394 75.6822 97.739 74.7397 96.7942L74.518 96.5719H74.8506C77.7889 96.4052 80.2837 96.2384 82.1133 96.1273C83.0003 96.0717 83.6656 96.0717 84.22 96.0161C84.6635 96.0161 84.9407 96.0161 84.9407 96.0161Z" fill="#E0E0E0"/>
<path d="M72.633 124.027C72.633 124.027 72.8548 124.194 73.132 124.583C73.4646 124.972 73.9636 125.528 74.518 126.195C75.7376 127.584 77.3454 129.53 79.2304 131.808L79.0086 131.864C79.1749 130.53 79.3412 129.029 79.563 127.529C79.7848 125.973 79.9511 124.472 80.1174 123.082L80.1728 122.749L80.3946 122.971C82.2241 125.25 83.8319 127.195 84.9961 128.64C85.5505 129.307 85.994 129.863 86.3267 130.308C86.6039 130.697 86.7702 130.919 86.7702 130.919C86.7702 130.919 86.6039 130.752 86.2712 130.363C85.9386 129.974 85.4951 129.418 84.8852 128.751C83.721 127.362 82.1132 125.417 80.2283 123.194L80.45 123.138C80.2837 124.528 80.062 126.028 79.8956 127.584C79.6739 129.085 79.5076 130.585 79.3412 131.919L79.2858 132.253L79.064 132.031C77.1791 129.752 75.5713 127.807 74.4071 126.362C73.8527 125.695 73.4091 125.139 73.0765 124.694C72.7993 124.25 72.633 124.027 72.633 124.027Z" fill="#E0E0E0"/>
<path d="M50.6788 103.519C50.6788 103.519 50.4016 103.574 49.9026 103.63C49.3482 103.685 48.683 103.741 47.7959 103.797C45.9664 103.908 43.4161 104.13 40.5333 104.352L40.6441 104.13C41.6421 105.075 42.6954 106.075 43.8597 107.131C44.9685 108.187 46.0773 109.243 47.0752 110.188L47.297 110.41H46.9643C44.0814 110.577 41.5312 110.688 39.7017 110.799C38.8146 110.855 38.1493 110.855 37.5949 110.911C37.096 110.911 36.8188 110.911 36.8188 110.911C36.8188 110.911 37.096 110.855 37.5949 110.799C38.1493 110.744 38.8146 110.688 39.7017 110.633C41.5312 110.522 44.026 110.355 46.9643 110.132L46.8534 110.355C45.8555 109.41 44.7467 108.354 43.6379 107.298C42.5291 106.242 41.4203 105.242 40.4778 104.297L40.2561 104.075H40.5887C43.527 103.908 46.0218 103.741 47.8514 103.63C48.7384 103.574 49.4037 103.574 49.9581 103.519C50.4016 103.463 50.6788 103.463 50.6788 103.519Z" fill="#E0E0E0"/>
<path d="M69.5284 123.416C69.5284 123.416 69.2512 123.472 68.7523 123.527C68.1979 123.583 67.5326 123.638 66.6455 123.694C64.816 123.805 62.2658 124.027 59.3829 124.25L59.4938 124.027C60.4917 124.972 61.545 125.973 62.7093 127.029C63.8181 128.085 64.9269 129.141 65.9248 130.085L66.1466 130.308H65.8139C62.931 130.474 60.3808 130.586 58.5513 130.697C57.6642 130.752 56.999 130.752 56.4446 130.808C55.9456 130.808 55.6684 130.808 55.6684 130.808C55.6684 130.808 55.9456 130.752 56.4446 130.697C56.999 130.641 57.6642 130.586 58.5513 130.53C60.3808 130.419 62.8756 130.252 65.8139 130.03L65.7031 130.252C64.7051 129.307 63.5963 128.251 62.4875 127.195C61.3787 126.139 60.2699 125.139 59.3274 124.194L59.1057 123.972H59.4383C62.3766 123.805 64.8715 123.638 66.701 123.527C67.588 123.472 68.2533 123.472 68.8077 123.416C69.2512 123.416 69.5284 123.416 69.5284 123.416Z" fill="#E0E0E0"/>
<path d="M112.106 72.729C112.106 72.729 111.829 72.7846 111.33 72.8402C110.776 72.8957 110.111 72.9513 109.223 73.0069C107.394 73.118 104.844 73.3404 101.961 73.5627L102.072 73.3404C103.07 74.2852 104.123 75.2856 105.287 76.3416C106.396 77.3975 107.505 78.4535 108.503 79.3983L108.725 79.6206H108.392C105.509 79.7874 102.959 79.8985 101.129 80.0097C100.242 80.0653 99.5769 80.0653 99.0225 80.1208C98.5235 80.1208 98.2463 80.1208 98.2463 80.1208C98.2463 80.1208 98.5235 80.0653 99.0225 80.0097C99.5769 79.9541 100.242 79.8985 101.129 79.843C102.959 79.7318 105.454 79.5651 108.392 79.3428L108.281 79.5651C107.283 78.6202 106.174 77.5643 105.065 76.5083C103.957 75.4523 102.848 74.4519 101.905 73.5071L101.684 73.2848H102.016C104.955 73.118 107.449 72.9513 109.279 72.8402C110.166 72.7846 110.831 72.7846 111.386 72.729C111.829 72.729 112.106 72.729 112.106 72.729Z" fill="#E0E0E0"/>
<path d="M91.4272 123.416C91.4272 123.416 100.741 120.748 103.846 119.914C105.065 119.581 110.221 122.304 113.77 124.583C113.77 124.583 118.648 127.473 118.26 128.418C117.817 129.418 116.043 129.196 113.16 127.862C113.16 127.862 114.158 130.807 112.217 130.752C112.217 130.752 113.215 133.92 111.33 134.253C109.501 134.587 109.057 130.529 107.394 130.307C105.786 130.085 102.404 129.863 102.404 129.863C102.404 129.863 99.5769 134.531 97.4147 134.865C95.2526 135.198 90.2075 134.587 90.2075 134.587L91.4272 123.416Z" fill="#FFB5B1"/>
<path d="M107.338 124.027C107.394 123.971 108.558 124.638 109.944 125.527C111.33 126.417 112.439 127.195 112.383 127.25C112.328 127.306 111.164 126.639 109.778 125.75C108.392 124.916 107.283 124.138 107.338 124.027Z" fill="#E17170"/>
<path d="M106.784 125.861C106.84 125.805 108.226 126.361 109.889 127.139C111.552 127.917 112.882 128.584 112.882 128.695C112.827 128.751 111.441 128.195 109.778 127.417C108.059 126.639 106.729 125.916 106.784 125.861Z" fill="#E17170"/>
<path d="M107.782 130.196C107.782 130.141 108.725 130.196 109.889 130.363C111.053 130.53 111.94 130.696 111.94 130.807C111.94 130.863 110.998 130.807 109.833 130.641C108.669 130.474 107.782 130.307 107.782 130.196Z" fill="#E17170"/>
<path d="M79.2857 26.9328C79.5075 27.6553 79.2303 28.4889 78.6759 28.9891C78.1215 29.4893 77.2344 29.5449 76.5692 29.2115C75.294 28.5445 75.1277 26.8216 75.4049 25.4322C75.6821 24.0427 76.1256 22.5421 75.5158 21.2638C75.0723 20.2634 74.0744 19.6521 73.3536 18.874C72.0231 17.5401 71.3578 15.5393 71.635 13.6497C71.9676 11.76 73.3536 10.0927 75.1832 9.59251C77.0127 9.09231 79.3412 9.64809 80.7272 8.31422C81.7251 7.31382 81.7805 5.75764 82.5567 4.59051C83.7764 2.75644 86.3266 2.47855 88.4333 2.81202C90.5955 3.08991 92.7577 3.81242 94.8644 3.25664C96.6385 2.81202 98.0799 1.58931 99.6877 0.811221C103.236 -0.800534 107.837 0.0331328 110.554 2.92318C113.27 5.75764 113.88 10.3706 112.106 13.872C111.441 15.1503 110.443 16.2618 109.168 16.8176" fill="#263238"/>
<path d="M89.9856 72.8399C95.9177 72.8399 100.741 67.949 100.686 62.0022L100.519 51.7759C100.519 51.7759 109.057 50.9422 109.667 42.4388C110.221 33.9354 109.833 14.3165 109.833 14.3165C100.242 9.53679 88.8214 10.3705 80.0064 16.4284L78.6758 17.3177L79.3411 62.2801C79.3411 68.1713 84.109 72.8399 89.9856 72.8399Z" fill="#FFB5B1"/>
<path d="M107.56 29.7119C106.063 29.434 106.063 27.4887 107.56 27.1553C107.615 27.1553 107.726 27.1553 107.782 27.1553C109.279 27.4332 109.279 29.3784 107.782 29.7119C107.671 29.7119 107.615 29.7119 107.56 29.7119Z" fill="#263238"/>
<path d="M109.223 26.9884C109.057 27.1552 108.281 26.4327 107.117 26.3771C105.952 26.2659 105.065 26.8773 104.954 26.7105C104.899 26.655 105.065 26.3771 105.453 26.0992C105.841 25.8213 106.451 25.599 107.172 25.6546C107.893 25.7101 108.503 26.0436 108.835 26.3215C109.168 26.655 109.279 26.9329 109.223 26.9884Z" fill="#263238"/>
<path d="M95.6959 27.2657C96.2503 27.6548 96.4167 28.4329 96.0286 28.9887C95.6405 29.5444 94.8643 29.7112 94.3099 29.3221C93.7555 28.9331 93.5892 28.155 93.9773 27.5992C94.3654 27.0434 95.1415 26.8767 95.6959 27.2657Z" fill="#263238"/>
<path d="M96.472 27.3214C96.3057 27.4882 95.5296 26.7657 94.3653 26.7101C93.2011 26.5989 92.314 27.2103 92.2031 27.0436C92.1477 26.988 92.314 26.7101 92.7021 26.4322C93.0902 26.1543 93.7 25.932 94.4207 25.9876C95.1415 26.0432 95.7513 26.3766 96.0839 26.6545C96.4166 26.988 96.5275 27.2659 96.472 27.3214Z" fill="#263238"/>
<path d="M100.63 37.2701C100.63 37.1589 101.351 37.0478 102.515 36.9922C102.848 36.9922 103.07 36.9366 103.125 36.7699C103.18 36.6032 103.07 36.2697 102.959 35.8807C102.681 35.1026 102.46 34.2689 102.183 33.4352C101.074 29.9894 100.353 27.0994 100.519 27.0438C100.686 26.9882 101.739 29.7671 102.792 33.2129C103.07 34.0466 103.291 34.8803 103.513 35.6583C103.624 35.9918 103.79 36.4364 103.624 36.9366C103.513 37.1589 103.291 37.3813 103.07 37.3813C102.848 37.4368 102.681 37.4368 102.571 37.4368C101.351 37.3813 100.63 37.3257 100.63 37.2701Z" fill="#263238"/>
<path d="M96.7492 38.3262C98.2461 39.0487 100.02 39.8823 102.404 40.327C102.404 40.327 100.907 42.4389 98.5233 41.3829C96.0285 40.327 96.7492 38.3262 96.7492 38.3262Z" fill="white"/>
<path d="M100.519 51.6645C100.519 51.6645 95.1415 51.8313 89.5975 47.8853C89.5975 47.8853 91.8706 54.1655 100.408 53.8321L100.519 51.6645Z" fill="#E17170"/>
<path d="M109.833 16.4288C109.833 16.4288 104.733 19.0409 97.9135 15.8174C93.4783 13.7055 88.2669 12.7051 87.1581 13.6499C86.0493 14.5391 85.883 19.1521 81.5587 20.5415C81.5587 20.5415 82.0022 29.2672 78.5649 28.9894C75.0722 28.767 77.0126 15.2061 77.0126 15.2061L85.3841 10.871L94.5871 8.92578L103.347 9.98176L110.11 11.7047L109.833 16.4288Z" fill="#263238"/>
<path d="M79.2302 26.1545C79.0639 26.0989 73.4644 24.0981 73.3536 29.9338C73.2427 35.7694 79.0639 34.7135 79.1193 34.5467C79.1193 34.38 79.2302 26.1545 79.2302 26.1545Z" fill="#FFB5B1"/>
<path d="M77.3452 32.3238C77.3452 32.3238 77.2343 32.3794 77.068 32.4905C76.9017 32.5461 76.6245 32.6017 76.2918 32.4905C75.682 32.2682 75.183 31.2678 75.183 30.2119C75.183 29.6561 75.2939 29.1559 75.5157 28.7668C75.682 28.3222 75.9592 28.0443 76.2918 27.9887C76.6245 27.9332 76.7908 28.0999 76.9017 28.2666C76.9571 28.4334 76.9571 28.5445 76.9571 28.5445C76.9571 28.5445 77.068 28.4334 77.068 28.2111C77.068 28.0999 76.9571 27.9332 76.8462 27.822C76.7354 27.7109 76.5136 27.6553 76.2918 27.6553C75.8483 27.6553 75.4048 28.0999 75.2385 28.5445C75.0167 28.9891 74.8504 29.5449 74.8504 30.1563C74.8504 31.3234 75.4602 32.435 76.2918 32.7129C76.6799 32.824 77.068 32.7129 77.2343 32.6017C77.3452 32.435 77.4007 32.3238 77.3452 32.3238Z" fill="#E17170"/>
<path d="M76.2365 7.92542C76.1811 7.86984 77.179 7.59195 78.2324 7.98099C79.3412 8.37004 79.8956 9.20371 79.7847 9.25928C79.7292 9.31486 79.1194 8.64793 78.1215 8.25888C77.179 7.86984 76.2365 8.03657 76.2365 7.92542Z" fill="#263238"/>
<path d="M79.7292 4.42383C79.8401 4.42383 79.6738 5.64654 79.8955 7.09156C80.1173 8.53658 80.7825 9.59256 80.7271 9.64814C80.7271 9.64814 80.5054 9.42583 80.2282 8.9812C80.0064 8.53658 79.7292 7.86965 79.6183 7.14714C79.3966 5.64654 79.6738 4.42383 79.7292 4.42383Z" fill="#263238"/>
<path d="M103.624 24.1541C103.568 24.0985 103.846 23.8762 104.289 23.7094C104.733 23.5427 105.453 23.376 106.23 23.376C107.006 23.376 107.726 23.5427 108.17 23.765C108.614 23.9873 108.891 24.1541 108.835 24.2652C108.78 24.432 107.671 23.9873 106.23 23.9873C104.844 23.9318 103.679 24.3208 103.624 24.1541Z" fill="#263238"/>
<path d="M90.651 22.9314C90.5955 22.8758 90.8727 22.6535 91.3162 22.4868C91.7598 22.3201 92.4805 22.1533 93.2566 22.1533C94.0328 22.1533 94.7535 22.3201 95.197 22.5424C95.6406 22.7647 95.9178 22.9314 95.8623 23.0426C95.8069 23.2093 94.6981 22.7647 93.2566 22.7647C91.8706 22.7091 90.7064 23.0981 90.651 22.9314Z" fill="#263238"/>
<path d="M102.626 25.0989C102.626 25.0989 102.626 25.21 102.626 25.4323C102.626 25.6546 102.626 25.9881 102.681 26.3771C102.681 26.7662 102.681 27.2664 102.737 27.8222C102.737 28.3779 102.792 29.0449 103.014 29.7118C103.236 30.3787 103.624 31.0457 104.234 31.657C104.844 32.2128 105.62 32.713 106.507 32.9353C106.95 33.0465 107.449 33.1021 107.948 33.0465C108.447 33.0465 108.946 32.9353 109.39 32.713C110.332 32.3795 111.219 31.657 111.774 30.7678C112.328 29.8785 112.605 28.8781 112.55 27.9333C112.55 26.9329 112.55 25.9881 112.55 25.0433L112.661 25.1544C109.778 25.1544 107.283 25.0989 105.453 25.0989C104.566 25.0989 103.901 25.0989 103.347 25.0433C103.125 25.0433 102.959 25.0433 102.792 25.0433C102.681 25.0989 102.626 25.0989 102.626 25.0989C102.626 25.0989 102.848 25.0989 103.347 25.0433C103.846 25.0433 104.566 25.0433 105.398 24.9877C107.228 24.9877 109.722 24.9321 112.661 24.9321H112.772V25.0433C112.772 25.9325 112.772 26.9329 112.772 27.9333C112.827 28.9337 112.55 30.0453 111.94 30.9345C111.33 31.8793 110.388 32.6019 109.39 32.9909C108.891 33.1576 108.392 33.2688 107.837 33.3244C107.338 33.3799 106.839 33.3244 106.34 33.1576C105.398 32.9353 104.566 32.4351 103.957 31.8238C103.347 31.2124 102.959 30.4899 102.681 29.7674C102.46 29.0449 102.404 28.3779 102.46 27.8222C102.46 27.2664 102.46 26.7662 102.515 26.3216C102.515 25.9325 102.515 25.6546 102.571 25.3768C102.626 25.21 102.626 25.0989 102.626 25.0989Z" fill="#263238"/>
<path d="M89.0433 24.821C89.0433 24.821 89.0433 24.9322 89.0433 25.1545C89.0433 25.3768 89.0433 25.7103 89.0987 26.0993C89.0987 26.4884 89.0987 26.9886 89.1541 27.5443C89.1541 28.1001 89.2096 28.767 89.4313 29.434C89.6531 30.1009 90.0412 30.7678 90.651 31.3792C91.2609 31.935 92.037 32.4352 92.9241 32.6575C93.3676 32.7686 93.8665 32.8242 94.3655 32.7686C94.8645 32.7686 95.3634 32.6575 95.8069 32.4352C96.7494 32.1017 97.6365 31.3792 98.1909 30.49C98.7453 29.6007 99.0225 28.6003 98.967 27.6555C98.967 26.6551 98.967 25.7103 98.967 24.7655L99.0779 24.8766C96.195 24.8766 93.7002 24.821 91.8707 24.821C90.9837 24.821 90.3184 24.821 89.764 24.7655C89.5422 24.7655 89.3759 24.7655 89.2096 24.7655C89.0987 24.821 89.0433 24.821 89.0433 24.821C89.0433 24.821 89.265 24.821 89.764 24.7655C90.2629 24.7655 90.9837 24.7655 91.8153 24.7099C93.6448 24.7099 96.1396 24.6543 99.0779 24.6543H99.1888V24.7655C99.1888 25.6547 99.1888 26.6551 99.1888 27.6555C99.2442 28.6559 98.967 29.7674 98.3572 30.6567C97.7473 31.6015 96.8049 32.324 95.8069 32.7131C95.308 32.8798 94.809 32.991 94.2546 33.0465C93.7557 33.1021 93.2567 33.0465 92.7577 32.8798C91.8153 32.6575 90.9837 32.1573 90.3738 31.5459C89.764 30.9346 89.3759 30.2121 89.0987 29.4896C88.8769 28.767 88.8215 28.1001 88.8769 27.5443C88.8769 26.9886 88.8769 26.4884 88.9324 26.0437C88.9324 25.6547 88.9324 25.3768 88.9878 25.0989C89.0433 24.9322 89.0433 24.821 89.0433 24.821Z" fill="#263238"/>
<path d="M102.737 25.488C102.737 25.5436 101.905 25.6548 100.796 25.6548C99.7431 25.6548 98.8561 25.5992 98.8561 25.488C98.8561 25.4324 99.6877 25.3213 100.796 25.3213C101.905 25.3769 102.737 25.4324 102.737 25.488Z" fill="#263238"/>
<path d="M78.4542 25.5993C78.4542 25.5438 80.8381 25.4326 83.7764 25.4326C86.7147 25.4326 89.0987 25.4882 89.0987 25.5438C89.0987 25.5994 86.7147 25.7105 83.7764 25.7105C80.7826 25.7105 78.4542 25.6549 78.4542 25.5993Z" fill="#263238"/>
<path d="M137.942 90.4023L119.535 136.032H86.3823V138.088H185.232L205.412 90.4023H137.942Z" fill="#263238"/>
<path d="M166.105 117.358C165.44 119.636 163.499 121.081 161.781 120.581C160.062 120.081 159.175 117.802 159.84 115.524C160.506 113.245 162.446 111.8 164.165 112.3C165.883 112.8 166.77 115.079 166.105 117.358Z" fill="#FAFAFA"/>
<path d="M197.537 43.5929L168.098 32.9775L138.937 43.4262C135.222 45.2046 131.951 46.2606 131.951 49.7064V66.9911C131.951 78.9959 135.111 90.8896 141.542 101.449C146.975 110.286 155.402 119.401 168.375 125.181C180.295 121.291 189.165 110.953 194.598 102.116C201.085 91.6121 204.19 79.7184 204.19 67.6581V52.0963C204.19 47.2054 201.584 44.8156 197.537 43.5929Z" fill="#FF2D3B"/>
<g opacity="0.5">
<path opacity="0.3" d="M168.375 115.177C158.119 110.619 151.466 103.227 147.142 96.2246C142.041 87.888 139.546 78.4953 139.546 68.9915V56.8756C139.546 54.1523 141.21 51.5401 144.481 50.0395L168.098 41.2026V33.0327L138.937 43.4813C135.887 44.8152 131.951 46.3158 131.951 49.7616V67.0463C131.951 79.0511 135.111 90.9447 141.542 101.505C146.975 110.341 155.402 119.456 168.375 125.236V115.177Z" fill="black"/>
</g>
<g opacity="0.4">
<path d="M168.375 125.237C170.427 124.57 172.312 123.736 174.141 122.736C179.02 120.068 183.178 116.4 186.393 113.065C189.942 109.341 192.603 105.34 194.931 101.616C201.418 91.1119 204.522 79.2182 204.245 66.88V52.5965C204.245 45.4825 200.586 44.9823 197.537 43.5929L168.098 32.9775V41.1475L191.937 50.1511C195.208 51.7072 196.872 54.2638 196.872 56.9871V69.1031C196.872 78.6069 194.377 88.0551 189.276 96.3362C184.952 103.339 178.576 110.564 168.32 115.121V125.237H168.375Z" fill="#BF222C"/>
</g>
<path d="M175.915 68.214L175.971 65.8797C175.971 61.6558 172.533 58.21 168.32 58.21C164.106 58.21 160.669 61.6558 160.669 65.8797L160.614 68.2695C158.562 68.603 156.955 70.3259 156.955 72.4935V86.2767C156.955 88.6666 158.895 90.5562 161.223 90.5562H175.472C177.856 90.5562 179.74 88.611 179.74 86.2767V72.4935C179.796 70.2703 178.077 68.4363 175.915 68.214ZM170.316 82.8309H166.601L167.211 80.1076C166.546 79.7186 166.158 78.996 166.158 78.1624C166.158 76.8841 167.156 75.8837 168.431 75.8837C169.706 75.8837 170.704 76.8841 170.704 78.1624C170.704 78.9405 170.316 79.663 169.706 80.052C169.928 81.1636 170.316 82.8309 170.316 82.8309ZM174.252 68.214H162.277L162.332 65.8797C162.332 62.545 165.049 59.8773 168.32 59.8773C171.646 59.8773 174.307 62.6006 174.307 65.8797L174.252 68.214Z" fill="white"/>
<path fill-rule="evenodd" clip-rule="evenodd" d="M3.95117 138.978H239.951V134.978H3.95117V138.978Z" fill="#BF222C"/>
</svg>
