<svg width="230" height="85" viewBox="0 0 230 85" fill="none" xmlns="http://www.w3.org/2000/svg">
<path fill-rule="evenodd" clip-rule="evenodd" d="M41.5278 78C41.5278 81.866 44.8649 85 48.9815 85H204.444C208.561 85 211.898 81.866 211.898 78C211.898 74.134 208.561 71 204.444 71H198.056C193.939 71 190.602 67.866 190.602 64C190.602 60.134 193.939 57 198.056 57H218.287C222.404 57 225.741 53.866 225.741 50C225.741 46.134 222.404 43 218.287 43H194.861C198.978 43 202.315 39.866 202.315 36C202.315 32.134 198.978 29 194.861 29H126.713C130.83 29 134.167 25.866 134.167 22C134.167 18.134 130.83 15 126.713 15H66.0185C61.902 15 58.5648 18.134 58.5648 22C58.5648 25.866 61.902 29 66.0185 29H23.4259C19.3094 29 15.9722 32.134 15.9722 36C15.9722 39.866 19.3094 43 23.4259 43H50.0463C54.1629 43 57.5 46.134 57.5 50C57.5 53.866 54.1629 57 50.0463 57H7.4537C3.33714 57 0 60.134 0 64C0 67.866 3.33714 71 7.4537 71H48.9815C44.8649 71 41.5278 74.134 41.5278 78ZM230 78C230 81.866 226.663 85 222.546 85C218.43 85 215.093 81.866 215.093 78C215.093 74.134 218.43 71 222.546 71C226.663 71 230 74.134 230 78Z" fill="#FEF1F0"/>
<path d="M156.5 2V5.9" stroke="#F83633" stroke-width="2.5" stroke-linecap="round" stroke-linejoin="round"/>
<path d="M156.5 11.1V15" stroke="#F83633" stroke-width="2.5" stroke-linecap="round" stroke-linejoin="round"/>
<path d="M150 8.50001H153.9" stroke="#F83633" stroke-width="2.5" stroke-linecap="round" stroke-linejoin="round"/>
<path d="M159.1 8.50001H163" stroke="#F83633" stroke-width="2.5" stroke-linecap="round" stroke-linejoin="round"/>
<path d="M75.4998 61V64.9" stroke="#F83633" stroke-width="2.5" stroke-linecap="round" stroke-linejoin="round"/>
<path d="M75.4998 70.1V74" stroke="#F83633" stroke-width="2.5" stroke-linecap="round" stroke-linejoin="round"/>
<path d="M69 67.5H72.9" stroke="#F83633" stroke-width="2.5" stroke-linecap="round" stroke-linejoin="round"/>
<path d="M78.1001 67.5H82.0001" stroke="#F83633" stroke-width="2.5" stroke-linecap="round" stroke-linejoin="round"/>
<path d="M112.671 60.125H97.7292C94.5713 60.125 92 57.5561 92 54.3959V17.7292C92 14.569 94.5713 12 97.7292 12H125.229C128.387 12 130.958 14.569 130.958 17.7292V31.6167C130.958 32.2492 130.445 32.7625 129.813 32.7625C129.18 32.7625 128.667 32.2492 128.667 31.6167V17.7292C128.667 15.834 127.124 14.2917 125.229 14.2917H97.7292C95.834 14.2917 94.2917 15.834 94.2917 17.7292V54.3959C94.2917 56.2911 95.834 57.8334 97.7292 57.8334H112.671C113.303 57.8334 113.817 58.3467 113.817 58.9792C113.817 59.6117 113.303 60.125 112.671 60.125Z" fill="#F83633" stroke="#F83633"/>
<path d="M122.938 32.625H100.021C99.3883 32.625 98.875 32.1116 98.875 31.4791C98.875 30.8466 99.3883 30.3333 100.021 30.3333H122.938C123.57 30.3333 124.083 30.8466 124.083 31.4791C124.083 32.1116 123.57 32.625 122.938 32.625Z" fill="#F83633" stroke="#F83633"/>
<path d="M113.771 41.7917H100.021C99.3883 41.7917 98.875 41.2784 98.875 40.6459C98.875 40.0134 99.3883 39.5 100.021 39.5H113.771C114.403 39.5 114.917 40.0134 114.917 40.6459C114.917 41.2784 114.403 41.7917 113.771 41.7917Z" fill="#F83633" stroke="#F83633"/>
<path d="M111.479 23.4584H100.021C99.3883 23.4584 98.875 22.9451 98.875 22.3126C98.875 21.6801 99.3883 21.1667 100.021 21.1667H111.479C112.112 21.1667 112.625 21.6801 112.625 22.3126C112.625 22.9451 112.112 23.4584 111.479 23.4584Z" fill="#F83633" stroke="#F83633"/>
<path d="M132.104 67C123.891 67 117.208 60.3175 117.208 52.1042C117.208 43.8908 123.891 37.2083 132.104 37.2083C140.318 37.2083 147 43.8908 147 52.1042C147 60.3175 140.318 67 132.104 67ZM132.104 39.5C125.154 39.5 119.5 45.1558 119.5 52.1042C119.5 59.0525 125.154 64.7083 132.104 64.7083C139.055 64.7083 144.709 59.0525 144.709 52.1042C144.709 45.1558 139.055 39.5 132.104 39.5Z" fill="#F83633" stroke="#F83633"/>
<path d="M127.244 58.1106C126.95 58.1106 126.657 57.9983 126.432 57.7761C125.985 57.3292 125.985 56.6027 126.432 56.1558L136.154 46.4346C136.6 45.9877 137.327 45.9877 137.774 46.4346C138.221 46.8815 138.221 47.6079 137.774 48.0548L128.053 57.7761C127.83 57.9983 127.537 58.1106 127.244 58.1106Z" fill="#F83633" stroke="#F83633"/>
<path d="M136.965 58.1106C136.672 58.1106 136.378 57.9983 136.154 57.7761L126.432 48.0548C125.985 47.6079 125.985 46.8815 126.432 46.4346C126.879 45.9877 127.606 45.9877 128.053 46.4346L137.774 56.1558C138.221 56.6027 138.221 57.3292 137.774 57.7761C137.552 57.9983 137.258 58.1106 136.965 58.1106Z" fill="#F83633" stroke="#F83633"/>
</svg>
