<svg width="26" height="26" viewBox="0 0 26 26" fill="none" xmlns="http://www.w3.org/2000/svg">
<path d="M10.02 22H3.5C2.122 22 1 20.879 1 19.5V3.5C1 2.121 2.122 1 3.5 1H15.5C16.878 1 18 2.121 18 3.5V9.56001C18 9.83601 17.776 10.06 17.5 10.06C17.224 10.06 17 9.83601 17 9.56001V3.5C17 2.673 16.327 2 15.5 2H3.5C2.673 2 2 2.673 2 3.5V19.5C2 20.327 2.673 21 3.5 21H10.02C10.296 21 10.52 21.224 10.52 21.5C10.52 21.776 10.296 22 10.02 22Z" fill="#F83633" stroke="#F83633" stroke-width="0.3"/>
<path d="M14.5 10H4.5C4.224 10 4 9.776 4 9.5C4 9.224 4.224 9 4.5 9H14.5C14.776 9 15 9.224 15 9.5C15 9.776 14.776 10 14.5 10Z" fill="#F83633" stroke="#F83633" stroke-width="0.3"/>
<path d="M10.5 14H4.5C4.224 14 4 13.776 4 13.5C4 13.224 4.224 13 4.5 13H10.5C10.776 13 11 13.224 11 13.5C11 13.776 10.776 14 10.5 14Z" fill="#F83633" stroke="#F83633" stroke-width="0.3"/>
<path d="M9.50001 6H4.5C4.224 6 4 5.776 4 5.5C4 5.224 4.224 5 4.5 5H9.50001C9.77601 5 10 5.224 10 5.5C10 5.776 9.77601 6 9.50001 6Z" fill="#F83633" stroke="#F83633" stroke-width="0.3"/>
<path d="M18.5 25C14.916 25 12 22.084 12 18.5C12 14.916 14.916 12 18.5 12C22.084 12 25 14.916 25 18.5C25 22.084 22.084 25 18.5 25ZM18.5 13C15.467 13 13 15.468 13 18.5C13 21.532 15.467 24 18.5 24C21.533 24 24 21.532 24 18.5C24 15.468 21.533 13 18.5 13Z" fill="#F83633" stroke="#F83633" stroke-width="0.3"/>
<path d="M16.3792 21.121C16.2512 21.121 16.1232 21.072 16.0252 20.975C15.8302 20.78 15.8302 20.463 16.0252 20.268L20.2672 16.026C20.4622 15.831 20.7792 15.831 20.9742 16.026C21.1692 16.221 21.1692 16.538 20.9742 16.733L16.7322 20.975C16.6352 21.072 16.5072 21.121 16.3792 21.121Z" fill="#F83633" stroke="#F83633" stroke-width="0.3"/>
<path d="M20.6212 21.121C20.4932 21.121 20.3652 21.072 20.2672 20.975L16.0252 16.733C15.8302 16.538 15.8302 16.221 16.0252 16.026C16.2202 15.831 16.5372 15.831 16.7322 16.026L20.9742 20.268C21.1692 20.463 21.1692 20.78 20.9742 20.975C20.8772 21.072 20.7492 21.121 20.6212 21.121Z" fill="#F83633" stroke="#F83633" stroke-width="0.3"/>
</svg>
