<svg width="194" height="73" viewBox="0 0 194 73" fill="none" xmlns="http://www.w3.org/2000/svg">
<path fill-rule="evenodd" clip-rule="evenodd" d="M35.0234 66.0964C35.0234 69.3569 37.8379 72 41.3097 72H172.423C175.895 72 178.709 69.3569 178.709 66.0964C178.709 62.8359 175.895 60.1928 172.423 60.1928H167.035C163.563 60.1928 160.749 57.5496 160.749 54.2892C160.749 51.0287 163.563 48.3856 167.035 48.3856H184.098C187.569 48.3856 190.384 45.7424 190.384 42.4819C190.384 39.2215 187.569 36.5783 184.098 36.5783H164.341C167.812 36.5783 170.627 33.9352 170.627 30.6747C170.627 27.4142 167.812 24.7711 164.341 24.7711H106.866C110.338 24.7711 113.153 22.128 113.153 18.8675C113.153 15.607 110.338 12.9639 106.866 12.9639H55.6783C52.2065 12.9639 49.392 15.607 49.392 18.8675C49.392 22.128 52.2065 24.7711 55.6783 24.7711H19.7568C16.285 24.7711 13.4705 27.4142 13.4705 30.6747C13.4705 33.9352 16.285 36.5783 19.7568 36.5783H42.2077C45.6795 36.5783 48.494 39.2215 48.494 42.4819C48.494 45.7424 45.6795 48.3856 42.2077 48.3856H6.28626C2.81445 48.3856 0 51.0287 0 54.2892C0 57.5496 2.81445 60.1928 6.28626 60.1928H41.3097C37.8379 60.1928 35.0234 62.8359 35.0234 66.0964ZM193.976 66.0964C193.976 69.3569 191.162 72 187.69 72C184.218 72 181.404 69.3569 181.404 66.0964C181.404 62.8359 184.218 60.1928 187.69 60.1928C191.162 60.1928 193.976 62.8359 193.976 66.0964Z" fill="#FED7D6"/>
<path d="M148.856 2V5.28916" stroke="#F83633" stroke-width="2.5" stroke-linecap="round" stroke-linejoin="round"/>
<path d="M148.856 9.6748V12.964" stroke="#F83633" stroke-width="2.5" stroke-linecap="round" stroke-linejoin="round"/>
<path d="M143.374 7.48189H146.663" stroke="#F83633" stroke-width="2.5" stroke-linecap="round" stroke-linejoin="round"/>
<path d="M151.048 7.48189H154.337" stroke="#F83633" stroke-width="2.5" stroke-linecap="round" stroke-linejoin="round"/>
<path d="M55.241 60.1927V63.4818" stroke="#F83633" stroke-width="2.5" stroke-linecap="round" stroke-linejoin="round"/>
<path d="M55.241 67.8675V71.1566" stroke="#F83633" stroke-width="2.5" stroke-linecap="round" stroke-linejoin="round"/>
<path d="M49.7593 65.6746H53.0484" stroke="#F83633" stroke-width="2.5" stroke-linecap="round" stroke-linejoin="round"/>
<path d="M57.4336 65.6746H60.7228" stroke="#F83633" stroke-width="2.5" stroke-linecap="round" stroke-linejoin="round"/>
<path d="M115.912 55.9808H80.1109C77.7879 55.9808 75.8989 54.0917 75.8989 51.7689C75.8989 49.446 77.788 47.5569 80.1109 47.5569H84.3228C85.4853 47.5569 86.4288 46.6134 86.4288 45.451C86.4288 44.2885 85.4853 43.345 84.3228 43.345H80.1109C75.4651 43.345 71.687 47.1231 71.687 51.7689C71.687 56.4146 75.4651 60.1927 80.1109 60.1927H115.912C117.075 60.1927 118.018 59.2492 118.018 58.0868C118.018 56.9243 117.075 55.9808 115.912 55.9808Z" fill="#F83633"/>
<path d="M119.51 18.6923C116.368 15.5544 111.255 15.5502 108.106 18.6923L104.884 21.9144C104.844 21.9481 104.796 21.9608 104.758 21.9987C104.72 22.0366 104.707 22.085 104.674 22.125L93.8679 32.9307C91.7872 35.0156 90.6415 37.7871 90.6415 40.7334V45.4508C90.6415 46.6132 91.585 47.5568 92.7474 47.5568H97.4649C100.411 47.5568 103.183 46.4111 105.272 44.3283L119.508 30.0919C122.648 26.9498 122.648 21.8344 119.51 18.6923ZM102.296 41.3483C101.005 42.635 99.2886 43.3448 97.4649 43.3448H94.8534V40.7334C94.8534 38.9097 95.5631 37.1932 96.8478 35.9044L106.268 26.4844L111.714 31.9304L102.296 41.3483ZM116.53 27.1141L114.692 28.9526L109.246 23.5066L111.082 21.6702C112.584 20.1708 115.029 20.1729 116.528 21.6702C118.028 23.1717 118.028 25.6146 116.53 27.1141Z" fill="#F83633"/>
</svg>
