<svg width="230" height="96" viewBox="0 0 230 96" fill="none" xmlns="http://www.w3.org/2000/svg">
<path fill-rule="evenodd" clip-rule="evenodd" d="M41.5278 76C41.5278 79.866 44.8649 83 48.9815 83H204.444C208.561 83 211.898 79.866 211.898 76C211.898 72.134 208.561 69 204.444 69H198.056C193.939 69 190.602 65.866 190.602 62C190.602 58.134 193.939 55 198.056 55H218.287C222.404 55 225.741 51.866 225.741 48C225.741 44.134 222.404 41 218.287 41H194.861C198.978 41 202.315 37.866 202.315 34C202.315 30.134 198.978 27 194.861 27H126.713C130.83 27 134.167 23.866 134.167 20C134.167 16.134 130.83 13 126.713 13H66.0185C61.902 13 58.5648 16.134 58.5648 20C58.5648 23.866 61.902 27 66.0185 27H23.4259C19.3094 27 15.9722 30.134 15.9722 34C15.9722 37.866 19.3094 41 23.4259 41H50.0463C54.1629 41 57.5 44.134 57.5 48C57.5 51.866 54.1629 55 50.0463 55H7.4537C3.33714 55 0 58.134 0 62C0 65.866 3.33714 69 7.4537 69H48.9815C44.8649 69 41.5278 72.134 41.5278 76ZM230 76C230 79.866 226.663 83 222.546 83C218.43 83 215.093 79.866 215.093 76C215.093 72.134 218.43 69 222.546 69C226.663 69 230 72.134 230 76Z" fill="#FFEAEB"/>
<circle cx="115" cy="48" r="48" fill="white"/>
<path d="M160.269 13.056C158.864 11.6486 156.585 11.6462 155.18 13.05L112 56.1161L96.4204 39.1955C95.0742 37.7342 92.7982 37.6395 91.3345 38.9855C89.872 40.3316 89.7783 42.6088 91.1245 44.0714L109.241 63.7466C109.905 64.4677 110.833 64.8864 111.812 64.9068C111.839 64.9079 111.864 64.9079 111.889 64.9079C112.841 64.9079 113.756 64.53 114.43 63.8581L160.262 18.1465C161.671 16.7429 161.673 14.4633 160.269 13.056Z" fill="#FF2D3B"/>
<path d="M159.401 44.1519C157.413 44.1519 155.802 45.7631 155.802 47.7513C155.802 70.1129 137.611 88.3039 115.249 88.3039C92.8887 88.3039 74.6964 70.1129 74.6964 47.7513C74.6964 25.391 92.8887 7.19869 115.249 7.19869C117.237 7.19869 118.848 5.58746 118.848 3.59944C118.848 1.61123 117.237 0 115.249 0C88.9186 0 67.4977 21.4209 67.4977 47.7513C67.4977 74.0805 88.9186 95.5026 115.249 95.5026C141.578 95.5026 163 74.0805 163 47.7513C163 45.7633 161.389 44.1519 159.401 44.1519Z" fill="#FF2D3B"/>
</svg>
