<svg width="21" height="23" viewBox="0 0 21 23" fill="none" xmlns="http://www.w3.org/2000/svg">
<rect x="5" y="4" width="10" height="14" fill="#FFC0C4"/>
<path d="M10.063 7.1875C9.27053 7.1875 8.62549 7.83254 8.62549 8.62501V10.0625H11.5005V8.62501C11.5005 7.83254 10.8555 7.1875 10.063 7.1875Z" fill="#FFEAEB"/>
<path d="M19.3093 0.141259C18.8102 -0.0980862 18.2193 -0.0293104 17.7868 0.317444C15.9907 1.76129 12.7577 1.76057 10.9643 0.318163C10.4379 -0.105813 9.68828 -0.105094 9.16183 0.317444C7.36647 1.76124 4.13208 1.76052 2.33937 0.318118C1.90762 -0.0293104 1.31469 -0.0981312 0.817539 0.141214C0.318678 0.379886 0.000718703 0.884542 0.000718703 1.43767L0 12.9377C0 17.4433 3.61201 21.1834 9.66159 22.9431C9.79285 22.981 9.92762 23 10.0632 23C10.1985 23 10.3334 22.981 10.4647 22.9431C16.5143 21.1834 20.1257 17.444 20.1257 12.9377V1.43767C20.1257 0.884542 19.8084 0.379886 19.3093 0.141259ZM14.3756 14.3749C14.3756 15.1691 13.7321 15.8124 12.9381 15.8124H7.18809C6.39413 15.8124 5.75058 15.1691 5.75058 14.3749V11.4999C5.75058 10.706 6.39413 10.0624 7.18809 10.0624V8.62486C7.18809 7.03996 8.47749 5.74984 10.0631 5.74984C11.6487 5.74984 12.9381 7.03996 12.9381 8.62486V10.0624C13.7321 10.0624 14.3756 10.706 14.3756 11.4999V14.3749Z" fill="#FFEAEB"/>
<path d="M10.0632 12.2188C9.6663 12.2188 9.34448 12.5406 9.34448 12.9375C9.34448 13.3348 9.6663 13.6563 10.0632 13.6563C10.4602 13.6563 10.782 13.3348 10.782 12.9375C10.782 12.5406 10.4602 12.2188 10.0632 12.2188Z" fill="#FFEAEB"/>
</svg>
