<svg width="23" height="23" viewBox="0 0 23 23" fill="none" xmlns="http://www.w3.org/2000/svg">
<path d="M18.6875 23H4.3125C1.93059 23 0 21.0694 0 18.6875V4.3125C0 1.93059 1.93059 0 4.3125 0H18.6875C21.0694 0 23 1.93059 23 4.3125V18.6875C23 21.0694 21.0694 23 18.6875 23Z" fill="#E3E6EB"/>
<path d="M18 14.1211C18 12.372 16.8214 10.8438 15.1595 10.3833C15.055 7.94861 13.042 6 10.582 6C8.05545 6 6 8.05545 6 10.582C6 11.4055 6.21918 12.2072 6.63538 12.911L6.01685 15.1471L8.25302 14.5287C8.90002 14.9113 9.62988 15.1268 10.3832 15.1593C10.8436 16.8214 12.3719 18 14.1211 18C14.8193 18 15.4982 17.8141 16.0948 17.4608L17.9831 17.9831L17.4608 16.0948C17.8141 15.4982 18 14.8193 18 14.1211ZM8.36398 13.7684L7.0253 14.1388L7.39563 12.8001L7.31122 12.6681C6.91342 12.0457 6.70312 11.3243 6.70312 10.582C6.70312 8.44318 8.44318 6.70312 10.582 6.70312C12.7209 6.70312 14.4609 8.44318 14.4609 10.582C14.4609 12.7209 12.7209 14.4609 10.582 14.4609C9.83972 14.4609 9.11847 14.2506 8.496 13.8528L8.36398 13.7684ZM16.9747 16.9747L15.9814 16.6999L15.8487 16.7862C15.3344 17.1203 14.737 17.2969 14.1211 17.2969C12.7463 17.2969 11.5383 16.408 11.1103 15.1334C13.2155 14.8907 14.8907 13.2155 15.1335 11.1102C16.408 11.5383 17.2969 12.7463 17.2969 14.1211C17.2969 14.737 17.1203 15.3344 16.7862 15.8487L16.6999 15.9814L16.9747 16.9747Z" fill="#A0AABB"/>
<path d="M11.2852 9.51562C11.2852 9.7153 11.2039 9.8996 11.0563 10.0346L10.2305 10.7905V11.6484H10.9336V11.1001L11.531 10.5534C11.8216 10.2874 11.9883 9.90921 11.9883 9.51562C11.9883 8.74017 11.3575 8.10938 10.582 8.10938C9.80658 8.10938 9.17578 8.74017 9.17578 9.51562H9.87891C9.87891 9.1279 10.1943 8.8125 10.582 8.8125C10.9698 8.8125 11.2852 9.1279 11.2852 9.51562Z" fill="#A0AABB"/>
</svg>
