<svg width="72" height="45" viewBox="0 0 72 45" fill="none" xmlns="http://www.w3.org/2000/svg">
<g filter="url(#filter0_d)">
<rect x="4" y="4" width="64.1364" height="37.118" rx="3.51759" fill="white"/>
</g>
<path d="M4 7.51759C4 5.57488 5.57488 4 7.51759 4L64.6188 4C66.5615 4 68.1364 5.57488 68.1364 7.51759V16.6061H4V7.51759Z" fill="#D8D8D8"/>
<path d="M8.48926 23.6255C8.48926 21.6828 10.0641 20.1079 12.0068 20.1079H17.7989C19.7417 20.1079 21.3165 21.6828 21.3165 23.6255V30.5971C21.3165 32.5398 19.7417 34.1147 17.7989 34.1147H12.0068C10.0641 34.1147 8.48926 32.5398 8.48926 30.5971V23.6255Z" fill="#D8D8D8"/>
<path d="M14.9435 27.0269C15.7992 27.0269 16.493 26.1835 16.493 25.1431C16.493 24.1027 16.2652 23.2593 14.9435 23.2593C13.6219 23.2593 13.394 24.1027 13.394 25.1431C13.394 26.1835 14.0878 27.0269 14.9435 27.0269Z" fill="white"/>
<path d="M12.0172 29.9035C12.0169 29.8399 12.0166 29.8856 12.0172 29.9035V29.9035Z" fill="white"/>
<path d="M17.8704 29.9531C17.8712 29.9356 17.8707 29.8322 17.8704 29.9531V29.9531Z" fill="white"/>
<path d="M17.8667 29.8271C17.838 28.0147 17.6015 27.4983 15.7919 27.1714C15.7919 27.1714 15.5372 27.4963 14.9435 27.4963C14.3497 27.4963 14.095 27.1714 14.095 27.1714C12.3051 27.4947 12.0543 28.0035 12.0213 29.7683C12.0186 29.9124 12.0173 29.9199 12.0168 29.9032C12.017 29.9345 12.0171 29.9925 12.0171 30.0936C12.0171 30.0936 12.4479 30.9629 14.9435 30.9629C17.439 30.9629 17.8698 30.0936 17.8698 30.0936C17.8698 30.0287 17.8699 29.9835 17.87 29.9528C17.8695 29.9631 17.8685 29.9431 17.8667 29.8271Z" fill="white"/>
<rect x="8.48926" y="6.80151" width="17.3168" height="2.10102" rx="1.05051" fill="#AFAFAF"/>
<rect x="24.5234" y="20.8083" width="11.5445" height="1.40068" rx="0.70034" fill="#808080"/>
<rect x="24.5234" y="28.512" width="11.5445" height="1.40068" rx="0.70034" fill="#808080"/>
<rect x="45.6885" y="20.8083" width="11.5445" height="1.40068" rx="0.70034" fill="#808080"/>
<rect x="45.6885" y="28.512" width="11.5445" height="1.40068" rx="0.70034" fill="#808080"/>
<rect x="24.5234" y="23.6094" width="16.0341" height="2.10102" rx="1.05051" fill="#D8D8D8"/>
<rect x="24.5234" y="31.3132" width="16.0341" height="2.10102" rx="1.05051" fill="#D8D8D8"/>
<rect x="45.6885" y="23.6094" width="16.0341" height="2.10102" rx="1.05051" fill="#D8D8D8"/>
<rect x="45.6885" y="31.3132" width="16.0341" height="2.10102" rx="1.05051" fill="#D8D8D8"/>
<rect x="8.36914" y="10.6409" width="29.5027" height="2.80136" rx="1.40068" fill="#808080"/>
<defs>
<filter id="filter0_d" x="0.482412" y="0.482412" width="71.1715" height="44.1532" filterUnits="userSpaceOnUse" color-interpolation-filters="sRGB">
<feFlood flood-opacity="0" result="BackgroundImageFix"/>
<feColorMatrix in="SourceAlpha" type="matrix" values="0 0 0 0 0 0 0 0 0 0 0 0 0 0 0 0 0 0 127 0"/>
<feOffset/>
<feGaussianBlur stdDeviation="1.75879"/>
<feColorMatrix type="matrix" values="0 0 0 0 0 0 0 0 0 0 0 0 0 0 0 0 0 0 0.2 0"/>
<feBlend mode="normal" in2="BackgroundImageFix" result="effect1_dropShadow"/>
<feBlend mode="normal" in="SourceGraphic" in2="effect1_dropShadow" result="shape"/>
</filter>
</defs>
</svg>
