<svg width="66" height="61" viewBox="0 0 66 61" fill="none" xmlns="http://www.w3.org/2000/svg">
<g filter="url(#filter0_d)">
<rect x="4" y="4" width="58.4773" height="52.5759" rx="3.51759" fill="white"/>
<path d="M4 7.51759C4 5.57488 5.57488 4 7.51759 4L58.9597 4C60.9024 4 62.4773 5.57488 62.4773 7.51759V23.8501H4L4 7.51759Z" fill="#D8D8D8"/>
<rect x="8.82861" y="10.438" width="13.4122" height="1.60947" rx="0.804733" fill="#AFAFAF"/>
<rect x="8.82861" y="28.6782" width="13.4122" height="1.60947" rx="0.804733" fill="#808080"/>
<rect x="8.82861" y="41.5542" width="13.4122" height="1.60947" rx="0.804733" fill="#808080"/>
<rect x="38.3359" y="41.5542" width="13.4122" height="1.60947" rx="0.804733" fill="#808080"/>
<rect x="8.82861" y="14.1931" width="18.7771" height="2.68244" rx="1.34122" fill="#808080"/>
<rect x="9" y="32" width="48" height="3" rx="1.5" fill="#D8D8D8"/>
<rect x="8.82861" y="45.3096" width="18.7771" height="2.68244" rx="1.34122" fill="#D8D8D8"/>
<rect x="38.3359" y="45.3096" width="18.7771" height="2.68244" rx="1.34122" fill="#D8D8D8"/>
<rect x="46.2202" y="8.07715" width="11.7279" height="11.7279" rx="3.51759" fill="white"/>
<rect x="49.8525" y="11.1045" width="4.84374" height="5.88169" rx="1.75879" fill="#808080"/>
<rect x="50.8899" y="12.8342" width="1.84523" height="0.55357" rx="0.276785" fill="white"/>
<rect x="50.8899" y="13.9414" width="2.76785" height="0.55357" rx="0.276785" fill="white"/>
<rect x="50.8899" y="15.0483" width="2.76785" height="0.55357" rx="0.276785" fill="white"/>
</g>
<defs>
<filter id="filter0_d" x="0.482412" y="0.482412" width="65.5124" height="59.6111" filterUnits="userSpaceOnUse" color-interpolation-filters="sRGB">
<feFlood flood-opacity="0" result="BackgroundImageFix"/>
<feColorMatrix in="SourceAlpha" type="matrix" values="0 0 0 0 0 0 0 0 0 0 0 0 0 0 0 0 0 0 127 0"/>
<feOffset/>
<feGaussianBlur stdDeviation="1.75879"/>
<feColorMatrix type="matrix" values="0 0 0 0 0 0 0 0 0 0 0 0 0 0 0 0 0 0 0.25 0"/>
<feBlend mode="normal" in2="BackgroundImageFix" result="effect1_dropShadow"/>
<feBlend mode="normal" in="SourceGraphic" in2="effect1_dropShadow" result="shape"/>
</filter>
</defs>
</svg>
