<svg width="23" height="20" viewBox="0 0 23 20" fill="none" xmlns="http://www.w3.org/2000/svg">
<rect y="2" width="23" height="18" rx="3" fill="#FED7D6"/>
<path d="M20.3645 2.00006H15.3333V1.74993C15.3333 0.784971 14.581 0 13.6562 0H9.34375C8.41899 0 7.66673 0.784971 7.66673 1.74993V2.00006H2.63548C1.18166 2.00006 0 3.2329 0 4.74992V17.2499C0 18.767 1.18166 20 2.63548 20H20.3645C21.8183 20 23 18.767 23 17.2499V4.74992C23 3.2329 21.8183 2.00006 20.3645 2.00006ZM13.4176 3.99993H9.58327V2.00006H13.4167L13.4176 3.99993ZM7.1875 6.99992C8.50813 6.99992 9.58327 8.12198 9.58327 9.50003C9.58327 10.8779 8.50813 12 7.1875 12C5.86687 12 4.79173 10.8779 4.79173 9.50003C4.79173 8.12198 5.86687 6.99992 7.1875 6.99992ZM11.5 16.25C11.5 16.664 11.178 17 10.7812 17H3.59375C3.197 17 2.875 16.664 2.875 16.25V15.75C2.875 14.2329 4.05666 12.9999 5.51048 12.9999H8.86452C10.3183 12.9999 11.5 14.2329 11.5 15.75V16.25ZM19.4062 17H14.1355C13.7387 17 13.4167 16.664 13.4167 16.25C13.4167 15.836 13.7387 15.5 14.1355 15.5H19.4062C19.803 15.5 20.125 15.836 20.125 16.25C20.125 16.664 19.803 17 19.4062 17ZM19.4062 12.9999H14.1355C13.7387 12.9999 13.4167 12.6639 13.4167 12.2499C13.4167 11.8359 13.7387 11.4999 14.1355 11.4999H19.4062C19.803 11.4999 20.125 11.8359 20.125 12.2499C20.125 12.6639 19.803 12.9999 19.4062 12.9999ZM19.4062 8.99997H14.1355C13.7387 8.99997 13.4167 8.66398 13.4167 8.24998C13.4167 7.83597 13.7387 7.49998 14.1355 7.49998H19.4062C19.803 7.49998 20.125 7.83597 20.125 8.24998C20.125 8.66398 19.803 8.99997 19.4062 8.99997Z" fill="#F83633"/>
</svg>
