<svg width="66" height="61" viewBox="0 0 66 61" fill="none" xmlns="http://www.w3.org/2000/svg">
<g filter="url(#filter0_d)">
<rect x="4" y="4" width="58.4773" height="52.5759" rx="3.51759" fill="white"/>
<path d="M4 7.51759C4 5.57488 5.57488 4 7.51759 4L58.9597 4C60.9024 4 62.4773 5.57488 62.4773 7.51759V23.8501H4L4 7.51759Z" fill="#D8D8D8"/>
<rect x="8.82861" y="10.438" width="13.4122" height="1.60947" rx="0.804733" fill="#AFAFAF"/>
<rect x="35.3359" y="41" width="13.4122" height="1.60947" rx="0.804733" fill="#808080"/>
<rect x="35" y="30" width="13.4122" height="1.60947" rx="0.804733" fill="#808080"/>
<rect x="8.82861" y="14.1931" width="18.7771" height="2.68244" rx="1.34122" fill="#808080"/>
<rect x="35.3359" y="44.7554" width="18.7771" height="2.68244" rx="1.34122" fill="#D8D8D8"/>
<rect x="35" y="33.7554" width="18.7771" height="2.68244" rx="1.34122" fill="#D8D8D8"/>
<rect x="46.2202" y="8.07715" width="11.7279" height="11.7279" rx="3.51759" fill="white"/>
<rect x="49.8525" y="11.1045" width="4.84374" height="5.88169" rx="1.75879" fill="#808080"/>
<rect x="50.8899" y="12.8342" width="1.84523" height="0.55357" rx="0.276785" fill="white"/>
<rect x="50.8899" y="13.9414" width="2.76785" height="0.55357" rx="0.276785" fill="white"/>
<rect x="50.8899" y="15.0483" width="2.76785" height="0.55357" rx="0.276785" fill="white"/>
</g>
<path d="M10 33.5176C10 31.5749 11.5749 30 13.5176 30H22.9666C24.9093 30 26.4842 31.5749 26.4842 33.5176V44.4824C26.4842 46.4251 24.9093 48 22.9666 48H13.5176C11.5749 48 10 46.4251 10 44.4824V33.5176Z" fill="#D8D8D8"/>
<path d="M18.2942 38.8916C19.3939 38.8916 20.2854 37.8077 20.2854 36.4707C20.2854 35.1337 19.9927 34.0498 18.2942 34.0498C16.5957 34.0498 16.303 35.1337 16.303 36.4707C16.303 37.8077 17.1945 38.8916 18.2942 38.8916Z" fill="white"/>
<path d="M14.5336 42.5882C14.5333 42.5064 14.5329 42.5651 14.5336 42.5882V42.5882Z" fill="white"/>
<path d="M22.0557 42.6519C22.0568 42.6295 22.056 42.4966 22.0557 42.6519V42.6519Z" fill="white"/>
<path d="M22.0508 42.49C22.0139 40.1609 21.71 39.4972 19.3845 39.0771C19.3845 39.0771 19.0572 39.4947 18.2942 39.4947C17.5312 39.4947 17.2038 39.0771 17.2038 39.0771C14.9037 39.4927 14.5813 40.1465 14.5389 42.4144C14.5354 42.5995 14.5338 42.6093 14.5332 42.5878C14.5333 42.6281 14.5335 42.7026 14.5335 42.8325C14.5335 42.8325 15.0872 43.9496 18.2942 43.9496C21.5011 43.9496 22.0548 42.8325 22.0548 42.8325C22.0548 42.749 22.0549 42.691 22.055 42.6515C22.0544 42.6648 22.0531 42.639 22.0508 42.49Z" fill="white"/>
<defs>
<filter id="filter0_d" x="0.482412" y="0.482412" width="65.5124" height="59.6111" filterUnits="userSpaceOnUse" color-interpolation-filters="sRGB">
<feFlood flood-opacity="0" result="BackgroundImageFix"/>
<feColorMatrix in="SourceAlpha" type="matrix" values="0 0 0 0 0 0 0 0 0 0 0 0 0 0 0 0 0 0 127 0"/>
<feOffset/>
<feGaussianBlur stdDeviation="1.75879"/>
<feColorMatrix type="matrix" values="0 0 0 0 0 0 0 0 0 0 0 0 0 0 0 0 0 0 0.25 0"/>
<feBlend mode="normal" in2="BackgroundImageFix" result="effect1_dropShadow"/>
<feBlend mode="normal" in="SourceGraphic" in2="effect1_dropShadow" result="shape"/>
</filter>
</defs>
</svg>
