<svg width="26" height="21" viewBox="0 0 26 21" fill="none" xmlns="http://www.w3.org/2000/svg">
<path d="M24.7477 17.3968H23.8938C23.9907 17.1847 24.045 16.9492 24.045 16.7013V4.04345C24.045 3.11619 23.2907 2.36188 22.3635 2.36188H19.298C19.2316 1.04828 18.142 0 16.8122 0H14.8126C14.5403 0 14.3196 0.220708 14.3196 0.492983C14.3196 0.765257 14.5403 0.985966 14.8126 0.985966H16.8122C17.641 0.985966 18.3152 1.66022 18.3152 2.48892L18.3151 8.65229C18.3151 9.4811 17.6408 10.1554 16.812 10.1554H12.4594C12.3458 10.1554 12.2353 10.1947 12.1472 10.2666L10.2568 11.8113V10.6483C10.2568 10.3761 10.036 10.1553 9.76377 10.1553H8.43918C7.61042 10.1553 6.93622 9.48109 6.93622 8.65234V2.48892C6.93622 1.66017 7.61047 0.985966 8.43918 0.985966H10.4743C10.7466 0.985966 10.9673 0.765257 10.9673 0.492983C10.9673 0.220708 10.7466 0 10.4743 0H8.43918C7.1094 0 6.01986 1.04828 5.95346 2.36188H2.87734C1.95014 2.36188 1.19578 3.11624 1.19578 4.04345V16.7013C1.19578 16.9493 1.2502 17.1847 1.34698 17.3968H0.492983C0.220708 17.3968 0 17.6175 0 17.8898V19.1683C0 20.0077 0.682978 20.6906 1.52243 20.6906H23.7183C24.5577 20.6906 25.2407 20.0077 25.2407 19.1683V17.8898C25.2407 17.6175 25.02 17.3968 24.7477 17.3968ZM2.18174 16.7012V4.0434C2.18174 3.65985 2.4938 3.3478 2.87734 3.3478H5.95011V4.44764H3.88894C3.61667 4.44764 3.39596 4.66835 3.39596 4.94062V15.804C3.39596 16.0763 3.61667 16.297 3.88894 16.297H21.3514C21.6237 16.297 21.8444 16.0763 21.8444 15.804V4.94062C21.8444 4.66835 21.6237 4.44764 21.3514 4.44764H19.3012V3.3478H22.3635C22.747 3.3478 23.0591 3.65985 23.0591 4.0434V16.7012C23.0591 17.0846 22.7473 17.3965 22.3639 17.3968H2.87685C2.49351 17.3965 2.18174 17.0846 2.18174 16.7012ZM0.985966 19.1682V18.3827H2.87636H9.22277V19.0185C9.22277 19.263 9.27596 19.4951 9.37062 19.7046H1.52243C1.22659 19.7047 0.985966 19.464 0.985966 19.1682ZM10.8949 19.7047C10.5166 19.7047 10.2088 19.3969 10.2088 19.0185V18.3828H15.032V19.0185C15.032 19.3969 14.7242 19.7047 14.3458 19.7047H10.8949ZM24.2548 19.1682C24.2548 19.464 24.0141 19.7046 23.7183 19.7046H15.8701C15.9648 19.4951 16.0179 19.263 16.0179 19.0185V18.3827H22.3634H24.2548V19.1682Z" fill="#F83633"/>
<path d="M10.3721 3.46344V7.85375C10.3721 8.13914 10.5256 8.40505 10.7727 8.54772C11.0198 8.69044 11.3269 8.69044 11.5741 8.54772L15.3762 6.35257C15.6233 6.20985 15.7768 5.94394 15.7768 5.6586C15.7768 5.37326 15.6233 5.10729 15.3762 4.96462L11.5741 2.76947C11.327 2.6268 11.0199 2.6268 10.7727 2.76952C10.5256 2.91214 10.3721 3.17806 10.3721 3.46344Z" fill="#F83633"/>
<path d="M12.2211 0.681338C12.3229 0.9299 12.6176 1.05048 12.8649 0.948041C13.1132 0.845254 13.2345 0.552521 13.1316 0.304206C13.0287 0.0557918 12.7358 -0.0648904 12.4878 0.0379951C12.2403 0.140683 12.1178 0.433269 12.2211 0.681338Z" fill="#F83633"/>
</svg>
