<svg width="193" height="100" viewBox="0 0 193 100" fill="none" xmlns="http://www.w3.org/2000/svg">
<path fill-rule="evenodd" clip-rule="evenodd" d="M139.625 23.2C139.625 20.8804 137.666 19 135.25 19L44.0003 19C41.5838 19 39.6251 20.8804 39.6251 23.2C39.6251 25.5196 41.5838 27.4 44.0003 27.4L47.7497 27.4C50.1662 27.4 52.1249 29.2804 52.1249 31.6C52.1249 33.9196 50.1662 35.8 47.7497 35.8L35.875 35.8C33.4585 35.8 31.4998 37.6804 31.4998 40C31.4998 42.3196 33.4585 44.2 35.875 44.2L49.6251 44.2C47.2086 44.2 45.2499 46.0804 45.2499 48.4C45.2499 50.7196 47.2086 52.6 49.6251 52.6L89.625 52.6C87.2085 52.6 85.2498 54.4804 85.2498 56.8C85.2498 59.1196 87.2085 61 89.625 61L125.25 61C127.666 61 129.625 59.1196 129.625 56.8C129.625 54.4804 127.666 52.6 125.25 52.6L150.25 52.6C152.666 52.6 154.625 50.7196 154.625 48.4C154.625 46.0804 152.666 44.2 150.25 44.2L134.625 44.2C132.209 44.2 130.25 42.3196 130.25 40C130.25 37.6804 132.209 35.8 134.625 35.8L159.625 35.8C162.041 35.8 164 33.9196 164 31.6C164 29.2804 162.041 27.4 159.625 27.4L135.25 27.4C137.666 27.4 139.625 25.5196 139.625 23.2ZM29 23.2C29 20.8804 30.9587 19 33.3752 19C35.7911 19 37.7498 20.8804 37.7498 23.2C37.7498 25.5196 35.7911 27.4 33.3752 27.4C30.9587 27.4 29 25.5196 29 23.2Z" fill="#FEF1F0"/>
<path d="M128.5 59L128.5 55.1" stroke="#F83633" stroke-width="1.5" stroke-linecap="round" stroke-linejoin="round"/>
<path d="M128.5 49.9L128.5 46" stroke="#F83633" stroke-width="1.5" stroke-linecap="round" stroke-linejoin="round"/>
<path d="M135 52.5L131.1 52.5" stroke="#F83633" stroke-width="1.5" stroke-linecap="round" stroke-linejoin="round"/>
<path d="M125.9 52.5L122 52.5" stroke="#F83633" stroke-width="1.5" stroke-linecap="round" stroke-linejoin="round"/>
<path d="M70.5002 14L70.5002 10.1" stroke="#F83633" stroke-width="1.5" stroke-linecap="round" stroke-linejoin="round"/>
<path d="M70.5002 4.90002L70.5002 1.00002" stroke="#F83633" stroke-width="1.5" stroke-linecap="round" stroke-linejoin="round"/>
<path d="M77 7.50005L73.1 7.50005" stroke="#F83633" stroke-width="1.5" stroke-linecap="round" stroke-linejoin="round"/>
<path d="M67.8999 7.50005L63.9999 7.50005" stroke="#F83633" stroke-width="1.5" stroke-linecap="round" stroke-linejoin="round"/>
<path d="M97.9963 51.3698C109.793 51.3698 119.355 41.807 119.355 30.0107C119.355 18.2144 109.793 8.65161 97.9963 8.65161C86.2 8.65161 76.6372 18.2144 76.6372 30.0107C76.6372 41.807 86.2 51.3698 97.9963 51.3698Z" fill="white"/>
<path d="M91.0192 46.3642C77.5713 38.6001 76.7547 19.5873 89.1924 10.6138C85.2548 12.3854 81.8165 15.3647 79.4927 19.3897C73.6053 29.587 77.0992 42.6262 87.2965 48.5136C94.8008 52.8463 103.844 52.0979 110.444 47.3364C104.405 50.0533 97.1917 49.9279 91.0192 46.3642Z" fill="#FED7D6"/>
<path d="M102.959 37.9342C103.106 37.6101 102.963 37.2278 102.638 37.0803C102.314 36.9331 101.932 37.0763 101.784 37.4005C100.3 40.6722 95.664 40.6193 94.2084 37.4017C94.1006 37.1634 93.8662 37.0225 93.6205 37.0225C93.1577 37.0225 92.8388 37.5032 93.0335 37.9332C94.9523 42.1747 101.017 42.2057 102.959 37.9342Z" fill="#F83633"/>
<path d="M85.5136 11.8884C85.2201 12.0902 85.1457 12.4915 85.3472 12.7851C85.5489 13.0786 85.9503 13.153 86.2439 12.9515C96.2487 6.07719 109.9 9.20126 115.935 19.6533C120.923 28.2927 118.988 39.1135 111.725 45.5265C111.458 45.7621 111.433 46.1696 111.669 46.4366C111.904 46.7027 112.311 46.7296 112.579 46.4932C120.291 39.6837 122.353 28.1912 117.052 19.0085C110.634 7.89241 96.1279 4.59534 85.5136 11.8884Z" fill="#F83633"/>
<path d="M109.403 47.3C109.047 47.5343 108.694 47.7528 108.353 47.9498C103.553 50.7212 97.9706 51.4488 92.6345 50.0192C76.8363 45.786 72.017 25.7493 83.9608 14.7707C84.223 14.5297 84.2402 14.1218 83.9991 13.8596C83.7581 13.5973 83.3503 13.5802 83.088 13.8212C70.3975 25.4862 75.5213 46.7691 92.3007 51.2648C98.4215 52.905 104.819 51.8625 110.112 48.3771C110.41 48.1813 110.492 47.7814 110.296 47.4839C110.1 47.1865 109.701 47.1042 109.403 47.3Z" fill="#F83633"/>
<path d="M89.0289 31.5556C88.9555 31.7136 89.0269 31.8999 89.1883 31.9718C89.3498 32.0435 89.5401 31.9738 89.6135 31.8157C90.353 30.2212 92.6612 30.247 93.386 31.8152C93.4397 31.9313 93.5564 32 93.6787 32C93.9092 32 94.068 31.7657 93.971 31.5561C93.0156 29.4889 89.9957 29.4738 89.0289 31.5556Z" fill="#F83633" stroke="#F83633" stroke-width="0.5"/>
<path d="M102.029 31.5556C101.955 31.7136 102.027 31.8999 102.188 31.9718C102.35 32.0435 102.54 31.9738 102.614 31.8157C103.353 30.2212 105.661 30.247 106.386 31.8152C106.44 31.9313 106.556 32 106.679 32C106.909 32 107.068 31.7657 106.971 31.5561C106.016 29.4889 102.996 29.4738 102.029 31.5556Z" fill="#F83633" stroke="#F83633" stroke-width="0.5"/>
<rect y="77" width="193" height="23" rx="11.5" fill="#FDC3C2"/>
<path d="M86.03 92V85.52H84.99C84.85 86.2 84.21 86.72 83.28 86.74V87.56H84.85V92H86.03ZM88.4779 88.76C88.4779 87.94 88.6179 87.31 88.9379 86.91C89.1579 86.62 89.4679 86.43 89.9379 86.43C90.4079 86.43 90.7079 86.62 90.9379 86.91C91.2479 87.31 91.3879 87.94 91.3879 88.76C91.3879 89.58 91.2479 90.21 90.9379 90.61C90.7079 90.9 90.4079 91.09 89.9379 91.09C89.4679 91.09 89.1579 90.9 88.9379 90.61C88.6279 90.21 88.4779 89.58 88.4779 88.76ZM87.2879 88.76C87.2879 89.62 87.4279 90.43 87.8679 91.09C88.2879 91.72 88.9679 92.15 89.9379 92.15C90.9079 92.15 91.5779 91.72 91.9979 91.09C92.4379 90.43 92.5779 89.62 92.5779 88.76C92.5779 87.9 92.4379 87.09 91.9979 86.43C91.5779 85.8 90.9079 85.37 89.9379 85.37C88.9679 85.37 88.2879 85.8 87.8679 86.43C87.4279 87.09 87.2879 87.9 87.2879 88.76ZM94.64 88.76C94.64 87.94 94.78 87.31 95.1 86.91C95.32 86.62 95.63 86.43 96.1 86.43C96.57 86.43 96.87 86.62 97.1 86.91C97.41 87.31 97.55 87.94 97.55 88.76C97.55 89.58 97.41 90.21 97.1 90.61C96.87 90.9 96.57 91.09 96.1 91.09C95.63 91.09 95.32 90.9 95.1 90.61C94.79 90.21 94.64 89.58 94.64 88.76ZM93.45 88.76C93.45 89.62 93.59 90.43 94.03 91.09C94.45 91.72 95.13 92.15 96.1 92.15C97.07 92.15 97.74 91.72 98.16 91.09C98.6 90.43 98.74 89.62 98.74 88.76C98.74 87.9 98.6 87.09 98.16 86.43C97.74 85.8 97.07 85.37 96.1 85.37C95.13 85.37 94.45 85.8 94.03 86.43C93.59 87.09 93.45 87.9 93.45 88.76ZM103.092 87.04C103.092 86.61 103.402 86.31 103.802 86.31C104.202 86.31 104.502 86.61 104.502 87.04C104.502 87.47 104.202 87.78 103.802 87.78C103.402 87.78 103.092 87.47 103.092 87.04ZM102.162 87.04C102.162 87.94 102.912 88.64 103.792 88.64C104.682 88.64 105.442 87.95 105.442 87.04C105.442 86.14 104.682 85.43 103.802 85.43C102.912 85.43 102.162 86.14 102.162 87.04ZM107.272 90.49C107.272 90.06 107.582 89.76 107.982 89.76C108.382 89.76 108.682 90.06 108.682 90.49C108.682 90.92 108.382 91.23 107.982 91.23C107.582 91.23 107.272 90.92 107.272 90.49ZM106.342 90.49C106.342 91.39 107.092 92.09 107.972 92.09C108.862 92.09 109.622 91.4 109.622 90.49C109.622 89.59 108.862 88.88 107.982 88.88C107.092 88.88 106.342 89.59 106.342 90.49ZM104.112 92L108.722 85.52H107.682L103.062 92H104.112Z" fill="#F83633"/>
</svg>
