<svg width="132" height="68" viewBox="0 0 132 68" fill="none" xmlns="http://www.w3.org/2000/svg">
<path fill-rule="evenodd" clip-rule="evenodd" d="M23.7302 64C23.7302 66.2091 25.6371 68 27.9894 68H116.825C119.178 68 121.085 66.2091 121.085 64C121.085 61.7909 119.178 60 116.825 60H113.175C110.822 60 108.915 58.2091 108.915 56C108.915 53.7909 110.822 52 113.175 52H124.735C127.088 52 128.995 50.2091 128.995 48C128.995 45.7909 127.088 44 124.735 44H111.349C113.702 44 115.608 42.2091 115.608 40C115.608 37.7909 113.702 36 111.349 36H72.4074C74.7597 36 76.6667 34.2091 76.6667 32C76.6667 29.7909 74.7597 28 72.4074 28H37.7249C35.3725 28 33.4656 29.7909 33.4656 32C33.4656 34.2091 35.3725 36 37.7249 36H13.3862C11.0339 36 9.12698 37.7909 9.12698 40C9.12698 42.2091 11.0339 44 13.3862 44H28.5979C30.9502 44 32.8571 45.7909 32.8571 48C32.8571 50.2091 30.9502 52 28.5979 52H4.25926C1.90694 52 0 53.7909 0 56C0 58.2091 1.90694 60 4.25926 60H27.9894C25.6371 60 23.7302 61.7909 23.7302 64ZM131.428 64C131.428 66.2091 129.521 68 127.169 68C124.817 68 122.91 66.2091 122.91 64C122.91 61.7909 124.817 60 127.169 60C129.521 60 131.428 61.7909 131.428 64Z" fill="#FED7D6"/>
<rect x="42" y="3" width="48" height="46" fill="white"/>
<path d="M85.3553 0H46.6447C42.9808 0 40 2.98086 40 6.64483V45.3553C40 49.0191 42.9808 52 46.6447 52H85.3553C89.0192 52 92 49.0191 92 45.3552V6.64483C92 2.98086 89.0192 0 85.3553 0ZM88.9371 45.3553C88.9371 47.3304 87.3303 48.9371 85.3553 48.9371H46.6447C44.6696 48.9371 43.0628 47.3303 43.0628 45.3553V39.7686L53.1434 31.1916C53.5113 30.8786 54.0479 30.8756 54.4192 31.184L60.7338 36.4274C61.3426 36.9329 62.2364 36.8915 62.7959 36.3313L77.7996 21.3048C78.0708 21.0331 78.387 21.0067 78.552 21.0151C78.7165 21.0235 79.0288 21.0822 79.2709 21.3803L88.9372 33.2824V45.3553H88.9371ZM88.9371 28.4238L81.6483 19.4491C80.9255 18.559 79.8541 18.0149 78.7089 17.956C77.5645 17.8982 76.4424 18.329 75.6322 19.1405L61.6157 33.1785L56.3761 28.8277C54.8569 27.5661 52.6627 27.5792 51.1586 28.859L43.0628 35.7472V6.64483C43.0628 4.66974 44.6696 3.06292 46.6447 3.06292H85.3553C87.3304 3.06292 88.9371 4.66974 88.9371 6.64483V28.4238Z" fill="#F83633"/>
<path d="M56.3692 6.39795C52.297 6.39795 48.9843 9.71092 48.9843 13.7829C48.9843 17.8549 52.2971 21.1678 56.3692 21.1678C60.4412 21.1678 63.7541 17.8549 63.7541 13.7829C63.7541 9.71082 60.4413 6.39795 56.3692 6.39795ZM56.3692 18.105C53.9859 18.105 52.0471 16.166 52.0471 13.7829C52.0471 11.3996 53.9859 9.46077 56.3692 9.46077C58.7524 9.46077 60.6913 11.3997 60.6913 13.7829C60.6913 16.166 58.7524 18.105 56.3692 18.105Z" fill="#F83633"/>
</svg>
