<svg width="16" height="15" viewBox="0 0 16 15" fill="none" xmlns="http://www.w3.org/2000/svg">
<path fill-rule="evenodd" clip-rule="evenodd" d="M14.433 5.13405C14.472 5.24366 14.7834 5.47496 14.9705 5.61361L14.9716 5.61445C15.4297 5.95521 16 6.37952 16 7.0275C16 7.68147 15.4215 8.11865 14.956 8.46986L14.9465 8.47705C14.7624 8.61641 14.464 8.84223 14.4251 8.94519C14.3888 9.05397 14.4888 9.41538 14.549 9.63292L14.5494 9.63427C14.7034 10.1907 14.878 10.8223 14.4713 11.3327C14.0682 11.8398 13.3667 11.8836 12.7474 11.9223L12.7437 11.9225C12.495 11.9377 12.0792 11.9631 11.974 12.0339C11.8687 12.1048 11.716 12.4486 11.6217 12.661L11.617 12.6715L11.6156 12.6746C11.3826 13.2007 11.1192 13.7951 10.4738 13.9964C9.81908 14.2017 9.20183 13.8422 8.70666 13.5537L8.7025 13.5513C8.479 13.4205 8.1405 13.2231 7.99966 13.2231C7.857 13.2231 7.51868 13.4189 7.29061 13.5509L7.28359 13.555L7.27541 13.5597C6.86364 13.7971 6.40757 14.06 5.91363 14.06C5.788 14.06 5.65906 14.043 5.52881 14.0036C4.87981 13.8118 4.61463 13.2115 4.38064 12.6819L4.38034 12.6812L4.38007 12.6806C4.2855 12.4667 4.12833 12.1114 4.02397 12.0418C3.92276 11.9743 3.5342 11.9495 3.28699 11.9337L3.26359 11.9322L3.26216 11.9321C2.67197 11.8957 1.93891 11.8506 1.52203 11.346C1.09478 10.8271 1.28222 10.1669 1.43287 9.63623L1.43344 9.63424C1.49559 9.41805 1.59872 9.05597 1.55906 8.94456C1.51872 8.83191 1.22053 8.60485 1.02284 8.45469C0.567312 8.10834 0 7.6766 0 7.0269C0 6.37352 0.57748 5.93717 1.04214 5.58607L1.04341 5.58511L1.04708 5.58234C1.2313 5.44338 1.53561 5.21383 1.575 5.10978C1.61137 5.00216 1.51255 4.6463 1.45137 4.42596L1.44806 4.41406C1.29334 3.86243 1.11816 3.23754 1.50891 2.73073C1.90669 2.21516 2.61419 2.17128 3.23872 2.13255L3.23987 2.13248C3.48981 2.11734 3.90834 2.0919 4.01281 2.02107C4.1191 1.94955 4.27362 1.6007 4.36771 1.38828L4.36984 1.38347L4.37234 1.37785C4.60513 0.853635 4.86868 0.26015 5.51369 0.0592211C6.17156 -0.145461 6.79572 0.222692 7.29491 0.520012L7.29847 0.522134C7.5246 0.656558 7.86226 0.857285 7.99972 0.857285C8.14198 0.857285 8.47943 0.662577 8.70816 0.530606L8.71709 0.52545L8.71754 0.525191C9.23646 0.224327 9.82609 -0.117531 10.4712 0.0755624C11.1198 0.266908 11.3856 0.867588 11.619 1.39741C11.7136 1.61116 11.8716 1.96781 11.9767 2.03744C12.0781 2.10486 12.4728 2.13013 12.7197 2.14593L12.7371 2.14705L12.7386 2.14714C13.3308 2.18347 14.0671 2.22865 14.4767 2.73986C14.8883 3.25477 14.705 3.90877 14.5576 4.43476L14.5573 4.43589C14.4958 4.65388 14.3933 5.0202 14.433 5.13405Z" fill="#40EAEA"/>
<path d="M11.1139 4.74596C10.8282 4.53041 10.4063 4.56552 10.1696 4.82166L7.17903 8.04966L5.90673 6.90162C5.64449 6.66485 5.22061 6.66485 4.9584 6.90162C4.69616 7.13838 4.69616 7.52107 4.9584 7.75781L6.74913 9.37454C6.87453 9.48899 7.04558 9.55195 7.22331 9.55195C7.23269 9.55195 7.24278 9.55195 7.25216 9.55075C7.44127 9.54348 7.61635 9.46478 7.73705 9.33459L11.1977 5.59852C11.4351 5.34181 11.3983 4.96032 11.1139 4.74596Z" fill="white"/>
</svg>
