<svg width="323" height="197" viewBox="0 0 323 197" fill="none" xmlns="http://www.w3.org/2000/svg">
<path d="M286.863 14.0488V17.5287" stroke="#FF2D3B" stroke-width="2.5" stroke-linecap="round" stroke-linejoin="round"/>
<path d="M286.863 22.168V25.6478" stroke="#FF2D3B" stroke-width="2.5" stroke-linecap="round" stroke-linejoin="round"/>
<path d="M281.063 19.8487H284.543" stroke="#FF2D3B" stroke-width="2.5" stroke-linecap="round" stroke-linejoin="round"/>
<path d="M289.183 19.8487H292.663" stroke="#FF2D3B" stroke-width="2.5" stroke-linecap="round" stroke-linejoin="round"/>
<path d="M117.333 51.5244V55.0042" stroke="#FF2D3B" stroke-width="2.5" stroke-linecap="round" stroke-linejoin="round"/>
<path d="M117.333 59.6436V63.1234" stroke="#FF2D3B" stroke-width="2.5" stroke-linecap="round" stroke-linejoin="round"/>
<path d="M111.533 57.3243H115.013" stroke="#FF2D3B" stroke-width="2.5" stroke-linecap="round" stroke-linejoin="round"/>
<path d="M119.653 57.3243H123.133" stroke="#FF2D3B" stroke-width="2.5" stroke-linecap="round" stroke-linejoin="round"/>
<path fill-rule="evenodd" clip-rule="evenodd" d="M49.758 163.593C49.758 168.225 53.7565 171.98 58.6889 171.98H244.962C249.895 171.98 253.893 168.225 253.893 163.593C253.893 158.961 249.895 155.206 244.962 155.206H237.307C232.375 155.206 228.376 151.451 228.376 146.818C228.376 142.186 232.375 138.431 237.307 138.431H261.548C266.481 138.431 270.479 134.676 270.479 130.044C270.479 125.412 266.481 121.657 261.548 121.657H233.48C238.412 121.657 242.411 117.901 242.411 113.269C242.411 108.637 238.412 104.882 233.48 104.882H151.826C156.758 104.882 160.756 101.127 160.756 96.4947C160.756 91.8625 156.758 88.1074 151.826 88.1074H79.1024C74.17 88.1074 70.1715 91.8625 70.1715 96.4947C70.1715 101.127 74.17 104.882 79.1024 104.882H28.0686C23.1362 104.882 19.1377 108.637 19.1377 113.269C19.1377 117.901 23.1362 121.657 28.0686 121.657H59.9647C64.8971 121.657 68.8956 125.412 68.8956 130.044C68.8956 134.676 64.8971 138.431 59.9647 138.431H8.93092C3.99851 138.431 0 142.186 0 146.818C0 151.451 3.99851 155.206 8.93092 155.206H58.6889C53.7565 155.206 49.758 158.961 49.758 163.593ZM275.583 163.593C275.583 168.225 271.584 171.98 266.652 171.98C261.719 171.98 257.721 168.225 257.721 163.593C257.721 158.961 261.719 155.206 266.652 155.206C271.584 155.206 275.583 158.961 275.583 163.593Z" fill="#FFEAEB"/>
<path d="M121.356 169.979V174.029H151.676V169.979H121.356Z" fill="#E0E0E0"/>
<path d="M125.49 170.142C125.598 170.142 125.678 170.992 125.678 172.037C125.678 173.087 125.592 173.933 125.49 173.933C125.382 173.933 125.302 173.082 125.302 172.037C125.296 170.992 125.382 170.142 125.49 170.142Z" fill="#FAFAFA"/>
<path d="M124.828 170.061C124.935 170.061 125.016 170.911 125.016 171.956C125.016 173.006 124.93 173.852 124.828 173.852C124.72 173.852 124.639 173.001 124.639 171.956C124.639 170.911 124.72 170.061 124.828 170.061Z" fill="#FAFAFA"/>
<path d="M149.331 170.142C149.439 170.142 149.52 170.992 149.52 172.037C149.52 173.087 149.433 173.933 149.331 173.933C149.223 173.933 149.143 173.082 149.143 172.037C149.143 170.992 149.229 170.142 149.331 170.142Z" fill="#FAFAFA"/>
<path d="M148.674 170.061C148.782 170.061 148.863 170.911 148.863 171.956C148.863 173.006 148.776 173.852 148.674 173.852C148.566 173.852 148.486 173.001 148.486 171.956C148.48 170.911 148.566 170.061 148.674 170.061Z" fill="#FAFAFA"/>
<path d="M144.711 172.124C144.711 172.232 141.238 172.313 136.956 172.313C132.669 172.313 129.201 172.227 129.201 172.124C129.201 172.017 132.675 171.936 136.956 171.936C141.238 171.93 144.711 172.017 144.711 172.124Z" fill="#FAFAFA"/>
<path d="M121.223 188.215V196.314H151.543V188.215H121.223Z" fill="#E0E0E0"/>
<path d="M151.933 194.038C151.938 194.043 151.879 194.075 151.766 194.135C151.652 194.194 151.486 194.269 151.259 194.366C150.807 194.549 150.128 194.813 149.202 194.953C148.292 195.082 147.075 195.12 145.869 194.479C145.276 194.162 144.711 193.682 144.285 193.041C143.865 192.406 143.596 191.571 143.736 190.709C143.806 190.279 143.989 189.853 144.291 189.503C144.587 189.153 145.061 188.895 145.567 188.922C146.073 188.943 146.531 189.234 146.854 189.616C147.177 189.999 147.393 190.483 147.441 191C147.56 192.029 147.129 193.095 146.396 193.871C145.675 194.679 144.598 195.169 143.483 195.292C142.363 195.427 141.199 195.249 140.101 194.872C139.002 194.495 137.914 193.876 137.144 192.885C136.767 192.395 136.498 191.781 136.455 191.135C136.401 190.489 136.606 189.794 137.101 189.315C137.349 189.072 137.694 188.916 138.049 188.9C138.404 188.884 138.754 188.997 139.04 189.18C139.627 189.541 139.998 190.166 140.155 190.817C140.44 192.142 139.918 193.521 138.959 194.388C138 195.26 136.746 195.648 135.545 195.777C134.338 195.896 133.127 195.809 132.007 195.427C130.892 195.055 129.89 194.323 129.314 193.332C128.727 192.363 128.533 191.14 128.975 190.112C129.185 189.605 129.653 189.153 130.213 189.067C130.757 188.965 131.317 189.115 131.743 189.433C132.599 190.112 132.739 191.275 132.464 192.164C132.184 193.074 131.57 193.774 130.935 194.318C129.637 195.411 128.102 195.885 126.777 195.933C125.436 195.982 124.305 195.61 123.481 195.185C122.652 194.754 122.103 194.264 121.763 193.914C121.597 193.736 121.473 193.596 121.403 193.494C121.327 193.391 121.29 193.343 121.295 193.338C121.333 193.284 121.903 194.221 123.551 195.055C124.37 195.454 125.474 195.788 126.772 195.723C128.054 195.659 129.529 195.179 130.762 194.118C131.366 193.591 131.937 192.917 132.184 192.088C132.432 191.286 132.27 190.246 131.554 189.697C131.204 189.433 130.719 189.309 130.278 189.395C129.825 189.471 129.47 189.81 129.287 190.257C128.905 191.156 129.071 192.271 129.621 193.16C130.159 194.07 131.075 194.738 132.13 195.088C133.186 195.443 134.355 195.529 135.512 195.411C136.66 195.287 137.839 194.91 138.711 194.113C139.573 193.338 140.042 192.072 139.788 190.909C139.648 190.343 139.325 189.81 138.841 189.514C138.367 189.202 137.747 189.212 137.36 189.605C136.966 189.982 136.778 190.569 136.832 191.124C136.864 191.69 137.101 192.223 137.44 192.675C138.135 193.58 139.169 194.178 140.214 194.544C141.275 194.91 142.384 195.082 143.44 194.959C144.49 194.84 145.475 194.398 146.149 193.655C146.833 192.939 147.226 191.964 147.123 191.049C147.048 190.16 146.369 189.288 145.551 189.234C145.147 189.207 144.759 189.406 144.501 189.708C144.231 190.009 144.064 190.392 144 190.774C143.865 191.555 144.102 192.325 144.49 192.928C144.883 193.531 145.416 194 145.971 194.307C147.102 194.932 148.292 194.926 149.186 194.819C150.096 194.7 150.78 194.468 151.232 194.307C151.696 194.124 151.927 194.021 151.933 194.038Z" fill="#FAFAFA"/>
<path d="M123.932 174.14V188.196H151.543V174.14H123.932Z" fill="#EBEBEB"/>
<path d="M128.522 174.623C128.629 174.623 128.71 177.671 128.71 181.425C128.71 185.184 128.624 188.227 128.522 188.227C128.414 188.227 128.333 185.184 128.333 181.425C128.328 177.671 128.414 174.623 128.522 174.623Z" fill="#E0E0E0"/>
<path d="M130.616 174.451C130.724 174.451 130.805 177.456 130.805 181.167C130.805 184.877 130.719 187.882 130.616 187.882C130.509 187.882 130.428 184.877 130.428 181.167C130.423 177.456 130.509 174.451 130.616 174.451Z" fill="#E0E0E0"/>
<path d="M148.426 173.999C148.534 173.999 148.615 177.166 148.615 181.07C148.615 184.974 148.528 188.141 148.426 188.141C148.318 188.141 148.238 184.974 148.238 181.07C148.232 177.166 148.318 173.999 148.426 173.999Z" fill="#E0E0E0"/>
<path d="M145.965 174.187C146.073 174.187 146.154 177.272 146.154 181.074C146.154 184.882 146.067 187.962 145.965 187.962C145.857 187.962 145.777 184.877 145.777 181.074C145.771 177.272 145.857 174.187 145.965 174.187Z" fill="#E0E0E0"/>
<path d="M294.597 143.459C297.462 141.984 300.828 141.79 304.005 142.317C305.712 142.598 307.495 143.109 308.653 144.391C309.816 145.673 310.037 147.929 308.701 149.033C307.909 149.69 306.8 149.787 305.771 149.776C303.283 149.749 300.526 149.308 298.533 150.805C297.397 151.661 296.643 153.078 295.291 153.498C293.967 153.907 292.47 153.126 291.764 151.93C291.059 150.735 291.037 149.238 291.366 147.886C291.371 147.891 291.716 144.951 294.597 143.459Z" fill="#EBEBEB"/>
<path d="M288.038 130.803C289.788 133.302 293.191 132.472 294.769 130.948C296.347 129.424 297.015 127.211 297.618 125.1C299.002 120.28 300.403 115.228 299.374 110.317C299.067 108.852 298.518 107.387 297.484 106.299C296.455 105.212 294.866 104.565 293.418 104.948C291.7 105.4 290.639 107.08 289.863 108.68C287.596 113.376 286.4 118.583 286.379 123.802C286.379 126.236 286.664 128.789 288.038 130.803Z" fill="#EBEBEB"/>
<path d="M283.234 134.39C285.135 132.133 285.496 128.843 284.65 126.021C283.805 123.193 281.893 120.791 279.69 118.831C277.111 116.532 274.073 114.738 270.81 113.591C269.528 113.139 268.171 112.783 266.819 112.913C265.462 113.042 264.1 113.737 263.47 114.938C262.538 116.72 263.432 118.88 264.401 120.646C266.108 123.753 268.058 126.726 270.234 129.527C271.984 131.778 273.982 134.002 276.648 135.02C279.313 136.038 282.076 135.919 283.492 134.072" fill="#EBEBEB"/>
<path d="M287.919 168.512C287.951 168.512 288.005 168.108 288.075 167.376C288.156 166.546 288.258 165.512 288.377 164.274C288.522 162.97 288.711 161.419 289.071 159.728C289.432 158.043 289.998 156.217 290.725 154.359C291.479 152.517 292.394 150.842 293.466 149.501C294.532 148.155 295.765 147.18 296.929 146.62C298.087 146.049 299.126 145.813 299.848 145.71C300.575 145.635 300.979 145.581 300.979 145.549C300.979 145.516 300.575 145.511 299.826 145.532C299.088 145.581 298.006 145.769 296.783 146.324C295.555 146.868 294.247 147.859 293.127 149.232C292.001 150.6 291.053 152.313 290.288 154.187C289.551 156.072 288.991 157.919 288.646 159.642C288.301 161.36 288.145 162.933 288.043 164.247C287.946 165.561 287.908 166.627 287.887 167.365C287.881 168.103 287.887 168.512 287.919 168.512Z" fill="#E0E0E0"/>
<path d="M288.135 166.126C288.151 166.126 288.162 165.942 288.167 165.598C288.167 165.199 288.167 164.704 288.162 164.09C288.156 162.781 288.156 160.891 288.226 158.554C288.339 153.879 288.743 148.849 289.524 141.751C290.262 135.079 291.247 127.318 292.292 122.272C292.518 121.125 292.739 120.091 292.955 119.186C293.159 118.282 293.332 117.501 293.499 116.865C293.644 116.267 293.757 115.783 293.849 115.4C293.924 115.067 293.956 114.883 293.94 114.878C293.924 114.873 293.859 115.045 293.757 115.374C293.644 115.75 293.499 116.23 293.321 116.817C293.127 117.442 292.928 118.222 292.702 119.122C292.465 120.021 292.217 121.055 291.969 122.197C290.935 126.769 289.847 133.162 289.061 140.27C288.28 147.379 287.93 153.852 287.898 158.538C287.871 160.88 287.919 162.776 287.979 164.085C288.016 164.698 288.049 165.194 288.07 165.592C288.097 165.948 288.119 166.126 288.135 166.126Z" fill="#E0E0E0"/>
<path d="M288.168 153.641C288.2 153.641 288.195 153.081 288.157 152.068C288.098 151.056 287.958 149.596 287.672 147.803C287.371 146.015 286.95 143.893 286.283 141.588C285.997 140.533 285.319 138.007 283.682 134.232C281.527 129.116 278.598 124.937 276.05 122.346C275.453 121.657 274.785 121.162 274.257 120.677C273.982 120.445 273.74 120.214 273.492 120.025C273.245 119.853 273.013 119.691 272.798 119.546C271.957 118.975 271.489 118.668 271.473 118.695C271.397 118.797 273.352 119.944 275.819 122.572C278.275 125.19 281.123 129.342 283.261 134.415C284.452 137.167 285.286 139.617 285.873 141.701C286.557 143.985 287.01 146.085 287.349 147.857C287.672 149.629 287.861 151.077 287.974 152.079C288.065 153.086 288.135 153.641 288.168 153.641Z" fill="#E0E0E0"/>
<path d="M275.264 173.768L276.513 190.904H298.529L299.783 173.768H275.264Z" fill="#EBEBEB"/>
<path d="M302.406 167.015H273.136V173.768H302.406V167.015Z" fill="#EBEBEB"/>
<path d="M273.136 190.247V192.121H274.515H301.927V190.247H273.136Z" fill="#E0E0E0"/>
<path d="M275.861 195.207L274.515 191.911H300.877L299.304 195.207H275.861Z" fill="#E0E0E0"/>
<path d="M299.374 179.369C299.379 179.374 299.341 179.428 299.271 179.525C299.185 179.643 299.078 179.783 298.943 179.961C298.631 180.36 298.2 180.909 297.661 181.604L297.602 181.679L297.548 181.604C296.74 180.489 295.663 178.997 294.398 177.247H294.581C293.644 178.572 292.599 180.053 291.479 181.641L291.382 181.781L291.274 181.652C290.127 180.29 288.888 178.809 287.596 177.274L287.806 177.268C287.741 177.349 287.671 177.435 287.601 177.521C286.46 178.954 285.356 180.338 284.311 181.647L284.203 181.787L284.101 181.641C282.986 180.063 281.941 178.582 280.999 177.252L281.182 177.263C279.652 179.008 278.355 180.483 277.358 181.62L277.288 181.695L277.234 181.609C276.728 180.763 276.33 180.085 276.039 179.6C275.915 179.379 275.813 179.207 275.732 179.067C275.662 178.943 275.635 178.879 275.64 178.879C275.646 178.873 275.689 178.932 275.77 179.051C275.861 179.186 275.969 179.358 276.109 179.568C276.416 180.047 276.836 180.71 277.364 181.544L277.245 181.534C278.225 180.386 279.502 178.889 281.004 177.128L281.101 177.015L281.187 177.134C282.141 178.464 283.191 179.934 284.316 181.507L284.106 181.501C285.146 180.193 286.25 178.803 287.386 177.371C287.456 177.284 287.526 177.198 287.591 177.118L287.693 176.988L287.801 177.118C289.088 178.658 290.326 180.139 291.468 181.501L291.263 181.507C292.394 179.929 293.45 178.458 294.398 177.134L294.489 177.004L294.581 177.134C295.819 178.905 296.875 180.413 297.667 181.539L297.554 181.534C298.114 180.86 298.561 180.322 298.889 179.934C299.035 179.767 299.153 179.633 299.245 179.519C299.325 179.406 299.368 179.363 299.374 179.369Z" fill="#F5F5F5"/>
<path d="M300.09 173.654C300.09 173.73 294.575 173.789 287.768 173.789C280.961 173.789 275.446 173.73 275.446 173.654C275.446 173.579 280.961 173.52 287.768 173.52C294.57 173.514 300.09 173.579 300.09 173.654Z" fill="#F5F5F5"/>
<path d="M323 196.112C323 196.187 270.982 196.252 206.831 196.252C142.659 196.252 90.6519 196.187 90.6519 196.112C90.6519 196.036 142.659 195.972 206.831 195.972C270.982 195.972 323 196.031 323 196.112Z" fill="#011727"/>
<path d="M153.559 10.9717C144.915 24.5644 145.481 43.4134 154.927 56.4622C161.222 65.165 170.663 70.992 178.159 78.6824C185.656 86.3674 191.354 97.6983 187.395 107.683C183.367 117.845 171.568 121.981 162.73 128.417C153.106 135.428 146.348 146.258 144.274 157.982C142.201 169.707 144.845 182.201 151.485 192.083H243.263C243.263 192.083 259.387 161.359 238.659 137.943C217.931 114.528 206.799 114.145 207.564 98.7915C208.334 83.4377 219.078 78.4454 225.222 72.6884C231.367 66.9314 261.305 53.4948 243.646 10.9717H153.559V10.9717Z" fill="#FAFAFA"/>
<path d="M153.558 10.9719C153.558 10.9719 154.091 10.9612 155.136 10.9612C156.186 10.9558 157.743 10.9558 159.789 10.9504C163.887 10.945 169.925 10.9342 177.701 10.9235C193.27 10.9127 215.797 10.8965 243.651 10.875H243.721L243.742 10.9342C244.997 14.117 246.263 17.3967 247.162 20.8703C248.088 24.3277 248.842 27.936 249.112 31.6681C249.392 35.3948 249.273 39.2453 248.53 43.069C247.765 46.8818 246.397 50.657 244.383 54.1521C243.381 55.9024 242.202 57.5665 240.926 59.1659C239.639 60.76 238.211 62.2572 236.698 63.6897C235.185 65.1168 233.575 66.4632 231.9 67.7503C230.23 69.0428 228.485 70.2653 226.784 71.5524C225.933 72.1932 225.152 72.9149 224.339 73.6365C223.52 74.3474 222.68 75.0314 221.834 75.7045C220.138 77.0616 218.425 78.4188 216.81 79.8998C213.546 82.8186 210.789 86.4646 209.27 90.7137C208.533 92.8301 208.005 95.0489 207.838 97.3215C207.795 97.887 207.714 98.4525 207.698 99.0233C207.687 99.5942 207.655 100.165 207.682 100.736C207.687 101.878 207.816 103.025 208.026 104.15C208.457 106.407 209.405 108.566 210.784 110.435C212.141 112.325 213.81 113.989 215.544 115.589C219.029 118.777 222.723 121.814 226.267 125.099C229.826 128.363 233.278 131.81 236.607 135.434C238.26 137.254 239.935 139.08 241.378 141.11C242.87 143.103 244.125 145.273 245.223 147.524C247.394 152.048 248.735 157.008 249.176 162.081C249.65 167.154 249.289 172.324 248.282 177.381C247.787 179.912 247.124 182.422 246.311 184.888C245.498 187.355 244.561 189.789 243.398 192.137L243.36 192.212H243.274C242.531 192.212 241.723 192.212 240.91 192.212C209.577 192.212 179.349 192.207 151.496 192.207H151.426L151.388 192.148C147.015 185.583 144.419 178.043 143.703 170.482C142.944 162.921 144.107 155.344 146.88 148.612C149.616 141.859 153.871 135.94 159.014 131.282C161.577 128.934 164.431 127.017 167.296 125.239C170.161 123.462 173.053 121.814 175.784 120.016C178.503 118.212 181.126 116.289 183.253 113.941C185.391 111.609 187.023 108.873 187.874 105.927C188.73 102.982 188.741 99.8904 188.24 96.9823C187.729 94.0634 186.705 91.3007 185.402 88.7587C184.099 86.2115 182.516 83.8742 180.782 81.7416C179.053 79.6036 177.13 77.7025 175.191 75.9092C171.309 72.3333 167.329 69.2043 163.753 65.9892C161.96 64.3844 160.263 62.7688 158.701 61.1047C157.15 59.4298 155.729 57.7173 154.511 55.9401C152.056 52.3965 150.37 48.659 149.261 45.0562C148.151 41.448 147.602 37.9582 147.473 34.7485C147.397 33.9461 147.43 33.1598 147.43 32.3951C147.44 31.6304 147.419 30.8764 147.494 30.1494C147.548 29.4223 147.607 28.7115 147.656 28.0167C147.737 27.3274 147.855 26.6596 147.947 26.0134C148.754 20.8165 150.322 17.0144 151.544 14.5855C151.835 13.9662 152.093 13.4223 152.373 12.9861C152.637 12.5391 152.853 12.1621 153.031 11.8605C153.375 11.2681 153.558 10.9719 153.558 10.9719C153.521 11.0366 153.37 11.3004 153.036 11.8928C152.864 12.1944 152.648 12.5714 152.39 13.0184C152.115 13.4546 151.862 13.9985 151.571 14.6179C150.365 17.0521 148.814 20.8488 148.017 26.0403C147.925 26.6866 147.812 27.3543 147.731 28.0437C147.677 28.733 147.629 29.4439 147.575 30.1709C147.5 30.8979 147.521 31.6465 147.516 32.4112C147.516 33.176 147.489 33.9622 147.564 34.7593C147.699 37.9582 148.254 41.4372 149.368 45.0346C150.478 48.6267 152.163 52.3426 154.619 55.8701C155.836 57.6365 157.253 59.3437 158.804 61.0131C160.365 62.6718 162.062 64.2821 163.855 65.8815C167.431 69.0859 171.411 72.2094 175.31 75.7907C177.249 77.584 179.182 79.4905 180.927 81.6392C182.672 83.7826 184.26 86.1253 185.575 88.6887C186.883 91.2468 187.923 94.0203 188.44 96.9661C188.946 99.9012 188.946 103.025 188.079 106.008C187.217 108.986 185.564 111.76 183.415 114.113C181.266 116.488 178.633 118.422 175.908 120.231C173.167 122.041 170.28 123.688 167.42 125.466C164.561 127.243 161.723 129.149 159.175 131.487C154.065 136.118 149.832 142.015 147.117 148.731C144.36 155.425 143.208 162.959 143.967 170.477C144.683 177.995 147.268 185.491 151.614 192.019L151.501 191.959C179.36 191.959 209.588 191.954 240.915 191.954C241.723 191.954 242.531 191.954 243.279 191.954L243.155 192.029C244.308 189.708 245.245 187.274 246.053 184.824C246.86 182.368 247.517 179.869 248.013 177.349C249.015 172.313 249.375 167.17 248.902 162.13C248.465 157.089 247.135 152.161 244.976 147.67C243.882 145.435 242.638 143.275 241.157 141.299C239.725 139.285 238.055 137.464 236.407 135.649C233.085 132.03 229.638 128.589 226.089 125.326C222.556 122.046 218.867 119.009 215.372 115.81C213.638 114.205 211.952 112.53 210.579 110.613C209.184 108.717 208.22 106.509 207.784 104.22C207.574 103.073 207.445 101.915 207.434 100.763C207.407 100.187 207.439 99.6103 207.45 99.0341C207.472 98.4579 207.547 97.887 207.595 97.3162C207.768 95.0274 208.301 92.787 209.05 90.6436C210.584 86.3569 213.374 82.6679 216.659 79.7328C218.285 78.2411 220.003 76.8785 221.7 75.5268C222.551 74.8482 223.385 74.1697 224.199 73.4642C224.996 72.7533 225.798 72.0155 226.654 71.3693C228.367 70.0768 230.106 68.8597 231.771 67.5672C233.44 66.2854 235.045 64.9445 236.553 63.5227C238.055 62.101 239.477 60.6092 240.759 59.0259C242.024 57.4318 243.198 55.7785 244.2 54.0444C246.203 50.5762 247.566 46.8226 248.331 43.0366C249.074 39.2399 249.192 35.4055 248.918 31.695C248.654 27.9737 247.9 24.3816 246.984 20.9349C246.09 17.4721 244.83 14.1978 243.581 11.0204L243.672 11.0796C215.835 11.0581 193.319 11.0419 177.76 11.0312C169.978 11.0204 163.936 11.0096 159.838 11.0042C157.791 10.9989 156.224 10.9935 155.174 10.9935C154.102 10.9773 153.558 10.9719 153.558 10.9719Z" fill="#011727"/>
<path d="M239.988 35.9001C253.506 38.1243 232.19 62.0624 220.127 71.5084C213.142 76.98 205.64 82.9093 202.323 91.1382C198.559 100.477 201.348 110.967 199.523 120.359C199.221 121.921 196.916 121.674 196.938 120.085C197.029 113.919 196.862 107.758 195.839 101.688C194.39 93.0824 191.078 84.568 185.047 78.2563C180.124 73.1079 173.667 69.6828 168.411 64.8736C160.742 57.8457 152.863 48.782 152.093 38.4043C152.093 38.4043 166.817 26.5457 174.992 28.0428C184.546 29.7931 193.949 44.5329 208.748 42.8419C219.093 41.6679 224.312 33.3259 239.988 35.9001Z" fill="#FF5661"/>
<path d="M241.19 164.047C240.851 160.665 239.946 156.841 236.946 155.247C235.131 154.283 232.918 154.391 230.925 154.913C228.933 155.435 227.064 156.34 225.093 156.927C221.21 158.08 216.956 157.945 213.154 156.55C209.486 155.204 206.336 152.77 202.932 150.852C199.529 148.935 195.538 147.513 191.747 148.456C185.209 150.082 181.805 157.956 175.343 159.857C172.472 160.702 169.386 160.228 166.462 159.566C163.543 158.904 160.608 158.053 157.619 158.166C155.277 158.252 152.837 159.065 151.189 160.67L151.205 160.648C151.189 160.665 151.173 160.681 151.157 160.702C150.888 160.972 150.64 161.257 150.414 161.569C148.41 164.241 148.087 167.838 148.706 171.102C149.396 174.758 151.103 178.135 152.934 181.371C155.094 185.184 157.544 188.981 161.109 191.523C165.509 194.657 171.045 192.492 176.431 192.918C188.995 193.909 202.517 194.587 215.082 193.613C221.722 193.096 227.942 193.817 233.209 189.746C236.914 186.881 239.327 182.562 240.49 178.022C241.664 173.471 241.659 168.705 241.19 164.047Z" fill="#FF5661"/>
<g opacity="0.24">
<g opacity="0.24">
<path opacity="0.24" d="M217.472 157.568C216.761 158.656 216.46 160.11 217.144 161.214C217.828 162.318 218.754 163.32 219.05 164.586C219.519 166.567 218.323 168.512 217.429 170.343C215.835 173.622 215.113 177.36 215.646 180.968C216.185 184.576 218.032 188.017 220.919 190.247C222.195 191.233 223.854 191.997 225.394 191.513C226.843 191.06 227.78 189.59 228.065 188.098C228.351 186.606 228.114 185.072 227.925 183.569C227.047 176.579 227.225 169.459 228.458 162.523C228.663 161.365 228.862 160.04 228.124 159.119C227.656 158.532 226.907 158.258 226.191 158.015C223.396 157.084 220.375 158.123 217.472 157.568Z" fill="#011727"/>
</g>
</g>
<path d="M144.753 196.251C144.753 196.251 144.5 192.039 149.993 189.691H246.527C246.527 189.691 251.562 192.239 252.181 196.159L144.753 196.251Z" fill="#011727"/>
<path d="M244.485 11.4833C244.437 11.5048 244.383 11.5317 244.335 11.5533L153.558 10.9716C153.558 10.9716 153.235 10.767 152.756 10.39C150.165 8.36511 151.619 4.20758 154.899 4.23451L242.999 4.94538C246.639 4.97769 247.77 9.92688 244.485 11.4833Z" fill="#011727"/>
<g opacity="0.24">
<g opacity="0.24">
<path opacity="0.24" d="M229.955 46.1059C230.138 46.456 229.454 47.2153 228.157 48.3678C226.853 49.5257 224.947 51.109 222.523 53.0639C220.089 55.0026 217.138 57.3345 213.379 59.5156C211.494 60.6035 209.399 61.589 207.11 62.3914C205.958 62.7792 204.762 63.14 203.508 63.3877C202.258 63.657 200.955 63.8347 199.614 63.8939C196.943 64.0447 194.223 63.657 191.789 62.8222C189.371 61.9821 187.303 60.7973 185.499 59.6125C183.689 58.4116 182.127 57.2268 180.657 56.0959C179.192 54.9595 177.857 53.8663 176.667 52.8323C171.901 48.7017 169.391 45.6643 169.876 45.0773C170.376 44.4688 173.753 46.4021 179.009 49.6334C180.323 50.4412 181.761 51.3244 183.307 52.2722C184.847 53.2093 186.506 54.2487 188.197 55.2073C189.893 56.1659 191.665 57.0383 193.501 57.6038C195.327 58.1477 197.271 58.4062 199.339 58.2931C203.475 58.0831 207.487 56.6236 210.961 54.9488C214.456 53.2416 217.58 51.3029 220.305 49.7788C223.024 48.2386 225.356 47.0969 227.047 46.4883C228.744 45.8797 229.778 45.772 229.955 46.1059Z" fill="#011727"/>
</g>
</g>
<path d="M197.008 131.615C198.004 131.265 199.194 132.267 199.022 133.306C198.844 134.345 197.39 134.906 196.566 134.249C195.742 133.592 195.957 132.051 196.932 131.647" fill="#FF5661"/>
<path d="M164.545 61.1315C164.539 61.1369 164.426 61.0292 164.222 60.8084C164.006 60.5714 163.71 60.2483 163.344 59.8444C162.972 59.4189 162.482 58.9235 161.981 58.288C161.475 57.6579 160.899 56.9417 160.269 56.1554C159.682 55.326 159.019 54.4374 158.351 53.4465C158.034 52.9403 157.705 52.4179 157.366 51.8794C157.199 51.6101 157.021 51.3408 156.86 51.0554C156.704 50.77 156.547 50.4792 156.386 50.183C155.061 47.8511 153.882 45.1153 153.041 42.1318C152.201 39.1429 151.808 36.1917 151.771 33.5044C151.771 32.8312 151.803 32.1796 151.819 31.5441C151.835 31.2263 151.83 30.914 151.862 30.607C151.894 30.3 151.927 29.9985 151.959 29.7023C152.029 29.1099 152.072 28.5336 152.153 27.9843C152.25 27.4404 152.347 26.918 152.438 26.4172C152.594 25.4101 152.858 24.5323 153.047 23.7514C153.149 23.3636 153.23 22.9974 153.332 22.6689C153.44 22.3458 153.537 22.0442 153.628 21.7696C153.801 21.2526 153.941 20.8379 154.043 20.5309C154.14 20.2509 154.194 20.1055 154.205 20.1055C154.215 20.1109 154.178 20.2616 154.097 20.5471C154.005 20.8594 153.887 21.2741 153.731 21.7965C153.65 22.0711 153.558 22.3727 153.462 22.6958C153.365 23.0244 153.295 23.396 153.198 23.7837C153.02 24.5646 152.772 25.4478 152.632 26.4495C152.546 26.9503 152.46 27.4673 152.368 28.0112C152.293 28.5552 152.255 29.1314 152.191 29.7184C152.164 30.0146 152.131 30.3162 152.099 30.6178C152.072 30.9248 152.077 31.2371 152.067 31.5495C152.056 32.1796 152.024 32.8312 152.029 33.499C152.077 36.1648 152.476 39.089 153.311 42.0564C154.145 45.0184 155.309 47.7326 156.612 50.0591C156.768 50.3553 156.924 50.6461 157.081 50.9315C157.237 51.217 157.414 51.4808 157.581 51.7555C157.915 52.294 158.238 52.8164 158.551 53.3227C159.208 54.3136 159.859 55.2075 160.436 56.0369C161.055 56.8339 161.615 57.5502 162.11 58.1911C162.595 58.8319 163.074 59.3328 163.43 59.7744C163.78 60.1944 164.06 60.5229 164.27 60.7707C164.453 61.0022 164.55 61.1261 164.545 61.1315Z" fill="#011727"/>
<path d="M159.434 141.137C159.428 141.137 159.466 141.072 159.536 140.959C159.617 140.835 159.719 140.668 159.854 140.453C159.999 140.226 160.177 139.952 160.381 139.634C160.489 139.472 160.602 139.3 160.721 139.112C160.855 138.934 161.006 138.756 161.162 138.557C161.48 138.169 161.836 137.738 162.218 137.264C162.633 136.817 163.106 136.354 163.607 135.848C164.631 134.857 165.864 133.802 167.307 132.735C170.167 130.57 173.856 128.416 177.852 125.901C179.834 124.625 181.923 123.278 183.9 121.641C185.876 120.015 187.782 118.141 189.328 115.906C192.371 111.382 193.604 106.142 193.717 101.457C193.841 96.7392 192.834 92.5332 191.654 89.1835C190.459 85.823 189.086 83.2595 188.089 81.5362C187.589 80.6691 187.179 80.0121 186.899 79.5651C186.765 79.3497 186.662 79.1828 186.581 79.0589C186.511 78.9458 186.479 78.8812 186.479 78.8812C186.485 78.8758 186.528 78.9351 186.603 79.0428C186.689 79.1666 186.802 79.3282 186.942 79.5382C187.238 79.9744 187.664 80.6261 188.181 81.4823C189.21 83.1949 190.615 85.7476 191.843 89.1189C193.055 92.4793 194.089 96.7069 193.981 101.468C193.959 102.652 193.863 103.869 193.685 105.097C193.512 106.331 193.254 107.575 192.899 108.819C192.204 111.307 191.094 113.784 189.57 116.067C188.009 118.335 186.081 120.225 184.088 121.857C182.095 123.505 180 124.846 178.008 126.122C173.996 128.626 170.307 130.759 167.442 132.897C166.004 133.952 164.765 134.986 163.737 135.961C163.236 136.462 162.756 136.914 162.342 137.356C161.954 137.819 161.593 138.245 161.27 138.627C161.108 138.821 160.952 138.993 160.818 139.171C160.694 139.354 160.575 139.526 160.468 139.682C160.252 139.995 160.069 140.264 159.918 140.485C159.773 140.69 159.66 140.851 159.574 140.975C159.477 141.083 159.434 141.142 159.434 141.137Z" fill="#011727"/>
<path d="M154.425 150.654C154.436 150.659 154.393 150.745 154.307 150.901C154.204 151.084 154.075 151.311 153.924 151.585C153.752 151.876 153.547 152.242 153.337 152.679C153.127 153.115 152.858 153.594 152.632 154.159C152.513 154.44 152.384 154.73 152.255 155.037C152.126 155.344 152.018 155.673 151.894 156.007C151.63 156.669 151.426 157.407 151.194 158.177C150.779 159.728 150.435 161.462 150.252 163.309C150.09 165.156 150.117 166.928 150.241 168.528C150.332 169.325 150.397 170.09 150.537 170.79C150.602 171.14 150.645 171.484 150.715 171.807C150.79 172.131 150.86 172.438 150.93 172.739C151.049 173.337 151.226 173.859 151.356 174.322C151.479 174.791 151.614 175.184 151.733 175.502C151.835 175.798 151.916 176.046 151.986 176.245C152.04 176.417 152.066 176.509 152.056 176.514C152.045 176.52 152.007 176.434 151.932 176.267C151.851 176.073 151.749 175.83 151.63 175.54C151.496 175.222 151.345 174.834 151.205 174.366C151.059 173.902 150.871 173.38 150.736 172.782C150.661 172.486 150.585 172.174 150.505 171.851C150.424 171.527 150.375 171.183 150.305 170.827C150.155 170.122 150.079 169.352 149.982 168.549C149.842 166.934 149.81 165.146 149.972 163.282C150.155 161.419 150.51 159.669 150.941 158.107C151.183 157.331 151.399 156.594 151.673 155.926C151.808 155.592 151.916 155.263 152.056 154.957C152.196 154.655 152.325 154.359 152.454 154.084C152.697 153.519 152.977 153.039 153.203 152.614C153.424 152.183 153.644 151.828 153.833 151.537C154.005 151.273 154.145 151.052 154.264 150.874C154.361 150.724 154.415 150.648 154.425 150.654Z" fill="#011727"/>
<path d="M221.005 163.595C221.005 163.6 220.973 163.627 220.897 163.676C220.806 163.729 220.698 163.799 220.564 163.886C220.246 164.079 219.81 164.338 219.255 164.672C218.969 164.844 218.652 165.027 218.307 165.232C217.952 165.426 217.559 165.609 217.138 165.824C216.293 166.234 215.35 166.756 214.241 167.171C213.692 167.397 213.116 167.634 212.518 167.876C211.92 168.118 211.268 168.302 210.611 168.533C209.303 169.012 207.849 169.352 206.335 169.75C203.276 170.429 199.857 170.93 196.238 171.048C192.619 171.124 189.172 170.8 186.081 170.283C184.546 169.966 183.081 169.702 181.746 169.292C181.078 169.099 180.421 168.948 179.807 168.738C179.198 168.522 178.611 168.318 178.051 168.124C176.92 167.763 175.956 167.295 175.089 166.928C174.658 166.74 174.254 166.573 173.888 166.401C173.533 166.212 173.21 166.045 172.913 165.889C172.343 165.587 171.896 165.345 171.567 165.173C171.427 165.097 171.314 165.033 171.222 164.979C171.147 164.936 171.109 164.909 171.109 164.903C171.109 164.898 171.152 164.914 171.239 164.952C171.336 164.995 171.454 165.054 171.599 165.119C171.933 165.28 172.391 165.507 172.967 165.787C173.264 165.932 173.592 166.099 173.953 166.277C174.319 166.444 174.728 166.6 175.159 166.783C176.032 167.133 176.996 167.585 178.127 167.935C178.687 168.124 179.268 168.323 179.882 168.533C180.491 168.738 181.148 168.883 181.816 169.072C183.146 169.47 184.605 169.723 186.135 170.03C189.21 170.531 192.635 170.843 196.238 170.773C199.835 170.66 203.239 170.17 206.287 169.508C207.795 169.12 209.243 168.792 210.552 168.323C211.209 168.102 211.855 167.919 212.453 167.688C213.051 167.451 213.627 167.219 214.171 167.004C215.28 166.6 216.223 166.094 217.074 165.7C217.494 165.496 217.892 165.318 218.248 165.13C218.598 164.936 218.916 164.753 219.206 164.591C219.767 164.279 220.214 164.031 220.537 163.853C220.677 163.778 220.795 163.719 220.887 163.665C220.962 163.611 221.005 163.595 221.005 163.595Z" fill="#011727"/>
<path d="M226.622 49.6182C226.627 49.6235 226.584 49.6559 226.509 49.7259C226.417 49.8013 226.299 49.8982 226.153 50.0167C225.825 50.2806 225.362 50.6468 224.78 51.1153C223.579 52.0631 221.85 53.4364 219.659 55.0736C217.467 56.7 214.806 58.5956 211.65 60.3674C210.056 61.2183 208.355 62.0908 206.491 62.7424C204.633 63.3994 202.63 63.9003 200.535 64.0672C196.329 64.3526 192.338 63.2863 189.096 61.6869C187.475 60.8737 186.01 59.9635 184.675 59.0588C183.361 58.1325 182.16 57.2331 181.099 56.3715C178.966 54.6589 177.297 53.2102 176.134 52.2193C175.568 51.7292 175.121 51.3469 174.803 51.0668C174.663 50.943 174.55 50.8407 174.464 50.7599C174.389 50.6899 174.351 50.6522 174.356 50.6468C174.362 50.6414 174.405 50.6737 174.486 50.7383C174.577 50.8137 174.696 50.9053 174.847 51.0238C175.175 51.2876 175.633 51.6592 176.209 52.1332C177.394 53.1025 179.079 54.5243 181.223 56.2153C182.289 57.0662 183.496 57.9494 184.81 58.8649C186.14 59.7535 187.599 60.6529 189.209 61.4553C192.43 63.0278 196.367 64.0672 200.519 63.7872C202.581 63.6256 204.558 63.1302 206.4 62.4839C208.247 61.843 209.938 60.9814 211.527 60.1413C214.677 58.391 217.337 56.5169 219.545 54.912C221.748 53.2964 223.498 51.95 224.715 51.0291C225.313 50.5822 225.787 50.2267 226.121 49.9736C226.272 49.8605 226.396 49.7743 226.493 49.7043C226.573 49.6451 226.622 49.6182 226.622 49.6182Z" fill="#011727"/>
<g opacity="0.24">
<g opacity="0.24">
<path opacity="0.24" d="M178.051 168.117C180.603 166.146 184.19 166.625 187.341 167.288C190.496 167.95 193.674 169.027 196.867 168.58C199.275 168.241 201.483 167.061 203.858 166.544C206.233 166.027 209.114 166.41 210.428 168.451C199.986 171.854 188.428 171.736 178.051 168.117Z" fill="#011727"/>
</g>
</g>
<path d="M267.11 153.507L255.51 140.523L255.392 156.307L258.881 166.432L224.189 172.448L222.718 145.073L220.22 124.049C219.913 121.475 221.383 119.013 223.795 118.066L233.344 114.307L246.791 116.773L252.198 118.83C254.471 119.692 256.496 121.103 258.095 122.929L274.381 141.551" fill="#FF2D3B"/>
<path d="M254.702 137.414C254.708 137.36 255.467 137.473 256.663 137.274C257.847 137.091 259.485 136.509 260.842 135.26C262.199 134.005 262.904 132.422 263.184 131.259C263.475 130.085 263.427 129.314 263.48 129.314C263.497 129.314 263.524 129.503 263.529 129.848C263.534 130.192 263.502 130.693 263.378 131.302C263.141 132.508 262.441 134.161 261.03 135.465C259.619 136.762 257.912 137.328 256.689 137.468C256.076 137.543 255.575 137.538 255.23 137.5C254.885 137.473 254.697 137.43 254.702 137.414Z" fill="white"/>
<path d="M255.714 155.634C255.795 155.634 255.817 150.163 255.763 143.42C255.709 136.672 255.596 131.206 255.515 131.206C255.434 131.206 255.413 136.672 255.467 143.42C255.526 150.168 255.634 155.634 255.714 155.634Z" fill="#011727"/>
<path d="M254.444 159.648L233.478 151.209C231.787 150.53 230.629 148.947 230.489 147.132L228.955 127.034C228.955 127.034 229.138 118.487 223.795 118.072L220.758 119.268C216.832 121.352 215.857 127.066 216.396 131.482C217.155 137.751 217.473 146.626 218.324 152.065C219.018 156.519 221.571 160.434 225.928 161.581L251.746 167.171L254.444 159.648Z" fill="#FF2D3B"/>
<path d="M229.261 130.098C229.272 130.098 229.294 130.254 229.326 130.555C229.358 130.884 229.407 131.326 229.46 131.88C229.568 133.06 229.719 134.718 229.902 136.754C230.08 138.822 230.29 141.267 230.521 143.987C230.581 144.665 230.64 145.365 230.699 146.076C230.764 146.787 230.807 147.519 230.968 148.225C231.125 148.936 231.464 149.604 232.008 150.11C232.552 150.616 233.23 150.993 233.941 151.311C239.72 153.81 245.051 155.878 248.918 157.326C250.835 158.032 252.397 158.608 253.512 159.017C254.034 159.211 254.449 159.362 254.761 159.475C255.047 159.583 255.192 159.642 255.192 159.653C255.187 159.664 255.036 159.62 254.745 159.529C254.433 159.427 254.013 159.292 253.479 159.12C252.381 158.753 250.803 158.209 248.853 157.509C244.965 156.109 239.628 154.073 233.828 151.564C233.106 151.235 232.401 150.853 231.819 150.309C231.232 149.771 230.855 149.027 230.699 148.284C230.532 147.541 230.495 146.803 230.43 146.092C230.371 145.381 230.317 144.681 230.263 144.003C230.053 141.283 229.864 138.833 229.703 136.765C229.552 134.724 229.434 133.065 229.347 131.886C229.315 131.331 229.288 130.884 229.267 130.555C229.256 130.259 229.25 130.098 229.261 130.098Z" fill="#011727"/>
<path d="M217.252 141.025C217.262 141.025 217.273 141.117 217.295 141.295C217.311 141.505 217.338 141.758 217.365 142.07C217.429 142.786 217.51 143.75 217.612 144.924C217.726 146.125 217.871 147.558 218.081 149.141C218.296 150.719 218.55 152.464 219.029 154.23C219.255 155.124 219.573 155.948 220.052 156.659C220.531 157.375 221.065 158.016 221.619 158.582C222.729 159.713 223.913 160.547 224.974 161.097C227.118 162.212 228.679 162.228 228.658 162.303C228.658 162.314 228.561 162.309 228.383 162.298C228.206 162.287 227.942 162.265 227.608 162.195C226.94 162.077 225.976 161.813 224.883 161.275C223.79 160.736 222.572 159.907 221.436 158.765C220.871 158.189 220.321 157.542 219.826 156.815C219.325 156.083 218.986 155.205 218.76 154.311C218.275 152.518 218.027 150.768 217.828 149.179C217.634 147.59 217.505 146.152 217.419 144.946C217.332 143.74 217.284 142.759 217.257 142.086C217.252 141.774 217.246 141.515 217.241 141.305C217.235 141.117 217.241 141.025 217.252 141.025Z" fill="#011727"/>
<path d="M226.214 155.086C226.187 155.08 226.273 154.628 226.596 153.971C226.914 153.314 227.501 152.457 228.357 151.725C229.213 150.993 230.15 150.546 230.85 150.336C231.556 150.12 232.008 150.104 232.014 150.131C232.024 150.179 231.583 150.266 230.915 150.519C230.247 150.772 229.364 151.23 228.54 151.93C227.716 152.635 227.124 153.438 226.774 154.057C226.413 154.682 226.257 155.102 226.214 155.086Z" fill="#011727"/>
<path d="M230.338 139.802C230.338 139.796 230.387 139.818 230.473 139.861C230.57 139.915 230.694 139.979 230.85 140.06C231.184 140.216 231.679 140.47 232.347 140.696C233.667 141.153 235.729 141.617 238.223 141.197C240.684 140.793 243.543 139.344 245.525 136.657C246.505 135.332 247.265 133.695 247.437 131.907C247.523 131.018 247.453 130.092 247.157 129.219C246.872 128.347 246.344 127.545 245.644 126.909C244.949 126.274 244.087 125.827 243.183 125.714C242.289 125.574 241.335 125.81 240.716 126.408C240.414 126.71 240.231 127.108 240.237 127.523C240.237 127.938 240.393 128.342 240.641 128.676C241.136 129.354 241.976 129.672 242.773 129.79C244.405 130.016 246.01 129.72 247.356 129.133C248.708 128.546 249.812 127.668 250.604 126.704C251.401 125.735 251.891 124.685 252.182 123.737C252.478 122.784 252.564 121.917 252.58 121.217C252.591 120.511 252.515 119.967 252.462 119.601C252.429 119.434 252.408 119.294 252.386 119.186C252.37 119.095 252.365 119.041 252.37 119.041C252.37 119.041 252.666 119.79 252.693 121.217C252.693 121.928 252.623 122.805 252.338 123.786C252.052 124.755 251.568 125.832 250.76 126.834C249.957 127.83 248.832 128.735 247.453 129.349C246.075 129.957 244.432 130.27 242.741 130.049C241.906 129.93 240.996 129.602 240.431 128.842C240.156 128.476 239.967 128.013 239.967 127.528C239.962 127.044 240.183 126.564 240.528 126.22C241.228 125.541 242.267 125.299 243.226 125.444C244.195 125.568 245.111 126.042 245.838 126.71C246.57 127.378 247.125 128.223 247.426 129.139C247.733 130.054 247.809 131.018 247.717 131.939C247.534 133.792 246.748 135.467 245.741 136.818C243.705 139.554 240.77 141.013 238.26 141.396C235.718 141.8 233.634 141.294 232.315 140.803C230.968 140.286 230.338 139.802 230.338 139.802Z" fill="white"/>
<path d="M216.606 134.438C216.595 134.427 216.708 134.271 216.95 134.007C217.193 133.749 217.564 133.393 218.081 133.021C219.099 132.257 220.785 131.562 222.718 131.379C223.687 131.277 224.625 131.32 225.454 131.492C226.283 131.664 226.994 131.944 227.56 132.23C228.125 132.515 228.556 132.801 228.841 133.011C229.127 133.221 229.272 133.35 229.261 133.366C229.234 133.409 228.604 132.935 227.473 132.413C226.353 131.88 224.641 131.433 222.75 131.659C220.855 131.837 219.218 132.483 218.194 133.188C217.155 133.878 216.643 134.481 216.606 134.438Z" fill="white"/>
<path d="M219.961 120.07C220.004 120.021 220.5 120.711 221.657 121.303C222.228 121.599 222.971 121.847 223.817 121.938C224.662 122.03 225.616 121.933 226.52 121.567C227.42 121.185 228.163 120.581 228.696 119.919C229.235 119.257 229.579 118.562 229.779 117.943C230.177 116.704 230.042 115.869 230.107 115.869C230.123 115.869 230.166 116.068 230.177 116.44C230.193 116.812 230.15 117.356 229.967 117.996C229.789 118.637 229.45 119.375 228.901 120.075C228.357 120.77 227.581 121.416 226.628 121.82C225.67 122.208 224.668 122.299 223.79 122.192C222.907 122.084 222.147 121.804 221.566 121.475C220.984 121.147 220.57 120.791 220.316 120.522C220.058 120.253 219.945 120.081 219.961 120.07Z" fill="white"/>
<path d="M238.228 153.119C238.218 153.119 238.234 152.985 238.271 152.721C238.331 152.468 238.411 152.085 238.643 151.638C239.069 150.734 240.119 149.603 241.783 148.913C243.42 148.176 245.676 148.036 247.944 148.693C249.053 149.021 250.324 149.43 251.153 150.513C251.563 151.046 251.697 151.838 251.39 152.484C251.094 153.136 250.512 153.583 249.899 153.895C249.274 154.202 248.595 154.374 247.911 154.385C247.238 154.396 246.533 154.229 246.005 153.793C245.472 153.362 245.192 152.699 245.154 152.064C245.106 151.423 245.235 150.809 245.439 150.249C246.333 148.009 248.138 146.582 249.759 145.876C251.406 145.154 252.898 145.079 253.884 145.165C254.875 145.267 255.392 145.483 255.392 145.483C255.381 145.521 254.859 145.343 253.878 145.273C252.904 145.219 251.444 145.327 249.845 146.054C249.048 146.415 248.229 146.937 247.491 147.648C246.759 148.359 246.096 149.263 245.682 150.33C245.488 150.863 245.369 151.45 245.418 152.037C245.461 152.619 245.709 153.195 246.177 153.572C246.64 153.954 247.276 154.11 247.906 154.094C248.541 154.083 249.182 153.916 249.769 153.631C250.346 153.34 250.879 152.92 251.132 152.36C251.396 151.805 251.288 151.143 250.927 150.664C250.572 150.174 250.055 149.824 249.527 149.549C248.994 149.28 248.423 149.097 247.868 148.93C245.644 148.273 243.458 148.391 241.853 149.086C240.221 149.737 239.176 150.809 238.735 151.676C238.277 152.554 238.266 153.13 238.228 153.119Z" fill="white"/>
<path d="M224.269 160.686C224.258 160.632 225.066 160.568 226.278 160.131C227.484 159.711 229.084 158.844 230.398 157.396C231.712 155.941 232.406 154.261 232.708 153.017C233.015 151.768 233.004 150.96 233.058 150.96C233.074 150.96 233.096 151.159 233.09 151.525C233.085 151.892 233.037 152.419 232.907 153.06C232.654 154.337 231.965 156.081 230.613 157.579C229.261 159.076 227.592 159.937 226.348 160.314C225.723 160.508 225.201 160.611 224.84 160.654C224.474 160.702 224.269 160.702 224.269 160.686Z" fill="white"/>
<path d="M217.473 145.062C217.473 145.052 217.559 145.019 217.726 144.96C217.893 144.906 218.146 144.825 218.475 144.745C219.126 144.589 220.107 144.368 221.329 144.454C221.938 144.502 222.605 144.642 223.268 144.933C223.93 145.224 224.587 145.687 225.077 146.355C225.557 147.023 225.853 147.89 225.783 148.8C225.751 149.252 225.61 149.705 225.368 150.109C225.12 150.507 224.754 150.868 224.27 151.029C223.79 151.18 223.23 151.105 222.853 150.749C222.482 150.389 222.39 149.882 222.363 149.441C222.331 148.547 222.525 147.691 222.859 146.947C223.526 145.445 224.765 144.459 225.917 144.045C227.075 143.614 228.104 143.646 228.766 143.765C229.1 143.824 229.359 143.899 229.526 143.958C229.693 144.023 229.779 144.061 229.773 144.066C229.763 144.093 229.413 143.953 228.75 143.872C228.093 143.791 227.097 143.797 225.987 144.233C224.889 144.653 223.72 145.612 223.096 147.055C222.783 147.766 222.605 148.584 222.638 149.43C222.659 149.839 222.756 150.276 223.042 150.55C223.327 150.819 223.785 150.889 224.183 150.766C224.582 150.636 224.91 150.324 225.131 149.969C225.352 149.608 225.476 149.193 225.514 148.778C225.584 147.949 225.314 147.13 224.873 146.506C224.42 145.881 223.801 145.434 223.176 145.143C222.546 144.852 221.905 144.707 221.313 144.648C220.123 144.54 219.153 144.723 218.496 144.847C217.845 144.987 217.484 145.084 217.473 145.062Z" fill="white"/>
<g opacity="0.3">
<g opacity="0.3">
<path opacity="0.3" d="M248.423 157.251C246.183 155.985 243.991 155.01 241.643 153.944C239.3 152.878 237.001 151.51 235.471 149.442C232.579 145.543 232.908 139.915 229.946 136.064C230.14 138.649 230.334 141.24 230.527 143.825C230.705 146.194 230.339 148.542 231.868 150.153C233.155 151.51 235.665 152.549 237.442 153.136C241.007 154.326 244.853 156.071 248.423 157.251Z" fill="#011727"/>
</g>
</g>
<path d="M284.845 186.788C284.845 186.788 302.385 191.64 303.09 191.888C304.146 192.26 303.968 196.132 302.326 196.073C301.55 196.046 288.851 196.546 287.247 196.444C285.642 196.342 280.806 194.435 280.806 194.435L284.845 186.788Z" fill="#FF2D3B"/>
<path d="M292.152 193.483C292.239 193.493 292.357 192.567 292.928 191.598C293.483 190.623 294.22 190.052 294.166 189.982C294.134 189.912 293.267 190.408 292.669 191.452C292.066 192.486 292.077 193.488 292.152 193.483Z" fill="#011727"/>
<path d="M290.321 192.653C290.408 192.669 290.585 191.84 291.054 190.924C291.512 190.004 292.072 189.368 292.007 189.309C291.959 189.25 291.275 189.826 290.79 190.795C290.3 191.754 290.251 192.648 290.321 192.653Z" fill="#011727"/>
<path d="M288.609 192.196C288.695 192.19 288.63 191.312 289.018 190.343C289.39 189.363 290.036 188.765 289.971 188.701C289.933 188.636 289.147 189.174 288.743 190.235C288.329 191.286 288.539 192.217 288.609 192.196Z" fill="#011727"/>
<path d="M288.922 189.928C288.954 189.934 289.11 189.449 289.11 188.625C289.11 188.216 289.062 187.726 288.932 187.193C288.868 186.929 288.782 186.654 288.674 186.379C288.615 186.239 288.55 186.078 288.394 185.949C288.232 185.803 287.931 185.83 287.791 185.981C287.629 186.121 287.581 186.32 287.559 186.476C287.543 186.638 287.532 186.789 287.538 186.939C287.543 187.241 287.581 187.532 287.645 187.796C287.774 188.329 287.985 188.781 288.184 189.137C288.593 189.848 288.949 190.214 288.97 190.192C289.008 190.165 288.717 189.756 288.367 189.04C288.195 188.684 288.017 188.243 287.909 187.737C287.855 187.483 287.823 187.214 287.823 186.934C287.828 186.665 287.828 186.326 287.985 186.196C288.071 186.126 288.146 186.121 288.216 186.175C288.291 186.234 288.356 186.352 288.41 186.482C288.518 186.746 288.609 187.004 288.674 187.257C288.814 187.763 288.879 188.232 288.905 188.625C288.954 189.422 288.873 189.923 288.922 189.928Z" fill="#011727"/>
<path d="M288.9 189.751C288.911 189.719 288.485 189.574 287.769 189.568C287.413 189.568 286.983 189.606 286.525 189.719C286.299 189.778 286.051 189.838 285.809 189.983C285.566 190.107 285.319 190.441 285.41 190.785C285.485 191.114 285.766 191.34 286.04 191.41C286.32 191.486 286.59 191.459 286.826 191.41C287.306 191.297 287.683 191.06 287.968 190.85C288.528 190.408 288.803 190.069 288.781 190.048C288.749 190.01 288.421 190.301 287.844 190.678C287.559 190.861 287.198 191.06 286.767 191.141C286.552 191.184 286.326 191.195 286.116 191.13C285.911 191.071 285.739 190.915 285.69 190.715C285.642 190.522 285.76 190.338 285.949 190.225C286.137 190.107 286.369 190.042 286.584 189.978C287.02 189.854 287.424 189.795 287.764 189.773C288.458 189.725 288.889 189.795 288.9 189.751Z" fill="#011727"/>
<path d="M294.851 193.671C294.937 193.66 294.851 192.912 295.195 192.088C295.524 191.259 296.111 190.785 296.051 190.715C296.025 190.645 295.287 191.059 294.921 191.975C294.544 192.89 294.775 193.698 294.851 193.671Z" fill="#011727"/>
<path d="M282.609 194.48C282.604 194.496 282.841 194.609 283.288 194.798C283.74 194.97 284.397 195.207 285.238 195.401C286.912 195.827 289.309 196.063 291.932 196.037C294.56 196.01 296.929 195.886 298.647 195.821C299.46 195.778 300.139 195.74 300.678 195.713C301.157 195.681 301.421 195.654 301.421 195.633C301.421 195.611 301.151 195.6 300.672 195.6C300.134 195.606 299.45 195.611 298.636 195.616C296.859 195.649 294.517 195.697 291.926 195.746C289.309 195.773 286.95 195.568 285.275 195.202C283.606 194.857 282.631 194.426 282.609 194.48Z" fill="#011727"/>
<path d="M282.093 194.878C282.114 194.921 282.599 194.635 283.407 194.28C284.209 193.935 285.41 193.526 286.724 193.73C288.043 193.935 288.98 194.818 289.594 195.438C290.208 196.078 290.569 196.499 290.607 196.472C290.634 196.45 290.332 195.982 289.751 195.298C289.454 194.958 289.077 194.565 288.587 194.21C288.103 193.854 287.478 193.547 286.778 193.44C285.361 193.224 284.117 193.698 283.326 194.091C282.513 194.506 282.071 194.851 282.093 194.878Z" fill="#011727"/>
<path d="M266.227 181.948C266.227 181.948 249.629 192.816 249.031 193.263C248.137 193.936 249.16 197.157 250.711 196.597C251.444 196.333 265.371 192.461 266.868 191.874C268.365 191.292 272.398 188.007 272.398 188.007L266.227 181.948Z" fill="#FF2D3B"/>
<path d="M261.299 190.543C261.375 190.527 261.079 189.568 260.19 188.766C259.307 187.952 258.327 187.748 258.321 187.823C258.289 187.904 259.172 188.222 259.991 188.986C260.825 189.735 261.219 190.58 261.299 190.543Z" fill="#011727"/>
<path d="M262.791 189.197C262.861 189.17 262.538 188.336 261.779 187.565C261.025 186.79 260.195 186.451 260.168 186.521C260.125 186.596 260.852 187.032 261.569 187.77C262.29 188.503 262.71 189.24 262.791 189.197Z" fill="#011727"/>
<path d="M264.283 188.238C264.358 188.238 264.278 187.29 263.556 186.412C262.845 185.529 261.935 185.249 261.919 185.324C261.881 185.405 262.673 185.777 263.324 186.595C263.998 187.403 264.197 188.259 264.283 188.238Z" fill="#011727"/>
<path d="M263.298 186.174C263.341 186.153 263.115 185.706 262.921 184.93C262.824 184.543 262.748 184.079 262.727 183.557C262.716 183.299 262.721 183.024 262.743 182.738C262.754 182.604 262.775 182.469 262.835 182.388C262.888 182.313 262.958 182.297 263.061 182.335C263.249 182.41 263.352 182.733 263.438 182.986C263.524 183.25 263.578 183.519 263.599 183.778C263.653 184.295 263.61 184.769 263.556 185.162C263.438 185.948 263.282 186.428 263.33 186.444C263.362 186.454 263.588 186.002 263.761 185.2C263.847 184.801 263.906 184.306 263.869 183.756C263.847 183.482 263.799 183.196 263.712 182.905C263.669 182.76 263.615 182.62 263.551 182.469C263.481 182.324 263.373 182.151 263.179 182.065C263.001 181.968 262.705 182.028 262.598 182.222C262.484 182.394 262.474 182.566 262.463 182.717C262.441 183.013 262.441 183.299 262.463 183.573C262.501 184.117 262.603 184.596 262.727 184.99C262.975 185.77 263.271 186.191 263.298 186.174Z" fill="#011727"/>
<path d="M263.265 185.998C263.287 186.041 263.674 185.841 264.342 185.68C264.676 185.599 265.08 185.529 265.532 185.518C265.759 185.513 266.001 185.508 266.216 185.561C266.432 185.61 266.604 185.745 266.615 185.949C266.631 186.159 266.513 186.358 266.335 186.477C266.157 186.601 265.931 186.655 265.716 186.682C265.279 186.73 264.881 186.655 264.547 186.563C263.884 186.375 263.481 186.197 263.464 186.245C263.454 186.278 263.814 186.515 264.488 186.762C264.822 186.881 265.252 186.989 265.742 186.951C265.985 186.929 266.249 186.875 266.491 186.714C266.733 186.563 266.933 186.262 266.9 185.928C266.884 185.567 266.545 185.33 266.281 185.287C266.001 185.222 265.753 185.244 265.516 185.254C265.042 185.287 264.622 185.378 264.283 185.486C263.61 185.701 263.249 185.971 263.265 185.998Z" fill="#011727"/>
<path d="M252.828 195.992C252.849 196.019 253.108 195.825 253.232 195.351C253.372 194.888 253.286 194.172 252.919 193.552C252.747 193.235 252.548 192.965 252.365 192.723C252.182 192.481 251.993 192.265 251.799 192.12C251.605 191.969 251.406 191.904 251.272 191.899C251.132 191.894 251.062 191.926 251.062 191.942C251.062 191.985 251.358 191.964 251.665 192.276C251.821 192.427 251.977 192.631 252.144 192.879C252.316 193.127 252.499 193.396 252.661 193.687C252.995 194.274 253.097 194.877 253.027 195.308C252.973 195.733 252.79 195.965 252.828 195.992Z" fill="#011727"/>
<path d="M258.79 191.541C258.865 191.546 258.844 190.706 258.203 189.952C257.573 189.187 256.749 189.015 256.743 189.09C256.711 189.171 257.411 189.446 257.977 190.135C258.558 190.819 258.704 191.557 258.79 191.541Z" fill="#011727"/>
<path d="M270.696 188.593C270.68 188.577 270.427 188.765 269.969 189.094C269.501 189.417 268.817 189.869 267.923 190.348C267.029 190.828 265.93 191.323 264.67 191.797C263.415 192.266 262.004 192.707 260.513 193.138C257.529 194 254.826 194.786 252.871 195.373C251.934 195.658 251.158 195.901 250.566 196.084C250.022 196.256 249.726 196.364 249.731 196.38C249.736 196.402 250.043 196.332 250.598 196.192C251.201 196.03 251.982 195.825 252.93 195.572C254.896 195.039 257.604 194.285 260.593 193.423C262.085 192.993 263.502 192.54 264.762 192.05C266.022 191.56 267.126 191.038 268.014 190.532C268.903 190.025 269.582 189.541 270.029 189.185C270.476 188.824 270.707 188.609 270.696 188.593Z" fill="#011727"/>
<path d="M271.311 188.82C271.322 188.787 270.794 188.593 269.906 188.448C269.028 188.308 267.698 188.238 266.416 188.873C265.78 189.186 265.28 189.67 264.924 190.155C264.563 190.645 264.326 191.13 264.149 191.545C263.799 192.374 263.653 192.912 263.686 192.923C263.729 192.939 263.944 192.428 264.337 191.631C264.73 190.861 265.355 189.73 266.551 189.132C267.746 188.54 269.012 188.566 269.879 188.647C270.757 188.744 271.301 188.863 271.311 188.82Z" fill="#011727"/>
<path d="M300.72 155.44C300.72 155.44 305.702 157.217 305.718 162.802C305.756 173.497 284.112 185.286 284.112 185.286L255.305 166.194L253.501 165.462C253.496 165.467 292.389 150.857 300.72 155.44Z" fill="#011727"/>
<path d="M269.895 175.84C269.906 175.856 270.175 175.673 270.643 175.334C271.117 174.989 271.791 174.483 272.614 173.847C274.262 172.571 276.508 170.767 278.921 168.694C281.333 166.62 283.461 164.676 284.969 163.238C285.723 162.522 286.326 161.93 286.735 161.515C287.144 161.1 287.365 160.863 287.349 160.852C287.333 160.836 287.09 161.046 286.654 161.434C286.186 161.859 285.566 162.414 284.823 163.087C283.278 164.482 281.134 166.405 278.722 168.473C276.309 170.541 274.09 172.372 272.474 173.686C271.699 174.321 271.053 174.844 270.563 175.248C270.126 175.614 269.884 175.824 269.895 175.84Z" fill="#455A64"/>
<path d="M292.588 159.441C292.599 159.371 291.312 159.242 289.815 159.694C288.307 160.131 287.3 160.939 287.348 160.992C287.397 161.068 288.447 160.4 289.901 159.98C291.344 159.538 292.588 159.528 292.588 159.441Z" fill="#455A64"/>
<path d="M290.106 157.757C290.079 157.687 289.158 158.096 288.398 159.044C287.634 159.986 287.429 160.972 287.504 160.983C287.591 161.009 287.903 160.115 288.63 159.227C289.341 158.328 290.154 157.832 290.106 157.757Z" fill="#455A64"/>
<path d="M302.304 191.619C302.32 191.587 301.959 191.517 301.56 191.845C301.167 192.158 300.833 192.788 300.726 193.515C300.618 194.253 300.78 194.931 300.99 195.357C301.194 195.793 301.415 195.997 301.442 195.981C301.48 195.954 301.324 195.712 301.184 195.281C301.038 194.856 300.92 194.231 301.017 193.558C301.113 192.885 301.388 192.303 301.701 191.996C302.007 191.678 302.309 191.662 302.304 191.619Z" fill="#011727"/>
<path d="M294.096 137.97L283.832 163.981L239.65 164.703L238.836 162.312L254.319 161.752L261.762 138.675L294.096 137.97Z" fill="#455A64"/>
<path d="M273.46 149.231C274.025 148.849 275.075 149 275.587 149.457C276.099 149.915 276.26 150.707 276.002 151.342C275.743 151.978 275.092 152.419 274.408 152.457C273.681 152.495 272.921 152.042 272.722 151.342C272.517 150.642 272.744 149.603 273.46 149.231Z" fill="#EBEBEB"/>
<path d="M286.837 186.584C286.837 186.584 246.134 159.883 244.464 159.328C242.8 158.774 238.772 156.135 234.744 157.244C230.715 158.353 227.107 161.967 225.298 167.245C224.264 170.261 223.779 175.404 223.553 179.265C223.278 183.88 224.705 188.479 227.727 191.98C229.1 193.574 230.791 194.958 232.8 195.583C233.225 195.712 233.661 195.831 234.114 195.927C241.809 197.597 249.721 194.14 254.04 187.559L254.987 186.115C254.987 186.115 281.613 195.895 282.033 195.761L286.837 186.584Z" fill="#011727"/>
<path d="M236.483 179.238C236.483 179.238 236.558 179.276 236.704 179.335C236.865 179.4 237.086 179.486 237.371 179.599C237.975 179.83 238.836 180.164 239.951 180.59C242.213 181.441 245.482 182.674 249.543 184.203C253.614 185.722 258.498 187.532 263.97 189.524C269.447 191.517 275.511 193.698 281.995 195.895L282.113 195.933L282.173 195.82C283.191 193.876 284.262 191.829 285.35 189.745C285.905 188.684 286.454 187.629 286.971 186.648L287.036 186.53L286.923 186.46C274.698 178.699 263.765 171.758 255.876 166.749C251.934 164.261 248.756 162.258 246.548 160.868C245.455 160.184 244.604 159.657 244.017 159.285C243.737 159.113 243.516 158.978 243.355 158.881C243.204 158.79 243.123 158.752 243.123 158.752C243.123 158.752 243.193 158.806 243.339 158.908C243.495 159.01 243.71 159.156 243.985 159.339C244.566 159.716 245.407 160.265 246.489 160.965C248.686 162.376 251.847 164.407 255.768 166.927C263.647 171.957 274.563 178.926 286.766 186.713L286.718 186.524C286.201 187.51 285.652 188.56 285.097 189.621C284.009 191.7 282.937 193.752 281.92 195.696L282.097 195.626C275.619 193.439 269.549 191.264 264.072 189.287C258.601 187.295 253.711 185.517 249.623 184.031C245.552 182.539 242.272 181.333 240.005 180.504C238.885 180.094 238.012 179.777 237.404 179.556C237.113 179.453 236.892 179.373 236.731 179.319C236.564 179.26 236.483 179.238 236.483 179.238Z" fill="#455A64"/>
<path d="M240.705 84.4275C241.4 82.5534 242.935 81.7348 244.879 81.2663C246.823 80.7977 248.988 81.3524 250.463 82.7042C251.449 83.6089 252.171 84.8583 253.393 85.4076C255.402 86.3178 257.971 84.9876 259.872 86.1024C260.997 86.7594 261.552 88.2565 261.121 89.4898C260.69 90.723 259.328 91.5524 258.041 91.3693C259.349 91.9886 259.592 93.9543 258.692 95.0852C257.793 96.2162 256.129 96.5231 254.734 96.13C253.345 95.7369 252.187 94.7675 251.207 93.7066C250.221 92.6456 249.365 91.4716 248.298 90.4915C247.232 89.5113 245.907 88.7251 244.464 88.6712C242.509 88.5958 240.705 89.9152 239.676 91.5793C238.648 93.2434 238.265 95.2199 237.98 97.1586C237.695 99.0974 237.479 101.068 236.731 102.878C236.644 103.088 236.515 103.325 236.294 103.373C235.971 103.443 235.729 103.083 235.6 102.776C234.129 99.3289 233.343 95.5861 233.305 91.8378C233.284 89.6621 233.526 87.621 234.878 85.9193C236.23 84.2175 239.343 83.1458 240.705 84.4275Z" fill="#011727"/>
<path d="M236.117 93.1153L233.122 114.862C232.616 118.561 235.303 121.933 239.019 122.256C242.488 122.557 245.59 120.08 246.058 116.633C246.284 114.996 246.473 113.634 246.505 113.467C246.505 113.467 252.111 113.709 253.264 108.286C253.824 105.663 254.529 100.17 255.111 95.1995C255.736 89.8572 252.149 84.9295 246.871 83.874L246.349 83.7717C240.635 82.9585 236.757 87.3691 236.117 93.1153Z" fill="#FFBE9D"/>
<path d="M246.532 113.386C246.532 113.386 243.043 112.976 239.849 109.955C239.849 109.955 240.743 114.204 246.269 114.797L246.532 113.386Z" fill="#EB996E"/>
<path d="M252.806 98.5112C252.742 98.9258 252.333 99.2059 251.902 99.1466C251.471 99.082 251.175 98.6997 251.239 98.285C251.309 97.8703 251.713 97.5903 252.144 97.6495C252.58 97.7141 252.876 98.1019 252.806 98.5112Z" fill="#011727"/>
<path d="M253.421 97.6231C253.303 97.7039 252.802 97.1546 251.967 96.9876C251.132 96.8099 250.438 97.1169 250.368 96.9984C250.33 96.9445 250.464 96.783 250.771 96.6376C251.073 96.4975 251.558 96.3952 252.08 96.5029C252.602 96.6106 253.001 96.8907 253.211 97.133C253.426 97.3861 253.475 97.5854 253.421 97.6231Z" fill="#011727"/>
<path d="M244.556 97.1586C244.486 97.5733 244.083 97.8533 243.652 97.7941C243.221 97.7295 242.925 97.3471 242.989 96.9324C243.059 96.5178 243.463 96.2377 243.894 96.297C244.33 96.3616 244.626 96.744 244.556 97.1586Z" fill="#011727"/>
<path d="M245.175 96.1358C245.057 96.2166 244.556 95.6673 243.721 95.5003C242.887 95.3226 242.192 95.6296 242.122 95.5111C242.084 95.4572 242.219 95.2957 242.526 95.1503C242.827 95.0102 243.312 94.9079 243.834 95.0156C244.357 95.1233 244.755 95.4034 244.965 95.6457C245.181 95.8988 245.229 96.1035 245.175 96.1358Z" fill="#011727"/>
<path d="M246.969 102.939C246.975 102.891 247.513 102.907 248.375 102.966C248.59 102.988 248.806 102.982 248.87 102.848C248.951 102.702 248.908 102.455 248.854 102.185C248.757 101.631 248.655 101.044 248.547 100.435C248.133 97.9469 247.879 95.9166 247.982 95.9005C248.084 95.8843 248.499 97.8877 248.913 100.376C249.01 100.99 249.102 101.571 249.193 102.131C249.226 102.39 249.312 102.691 249.134 102.993C249.043 103.138 248.865 103.225 248.72 103.235C248.574 103.252 248.456 103.23 248.348 103.214C247.492 103.09 246.964 102.988 246.969 102.939Z" fill="#011727"/>
<path d="M244.395 103.03C244.535 103.051 244.352 103.956 244.998 104.753C245.645 105.556 246.63 105.647 246.614 105.771C246.614 105.83 246.361 105.906 245.951 105.836C245.548 105.771 244.988 105.523 244.594 105.033C244.201 104.543 244.099 103.978 244.147 103.601C244.19 103.213 244.336 103.008 244.395 103.03Z" fill="#011727"/>
<path d="M246.042 92.9044C245.913 93.1144 245.1 92.8398 244.098 92.7644C243.096 92.6674 242.245 92.7967 242.159 92.5651C242.122 92.4574 242.299 92.2689 242.665 92.1127C243.026 91.9566 243.576 91.8489 244.173 91.9027C244.777 91.9566 245.294 92.1558 245.622 92.3712C245.956 92.592 246.101 92.8075 246.042 92.9044Z" fill="#011727"/>
<path d="M253.593 95.1454C253.41 95.307 252.871 94.9946 252.182 94.8438C251.498 94.6715 250.879 94.7146 250.782 94.4884C250.744 94.3807 250.873 94.2084 251.164 94.0791C251.45 93.9499 251.902 93.8906 252.376 93.9983C252.85 94.106 253.227 94.3645 253.426 94.6069C253.636 94.8546 253.679 95.0646 253.593 95.1454Z" fill="#011727"/>
<path d="M235.756 97.2299C235.67 97.1707 232.239 95.3773 231.614 99.1202C230.99 102.863 234.873 102.718 234.9 102.61C234.926 102.502 235.756 97.2299 235.756 97.2299Z" fill="#FFBE9D"/>
<path d="M233.995 101C233.979 100.984 233.92 101.032 233.801 101.064C233.688 101.097 233.494 101.097 233.311 100.994C232.94 100.784 232.713 100.1 232.805 99.4218C232.853 99.0771 232.977 98.7648 233.144 98.517C233.306 98.2639 233.51 98.1023 233.72 98.097C233.925 98.0862 234.049 98.2262 234.076 98.3393C234.108 98.4524 234.07 98.5224 234.092 98.5332C234.103 98.544 234.184 98.4847 234.178 98.3232C234.173 98.2478 234.146 98.1508 234.07 98.0647C233.995 97.9785 233.866 97.9192 233.726 97.9085C233.435 97.8816 233.128 98.1023 232.95 98.377C232.751 98.6463 232.606 98.9963 232.552 99.3841C232.449 100.143 232.719 100.914 233.23 101.156C233.483 101.269 233.715 101.226 233.844 101.156C233.974 101.091 234.006 101.01 233.995 101Z" fill="#EB996E"/>
<path d="M256.495 94.2876C253.975 94.4492 251.4 93.3021 249.833 91.3203C248.735 89.9362 248.035 88.1159 246.478 87.2758C245.433 86.7103 244.141 86.705 243.01 87.0604C241.874 87.4212 240.877 88.1159 239.978 88.9022C240.479 91.875 239.154 94.8208 237.867 97.5458C237.727 97.8474 237.56 98.1705 237.264 98.3159C236.758 98.5636 236.149 98.1705 235.847 97.6912C235.363 96.9265 235.303 95.9732 235.325 95.0685C235.368 93.0059 235.729 90.9325 236.564 89.0476C237.404 87.1627 238.734 85.4717 240.473 84.3623C242.649 82.9783 245.396 82.5851 247.916 83.1291C250.436 83.673 252.725 85.1163 254.438 87.0442C255.235 87.9382 255.924 88.9668 256.193 90.1301" fill="#011727"/>
<path d="M105.779 182.018C105.774 182.013 105.806 181.937 105.876 181.792C105.952 181.63 106.054 181.415 106.183 181.14C106.442 180.564 106.781 179.697 107.077 178.534C107.67 176.218 107.88 172.68 107.002 168.474C106.592 166.368 105.935 164.112 105.138 161.721C104.347 159.324 103.431 156.777 102.683 154.03C101.939 151.289 101.358 148.311 101.471 145.187C101.584 142.058 102.51 138.935 103.528 135.828C104.546 132.715 105.596 129.672 105.908 126.613C106.264 123.56 105.612 120.56 104.217 118.099C102.871 115.616 101.175 113.489 99.9038 111.292C98.6166 109.1 97.8088 106.843 97.3134 104.748C96.3494 100.521 96.6887 96.9557 97.1464 94.6077C97.6473 92.2489 98.202 91.0264 98.202 91.0264C98.2074 91.0264 98.1858 91.1071 98.1373 91.2633C98.0835 91.4303 98.0135 91.6618 97.9219 91.9473C97.7334 92.5504 97.4911 93.4498 97.2649 94.6292C96.8448 96.9719 96.5433 100.51 97.5288 104.695C98.035 106.768 98.8428 108.992 100.13 111.157C101.396 113.333 103.097 115.444 104.476 117.959C105.898 120.441 106.582 123.538 106.221 126.645C105.903 129.758 104.842 132.823 103.83 135.93C102.812 139.037 101.896 142.123 101.778 145.198C101.665 148.273 102.23 151.219 102.963 153.949C103.7 156.685 104.605 159.233 105.386 161.634C106.178 164.036 106.824 166.309 107.223 168.431C108.079 172.664 107.831 176.24 107.196 178.561C106.872 179.724 106.517 180.591 106.237 181.162C106.097 181.431 105.984 181.641 105.903 181.803C105.828 181.948 105.785 182.018 105.779 182.018Z" fill="#011727"/>
<path d="M101.627 113.462C101.627 113.462 99.0476 105.222 103.674 100.397C103.835 100.23 104.121 100.305 104.164 100.537C104.412 101.899 104.718 106.046 101.627 113.462Z" fill="#FF2D3B"/>
<path d="M103.173 103.143C103.216 103.154 103.141 103.73 103.001 104.661C102.834 105.706 102.635 106.939 102.414 108.297C102.198 109.654 102.005 110.887 101.838 111.932C101.698 112.863 101.611 113.44 101.563 113.434C101.52 113.429 101.525 112.847 101.611 111.905C101.698 110.962 101.865 109.67 102.096 108.248C102.328 106.826 102.575 105.545 102.78 104.624C102.974 103.697 103.13 103.132 103.173 103.143Z" fill="#011727"/>
<path d="M104.654 132.903C104.654 132.903 106.232 124.41 112.576 122.31C112.797 122.234 113.012 122.439 112.942 122.665C112.522 123.979 110.858 127.787 104.654 132.903Z" fill="#FF2D3B"/>
<path d="M110.848 124.501C110.88 124.528 110.546 125.007 109.981 125.767C109.34 126.612 108.591 127.609 107.762 128.707C106.938 129.806 106.189 130.802 105.554 131.653C104.994 132.412 104.649 132.881 104.611 132.854C104.574 132.832 104.854 132.315 105.371 131.524C105.888 130.732 106.642 129.666 107.509 128.519C108.381 127.372 109.2 126.354 109.808 125.632C110.411 124.9 110.81 124.474 110.848 124.501Z" fill="#011727"/>
<path d="M102.942 154.201C102.942 154.201 101.984 145.617 107.444 141.766C107.638 141.632 107.902 141.766 107.897 141.998C107.881 143.377 107.391 147.507 102.942 154.201Z" fill="#FF2D3B"/>
<path d="M106.426 144.362C106.469 144.378 106.286 144.933 105.968 145.821C105.602 146.817 105.171 147.986 104.697 149.279C104.229 150.571 103.798 151.74 103.437 152.736C103.12 153.625 102.926 154.174 102.883 154.163C102.845 154.152 102.958 153.576 103.222 152.666C103.486 151.756 103.895 150.517 104.396 149.165C104.897 147.814 105.381 146.602 105.758 145.735C106.125 144.868 106.383 144.346 106.426 144.362Z" fill="#011727"/>
<path d="M107.719 175.625C107.719 175.625 107.067 167.014 112.663 163.357C112.857 163.228 113.121 163.373 113.11 163.605C113.04 164.983 112.404 169.092 107.719 175.625Z" fill="#FF2D3B"/>
<path d="M111.553 165.92C111.596 165.936 111.392 166.485 111.042 167.363C110.638 168.343 110.169 169.495 109.647 170.772C109.13 172.048 108.661 173.201 108.263 174.181C107.913 175.053 107.703 175.597 107.66 175.586C107.622 175.576 107.756 175.005 108.053 174.105C108.349 173.206 108.801 171.984 109.351 170.648C109.9 169.318 110.428 168.122 110.832 167.271C111.235 166.415 111.515 165.898 111.553 165.92Z" fill="#011727"/>
<path d="M97.9222 106.224C97.9222 106.224 90.2695 102.228 90.1187 95.5444C90.1133 95.3074 90.3718 95.162 90.5657 95.2967C91.702 96.0829 94.8525 98.7918 97.9222 106.224Z" fill="#FF2D3B"/>
<path d="M91.7079 97.838C91.7456 97.8111 92.101 98.2742 92.6611 99.0336C93.2804 99.8953 94.0128 100.902 94.8206 102.017C95.6284 103.132 96.3608 104.134 96.9856 104.995C97.5456 105.755 97.8957 106.218 97.858 106.25C97.8257 106.277 97.4164 105.862 96.8078 105.135C96.1993 104.408 95.4022 103.38 94.5621 102.206C93.722 101.037 92.9896 99.9545 92.478 99.1628C91.961 98.3712 91.6702 97.865 91.7079 97.838Z" fill="#011727"/>
<path d="M106.14 123.919C106.14 123.919 98.2562 120.392 97.7015 113.735C97.6799 113.504 97.9331 113.342 98.1323 113.461C99.3171 114.177 102.629 116.692 106.14 123.919Z" fill="#FF2D3B"/>
<path d="M99.4297 115.933C99.4674 115.906 99.8498 116.347 100.453 117.069C101.126 117.888 101.918 118.852 102.79 119.918C103.668 120.979 104.46 121.938 105.133 122.756C105.736 123.478 106.113 123.925 106.081 123.957C106.048 123.984 105.612 123.596 104.966 122.907C104.314 122.218 103.458 121.237 102.542 120.123C101.632 119.008 100.835 117.974 100.275 117.209C99.7152 116.444 99.392 115.96 99.4297 115.933Z" fill="#011727"/>
<path d="M101.606 143.662C101.606 143.662 96.1933 136.936 98.7298 130.753C98.8214 130.538 99.1122 130.506 99.2361 130.705C99.9685 131.884 101.773 135.627 101.606 143.662Z" fill="#FF2D3B"/>
<path d="M99.269 133.495C99.3121 133.49 99.4575 134.055 99.6621 134.976C99.8883 136.016 100.152 137.233 100.443 138.574C100.739 139.915 101.008 141.132 101.235 142.166C101.445 143.081 101.574 143.652 101.531 143.668C101.493 143.679 101.278 143.135 101.014 142.225C100.75 141.315 100.432 140.049 100.125 138.644C99.8237 137.233 99.5867 135.951 99.436 135.019C99.2905 134.082 99.2259 133.501 99.269 133.495Z" fill="#011727"/>
<path d="M106.969 166.896C106.969 166.896 99.1445 163.24 98.7029 156.572C98.6867 156.341 98.9398 156.179 99.1391 156.309C100.308 157.041 103.577 159.61 106.969 166.896Z" fill="#FF2D3B"/>
<path d="M100.389 158.796C100.426 158.769 100.803 159.216 101.396 159.949C102.053 160.778 102.828 161.758 103.684 162.835C104.541 163.912 105.316 164.882 105.979 165.711C106.571 166.443 106.937 166.896 106.905 166.928C106.873 166.955 106.442 166.556 105.806 165.862C105.171 165.162 104.325 164.165 103.431 163.034C102.537 161.903 101.762 160.859 101.218 160.083C100.669 159.318 100.356 158.823 100.389 158.796Z" fill="#011727"/>
<path d="M122.55 132.945C122.555 132.945 122.561 133.01 122.561 133.134C122.555 133.285 122.55 133.468 122.544 133.689C122.523 134.206 122.491 134.906 122.453 135.783C122.35 137.625 122.21 140.189 122.044 143.258V143.264V143.275C121.483 146.398 119.895 149.861 117.757 153.227C116.19 155.704 114.547 157.955 113.125 160.05C111.698 162.14 110.492 164.073 109.657 165.786C108.812 167.498 108.321 168.968 108.036 169.997C107.896 170.514 107.794 170.912 107.734 171.192C107.67 171.467 107.632 171.613 107.621 171.607C107.611 171.607 107.627 171.456 107.67 171.176C107.708 170.896 107.794 170.487 107.912 169.965C108.165 168.92 108.628 167.428 109.452 165.689C110.271 163.949 111.467 161.989 112.883 159.883C114.289 157.772 115.926 155.521 117.487 153.054C119.615 149.71 121.198 146.296 121.774 143.221V143.237C121.99 140.167 122.167 137.604 122.297 135.767C122.367 134.895 122.426 134.195 122.464 133.678C122.485 133.457 122.501 133.279 122.517 133.128C122.528 133.01 122.544 132.945 122.55 132.945Z" fill="#011727"/>
<path d="M117.891 152.587C117.891 152.587 121.203 144.611 117.034 139.388C116.889 139.204 116.598 139.258 116.533 139.484C116.167 140.82 115.483 144.918 117.891 152.587Z" fill="#FF2D3B"/>
<path d="M117.288 142.165C117.331 142.16 117.433 142.736 117.551 143.673C117.67 144.61 117.799 145.908 117.902 147.346C118.004 148.784 118.052 150.087 118.052 151.035C118.052 151.983 118.004 152.564 117.961 152.564C117.912 152.564 117.88 151.983 117.826 151.04C117.756 149.985 117.67 148.741 117.578 147.367C117.481 145.994 117.395 144.75 117.32 143.695C117.266 142.757 117.244 142.17 117.288 142.165Z" fill="#011727"/>
<g opacity="0.3">
<g opacity="0.3">
<path opacity="0.3" d="M117.891 152.587C117.891 152.587 121.203 144.611 117.034 139.388C116.889 139.204 116.598 139.258 116.533 139.484C116.167 140.82 115.483 144.918 117.891 152.587Z" fill="#011727"/>
</g>
</g>
<path d="M107.632 171.801C107.632 171.801 110.287 163.583 105.709 158.715C105.547 158.543 105.262 158.623 105.219 158.849C104.955 160.212 104.61 164.353 107.632 171.801Z" fill="#FF2D3B"/>
<path d="M106.183 161.468C106.226 161.457 106.377 162.028 106.565 162.949C106.759 163.875 106.996 165.157 107.212 166.579C107.433 168 107.583 169.298 107.664 170.241C107.74 171.183 107.74 171.77 107.696 171.776C107.648 171.781 107.573 171.199 107.438 170.268C107.282 169.218 107.099 167.99 106.894 166.627C106.689 165.265 106.501 164.037 106.339 162.987C106.21 162.055 106.14 161.479 106.183 161.468Z" fill="#011727"/>
<g opacity="0.3">
<g opacity="0.3">
<path opacity="0.3" d="M107.632 171.801C107.632 171.801 110.287 163.583 105.709 158.715C105.547 158.543 105.262 158.623 105.219 158.849C104.955 160.212 104.61 164.353 107.632 171.801Z" fill="#011727"/>
</g>
</g>
<path d="M122.108 142.84C122.108 142.84 129.184 137.885 128.468 131.245C128.441 131.013 128.166 130.9 127.994 131.057C126.971 131.983 124.192 135.079 122.108 142.84Z" fill="#FF2D3B"/>
<g opacity="0.3">
<g opacity="0.3">
<path opacity="0.3" d="M122.108 142.84C122.108 142.84 129.184 137.885 128.468 131.245C128.441 131.013 128.166 130.9 127.994 131.057C126.971 131.983 124.192 135.079 122.108 142.84Z" fill="#011727"/>
</g>
</g>
<path d="M127.192 133.728C127.23 133.75 127.009 134.288 126.605 135.145C126.201 135.995 125.614 137.164 124.93 138.43C124.246 139.701 123.589 140.826 123.077 141.623C122.566 142.42 122.216 142.889 122.178 142.862C122.14 142.835 122.426 142.329 122.878 141.505C123.384 140.573 123.982 139.48 124.639 138.273C125.296 137.062 125.889 135.969 126.395 135.037C126.858 134.213 127.149 133.707 127.192 133.728Z" fill="#011727"/>
<path d="M110.481 163.659C110.481 163.659 119.011 162.329 121.3 156.05C121.381 155.829 121.182 155.608 120.956 155.673C119.625 156.05 115.769 157.606 110.481 163.659Z" fill="#FF2D3B"/>
<g opacity="0.3">
<g opacity="0.3">
<path opacity="0.3" d="M110.481 163.659C110.481 163.659 119.011 162.329 121.3 156.05C121.381 155.829 121.182 155.608 120.956 155.673C119.625 156.05 115.769 157.606 110.481 163.659Z" fill="#011727"/>
</g>
</g>
<path d="M119.06 157.706C119.087 157.744 118.651 158.126 117.907 158.719C117.17 159.306 116.13 160.097 114.956 160.932C113.782 161.772 112.694 162.494 111.887 162.984C111.079 163.474 110.556 163.738 110.535 163.7C110.513 163.657 110.993 163.329 111.763 162.79C112.63 162.176 113.648 161.46 114.768 160.668C115.888 159.871 116.906 159.15 117.767 158.536C118.543 157.997 119.033 157.674 119.06 157.706Z" fill="#011727"/>
<path d="M102.344 179.357L99.8555 196.111H115.365L113.351 179.357H102.344Z" fill="#455A64"/>
<path d="M113.976 184.55C113.976 184.642 111.176 184.712 107.724 184.712C104.266 184.712 101.471 184.642 101.471 184.55C101.471 184.459 104.272 184.389 107.724 184.389C111.176 184.389 113.976 184.464 113.976 184.55Z" fill="#011727"/>
<path d="M114.283 185.884C114.283 185.976 111.391 186.046 107.826 186.046C104.255 186.046 101.369 185.976 101.369 185.884C101.369 185.793 104.261 185.723 107.826 185.723C111.391 185.723 114.283 185.793 114.283 185.884Z" fill="#011727"/>
<path opacity="0.3" d="M267.007 71.9397H292.857C296.252 71.9397 299.1 69.2889 299.1 65.8649C299.1 65.7545 299.1 65.7545 299.1 65.644C299.1 60.3424 294.938 56.0349 289.68 55.9244C288.804 55.9244 287.928 56.0349 287.051 56.2558C286.285 52.5005 282.889 49.7393 279.055 49.7393C274.893 49.7393 271.497 52.7214 270.95 56.6976C270.183 56.4767 269.307 56.3662 268.43 56.3662C263.94 56.5871 260.434 60.232 260.544 64.7604C260.544 66.3067 260.982 67.6321 261.639 68.8471C262.735 70.7247 264.816 71.9397 267.007 71.9397Z" fill="#F83633"/>
<path opacity="0.15" d="M64.158 37.2479H106.629C112.208 37.2479 116.887 32.8798 116.887 27.2377C116.887 27.0557 116.887 27.0557 116.887 26.8737C116.887 18.1375 110.048 11.0393 101.41 10.8573C99.9705 10.8573 98.5308 11.0393 97.0911 11.4033C95.8314 5.21515 90.2525 0.665039 83.9539 0.665039C77.1153 0.665039 71.5365 5.57916 70.6367 12.1313C69.3769 11.7673 67.9372 11.5853 66.4975 11.5853C59.1191 11.9493 53.3603 17.9555 53.5402 25.4176C53.5402 27.9657 54.2601 30.1497 55.3399 32.1518C57.1395 35.2459 60.5588 37.2479 64.158 37.2479Z" fill="#F83633"/>
</svg>
