<svg width="88" height="87" viewBox="0 0 88 87" fill="none" xmlns="http://www.w3.org/2000/svg">
<g filter="url(#filter0_d)">
<rect x="18.3749" y="14" width="51.117" height="51.117" rx="8.60606" fill="#FED7D6"/>
</g>
<path d="M56.4103 31.5334C56.3941 30.6917 56.3792 29.8972 56.3792 29.1286C56.3792 28.5261 55.8912 28.038 55.2887 28.038C50.6245 28.038 47.0729 26.6973 44.1128 23.8193C43.9014 23.613 43.6273 23.5103 43.3532 23.5103C43.0785 23.5103 42.8044 23.613 42.5923 23.8193C39.6322 26.6973 36.0819 28.038 31.4178 28.038C30.8159 28.038 30.3272 28.5261 30.3272 29.1286C30.3272 29.8972 30.3123 30.6923 30.2962 31.534C30.1468 39.3626 29.9419 50.0846 42.9957 54.6091C43.1114 54.6492 43.2317 54.6693 43.3526 54.6693H43.3532C43.4741 54.6693 43.5943 54.6492 43.7094 54.6091C56.7645 50.0846 56.5596 39.3619 56.4103 31.5334Z" fill="#FF2D3B"/>
<path d="M50.0246 36.5083V40.3786C50.0246 40.7354 49.7356 41.025 49.3781 41.025H45.935V44.4687C45.935 44.8255 45.6454 45.1152 45.2886 45.1152H41.4183C41.0614 45.1152 40.7718 44.8255 40.7718 44.4687V41.025H37.3281C36.9706 41.025 36.6817 40.7354 36.6817 40.3786V36.5083C36.6817 36.1514 36.9706 35.8618 37.3281 35.8618H40.7718V32.4182C40.7718 32.0613 41.0614 31.7717 41.4183 31.7717H45.2886C45.6455 31.7717 45.9351 32.0613 45.9351 32.4182V35.8618H49.3782C49.7356 35.8618 50.0246 36.1514 50.0246 36.5083Z" fill="#FED7D6"/>
<defs>
<filter id="filter0_d" x="0.784908" y="0.41" width="86.297" height="86.297" filterUnits="userSpaceOnUse" color-interpolation-filters="sRGB">
<feFlood flood-opacity="0" result="BackgroundImageFix"/>
<feColorMatrix in="SourceAlpha" type="matrix" values="0 0 0 0 0 0 0 0 0 0 0 0 0 0 0 0 0 0 127 0"/>
<feOffset dy="4"/>
<feGaussianBlur stdDeviation="8.795"/>
<feColorMatrix type="matrix" values="0 0 0 0 0 0 0 0 0 0 0 0 0 0 0 0 0 0 0.0524 0"/>
<feBlend mode="normal" in2="BackgroundImageFix" result="effect1_dropShadow"/>
<feBlend mode="normal" in="SourceGraphic" in2="effect1_dropShadow" result="shape"/>
</filter>
</defs>
</svg>
