<svg width="53" height="53" viewBox="0 0 53 53" fill="none" xmlns="http://www.w3.org/2000/svg">
<rect x="0.549957" y="1" width="51.117" height="51.117" rx="8" fill="white" stroke="#D8D8D8"/>
<path d="M26.2651 26.2552C29.6751 26.2552 32.4397 23.1772 32.4397 19.3803C32.4397 15.5833 31.532 12.5054 26.2651 12.5054C20.9981 12.5054 20.0903 15.5833 20.0903 19.3803C20.0903 23.1772 22.8549 26.2552 26.2651 26.2552Z" fill="#4A2DFF"/>
<path d="M14.6041 36.7533C14.603 36.5217 14.602 36.688 14.6041 36.7533V36.7533Z" fill="#4A2DFF"/>
<path d="M37.9291 36.9325C37.9324 36.8691 37.9302 36.4927 37.9291 36.9325V36.9325Z" fill="#4A2DFF"/>
<path d="M37.9146 36.4742C37.8003 29.8599 36.8579 27.9752 29.6466 26.7822C29.6466 26.7822 28.6315 27.9679 26.2655 27.9679C23.8995 27.9679 22.8843 26.7822 22.8843 26.7822C15.7517 27.9622 14.752 29.819 14.6206 36.2593C14.6098 36.7852 14.6048 36.8129 14.6029 36.7518C14.6033 36.8662 14.6038 37.0778 14.6038 37.4467C14.6038 37.4467 16.3207 40.6193 26.2655 40.6193C36.2102 40.6193 37.9272 37.4467 37.9272 37.4467C37.9272 37.2097 37.9274 37.0449 37.9277 36.9327C37.9257 36.9705 37.9219 36.8973 37.9146 36.4742Z" fill="#4A2DFF"/>
</svg>
