<svg width="52" height="52" viewBox="0 0 52 52" fill="none" xmlns="http://www.w3.org/2000/svg">
<rect x="0.274979" width="51.117" height="51.117" rx="8" fill="#FED7D6"/>
<path d="M25.9966 25.251C29.4066 25.251 32.1712 22.173 32.1712 18.3761C32.1712 14.5792 31.2635 11.5012 25.9966 11.5012C20.7296 11.5012 19.8218 14.5792 19.8218 18.3761C19.8218 22.173 22.5864 25.251 25.9966 25.251Z" fill="#FF2D3B"/>
<path d="M37.6461 35.4708C37.543 29.5063 36.7665 27.3878 31.327 26.1543C30.1265 25.882 28.85 26.3956 27.668 26.7395C27.2111 26.8724 26.6566 26.9645 25.997 26.9645C25.3373 26.9645 24.7826 26.8723 24.3257 26.7394C23.1438 26.3955 21.8671 25.8821 20.6667 26.1543C15.2931 27.3729 14.4704 29.4553 14.3521 35.2559C14.3413 35.7818 14.3363 35.8095 14.3344 35.7484C14.3361 36.2045 14.4523 36.6565 14.7876 36.9657C15.7642 37.8663 18.6119 39.6159 25.997 39.6159C33.7406 39.6159 36.4956 37.6923 37.3358 36.8408C37.5727 36.6006 37.6584 36.2667 37.6591 35.9293C37.6572 35.9671 37.6534 35.8939 37.6461 35.4708Z" fill="#FF2D3B"/>
</svg>
