<svg width="53" height="53" viewBox="0 0 53 53" fill="none" xmlns="http://www.w3.org/2000/svg">
<rect x="0.824951" y="1.14917" width="51.117" height="51.117" rx="8" fill="white" stroke="#D8D8D8"/>
<path d="M41.4154 23.5489C41.6014 23.4593 41.7197 23.2711 41.7197 23.0646C41.7197 22.8582 41.6014 22.6699 41.4154 22.5803L29.8496 17.0091C27.6557 15.9522 25.0999 15.9522 22.906 17.009L11.3595 22.571C11.1699 22.6623 11.0494 22.8541 11.0494 23.0646C11.0494 23.275 11.1699 23.4668 11.3595 23.5581L22.906 29.1202C25.0999 30.177 27.6558 30.177 29.8497 29.1202L41.4154 23.5489Z" fill="#011727"/>
<path d="M19.2122 28.6881C17.8912 28.0518 16.3592 29.0143 16.3592 30.4805C16.3592 31.2447 16.7969 31.9413 17.4853 32.273L24.9009 35.8451C25.3613 36.0669 25.8658 36.1821 26.3769 36.1821C26.8879 36.1821 27.3924 36.0669 27.8528 35.8451L36.3324 31.7604C36.3561 31.749 36.3752 31.7296 36.3856 31.7054C36.3916 31.6915 36.3946 31.6765 36.3946 31.6614V31.1895C36.3946 29.395 34.5196 28.2169 32.9029 28.9957L28.7042 31.0182C27.2335 31.7266 25.5202 31.7266 24.0495 31.0182L19.2122 28.6881Z" fill="#011727"/>
<path d="M40.2889 34.637C40.1657 34.2617 40.1029 33.8691 40.1029 33.4741V26.4634C40.1029 26.0115 39.6266 25.7182 39.2231 25.9217C39.0186 26.0249 38.8896 26.2344 38.8896 26.4634V33.474C38.8896 33.8691 38.8268 34.2617 38.7036 34.637L38.4161 35.513C38.2174 36.1184 38.3261 36.7828 38.7075 37.2933L39.1731 37.9164C39.2493 38.0184 39.369 38.0784 39.4963 38.0784C39.6235 38.0784 39.7433 38.0184 39.8195 37.9164L40.285 37.2933C40.6664 36.7828 40.7751 36.1185 40.5764 35.513L40.2889 34.637Z" fill="#011727"/>
</svg>
