<?xml version="1.0" encoding="UTF-8" standalone="no"?>
<!DOCTYPE svg PUBLIC "-//W3C//DTD SVG 1.1//EN" "http://www.w3.org/Graphics/SVG/1.1/DTD/svg11.dtd">
<svg width="100%" height="100%" viewBox="0 0 203 63" version="1.1" xmlns="http://www.w3.org/2000/svg" xmlns:xlink="http://www.w3.org/1999/xlink" xml:space="preserve" xmlns:serif="http://www.serif.com/" style="fill-rule:evenodd;clip-rule:evenodd;stroke-linejoin:round;stroke-miterlimit:2;">
    <g id="UI-Examples">
        <g id="Prism-UI---Info-Panels">
            <g id="Group-23-Copy">
                <path id="Fill-1" d="M0,39.099L5.256,42.128L0,45.158L0,63.013L5.257,59.983L5.257,3.246L0,0.216L0,39.099Z" style="fill:white;"/>
                <path id="Fill-2" d="M10.514,56.954L15.771,53.924L15.771,9.305L10.514,6.276L10.514,56.954Z" style="fill:white;"/>
                <path id="Fill-3" d="M21.028,50.894L26.285,47.864L26.285,15.365L21.028,12.335L21.028,50.894Z" style="fill:white;"/>
                <path id="Fill-4" d="M31.541,44.834L36.798,47.84L36.798,15.389L31.541,18.419L31.541,44.834Z" style="fill:white;"/>
                <path id="Fill-5" d="M47.312,53.9L47.312,42.128L42.055,39.099L42.055,50.894L47.312,53.9Z" style="fill:white;"/>
                <path id="Fill-6" d="M47.312,9.329L42.055,12.335L42.055,39.099L47.312,36.068L47.312,9.329Z" style="fill:white;"/>
                <path id="Fill-7" d="M104.98,9.34L98.303,9.34L98.303,10.575L100.973,10.575L100.973,19.985L102.31,19.985L102.31,10.575L104.98,10.575L104.98,9.34Z" style="fill:white;"/>
                <path id="Fill-8" d="M121.918,9.34L120.581,9.34L120.581,19.985L124.588,19.985L124.588,18.749L121.918,18.749L121.918,9.34Z" style="fill:white;"/>
                <path id="Fill-9" d="M85.741,19.75L93.745,19.75L92.974,18.413L88.055,18.413L91.876,11.783L96.468,19.75L98.012,19.75L91.876,9.105L85.741,19.75Z" style="fill:white;"/>
                <path id="Fill-10" d="M105.349,19.985L113.353,19.985L112.582,18.647L107.663,18.647L111.484,12.018L116.076,19.985L117.62,19.985L111.484,9.34L105.349,19.985Z" style="fill:white;"/>
                <path id="Fill-11" d="M138.276,19.985L139.82,19.985L133.684,9.34L127.549,19.985L135.553,19.985L134.782,18.647L129.863,18.647L133.684,12.018L138.276,19.985Z" style="fill:white;"/>
                <g id="Group-22" transform="matrix(1,0,0,1,0,0.02071)">
                    <path id="Fill-12" d="M81.784,17.539C81.483,17.539 81.231,17.644 81.013,17.862C80.795,18.08 80.689,18.329 80.689,18.623C80.689,18.946 80.791,19.206 81.002,19.416C81.213,19.627 81.469,19.73 81.784,19.73C82.093,19.73 82.345,19.627 82.556,19.416C82.774,19.198 82.88,18.942 82.88,18.634C82.88,18.333 82.774,18.081 82.556,17.862C82.338,17.644 82.086,17.539 81.784,17.539" style="fill:white;"/>
                    <path id="Fill-14" d="M63.083,19.964L64.42,19.964L64.42,9.319L63.083,9.319L63.083,19.964Z" style="fill:rgb(228,37,39);"/>
                    <path id="Fill-16" d="M75.76,17.49C74.994,18.26 74.044,18.65 72.935,18.65C71.907,18.65 70.991,18.268 70.21,17.516C69.423,16.76 69.023,15.786 69.023,14.62C69.023,13.507 69.408,12.558 70.168,11.798C70.927,11.03 71.871,10.64 72.972,10.64C74.078,10.64 75.021,11.031 75.773,11.801C76.526,12.564 76.909,13.521 76.909,14.645C76.909,15.756 76.522,16.713 75.76,17.49M72.994,9.319C71.498,9.319 70.252,9.829 69.186,10.877C68.116,11.924 67.597,13.14 67.597,14.595C67.597,16.258 68.165,17.562 69.333,18.583C70.387,19.499 71.59,19.964 72.909,19.964C74.425,19.964 75.683,19.456 76.754,18.412C77.818,17.375 78.335,16.148 78.335,14.659C78.335,13.179 77.819,11.946 76.758,10.889C75.701,9.832 74.47,9.319 72.994,9.319" style="fill:rgb(228,37,39);"/>
                    <path id="Fill-17" d="M68.901,32.743L74.026,32.743C76.418,32.743 78.135,33.22 79.128,34.159C80.125,35.102 80.609,36.468 80.609,38.338C80.609,40.145 80.124,41.49 79.125,42.449C78.131,43.401 76.416,43.884 74.026,43.884L68.901,43.884L68.901,32.743ZM74.402,27.632L63.083,27.632L63.083,62.375L68.901,62.375L68.901,48.996L74.402,48.996C78.252,48.996 81.26,48.051 83.345,46.186C85.453,44.298 86.521,41.657 86.521,38.338C86.521,35.054 85.488,32.417 83.453,30.501C81.431,28.597 78.385,27.632 74.402,27.632Z" style="fill:rgb(248,54,51);"/>
                    <path id="Fill-18" d="M111.009,38.526C111.009,42.374 108.932,44.168 104.472,44.168L98.972,44.168L98.972,32.884L104.472,32.884C108.932,32.884 111.009,34.677 111.009,38.526M114.459,45.331C116.093,43.545 116.921,41.176 116.921,38.29C116.921,35.105 115.891,32.501 113.859,30.554C111.837,28.615 108.806,27.632 104.849,27.632L93.154,27.632L93.154,62.375L98.972,62.375L98.972,48.807L102.451,48.807L111.12,62.375L117.814,62.375L108.625,48.45C111.092,47.918 113.052,46.872 114.459,45.331" style="fill:rgb(248,54,51);"/>
                    <path id="Fill-19" d="M123.791,62.375L129.61,62.375L129.61,27.632L123.791,27.632L123.791,62.375Z" style="fill:rgb(248,54,51);"/>
                    <path id="Fill-20" d="M155.549,44.386C154.229,43.748 152.461,43.069 150.292,42.367C148.568,41.812 147.201,41.309 146.228,40.867C145.334,40.463 144.577,39.898 143.977,39.186C143.417,38.523 143.145,37.659 143.145,36.547C143.145,35.133 143.566,34.082 144.433,33.334C145.336,32.555 146.529,32.177 148.08,32.177C149.782,32.177 151.077,32.604 152.038,33.485C153.022,34.384 153.608,35.387 153.829,36.548L153.948,37.17L160.068,37.17L159.958,36.308C159.618,33.67 158.401,31.467 156.341,29.761C154.29,28.067 151.511,27.207 148.08,27.207C145.874,27.207 143.918,27.596 142.268,28.362C140.585,29.146 139.271,30.271 138.363,31.71C137.457,33.145 136.997,34.821 136.997,36.689C136.997,38.856 137.499,40.641 138.487,41.993C139.455,43.318 140.646,44.323 142.024,44.985C143.329,45.615 145.064,46.286 147.19,46.981C148.929,47.529 150.323,48.049 151.335,48.522C152.265,48.96 153.055,49.565 153.686,50.323C154.28,51.036 154.57,51.955 154.57,53.131C154.57,54.503 154.15,55.59 153.286,56.454C152.436,57.304 151.16,57.734 149.493,57.734C148.187,57.734 147.07,57.476 146.174,56.965C145.271,56.451 144.57,55.794 144.091,55.014C143.604,54.222 143.317,53.405 143.234,52.582L143.166,51.894L137.068,51.894L137.142,52.726C137.31,54.648 137.953,56.388 139.052,57.893C140.147,59.391 141.625,60.582 143.445,61.432C145.251,62.277 147.333,62.706 149.634,62.706C152.015,62.706 154.056,62.245 155.704,61.338C157.363,60.425 158.621,59.214 159.442,57.744C160.257,56.283 160.67,54.684 160.67,52.989C160.67,50.729 160.162,48.876 159.16,47.48C158.177,46.107 156.962,45.066 155.549,44.386" style="fill:rgb(248,54,51);"/>
                    <path id="Fill-21" d="M196.437,28.198L185.541,54.401L174.465,28.198L168.057,28.198L168.057,62.375L173.876,62.375L173.876,39.6L183.052,62.375L187.902,62.375L197.031,39.535L197.031,62.375L202.848,62.375L202.848,28.198L196.437,28.198Z" style="fill:rgb(248,54,51);"/>
                </g>
            </g>
        </g>
    </g>
</svg>
