<svg width="125" height="145" viewBox="0 0 125 145" fill="none" xmlns="http://www.w3.org/2000/svg">
<g clip-path="url(#clip0)">
<path d="M62.5417 145C97.0826 145 125.083 140.188 125.083 134.253C125.083 128.318 97.0826 123.506 62.5417 123.506C28.0009 123.506 0 128.318 0 134.253C0 140.188 28.0009 145 62.5417 145Z" fill="#F1F2F8"/>
<path d="M96.5266 72.542H111.807C113.811 72.542 115.481 70.9467 115.481 68.9317C115.481 68.8477 115.481 68.8477 115.481 68.7638C115.481 65.6572 112.976 63.0545 109.887 62.9705C109.386 62.9705 108.801 63.0545 108.3 63.1384C107.799 60.9554 105.879 59.2762 103.541 59.2762C101.119 59.2762 99.1151 61.0394 98.6976 63.3903C98.1966 63.2224 97.6956 63.2224 97.1946 63.2224C94.5226 63.3063 92.5186 65.4893 92.5186 68.176C92.5186 69.0996 92.7691 69.8553 93.1866 70.6109C93.9381 71.8703 95.1906 72.542 96.5266 72.542Z" fill="#FF8189"/>
<path d="M91.0154 17.5478L36.1557 17.4638C31.8972 17.4638 28.3901 20.9902 28.3901 25.2721L28.2231 119.308C28.2231 123.59 31.7302 127.116 35.9887 127.116L90.8484 127.2C95.1069 127.2 98.6139 123.674 98.6139 119.392L98.7809 25.3561C98.7809 21.0741 95.2739 17.6317 91.0154 17.5478Z" fill="#828699"/>
<path d="M90.5145 24.0127H84.5025C84.0015 24.0127 83.5005 24.2646 83.25 24.6844L81.8305 26.8674C80.3275 29.1343 77.906 30.4777 75.234 30.3937L51.9374 30.3098C49.2654 30.3098 46.7604 28.9664 45.3409 26.6995L43.9213 24.5165C43.6708 24.0967 43.1698 23.8448 42.6688 23.8448H36.6568C35.8218 23.8448 35.1538 24.5165 35.1538 25.3561L34.9868 119.056C34.9868 119.896 35.6548 120.567 36.4898 120.567L90.3475 120.651C91.1825 120.651 91.8505 119.98 91.8505 119.14L92.0175 25.4401C92.0175 24.6844 91.3495 24.0127 90.5145 24.0127Z" fill="#F1F2F8"/>
<path d="M14.9465 46.7661H34.6526C37.2411 46.7661 39.4121 44.751 39.4121 42.1482C39.4121 42.0643 39.4121 42.0643 39.4121 41.9803C39.4121 37.9502 36.2391 34.6757 32.2311 34.5918C31.5631 34.5918 30.8951 34.6757 30.2271 34.8437C29.6426 31.989 27.054 29.89 24.1315 29.89C20.9585 29.89 18.37 32.1569 17.9525 35.1795C17.368 35.0116 16.7 34.9276 16.032 34.9276C12.6085 35.0955 9.93647 37.8662 10.02 41.3086C10.02 42.4841 10.354 43.4916 10.855 44.4152C11.69 45.8425 13.2765 46.7661 14.9465 46.7661Z" fill="#FFD5D8"/>
<path d="M68.9714 13.1818H84.2519C86.256 13.1818 87.926 11.5866 87.926 9.57151C87.926 9.48755 87.926 9.48755 87.926 9.40359C87.926 6.29705 85.4209 3.69427 82.3314 3.61031C81.8304 3.61031 81.2459 3.69427 80.7449 3.77823C80.4109 1.67921 78.4069 0 76.0689 0C73.6474 0 71.6434 1.76317 71.2259 4.11407C70.7249 3.94615 70.2239 3.94615 69.7229 3.94615C67.0509 4.03011 65.0469 6.21309 65.0469 8.89983C65.0469 9.82339 65.2974 10.579 65.7149 11.3347C66.3829 12.5101 67.6354 13.1818 68.9714 13.1818Z" fill="#FF8189"/>
<path d="M19.6642 6.59091V10.5455" stroke="#FF2D3B" stroke-width="2.5" stroke-linecap="round" stroke-linejoin="round"/>
<path d="M19.6642 15.8182V19.7727" stroke="#FF2D3B" stroke-width="2.5" stroke-linecap="round" stroke-linejoin="round"/>
<path d="M13.1094 13.1818H17.0422" stroke="#FF2D3B" stroke-width="2.5" stroke-linecap="round" stroke-linejoin="round"/>
<path d="M22.2861 13.1818H26.219" stroke="#FF2D3B" stroke-width="2.5" stroke-linecap="round" stroke-linejoin="round"/>
<path d="M117.331 88.9773V92.9318" stroke="#FF2D3B" stroke-width="2.5" stroke-linecap="round" stroke-linejoin="round"/>
<path d="M117.331 98.2045V102.159" stroke="#FF2D3B" stroke-width="2.5" stroke-linecap="round" stroke-linejoin="round"/>
<path d="M110.776 95.5682H114.709" stroke="#FF2D3B" stroke-width="2.5" stroke-linecap="round" stroke-linejoin="round"/>
<path d="M119.953 95.5682H123.886" stroke="#FF2D3B" stroke-width="2.5" stroke-linecap="round" stroke-linejoin="round"/>
<path d="M78.6296 102.159H48.7176C46.1327 102.159 43.917 99.9315 43.917 97.3322V76.9097C43.917 74.3105 46.1327 72.0826 48.7176 72.0826H78.6296C81.2145 72.0826 83.4302 74.3105 83.4302 76.9097V97.3322C83.0609 99.9315 81.2145 102.159 78.6296 102.159Z" fill="#FF2D3B"/>
<path d="M77.1526 69.1117H73.4598V63.1706C73.4598 57.6008 69.0284 53.145 63.4891 53.145C57.9499 53.145 53.5185 57.6008 53.5185 63.1706V69.1117H49.8257V63.1706C49.8257 55.7442 55.7342 49.4318 63.4891 49.4318C70.8748 49.4318 77.1526 55.3729 77.1526 63.1706V69.1117Z" fill="#FF2D3B"/>
<path d="M67.551 83.2218C67.551 80.9939 65.7046 79.1373 63.4889 79.1373C61.2732 79.1373 59.4268 80.9939 59.4268 83.2218C59.4268 84.7071 60.1653 86.1924 61.6424 86.935L60.1653 95.104H67.1817L65.7046 86.935C66.8124 86.1924 67.551 84.7071 67.551 83.2218Z" fill="white"/>
</g>
<defs>
<clipPath id="clip0">
<rect width="125" height="145" fill="white"/>
</clipPath>
</defs>
</svg>
