<svg width="21" height="20" viewBox="0 0 21 20" fill="none" xmlns="http://www.w3.org/2000/svg">
<path fill-rule="evenodd" clip-rule="evenodd" d="M18.9015 7.30307C18.9525 7.45899 19.3604 7.78801 19.6054 7.98525L19.6069 7.98643C20.2067 8.47116 20.9536 9.07473 20.9536 9.99646C20.9536 10.9267 20.196 11.5486 19.5864 12.0482L19.5739 12.0584C19.3328 12.2567 18.9421 12.5779 18.8911 12.7243C18.8436 12.8791 18.9745 13.3932 19.0534 13.7026L19.0539 13.7045C19.2556 14.4961 19.4842 15.3945 18.9517 16.1206C18.4237 16.8418 17.505 16.9042 16.694 16.9592L16.6891 16.9595C16.3635 16.9811 15.8189 17.0172 15.6812 17.118C15.5433 17.2188 15.3433 17.7079 15.2198 18.01L15.2136 18.025L15.2118 18.0294C14.9066 18.7777 14.5617 19.6233 13.7165 19.9095C12.8591 20.2016 12.0507 19.6902 11.4022 19.2799L11.3968 19.2765C11.1041 19.0904 10.6608 18.8096 10.4764 18.8096C10.2895 18.8096 9.8465 19.0881 9.54781 19.2758L9.5386 19.2816L9.5279 19.2883C8.98864 19.626 8.39136 20 7.74449 20C7.57997 20 7.41111 19.9759 7.24054 19.9199C6.3906 19.647 6.04332 18.7931 5.73689 18.0397L5.7365 18.0387L5.73614 18.0378C5.6123 17.7337 5.40647 17.2281 5.26979 17.1292C5.13724 17.0332 4.62837 16.9978 4.30463 16.9754C4.29423 16.9746 4.28401 16.9739 4.274 16.9732L4.27213 16.9731C3.49921 16.9214 2.5392 16.8572 1.99325 16.1395C1.43373 15.4014 1.67919 14.4622 1.87649 13.7073L1.87723 13.7045C1.95863 13.397 2.09368 12.8819 2.04175 12.7234C1.98892 12.5632 1.59841 12.2402 1.33952 12.0266C0.742953 11.5339 0 10.9198 0 9.99561C0 9.0662 0.756267 8.4455 1.36478 7.94606L1.36645 7.9447L1.37126 7.94075C1.61251 7.74309 2.01103 7.41656 2.06262 7.26855C2.11025 7.11546 1.98084 6.60925 1.90071 6.29583L1.89638 6.2789C1.69376 5.49422 1.46434 4.60533 1.97606 3.8844C2.49701 3.15102 3.42355 3.08861 4.24144 3.03351L4.24294 3.03341C4.57026 3.01187 5.11837 2.97568 5.25518 2.87493C5.39438 2.77319 5.59674 2.27696 5.71996 1.9748L5.72275 1.96796L5.72602 1.95995C6.03088 1.21427 6.37603 0.370058 7.22073 0.0842407C8.08228 -0.206915 8.89968 0.316774 9.55341 0.739706L9.55809 0.742725C9.85422 0.93394 10.2964 1.21947 10.4764 1.21947C10.6627 1.21947 11.1047 0.942505 11.4042 0.754779L11.4159 0.747441L11.4165 0.747074C12.0961 0.319101 12.8683 -0.167185 13.7131 0.107486C14.5626 0.37967 14.9106 1.23412 15.2163 1.98778C15.3401 2.29184 15.547 2.79917 15.6847 2.89821C15.8175 2.99412 16.3344 3.03006 16.6577 3.05254L16.6805 3.05413L16.6825 3.05426C17.458 3.10594 18.4222 3.1702 18.9586 3.89739C19.4977 4.62984 19.2577 5.56013 19.0647 6.30834L19.0643 6.30996C18.9837 6.62005 18.8495 7.14113 18.9015 7.30307Z" fill="#40EAEA"/>
<path d="M14.3487 6.75105C13.9799 6.44442 13.4352 6.49437 13.1296 6.85872L9.2686 11.4505L7.62599 9.81742C7.28742 9.48063 6.74017 9.48063 6.40163 9.81742C6.06306 10.1542 6.06306 10.6986 6.40163 11.0353L8.71357 13.3351C8.87547 13.4979 9.0963 13.5875 9.32577 13.5875C9.33788 13.5875 9.3509 13.5875 9.36301 13.5857C9.60717 13.5754 9.8332 13.4635 9.98904 13.2783L14.4569 7.96379C14.7635 7.59862 14.7159 7.05596 14.3487 6.75105Z" fill="white"/>
</svg>
