<svg width="35" height="45" viewBox="0 0 35 45" fill="none" xmlns="http://www.w3.org/2000/svg">
<path d="M23.0624 6.56937H28.5669C29.2888 6.56937 29.8904 6.01285 29.8904 5.30989C29.8904 5.2806 29.8904 5.2806 29.8904 5.25131C29.8904 4.16758 28.988 3.25959 27.8751 3.2303C27.6946 3.2303 27.484 3.25959 27.3036 3.28888C27.1832 2.55663 26.4914 1.97083 25.6492 1.97083C24.7769 1.97083 24.055 2.58592 23.9046 3.40604C23.7241 3.34746 23.5436 3.34746 23.3632 3.34746C22.4006 3.37675 21.6787 4.13829 21.6787 5.07557C21.6787 5.39776 21.769 5.66137 21.9193 5.92498C22.16 6.33504 22.5811 6.56937 23.0624 6.56937Z" fill="#F8F9F9"/>
<path fill-rule="evenodd" clip-rule="evenodd" d="M23.7914 37.154L16.9496 36.4667V36.4598L16.9161 36.4634L16.8827 36.4598V36.4667L10.0411 37.154L9.19727 43.988L9.41442 44.0146H24.4178L24.6352 43.988L23.7914 37.154" fill="#58556E"/>
<path fill-rule="evenodd" clip-rule="evenodd" d="M23.7602 36.8855L23.7632 36.8531L16.9528 36.1419L16.9495 36.1746H16.9811V36.1314L16.9162 36.1382L16.8862 36.1351L16.8514 36.1314V36.145L10.0443 36.8557L9.19727 43.983L9.44496 44.0144L9.44673 44.0146H24.3858L24.6039 43.9872L24.6352 43.983L23.7885 36.8557L23.7632 36.8531L23.7602 36.8855L23.7289 36.8894L24.5648 43.9259L24.382 43.9492H9.45076L9.26764 43.9259L10.1008 36.9156L16.9145 36.2041V36.1675H16.8829L16.8799 36.2002L16.9132 36.2036L16.9162 36.2039L16.9526 36.2002L16.9495 36.1675H16.918V36.2041L23.7569 36.9182L23.7602 36.8855L23.7289 36.8894L23.7602 36.8855" fill="#293B83"/>
<path fill-rule="evenodd" clip-rule="evenodd" d="M16.8289 40.4014C20.144 40.3109 24.6346 39.4991 24.6346 39.4991L23.62 21.9122C23.6938 21.1412 23.7076 20.7446 22.8862 20.4845C21.755 20.1259 17.1762 18.0747 17.1762 18.0747L17.1116 18.0715V18.0657H16.3543V18.0715L16.2917 18.0747C16.2917 18.0747 11.8695 20.1259 10.7767 20.4845C9.98352 20.7446 10.0112 21.1412 10.0824 21.9122L8.86816 39.4991C8.86816 39.4991 13.4193 40.3096 16.6203 40.4012L16.8289 40.4014" fill="#40EAEA"/>
<path fill-rule="evenodd" clip-rule="evenodd" d="M6.66642 26.9343C6.66642 26.9343 6.05832 30.7745 6.29654 31.1722C6.53476 31.5699 10.4875 32.629 13.1665 31.9888C15.8455 31.3489 19.0514 29.8906 19.0514 29.8906L12.4199 28.129L9.56511 28.3932C9.56511 28.3932 7.54496 27.8227 6.66642 26.9343" fill="#FFB5B1"/>
<mask id="mask0" mask-type="alpha" maskUnits="userSpaceOnUse" x="6" y="26" width="14" height="7">
<path fill-rule="evenodd" clip-rule="evenodd" d="M6.65737 26.8205C6.65737 26.8205 6.04825 30.6434 6.28687 31.0393C6.52548 31.4352 10.4849 32.4896 13.1683 31.8522C15.8518 31.2152 19.063 29.7634 19.063 29.7634L12.4204 28.0098L9.56089 28.2728C9.56089 28.2728 7.53737 27.7048 6.65737 26.8205" fill="white"/>
</mask>
<g mask="url(#mask0)">
<path fill-rule="evenodd" clip-rule="evenodd" d="M11.2402 32.0522C8.90568 32.0522 6.47304 31.347 6.28753 31.0393C6.28118 31.0289 6.27559 31.0162 6.27051 31.0012C7.16016 31.0322 7.94004 31.0461 8.6259 31.0461C13.7174 31.0461 13.5534 30.2757 13.5534 29.9918C13.5534 29.7944 12.4968 29.3009 11.6638 28.9423C13.0739 29.244 15.4357 29.7738 17.8005 30.2996C16.6188 30.7796 14.7968 31.4659 13.169 31.8522C12.5708 31.9942 11.9096 32.0522 11.2402 32.0522" fill="#EB9592"/>
</g>
<path fill-rule="evenodd" clip-rule="evenodd" d="M5.58398 27.2279L9.10564 28.2482L10.5692 27.8369L11.2806 27.1836L15.7665 25.4991L15.7397 18.0657C15.7397 18.0657 9.57487 19.5052 7.7726 21.5376C6.7057 22.7405 5.58398 27.2279 5.58398 27.2279" fill="#40EAEA"/>
<path fill-rule="evenodd" clip-rule="evenodd" d="M9.20771 28.2482L9.19727 28.246C9.19727 28.246 9.59863 25.7065 10.0635 23.9781L10.1827 27.1064C9.68453 27.469 9.35393 27.9867 9.20771 28.2482" fill="#58556E"/>
<path fill-rule="evenodd" clip-rule="evenodd" d="M28.2479 27.2279L24.717 28.2482L23.2496 27.8369L22.5363 27.1836L18.0654 25.4991V18.0657C18.0654 18.0657 24.2465 19.5052 26.0538 21.5376C27.1235 22.7405 28.2479 27.2279 28.2479 27.2279" fill="#40EAEA"/>
<path fill-rule="evenodd" clip-rule="evenodd" d="M24.5021 27.642L23.4336 27.5792L23.4341 27.5698L24.4717 27.4888C24.4823 27.5419 24.4925 27.593 24.5021 27.642M24.3623 26.9536C24.0888 26.9493 23.806 26.9483 23.5826 26.9483C23.5397 26.9483 23.499 26.9483 23.4612 26.9483L23.4635 26.8977L24.3379 26.8382C24.3463 26.8771 24.3544 26.9155 24.3623 26.9536M23.4894 26.2949L23.5956 23.8531C23.8261 24.602 24.0431 25.4968 24.2185 26.2871C24.0081 26.2878 23.7501 26.2911 23.4894 26.2949" fill="#58556E"/>
<path fill-rule="evenodd" clip-rule="evenodd" d="M22.0068 26.6059C22.0068 26.6059 22.4232 25.583 22.5478 25.3615C22.6724 25.14 23.1277 25.4798 22.9527 25.9284C22.7779 26.3774 22.6975 26.5424 22.6975 26.5424L22.0068 26.6059" fill="#E59A98"/>
<path fill-rule="evenodd" clip-rule="evenodd" d="M19.0508 28.4485C19.0508 28.4485 22.0969 26.3065 22.2439 26.3065C22.3906 26.3065 24.567 26.2578 24.7103 26.2863C24.839 26.312 24.8696 26.5417 24.8362 26.6567C24.8161 26.7253 24.7527 26.7738 24.6779 26.7774L23.1901 26.8742V26.9034C23.1901 26.9034 24.5497 26.8929 25.1162 26.9306C25.2368 26.9387 25.3284 27.0359 25.3266 27.1516C25.3249 27.2659 25.2316 27.3595 25.1124 27.3665L23.3996 27.4942L25.438 27.6084L25.6201 28.1677L20.6289 28.9051L19.0508 28.4485" fill="#EEA4A0"/>
<path fill-rule="evenodd" clip-rule="evenodd" d="M26.9329 27.4965C26.9329 27.4965 27.263 29.421 27.263 30.1935C27.263 30.966 25.8934 31.8153 25.2411 31.8608C24.5889 31.9066 11.2515 28.7036 10.5342 28.6423C9.81662 28.5812 9.19727 28.4253 9.19727 28.4253C9.19727 28.4253 9.84927 27.146 11.0558 26.7383C12.2624 26.3305 13.6322 26.9763 14.4472 27.1742C15.2627 27.3718 19.6323 27.9886 21.9148 27.949C24.1976 27.9094 26.9329 27.4965 26.9329 27.4965" fill="#FFB5B1"/>
<mask id="mask1" mask-type="alpha" maskUnits="userSpaceOnUse" x="9" y="26" width="19" height="6">
<path fill-rule="evenodd" clip-rule="evenodd" d="M26.9778 27.5653C26.9778 27.5653 27.3117 29.4557 27.3117 30.2145C27.3117 30.9732 25.926 31.8075 25.2661 31.8522C24.6061 31.8972 11.1116 28.751 10.3859 28.6908C9.65985 28.6308 9.0332 28.4776 9.0332 28.4776C9.0332 28.4776 9.69289 27.221 10.9137 26.8205C12.1344 26.42 13.5204 27.0543 14.345 27.2487C15.1701 27.4428 19.5912 28.0486 21.9006 28.0098C24.2102 27.9709 26.9778 27.5653 26.9778 27.5653" fill="white"/>
</mask>
<g mask="url(#mask1)">
<path fill-rule="evenodd" clip-rule="evenodd" d="M25.2501 31.8527C24.8346 31.853 21.3138 31.0807 17.7999 30.2995C15.4351 29.7738 13.0734 29.244 11.6633 28.9423C10.9685 28.7939 10.505 28.7007 10.3859 28.6907C9.74091 28.6374 9.17424 28.5106 9.05582 28.4831L9.0332 28.4775C9.0332 28.4775 13.6253 28.9776 18.3907 29.8106C23.1564 30.6439 26.9026 30.9915 26.9026 30.9915L26.6261 31.2342C26.1809 31.578 25.6193 31.8283 25.2661 31.8522C25.2615 31.8527 25.2562 31.8527 25.2501 31.8527" fill="#EC9794"/>
</g>
<path fill-rule="evenodd" clip-rule="evenodd" d="M18.7227 2.29928C19.2654 1.87279 18.9167 1.01394 19.5438 1.31388C20.5985 1.81859 23.3194 4.6154 23.706 5.68909C23.8723 6.1507 23.9414 6.64022 23.9697 7.12799C24.0118 7.85042 23.9117 8.68023 23.3047 9.10347C23.2284 9.15678 23.1392 9.20337 23.0453 9.19639C22.8697 9.18369 22.7686 9.00084 22.7114 8.83991C22.5301 8.33047 22.4522 7.79263 22.2988 7.27496C21.8571 5.78625 20.1267 4.59709 19.0511 3.44891L18.7227 2.29928Z" fill="#58556E"/>
<path fill-rule="evenodd" clip-rule="evenodd" d="M19.2383 2.89397C20.5861 2.10622 22.3298 3.88008 22.8213 4.99437C23.0749 5.56945 23.1851 6.20251 23.1881 6.83453C23.1914 7.49047 22.9452 8.66923 22.4984 7.53544C22.126 6.5904 22.0021 5.68852 21.4528 4.80094C20.9582 4.00123 20.331 3.05542 19.5306 2.57003C19.3215 2.44316 19.1352 2.68754 19.2226 2.88669C19.6476 3.85564 20.4814 4.60205 20.979 5.55177C21.4957 6.53841 21.5006 7.70027 21.9918 8.65987C22.6415 9.92859 23.6849 8.66975 23.8811 7.76371C24.2073 6.25841 23.6885 4.50534 22.664 3.40535C21.7319 2.40468 20.1798 1.46796 18.8884 2.27833C18.5082 2.51699 18.8492 3.12145 19.2383 2.89397" fill="#58556E"/>
<path fill-rule="evenodd" clip-rule="evenodd" d="M11.2787 9.19248C10.2047 7.64723 10.2905 5.43669 11.3282 3.86626C12.3659 2.29635 14.2356 1.378 16.107 1.31671C17.1102 1.2839 18.2047 1.52754 18.8372 2.31262C19.0081 2.52498 19.1371 2.83779 18.9798 3.06058C18.9114 3.15722 18.8021 3.2147 18.6954 3.26505C17.6665 3.75106 16.5215 3.90899 15.4129 4.15898C14.304 4.40924 13.1706 4.78359 12.3667 5.59258C11.4531 6.51169 11.0982 7.95445 11.4802 9.19705" fill="#58556E"/>
<path fill-rule="evenodd" clip-rule="evenodd" d="M11.2336 9.09668C9.92061 6.8555 10.6512 4.15172 12.9099 2.78274C13.9126 2.1749 15.1711 1.84371 16.355 1.89698C16.8619 1.9196 17.5669 2.00478 17.9691 2.32667C19.1201 3.24761 17.4832 3.3235 16.8482 3.47402C15.0965 3.88913 13.1895 4.07734 11.8701 5.42044C10.8772 6.43109 10.568 7.98401 10.9132 9.30976C11.0117 9.68794 11.6151 9.52762 11.5166 9.14844C10.4073 4.88747 15.6195 4.96311 18.3418 3.95673C20.6538 3.10237 18.5989 1.33688 17.0638 1.06951C12.5118 0.276219 7.81719 5.25283 10.7826 9.35248C10.9728 9.61557 11.4023 9.3849 11.2336 9.09668" fill="#58556E"/>
<path fill-rule="evenodd" clip-rule="evenodd" d="M21.7866 9.56353C21.7866 9.56353 23.946 8.48669 24.2512 10.0249C24.5563 11.5632 23.5703 13.0792 21.8101 12.2442C20.0495 11.4094 21.7866 9.56353 21.7866 9.56353" fill="#FFB5B1"/>
<path fill-rule="evenodd" clip-rule="evenodd" d="M23.0824 11.8248L23.0194 11.8031C22.9763 11.7691 22.9695 11.7075 23.0044 11.6654C23.4914 11.0744 22.7333 10.4481 22.7007 10.4216L22.6933 10.4127L22.6311 10.4354C22.5794 10.4584 22.4638 10.5441 22.3359 10.8641C22.3491 10.7089 22.361 10.5525 22.3716 10.3948C22.4273 10.3302 22.4863 10.2845 22.5483 10.257C22.667 10.2045 22.7797 10.1825 22.8847 10.1825C23.2512 10.1825 23.5246 10.451 23.6357 10.6317C23.6638 10.6782 23.6486 10.7381 23.6013 10.7658C23.5851 10.7757 23.5671 10.7802 23.5494 10.7802C23.5157 10.7802 23.4826 10.7634 23.4639 10.7327C23.4537 10.7166 23.2654 10.4218 22.9525 10.3835C23.2616 10.6945 23.5904 11.2665 23.1604 11.7882C23.1404 11.8122 23.1115 11.8248 23.0824 11.8248" fill="#E7817E"/>
<path fill-rule="evenodd" clip-rule="evenodd" d="M12.3741 9.56353C12.3741 9.56353 10.2146 8.48669 9.90947 10.0249C9.60432 11.5632 10.5903 13.0792 12.3507 12.2442C14.111 11.4094 12.3741 9.56353 12.3741 9.56353" fill="#FFB5B1"/>
<path fill-rule="evenodd" clip-rule="evenodd" d="M10.7511 11.8248C10.7219 11.8248 10.6928 11.8122 10.673 11.7882C10.2422 11.2665 10.5713 10.6945 10.8811 10.3835C10.5678 10.4218 10.3791 10.7166 10.369 10.7327C10.3502 10.7634 10.317 10.7802 10.283 10.7802C10.2655 10.7802 10.2475 10.7757 10.2313 10.7658C10.1839 10.7381 10.1684 10.6782 10.1968 10.6317C10.3081 10.451 10.582 10.1825 10.9491 10.1825C11.0541 10.1825 11.1671 10.2045 11.2858 10.257C11.3474 10.2842 11.4057 10.3293 11.461 10.3924C11.4716 10.5488 11.4836 10.7047 11.4965 10.8586C11.3692 10.5431 11.2544 10.4582 11.2031 10.4354L11.1408 10.4127L11.1334 10.4216C11.1007 10.4481 10.3414 11.0744 10.8292 11.6654C10.8639 11.7075 10.8571 11.7691 10.814 11.8031L10.7511 11.8248" fill="#E7817E"/>
<path fill-rule="evenodd" clip-rule="evenodd" d="M18.394 16.5059C18.394 15.7347 17.6597 15.1095 16.7534 15.1095C15.8475 15.1095 15.1128 15.7347 15.1128 16.5059L15.1094 18.1831C15.1083 19.0251 15.8437 19.708 16.7508 19.708C17.657 19.708 18.3919 19.0263 18.3925 18.1853L18.394 16.5059" fill="#EEA4A0"/>
<mask id="mask2" mask-type="alpha" maskUnits="userSpaceOnUse" x="15" y="14" width="4" height="8">
<path fill-rule="evenodd" clip-rule="evenodd" d="M18.3907 17.8108V17.1227L18.3902 17.1229L18.3894 17.8111C18.3899 17.8111 18.3904 17.8108 18.3907 17.8108V20.4C18.3907 20.9811 17.9198 21.4523 17.3386 21.4523H16.2945C15.7133 21.4523 15.2422 20.9811 15.2422 20.4V15.3962C15.2422 15.1548 15.4381 14.9589 15.6795 14.9589H17.9533C18.195 14.9589 18.3907 15.1548 18.3907 15.3962" fill="white"/>
</mask>
<g mask="url(#mask2)">
<path fill-rule="evenodd" clip-rule="evenodd" d="M17.3386 21.4523H16.2945C15.7133 21.4523 15.2422 20.9811 15.2422 20.4V15.3962C15.2422 15.1548 15.4381 14.9589 15.6795 14.9589H17.9533C18.195 14.9589 18.3907 15.1548 18.3907 15.3962V20.4C18.3907 20.9811 17.9198 21.4523 17.3386 21.4523" fill="#FFB5B1"/>
</g>
<mask id="mask3" mask-type="alpha" maskUnits="userSpaceOnUse" x="15" y="14" width="4" height="8">
<path fill-rule="evenodd" clip-rule="evenodd" d="M17.3386 21.4523H16.2945C15.7133 21.4523 15.2422 20.9811 15.2422 20.4V15.3962C15.2422 15.1548 15.4381 14.9589 15.6795 14.9589H17.9533C18.195 14.9589 18.3907 15.1548 18.3907 15.3962V20.4C18.3907 20.9811 17.9198 21.4523 17.3386 21.4523" fill="white"/>
</mask>
<g mask="url(#mask3)">
<path fill-rule="evenodd" clip-rule="evenodd" d="M17.0182 17.9821C16.4167 17.9821 15.815 17.8853 15.2422 17.6917V16.9888C15.7921 17.2454 16.3849 17.374 16.9778 17.374C17.4563 17.374 17.9345 17.2904 18.3902 17.1229L18.3894 17.8111C17.9411 17.9252 17.4797 17.9821 17.0182 17.9821" fill="#E17170"/>
</g>
<path fill-rule="evenodd" clip-rule="evenodd" d="M22.655 7.37491C22.6102 5.82761 21.3608 4.59851 19.8377 4.59851H14.0465C12.4947 4.59851 11.2211 5.85101 11.1768 7.42738C11.1135 9.67001 11.3962 12.6062 11.8402 13.7244C12.2525 14.7631 13.3618 15.8204 14.6653 16.7066C16.051 17.6486 17.8572 17.6427 19.2353 16.6893C20.5114 15.8065 21.5831 14.7569 21.9931 13.7244C22.4403 12.5974 22.72 9.62396 22.655 7.37491" fill="#FFB5B1"/>
<mask id="mask4" mask-type="alpha" maskUnits="userSpaceOnUse" x="14" y="13" width="6" height="3">
<path fill-rule="evenodd" clip-rule="evenodd" d="M19.3505 13.6227C19.2555 13.3536 18.9081 13.425 18.2942 13.7239C17.6289 14.0473 16.4561 14.1256 15.6209 13.7869C14.9881 13.53 14.6738 13.504 14.5607 13.7355C14.4474 13.967 15.1502 15.3299 16.4828 15.4945C16.7319 15.5255 17.1107 15.5362 17.5135 15.4704C18.8385 15.2534 19.4557 13.9195 19.3505 13.6227" fill="white"/>
</mask>
<g mask="url(#mask4)">
<path fill-rule="evenodd" clip-rule="evenodd" d="M19.3505 13.6227C19.2555 13.3536 18.9081 13.425 18.2942 13.7239C17.6289 14.0473 16.4561 14.1256 15.6209 13.7869C14.9881 13.53 14.6738 13.504 14.5607 13.7355C14.4474 13.967 15.1502 15.3299 16.4828 15.4945C16.7319 15.5255 17.1107 15.5362 17.5135 15.4704C18.8385 15.2534 19.4557 13.9195 19.3505 13.6227" fill="#7E322C"/>
<path fill-rule="evenodd" clip-rule="evenodd" d="M15.1357 13.4395C15.1357 13.4395 15.1581 14.3879 16.8081 14.4169C18.4578 14.4456 18.9439 13.9823 18.951 13.3272L15.1357 13.4395" fill="#FFFFFE"/>
<path fill-rule="evenodd" clip-rule="evenodd" d="M15.7441 15.3228C15.7441 15.3228 16.8793 14.5957 18.6347 15.2773L17.2787 16.2129L15.7441 15.3228" fill="#EEA4A0"/>
<path fill-rule="evenodd" clip-rule="evenodd" d="M16.9034 15.5189C16.7423 15.5189 16.5984 15.509 16.4828 15.4945C16.2328 15.4638 16.0051 15.3906 15.8008 15.2907C15.9581 15.2066 16.4404 14.9858 17.1608 14.9858C17.4978 14.9858 17.8866 15.0341 18.3191 15.1672C18.0886 15.3103 17.82 15.4201 17.5135 15.4704C17.2978 15.5057 17.0889 15.5189 16.9034 15.5189" fill="#E88683"/>
</g>
<path fill-rule="evenodd" clip-rule="evenodd" d="M14.7807 9.68989C14.7807 9.96201 14.4867 10.1825 14.1239 10.1825C13.7611 10.1825 13.4668 9.96201 13.4668 9.68989C13.4668 9.41777 13.7611 9.19708 14.1239 9.19708C14.4867 9.19708 14.7807 9.41777 14.7807 9.68989" fill="#282D49"/>
<path fill-rule="evenodd" clip-rule="evenodd" d="M20.3646 9.68989C20.3646 9.96201 20.0707 10.1825 19.7079 10.1825C19.345 10.1825 19.0508 9.96201 19.0508 9.68989C19.0508 9.41777 19.345 9.19708 19.7079 9.19708C20.0707 9.19708 20.3646 9.41777 20.3646 9.68989" fill="#282D49"/>
<path fill-rule="evenodd" clip-rule="evenodd" d="M19.6786 3.31156C19.7555 3.43999 19.6696 3.60497 19.5857 3.72837C19.1004 4.4439 18.6098 5.16551 17.9932 5.75657C17.3765 6.3479 16.6156 6.80629 15.7882 6.89289C15.6964 6.90242 15.5938 6.90401 15.5236 6.84045C15.4525 6.77611 15.4382 6.66647 15.4385 6.56743C15.4412 5.97213 15.7932 5.44489 16.1727 5.00636C16.9299 4.13221 17.8611 3.42887 18.8877 2.95618" fill="#58556E"/>
<path fill-rule="evenodd" clip-rule="evenodd" d="M19.3072 3.47164C19.1079 4.17309 18.2984 4.92427 17.7661 5.41961C17.4441 5.71949 17.0912 5.99933 16.6912 6.19653C16.5505 6.26606 15.6628 6.6414 15.5083 6.54713C15.1121 6.30515 16.7544 4.79437 16.9995 4.60014C17.5823 4.13721 18.2533 3.8022 18.8463 3.35262C19.0553 3.19402 18.8203 2.92087 18.611 2.95996C17.3854 3.18883 16.2173 4.13226 15.4445 5.05367C15.0782 5.49063 14.2914 6.84107 15.2113 7.16471C16.1268 7.4871 17.4637 6.46499 18.0664 5.90482C18.5261 5.47751 18.9164 4.98514 19.2884 4.48534C19.5739 4.10158 19.8365 3.87197 19.6402 3.42933C19.5757 3.28384 19.3455 3.33704 19.3072 3.47164" fill="#58556E"/>
<path fill-rule="evenodd" clip-rule="evenodd" d="M17.7653 3.9517C16.3274 5.11815 14.7073 6.06798 12.979 6.75806C12.6802 6.87727 12.3169 6.98243 12.0554 6.79707C11.8746 6.66889 11.803 6.42877 11.8311 6.21167C11.8593 5.99456 11.9724 5.79684 12.1011 5.61802C12.4014 5.2015 12.7955 4.85743 13.2149 4.55577C14.7004 3.486 16.5522 2.91489 18.3945 2.9585" fill="#58556E"/>
<path fill-rule="evenodd" clip-rule="evenodd" d="M17.5737 3.58693C16.7437 4.32535 15.631 4.96942 14.6404 5.48079C14.2399 5.68764 13.5185 6.1218 13.1052 6.17447C12.6104 6.5291 12.394 6.31535 12.4557 5.53346C12.5884 5.38031 12.7323 5.23892 12.8875 5.10928C13.686 4.39848 14.6939 3.87688 15.7101 3.55548C16.6284 3.26477 17.5883 3.29775 18.5002 3.03005C18.7968 2.94311 18.797 2.51612 18.5002 2.42919C17.1493 2.03287 15.4538 2.61609 14.2279 3.19906C13.1569 3.70813 11.3184 4.75848 11.1806 6.10416C10.8459 9.37949 17.2433 4.48976 17.901 4.01035C18.2152 3.78151 17.8669 3.32613 17.5737 3.58693" fill="#58556E"/>
<path fill-rule="evenodd" clip-rule="evenodd" d="M19.5646 3.61975C19.4998 4.81175 19.6475 6.01847 19.9961 7.14419C20.2163 7.85486 20.5768 8.5971 21.2027 8.83539C21.2793 8.86459 21.3646 8.88484 21.4399 8.85091C21.5165 8.81645 21.5669 8.73202 21.6012 8.64654C21.7951 8.15996 21.5915 7.59658 21.3798 7.11973C20.7903 5.79149 20.1215 4.50928 19.3799 3.28467L19.5646 3.61975" fill="#58556E"/>
<path fill-rule="evenodd" clip-rule="evenodd" d="M19.368 3.65216C19.207 4.98022 19.3065 6.35322 19.853 7.59214C20.1267 8.21276 20.9531 9.50665 21.8278 9.1293C22.6468 8.77583 22.2916 7.5829 22.0331 7.00364C21.4385 5.67147 20.6605 4.12533 19.6492 3.06956C19.3502 2.7572 18.9256 3.15202 19.0874 3.50728C19.4128 4.22217 19.8982 4.87002 20.2972 5.54766C20.645 6.13873 21.409 7.07633 21.4622 7.76939C21.5342 8.70853 20.8905 7.88961 20.6674 7.48426C20.4603 7.10793 20.3333 6.66019 20.2198 6.24868C19.9878 5.40663 19.8705 4.524 19.8331 3.65216C19.8201 3.34288 19.4036 3.35855 19.368 3.65216" fill="#58556E"/>
<path fill-rule="evenodd" clip-rule="evenodd" d="M19.6466 3.79897C20.0168 4.51716 20.387 5.23534 20.7573 5.95329C21.2912 6.98862 21.8653 8.06943 22.8761 8.73314C22.9825 8.80318 23.1018 8.8703 23.2324 8.8686C23.429 8.86617 23.5887 8.70128 23.6326 8.52398C23.6765 8.34644 23.63 8.16136 23.5727 7.98747C23.26 7.03702 22.6286 6.19698 21.8777 5.48731C21.1267 4.77763 20.2554 4.18786 19.3799 3.61316L19.6466 3.79897" fill="#58556E"/>
<path fill-rule="evenodd" clip-rule="evenodd" d="M19.4118 3.58085C19.7144 4.49674 21.9921 11.0503 23.7061 9.19711C24.4979 8.34127 23.3634 6.64493 22.8586 5.94174C22.0415 4.8031 20.7666 3.47317 19.4592 2.97898C19.1089 2.8467 18.9414 3.32264 19.1306 3.56444C19.7777 4.39171 20.7559 4.90892 21.4794 5.68089C21.7471 5.96661 23.3797 7.94258 22.9137 8.27486C22.3885 8.64974 20.1167 3.88985 19.8215 3.40148C19.6917 3.18719 19.3264 3.32158 19.4118 3.58085" fill="#58556E"/>
<path fill-rule="evenodd" clip-rule="evenodd" d="M19.6981 2.95619C19.767 2.12987 19.4751 1.2754 18.931 0.710968C18.9063 0.68517 18.8782 0.65885 18.8444 0.657026C18.7873 0.653899 18.7481 0.721391 18.7344 0.783411C18.6897 0.985367 18.781 1.19045 18.8698 1.37338C19.1063 1.86198 19.343 2.35033 19.5797 2.83867" fill="#58556E"/>
<path fill-rule="evenodd" clip-rule="evenodd" d="M19.9631 2.82069C20.0717 2.32854 20.0772 1.8433 19.8643 1.37473C19.7105 1.03599 19.3302 0.328491 18.8656 0.328491C17.6608 0.328491 19.0998 2.66037 19.5026 2.91407C19.6962 3.03603 19.9584 2.875 19.9571 2.66585C19.9549 2.34331 19.7555 2.09318 19.5954 1.81733C19.5176 1.68274 19.1331 0.926885 19.0473 0.96762C18.9262 0.96762 18.8051 0.96762 18.6837 0.96762C19.2364 1.25514 19.5519 2.22634 19.5946 2.77328C19.6094 2.96195 19.9171 3.03032 19.9631 2.82069" fill="#58556E"/>
<path fill-rule="evenodd" clip-rule="evenodd" d="M18.394 2.92306C18.3485 2.03548 17.4783 1.41577 16.6303 1.1736C14.4079 0.53815 11.9812 1.58421 10.3435 3.22688C9.885 3.68707 9.44421 4.28133 9.53814 4.92702C10.3875 4.74362 11.1821 4.30967 11.7983 3.69258" fill="#58556E"/>
<path fill-rule="evenodd" clip-rule="evenodd" d="M18.3899 2.88943C18.5252 0.77026 15.5522 0.482842 14.0632 0.731904C12.1736 1.04834 9.2196 2.60151 9.19729 4.81683C9.19453 5.10727 9.47905 5.31192 9.75128 5.24152C10.6439 5.01113 11.6121 4.62631 12.0941 3.79509C12.2691 3.49354 11.9299 3.21243 11.6479 3.34617C10.8989 3.70072 10.3529 4.17411 9.51865 4.39188C9.7034 4.53345 9.88815 4.67501 10.0727 4.81683C10.0872 3.1978 12.5807 1.95905 13.8982 1.59895C15.3762 1.1947 17.3062 1.41399 17.9738 3.00274C18.0678 3.22631 18.3771 3.08702 18.3899 2.88943" fill="#58556E"/>
<path fill-rule="evenodd" clip-rule="evenodd" d="M9.85449 3.61313C10.4015 2.23281 11.9171 1.37197 13.4418 0.94802C14.5518 0.639584 15.773 0.510658 16.8558 0.892732C17.9388 1.27481 18.822 2.27446 18.7142 3.33998" fill="#58556E"/>
<path fill-rule="evenodd" clip-rule="evenodd" d="M10.3396 4.05179C11.6477 0.936853 17.7258 -0.643772 18.4362 3.64744C18.5123 4.10789 19.2448 4.09863 19.3286 3.64744C19.7846 1.19195 17.0734 -0.148123 15.087 0.0130356C12.8015 0.19854 10.4668 1.46796 9.55407 3.71016C9.36737 4.16902 10.146 4.51277 10.3396 4.05179" fill="#58556E"/>
<path fill-rule="evenodd" clip-rule="evenodd" d="M19.8917 2.56691C19.8625 2.5998 19.8333 2.63268 19.8042 2.66526C20.091 1.91282 20.7946 1.56991 21.4262 1.65505C21.5195 1.66768 21.6269 1.70203 21.6654 1.81535C21.7313 2.0097 21.5412 2.17528 21.3884 2.24045C20.8284 2.47913 20.2681 2.71752 19.708 2.9562" fill="#58556E"/>
<path fill-rule="evenodd" clip-rule="evenodd" d="M19.8031 2.1914C19.7724 2.19347 19.7417 2.19554 19.711 2.19783C19.7624 2.38513 19.8138 2.57266 19.8652 2.7602C20.1171 2.57289 20.273 2.32867 20.5752 2.20196C20.7166 2.14251 20.8676 2.10211 21.0199 2.08329C21.0972 2.07388 21.1732 2.07296 21.2507 2.07181C21.2879 2.0725 21.3254 2.0725 21.3626 2.07204C21.4401 2.08513 21.4401 2.06447 21.3621 2.00984C21.3733 1.92583 21.3845 1.84182 21.3954 1.75781C21.2921 1.98367 20.5684 2.09936 20.3381 2.17625C20.0264 2.28023 19.6961 2.34703 19.4497 2.56899C19.2897 2.71314 19.4309 2.92959 19.6098 2.95025C19.9366 2.98812 20.2655 2.83571 20.5766 2.74252C20.9008 2.64543 21.2526 2.5722 21.564 2.43861C21.9674 2.26554 22.2093 1.7764 21.7836 1.46974C21.401 1.19407 20.7254 1.33546 20.3284 1.50004C19.8982 1.67839 19.4544 2.01604 19.4051 2.49944C19.3704 2.83984 19.9266 2.90641 20.0059 2.57978C20.0136 2.54787 20.0213 2.51597 20.029 2.48406C20.0622 2.34749 19.9608 2.18039 19.8031 2.1914" fill="#58556E"/>
<path fill-rule="evenodd" clip-rule="evenodd" d="M14.1239 10.3467C13.7611 10.3467 13.4668 10.0527 13.4668 9.68991C13.4668 9.32709 13.7611 9.03284 14.1239 9.03284C14.4867 9.03284 14.7807 9.32709 14.7807 9.68991C14.7807 10.0527 14.4867 10.3467 14.1239 10.3467" fill="#202020"/>
<path fill-rule="evenodd" clip-rule="evenodd" d="M19.7079 10.3467C19.345 10.3467 19.0508 10.0527 19.0508 9.68991C19.0508 9.32709 19.345 9.03284 19.7079 9.03284C20.0707 9.03284 20.3646 9.32709 20.3646 9.68991C20.3646 10.0527 20.0707 10.3467 19.7079 10.3467" fill="#202020"/>
<path fill-rule="evenodd" clip-rule="evenodd" d="M21.6895 9.19707C21.1613 9.19707 20.6769 8.6809 20.3652 8.21167H21.3435C21.4101 8.26466 21.4727 8.29766 21.5238 8.29766C21.5689 8.29766 21.6051 8.2721 21.6273 8.21167H21.7792C21.9605 8.46546 22.1472 8.69229 22.336 8.87612C22.2595 8.98465 22.1499 9.07413 21.9984 9.13572C21.8945 9.17801 21.7912 9.19707 21.6895 9.19707" fill="#58556E"/>
<path fill-rule="evenodd" clip-rule="evenodd" d="M12.2426 8.03826V8.19387H15.3465C15.5173 8.19387 15.67 8.26092 15.78 8.36785C15.8897 8.47504 15.9551 8.61899 15.9553 8.77848V10.1727C15.9551 10.5411 15.8027 10.8741 15.5521 11.1182C15.3016 11.3621 14.9547 11.5141 14.5692 11.5141H13.0507C12.6566 11.5141 12.3021 11.3588 12.046 11.1094C11.79 10.8598 11.6341 10.5194 11.6338 10.1427V8.77848C11.6341 8.61899 11.6997 8.47504 11.8091 8.36785C11.9191 8.26092 12.0718 8.19387 12.2426 8.19387V7.88318C11.9936 7.88318 11.7663 7.98156 11.601 8.14235C11.4355 8.30313 11.3311 8.52915 11.3311 8.77848V10.1427C11.3311 10.6092 11.5261 11.032 11.8377 11.3349C12.149 11.6384 12.5786 11.8248 13.0507 11.8248H14.5692C15.0329 11.8248 15.4545 11.6417 15.7605 11.3437C16.0666 11.0463 16.2583 10.6307 16.2581 10.1727V8.77848C16.2583 8.52915 16.1536 8.30313 15.9881 8.14235C15.8229 7.98156 15.5955 7.88318 15.3465 7.88318H12.2426V8.03826" fill="#F8F9F9"/>
<path fill-rule="evenodd" clip-rule="evenodd" d="M11.0851 9.25702L11.4572 9.50639C11.5284 9.55395 11.6131 9.50979 11.6465 9.40787C11.6797 9.30594 11.6489 9.18466 11.5777 9.13676L11.2056 8.88773C11.1344 8.84016 11.0497 8.88433 11.0163 8.98625C10.9831 9.08817 11.0139 9.20946 11.0851 9.25702" fill="#F8F9F9"/>
<path fill-rule="evenodd" clip-rule="evenodd" d="M21.5877 8.03826V7.88318H18.4838C18.2348 7.88318 18.0072 7.98156 17.842 8.14235C17.6767 8.30313 17.572 8.52915 17.5723 8.77848V10.1727C17.572 10.6307 17.7638 11.0463 18.0698 11.3437C18.3756 11.6417 18.7974 11.8248 19.2611 11.8248H20.7797C21.2517 11.8248 21.6811 11.6384 21.9927 11.3349C22.3043 11.032 22.4993 10.6092 22.4993 10.1427V8.77848C22.4993 8.52915 22.3948 8.30313 22.2293 8.14235C22.0641 7.98156 21.8365 7.88318 21.5877 7.88318V8.19387C21.7585 8.19387 21.9112 8.26092 22.0209 8.36785C22.1307 8.47504 22.1963 8.61899 22.1965 8.77848V10.1427C22.1963 10.5194 22.0404 10.8598 21.7843 11.1094C21.5282 11.3588 21.1735 11.5141 20.7797 11.5141H19.2611C18.8756 11.5141 18.5285 11.3621 18.2779 11.1182C18.0277 10.8741 17.875 10.5411 17.875 10.1727V8.77848C17.875 8.61899 17.9406 8.47504 18.0504 8.36785C18.1601 8.26092 18.3127 8.19387 18.4838 8.19387H21.5877V8.03826" fill="#F8F9F9"/>
<path fill-rule="evenodd" clip-rule="evenodd" d="M22.6253 8.88773L22.2531 9.13676C22.1817 9.18466 22.1511 9.30594 22.1843 9.40787C22.2175 9.50979 22.3022 9.55395 22.3736 9.50639L22.7458 9.25702C22.8169 9.20946 22.8478 9.08817 22.8143 8.98625C22.7811 8.88433 22.6964 8.84016 22.6253 8.88773" fill="#F8F9F9"/>
<path fill-rule="evenodd" clip-rule="evenodd" d="M16.2023 9.52549H17.6279C17.7784 9.52549 17.9005 9.45191 17.9005 9.36126C17.9005 9.27043 17.7784 9.19702 17.6279 9.19702H16.2023C16.0516 9.19702 15.9297 9.27043 15.9297 9.36126C15.9297 9.45191 16.0516 9.52549 16.2023 9.52549" fill="#F8F9F9"/>
<path fill-rule="evenodd" clip-rule="evenodd" d="M0 45H34.4891V43.6862H0V45Z" fill="#3BD7D7"/>
<path d="M32.3538 8.86865V10.1497" stroke="#40EAEA" stroke-linecap="round" stroke-linejoin="round"/>
<path d="M32.3538 11.8577V13.1387" stroke="#40EAEA" stroke-linecap="round" stroke-linejoin="round"/>
<path d="M30.2188 11.0037H31.4998" stroke="#40EAEA" stroke-linecap="round" stroke-linejoin="round"/>
<path d="M33.208 11.0037H34.489" stroke="#40EAEA" stroke-linecap="round" stroke-linejoin="round"/>
<path d="M3.77765 34.8175V36.0985" stroke="#40EAEA" stroke-linecap="round" stroke-linejoin="round"/>
<path d="M3.77765 37.8065V39.0875" stroke="#40EAEA" stroke-linecap="round" stroke-linejoin="round"/>
<path d="M1.64258 36.9526H2.9236" stroke="#40EAEA" stroke-linecap="round" stroke-linejoin="round"/>
<path d="M4.63184 36.9526H5.91286" stroke="#40EAEA" stroke-linecap="round" stroke-linejoin="round"/>
</svg>
