<svg width="66" height="66" viewBox="0 0 66 66" fill="none" xmlns="http://www.w3.org/2000/svg">
<rect width="66" height="66" rx="8" fill="#FFEAEB"/>
<path d="M33.2099 32.6031C37.6128 32.6031 41.1823 28.6289 41.1823 23.7266C41.1823 18.8241 40.0104 14.85 33.2099 14.85C26.4095 14.85 25.2373 18.8241 25.2373 23.7266C25.2373 28.6289 28.8068 32.6031 33.2099 32.6031Z" fill="#FF2D3B"/>
<path d="M18.1515 46.1565C18.1501 45.8576 18.1488 46.0723 18.1515 46.1565V46.1565Z" fill="#FF2D3B"/>
<path d="M48.2676 46.39C48.2719 46.3082 48.2691 45.8223 48.2676 46.39V46.39Z" fill="#FF2D3B"/>
<path d="M48.2504 45.798C48.1028 37.258 46.886 34.8245 37.5752 33.2842C37.5752 33.2842 36.2645 34.8151 33.2097 34.8151C30.1548 34.8151 28.8439 33.2842 28.8439 33.2842C19.6347 34.8077 18.3439 37.2051 18.1742 45.5206C18.1603 46.1996 18.1539 46.2353 18.1514 46.1565C18.1519 46.3042 18.1526 46.5774 18.1526 47.0537C18.1526 47.0537 20.3693 51.15 33.2097 51.15C46.0498 51.15 48.2667 47.0537 48.2667 47.0537C48.2667 46.7476 48.2669 46.5348 48.2673 46.39C48.2648 46.4388 48.2598 46.3443 48.2504 45.798Z" fill="#FF2D3B"/>
</svg>
