<svg width="172" height="67" viewBox="0 0 172 67" fill="none" xmlns="http://www.w3.org/2000/svg">
<path d="M7.33674 60.117C7.33674 60.9016 7.17907 61.5873 6.86373 62.174C6.5484 62.7533 6.08273 63.2043 5.46673 63.527C4.85807 63.8423 4.12473 64 3.26673 64H0.802734V56.245H3.26673C4.12473 56.245 4.85807 56.4026 5.46673 56.718C6.08273 57.026 6.5484 57.4733 6.86373 58.06C7.17907 58.6393 7.33674 59.325 7.33674 60.117ZM3.18973 63.098C4.20173 63.098 4.9754 62.8376 5.51074 62.317C6.04607 61.7963 6.31373 61.063 6.31373 60.117C6.31373 59.171 6.04607 58.4376 5.51074 57.917C4.98273 57.389 4.20907 57.125 3.18973 57.125H1.80373V63.098H3.18973Z" fill="#C1C1C1"/>
<path d="M10.0431 56.19C10.0431 56.0066 10.1054 55.86 10.2301 55.75C10.3547 55.6326 10.5197 55.574 10.7251 55.574C10.9304 55.574 11.0954 55.6326 11.2201 55.75C11.3447 55.86 11.4071 56.0066 11.4071 56.19C11.4071 56.3733 11.3447 56.5236 11.2201 56.641C11.0954 56.751 10.9304 56.806 10.7251 56.806C10.5197 56.806 10.3547 56.751 10.2301 56.641C10.1054 56.5236 10.0431 56.3733 10.0431 56.19ZM11.2201 57.961V64H10.2191V57.961H11.2201Z" fill="#C1C1C1"/>
<path d="M16.836 57.884C17.4227 57.884 17.9177 58.0306 18.321 58.324C18.7317 58.6173 19.0177 59.0096 19.179 59.501V57.961H20.18V64.099C20.18 64.6563 20.0627 65.1513 19.828 65.584C19.5933 66.0166 19.2633 66.354 18.838 66.596C18.4127 66.838 17.9177 66.959 17.353 66.959C16.539 66.959 15.8753 66.761 15.362 66.365C14.8487 65.9763 14.5223 65.4483 14.383 64.781H15.373C15.4903 65.1843 15.7103 65.4996 16.033 65.727C16.363 65.9616 16.7847 66.079 17.298 66.079C17.8407 66.079 18.288 65.903 18.64 65.551C18.9993 65.2063 19.179 64.7223 19.179 64.099V62.46C19.0177 62.9513 18.7317 63.3436 18.321 63.637C17.9177 63.9303 17.4227 64.077 16.836 64.077C16.3007 64.077 15.824 63.9523 15.406 63.703C14.988 63.4536 14.658 63.098 14.416 62.636C14.1813 62.1666 14.064 61.6166 14.064 60.986C14.064 60.3553 14.1813 59.8053 14.416 59.336C14.658 58.8666 14.988 58.5073 15.406 58.258C15.824 58.0086 16.3007 57.884 16.836 57.884ZM17.122 58.775C16.506 58.775 16.011 58.973 15.637 59.369C15.2703 59.7576 15.087 60.2966 15.087 60.986C15.087 61.6753 15.2703 62.218 15.637 62.614C16.011 63.0026 16.506 63.197 17.122 63.197C17.518 63.197 17.87 63.1053 18.178 62.922C18.4933 62.7386 18.739 62.482 18.915 62.152C19.091 61.8146 19.179 61.426 19.179 60.986C19.179 60.546 19.091 60.1573 18.915 59.82C18.739 59.4826 18.4933 59.226 18.178 59.05C17.87 58.8666 17.518 58.775 17.122 58.775Z" fill="#C1C1C1"/>
<path d="M23.1287 56.19C23.1287 56.0066 23.191 55.86 23.3157 55.75C23.4404 55.6326 23.6054 55.574 23.8107 55.574C24.016 55.574 24.181 55.6326 24.3057 55.75C24.4304 55.86 24.4927 56.0066 24.4927 56.19C24.4927 56.3733 24.4304 56.5236 24.3057 56.641C24.181 56.751 24.016 56.806 23.8107 56.806C23.6054 56.806 23.4404 56.751 23.3157 56.641C23.191 56.5236 23.1287 56.3733 23.1287 56.19ZM24.3057 57.961V64H23.3047V57.961H24.3057Z" fill="#C1C1C1"/>
<path d="M30.3286 63.12V64H29.5806C28.9646 64 28.5026 63.8533 28.1946 63.56C27.894 63.2666 27.7436 62.7753 27.7436 62.086V58.83H26.8416V57.961H27.7436V56.454H28.7556V57.961H30.3176V58.83H28.7556V62.108C28.7556 62.4966 28.8253 62.7643 28.9646 62.911C29.1113 63.0503 29.3606 63.12 29.7126 63.12H30.3286Z" fill="#C1C1C1"/>
<path d="M35.5567 57.884C36.1434 57.884 36.6384 58.0306 37.0417 58.324C37.4524 58.6173 37.7384 59.0096 37.8997 59.501V57.961H38.9007V64H37.8997V62.46C37.7384 62.9513 37.4524 63.3436 37.0417 63.637C36.6384 63.9303 36.1434 64.077 35.5567 64.077C35.0214 64.077 34.5447 63.9523 34.1267 63.703C33.7087 63.4536 33.3787 63.098 33.1367 62.636C32.9021 62.1666 32.7847 61.6166 32.7847 60.986C32.7847 60.3553 32.9021 59.8053 33.1367 59.336C33.3787 58.8666 33.7087 58.5073 34.1267 58.258C34.5447 58.0086 35.0214 57.884 35.5567 57.884ZM35.8427 58.775C35.2267 58.775 34.7317 58.973 34.3577 59.369C33.9911 59.7576 33.8077 60.2966 33.8077 60.986C33.8077 61.6753 33.9911 62.218 34.3577 62.614C34.7317 63.0026 35.2267 63.197 35.8427 63.197C36.2387 63.197 36.5907 63.1053 36.8987 62.922C37.2141 62.7386 37.4597 62.482 37.6357 62.152C37.8117 61.8146 37.8997 61.426 37.8997 60.986C37.8997 60.546 37.8117 60.1573 37.6357 59.82C37.4597 59.4826 37.2141 59.226 36.8987 59.05C36.5907 58.8666 36.2387 58.775 35.8427 58.775Z" fill="#C1C1C1"/>
<path d="M43.0264 55.86V64H42.0254V55.86H43.0264Z" fill="#C1C1C1"/>
<path d="M53.8487 56.168C54.7947 56.168 55.5757 56.4026 56.1917 56.872C56.8077 57.334 57.233 57.9683 57.4677 58.775H56.4117C56.2137 58.2616 55.8947 57.8546 55.4547 57.554C55.0147 57.246 54.4757 57.092 53.8377 57.092C53.3317 57.092 52.877 57.2166 52.4737 57.466C52.0777 57.708 51.7624 58.06 51.5277 58.522C51.3004 58.9766 51.1867 59.512 51.1867 60.128C51.1867 60.7366 51.3004 61.2683 51.5277 61.723C51.7624 62.1776 52.0777 62.5296 52.4737 62.779C52.877 63.021 53.3317 63.142 53.8377 63.142C54.4757 63.142 55.0147 62.9916 55.4547 62.691C55.8947 62.383 56.2137 61.9723 56.4117 61.459H57.4677C57.233 62.2656 56.8077 62.9036 56.1917 63.373C55.5757 63.835 54.7947 64.066 53.8487 64.066C53.1227 64.066 52.481 63.901 51.9237 63.571C51.3664 63.2336 50.93 62.768 50.6147 62.174C50.3067 61.5726 50.1527 60.8906 50.1527 60.128C50.1527 59.358 50.3067 58.6723 50.6147 58.071C50.93 57.4696 51.3664 57.004 51.9237 56.674C52.481 56.3366 53.1227 56.168 53.8487 56.168Z" fill="#C1C1C1"/>
<path d="M61.3389 59.182C61.5369 58.764 61.8266 58.4413 62.2079 58.214C62.5893 57.9793 63.0439 57.862 63.5719 57.862V58.951H63.2639C62.6993 58.951 62.2373 59.0976 61.8779 59.391C61.5186 59.677 61.3389 60.1536 61.3389 60.821V64H60.3379V57.961H61.3389V59.182Z" fill="#C1C1C1"/>
<path d="M71.6462 60.645C71.6462 60.8576 71.6315 61.041 71.6022 61.195H66.7732C66.7952 61.8843 66.9895 62.4013 67.3562 62.746C67.7302 63.0906 68.1848 63.263 68.7202 63.263C69.2042 63.263 69.6075 63.142 69.9302 62.9C70.2602 62.6506 70.4618 62.3206 70.5352 61.91H71.6022C71.5288 62.328 71.3638 62.702 71.1072 63.032C70.8578 63.362 70.5315 63.6186 70.1282 63.802C69.7248 63.9853 69.2702 64.077 68.7642 64.077C68.1848 64.077 67.6715 63.9523 67.2242 63.703C66.7768 63.4536 66.4248 63.098 66.1682 62.636C65.9188 62.1666 65.7942 61.6166 65.7942 60.986C65.7942 60.3553 65.9188 59.8053 66.1682 59.336C66.4248 58.8666 66.7768 58.5073 67.2242 58.258C67.6715 58.0086 68.1848 57.884 68.7642 57.884C69.3508 57.884 69.8605 58.0086 70.2932 58.258C70.7332 58.5073 71.0668 58.841 71.2942 59.259C71.5288 59.677 71.6462 60.139 71.6462 60.645ZM70.6342 60.711C70.6562 60.2636 70.5828 59.8896 70.4142 59.589C70.2455 59.2883 70.0145 59.0646 69.7212 58.918C69.4278 58.7713 69.1088 58.698 68.7642 58.698C68.2142 58.698 67.7522 58.8703 67.3782 59.215C67.0042 59.5523 66.8025 60.051 66.7732 60.711H70.6342Z" fill="#C1C1C1"/>
<path d="M76.962 57.884C77.5487 57.884 78.0437 58.0306 78.447 58.324C78.8577 58.6173 79.1437 59.0096 79.305 59.501V55.86H80.306V64H79.305V62.46C79.1437 62.9513 78.8577 63.3436 78.447 63.637C78.0437 63.9303 77.5487 64.077 76.962 64.077C76.4267 64.077 75.95 63.9523 75.532 63.703C75.114 63.4536 74.784 63.098 74.542 62.636C74.3073 62.1666 74.19 61.6166 74.19 60.986C74.19 60.3553 74.3073 59.8053 74.542 59.336C74.784 58.8666 75.114 58.5073 75.532 58.258C75.95 58.0086 76.4267 57.884 76.962 57.884ZM77.248 58.775C76.632 58.775 76.137 58.973 75.763 59.369C75.3963 59.7576 75.213 60.2966 75.213 60.986C75.213 61.6753 75.3963 62.218 75.763 62.614C76.137 63.0026 76.632 63.197 77.248 63.197C77.644 63.197 77.996 63.1053 78.304 62.922C78.6193 62.7386 78.865 62.482 79.041 62.152C79.217 61.8146 79.305 61.426 79.305 60.986C79.305 60.546 79.217 60.1573 79.041 59.82C78.865 59.4826 78.6193 59.226 78.304 59.05C77.996 58.8666 77.644 58.775 77.248 58.775Z" fill="#C1C1C1"/>
<path d="M88.9857 60.645C88.9857 60.8576 88.971 61.041 88.9417 61.195H84.1127C84.1347 61.8843 84.329 62.4013 84.6957 62.746C85.0697 63.0906 85.5244 63.263 86.0597 63.263C86.5437 63.263 86.947 63.142 87.2697 62.9C87.5997 62.6506 87.8014 62.3206 87.8747 61.91H88.9417C88.8684 62.328 88.7034 62.702 88.4467 63.032C88.1974 63.362 87.871 63.6186 87.4677 63.802C87.0644 63.9853 86.6097 64.077 86.1037 64.077C85.5244 64.077 85.011 63.9523 84.5637 63.703C84.1164 63.4536 83.7644 63.098 83.5077 62.636C83.2584 62.1666 83.1337 61.6166 83.1337 60.986C83.1337 60.3553 83.2584 59.8053 83.5077 59.336C83.7644 58.8666 84.1164 58.5073 84.5637 58.258C85.011 58.0086 85.5244 57.884 86.1037 57.884C86.6904 57.884 87.2 58.0086 87.6327 58.258C88.0727 58.5073 88.4064 58.841 88.6337 59.259C88.8684 59.677 88.9857 60.139 88.9857 60.645ZM87.9737 60.711C87.9957 60.2636 87.9224 59.8896 87.7537 59.589C87.585 59.2883 87.354 59.0646 87.0607 58.918C86.7674 58.7713 86.4484 58.698 86.1037 58.698C85.5537 58.698 85.0917 58.8703 84.7177 59.215C84.3437 59.5523 84.142 60.051 84.1127 60.711H87.9737Z" fill="#C1C1C1"/>
<path d="M95.0055 57.862C95.7095 57.862 96.2779 58.0893 96.7105 58.544C97.1432 58.9913 97.3595 59.6403 97.3595 60.491V64H96.3585V60.579C96.3585 59.9776 96.2045 59.5156 95.8965 59.193C95.5885 58.8703 95.1705 58.709 94.6425 58.709C94.0925 58.709 93.6525 58.8886 93.3225 59.248C92.9925 59.6 92.8275 60.117 92.8275 60.799V64H91.8265V57.961H92.8275V59.391C92.9815 58.8996 93.2529 58.522 93.6415 58.258C94.0375 57.994 94.4922 57.862 95.0055 57.862Z" fill="#C1C1C1"/>
<path d="M103.308 63.12V64H102.56C101.944 64 101.482 63.8533 101.174 63.56C100.874 63.2666 100.723 62.7753 100.723 62.086V58.83H99.8215V57.961H100.723V56.454H101.735V57.961H103.297V58.83H101.735V62.108C101.735 62.4966 101.805 62.7643 101.944 62.911C102.091 63.0503 102.34 63.12 102.692 63.12H103.308Z" fill="#C1C1C1"/>
<path d="M105.886 56.19C105.886 56.0066 105.948 55.86 106.073 55.75C106.197 55.6326 106.362 55.574 106.568 55.574C106.773 55.574 106.938 55.6326 107.063 55.75C107.187 55.86 107.25 56.0066 107.25 56.19C107.25 56.3733 107.187 56.5236 107.063 56.641C106.938 56.751 106.773 56.806 106.568 56.806C106.362 56.806 106.197 56.751 106.073 56.641C105.948 56.5236 105.886 56.3733 105.886 56.19ZM107.063 57.961V64H106.062V57.961H107.063Z" fill="#C1C1C1"/>
<path d="M112.679 57.884C113.265 57.884 113.76 58.0306 114.164 58.324C114.574 58.6173 114.86 59.0096 115.022 59.501V57.961H116.023V64H115.022V62.46C114.86 62.9513 114.574 63.3436 114.164 63.637C113.76 63.9303 113.265 64.077 112.679 64.077C112.143 64.077 111.667 63.9523 111.249 63.703C110.831 63.4536 110.501 63.098 110.259 62.636C110.024 62.1666 109.907 61.6166 109.907 60.986C109.907 60.3553 110.024 59.8053 110.259 59.336C110.501 58.8666 110.831 58.5073 111.249 58.258C111.667 58.0086 112.143 57.884 112.679 57.884ZM112.965 58.775C112.349 58.775 111.854 58.973 111.48 59.369C111.113 59.7576 110.93 60.2966 110.93 60.986C110.93 61.6753 111.113 62.218 111.48 62.614C111.854 63.0026 112.349 63.197 112.965 63.197C113.361 63.197 113.713 63.1053 114.021 62.922C114.336 62.7386 114.582 62.482 114.758 62.152C114.934 61.8146 115.022 61.426 115.022 60.986C115.022 60.546 114.934 60.1573 114.758 59.82C114.582 59.4826 114.336 59.226 114.021 59.05C113.713 58.8666 113.361 58.775 112.965 58.775Z" fill="#C1C1C1"/>
<path d="M120.148 55.86V64H119.147V55.86H120.148Z" fill="#C1C1C1"/>
<path d="M125.181 57.884C125.863 57.884 126.409 58.0636 126.82 58.423C127.238 58.775 127.491 59.2516 127.579 59.853H126.622C126.578 59.4936 126.428 59.2003 126.171 58.973C125.922 58.7383 125.584 58.621 125.159 58.621C124.8 58.621 124.517 58.709 124.312 58.885C124.114 59.0536 124.015 59.2846 124.015 59.578C124.015 59.798 124.081 59.9776 124.213 60.117C124.352 60.249 124.521 60.3516 124.719 60.425C124.924 60.491 125.203 60.5643 125.555 60.645C126.002 60.7476 126.362 60.854 126.633 60.964C126.912 61.0666 127.146 61.2353 127.337 61.47C127.535 61.7046 127.634 62.02 127.634 62.416C127.634 62.9073 127.447 63.307 127.073 63.615C126.706 63.923 126.215 64.077 125.599 64.077C124.88 64.077 124.294 63.9046 123.839 63.56C123.384 63.2153 123.117 62.735 123.036 62.119H124.004C124.041 62.4856 124.198 62.7826 124.477 63.01C124.763 63.2373 125.137 63.351 125.599 63.351C125.944 63.351 126.211 63.263 126.402 63.087C126.6 62.911 126.699 62.68 126.699 62.394C126.699 62.1593 126.629 61.9723 126.49 61.833C126.351 61.6936 126.178 61.5873 125.973 61.514C125.768 61.4406 125.485 61.3636 125.126 61.283C124.679 61.1803 124.319 61.0776 124.048 60.975C123.784 60.8723 123.557 60.711 123.366 60.491C123.183 60.2636 123.091 59.9593 123.091 59.578C123.091 59.072 123.278 58.665 123.652 58.357C124.026 58.0416 124.536 57.884 125.181 57.884Z" fill="#C1C1C1"/>
<path d="M141.287 60.117C141.287 60.9016 141.129 61.5873 140.814 62.174C140.498 62.7533 140.033 63.2043 139.417 63.527C138.808 63.8423 138.075 64 137.217 64H134.753V56.245H137.217C138.075 56.245 138.808 56.4026 139.417 56.718C140.033 57.026 140.498 57.4733 140.814 58.06C141.129 58.6393 141.287 59.325 141.287 60.117ZM137.14 63.098C138.152 63.098 138.925 62.8376 139.461 62.317C139.996 61.7963 140.264 61.063 140.264 60.117C140.264 59.171 139.996 58.4376 139.461 57.917C138.933 57.389 138.159 57.125 137.14 57.125H135.754V63.098H137.14Z" fill="#C1C1C1"/>
<path d="M149.724 60.645C149.724 60.8576 149.709 61.041 149.68 61.195H144.851C144.873 61.8843 145.067 62.4013 145.434 62.746C145.808 63.0906 146.263 63.263 146.798 63.263C147.282 63.263 147.685 63.142 148.008 62.9C148.338 62.6506 148.54 62.3206 148.613 61.91H149.68C149.607 62.328 149.442 62.702 149.185 63.032C148.936 63.362 148.609 63.6186 148.206 63.802C147.803 63.9853 147.348 64.077 146.842 64.077C146.263 64.077 145.749 63.9523 145.302 63.703C144.855 63.4536 144.503 63.098 144.246 62.636C143.997 62.1666 143.872 61.6166 143.872 60.986C143.872 60.3553 143.997 59.8053 144.246 59.336C144.503 58.8666 144.855 58.5073 145.302 58.258C145.749 58.0086 146.263 57.884 146.842 57.884C147.429 57.884 147.938 58.0086 148.371 58.258C148.811 58.5073 149.145 58.841 149.372 59.259C149.607 59.677 149.724 60.139 149.724 60.645ZM148.712 60.711C148.734 60.2636 148.661 59.8896 148.492 59.589C148.323 59.2883 148.092 59.0646 147.799 58.918C147.506 58.7713 147.187 58.698 146.842 58.698C146.292 58.698 145.83 58.8703 145.456 59.215C145.082 59.5523 144.88 60.051 144.851 60.711H148.712Z" fill="#C1C1C1"/>
<path d="M159.99 57.862C160.694 57.862 161.259 58.0893 161.684 58.544C162.117 58.9913 162.333 59.6403 162.333 60.491V64H161.332V60.579C161.332 59.985 161.185 59.5303 160.892 59.215C160.606 58.8996 160.21 58.742 159.704 58.742C159.176 58.742 158.751 58.918 158.428 59.27C158.113 59.6146 157.955 60.1243 157.955 60.799V64H156.954V60.579C156.954 59.985 156.807 59.5303 156.514 59.215C156.221 58.8996 155.825 58.742 155.326 58.742C154.791 58.742 154.362 58.918 154.039 59.27C153.724 59.6146 153.566 60.1243 153.566 60.799V64H152.565V57.961H153.566V59.336C153.713 58.8593 153.973 58.4963 154.347 58.247C154.728 57.9903 155.165 57.862 155.656 57.862C156.169 57.862 156.613 57.994 156.987 58.258C157.368 58.5146 157.64 58.896 157.801 59.402C157.97 58.9106 158.252 58.533 158.648 58.269C159.044 57.9976 159.491 57.862 159.99 57.862Z" fill="#C1C1C1"/>
<path d="M168.158 57.884C168.737 57.884 169.254 58.0086 169.709 58.258C170.171 58.5073 170.53 58.8666 170.787 59.336C171.051 59.8053 171.183 60.3553 171.183 60.986C171.183 61.6166 171.051 62.1666 170.787 62.636C170.53 63.098 170.171 63.4536 169.709 63.703C169.254 63.9523 168.737 64.077 168.158 64.077C167.578 64.077 167.058 63.9523 166.596 63.703C166.141 63.4536 165.782 63.098 165.518 62.636C165.254 62.1666 165.122 61.6166 165.122 60.986C165.122 60.3553 165.254 59.8053 165.518 59.336C165.782 58.8666 166.141 58.5073 166.596 58.258C167.058 58.0086 167.578 57.884 168.158 57.884ZM168.158 58.764C167.798 58.764 167.465 58.8446 167.157 59.006C166.856 59.1673 166.61 59.4166 166.42 59.754C166.236 60.084 166.145 60.4946 166.145 60.986C166.145 61.47 166.236 61.8806 166.42 62.218C166.61 62.548 166.856 62.7936 167.157 62.955C167.465 63.1163 167.798 63.197 168.158 63.197C168.517 63.197 168.847 63.1163 169.148 62.955C169.456 62.7936 169.701 62.548 169.885 62.218C170.075 61.8806 170.171 61.47 170.171 60.986C170.171 60.4946 170.075 60.084 169.885 59.754C169.701 59.4166 169.456 59.1673 169.148 59.006C168.847 58.8446 168.517 58.764 168.158 58.764Z" fill="#C1C1C1"/>
<path fill-rule="evenodd" clip-rule="evenodd" d="M34.0488 37.4424L37.4432 43.898H50.7139L47.3195 37.4424H34.0488Z" fill="#C1C1C1"/>
<path fill-rule="evenodd" clip-rule="evenodd" d="M5.52608 37.4424L2 43.898H30.5221L34.0482 37.4424H5.52608Z" fill="#C1C1C1"/>
<path fill-rule="evenodd" clip-rule="evenodd" d="M25.7165 0L22.5117 6.4556H28.9214L25.7165 0Z" fill="#C1C1C1"/>
<path fill-rule="evenodd" clip-rule="evenodd" d="M33.1939 12.9111H19.52L16.1016 19.3667H36.6124L33.1939 12.9111Z" fill="#C1C1C1"/>
<path fill-rule="evenodd" clip-rule="evenodd" d="M39.561 24.5312H11.8714L8.41016 30.9868H43.0222L39.561 24.5312Z" fill="#C1C1C1"/>
<path fill-rule="evenodd" clip-rule="evenodd" d="M65.3389 29.4134H69.0324C69.8263 29.4134 70.4946 29.1384 71.0378 28.5883C71.5801 28.0381 71.8518 27.3304 71.8518 26.466C71.8518 25.6013 71.5801 24.9006 71.0378 24.3633C70.4946 23.8267 69.8263 23.5578 69.0324 23.5578H65.3389V29.4134ZM58.2305 16.8374H69.0324C71.8382 16.8374 74.1946 17.7414 76.1009 19.549C78.0074 21.357 78.9605 23.6627 78.9605 26.466C78.9605 29.2696 78.0074 31.575 76.1009 33.3826C74.1946 35.1906 71.8382 36.0946 69.0324 36.0946H65.3389V44.3476H58.2305V16.8374Z" fill="#C1C1C1"/>
<path fill-rule="evenodd" clip-rule="evenodd" d="M92.7801 23.322H88.8487V29.4919H92.7801C93.6539 29.5186 94.3685 29.2433 94.9247 28.6668C95.4806 28.0909 95.7588 27.3439 95.7588 26.4267C95.7588 25.5099 95.4806 24.7629 94.9247 24.1864C94.3685 23.6105 93.6539 23.322 92.7801 23.322ZM103.86 44.3476H96.2351L91.3904 35.4657H88.8487V44.3476H81.7402V16.8374H92.8598C95.6922 16.8374 98.062 17.7414 99.9679 19.549C101.9 21.3049 102.867 23.5713 102.867 26.3482C102.867 27.9728 102.443 29.4794 101.596 30.8675C100.749 32.2566 99.597 33.3569 98.1413 34.1689L103.86 44.3476Z" fill="#C1C1C1"/>
<path fill-rule="evenodd" clip-rule="evenodd" d="M106.361 44.3473H113.47V16.8372H106.361V44.3473Z" fill="#C1C1C1"/>
<path fill-rule="evenodd" clip-rule="evenodd" d="M127.328 44.937C124.442 44.937 122.027 44.3344 120.081 43.129C118.134 41.9242 116.765 40.2472 115.971 38.0986L122.046 34.601C123.079 37.0376 124.906 38.2559 127.527 38.2559C129.697 38.2559 130.783 37.6404 130.783 36.4087C130.783 35.6227 130.161 34.9683 128.917 34.4437C128.493 34.2867 127.328 33.9328 125.422 33.3827C122.722 32.6231 120.669 31.5619 119.267 30.1994C117.863 28.8373 117.162 27.0297 117.162 24.7759C117.162 22.2347 118.075 20.1777 119.902 18.6059C121.781 17.0337 124.085 16.2478 126.812 16.2478C129.141 16.2478 131.206 16.7918 133.007 17.8788C134.807 18.9662 136.184 20.5187 137.137 22.5358L131.18 25.9941C130.307 23.9504 128.863 22.9289 126.852 22.9289C126.031 22.9289 125.395 23.0927 124.945 23.4199C124.495 23.7483 124.27 24.1865 124.27 24.7366C124.27 25.3397 124.594 25.8506 125.243 26.2692C125.891 26.6887 127.156 27.1732 129.036 27.7233C130.439 28.1428 131.524 28.5095 132.292 28.8238C133.166 29.1912 134.066 29.6886 134.993 30.3172C136.925 31.5747 137.892 33.5793 137.892 36.3302C137.892 39.0289 136.925 41.1383 134.993 42.6574C133.06 44.1774 130.505 44.937 127.328 44.937Z" fill="#C1C1C1"/>
<path fill-rule="evenodd" clip-rule="evenodd" d="M161.758 16.8374H168.827V44.3476H161.758V29.5312L155.007 40.5749H154.293L147.581 29.5707V44.3476H140.473V16.8374H147.581L154.65 28.5883L161.758 16.8374Z" fill="#C1C1C1"/>
<path fill-rule="evenodd" clip-rule="evenodd" d="M75.2873 0.408691H69.0488V1.59737H71.5432V10.6516H72.7929V1.59737H75.2873V0.408691Z" fill="#C1C1C1"/>
<path fill-rule="evenodd" clip-rule="evenodd" d="M89.0992 0.408691H87.8496V10.6516H91.5937V9.46291H89.0992V0.408691Z" fill="#C1C1C1"/>
<path fill-rule="evenodd" clip-rule="evenodd" d="M58.3164 10.6516H65.7957L65.0755 9.36479H60.479L64.0495 2.98564L68.3403 10.6516H69.7827L64.0495 0.408691L58.3164 10.6516Z" fill="#C1C1C1"/>
<path fill-rule="evenodd" clip-rule="evenodd" d="M74.623 10.6516H82.1023L81.3821 9.36479H76.7858L80.3562 2.98564L84.647 10.6516H86.0894L80.3562 0.408691L74.623 10.6516Z" fill="#C1C1C1"/>
<path fill-rule="evenodd" clip-rule="evenodd" d="M103.375 10.6516H104.818L99.0847 0.408691L93.3516 10.6516H100.831L100.111 9.36479H95.5143L99.0847 2.98564L103.375 10.6516Z" fill="#C1C1C1"/>
</svg>
