<svg width="20" height="20" viewBox="0 0 20 20" fill="none" xmlns="http://www.w3.org/2000/svg">
<path d="M0.585938 6.24555C0.909531 6.24555 1.17188 5.9832 1.17188 5.65961V2.34496C1.17188 1.69813 1.69813 1.17188 2.345 1.17188H5.64453C5.96812 1.17188 6.23047 0.909531 6.23047 0.585938C6.23047 0.262344 5.96812 0 5.64453 0H2.345C1.05195 0 0 1.05195 0 2.34496V5.65957C0 5.9832 0.262344 6.24555 0.585938 6.24555Z" fill="#A0AABB"/>
<path d="M5.64453 18.8281H2.345C1.69813 18.8281 1.17188 18.3019 1.17188 17.655V14.3513C1.17188 14.0277 0.909531 13.7654 0.585938 13.7654C0.262344 13.7654 0 14.0277 0 14.3513V17.655C0 18.948 1.05195 20 2.345 20H5.64453C5.96812 20 6.23047 19.7376 6.23047 19.4141C6.23047 19.0905 5.96812 18.8281 5.64453 18.8281Z" fill="#A0AABB"/>
<path d="M19.4137 13.7654C19.0901 13.7654 18.8277 14.0277 18.8277 14.3513V17.655C18.8277 18.3019 18.3015 18.8281 17.6546 18.8281H14.3574C14.0338 18.8281 13.7715 19.0905 13.7715 19.4141C13.7715 19.7376 14.0338 20 14.3574 20H17.6546C18.9477 20 19.9996 18.948 19.9996 17.655V14.3513C19.9996 14.0277 19.7373 13.7654 19.4137 13.7654Z" fill="#A0AABB"/>
<path d="M17.6546 0H14.3574C14.0338 0 13.7715 0.262344 13.7715 0.585937C13.7715 0.909531 14.0338 1.17187 14.3574 1.17187H17.6546C18.3015 1.17187 18.8277 1.69812 18.8277 2.34496V5.65957C18.8277 5.98316 19.0901 6.24551 19.4137 6.24551C19.7373 6.24551 19.9996 5.98316 19.9996 5.65957V2.34496C19.9996 1.05195 18.9477 0 17.6546 0Z" fill="#A0AABB"/>
<path d="M2.31934 3.06937V8.6389C2.31934 9.04019 2.64582 9.36671 3.04715 9.36671H8.61668C9.01797 9.36671 9.34449 9.04023 9.34449 8.6389V3.06937C9.34449 2.66808 9.01801 2.34155 8.61668 2.34155H3.04715C2.64582 2.34155 2.31934 2.66808 2.31934 3.06937ZM3.49121 3.51343H8.17258V8.19483H3.49121V3.51343Z" fill="#A0AABB"/>
<path d="M11.3616 9.36671H16.9311C17.3324 9.36671 17.6589 9.04023 17.6589 8.6389V3.06937C17.6589 2.66808 17.3325 2.34155 16.9311 2.34155H11.3616C10.9603 2.34155 10.6338 2.66804 10.6338 3.06937V8.6389C10.6338 9.04023 10.9603 9.36671 11.3616 9.36671ZM11.8057 3.51343H16.4871V8.19483H11.8057V3.51343Z" fill="#A0AABB"/>
<path d="M8.62742 10.637H3.05789C2.6566 10.637 2.33008 10.9634 2.33008 11.3648V16.9343C2.33008 17.3356 2.65656 17.6621 3.05789 17.6621H8.62742C9.02871 17.6621 9.35523 17.3356 9.35523 16.9343V11.3648C9.35523 10.9634 9.02875 10.637 8.62742 10.637ZM8.18336 16.4902H3.50195V11.8088H8.18336V16.4902Z" fill="#A0AABB"/>
<path d="M14.4238 17.0763C14.4238 17.3999 14.6862 17.6622 15.0098 17.6622H16.9423C17.3436 17.6622 17.6702 17.3357 17.6702 16.9344V15.1165C17.6702 14.7929 17.4078 14.5305 17.0842 14.5305C16.7606 14.5305 16.4983 14.7929 16.4983 15.1165V16.4903H15.0098C14.6861 16.4903 14.4238 16.7527 14.4238 17.0763Z" fill="#A0AABB"/>
<path d="M6.7475 4.24609H4.91555C4.53402 4.24609 4.22363 4.55648 4.22363 4.93801V6.76996C4.22363 7.15152 4.53402 7.46191 4.91555 7.46191H6.7475C7.12906 7.46191 7.43945 7.15152 7.43945 6.76996V4.93801C7.43945 4.55648 7.12902 4.24609 6.7475 4.24609ZM6.26758 6.29004H5.39547V5.41797H6.26758V6.29004Z" fill="#A0AABB"/>
<path d="M13.5205 13.1633C13.5205 12.8397 13.2582 12.5774 12.9346 12.5774H11.5252C11.1177 12.5774 10.7861 12.909 10.7861 13.3165V15.1165C10.7861 15.44 11.0485 15.7024 11.3721 15.7024C11.6957 15.7024 11.958 15.44 11.958 15.1165V13.7493H12.9346C13.2582 13.7493 13.5205 13.487 13.5205 13.1633Z" fill="#A0AABB"/>
<path d="M11.2197 11.9507H14.7841V14.5304H13.2949C12.9713 14.5304 12.7089 14.7928 12.7089 15.1163C12.7089 15.4399 12.9713 15.7023 13.2949 15.7023H15.3274C15.674 15.7023 15.956 15.4203 15.956 15.0737V11.5179C15.956 11.1104 15.6244 10.7788 15.2168 10.7788H11.2197C10.8961 10.7788 10.6338 11.0412 10.6338 11.3647C10.6338 11.6883 10.8961 11.9507 11.2197 11.9507Z" fill="#A0AABB"/>
<path d="M17.0732 13.7492C17.3968 13.7492 17.6592 13.4868 17.6592 13.1632V11.3647C17.6592 11.0412 17.3968 10.7788 17.0732 10.7788C16.7496 10.7788 16.4873 11.0412 16.4873 11.3647V13.1632C16.4873 13.4869 16.7496 13.7492 17.0732 13.7492Z" fill="#A0AABB"/>
<path d="M14.0289 17.0762C14.0289 16.7526 13.7666 16.4902 13.443 16.4902H11.2197C10.8961 16.4902 10.6338 16.7526 10.6338 17.0762C10.6338 17.3998 10.8961 17.6621 11.2197 17.6621H13.443C13.7666 17.6621 14.0289 17.3998 14.0289 17.0762Z" fill="#A0AABB"/>
<path d="M15.062 4.24609H13.23C12.8485 4.24609 12.5381 4.55648 12.5381 4.93801V6.76996C12.5381 7.15152 12.8485 7.46191 13.23 7.46191H15.062C15.4435 7.46191 15.7539 7.15152 15.7539 6.76996V4.93801C15.7539 4.55648 15.4435 4.24609 15.062 4.24609ZM14.582 6.29004H13.7099V5.41797H14.582V6.29004Z" fill="#A0AABB"/>
<path d="M4.91555 15.7576H6.7475C7.12906 15.7576 7.43945 15.4472 7.43945 15.0657V13.2337C7.43945 12.8521 7.12906 12.5417 6.7475 12.5417H4.91555C4.53402 12.5417 4.22363 12.8521 4.22363 13.2337V15.0657C4.22363 15.4472 4.53402 15.7576 4.91555 15.7576ZM5.39551 13.7136H6.26762V14.5857H5.39551V13.7136Z" fill="#A0AABB"/>
</svg>
