<?xml version="1.0" encoding="utf-8"?>
<!-- Generator: Adobe Illustrator 22.0.0, SVG Export Plug-In . SVG Version: 6.00 Build 0)  -->
<svg version="1.1" id="Layer_1" xmlns="http://www.w3.org/2000/svg" xmlns:xlink="http://www.w3.org/1999/xlink" x="0px" y="0px"
	 viewBox="0 0 30 30" style="enable-background:new 0 0 30 30;" xml:space="preserve">
<style type="text/css">
	.st0{fill:#28262E;}
	.st1{fill:none;}
	.st2{fill:#FFFFFF;}
</style>
<path class="st0" d="M15,30c8.3,0,15-6.7,15-15c0-8.3-6.7-15-15-15C6.7,0,0,6.7,0,15C0,23.3,6.7,30,15,30z"/>
<g>
	<rect x="10.6" y="10.6" class="st1" width="0.6" height="0.6"/>
	<path class="st1" d="M13.1,8.8H8.8v4.3h4.3V8.8z M12.6,11.8c0,0.4-0.4,0.8-0.8,0.8H10c-0.4,0-0.8-0.4-0.8-0.8v-1.8
		c0-0.4,0.4-0.8,0.8-0.8h1.8c0.4,0,0.8,0.4,0.8,0.8V11.8z"/>
	<path class="st1" d="M8.8,21.2h4.3v-4.3H8.8V21.2z M9.2,18.2c0-0.4,0.4-0.8,0.8-0.8h1.8c0.4,0,0.8,0.4,0.8,0.8v1.8
		c0,0.4-0.4,0.8-0.8,0.8H10c-0.4,0-0.8-0.4-0.8-0.8V18.2z"/>
	<rect x="18.8" y="10.6" class="st1" width="0.6" height="0.6"/>
	<path class="st1" d="M21.2,8.8h-4.3v4.3h4.3V8.8z M20.8,11.8c0,0.4-0.4,0.8-0.8,0.8h-1.8c-0.4,0-0.8-0.4-0.8-0.8v-1.8
		c0-0.4,0.4-0.8,0.8-0.8H20c0.4,0,0.8,0.4,0.8,0.8V11.8z"/>
	<rect x="10.6" y="18.8" class="st1" width="0.6" height="0.6"/>
	<path class="st2" d="M8.2,14.3h5.4c0.3,0,0.6-0.3,0.6-0.6V8.2c0-0.3-0.3-0.6-0.6-0.6H8.2c-0.3,0-0.6,0.3-0.6,0.6v5.4
		C7.6,14,7.9,14.3,8.2,14.3z M8.5,8.5h4.8v4.8H8.5V8.5z"/>
	<path class="st2" d="M16.3,14.3h5.4c0.3,0,0.6-0.3,0.6-0.6V8.2c0-0.3-0.3-0.6-0.6-0.6h-5.4c-0.3,0-0.6,0.3-0.6,0.6v5.4
		C15.7,14,16,14.3,16.3,14.3z M16.6,8.5h4.8v4.8h-4.8V8.5z"/>
	<path class="st2" d="M13.7,15.7H8.2c-0.3,0-0.6,0.3-0.6,0.6v5.4c0,0.3,0.3,0.6,0.6,0.6h5.4c0.3,0,0.6-0.3,0.6-0.6v-5.4
		C14.3,16,14,15.7,13.7,15.7z M13.4,21.5H8.5v-4.8h4.8V21.5z"/>
	<path class="st2" d="M21.9,19.5c-0.2,0-0.4,0.2-0.4,0.4v1.5h-1.6c-0.2,0-0.4,0.2-0.4,0.4s0.2,0.4,0.4,0.4h1.9
		c0.3,0,0.6-0.3,0.6-0.6V20C22.4,19.8,22.2,19.5,21.9,19.5z"/>
	<path class="st2" d="M11.8,9.5H10c-0.3,0-0.6,0.2-0.6,0.6v1.8c0,0.3,0.2,0.6,0.6,0.6h1.8c0.3,0,0.6-0.2,0.6-0.6v-1.8
		C12.4,9.7,12.1,9.5,11.8,9.5z M11.5,11.5h-1.1v-1.1h1.1V11.5z"/>
	<path class="st2" d="M17.9,17.6h-1.4c-0.3,0-0.6,0.3-0.6,0.6V20c0,0.2,0.2,0.4,0.4,0.4s0.4-0.2,0.4-0.4v-1.5h1.1
		c0.2,0,0.4-0.2,0.4-0.4S18.1,17.6,17.9,17.6z"/>
	<path class="st2" d="M16.2,16.8h3.6v2.8h-1.6c-0.2,0-0.4,0.2-0.4,0.4s0.2,0.4,0.4,0.4h2c0.3,0,0.5-0.2,0.5-0.5v-3.5
		c0-0.3-0.3-0.6-0.6-0.6h-3.9c-0.2,0-0.4,0.2-0.4,0.4S16,16.8,16.2,16.8z"/>
	<path class="st2" d="M21.5,16.3v1.8c0,0.2,0.2,0.4,0.4,0.4s0.4-0.2,0.4-0.4v-1.8c0-0.2-0.2-0.4-0.4-0.4S21.5,16.1,21.5,16.3z"/>
	<path class="st2" d="M18.4,21.5h-2.2c-0.2,0-0.4,0.2-0.4,0.4s0.2,0.4,0.4,0.4h2.2c0.2,0,0.4-0.2,0.4-0.4S18.6,21.5,18.4,21.5z"/>
	<path class="st2" d="M20,9.5h-1.8c-0.3,0-0.6,0.2-0.6,0.6v1.8c0,0.3,0.2,0.6,0.6,0.6H20c0.3,0,0.6-0.2,0.6-0.6v-1.8
		C20.5,9.7,20.3,9.5,20,9.5z M19.6,11.5h-1.1v-1.1h1.1V11.5z"/>
	<path class="st2" d="M10,20.5h1.8c0.3,0,0.6-0.2,0.6-0.6v-1.8c0-0.3-0.2-0.6-0.6-0.6H10c-0.3,0-0.6,0.2-0.6,0.6v1.8
		C9.5,20.3,9.7,20.5,10,20.5z M10.4,18.5h1.1v1.1h-1.1V18.5z"/>
</g>
</svg>
