<svg width="30" height="30" viewBox="0 0 30 30" fill="none" xmlns="http://www.w3.org/2000/svg">
<path fill-rule="evenodd" clip-rule="evenodd" d="M15 30C23.2843 30 30 23.2843 30 15C30 6.71573 23.2843 0 15 0C6.71573 0 0 6.71573 0 15C0 23.2843 6.71573 30 15 30Z" fill="#28262E"/>
<path d="M7.93945 12.1842C8.18215 12.1842 8.37891 11.9874 8.37891 11.7447V9.25872C8.37891 8.77359 8.77359 8.37891 9.25875 8.37891H11.7334C11.9761 8.37891 12.1729 8.18215 12.1729 7.93945C12.1729 7.69676 11.9761 7.5 11.7334 7.5H9.25875C8.28896 7.5 7.5 8.28896 7.5 9.25872V11.7447C7.5 11.9874 7.69676 12.1842 7.93945 12.1842Z" fill="white"/>
<path d="M11.7334 21.6211H9.25875C8.77359 21.6211 8.37891 21.2264 8.37891 20.7413V18.2635C8.37891 18.0208 8.18215 17.824 7.93945 17.824C7.69676 17.824 7.5 18.0208 7.5 18.2635V20.7413C7.5 21.711 8.28896 22.5 9.25875 22.5H11.7334C11.9761 22.5 12.1729 22.3032 12.1729 22.0605C12.1729 21.8178 11.9761 21.6211 11.7334 21.6211Z" fill="white"/>
<path d="M22.0607 17.824C21.818 17.824 21.6213 18.0208 21.6213 18.2635V20.7413C21.6213 21.2264 21.2266 21.6211 20.7414 21.6211H18.2686C18.0259 21.6211 17.8291 21.8178 17.8291 22.0605C17.8291 22.3032 18.0259 22.5 18.2686 22.5H20.7414C21.7112 22.5 22.5002 21.711 22.5002 20.7413V18.2635C22.5002 18.0208 22.3034 17.824 22.0607 17.824Z" fill="white"/>
<path d="M20.7414 7.5H18.2686C18.0259 7.5 17.8291 7.69676 17.8291 7.93945C17.8291 8.18215 18.0259 8.37891 18.2686 8.37891H20.7414C21.2266 8.37891 21.6213 8.77359 21.6213 9.25872V11.7447C21.6213 11.9874 21.818 12.1841 22.0607 12.1841C22.3034 12.1841 22.5002 11.9874 22.5002 11.7447V9.25872C22.5002 8.28896 21.7112 7.5 20.7414 7.5Z" fill="white"/>
<path d="M9.23926 9.80198V13.9791C9.23926 14.2801 9.48412 14.525 9.78512 14.525H13.9623C14.2632 14.525 14.5081 14.2801 14.5081 13.9791V9.80198C14.5081 9.50101 14.2633 9.25612 13.9623 9.25612H9.78512C9.48412 9.25612 9.23926 9.50101 9.23926 9.80198ZM10.1182 10.135H13.6292V13.6461H10.1182V10.135Z" fill="white"/>
<path d="M16.021 14.525H20.1981C20.4991 14.525 20.744 14.2801 20.744 13.9791V9.80198C20.744 9.50101 20.4991 9.25612 20.1981 9.25612H16.021C15.72 9.25612 15.4751 9.50098 15.4751 9.80198V13.9791C15.4751 14.2801 15.72 14.525 16.021 14.525ZM16.354 10.135H19.8651V13.6461H16.354V10.135Z" fill="white"/>
<path d="M13.9706 15.4777H9.79342C9.49245 15.4777 9.24756 15.7226 9.24756 16.0236V20.2007C9.24756 20.5017 9.49242 20.7466 9.79342 20.7466H13.9706C14.2715 20.7466 14.5164 20.5017 14.5164 20.2007V16.0236C14.5164 15.7226 14.2716 15.4777 13.9706 15.4777ZM13.6375 19.8677H10.1265V16.3566H13.6375V19.8677Z" fill="white"/>
<path d="M18.3176 20.3071C18.3176 20.5498 18.5144 20.7466 18.7571 20.7466H20.2065C20.5075 20.7466 20.7524 20.5017 20.7524 20.2007V18.8373C20.7524 18.5946 20.5556 18.3978 20.3129 18.3978C20.0702 18.3978 19.8735 18.5946 19.8735 18.8373V19.8677H18.7571C18.5144 19.8677 18.3176 20.0644 18.3176 20.3071Z" fill="white"/>
<path d="M12.5609 10.6846H11.1869C10.9008 10.6846 10.668 10.9174 10.668 11.2036V12.5775C10.668 12.8637 10.9008 13.0965 11.1869 13.0965H12.5609C12.847 13.0965 13.0798 12.8637 13.0798 12.5775V11.2036C13.0798 10.9174 12.847 10.6846 12.5609 10.6846ZM12.2009 12.2176H11.5468V11.5635H12.2009V12.2176Z" fill="white"/>
<path d="M17.6409 17.3724C17.6409 17.1297 17.4441 16.933 17.2014 16.933H16.1444C15.8388 16.933 15.5901 17.1817 15.5901 17.4873V18.8373C15.5901 19.08 15.7868 19.2767 16.0295 19.2767C16.2722 19.2767 16.469 19.08 16.469 18.8373V17.8119H17.2014C17.4441 17.8119 17.6409 17.6152 17.6409 17.3724Z" fill="white"/>
<path d="M15.9146 16.463H18.5879V18.3978H17.4709C17.2282 18.3978 17.0315 18.5946 17.0315 18.8373C17.0315 19.08 17.2282 19.2767 17.4709 19.2767H18.9953C19.2553 19.2767 19.4667 19.0652 19.4667 18.8053V16.1385C19.4667 15.8328 19.2181 15.5841 18.9124 15.5841H15.9146C15.6719 15.5841 15.4751 15.7809 15.4751 16.0236C15.4751 16.2663 15.6719 16.463 15.9146 16.463Z" fill="white"/>
<path d="M20.3047 17.8119C20.5474 17.8119 20.7441 17.6151 20.7441 17.3724V16.0236C20.7441 15.7809 20.5474 15.5841 20.3047 15.5841C20.062 15.5841 19.8652 15.7809 19.8652 16.0236V17.3724C19.8652 17.6152 20.062 17.8119 20.3047 17.8119Z" fill="white"/>
<path d="M18.0215 20.3071C18.0215 20.0644 17.8247 19.8677 17.582 19.8677H15.9146C15.6719 19.8677 15.4751 20.0644 15.4751 20.3071C15.4751 20.5498 15.6719 20.7466 15.9146 20.7466H17.582C17.8247 20.7466 18.0215 20.5499 18.0215 20.3071Z" fill="white"/>
<path d="M18.7967 10.6846H17.4227C17.1366 10.6846 16.9038 10.9174 16.9038 11.2036V12.5775C16.9038 12.8637 17.1366 13.0965 17.4227 13.0965H18.7967C19.0829 13.0965 19.3157 12.8637 19.3157 12.5775V11.2036C19.3157 10.9174 19.0829 10.6846 18.7967 10.6846ZM18.4368 12.2176H17.7827V11.5635H18.4368V12.2176Z" fill="white"/>
<path d="M11.1869 19.3181H12.5609C12.847 19.3181 13.0798 19.0853 13.0798 18.7992V17.4252C13.0798 17.139 12.847 16.9062 12.5609 16.9062H11.1869C10.9008 16.9062 10.668 17.139 10.668 17.4252V18.7992C10.668 19.0853 10.9008 19.3181 11.1869 19.3181ZM11.5469 17.7851H12.201V18.4392H11.5469V17.7851Z" fill="white"/>
</svg>
