<svg width="188" height="146" viewBox="0 0 188 146" fill="none" xmlns="http://www.w3.org/2000/svg">
<mask id="mask0" mask-type="alpha" maskUnits="userSpaceOnUse" x="0" y="18" width="94" height="119">
<path fill-rule="evenodd" clip-rule="evenodd" d="M84.1559 136.918H76.9618L75.4865 124.947C76.3576 124.797 76.8535 124.706 76.8535 124.706L76.6361 120.876C79.1713 124.14 81.7073 127.404 84.2449 130.666V136.873C84.2147 136.888 84.1861 136.903 84.1559 136.918ZM84.2449 127.451C81.6579 124.123 79.0716 120.795 76.4884 117.465L76.4954 117.429C77.0145 111.822 77.0771 106.221 76.6926 100.643C77.8252 100.855 78.5888 100.974 78.8728 100.974C78.8913 100.974 78.9076 100.974 78.9215 100.972C79.9969 100.9 81.7066 100.137 83.062 99.0908C83.5061 98.748 83.9115 98.3751 84.2449 97.9852V127.451ZM85.0332 94.1588C84.8035 91.8774 84.3014 88.8942 84.1668 88.1144L87.5994 87.0916C87.5994 87.0916 87.1352 85.1815 86.3871 82.5883C86.4529 82.6099 86.5179 82.6316 86.5828 82.6548C88.8078 83.4269 90.858 84.534 92.7023 85.9033L93.1363 92.668H88.0582C86.8258 92.668 85.7303 93.2521 85.0332 94.1588ZM21.8725 88.3062C21.7418 88.1329 21.6126 87.9596 21.4842 87.7848L21.9282 87.9178C21.9104 88.0432 21.8919 88.1731 21.8725 88.3062ZM19.67 85.0987C17.2725 81.212 15.5867 76.9252 14.9771 72.329C14.6127 69.5803 14.8239 66.7874 14.4765 64.0457C14.0928 61.013 12.5656 57.8465 10.989 55.2416C9.50049 52.7838 7.32579 50.7878 5.70269 48.4104C4.29699 46.351 3.11796 44.143 2.17954 41.8329C-0.444646 35.3723 -1.80703 25.4883 4.68458 20.7002C6.5653 19.3131 8.51565 18.7297 10.4513 18.7297C16.4106 18.7297 22.2307 24.262 25.446 28.924C27.4946 31.8932 29.3706 35.1796 31.8316 37.8727C32.3383 40.3383 33.9212 42.2112 36.3164 42.2112C36.5817 42.2112 36.8564 42.188 37.1419 42.1401C37.4211 43.6533 37.7453 44.9244 38.1043 45.8133C39.3645 48.9373 42.7554 52.1169 46.7396 54.7821C47.2742 55.1403 47.8305 55.4521 48.4014 55.719L48.3944 59.1013C46.7373 59.54 43.6582 60.4041 40.2411 61.6041C40.0964 57.4666 39.7575 53.3393 39.2245 49.2204C39.1433 48.5899 38.5994 48.2719 38.0988 48.2719C37.6006 48.2719 37.1457 48.586 37.2277 49.2204C37.7917 53.5775 38.1383 57.9447 38.269 62.322C37.1666 62.7374 36.0502 63.1854 34.9555 63.6619C30.8498 58.3176 26.7488 52.971 22.6508 47.6213C22.7065 47.506 22.7436 47.3753 22.7522 47.2252C23.0229 42.5648 23.0833 37.9075 22.9332 33.2417C22.9123 32.6003 22.4017 32.2785 21.9019 32.2785C21.4037 32.2785 20.9155 32.5988 20.9364 33.2417C21.0656 37.2538 21.0293 41.2589 20.8475 45.2656C17.3537 40.7026 13.8545 36.1444 10.3662 31.5776C10.1395 31.2813 9.82929 31.1575 9.5237 31.1575C8.79261 31.1575 8.09169 31.8646 8.64252 32.5856C13.4592 38.8923 18.289 45.1898 23.1165 51.4887C19.2213 49.8153 15.2788 48.2596 11.2729 46.8515C11.1538 46.809 11.04 46.7896 10.9348 46.7896C9.97241 46.7896 9.65522 48.3942 10.7422 48.7763C15.7855 50.5503 20.7353 52.5416 25.6061 54.7396C28.1042 57.9966 30.6038 61.2513 33.105 64.506C30.0507 65.9689 27.3259 67.657 25.7338 69.5037C24.9029 70.4669 24.0612 72.1116 23.2697 74.0194C22.404 73.6566 21.5414 73.2829 20.6827 72.8976C20.5341 72.8311 20.3887 72.8017 20.251 72.8017C19.3071 72.8017 18.7153 74.1989 19.7396 74.6577C20.6703 75.0754 21.6049 75.4801 22.544 75.8731C21.3093 79.2036 20.261 82.8915 19.67 85.0987ZM67.7246 62.0381C63.5539 60.5086 59.6857 59.4456 57.9852 59.0023L57.986 58.2248C57.9875 58.2248 57.9891 58.224 57.9899 58.224V56.129C58.936 55.7809 59.8497 55.3151 60.7084 54.7303C61.4117 54.2514 62.0948 53.7563 62.7485 53.2488C64.3879 55.1728 65.7595 57.3243 66.7908 59.6305C67.1428 60.4165 67.4546 61.2196 67.7246 62.0381Z" fill="white"/>
</mask>
<g mask="url(#mask0)">
<path fill-rule="evenodd" clip-rule="evenodd" d="M84.1559 136.918H76.9618L75.4865 124.947C76.3576 124.797 76.8535 124.706 76.8535 124.706L76.6361 120.876C79.1713 124.14 81.7073 127.404 84.2449 130.666V136.873C84.2147 136.888 84.1861 136.903 84.1559 136.918ZM84.2449 127.451C81.6579 124.123 79.0716 120.795 76.4884 117.465L76.4954 117.429C77.0145 111.822 77.0771 106.221 76.6926 100.643C77.8252 100.855 78.5888 100.974 78.8728 100.974C78.8913 100.974 78.9076 100.974 78.9215 100.972C79.9969 100.9 81.7066 100.137 83.062 99.0908C83.5061 98.748 83.9115 98.3751 84.2449 97.9852V127.451ZM85.0332 94.1588C84.8035 91.8774 84.3014 88.8942 84.1668 88.1144L87.5994 87.0916C87.5994 87.0916 87.1352 85.1815 86.3871 82.5883C86.4529 82.6099 86.5179 82.6316 86.5828 82.6548C88.8078 83.4269 90.858 84.534 92.7023 85.9033L93.1363 92.668H88.0582C86.8258 92.668 85.7303 93.2521 85.0332 94.1588ZM21.8725 88.3062C21.7418 88.1329 21.6126 87.9596 21.4842 87.7848L21.9282 87.9178C21.9104 88.0432 21.8919 88.1731 21.8725 88.3062ZM19.67 85.0987C17.2725 81.212 15.5867 76.9252 14.9771 72.329C14.6127 69.5803 14.8239 66.7874 14.4765 64.0457C14.0928 61.013 12.5656 57.8465 10.989 55.2416C9.50049 52.7838 7.32579 50.7878 5.70269 48.4104C4.29699 46.351 3.11796 44.143 2.17954 41.8329C-0.444646 35.3723 -1.80703 25.4883 4.68458 20.7002C6.5653 19.3131 8.51565 18.7297 10.4513 18.7297C16.4106 18.7297 22.2307 24.262 25.446 28.924C27.4946 31.8932 29.3706 35.1796 31.8316 37.8727C32.3383 40.3383 33.9212 42.2112 36.3164 42.2112C36.5817 42.2112 36.8564 42.188 37.1419 42.1401C37.4211 43.6533 37.7453 44.9244 38.1043 45.8133C39.3645 48.9373 42.7554 52.1169 46.7396 54.7821C47.2742 55.1403 47.8305 55.4521 48.4014 55.719L48.3944 59.1013C46.7373 59.54 43.6582 60.4041 40.2411 61.6041C40.0964 57.4666 39.7575 53.3393 39.2245 49.2204C39.1433 48.5899 38.5994 48.2719 38.0988 48.2719C37.6006 48.2719 37.1457 48.586 37.2277 49.2204C37.7917 53.5775 38.1383 57.9447 38.269 62.322C37.1666 62.7374 36.0502 63.1854 34.9555 63.6619C30.8498 58.3176 26.7488 52.971 22.6508 47.6213C22.7065 47.506 22.7436 47.3753 22.7522 47.2252C23.0229 42.5648 23.0833 37.9075 22.9332 33.2417C22.9123 32.6003 22.4017 32.2785 21.9019 32.2785C21.4037 32.2785 20.9155 32.5988 20.9364 33.2417C21.0656 37.2538 21.0293 41.2589 20.8475 45.2656C17.3537 40.7026 13.8545 36.1444 10.3662 31.5776C10.1395 31.2813 9.82929 31.1575 9.5237 31.1575C8.79261 31.1575 8.09169 31.8646 8.64252 32.5856C13.4592 38.8923 18.289 45.1898 23.1165 51.4887C19.2213 49.8153 15.2788 48.2596 11.2729 46.8515C11.1538 46.809 11.04 46.7896 10.9348 46.7896C9.97241 46.7896 9.65522 48.3942 10.7422 48.7763C15.7855 50.5503 20.7353 52.5416 25.6061 54.7396C28.1042 57.9966 30.6038 61.2513 33.105 64.506C30.0507 65.9689 27.3259 67.657 25.7338 69.5037C24.9029 70.4669 24.0612 72.1116 23.2697 74.0194C22.404 73.6566 21.5414 73.2829 20.6827 72.8976C20.5341 72.8311 20.3887 72.8017 20.251 72.8017C19.3071 72.8017 18.7153 74.1989 19.7396 74.6577C20.6703 75.0754 21.6049 75.4801 22.544 75.8731C21.3093 79.2036 20.261 82.8915 19.67 85.0987ZM67.7246 62.0381C63.5539 60.5086 59.6857 59.4456 57.9852 59.0023L57.986 58.2248C57.9875 58.2248 57.9891 58.224 57.9899 58.224V56.129C58.936 55.7809 59.8497 55.3151 60.7084 54.7303C61.4117 54.2514 62.0948 53.7563 62.7485 53.2488C64.3879 55.1728 65.7595 57.3243 66.7908 59.6305C67.1428 60.4165 67.4546 61.2196 67.7246 62.0381Z" fill="#FFABB1"/>
</g>
<path d="M72.2125 24H88.9707C91.1685 24 93 22.3057 93 20.1656C93 20.0764 93 20.0764 93 19.9873C93 16.6879 90.2528 13.9236 86.8645 13.8344C86.315 13.8344 85.674 13.9236 85.1245 14.0127C84.7582 11.7834 82.652 10 80.0879 10C77.4322 10 75.2344 11.8726 74.7766 14.3694C74.2271 14.1911 73.6777 14.1911 73.1282 14.1911C70.1978 14.2803 68 16.5987 68 19.4522C68 20.4331 68.2747 21.2357 68.7326 22.0382C69.4652 23.2866 70.7473 24 72.2125 24Z" fill="#F8F9F9"/>
<path fill-rule="evenodd" clip-rule="evenodd" d="M74.4311 117.113L53.6014 115.021V115L53.4996 115.011L53.3978 115V115.021L32.5689 117.113L30 137.919L30.6611 138H76.3381L77 137.919L74.4311 117.113Z" fill="#BF222C"/>
<path fill-rule="evenodd" clip-rule="evenodd" d="M74.3361 116.296L74.3453 116.197L53.6114 114.032L53.6014 114.131H53.6974V114L53.5 114.021L53.4086 114.011L53.3026 114V114.041L32.5787 116.205L30 137.904L30.7541 137.999L30.7595 138H76.2405L76.9048 137.916L77 137.904L74.4221 116.205L74.3453 116.197L74.3361 116.296L74.2409 116.308L76.7858 137.73L76.229 137.801H30.7718L30.2143 137.73L32.7507 116.387L53.4946 114.221V114.11H53.3986L53.3894 114.209L53.4908 114.22L53.5 114.221L53.6106 114.209L53.6014 114.11H53.5054V114.221L74.3261 116.395L74.3361 116.296L74.2409 116.308L74.3361 116.296Z" fill="#293B83"/>
<path fill-rule="evenodd" clip-rule="evenodd" d="M53.236 127C63.3285 126.724 77 124.253 77 124.253L73.911 70.7107C74.1357 68.3632 74.1778 67.1557 71.6772 66.3641C68.2331 65.2722 54.2933 59.0276 54.2933 59.0276L54.0966 59.0176V59H51.791V59.0176L51.6006 59.0276C51.6006 59.0276 38.1375 65.2722 34.8105 66.3641C32.3956 67.1557 32.4799 68.3632 32.6968 70.7107L29 124.253C29 124.253 42.8556 126.721 52.6009 126.999L53.236 127Z" fill="#FF2D3B"/>
<path fill-rule="evenodd" clip-rule="evenodd" d="M22.2945 86C22.2945 86 20.4432 97.6913 21.1685 98.9021C21.8937 100.113 33.9277 103.337 42.0837 101.388C50.2398 99.4399 60 95.0001 60 95.0001L39.8107 89.637L31.1194 90.4414C31.1194 90.4414 24.9692 88.7045 22.2945 86Z" fill="#FFB5B1"/>
<mask id="mask1" mask-type="alpha" maskUnits="userSpaceOnUse" x="20" y="85" width="41" height="17">
<path fill-rule="evenodd" clip-rule="evenodd" d="M22.2686 85.6534C22.2686 85.6534 20.4142 97.2921 21.1407 98.4974C21.8671 99.7027 33.9212 102.913 42.0908 100.972C50.2604 99.0328 60.0369 94.613 60.0369 94.613L39.814 89.2741L31.1082 90.0748C31.1082 90.0748 24.9477 88.3457 22.2686 85.6534Z" fill="white"/>
</mask>
<g mask="url(#mask1)">
<path fill-rule="evenodd" clip-rule="evenodd" d="M36.2189 101.581C29.1115 101.581 21.7055 99.4342 21.1407 98.4974C21.1214 98.4656 21.1043 98.427 21.0889 98.3813C23.7974 98.4757 26.1717 98.5182 28.2597 98.5182C43.7604 98.5182 43.2614 96.1726 43.2614 95.3084C43.2614 94.7073 40.0446 93.2049 37.5086 92.1133C41.8015 93.0316 48.9917 94.6446 56.1912 96.2453C52.5938 97.7067 47.0468 99.7963 42.0909 100.972C40.2697 101.405 38.2567 101.581 36.2189 101.581Z" fill="#EB9592"/>
</g>
<path fill-rule="evenodd" clip-rule="evenodd" d="M19 86.894L29.7215 90L34.1771 88.748L36.3431 86.7591L50 81.6307L49.9185 59C49.9185 59 31.15 63.3824 25.6631 69.5701C22.415 73.2324 19 86.894 19 86.894Z" fill="#FF2D3B"/>
<path fill-rule="evenodd" clip-rule="evenodd" d="M30.0318 90L30 89.9933C30 89.9933 31.2219 82.262 32.6372 77L33 86.5239C31.4835 87.6279 30.477 89.2039 30.0318 90Z" fill="#BF222C"/>
<path fill-rule="evenodd" clip-rule="evenodd" d="M88 86.894L77.2503 90L72.7828 88.748L70.6112 86.7591L57 81.6307V59C57 59 75.8179 63.3824 81.3201 69.5701C84.5768 73.2324 88 86.894 88 86.894Z" fill="#FF2D3B"/>
<path fill-rule="evenodd" clip-rule="evenodd" d="M76.5952 88.1546L73.342 87.9635L73.3436 87.9349L76.5024 87.6881C76.5349 87.8498 76.5658 88.0053 76.5952 88.1546ZM76.1689 86.0588C75.3365 86.0457 74.4754 86.0426 73.7954 86.0426C73.6646 86.0426 73.5408 86.0426 73.4256 86.0426L73.4325 85.8886L76.0946 85.7076C76.1202 85.8259 76.1449 85.9428 76.1689 86.0588ZM73.5122 84.0535L73.8356 76.6196C74.5373 78.8995 75.198 81.6235 75.7318 84.0295C75.0912 84.0319 74.306 84.0419 73.5122 84.0535Z" fill="#BF222C"/>
<path fill-rule="evenodd" clip-rule="evenodd" d="M69 85C69 85 70.2676 81.8859 70.647 81.2117C71.0264 80.5374 72.4124 81.5716 71.8796 82.9376C71.3475 84.3044 71.1027 84.8067 71.1027 84.8067L69 85Z" fill="#E59A98"/>
<path fill-rule="evenodd" clip-rule="evenodd" d="M60 90.6101C60 90.6101 69.2737 84.0887 69.7212 84.0887C70.168 84.0887 76.794 83.9404 77.23 84.0273C77.6218 84.1055 77.715 84.8049 77.6134 85.1549C77.5523 85.3639 77.3591 85.5115 77.1315 85.5225L72.602 85.817V85.9061C72.602 85.9061 76.7413 85.874 78.4657 85.9887C78.8331 86.0136 79.1118 86.3095 79.1065 86.6617C79.1011 87.0096 78.817 87.2946 78.4543 87.3158L73.2397 87.7046L79.4455 88.0524L80 89.7551L64.8045 92L60 90.6101Z" fill="#EEA4A0"/>
<path fill-rule="evenodd" clip-rule="evenodd" d="M83.9953 87.7116C83.9953 87.7116 85 93.5706 85 95.9224C85 98.2742 80.8305 100.86 78.8447 100.999C76.859 101.138 36.2539 91.3866 34.0701 91.1999C31.8856 91.014 30 90.5391 30 90.5391C30 90.5391 31.985 86.6444 35.6583 85.4031C39.3316 84.1619 43.5019 86.1277 45.9831 86.7302C48.4659 87.332 61.7689 89.2096 68.7179 89.0891C75.6677 88.9686 83.9953 87.7116 83.9953 87.7116Z" fill="#FFB5B1"/>
<mask id="mask2" mask-type="alpha" maskUnits="userSpaceOnUse" x="29" y="85" width="57" height="16">
<path fill-rule="evenodd" clip-rule="evenodd" d="M84.1327 87.921C84.1327 87.921 85.1492 93.6761 85.1492 95.9862C85.1492 98.2962 80.9306 100.836 78.9214 100.972C76.9123 101.109 35.8289 91.5308 33.6194 91.3474C31.4091 91.1648 29.5013 90.6983 29.5013 90.6983C29.5013 90.6983 31.5097 86.8727 35.2263 85.6534C38.9428 84.4342 43.1623 86.3652 45.6727 86.957C48.1847 87.5481 61.6445 89.3924 68.6754 89.2741C75.707 89.1557 84.1327 87.921 84.1327 87.921Z" fill="white"/>
</mask>
<g mask="url(#mask2)">
<path fill-rule="evenodd" clip-rule="evenodd" d="M78.8727 100.974C77.6078 100.975 66.889 98.6235 56.1911 96.2454C48.9916 94.6447 41.8014 93.0317 37.5085 92.1134C35.3934 91.6615 33.9823 91.3776 33.6194 91.3474C31.6559 91.185 29.9307 90.7989 29.5702 90.7154L29.5013 90.6984C29.5013 90.6984 43.4818 92.2209 57.9898 94.7569C72.4987 97.2936 83.9037 98.352 83.9037 98.352L83.062 99.0908C81.7065 100.138 79.9968 100.9 78.9214 100.972C78.9075 100.974 78.8913 100.974 78.8727 100.974Z" fill="#EC9794"/>
</g>
<path fill-rule="evenodd" clip-rule="evenodd" d="M59 11C60.6525 9.70158 59.5908 7.08686 61.5 8C64.7108 9.53656 72.9946 18.0513 74.1714 21.3201C74.6777 22.7255 74.8881 24.2157 74.9745 25.7007C75.1024 27.9001 74.7978 30.4264 72.9498 31.715C72.7175 31.8773 72.4459 32.0191 72.1601 31.9979C71.6255 31.9592 71.3178 31.4025 71.1435 30.9126C70.5916 29.3616 70.3545 27.7242 69.8874 26.1482C68.5426 21.6159 63.2744 17.9956 60 14.5L59 11Z" fill="#BF222C"/>
<path fill-rule="evenodd" clip-rule="evenodd" d="M60.5699 12.8105C64.6731 10.4122 69.9818 15.8126 71.4781 19.205C72.2501 20.9558 72.5857 22.8831 72.5949 24.8073C72.6049 26.8042 71.8552 30.3929 70.4952 26.9412C69.3614 24.0641 68.9842 21.3183 67.3117 18.6161C65.8061 16.1815 63.8965 13.302 61.4596 11.8242C60.8231 11.438 60.2558 12.182 60.5221 12.7883C61.816 15.7382 64.3545 18.0106 65.8693 20.902C67.4425 23.9058 67.4571 27.443 68.9527 30.3644C70.9308 34.227 74.1074 30.3945 74.7047 27.6361C75.6976 23.0533 74.1181 17.7162 70.9993 14.3673C68.1614 11.3208 63.4362 8.46905 59.5046 10.9362C58.347 11.6628 59.3853 13.503 60.5699 12.8105Z" fill="#BF222C"/>
<path fill-rule="evenodd" clip-rule="evenodd" d="M36.3381 31.9861C33.0682 27.2816 33.3295 20.5518 36.4887 15.7707C39.6479 10.9912 45.3401 8.19533 51.0376 8.00873C54.0916 7.90885 57.4237 8.65059 59.3495 11.0407C59.8698 11.6872 60.2625 12.6396 59.7837 13.3178C59.5755 13.6121 59.2427 13.787 58.9176 13.9403C55.7853 15.42 52.2995 15.9008 48.9243 16.6619C45.5483 17.4237 42.0979 18.5635 39.6502 21.0264C36.8691 23.8246 35.7886 28.217 36.9513 32" fill="#BF222C"/>
<path fill-rule="evenodd" clip-rule="evenodd" d="M36.1985 31.6943C32.2013 24.8712 34.4256 16.6397 41.3019 12.4719C44.3547 10.6213 48.1862 9.61303 51.7905 9.77522C53.3338 9.84407 55.4799 10.1034 56.7045 11.0834C60.2086 13.8871 55.2251 14.1182 53.292 14.5764C47.9589 15.8402 42.1533 16.4132 38.1364 20.5022C35.1136 23.5791 34.1723 28.3068 35.2233 32.343C35.5231 33.4944 37.36 33.0063 37.0601 31.8519C33.6831 18.8796 49.5512 19.1099 57.8391 16.046C64.878 13.445 58.6218 8.07001 53.9484 7.25604C40.09 4.8409 25.7976 19.9919 34.8256 32.4731C35.4047 33.274 36.7122 32.5718 36.1985 31.6943Z" fill="#BF222C"/>
<path fill-rule="evenodd" clip-rule="evenodd" d="M68.3295 33.1156C68.3295 33.1156 74.9037 29.8372 75.8326 34.5203C76.7616 39.2034 73.7599 43.8189 68.4008 41.2767C63.0409 38.7352 68.3295 33.1156 68.3295 33.1156Z" fill="#FFB5B1"/>
<path fill-rule="evenodd" clip-rule="evenodd" d="M72.2725 40L72.0807 39.9337C71.9497 39.8305 71.9289 39.6429 72.0352 39.5148C73.5179 37.7155 71.2099 35.8085 71.1105 35.7278L71.0881 35.7007L70.8985 35.77C70.7413 35.8401 70.3892 36.1008 70 37.075C70.0401 36.6026 70.0763 36.1264 70.1087 35.6465C70.2782 35.4498 70.4577 35.3104 70.6465 35.2268C71.008 35.0671 71.3509 35 71.6707 35C72.7866 35 73.6188 35.8175 73.9571 36.3675C74.0427 36.5092 73.9964 36.6915 73.8523 36.7759C73.803 36.8061 73.7483 36.8196 73.6943 36.8196C73.5918 36.8196 73.4909 36.7684 73.4339 36.675C73.403 36.626 72.8297 35.7286 71.8772 35.6118C72.8181 36.5589 73.8192 38.3002 72.5099 39.8885C72.449 39.9616 72.3612 40 72.2725 40Z" fill="#E7817E"/>
<path fill-rule="evenodd" clip-rule="evenodd" d="M39.6708 33.1156C39.6708 33.1156 33.0964 29.8372 32.1674 34.5203C31.2384 39.2034 34.2402 43.8189 39.5995 41.2767C44.9587 38.7352 39.6708 33.1156 39.6708 33.1156Z" fill="#FFB5B1"/>
<path fill-rule="evenodd" clip-rule="evenodd" d="M34.7306 40C34.6419 40 34.5531 39.9616 34.4929 39.8885C33.1815 38.3002 34.1834 36.5589 35.1266 35.6118C34.1726 35.7286 33.5983 36.626 33.5674 36.675C33.5103 36.7684 33.4092 36.8196 33.3057 36.8196C33.2525 36.8196 33.1977 36.8061 33.1483 36.7759C33.0039 36.6915 32.9568 36.5092 33.0433 36.3675C33.3822 35.8175 34.2158 35 35.3335 35C35.6531 35 35.9973 35.0671 36.3586 35.2268C36.5461 35.3097 36.7237 35.4468 36.8919 35.6389C36.9244 36.1151 36.9606 36.5898 37 37.0585C36.6125 36.0978 36.2628 35.8394 36.1069 35.77L35.917 35.7007L35.8947 35.7278C35.7951 35.8085 33.4833 37.7155 34.9684 39.5148C35.0741 39.6429 35.0533 39.8305 34.9221 39.9337L34.7306 40Z" fill="#E7817E"/>
<path fill-rule="evenodd" clip-rule="evenodd" d="M58 54.2512C58 51.9034 55.7643 50 53.0052 50C50.247 50 48.0105 51.9034 48.0105 54.2512L48 59.3575C47.9968 61.9208 50.2358 64 52.9972 64C55.7562 64 57.9935 61.9245 57.9952 59.3643L58 54.2512Z" fill="#EEA4A0"/>
<mask id="mask3" mask-type="alpha" maskUnits="userSpaceOnUse" x="48" y="49" width="10" height="21">
<path fill-rule="evenodd" clip-rule="evenodd" d="M57.9899 58.2241V56.129L57.9884 56.1298L57.9861 58.2248C57.9876 58.2248 57.9892 58.2241 57.9899 58.2241V66.1067C57.9899 67.876 56.5564 69.3103 54.7871 69.3103H51.6082C49.8389 69.3103 48.4045 67.876 48.4045 66.1067V50.8729C48.4045 50.138 49.001 49.5415 49.736 49.5415H56.6585C57.3942 49.5415 57.9899 50.138 57.9899 50.8729" fill="white"/>
</mask>
<g mask="url(#mask3)">
<path fill-rule="evenodd" clip-rule="evenodd" d="M54.7871 69.3103H51.6082C49.8389 69.3103 48.4045 67.876 48.4045 66.1067V50.8729C48.4045 50.138 49.001 49.5415 49.736 49.5415H56.6585C57.3942 49.5415 57.9899 50.138 57.9899 50.8729V66.1067C57.9899 67.876 56.5564 69.3103 54.7871 69.3103Z" fill="#FFB5B1"/>
</g>
<mask id="mask4" mask-type="alpha" maskUnits="userSpaceOnUse" x="48" y="49" width="10" height="21">
<path fill-rule="evenodd" clip-rule="evenodd" d="M54.7871 69.3103H51.6082C49.8389 69.3103 48.4045 67.876 48.4045 66.1067V50.8729C48.4045 50.138 49.001 49.5415 49.736 49.5415H56.6585C57.3942 49.5415 57.9899 50.138 57.9899 50.8729V66.1067C57.9899 67.876 56.5564 69.3103 54.7871 69.3103Z" fill="white"/>
</mask>
<g mask="url(#mask4)">
<path fill-rule="evenodd" clip-rule="evenodd" d="M53.8115 58.7455C51.9803 58.7455 50.1483 58.4507 48.4045 57.8612V55.7213C50.0787 56.5027 51.8836 56.8942 53.6885 56.8942C55.1453 56.8942 56.6013 56.6396 57.9884 56.1298L57.9861 58.2248C56.6214 58.5722 55.2164 58.7455 53.8115 58.7455Z" fill="#E17170"/>
</g>
<path fill-rule="evenodd" clip-rule="evenodd" d="M70.9715 26.4526C70.8351 21.7419 67.0317 18 62.3945 18H44.7634C40.0391 18 36.1617 21.8132 36.0269 26.6123C35.8342 33.4399 36.6949 42.3788 38.0465 45.7832C39.3017 48.9456 42.6791 52.1643 46.6474 54.8623C50.8662 57.7302 56.3649 57.7122 60.5605 54.8098C64.4457 52.122 67.7082 48.9268 68.9565 45.7832C70.3181 42.3522 71.1695 33.2997 70.9715 26.4526Z" fill="#FFB5B1"/>
<mask id="mask5" mask-type="alpha" maskUnits="userSpaceOnUse" x="46" y="44" width="15" height="8">
<path fill-rule="evenodd" clip-rule="evenodd" d="M60.9126 45.4736C60.6233 44.6543 59.5657 44.8717 57.6966 45.7815C55.6712 46.7664 52.1009 47.0047 49.5579 45.9734C47.6316 45.1912 46.6746 45.1123 46.3303 45.8171C45.9853 46.5219 48.1252 50.6709 52.1821 51.1722C52.9403 51.2666 54.0938 51.2991 55.32 51.0988C59.3538 50.4381 61.2329 46.3772 60.9126 45.4736Z" fill="white"/>
</mask>
<g mask="url(#mask5)">
<path fill-rule="evenodd" clip-rule="evenodd" d="M60.9126 45.4736C60.6233 44.6543 59.5657 44.8717 57.6966 45.7815C55.6712 46.7664 52.1009 47.0047 49.5579 45.9734C47.6316 45.1912 46.6746 45.1123 46.3303 45.8171C45.9853 46.5219 48.1252 50.6709 52.1821 51.1722C52.9403 51.2666 54.0938 51.2991 55.32 51.0988C59.3538 50.4381 61.2329 46.3772 60.9126 45.4736Z" fill="#7E322C"/>
<path fill-rule="evenodd" clip-rule="evenodd" d="M48.0795 44.9158C48.0795 44.9158 48.1475 47.803 53.1708 47.8912C58.1933 47.9786 59.6732 46.5683 59.6949 44.5739L48.0795 44.9158Z" fill="#FFFFFE"/>
<path fill-rule="evenodd" clip-rule="evenodd" d="M49.934 50.6492C49.934 50.6492 53.3898 48.4359 58.7341 50.5108L54.606 53.3593L49.934 50.6492Z" fill="#EEA4A0"/>
<path fill-rule="evenodd" clip-rule="evenodd" d="M53.4625 51.2465C52.972 51.2465 52.5342 51.2163 52.1822 51.1722C51.4209 51.0786 50.7277 50.8558 50.1057 50.5518C50.5846 50.2957 52.053 49.6234 54.2462 49.6234C55.2721 49.6234 56.4557 49.7704 57.7725 50.1758C57.0708 50.6114 56.2531 50.9456 55.32 51.0987C54.6632 51.2063 54.0273 51.2465 53.4625 51.2465Z" fill="#E88683"/>
</g>
<path fill-rule="evenodd" clip-rule="evenodd" d="M47 33.5003C47 34.3288 46.105 35 45.0004 35C43.8958 35 43 34.3288 43 33.5003C43 32.6719 43.8958 32 45.0004 32C46.105 32 47 32.6719 47 33.5003Z" fill="#282D49"/>
<path fill-rule="evenodd" clip-rule="evenodd" d="M64 33.5003C64 34.3288 63.105 35 62.0004 35C60.8958 35 60 34.3288 60 33.5003C60 32.6719 60.8958 32 62.0004 32C63.105 32 64 32.6719 64 33.5003Z" fill="#282D49"/>
<path fill-rule="evenodd" clip-rule="evenodd" d="M61.9089 14.0819C62.143 14.4729 61.8815 14.9752 61.6261 15.3509C60.1486 17.5293 58.6551 19.7262 56.7777 21.5257C54.9004 23.3259 52.5837 24.7215 50.0649 24.9851C49.7852 25.0141 49.4728 25.019 49.2592 24.8255C49.0426 24.6296 48.9992 24.2958 49 23.9943C49.0084 22.1819 50.0801 20.5767 51.2353 19.2417C53.5406 16.5804 56.3756 14.4391 59.501 13" fill="#BF222C"/>
<path fill-rule="evenodd" clip-rule="evenodd" d="M60.7791 14.5693C60.1721 16.7048 57.7078 18.9917 56.0871 20.4998C55.1068 21.4128 54.0326 22.2647 52.8148 22.8651C52.3864 23.0767 49.6837 24.2195 49.2134 23.9325C48.0072 23.1958 53.0073 18.5963 53.7532 18.005C55.5275 16.5956 57.5704 15.5757 59.3758 14.207C60.0122 13.7241 59.2966 12.8925 58.6594 13.0115C54.9283 13.7083 51.3719 16.5805 49.0193 19.3857C47.904 20.716 45.5087 24.8274 48.3091 25.8126C51.0964 26.7941 55.1666 23.6824 57.0015 21.977C58.4009 20.6761 59.5892 19.1771 60.7216 17.6554C61.591 16.4871 62.3904 15.7881 61.7928 14.4405C61.5964 13.9976 60.8955 14.1595 60.7791 14.5693Z" fill="#BF222C"/>
<path fill-rule="evenodd" clip-rule="evenodd" d="M56.0842 16.0308C51.7068 19.582 46.7744 22.4737 41.5128 24.5746C40.603 24.9376 39.497 25.2577 38.7008 24.6934C38.1504 24.3032 37.9323 23.5721 38.0181 22.9112C38.1038 22.2502 38.4481 21.6483 38.8399 21.1038C39.7541 19.8358 40.9541 18.7883 42.2308 17.8699C46.7534 14.613 52.391 12.8743 58 13.0071" fill="#BF222C"/>
<path fill-rule="evenodd" clip-rule="evenodd" d="M55.5018 14.9203C52.975 17.1683 49.5874 19.1292 46.5717 20.686C45.3523 21.3158 43.156 22.6375 41.8977 22.7979C40.3914 23.8775 39.7326 23.2268 39.9205 20.8464C40.3243 20.3801 40.7625 19.9496 41.235 19.555C43.6659 17.391 46.7346 15.803 49.8283 14.8245C52.6241 13.9394 55.5462 14.0399 58.3226 13.2249C59.2254 12.9602 59.2262 11.6602 58.3226 11.3956C54.2099 10.189 49.0479 11.9646 45.3157 13.7394C42.0552 15.2892 36.4581 18.487 36.0386 22.5838C35.0196 32.5554 54.4961 17.6689 56.4982 16.2093C57.4548 15.5126 56.3945 14.1263 55.5018 14.9203Z" fill="#BF222C"/>
<path fill-rule="evenodd" clip-rule="evenodd" d="M61.5625 15.0201C61.365 18.6491 61.8147 22.3229 62.8759 25.7501C63.5463 27.9137 64.644 30.1734 66.5493 30.8989C66.7826 30.9877 67.0425 31.0494 67.2716 30.9461C67.5048 30.8412 67.6582 30.5842 67.7626 30.3239C68.3531 28.8426 67.7332 27.1274 67.0887 25.6756C65.294 21.6319 63.2577 17.7283 61 14L61.5625 15.0201Z" fill="#BF222C"/>
<path fill-rule="evenodd" clip-rule="evenodd" d="M60.9629 15.1189C60.4726 19.1621 60.7754 23.3421 62.4392 27.1139C63.2727 29.0034 65.7885 32.9426 68.4515 31.7937C70.9449 30.7176 69.8636 27.0858 69.0766 25.3223C67.2664 21.2666 64.8977 16.5594 61.8188 13.3452C60.9086 12.3942 59.6159 13.5962 60.1085 14.6778C61.0992 16.8542 62.5771 18.8266 63.7916 20.8896C64.8505 22.6891 67.1766 25.5436 67.3385 27.6536C67.5577 30.5127 65.598 28.0196 64.9187 26.7855C64.2881 25.6398 63.9016 24.2767 63.5562 23.0238C62.8498 20.4603 62.4927 17.7732 62.3788 15.1189C62.3393 14.1773 61.0713 14.225 60.9629 15.1189Z" fill="#BF222C"/>
<path fill-rule="evenodd" clip-rule="evenodd" d="M61.8119 15.5657C62.9391 17.7522 64.0662 19.9387 65.1933 22.1244C66.8188 25.2764 68.5667 28.5669 71.6441 30.5875C71.9681 30.8007 72.3313 31.0051 72.7289 30.9999C73.3272 30.9925 73.8136 30.4905 73.9472 29.9507C74.0808 29.4102 73.9392 28.8467 73.7648 28.3173C72.8128 25.4237 70.8906 22.8663 68.6043 20.7057C66.3181 18.5452 63.6654 16.7496 61 15L61.8119 15.5657Z" fill="#BF222C"/>
<path fill-rule="evenodd" clip-rule="evenodd" d="M61.0962 14.9018C62.0175 17.6902 68.9516 37.6422 74.1697 32.0002C76.5805 29.3946 73.1266 24.2302 71.5898 22.0894C69.1022 18.6228 65.2207 14.574 61.2405 13.0694C60.1741 12.6667 59.6642 14.1157 60.2401 14.8518C62.2099 17.3704 65.1881 18.945 67.3908 21.2952C68.2058 22.1651 73.1763 28.1808 71.7574 29.1924C70.1586 30.3337 63.2422 15.8425 62.3434 14.3557C61.9484 13.7033 60.8362 14.1125 61.0962 14.9018Z" fill="#BF222C"/>
<path fill-rule="evenodd" clip-rule="evenodd" d="M61.9696 13C62.1796 10.4843 61.2908 7.88293 59.6344 6.16454C59.5592 6.086 59.4734 6.00587 59.3706 6.00032C59.1968 5.9908 59.0776 6.19627 59.0357 6.38509C58.8995 6.99993 59.1776 7.6243 59.4479 8.18122C60.1679 9.66875 60.8886 11.1555 61.6093 12.6422" fill="#BF222C"/>
<path fill-rule="evenodd" clip-rule="evenodd" d="M62.7755 12.5874C63.1061 11.089 63.1228 9.61174 62.4747 8.18521C62.0063 7.15393 60.8486 5 59.4342 5C55.7662 5 60.1471 12.0993 61.3734 12.8716C61.9629 13.243 62.7611 12.7527 62.7573 12.116C62.7504 11.134 62.1434 10.3725 61.6559 9.53269C61.4191 9.12293 60.2484 6.82178 59.9872 6.94579C59.6185 6.94579 59.2499 6.94579 58.8805 6.94579C60.563 7.82114 61.5234 10.7779 61.6536 12.443C61.6986 13.0174 62.6354 13.2256 62.7755 12.5874Z" fill="#BF222C"/>
<path fill-rule="evenodd" clip-rule="evenodd" d="M58 12.8991C57.8614 10.1969 55.2123 8.31019 52.6306 7.57293C45.8645 5.63833 38.4766 8.82299 33.4906 13.824C32.0948 15.2251 30.7528 17.0343 31.0388 19C33.6245 18.4417 36.0438 17.1205 37.9197 15.2418" fill="#BF222C"/>
<path fill-rule="evenodd" clip-rule="evenodd" d="M57.9864 12.7968C58.3985 6.34505 49.3473 5.47002 44.814 6.22828C39.0612 7.19166 30.068 11.9202 30.0001 18.6646C29.9917 19.5489 30.8579 20.1719 31.6867 19.9576C34.4043 19.2562 37.3517 18.0846 38.8193 15.554C39.352 14.6359 38.3194 13.7801 37.4608 14.1873C35.1805 15.2667 33.5183 16.7079 30.9784 17.3709C31.5409 17.8019 32.1034 18.2329 32.6651 18.6646C32.7093 13.7356 40.3006 9.96425 44.3118 8.86796C48.8115 7.63724 54.6872 8.30484 56.7195 13.1417C57.0057 13.8224 57.9475 13.3983 57.9864 12.7968Z" fill="#BF222C"/>
<path fill-rule="evenodd" clip-rule="evenodd" d="M32 15C33.6653 10.7977 38.2794 8.17693 42.9214 6.88623C46.3008 5.94722 50.0186 5.55471 53.315 6.71791C56.6122 7.88111 59.3011 10.9245 58.9728 14.1684" fill="#BF222C"/>
<path fill-rule="evenodd" clip-rule="evenodd" d="M33.4787 16.3355C37.4613 6.8522 55.9657 2.04007 58.1284 15.1044C58.3603 16.5063 60.5901 16.4781 60.8454 15.1044C62.2335 7.62884 53.9795 3.54905 47.9319 4.03969C40.9739 4.60444 33.866 8.46913 31.0873 15.2954C30.5189 16.6924 32.8893 17.7389 33.4787 16.3355Z" fill="#BF222C"/>
<path fill-rule="evenodd" clip-rule="evenodd" d="M62.5592 11.8148C62.4704 11.9149 62.3815 12.015 62.2927 12.1143C63.1661 9.82347 65.3079 8.77952 67.2311 9.03872C67.515 9.07716 67.8421 9.18173 67.9591 9.52673C68.1597 10.1184 67.581 10.6225 67.116 10.8209C65.4109 11.5476 63.7051 12.2733 62 13" fill="#BF222C"/>
<path fill-rule="evenodd" clip-rule="evenodd" d="M62.2884 10.6717C62.1949 10.678 62.1015 10.6843 62.008 10.6913C62.1645 11.2615 62.321 11.8324 62.4775 12.4033C63.2445 11.8331 63.719 11.0896 64.639 10.7038C65.0696 10.5228 65.5292 10.3998 65.9931 10.3425C66.2282 10.3139 66.4598 10.3111 66.6956 10.3076C66.8089 10.3097 66.923 10.3097 67.0363 10.3083C67.2721 10.3481 67.2721 10.2852 67.0348 10.1189C67.0688 9.86316 67.1028 9.6074 67.1361 9.35163C66.8217 10.0393 64.6184 10.3915 63.9173 10.6256C62.9683 10.9421 61.9627 11.1455 61.2127 11.8212C60.7254 12.2601 61.1553 12.9191 61.6999 12.982C62.6949 13.0973 63.6963 12.6332 64.6432 12.3495C65.6305 12.0539 66.7013 11.831 67.6496 11.4243C68.8776 10.8974 69.6141 9.40823 68.3181 8.47462C67.1531 7.63535 65.0965 8.06582 63.8876 8.56687C62.5781 9.10984 61.2268 10.1378 61.0767 11.6095C60.9712 12.6458 62.6645 12.8485 62.906 11.8541C62.9294 11.7569 62.9527 11.6598 62.9761 11.5627C63.0774 11.1469 62.7686 10.6381 62.2884 10.6717Z" fill="#BF222C"/>
<path fill-rule="evenodd" clip-rule="evenodd" d="M45.0004 35.5C43.8958 35.5 43 34.605 43 33.5004C43 32.3958 43.8958 31.5 45.0004 31.5C46.105 31.5 47 32.3958 47 33.5004C47 34.605 46.105 35.5 45.0004 35.5Z" fill="#202020"/>
<path fill-rule="evenodd" clip-rule="evenodd" d="M62.0004 35.5C60.8958 35.5 60 34.605 60 33.5004C60 32.3958 60.8958 31.5 62.0004 31.5C63.105 31.5 64 32.3958 64 33.5004C64 34.605 63.105 35.5 62.0004 35.5Z" fill="#202020"/>
<path fill-rule="evenodd" clip-rule="evenodd" d="M68.0315 32C66.4235 32 64.9489 30.4285 64 29H66.9784C67.181 29.1613 67.3716 29.2618 67.5273 29.2618C67.6643 29.2618 67.7746 29.184 67.8424 29H68.3049C68.8568 29.7726 69.425 30.4632 70 31.0229C69.7669 31.3533 69.4332 31.6257 68.9722 31.8132C68.6557 31.942 68.3414 32 68.0315 32Z" fill="#BF222C"/>
<path fill-rule="evenodd" clip-rule="evenodd" d="M39.2751 28.4721V28.9459H48.7249C49.2449 28.9459 49.7096 29.15 50.0445 29.4756C50.3786 29.8019 50.5775 30.2401 50.5783 30.7257V34.9703C50.5775 36.092 50.1136 37.1056 49.3509 37.8489C48.5882 38.5914 47.5321 39.0541 46.3584 39.0541H41.7353C40.5355 39.0541 39.4564 38.5812 38.6768 37.8221C37.8972 37.0623 37.4225 36.0257 37.4217 34.8789V30.7257C37.4225 30.2401 37.6222 29.8019 37.9555 29.4756C38.2904 29.15 38.7551 28.9459 39.2751 28.9459V28C38.517 28 37.825 28.2995 37.3219 28.789C36.818 29.2785 36.5 29.9666 36.5 30.7257V34.8789C36.5 36.2993 37.0937 37.5864 38.0423 38.5087C38.9901 39.4325 40.2982 40 41.7353 40H46.3584C47.7702 40 49.0536 39.4427 49.9853 38.5355C50.917 37.6298 51.5008 36.3647 51.5 34.9703V30.7257C51.5008 29.9666 51.182 29.2785 50.6781 28.789C50.175 28.2995 49.483 28 48.7249 28H39.2751V28.4721Z" fill="#F8F9F9"/>
<path fill-rule="evenodd" clip-rule="evenodd" d="M35.7501 32.1826L36.8831 32.9417C37.0997 33.0865 37.3575 32.9521 37.4593 32.6418C37.5604 32.3315 37.4665 31.9622 37.2499 31.8164L36.1169 31.0583C35.9003 30.9135 35.6425 31.0479 35.5407 31.3582C35.4396 31.6685 35.5335 32.0378 35.7501 32.1826Z" fill="#F8F9F9"/>
<path fill-rule="evenodd" clip-rule="evenodd" d="M67.7249 28.4721V28H58.2751C57.517 28 56.8242 28.2995 56.3211 28.789C55.818 29.2785 55.4992 29.9666 55.5 30.7257V34.9703C55.4992 36.3647 56.083 37.6298 57.0147 38.5355C57.9456 39.4427 59.2298 40 60.6416 40H65.2647C66.7018 40 68.0091 39.4325 68.9577 38.5087C69.9063 37.5864 70.5 36.2993 70.5 34.8789V30.7257C70.5 29.9666 70.182 29.2785 69.6781 28.789C69.175 28.2995 68.4822 28 67.7249 28V28.9459C68.2449 28.9459 68.7096 29.15 69.0437 29.4756C69.3778 29.8019 69.5775 30.2401 69.5783 30.7257V34.8789C69.5775 36.0257 69.1028 37.0623 68.3232 37.8221C67.5436 38.5812 66.4637 39.0541 65.2647 39.0541H60.6416C59.4679 39.0541 58.4111 38.5914 57.6483 37.8489C56.8864 37.1056 56.4217 36.092 56.4217 34.9703V30.7257C56.4217 30.2401 56.6214 29.8019 56.9555 29.4756C57.2896 29.15 57.7543 28.9459 58.2751 28.9459H67.7249V28.4721Z" fill="#F8F9F9"/>
<path fill-rule="evenodd" clip-rule="evenodd" d="M70.8833 31.0583L69.7502 31.8164C69.5329 31.9622 69.4397 32.3315 69.5408 32.6418C69.6419 32.9521 69.8997 33.0865 70.1171 32.9417L71.2502 32.1826C71.4668 32.0378 71.5607 31.6685 71.4589 31.3582C71.3578 31.0479 71.1 30.9135 70.8833 31.0583Z" fill="#F8F9F9"/>
<path fill-rule="evenodd" clip-rule="evenodd" d="M51.33 33H55.67C56.1282 33 56.5 32.776 56.5 32.5C56.5 32.2235 56.1282 32 55.67 32H51.33C50.871 32 50.5 32.2235 50.5 32.5C50.5 32.776 50.871 33 51.33 33Z" fill="#F8F9F9"/>
<path fill-rule="evenodd" clip-rule="evenodd" d="M149.953 60.3306C148.936 56.8885 147.37 53.5641 146.737 50.0166C146.117 46.5427 146.365 42.9526 145.969 39.4492C145.436 34.7412 144.412 29.4412 140.812 26.037C139.235 24.5457 137.226 23.7841 135.12 23.4014C134.412 23.272 131.779 22.7537 132.153 23.1814C131.596 22.7374 131.075 22.0402 130.512 21.6389C129.061 20.6069 127.396 19.8841 125.667 19.4743C116.59 17.3228 106.123 22.6313 103.476 32.551C101.622 39.5035 103.963 46.638 101.98 53.6997C100.43 59.2227 98.6831 80.7774 101.482 86.2075C101.79 86.8056 103.737 95.0689 104.286 94.7954C111.306 91.3099 117.123 97.1165 123.887 97.8362C132.382 98.7403 145.064 95.7615 149.413 92.3325C151.905 88.565 150.961 64.5041 149.953 60.3306Z" fill="#4A2DFF"/>
<path fill-rule="evenodd" clip-rule="evenodd" d="M138.329 46.1158C138.329 46.1158 144.903 42.8371 145.833 47.5204C146.762 52.2029 143.76 56.8189 138.401 54.2768C133.041 51.7347 138.329 46.1158 138.329 46.1158Z" fill="#FFB5B1"/>
<path fill-rule="evenodd" clip-rule="evenodd" d="M142 53.5C142 53.7761 142.224 54 142.5 54C142.776 54 143 53.7761 143 53.5C143 53.2239 142.776 53 142.5 53C142.224 53 142 53.2239 142 53.5Z" fill="#293B83"/>
<path fill-rule="evenodd" clip-rule="evenodd" d="M143.273 52L143.081 51.934C142.95 51.8307 142.93 51.6428 143.035 51.5147C144.518 49.7163 142.21 47.8084 142.111 47.7284L142.089 47.7012L141.899 47.7703C141.742 47.8402 141.39 48.1011 141 49.0756C141.04 48.6035 141.077 48.1267 141.11 47.6468C141.279 47.4504 141.458 47.3106 141.647 47.2267C142.008 47.0676 142.352 47 142.672 47C143.787 47 144.619 47.8177 144.957 48.3682C145.043 48.5096 144.997 48.692 144.852 48.7767C144.803 48.8062 144.749 48.8202 144.695 48.8202C144.592 48.8202 144.491 48.7689 144.434 48.6757C144.403 48.6268 143.83 47.7284 142.877 47.6119C143.818 48.5592 144.82 50.3002 143.51 51.889C143.45 51.962 143.362 52 143.273 52Z" fill="#E7817E"/>
<path fill-rule="evenodd" clip-rule="evenodd" d="M110.671 46.1158C110.671 46.1158 104.097 42.8371 103.167 47.5204C102.238 52.2029 105.24 56.8189 110.6 54.2768C115.959 51.7347 110.671 46.1158 110.671 46.1158Z" fill="#FFB5B1"/>
<path fill-rule="evenodd" clip-rule="evenodd" d="M107 53.5C107 53.7761 106.776 54 106.5 54C106.224 54 106 53.7761 106 53.5C106 53.2239 106.224 53 106.5 53C106.776 53 107 53.2239 107 53.5Z" fill="#293B83"/>
<path fill-rule="evenodd" clip-rule="evenodd" d="M105.731 52C105.642 52 105.553 51.962 105.493 51.889C104.181 50.3002 105.184 48.5592 106.126 47.6119C105.172 47.7284 104.598 48.6268 104.567 48.6757C104.51 48.7689 104.409 48.8202 104.306 48.8202C104.252 48.8202 104.197 48.8062 104.148 48.7767C104.003 48.692 103.957 48.5096 104.044 48.3682C104.382 47.8177 105.215 47 106.333 47C106.653 47 106.996 47.0676 107.358 47.2267C107.546 47.3098 107.723 47.4473 107.891 47.6399C107.924 48.1159 107.959 48.5895 108 49.0585C107.612 48.098 107.263 47.8394 107.106 47.7703L106.917 47.7012L106.894 47.7284C106.794 47.8084 104.483 49.7163 105.969 51.5147C106.074 51.6428 106.054 51.8307 105.922 51.934L105.731 52Z" fill="#E7817E"/>
<path fill-rule="evenodd" clip-rule="evenodd" d="M129.506 73.5188L128.193 72.5801V67.2253C128.193 64.892 126.14 63 123.607 63C121.074 63 119.02 64.892 119.02 67.2253V72.8613L117.726 73.5188L117 82H132L129.506 73.5188Z" fill="#FFB5B1"/>
<mask id="mask6" mask-type="alpha" maskUnits="userSpaceOnUse" x="119" y="63" width="10" height="20">
<path fill-rule="evenodd" clip-rule="evenodd" d="M125.098 82.1824H122.204C120.434 82.1824 119 80.7481 119 78.9787V64.3322C119 63.5965 119.596 63 120.331 63H126.969C127.705 63 128.301 63.5965 128.301 64.3322V78.9787C128.301 80.7481 126.867 82.1824 125.098 82.1824Z" fill="white"/>
</mask>
<g mask="url(#mask6)">
<path fill-rule="evenodd" clip-rule="evenodd" d="M124.246 71.9309C122.469 71.9309 120.693 71.6454 119 71.0729V68.9965C120.624 69.7554 122.376 70.1345 124.127 70.1345C125.541 70.1345 126.955 69.8869 128.301 69.3926V71.4249C126.975 71.7622 125.611 71.9309 124.246 71.9309Z" fill="#E17170"/>
</g>
<path fill-rule="evenodd" clip-rule="evenodd" d="M132.641 32H115.513C110.924 32 107.157 35.7158 107.026 40.3917C106.839 47.0439 107.675 55.7541 108.988 59.0704C110.208 62.1515 113.488 65.2885 117.343 67.9166C121.441 70.7115 126.783 70.6942 130.859 67.8655C134.633 65.2468 137.803 62.1334 139.015 59.0704C140.338 55.7282 141.164 46.9079 140.972 40.236C140.84 35.6458 137.145 32 132.641 32Z" fill="#FFB5B1" stroke="#FFB5B1"/>
<mask id="mask7" mask-type="alpha" maskUnits="userSpaceOnUse" x="117" y="58" width="14" height="7">
<path fill-rule="evenodd" clip-rule="evenodd" d="M130.785 58.5962C130.53 57.8016 129.603 58.0129 127.964 58.8948C126.189 59.8502 123.058 60.0823 120.827 59.0812C119.138 58.3231 118.299 58.2465 117.997 58.9296C117.695 59.6135 119.572 63.6395 123.128 64.1261C123.793 64.2174 124.804 64.2492 125.88 64.0542C129.418 63.4136 131.066 59.4727 130.785 58.5962Z" fill="white"/>
</mask>
<g mask="url(#mask7)">
<path fill-rule="evenodd" clip-rule="evenodd" d="M130.785 58.5962C130.53 57.8016 129.603 58.0129 127.964 58.8948C126.189 59.8502 123.058 60.0823 120.827 59.0812C119.138 58.3231 118.299 58.2465 117.997 58.9296C117.695 59.6135 119.572 63.6395 123.128 64.1261C123.793 64.2174 124.804 64.2492 125.88 64.0542C129.418 63.4136 131.066 59.4727 130.785 58.5962Z" fill="#7E322C"/>
<path fill-rule="evenodd" clip-rule="evenodd" d="M119.531 58.0554C119.531 58.0554 119.591 60.8568 123.995 60.9419C128.4 61.0277 129.697 59.6584 129.716 57.7235L119.531 58.0554Z" fill="#FFFFFE"/>
<path fill-rule="evenodd" clip-rule="evenodd" d="M121.157 63.6187C121.157 63.6187 124.188 61.4711 128.874 63.4841L125.254 66.2483L121.157 63.6187Z" fill="#EEA4A0"/>
<path fill-rule="evenodd" clip-rule="evenodd" d="M124.251 64.1981C123.821 64.1981 123.437 64.1687 123.128 64.1261C122.461 64.0348 121.853 63.819 121.308 63.5242C121.728 63.2759 123.015 62.6229 124.938 62.6229C125.838 62.6229 126.876 62.7653 128.031 63.1591C127.415 63.5815 126.698 63.9064 125.88 64.0542C125.304 64.1586 124.747 64.1981 124.251 64.1981Z" fill="#E88683"/>
</g>
<path fill-rule="evenodd" clip-rule="evenodd" d="M118 48.5C118 49.3283 117.328 50 116.5 50C115.672 50 115 49.3283 115 48.5C115 47.6717 115.672 47 116.5 47C117.328 47 118 47.6717 118 48.5Z" fill="#202020"/>
<path fill-rule="evenodd" clip-rule="evenodd" d="M134 48.5C134 49.3283 133.328 50 132.5 50C131.672 50 131 49.3283 131 48.5C131 47.6717 131.672 47 132.5 47C133.328 47 134 47.6717 134 48.5Z" fill="#202020"/>
<path fill-rule="evenodd" clip-rule="evenodd" d="M129 28.001C129 28.001 130.178 40.0618 142.068 43L143 36.5964C143 36.5964 137.718 27.8922 129 28.001Z" fill="#4A2DFF"/>
<path fill-rule="evenodd" clip-rule="evenodd" d="M129.108 29.0992L129.011 29.1094C129.012 29.1172 129.303 31.9 131.068 35.0266C132.83 38.1523 136.074 41.6211 141.959 42.9766L142.06 43L143 36.9758L142.979 36.9438C142.972 36.9375 137.825 29.0063 129.267 29L129.106 29.0016L129 29.0023L129.011 29.1094L129.108 29.0992L129.108 29.1969L129.267 29.1953C133.483 29.1953 136.87 31.1562 139.206 33.1227C140.373 34.1055 141.278 35.0891 141.888 35.8258C142.194 36.1945 142.427 36.5016 142.583 36.7156C142.739 36.9305 142.817 37.0508 142.817 37.0508L142.899 36.9977L142.803 36.982L141.885 42.8664L141.98 42.882L142.002 42.7867C136.175 41.4422 132.981 38.0203 131.236 34.9297C130.364 33.3844 129.855 31.9219 129.565 30.8469C129.42 30.3094 129.33 29.8688 129.276 29.5633C129.221 29.2578 129.204 29.0891 129.204 29.0883L129.108 29.0992L129.108 29.1969L129.108 29.0992Z" fill="#293B83"/>
<path fill-rule="evenodd" clip-rule="evenodd" d="M130.418 26.0731C130.418 26.0731 133.585 34.0082 125.143 38.9561C117.482 43.4465 114.297 34.2532 107.423 45C107.423 45 103.931 39.1385 107.889 32.1054C110.009 28.3384 124.305 22.6022 130.418 26.0731Z" fill="#4A2DFF"/>
<path fill-rule="evenodd" clip-rule="evenodd" d="M130.328 26.1533L130.241 26.1892C130.241 26.1892 130.276 26.2753 130.329 26.4392C130.489 26.9324 130.812 28.1116 130.811 29.6187C130.809 32.2981 129.803 36.0028 125.046 38.7775C123.326 39.7784 121.844 40.0818 120.491 40.0818C118.366 40.084 116.553 39.3225 114.672 39.3202C112.491 39.3172 110.254 40.3699 107.427 44.769L107.506 44.8209L107.587 44.7713C107.587 44.7706 107.502 44.6288 107.37 44.3566C106.978 43.5387 106.189 41.569 106.189 38.9582C106.189 36.9846 106.638 34.6452 108.051 32.1502C108.846 30.7362 111.515 28.9768 114.82 27.5963C118.125 26.2113 122.072 25.1898 125.436 25.1906C127.301 25.1898 128.986 25.5046 130.282 26.2364L130.328 26.1533L130.241 26.1892L130.328 26.1533L130.375 26.0702C129.037 25.3156 127.322 25 125.436 25C122.035 25 118.072 26.0283 114.747 27.4202C111.422 28.816 108.739 30.5608 107.887 32.0557C106.457 34.5796 106 36.9556 106 38.9582C106.001 42.4921 107.42 44.8613 107.425 44.8696L107.503 45L107.586 44.8727C110.407 40.4964 112.563 39.5131 114.672 39.5108C116.5 39.5085 118.32 40.2708 120.491 40.2723C121.873 40.2731 123.395 39.9598 125.14 38.9421C129.957 36.14 131.003 32.3446 131 29.6187C131 27.5727 130.419 26.1251 130.416 26.1175L130.403 26.0863L130.375 26.0702L130.328 26.1533Z" fill="#4A2DFF"/>
<path fill-rule="evenodd" clip-rule="evenodd" d="M159.737 18.7016C159.737 18.7016 158.585 14.0397 159.162 13.8305C159.739 13.6205 160.216 13.5435 160.561 14.3535C160.906 15.1643 162.201 18.0221 162.201 18.0221L163.346 15.4702C163.346 15.4702 164.639 9.3149 164.898 8.5914C165.148 7.89542 166.385 7.8215 166.467 8.78092C166.51 9.2803 165.732 15.9507 165.732 15.9507C165.732 15.9507 168.309 8.46007 168.859 8.12584C169.408 7.79083 170.371 8.10303 170.18 9.32434C170.117 9.72698 168.257 16.9455 168.257 16.9455C168.257 16.9455 170.539 12.481 171.185 11.9054C171.831 11.3297 172.461 11.8566 172.545 12.4385C172.631 13.0205 169.793 19.4046 169.793 19.4046C169.793 19.4046 171.37 17.6525 171.939 17.319C172.51 16.9856 173.093 17.3938 172.988 18.0944C172.883 18.7944 168.754 24.8388 168.754 24.8388L167.345 30L160.669 27.6714C160.928 26.9558 161.242 24.2002 161.242 24.2002C161.099 23.9029 159.737 18.7016 159.737 18.7016Z" fill="#EEA4A0"/>
<path fill-rule="evenodd" clip-rule="evenodd" d="M160 25.8309L160.465 24L169 26.0719L168.243 28L160 25.8309Z" fill="#293B83"/>
<path fill-rule="evenodd" clip-rule="evenodd" d="M160.11 26.3012L160.198 26.3289L160.628 24.2683L168.755 26.6649L168.085 28.7353L160.133 26.1934L160.11 26.3012L160.198 26.3289L160.11 26.3012L160.088 26.4091L168.195 29L169 26.508L160.497 24L160 26.3815L160.088 26.4091L160.11 26.3012Z" fill="#293B83"/>
<path fill-rule="evenodd" clip-rule="evenodd" d="M160.49 69.883C165.06 58.4544 169 28.4232 169 28.4232L159.448 26C159.448 26 153.12 49.0208 149.754 56.0801C148.133 59.4779 141.721 69.5043 139 71.3448C140.839 79.111 144.431 86.4667 148.572 93L148.51 92.3172C148.51 92.3172 156.468 79.9428 160.49 69.883Z" fill="#FF2D3B"/>
<path fill-rule="evenodd" clip-rule="evenodd" d="M132.688 122L136 77C122.795 84.3036 114 77.1982 114 77.1982L117.75 122H132.688Z" fill="#FFEAEB"/>
<path fill-rule="evenodd" clip-rule="evenodd" d="M116.318 123C116.223 120.669 121.018 116.618 121 114.063C120.793 84.0522 118.206 76.5718 118.035 73L108.43 75.9934C99.305 78.8373 94.5588 86.3771 94.2587 95.9496L93 121.422L116.318 123Z" fill="#FF2D3B"/>
<path fill-rule="evenodd" clip-rule="evenodd" d="M148.313 92.7324C146.213 89.4183 144.256 85.8924 142.593 82.21C142.361 81.4064 142.051 80.6549 141.63 79.9689C140.435 77.059 140.225 74.332 139.5 71.2702C139.656 71.2282 139.302 71.4041 139.5 71.2702C135.399 72.365 129.5 73.2528 129.5 73.2528H129C128.789 77.1345 128.047 93.5648 127.284 114.569C127.19 117.148 127.094 119.646 127 122H151L148.313 92.7324Z" fill="#FF2D3B"/>
<g filter="url(#filter0_d)">
<path fill-rule="evenodd" clip-rule="evenodd" d="M161 138H84V96.814C84 94.7073 85.7036 93 87.8047 93H157.195C159.296 93 161 94.7073 161 96.814V138Z" fill="#F8F9F9"/>
</g>
<mask id="mask8" mask-type="alpha" maskUnits="userSpaceOnUse" x="118" y="113" width="10" height="11">
<path fill-rule="evenodd" clip-rule="evenodd" d="M127.651 118.509C127.651 121.171 125.494 123.327 122.832 123.327C120.171 123.327 118.013 121.171 118.013 118.509C118.013 115.848 120.171 113.69 122.832 113.69C125.494 113.69 127.651 115.848 127.651 118.509Z" fill="white"/>
</mask>
<g mask="url(#mask8)">
<path fill-rule="evenodd" clip-rule="evenodd" d="M127.651 118.509C127.651 121.171 125.494 123.327 122.832 123.327C120.171 123.327 118.013 121.171 118.013 118.509C118.013 115.848 120.171 113.69 122.832 113.69C125.494 113.69 127.651 115.848 127.651 118.509Z" fill="#202020"/>
</g>
<path fill-rule="evenodd" clip-rule="evenodd" d="M2 141H188V137H2V141Z" fill="#BF222C"/>
<path d="M160.693 91H175.467C177.394 91 179 89.557 179 87.7342C179 87.6582 179 87.6582 179 87.5823C179 84.7722 176.591 82.4177 173.62 82.3418C173.139 82.3418 172.577 82.4177 172.095 82.4937C171.613 80.519 169.766 79 167.518 79C165.19 79 163.263 80.5949 162.861 82.7215C162.38 82.5696 161.898 82.5696 161.416 82.5696C158.927 82.7975 157 84.7722 157 87.2025C157 88.038 157.241 88.7215 157.642 89.4051C158.285 90.3924 159.489 91 160.693 91Z" fill="#FF8189"/>
<path d="M151.5 2V5.9" stroke="#FF2D3B" stroke-width="2.5" stroke-linecap="round" stroke-linejoin="round"/>
<path d="M151.5 11.1V15" stroke="#FF2D3B" stroke-width="2.5" stroke-linecap="round" stroke-linejoin="round"/>
<path d="M145 8.49995H148.9" stroke="#FF2D3B" stroke-width="2.5" stroke-linecap="round" stroke-linejoin="round"/>
<path d="M154.1 8.49995H158" stroke="#FF2D3B" stroke-width="2.5" stroke-linecap="round" stroke-linejoin="round"/>
<path d="M13.5 110V113.9" stroke="#FF2D3B" stroke-width="2.5" stroke-linecap="round" stroke-linejoin="round"/>
<path d="M13.5 119.1V123" stroke="#FF2D3B" stroke-width="2.5" stroke-linecap="round" stroke-linejoin="round"/>
<path d="M7 116.5H10.9" stroke="#FF2D3B" stroke-width="2.5" stroke-linecap="round" stroke-linejoin="round"/>
<path d="M16.1 116.5H20" stroke="#FF2D3B" stroke-width="2.5" stroke-linecap="round" stroke-linejoin="round"/>
<defs>
<filter id="filter0_d" x="76" y="85" width="93" height="61" filterUnits="userSpaceOnUse" color-interpolation-filters="sRGB">
<feFlood flood-opacity="0" result="BackgroundImageFix"/>
<feColorMatrix in="SourceAlpha" type="matrix" values="0 0 0 0 0 0 0 0 0 0 0 0 0 0 0 0 0 0 127 0"/>
<feOffset/>
<feGaussianBlur stdDeviation="4"/>
<feColorMatrix type="matrix" values="0 0 0 0 1 0 0 0 0 0.176471 0 0 0 0 0.231372 0 0 0 0.11 0"/>
<feBlend mode="normal" in2="BackgroundImageFix" result="effect1_dropShadow"/>
<feBlend mode="normal" in="SourceGraphic" in2="effect1_dropShadow" result="shape"/>
</filter>
</defs>
</svg>
