<svg width="49" height="20" viewBox="0 0 49 20" fill="none" xmlns="http://www.w3.org/2000/svg">
<path fill-rule="evenodd" clip-rule="evenodd" d="M13.314 19.0278H37.3372C38.4561 19.0278 39.3632 18.2602 39.3632 17.3134C39.3632 16.3666 38.4561 15.5991 37.3372 15.5991C37.3372 15.5991 35.6006 14.8315 35.6006 13.8847C35.6006 12.9379 36.7443 12.1704 38.1551 12.1704H41.0998C42.2188 12.1704 43.1259 11.4028 43.1259 10.456C43.1259 9.50921 42.2188 8.74167 41.0998 8.74167H34.7322C35.8512 8.74167 36.7583 7.97413 36.7583 7.02732C36.7583 6.08051 35.8512 5.31297 34.7322 5.31297H46.3097C47.4286 5.31297 48.3357 4.54543 48.3357 3.59863C48.3357 2.65182 47.4286 1.88428 46.3097 1.88428H17.945C16.826 1.88428 15.9189 2.65182 15.9189 3.59863C15.9189 4.54543 16.826 5.31297 17.945 5.31297H6.36758C5.24862 5.31297 4.34153 6.08051 4.34153 7.02732C4.34153 7.97413 5.24862 8.74167 6.36758 8.74167H13.6035C14.7224 8.74167 15.6295 9.50921 15.6295 10.456C15.6295 11.4028 14.7224 12.1704 13.6035 12.1704H2.02605C0.907092 12.1704 0 12.9379 0 13.8847C0 14.8315 0.907092 15.5991 2.02605 15.5991H13.314C12.1951 15.5991 11.288 16.3666 11.288 17.3134C11.288 18.2602 12.1951 19.0278 13.314 19.0278ZM44.5368 10.1934C44.5368 11.1402 45.4439 11.9078 46.5628 11.9078C47.6818 11.9078 48.5889 11.1402 48.5889 10.1934C48.5889 9.24662 47.6818 8.47908 46.5628 8.47908C45.4439 8.47908 44.5368 9.24662 44.5368 10.1934Z" fill="#FF2D3B" fill-opacity="0.1"/>
<path d="M11.1342 19.2799L14.3619 0.9422H36.0337L32.806 19.2799H11.1342Z" fill="white"/>
<path d="M40.4474 19.3041L36.8941 0.350322C36.894 0.349602 36.8937 0.348993 36.8936 0.348273C36.8925 0.342514 36.8908 0.336976 36.8893 0.331272C36.8872 0.322577 36.8852 0.313883 36.8825 0.305355C36.8809 0.300537 36.8789 0.29583 36.8771 0.291067C36.8737 0.281819 36.8702 0.272626 36.8661 0.26371C36.8641 0.259613 36.8619 0.25557 36.8598 0.251417C36.8551 0.242113 36.8502 0.232865 36.8447 0.224004C36.8424 0.220183 36.8397 0.216418 36.8372 0.212652C36.8314 0.203736 36.8252 0.194986 36.8185 0.186458C36.8157 0.182803 36.8127 0.179204 36.8097 0.175659C36.8027 0.167297 36.7954 0.159157 36.7877 0.151348C36.7859 0.149521 36.7844 0.147527 36.7826 0.145644C36.781 0.144094 36.7792 0.142765 36.7776 0.141214C36.7694 0.13335 36.7609 0.125874 36.7521 0.118564C36.7487 0.11574 36.7454 0.112916 36.742 0.110258C36.732 0.10245 36.7216 0.0951949 36.711 0.0881619C36.7084 0.0864451 36.7059 0.0846178 36.7033 0.0829011C36.6484 0.0480683 36.585 0.0231479 36.5169 0.0101895C36.5147 0.00980182 36.5125 0.00946973 36.5103 0.00908209C36.496 0.0065347 36.4816 0.00448564 36.467 0.00304581C36.4631 0.00265817 36.4592 0.00243654 36.4552 0.00210427C36.4425 0.00110746 36.4297 0.000498432 36.4168 0.000332297C36.4143 0.000332297 36.4118 0 36.4093 0H14.0649C13.8235 0 13.618 0.148524 13.5801 0.350266L10.0268 19.3041C10.0043 19.4241 10.045 19.5465 10.1383 19.6389C10.2316 19.7313 10.368 19.7845 10.5116 19.7845H32.8561C33.0974 19.7845 33.303 19.636 33.3408 19.4343L36.4094 3.0664L39.3878 18.9539H34.7277C34.4566 18.9539 34.2368 19.1398 34.2368 19.3693C34.2368 19.5987 34.4566 19.7846 34.7277 19.7846H39.9627C40.1063 19.7846 40.2426 19.7314 40.3359 19.639C40.4292 19.5465 40.4699 19.4241 40.4474 19.3041ZM32.4369 18.9539H11.0864L13.3954 6.63762H34.7459L32.4369 18.9539ZM34.9016 5.80689H13.5511L14.484 0.830727H35.8345L34.9016 5.80689Z" fill="#B6B6B6"/>
<path d="M18.3055 3.65715H32.0411C32.3123 3.65715 32.532 3.47124 32.532 3.24181C32.532 3.01238 32.3123 2.82648 32.0411 2.82648H18.3055C18.0344 2.82648 17.8147 3.01238 17.8147 3.24181C17.8147 3.47124 18.0344 3.65715 18.3055 3.65715Z" fill="#B6B6B6"/>
<path d="M18.0737 9.42133H16.0722C15.8046 9.42133 15.5878 9.60723 15.5878 9.83666C15.5878 10.0661 15.8046 10.252 16.0722 10.252H18.0737C18.3413 10.252 18.5581 10.0661 18.5581 9.83666C18.5581 9.60723 18.3412 9.42133 18.0737 9.42133Z" fill="#FF2D3B"/>
<path d="M22.5274 9.42133H20.5259C20.2583 9.42133 20.0415 9.60723 20.0415 9.83666C20.0415 10.0661 20.2583 10.252 20.5259 10.252H22.5274C22.795 10.252 23.0118 10.0661 23.0118 9.83666C23.0118 9.60723 22.795 9.42133 22.5274 9.42133Z" fill="#FF2D3B"/>
<path d="M26.981 9.42133H24.9795C24.7119 9.42133 24.4951 9.60723 24.4951 9.83666C24.4951 10.0661 24.7119 10.252 24.9795 10.252H26.981C27.2486 10.252 27.4654 10.0661 27.4654 9.83666C27.4654 9.60723 27.2486 9.42133 26.981 9.42133Z" fill="#FF2D3B"/>
<path d="M16.9604 12.2476H14.9588C14.6912 12.2476 14.4744 12.4335 14.4744 12.663C14.4744 12.8924 14.6912 13.0783 14.9588 13.0783H16.9604C17.2279 13.0783 17.4447 12.8924 17.4447 12.663C17.4447 12.4335 17.2279 12.2476 16.9604 12.2476Z" fill="#FF2D3B"/>
<path d="M21.414 12.2476H19.4125C19.1449 12.2476 18.9281 12.4335 18.9281 12.663C18.9281 12.8924 19.1449 13.0783 19.4125 13.0783H21.414C21.6816 13.0783 21.8984 12.8924 21.8984 12.663C21.8984 12.4335 21.6816 12.2476 21.414 12.2476Z" fill="#FF2D3B"/>
<path d="M25.8678 12.2476H23.8662C23.5986 12.2476 23.3818 12.4335 23.3818 12.663C23.3818 12.8924 23.5986 13.0783 23.8662 13.0783H25.8678C26.1353 13.0783 26.3521 12.8924 26.3521 12.663C26.3521 12.4335 26.1353 12.2476 25.8678 12.2476Z" fill="#FF2D3B"/>
<path d="M31.4348 9.42133H29.4332C29.1657 9.42133 28.9489 9.60723 28.9489 9.83666C28.9489 10.0661 29.1657 10.252 29.4332 10.252H31.4348C31.7024 10.252 31.9192 10.0661 31.9192 9.83666C31.9192 9.60723 31.7024 9.42133 31.4348 9.42133Z" fill="#FF2D3B"/>
<path d="M30.3214 12.2476H28.3198C28.0523 12.2476 27.8354 12.4335 27.8354 12.663C27.8354 12.8924 28.0523 13.0783 28.3198 13.0783H30.3214C30.589 13.0783 30.8058 12.8924 30.8058 12.663C30.8058 12.4335 30.589 12.2476 30.3214 12.2476Z" fill="#FF2D3B"/>
<path d="M15.847 15.074H13.8453C13.5778 15.074 13.361 15.2599 13.361 15.4894C13.361 15.7188 13.5778 15.9047 13.8453 15.9047H15.847C16.1145 15.9047 16.3313 15.7188 16.3313 15.4894C16.3313 15.2599 16.1145 15.074 15.847 15.074Z" fill="#FF2D3B"/>
<path d="M20.3006 15.074H18.2991C18.0315 15.074 17.8147 15.2599 17.8147 15.4894C17.8147 15.7188 18.0315 15.9047 18.2991 15.9047H20.3006C20.5682 15.9047 20.785 15.7188 20.785 15.4894C20.785 15.2599 20.5682 15.074 20.3006 15.074Z" fill="#FF2D3B"/>
<path d="M24.7542 15.074H22.7527C22.4851 15.074 22.2683 15.2599 22.2683 15.4894C22.2683 15.7188 22.4851 15.9047 22.7527 15.9047H24.7542C25.0218 15.9047 25.2386 15.7188 25.2386 15.4894C25.2386 15.2599 25.0217 15.074 24.7542 15.074Z" fill="#FF2D3B"/>
<path d="M29.208 15.074H27.2064C26.9389 15.074 26.722 15.2599 26.722 15.4894C26.722 15.7188 26.9389 15.9047 27.2064 15.9047H29.208C29.4755 15.9047 29.6924 15.7188 29.6924 15.4894C29.6924 15.2599 29.4755 15.074 29.208 15.074Z" fill="#FF2D3B"/>
</svg>
