<svg width="23" height="23" viewBox="0 0 23 23" fill="none" xmlns="http://www.w3.org/2000/svg">
<path d="M23 11.5C23 14.4388 21.9011 17.0967 20.061 19.1411L11.5 16.8666L11.0144 16.7388L2.93897 19.141C1.09889 17.0967 0 14.4388 0 11.5C0 5.16231 5.16231 0 11.5 0C17.8377 0 23 5.16231 23 11.5Z" fill="#FFEAEB"/>
<path d="M17.991 15.5632C16.2789 13.7744 13.9788 12.7778 11.5 12.7778C8.66332 12.7778 6.08221 14.0811 4.37007 16.33C3.70563 17.1732 3.24563 18.1444 2.93896 19.141C4.93221 21.4666 8.02443 23 11.5 23C14.9245 23 18.0934 21.4411 20.061 19.1411C19.6778 17.8121 18.9878 16.5856 17.991 15.5632Z" fill="#BF222C"/>
<path d="M11.5 5.11111C8.689 5.11111 6.38892 7.4112 6.38892 10.2222C6.38892 13.0333 8.689 15.3333 11.5 15.3333C14.3111 15.3333 16.6111 13.0333 16.6111 10.2222C16.6111 7.4112 14.3111 5.11111 11.5 5.11111Z" fill="#FF2D3B"/>
</svg>
