<svg width="230" height="91" viewBox="0 0 230 91" fill="none" xmlns="http://www.w3.org/2000/svg">
<path fill-rule="evenodd" clip-rule="evenodd" d="M41.5278 78C41.5278 81.866 44.8649 85 48.9815 85H204.444C208.561 85 211.898 81.866 211.898 78C211.898 74.134 208.561 71 204.444 71H198.056C193.939 71 190.602 67.866 190.602 64C190.602 60.134 193.939 57 198.056 57H218.287C222.404 57 225.741 53.866 225.741 50C225.741 46.134 222.404 43 218.287 43H194.861C198.978 43 202.315 39.866 202.315 36C202.315 32.134 198.978 29 194.861 29H126.713C130.83 29 134.167 25.866 134.167 22C134.167 18.134 130.83 15 126.713 15H66.0185C61.902 15 58.5648 18.134 58.5648 22C58.5648 25.866 61.902 29 66.0185 29H23.4259C19.3094 29 15.9722 32.134 15.9722 36C15.9722 39.866 19.3094 43 23.4259 43H50.0463C54.1629 43 57.5 46.134 57.5 50C57.5 53.866 54.1629 57 50.0463 57H7.4537C3.33714 57 0 60.134 0 64C0 67.866 3.33714 71 7.4537 71H48.9815C44.8649 71 41.5278 74.134 41.5278 78ZM230 78C230 81.866 226.663 85 222.546 85C218.43 85 215.093 81.866 215.093 78C215.093 74.134 218.43 71 222.546 71C226.663 71 230 74.134 230 78Z" fill="#FFEAEB"/>
<path d="M100.979 89.7612L107.223 66.0317L119.712 73.5253L100.979 89.7612Z" fill="#FF2D3B" fill-opacity="0.5"/>
<path d="M77.249 47.2984L149.686 17.9487L107.223 64.7833L100.979 87.8883L96.6073 61.0365L94.7339 58.5387L77.249 47.2984Z" fill="white"/>
<path d="M109.721 65.4073L152.184 19.1973L136.572 83.5167L109.721 65.4073Z" fill="white"/>
<path d="M153.96 16.6761C154.208 15.6115 153.273 14.6457 152.201 14.8549C152.009 14.8922 151.884 14.9174 151.875 14.9212L78.3954 44.6657C76.9781 45.2396 76.0613 46.5459 76.0029 48.0755C75.9446 49.6052 76.7593 50.978 78.1292 51.6582L94.8867 59.9781L99.4557 89.1252C99.3256 89.7479 99.5969 90.3896 100.141 90.7289C100.389 90.8835 100.669 90.9595 100.947 90.9595C100.963 90.9595 100.98 90.9592 100.997 90.9586C101.014 90.9592 101.031 90.9595 101.047 90.9595C101.575 90.9595 102.055 90.687 102.329 90.2578L119.763 75.3223L133.364 84.238C133.996 84.6527 134.727 84.8646 135.463 84.8646C135.948 84.8646 136.435 84.7726 136.896 84.586C138.061 84.1156 138.922 83.1028 139.199 81.8768L153.957 16.6852C153.958 16.6837 153.959 16.6806 153.96 16.6761ZM114.701 45.0677C114.194 44.396 113.239 44.2621 112.567 44.7684L96.1042 57.1808L79.4843 48.9291C79.0727 48.7246 79.0418 48.3453 79.0477 48.1916C79.0537 48.038 79.1131 47.6623 79.5387 47.49L142.509 21.9995L123.538 36.4519C122.868 36.9618 122.739 37.9178 123.249 38.5871C123.759 39.2566 124.715 39.386 125.384 38.8759L139.427 28.1783L106.086 64.1978C105.939 64.3506 105.822 64.536 105.748 64.7464C105.747 64.7472 101.373 81.6835 101.373 81.6835L97.9162 59.6305L114.401 47.2013C115.073 46.6949 115.207 45.7396 114.701 45.0677ZM103.733 85.0427L108.135 67.7L117.11 73.583L103.733 85.0427ZM136.228 81.2039C136.148 81.5545 135.898 81.7033 135.755 81.7607C135.613 81.818 135.332 81.8848 135.034 81.6896L109.525 64.9681L149.738 21.5234L136.228 81.2039Z" fill="#FF2D3B"/>
<path d="M118.996 43.3308C118.351 43.3308 117.759 42.9082 117.553 42.297C117.352 41.7033 117.543 41.0272 118.029 40.6301C118.51 40.237 119.194 40.1787 119.737 40.4788C120.286 40.7821 120.592 41.4122 120.501 42.0313C120.393 42.7682 119.74 43.3308 118.996 43.3308Z" fill="#FF2D3B"/>
<path d="M176.5 2V5.9" stroke="#FF2D3B" stroke-width="2.5" stroke-linecap="round" stroke-linejoin="round"/>
<path d="M176.5 11.1001V15.0001" stroke="#FF2D3B" stroke-width="2.5" stroke-linecap="round" stroke-linejoin="round"/>
<path d="M170 8.5002H173.9" stroke="#FF2D3B" stroke-width="2.5" stroke-linecap="round" stroke-linejoin="round"/>
<path d="M179.1 8.5002H183" stroke="#FF2D3B" stroke-width="2.5" stroke-linecap="round" stroke-linejoin="round"/>
<path d="M65.4998 71V74.9" stroke="#FF2D3B" stroke-width="2.5" stroke-linecap="round" stroke-linejoin="round"/>
<path d="M65.4998 80.1001V84.0001" stroke="#FF2D3B" stroke-width="2.5" stroke-linecap="round" stroke-linejoin="round"/>
<path d="M59 77.5002H62.9" stroke="#FF2D3B" stroke-width="2.5" stroke-linecap="round" stroke-linejoin="round"/>
<path d="M68.1001 77.5002H72.0001" stroke="#FF2D3B" stroke-width="2.5" stroke-linecap="round" stroke-linejoin="round"/>
</svg>
