<svg width="23" height="18" viewBox="0 0 23 18" fill="none" xmlns="http://www.w3.org/2000/svg">
<path d="M22.1154 3.53845H18.5769C18.0884 3.53845 17.6923 3.93453 17.6923 4.42305C17.6923 4.59533 17.7423 4.75547 17.8275 4.89141L5.1726 12.8008C5.01628 12.5511 4.73942 12.3845 4.42317 12.3845C3.93465 12.3845 3.53857 12.7806 3.53857 13.2691V16.8076C3.53857 17.2961 3.93465 17.6922 4.42317 17.6922H22.1154C22.604 17.6922 23 17.2961 23 16.8076V4.42305C23 3.93453 22.604 3.53845 22.1154 3.53845Z" fill="#FF2D3B"/>
<path d="M18.5769 0H0.8846C0.396075 0 0 0.396075 0 0.8846V13.2692C0 13.7577 0.396075 14.1538 0.8846 14.1538H18.5769C19.0655 14.1538 19.4615 13.7577 19.4615 13.2692V0.8846C19.4615 0.396075 19.0656 0 18.5769 0Z" fill="#FFEAEB"/>
<path d="M6.6066 7.55136C7.79917 7.55136 8.76594 6.58458 8.76594 5.39201C8.76594 4.19944 7.79917 3.23267 6.6066 3.23267C5.41402 3.23267 4.44725 4.19944 4.44725 5.39201C4.44725 6.58458 5.41402 7.55136 6.6066 7.55136Z" fill="#FF2D3B"/>
<path d="M6.59325 7.5513C4.73821 7.5513 3.23436 9.05501 3.23436 10.9102H9.95214C9.95214 9.05501 8.4483 7.5513 6.59325 7.5513Z" fill="#FF2D3B"/>
<path d="M15.0385 6.04508H12.3003C11.8118 6.04508 11.4158 5.649 11.4158 5.16048C11.4158 4.67195 11.8118 4.27588 12.3003 4.27588H15.0385C15.5271 4.27588 15.9231 4.67195 15.9231 5.16048C15.923 5.649 15.5271 6.04508 15.0385 6.04508Z" fill="white"/>
<path d="M15.0385 10.0255H12.3003C11.8118 10.0255 11.4158 9.62947 11.4158 9.14095C11.4158 8.65242 11.8118 8.25635 12.3003 8.25635H15.0385C15.5271 8.25635 15.9231 8.65242 15.9231 9.14095C15.923 9.62952 15.5271 10.0255 15.0385 10.0255Z" fill="white"/>
</svg>
