<svg width="21" height="23" viewBox="0 0 21 23" fill="none" xmlns="http://www.w3.org/2000/svg">
<path d="M4.57501 14.0332V9.63944C4.57501 9.32236 4.62046 9.01317 4.70557 8.71802H1.74283C1.26237 8.71802 0.826668 8.9135 0.511162 9.229C0.195656 9.54451 0 9.98039 0 10.4607V13.9569C0 14.3824 0.155296 14.7742 0.412544 15.079C0.546257 15.2377 0.708046 15.3721 0.89019 15.4749V20.5565C0.89019 20.928 1.19131 21.2291 1.56261 21.2291H5.69367V16.5314C4.98738 15.8938 4.57501 14.9853 4.57501 14.0332Z" fill="#FF2D3B"/>
<path d="M3.63182 7.92258C5.08459 7.92258 6.26642 6.74075 6.26642 5.28798C6.26642 3.83521 5.08459 2.65338 3.63182 2.65338C2.17905 2.65338 0.997223 3.83521 0.997223 5.28798C0.997223 6.74075 2.17905 7.92258 3.63182 7.92258Z" fill="#FF2D3B"/>
<path d="M12.6878 7.6218H7.93749C7.38158 7.6218 6.87709 7.84834 6.51175 8.2135C6.14641 8.57884 5.92004 9.08334 5.92004 9.63942V14.0332C5.92004 14.5259 6.09973 14.9797 6.39716 15.3322C6.57352 15.5412 6.79181 15.7141 7.0387 15.8376V22.3274C7.0387 22.6989 7.33982 23 7.7113 23H12.9142C13.2857 23 13.5868 22.6989 13.5868 22.3274V15.8376C13.8337 15.7141 14.052 15.5412 14.2281 15.3322C14.5257 14.9797 14.7054 14.5261 14.7054 14.0332V9.63942C14.7054 9.08334 14.4791 8.57884 14.1137 8.21368C13.7484 7.84834 13.2439 7.6218 12.6878 7.6218Z" fill="#BF222C"/>
<path d="M10.3117 6.27678C12.0422 6.27678 13.4501 4.86893 13.4501 3.13839C13.4501 1.40784 12.0422 0 10.3117 0C8.58112 0 7.17328 1.40784 7.17328 3.13839C7.17328 4.86893 8.58112 6.27678 10.3117 6.27678V6.27678Z" fill="#BF222C"/>
<path d="M20.2045 9.229C19.889 8.9135 19.4533 8.71802 18.9728 8.71802H15.9199C16.0048 9.01317 16.0505 9.32236 16.0505 9.63944V14.0332C16.0505 14.9851 15.6381 15.8938 14.9318 16.5314V21.2242C14.9583 21.2274 14.9855 21.2291 15.013 21.2291H19.1529C19.5244 21.2291 19.8255 20.928 19.8255 20.5565V15.4749C20.0074 15.3722 20.1692 15.2377 20.3031 15.079C20.5604 14.7742 20.7157 14.3824 20.7157 13.9569V10.4607C20.7157 9.98039 20.52 9.54451 20.2045 9.229V9.229Z" fill="#FF2D3B"/>
<path d="M17.0821 7.92258C18.5348 7.92258 19.7167 6.74075 19.7167 5.28798C19.7167 3.83521 18.5348 2.65338 17.0821 2.65338C15.6295 2.65338 14.4475 3.83521 14.4475 5.28798C14.4475 6.74075 15.6295 7.92258 17.0821 7.92258Z" fill="#FF2D3B"/>
</svg>
