<svg width="701" height="700" viewBox="0 0 701 700" fill="none" xmlns="http://www.w3.org/2000/svg">
<mask id="mask0" mask-type="alpha" maskUnits="userSpaceOnUse" x="0" y="0" width="701" height="700">
<rect width="701" height="700" fill="#FBF3F6"/>
</mask>
<g mask="url(#mask0)">
<path d="M283.35 469.056C282.477 469.058 281.624 468.802 280.898 468.319C280.172 467.836 279.605 467.148 279.269 466.343C278.934 465.538 278.844 464.652 279.012 463.796C279.181 462.94 279.599 462.153 280.214 461.535C280.83 460.917 281.614 460.495 282.47 460.323C283.325 460.151 284.211 460.236 285.018 460.568C285.825 460.9 286.515 461.464 287.001 462.188C287.487 462.912 287.748 463.764 287.75 464.636C287.752 465.216 287.64 465.79 287.421 466.326C287.201 466.862 286.877 467.35 286.468 467.761C286.059 468.171 285.573 468.497 285.038 468.719C284.503 468.942 283.929 469.056 283.35 469.056Z" fill="#FAFAFA"/>
<path d="M897.656 -42.3581C891.325 -43.1968 879.954 -43.0279 873.436 -42.9142C869.685 -42.7132 866.065 -42.3553 862.546 -41.2859C850.312 -37.7418 838.572 -33.0155 827.312 -26.8298C781.983 -1.84587 752.343 44.34 731.745 92.5611C711.147 140.782 697.985 192.641 676.169 240.282C630.04 341.096 539.979 422.969 428.886 436.03C352.782 444.933 271.069 422.383 198.969 445.217C140.956 463.495 94.0988 513.123 81.284 574.52C66.4698 645.283 97.9963 728.466 149.005 782.683C216.451 854.293 318.21 885.919 410.579 875.96C502.803 866.122 585.585 818.461 649.947 754.262C725.402 678.969 778.445 581.164 861.111 513.945C904.759 478.409 955.678 452.491 1001.79 420.213C1047.91 387.935 1090.85 347.141 1109.67 292.961C1133.83 223.715 1114.34 140.87 1071.21 76.1112C1030.8 15.2012 967.34 -33.9647 897.656 -42.3581Z" fill="#FFEAEB"/>
<path d="M62.293 603.631L62.2934 603.626C66.8766 552.263 91.0843 496.759 131.115 463.437C144.027 452.688 158.632 444.256 174.884 438.978C201.621 430.274 231.875 426.836 264.018 425.04C278.958 424.205 294.315 423.725 309.921 423.237C311.105 423.2 312.291 423.162 313.478 423.125C330.31 422.596 347.419 422.027 364.61 420.965C433.378 416.718 503.379 404.603 561.958 355.842C564.273 353.914 566.574 351.999 568.743 349.93L568.748 349.925L568.754 349.92C592.014 329.104 611.446 300.532 629.052 268.07C645.794 237.199 660.868 202.842 676.009 168.331C676.79 166.551 677.571 164.772 678.352 162.992C694.282 126.703 710.385 90.4359 728.665 58.1163C746.943 25.7974 767.415 -2.60524 792.098 -23.1516C818.206 -44.8844 849.157 -57.8789 887.183 -57.3447L887.176 -56.8448L887.184 -57.3448C977.651 -56.0375 1051.52 -14.4244 1101.59 41.2391C1151.66 96.8908 1177.97 166.632 1173.28 224.248L1173.27 224.255L1172.86 224.215C1173.27 224.255 1173.27 224.256 1173.27 224.257L1173.27 224.261L1173.27 224.279L1173.27 224.345L1173.25 224.488L1173.24 224.608C1173.22 224.733 1173.21 224.892 1173.18 225.083C1173.17 225.244 1173.14 225.428 1173.12 225.634C1173.01 226.536 1172.84 227.868 1172.58 229.591C1172.08 233.038 1171.24 238.049 1169.93 244.316C1167.32 256.849 1162.81 274.405 1155.24 294.507C1140.12 334.707 1112.75 385.108 1063.79 425.861L1063.78 425.865C1060.9 428.269 1057.85 430.803 1054.82 433.061C1054.82 433.062 1054.82 433.062 1054.82 433.063L1054.52 432.662L62.293 603.631ZM62.293 603.631C61.5046 613.573 60.9903 623.563 61.3032 633.668M62.293 603.631L61.3032 633.668M61.3032 633.668C62.8849 689.187 82.2956 745.79 115.974 791.846L61.3032 633.668ZM1170.22 223.757L1170.22 223.764L1170.22 223.771C1170.22 223.77 1170.21 223.884 1170.18 224.136C1170.16 224.377 1170.12 224.729 1170.06 225.187C1169.95 226.102 1169.77 227.44 1169.51 229.163C1168.99 232.608 1168.14 237.588 1166.83 243.791C1164.2 256.198 1159.72 273.496 1152.28 293.19C1138.53 329.527 1111.8 381.679 1061.71 423.37C1058.82 425.779 1055.94 428.177 1052.93 430.418L1052.92 430.422C1021.39 454.553 993.19 472.993 965.844 490.719L965.426 490.99C933.939 511.396 903.976 530.815 872.424 557.08C835.376 587.919 801.118 623.865 764.792 670.548C715.923 732.957 670.265 781.559 625.332 818.962C580.111 856.605 534.491 883.454 489.747 898.995C438.957 916.66 387.108 920.125 335.984 909.491C287.127 899.291 249.05 887.03 215.91 870.413L215.908 870.412C174.675 849.945 142.743 823.612 118.358 790.21L118.358 790.21C84.9277 744.472 65.818 688.931 64.2416 633.619C64.0603 623.711 64.2979 613.724 65.2138 603.971L65.214 603.968C70.0934 549.378 96.1585 496.487 133.058 465.772C146.314 454.737 160.649 446.767 175.934 441.699C213.87 429.275 259.062 427.789 306.988 426.214C308.042 426.179 309.098 426.144 310.155 426.109C310.155 426.109 310.155 426.109 310.156 426.109L311.213 426.077C353.844 424.78 397.733 423.444 440.653 414.566C489.953 404.588 530.154 386.003 563.771 358.02L563.777 358.015C566.084 356.094 568.407 354.161 570.6 352.069C593.51 331.535 612.845 303.283 630.266 271.507C647.568 239.949 662.999 204.882 678.174 170.399L678.495 169.671L678.037 169.469L678.495 169.67L678.821 168.928C694.785 132.592 711.025 95.6272 729.486 62.5334C748.073 29.213 768.892 -0.147922 793.911 -20.9737C821.583 -44.0089 852.206 -54.9716 887.069 -54.4063L887.077 -54.9062L887.069 -54.4062C968.244 -53.1731 1043.7 -18.5986 1099.25 43.1431C1147.75 97.009 1174.84 166.261 1170.22 223.757Z" fill="#FFEAEB" stroke="#FFEAEB"/>
<path d="M111.279 340.506C111.279 340.506 119.315 335.861 127.625 354.913C135.934 373.967 138.862 384.842 138.862 384.842C138.862 384.842 141.12 388.864 143.932 386.493C146.745 384.122 150.821 377.159 155.265 378.724C159.875 380.347 161.104 385.674 159.748 393.312C158.39 400.949 156.032 417.792 155.825 419.316C155.62 420.811 156.348 423.078 158.523 421.77C160.698 420.461 173.519 407.801 179.162 414.244C184.804 420.688 177.528 441.343 176.776 443.617C176.024 445.891 176.417 446.904 177.48 447.542C178.543 448.18 182.452 443.519 186.245 440.068C190.04 436.616 195.043 433.28 197.988 437.271C200.933 441.261 200.999 457.092 184.45 481.805L176.032 492.754L162.252 491.156C132.97 485.937 121.612 474.908 120.779 470.02C119.947 465.131 125.821 463.841 130.939 463.501C136.057 463.162 142.126 463.579 142.404 462.371C142.682 461.163 142.223 460.177 140.064 459.142C137.904 458.108 117.978 449.022 117.249 440.488C116.521 431.955 134.533 431.498 136.984 430.839C139.435 430.18 138.309 428.084 137.089 427.194C135.848 426.286 122.079 416.304 115.635 411.984C109.192 407.664 106.207 403.083 108.234 398.637C109.664 395.503 114.24 395.672 118.027 395.84C119.421 395.903 120.708 395.964 121.692 395.862C125.352 395.48 124.019 391.063 124.019 391.063C124.019 391.063 118.215 381.411 110.254 362.211C102.292 343.01 111.449 340.423 111.449 340.423L111.279 340.506Z" fill="#40EAEA"/>
<path d="M175.508 489.897C169.608 475.817 161.292 456.436 152.035 435.055C142.78 413.683 134.418 394.326 128.44 380.282C125.464 373.272 123.054 367.591 121.376 363.641C120.546 361.694 119.9 360.174 119.451 359.12C119.232 358.62 119.062 358.231 118.939 357.948C118.82 357.685 118.749 357.555 118.749 357.555C118.749 357.555 118.791 357.698 118.894 357.966C119.007 358.253 119.162 358.648 119.363 359.156C119.792 360.219 120.413 361.75 121.207 363.712C122.813 367.668 125.18 373.373 128.132 380.412C134.031 394.492 142.346 413.871 151.601 435.244C160.858 456.624 169.221 475.982 175.199 490.027" fill="#011727"/>
<path d="M149.955 388.693C149.924 388.683 149.779 389.007 149.543 389.605C149.304 390.201 148.986 391.074 148.603 392.156C147.843 394.322 146.871 397.34 145.861 400.691C144.883 403.99 143.998 406.972 143.314 409.279C143.008 410.298 142.746 411.164 142.532 411.878C142.345 412.49 142.257 412.835 142.287 412.846C142.317 412.857 142.465 412.533 142.706 411.937C142.943 411.341 143.263 410.467 143.634 409.381C144.373 407.207 145.305 404.177 146.314 400.827C147.314 397.537 148.22 394.562 148.921 392.261C149.233 391.242 149.498 390.376 149.716 389.665C149.899 389.05 149.986 388.704 149.955 388.693Z" fill="#011727"/>
<path d="M141.008 413.014C141.051 412.891 134.918 410.61 127.311 407.919C119.702 405.227 113.499 403.145 113.455 403.268C113.412 403.392 119.544 405.673 127.154 408.364C134.76 411.055 140.964 413.138 141.008 413.014Z" fill="#011727"/>
<path d="M156.701 445.199C156.702 445.167 156.34 445.126 155.687 445.083C154.931 445.038 154.008 444.983 152.92 444.919C150.585 444.779 147.361 444.577 143.812 444.224C140.26 443.88 137.057 443.459 134.74 443.138C133.66 442.989 132.743 442.864 131.994 442.761C131.344 442.677 130.982 442.646 130.977 442.678C130.971 442.711 131.322 442.803 131.963 442.943C132.603 443.083 133.533 443.268 134.687 443.468C136.996 443.874 140.203 444.349 143.766 444.695C147.327 445.049 150.564 445.199 152.907 445.254C154.078 445.276 155.027 445.283 155.683 445.266C156.338 445.255 156.7 445.232 156.701 445.199Z" fill="#011727"/>
<path d="M169.638 424.981C169.61 424.964 169.4 425.226 169.044 425.716C168.688 426.206 168.185 426.923 167.573 427.815C166.348 429.598 164.683 432.08 162.869 434.837C161.054 437.596 159.433 440.106 158.28 441.937C157.703 442.853 157.244 443.598 156.935 444.118C156.625 444.639 156.468 444.936 156.495 444.953C156.523 444.971 156.733 444.709 157.089 444.22C157.445 443.73 157.947 443.012 158.56 442.121C159.785 440.337 161.449 437.855 163.265 435.097C165.078 432.34 166.699 429.829 167.852 427.998C168.429 427.084 168.89 426.339 169.198 425.817C169.506 425.297 169.665 425.001 169.638 424.981Z" fill="#011727"/>
<path d="M187.101 451.635C187.074 451.617 186.809 451.956 186.353 452.583C185.853 453.294 185.218 454.193 184.46 455.267C182.878 457.544 180.721 460.709 178.361 464.221C176.002 467.733 173.888 470.927 172.377 473.252C171.669 474.36 171.077 475.287 170.609 476.021C170.199 476.679 169.986 477.053 170.014 477.071C170.04 477.089 170.306 476.75 170.762 476.123C171.263 475.413 171.898 474.513 172.655 473.439C174.237 471.162 176.394 467.997 178.754 464.484C181.114 460.973 183.227 457.779 184.738 455.453C185.445 454.346 186.038 453.419 186.506 452.686C186.915 452.027 187.129 451.653 187.101 451.635Z" fill="#011727"/>
<path d="M170.252 476.348C170.254 476.315 169.797 476.254 168.971 476.169C168.055 476.083 166.879 475.971 165.471 475.838C162.515 475.556 158.435 475.154 153.943 474.585C149.45 474.023 145.395 473.411 142.462 472.949C141.064 472.731 139.897 472.549 138.989 472.407C138.167 472.282 137.71 472.229 137.703 472.261C137.698 472.293 138.144 472.408 138.955 472.588C139.767 472.767 140.945 473.007 142.406 473.279C145.327 473.826 149.382 474.493 153.885 475.054C158.385 475.624 162.478 475.974 165.443 476.171C166.926 476.266 168.127 476.33 168.959 476.353C169.789 476.381 170.249 476.381 170.252 476.348Z" fill="#011727"/>
<path d="M182.631 336.575C182.631 336.461 181.561 336.368 180.242 336.368C178.923 336.368 177.854 336.461 177.854 336.575C177.854 336.69 178.923 336.782 180.242 336.782C181.561 336.782 182.631 336.69 182.631 336.575Z" fill="#011727"/>
<path d="M202.118 336.575C202.118 336.461 199.936 336.368 197.246 336.368C194.555 336.368 192.374 336.461 192.374 336.575C192.374 336.69 194.555 336.782 197.246 336.782C199.936 336.782 202.118 336.69 202.118 336.575Z" fill="#011727"/>
<path d="M221.604 336.575C221.604 336.461 219.424 336.368 216.733 336.368C214.042 336.368 211.862 336.461 211.862 336.575C211.862 336.69 214.042 336.782 216.733 336.782C219.424 336.782 221.604 336.69 221.604 336.575Z" fill="#011727"/>
<path d="M214.4 480.058C214.4 480.172 216.551 480.265 219.202 480.265C221.854 480.265 224.003 480.172 224.003 480.058C224.003 479.944 221.854 479.85 219.202 479.85C216.551 479.85 214.4 479.944 214.4 480.058Z" fill="#011727"/>
<path d="M195.196 480.058C195.196 480.172 197.346 480.265 199.997 480.265C202.65 480.265 204.799 480.172 204.799 480.058C204.799 479.944 202.65 479.85 199.997 479.85C197.346 479.85 195.196 479.944 195.196 480.058Z" fill="#011727"/>
<path d="M180.817 480.058C180.817 480.172 181.886 480.265 183.205 480.265C184.524 480.265 185.594 480.172 185.594 480.058C185.594 479.944 184.524 479.85 183.205 479.85C181.886 479.85 180.817 479.944 180.817 480.058Z" fill="#011727"/>
<path d="M145.358 344.601C145.358 344.601 145.42 339.301 145.644 339.26L156.533 341.682C156.647 342.372 158.021 351.065 157.785 351.91L145.536 355.308C145.536 355.308 145.358 344.909 145.358 344.601Z" fill="#F9AD95"/>
<path d="M145.346 354.501C145.324 354.49 145.307 354.405 145.292 354.261C145.167 353.075 145.243 347.897 145.875 347.676C146.583 347.427 148.352 347.832 148.475 348.516C148.596 349.197 148.181 355.025 148.181 355.025C148.181 355.025 148.057 355.943 146.514 356.165C145.559 356.303 145.346 354.501 145.346 354.501Z" fill="#F9AD95"/>
<path d="M148.451 356.363C148.431 356.352 148.412 356.267 148.398 356.123C148.273 354.937 148.348 349.759 148.98 349.539C149.688 349.29 151.458 349.695 151.58 350.378C151.702 351.059 151.287 356.887 151.287 356.887C151.287 356.887 151.163 357.806 149.619 358.028C148.665 358.165 148.451 356.363 148.451 356.363Z" fill="#F9AD95"/>
<path d="M151.49 357.293C151.469 357.281 151.452 357.196 151.436 357.053C151.311 355.867 151.387 350.689 152.018 350.468C152.726 350.219 154.496 350.624 154.618 351.306C154.741 351.988 154.325 357.816 154.325 357.816C154.325 357.816 154.202 358.734 152.657 358.957C151.703 359.095 151.49 357.293 151.49 357.293Z" fill="#F9AD95"/>
<path d="M154.512 358.167C154.492 358.156 154.473 358.071 154.458 357.928C154.333 356.742 154.41 351.563 155.042 351.342C155.749 351.094 157.519 351.499 157.64 352.181C157.763 352.863 157.347 358.691 157.347 358.691C157.347 358.691 157.224 359.609 155.679 359.832C154.726 359.969 154.512 358.167 154.512 358.167Z" fill="#F9AD95"/>
<path d="M148.498 350.03C148.408 350.037 148.299 351.166 148.255 352.549C148.21 353.934 148.246 355.051 148.335 355.044C148.424 355.036 148.533 353.908 148.577 352.523C148.623 351.139 148.586 350.022 148.498 350.03Z" fill="#F6865E"/>
<path d="M151.55 350.014C151.461 350.01 151.331 351.614 151.261 353.596C151.19 355.579 151.206 357.187 151.296 357.19C151.386 357.194 151.516 355.59 151.586 353.608C151.656 351.626 151.64 350.016 151.55 350.014Z" fill="#F6865E"/>
<path d="M154.398 357.447C154.406 357.447 154.415 357.433 154.425 357.404C154.416 357.172 154.41 356.896 154.408 356.593C154.39 356.876 154.373 357.125 154.359 357.323C154.371 357.404 154.383 357.447 154.398 357.447Z" fill="#F8A081"/>
<path d="M154.627 352.544C154.658 352.334 154.693 352.143 154.731 351.979C154.739 350.955 154.711 350.272 154.652 350.27C154.613 350.27 154.566 350.577 154.52 351.089C154.571 351.158 154.605 351.231 154.619 351.307C154.648 351.471 154.647 351.935 154.627 352.544Z" fill="#F79069"/>
<path d="M154.359 357.324C154.373 357.126 154.39 356.878 154.408 356.594C154.402 355.362 154.46 353.673 154.626 352.545C154.646 351.936 154.648 351.472 154.618 351.307C154.605 351.232 154.57 351.159 154.519 351.09C154.46 351.747 154.402 352.741 154.362 353.854C154.304 355.513 154.304 356.91 154.359 357.324Z" fill="#F79069"/>
<path d="M154.425 357.405C154.512 357.139 154.625 355.656 154.687 353.865C154.712 353.174 154.726 352.528 154.73 351.979C154.692 352.144 154.657 352.334 154.626 352.545C154.461 353.673 154.402 355.361 154.408 356.594C154.41 356.897 154.416 357.173 154.425 357.405Z" fill="#F79069"/>
<path d="M156.602 341.966C156.602 341.966 160.912 351.758 160.282 352.367C159.652 352.974 157.63 353.907 157.63 353.907L156.602 341.966Z" fill="#F9AD95"/>
<path d="M180.432 210.635L183.59 247.255L201.931 245.79C202.046 243.649 201.892 235.365 201.892 235.365C201.892 235.365 209.523 234.178 209.617 226.548C209.663 222.843 209.133 215.185 208.576 208.287C207.958 200.633 201.343 194.878 193.677 195.325C185.739 195.789 179.749 202.713 180.432 210.635Z" fill="#F9AD95"/>
<path d="M201.904 235.254C201.904 235.254 197.082 235.647 191.958 232.427C191.958 232.427 194.309 237.918 201.922 237.231L201.904 235.254Z" fill="#F6865E"/>
<path d="M206.543 213.632C206.564 214.208 206.093 214.7 205.493 214.732C204.894 214.764 204.39 214.325 204.37 213.749C204.349 213.174 204.82 212.682 205.419 212.65C206.019 212.617 206.523 213.057 206.543 213.632Z" fill="#011727"/>
<path d="M194.998 213.633C195.019 214.208 194.548 214.7 193.948 214.732C193.349 214.764 192.845 214.325 192.826 213.749C192.804 213.174 193.275 212.682 193.875 212.65C194.475 212.617 194.978 213.057 194.998 213.633Z" fill="#011727"/>
<path d="M199.674 221.046C199.669 220.979 200.398 220.853 201.58 220.702C201.879 220.671 202.162 220.612 202.213 220.407C202.283 220.192 202.158 219.868 202.013 219.52C201.731 218.795 201.436 218.036 201.127 217.24C199.897 213.994 199.007 211.325 199.139 211.277C199.269 211.228 200.373 213.82 201.603 217.067C201.898 217.867 202.181 218.63 202.451 219.36C202.564 219.7 202.759 220.086 202.606 220.535C202.525 220.759 202.306 220.921 202.114 220.973C201.921 221.031 201.753 221.035 201.605 221.044C200.416 221.107 199.679 221.113 199.674 221.046Z" fill="#011727"/>
<path d="M196.224 221.858C196.415 221.846 196.417 223.119 197.507 224.022C198.594 224.928 199.951 224.785 199.961 224.963C199.979 225.043 199.659 225.21 199.086 225.226C198.525 225.245 197.705 225.065 197.038 224.512C196.374 223.959 196.087 223.219 196.044 222.697C195.995 222.165 196.137 221.85 196.224 221.858Z" fill="#011727"/>
<path d="M178.795 205.916C179.229 209.624 180.24 214.312 180.533 218.102C180.56 218.451 180.595 218.82 180.806 219.1C181.349 219.821 182.642 221.378 183.302 220.762C184.909 219.265 185.538 215.073 185.858 212.9C186.178 210.726 186.124 208.513 186.422 206.336L186.443 206.182C186.655 204.655 187.455 203.273 188.661 202.314C188.944 202.125 189.24 201.951 189.558 201.839C191.799 201.049 195.537 202.509 197.77 203.322C198.923 203.743 200.038 204.261 201.157 204.769C203.718 205.931 206.753 205.757 209.032 204.108C210.391 203.126 210.511 200.014 209.915 198.045C208.309 192.731 201.623 190.901 193.05 192.931C184.54 194.947 177.925 198.293 178.795 205.916Z" fill="#011727"/>
<path d="M183.005 214.087C182.875 214.031 177.763 212.536 177.929 217.753C178.096 222.969 183.298 221.726 183.303 221.576C183.307 221.426 183.005 214.087 183.005 214.087Z" fill="#F9AD95"/>
<path d="M181.646 219.651C181.622 219.635 181.557 219.717 181.406 219.793C181.258 219.866 181.002 219.922 180.727 219.829C180.169 219.644 179.678 218.783 179.623 217.844C179.594 217.37 179.679 216.915 179.835 216.536C179.982 216.149 180.221 215.874 180.496 215.816C180.77 215.743 180.972 215.903 181.041 216.047C181.115 216.192 181.086 216.297 181.113 216.305C181.128 216.317 181.222 216.214 181.173 216C181.148 215.897 181.084 215.775 180.957 215.679C180.829 215.582 180.644 215.536 180.451 215.563C180.05 215.603 179.699 215.985 179.528 216.401C179.334 216.821 179.227 217.333 179.259 217.865C179.327 218.915 179.895 219.882 180.656 220.075C181.026 220.16 181.329 220.04 181.484 219.911C181.641 219.777 181.664 219.66 181.646 219.651Z" fill="#F6865E"/>
<path d="M195.851 489.377L196.38 486.921L225.423 493.096C225.423 493.096 226.675 493.931 226.349 494.859L195.851 489.377Z" fill="#212121"/>
<path d="M215.357 467.62L211.97 483.228C211.97 483.228 226.695 491.913 226.349 494.858L195.852 489.376L200.133 464.841L215.357 467.62Z" fill="#212121"/>
<path d="M180.671 469.339L180.168 485.301C180.168 485.301 196.224 491.173 196.418 494.133L165.432 494.269L165.196 469.364L180.671 469.339Z" fill="#212121"/>
<path d="M196.43 493.976H195.438V492.696H196.43V493.976Z" fill="#92455B"/>
<path d="M196.395 493.979C196.411 493.979 196.414 493.979 196.43 493.979C196.43 493.978 196.43 493.977 196.43 493.976C196.418 493.976 196.406 493.976 196.394 493.976C196.394 493.977 196.394 493.978 196.395 493.979Z" fill="#011727"/>
<path d="M165.432 494.269L196.418 494.133C196.426 494.08 196.43 494.029 196.43 493.979C196.414 493.979 196.411 493.979 196.395 493.979C196.407 494.031 196.415 494.082 196.418 494.133L165.432 494.269Z" fill="#011727"/>
<path d="M165.432 494.269L196.418 494.133C196.415 494.082 196.407 494.031 196.395 493.979C196.394 493.977 196.394 493.977 196.394 493.975C196.3 493.587 195.96 493.155 195.439 492.695C195.291 492.611 195.188 492.566 195.188 492.566L165.507 491.757L165.432 494.269Z" fill="#212121"/>
<path d="M217.027 481.008C217.027 481.008 232.91 403.089 232.924 401.529L204.55 386.528L193.562 477.971L217.027 481.008Z" fill="#263238"/>
<path d="M181.297 483.619L203.238 348.568V319.441L173.263 322.222C172.885 323.357 163.072 483.798 163.072 483.798L166.166 483.619H181.297Z" fill="#263238"/>
<path d="M220.486 317.38L232.924 401.529L205.116 394.785L193.781 320.115L220.486 317.38Z" fill="#263238"/>
<path d="M194.761 324.514C194.761 324.514 194.757 324.654 194.73 324.927C194.699 325.213 194.657 325.614 194.602 326.134C194.48 327.209 194.302 328.769 194.074 330.772C193.598 334.797 192.883 340.619 191.948 347.806C190.092 362.183 187.275 382.008 184.25 403.913C182.743 414.87 181.358 425.315 180.175 434.825C179.87 437.202 179.628 439.524 179.292 441.775C178.948 444.019 178.613 446.196 178.291 448.303C177.652 452.515 177.058 456.438 176.514 460.022C175.438 467.188 174.587 472.992 174.03 477.005C173.751 479.012 173.546 480.571 173.423 481.63C173.361 482.16 173.321 482.564 173.303 482.836C173.294 482.973 173.291 483.076 173.299 483.143C173.308 483.23 173.349 483.137 173.346 483.154L173.335 483.179L173.28 483.146C173.265 483.077 173.262 482.973 173.264 482.835C173.269 482.56 173.296 482.154 173.347 481.622C173.444 480.56 173.626 478.996 173.882 476.985C174.394 472.964 175.205 467.155 176.247 459.984C176.776 456.397 177.355 452.47 177.977 448.255C178.295 446.148 178.622 443.968 178.96 441.724C179.289 439.484 179.527 437.156 179.827 434.78C180.989 425.268 182.364 414.819 183.872 403.861C186.897 381.954 189.757 362.136 191.68 347.77C192.627 340.596 193.394 334.787 193.926 330.753C194.185 328.755 194.387 327.198 194.526 326.125C194.597 325.607 194.652 325.208 194.691 324.922C194.73 324.651 194.761 324.514 194.761 324.514Z" fill="#0360A3"/>
<path d="M211.486 480.285C211.486 480.285 211.497 480.149 211.538 479.885C211.583 479.608 211.645 479.22 211.727 478.718C211.905 477.678 212.163 476.17 212.493 474.236C213.178 470.331 214.164 464.707 215.381 457.763C217.858 443.848 221.275 424.648 225.049 403.441C225.326 402.135 225.422 400.811 225.283 399.506C225.117 398.204 224.9 396.888 224.708 395.594C224.307 393.002 223.912 390.447 223.523 387.936C222.733 382.92 221.954 378.081 221.185 373.478C219.654 364.27 218.176 355.993 216.856 349.059C215.532 342.125 214.372 336.531 213.49 332.684C213.072 330.755 212.695 329.269 212.461 328.257C212.346 327.762 212.258 327.378 212.194 327.105C212.137 326.845 212.116 326.71 212.116 326.71C212.116 326.71 212.161 326.839 212.232 327.095C212.304 327.367 212.404 327.747 212.536 328.238C212.794 329.245 213.196 330.726 213.634 332.651C214.562 336.49 215.763 342.078 217.121 349.008C218.475 355.938 219.982 364.212 221.532 373.419C222.31 378.023 223.097 382.861 223.893 387.879C224.283 390.389 224.68 392.944 225.083 395.537C225.277 396.838 225.492 398.13 225.663 399.467C225.806 400.809 225.705 402.189 225.424 403.518C221.607 424.713 218.151 443.903 215.647 457.812C214.38 464.746 213.352 470.362 212.64 474.261C212.278 476.19 211.997 477.694 211.804 478.732C211.706 479.229 211.63 479.616 211.576 479.892C211.523 480.154 211.486 480.285 211.486 480.285Z" fill="#0360A3"/>
<path d="M203.238 347.615C203.343 347.631 202.046 356.356 200.343 367.1C198.64 377.847 197.175 386.543 197.071 386.527C196.967 386.511 198.263 377.788 199.966 367.04C201.669 356.297 203.134 347.599 203.238 347.615Z" fill="#0360A3"/>
<path d="M181.56 483.375C181.562 483.402 181.306 483.445 180.841 483.501C180.376 483.557 179.703 483.621 178.869 483.685C177.202 483.816 174.894 483.939 172.342 483.982C169.79 484.023 167.479 483.977 165.808 483.902C164.973 483.864 164.298 483.823 163.832 483.782C163.365 483.741 163.108 483.708 163.109 483.68C163.111 483.626 164.145 483.625 165.815 483.632C167.485 483.638 169.79 483.641 172.336 483.6C174.882 483.557 177.185 483.477 178.854 483.416C180.523 483.355 181.556 483.321 181.56 483.375Z" fill="#0360A3"/>
<path d="M217.027 481.008C217.023 481.034 216.692 481.016 216.096 480.961C215.423 480.889 214.578 480.8 213.573 480.692C211.446 480.45 208.511 480.09 205.272 479.668C202.032 479.247 199.101 478.845 196.983 478.538C195.984 478.386 195.145 478.258 194.476 478.157C193.885 478.059 193.561 477.994 193.562 477.971C193.565 477.941 193.898 477.957 194.494 478.009C195.092 478.062 195.953 478.151 197.017 478.271C199.145 478.509 202.081 478.868 205.321 479.29C208.56 479.711 211.491 480.115 213.609 480.425C214.607 480.58 215.447 480.71 216.115 480.813C216.706 480.914 217.031 480.982 217.027 481.008Z" fill="#0360A3"/>
<path d="M258.788 267.638L240.897 281.243C240.897 281.243 224.25 252.855 222.78 251.09C221.309 249.326 217.57 247.436 217.57 247.436L219.637 283.834C219.637 283.834 228.641 306.811 240.996 305.563C250.457 304.608 266.811 279.646 266.811 279.646L258.788 267.638Z" fill="#FF2D3B"/>
<path d="M241.279 280.952L241.305 280.933C241.28 280.893 241.255 280.854 241.229 280.814L241.279 280.952Z" fill="#CECDCC"/>
<path d="M241.79 295.196C241.972 295.196 242.151 295.153 242.315 295.056C242.714 294.818 242.899 294.347 243.038 293.902C244.384 289.605 243.73 284.726 241.305 280.933L241.28 280.952L241.388 281.247C239.864 284.7 238.339 288.154 236.815 291.607C236.458 292.417 236.131 293.451 236.725 294.106C236.974 294.379 237.328 294.5 237.696 294.5C238.061 294.5 238.438 294.382 238.74 294.176C239.344 293.762 239.714 293.091 240.061 292.445C240.1 293.141 240.148 293.871 240.523 294.459C240.796 294.886 241.303 295.196 241.79 295.196Z" fill="#BF222C"/>
<path d="M254.287 271.715C254.174 271.788 256.009 274.86 258.383 278.578C260.759 282.297 262.775 285.253 262.889 285.18C263.001 285.109 261.168 282.036 258.792 278.317C256.418 274.6 254.401 271.644 254.287 271.715Z" fill="#011727"/>
<path d="M258.841 271.217C258.889 271.175 258.658 270.939 258.249 271.092C258.064 271.167 257.839 271.338 257.771 271.652C257.697 271.974 257.908 272.33 258.204 272.475C258.492 272.636 258.905 272.608 259.128 272.365C259.348 272.131 259.361 271.849 259.318 271.654C259.212 271.229 258.886 271.174 258.88 271.237C258.846 271.299 258.995 271.435 258.978 271.694C258.97 271.967 258.751 272.218 258.43 272.046C258.106 271.879 258.188 271.557 258.409 271.395C258.613 271.234 258.809 271.28 258.841 271.217Z" fill="#011727"/>
<path d="M240.874 289.867C240.99 289.909 241.658 288.02 241.688 285.577C241.733 283.133 241.124 281.226 241.008 281.263C240.866 281.295 241.249 283.199 241.202 285.57C241.175 287.939 240.733 289.832 240.874 289.867Z" fill="#011727"/>
<path d="M237.408 289.745C237.516 289.813 238.689 288.083 239.702 285.723C240.723 283.365 241.173 281.325 241.051 281.293C240.915 281.254 240.262 283.208 239.256 285.531C238.258 287.857 237.286 289.673 237.408 289.745Z" fill="#011727"/>
<path d="M180.141 243.977L182.846 238.63H202.408L205.483 244.702L217.57 247.436L222.776 325.378C222.809 326.365 222.57 327.343 222.085 328.204L174.561 330.03L172.627 330.82C170.921 329.77 171.985 325.427 171.965 323.387L171.356 284.786L161.953 253.942L180.141 243.977Z" fill="#FF2D3B"/>
<path d="M193.076 252.594C194.371 249.47 195.666 246.347 196.961 243.224C197.894 244.157 198.827 245.09 199.76 246.024C198.534 243.819 197.556 241.477 196.85 239.055C195.739 242.007 194.627 244.958 193.514 247.91C189.126 246.502 184.739 245.094 180.35 243.685C184.348 246.985 188.608 249.966 193.076 252.594ZM200.159 246.72L200.418 246.68C200.199 246.462 199.979 246.243 199.76 246.024C199.891 246.257 200.023 246.489 200.159 246.72Z" fill="#BF222C"/>
<path d="M145.272 341.709L158.081 342.371L158.108 305.611L171.356 284.785L161.954 253.942C160.016 254.705 145.423 291.35 141.707 301.299C141.171 302.736 140.936 304.262 141.015 305.794L145.272 341.709Z" fill="#FF2D3B"/>
<path d="M217.57 263.525C217.436 263.538 218.071 271.075 218.989 280.358C219.905 289.644 220.757 297.159 220.891 297.145C221.024 297.133 220.388 289.596 219.47 280.31C218.554 271.027 217.703 263.511 217.57 263.525Z" fill="#011727"/>
<path d="M196.86 239.08C196.735 239.131 197.778 241.937 199.189 245.345C199.277 245.558 199.365 245.768 199.451 245.976C199.543 246.187 199.64 246.43 199.877 246.625C200.123 246.841 200.524 246.802 200.726 246.68C200.951 246.565 201.099 246.446 201.271 246.339C201.89 245.919 202.477 245.522 203.03 245.148C204.023 244.457 204.619 244.002 204.583 243.946C204.547 243.89 203.885 244.242 202.845 244.859C202.274 245.206 201.669 245.574 201.029 245.962C200.681 246.179 200.33 246.436 200.172 246.252C199.962 246.076 199.823 245.565 199.637 245.16C198.227 241.751 196.983 239.029 196.86 239.08Z" fill="#011727"/>
<path d="M181.302 243.854C181.28 243.917 182.423 244.373 184.288 245.058C186.154 245.742 188.742 246.656 191.609 247.637C192.146 247.82 192.672 248 193.176 248.171L193.39 248.243L193.475 248.036C194.486 245.594 195.356 243.432 195.96 241.874C196.565 240.316 196.903 239.363 196.846 239.34C196.791 239.317 196.35 240.227 195.668 241.752C194.985 243.277 194.059 245.417 193.033 247.851L193.331 247.717C192.829 247.544 192.302 247.363 191.767 247.179C188.899 246.197 186.294 245.335 184.4 244.733C182.506 244.131 181.323 243.791 181.302 243.854Z" fill="#011727"/>
<path d="M163.965 255.045C163.928 255.187 166.682 255.933 169.874 257.363C173.077 258.777 175.475 260.323 175.555 260.199C175.59 260.147 175.034 259.694 174.061 259.063C173.089 258.432 171.69 257.641 170.073 256.92C168.453 256.201 166.929 255.693 165.81 255.393C164.69 255.093 163.98 254.984 163.965 255.045Z" fill="#011727"/>
<path d="M196.859 239.079C196.851 239.079 196.842 239.158 196.832 239.312C196.824 239.495 196.813 239.719 196.801 239.996C196.782 240.598 196.748 241.486 196.736 242.629C196.711 244.915 196.725 248.226 196.885 252.314C197.178 260.49 198.2 271.754 199.831 284.122C200.625 290.312 201.497 296.19 202.086 301.556C202.681 306.922 202.941 311.78 202.861 315.858C202.805 319.938 202.434 323.227 202.101 325.483C201.962 326.617 201.781 327.486 201.693 328.081C201.652 328.354 201.618 328.577 201.59 328.758C201.57 328.911 201.563 328.991 201.572 328.992C201.58 328.994 201.602 328.917 201.639 328.768C201.68 328.589 201.728 328.37 201.789 328.1C201.907 327.509 202.12 326.644 202.287 325.513C202.679 323.259 203.104 319.962 203.204 315.866C203.328 311.771 203.102 306.889 202.531 301.509C201.965 296.126 201.105 290.245 200.312 284.06C198.682 271.699 197.608 260.459 197.228 252.298C197.024 248.218 196.958 244.913 196.925 242.629C196.914 241.517 196.906 240.638 196.899 239.998C196.892 239.721 196.886 239.495 196.881 239.312C196.875 239.159 196.867 239.079 196.859 239.079Z" fill="#011727"/>
<path d="M144.578 336.083C144.585 336.217 147.625 336.176 151.367 335.993C155.111 335.809 158.139 335.552 158.132 335.418C158.126 335.285 155.086 335.325 151.343 335.508C147.601 335.692 144.571 335.949 144.578 336.083Z" fill="#011727"/>
<path d="M155.941 337.514C155.899 337.568 155.964 337.696 155.901 337.862C155.828 338.042 155.697 338.129 155.525 337.996C155.357 337.856 155.414 337.709 155.576 337.6C155.724 337.503 155.864 337.539 155.907 337.486C155.96 337.452 155.823 337.222 155.475 337.272C155.318 337.3 155.112 337.395 155.005 337.64C154.893 337.889 155.007 338.211 155.22 338.373C155.423 338.547 155.763 338.59 155.983 338.428C156.199 338.271 156.248 338.05 156.243 337.89C156.218 337.54 155.964 337.454 155.941 337.514Z" fill="#011727"/>
<path d="M171.394 287.186L171.356 284.786L171.27 284.504L171.356 284.786L171.301 284.873C171.332 285.643 171.363 286.414 171.394 287.186Z" fill="#CECDCC"/>
<path d="M172.59 316.91C176.067 304 177.008 290.412 175.345 277.145C173.986 279.598 172.629 282.051 171.271 284.505L171.357 284.786L171.394 287.186C171.793 297.094 172.191 307.002 172.59 316.91Z" fill="#BF222C"/>
<path d="M171.302 284.873L171.356 284.786L171.27 284.504C171.236 284.566 171.202 284.627 171.168 284.689L171.3 284.851C171.301 284.858 171.301 284.866 171.302 284.873Z" fill="#053D66"/>
<path d="M192.366 270.834C192.382 270.817 192.12 270.801 191.612 270.784C191.03 270.77 190.29 270.751 189.384 270.728C187.454 270.689 184.661 270.644 181.301 270.623L181.074 270.622L181.09 270.85C181.307 273.791 181.557 277.2 181.825 280.833L181.834 280.966L181.953 281.028C182.11 281.111 182.28 281.2 182.45 281.29C184.331 282.279 186.148 283.234 187.86 284.134L187.997 284.206L188.116 284.109C189.941 282.617 191.63 281.235 193.138 280.003L193.219 279.936L193.21 279.835C192.975 277.136 192.778 274.886 192.634 273.223C192.562 272.501 192.502 271.907 192.454 271.432C192.41 271.026 192.38 270.819 192.366 270.834C192.353 270.849 192.356 271.085 192.37 271.514C192.392 272.003 192.419 272.613 192.452 273.355C192.544 274.991 192.668 277.206 192.817 279.864L192.89 279.696C191.369 280.912 189.665 282.275 187.823 283.747L188.078 283.722C186.368 282.817 184.555 281.857 182.676 280.862C182.506 280.772 182.336 280.682 182.18 280.599L182.308 280.795C182.018 277.165 181.747 273.758 181.512 270.818L181.301 271.045C184.571 271.025 187.311 270.979 189.255 270.94C190.178 270.917 190.934 270.899 191.528 270.884C192.059 270.867 192.351 270.851 192.366 270.834Z" fill="#011727"/>
<path d="M215.865 328.592C215.874 328.726 216.868 328.545 217.509 327.582C218.16 326.625 217.953 325.636 217.827 325.678C217.686 325.684 217.659 326.514 217.106 327.31C216.577 328.121 215.819 328.461 215.865 328.592Z" fill="#011727"/>
<path d="M214.626 328.078C214.709 328.172 215.61 327.313 215.967 325.873C216.338 324.435 215.952 323.251 215.834 323.294C215.693 323.319 215.839 324.443 215.497 325.754C215.175 327.07 214.513 327.989 214.626 328.078Z" fill="#011727"/>
<path d="M178.755 322.72C178.634 322.7 178.519 324.591 179.496 326.644C180.454 328.706 181.985 329.822 182.046 329.717C182.149 329.611 180.839 328.391 179.935 326.437C179.006 324.495 178.903 322.707 178.755 322.72Z" fill="#011727"/>
<path d="M259.785 269.131C259.785 269.131 271.672 259.716 273.701 258.982V261.287V263.131L272.523 265.09C272.523 265.09 280.915 267.922 281.52 268.253C282.196 268.623 282.424 270.435 280.384 270.435C278.705 270.435 270.657 270.623 270.657 270.623L264.02 275.47L259.785 269.131Z" fill="#F9AD95"/>
<g filter="url(#filter0_d)">
<rect x="250.566" y="328.462" width="99.0937" height="89.0934" rx="4" transform="rotate(22.8288 250.566 328.462)" fill="white"/>
<path d="M249.014 332.149C249.872 330.112 252.217 329.157 254.253 330.014L338.211 365.356C340.247 366.213 341.203 368.559 340.346 370.595L328.847 397.911L237.516 359.464L249.014 332.149Z" fill="#40EAEA"/>
<rect x="253.875" y="341.691" width="22.7279" height="2.72735" rx="1.36368" transform="rotate(22.8288 253.875 341.691)" fill="white"/>
<rect x="241.883" y="370.18" width="22.7279" height="2.72735" rx="1.36368" transform="rotate(22.8288 241.883 370.18)" fill="#D8D8D8"/>
<rect x="287.968" y="389.579" width="22.7279" height="2.72735" rx="1.36368" transform="rotate(22.8288 287.968 389.579)" fill="#D8D8D8"/>
<rect x="233.417" y="390.29" width="22.7279" height="2.72735" rx="1.36368" transform="rotate(22.8288 233.417 390.29)" fill="#D8D8D8"/>
<rect x="279.502" y="409.689" width="22.7279" height="2.72735" rx="1.36368" transform="rotate(22.8288 279.502 409.689)" fill="#D8D8D8"/>
<rect x="251.406" y="347.557" width="31.8191" height="4.54558" rx="2.27279" transform="rotate(22.8288 251.406 347.557)" fill="white"/>
<rect x="239.413" y="376.045" width="31.8191" height="4.54558" rx="2.27279" transform="rotate(22.8288 239.413 376.045)" fill="#D8D8D8"/>
<rect x="285.498" y="395.445" width="31.8191" height="4.54558" rx="2.27279" transform="rotate(22.8288 285.498 395.445)" fill="#D8D8D8"/>
<rect x="230.948" y="396.155" width="31.8191" height="4.54558" rx="2.27279" transform="rotate(22.8288 230.948 396.155)" fill="#D8D8D8"/>
<rect x="277.033" y="415.555" width="31.8191" height="4.54558" rx="2.27279" transform="rotate(22.8288 277.033 415.555)" fill="#D8D8D8"/>
</g>
<path d="M459.501 380.108L353.915 386.265C350.185 386.484 346.525 387.374 343.111 388.891L228.424 440.191C226.412 441.076 224.764 442.624 223.756 444.577C222.747 446.531 222.439 448.771 222.884 450.923L241.834 540.545C242.154 541.988 242.801 543.339 243.723 544.494C244.646 545.649 245.82 546.578 247.157 547.21C248.493 547.842 249.956 548.159 251.435 548.139C252.913 548.118 254.367 547.76 255.685 547.091L368.884 490.579L473.414 487.08C474.7 487.046 475.964 486.738 477.122 486.177C478.28 485.616 479.306 484.814 480.13 483.826C480.954 482.838 481.558 481.685 481.902 480.446C482.246 479.206 482.322 477.907 482.125 476.635L468.14 390.82C467.412 386.388 464.046 379.975 459.501 380.108Z" fill="#FF2D3B"/>
<path opacity="0.1" d="M459.501 380.108L353.915 386.265C350.185 386.484 346.525 387.374 343.111 388.891L228.424 440.191C226.412 441.076 224.764 442.624 223.756 444.577C222.747 446.531 222.439 448.771 222.884 450.923L241.834 540.545C242.154 541.988 242.801 543.339 243.723 544.494C244.646 545.649 245.82 546.578 247.157 547.21C248.493 547.842 249.956 548.159 251.435 548.139C252.913 548.118 254.367 547.76 255.685 547.091L368.884 490.579L473.414 487.08C474.7 487.046 475.964 486.738 477.122 486.177C478.28 485.616 479.306 484.814 480.13 483.826C480.954 482.838 481.558 481.685 481.902 480.446C482.246 479.206 482.322 477.907 482.125 476.635L468.14 390.82C467.412 386.388 464.046 379.975 459.501 380.108Z" fill="black"/>
<path d="M460.189 383.751L356.049 389.62C352.357 389.822 348.735 390.709 345.368 392.236L232.364 443.249C230.373 444.149 228.75 445.7 227.761 447.648C226.772 449.596 226.478 451.823 226.926 453.96L245.876 543.623C246.182 545.057 246.812 546.403 247.718 547.555C248.624 548.708 249.783 549.638 251.105 550.273C252.426 550.908 253.876 551.232 255.342 551.219C256.809 551.206 258.253 550.858 259.563 550.2L371.09 494.005L474.183 490.743C475.46 490.702 476.713 490.39 477.859 489.827C479.005 489.264 480.017 488.463 480.829 487.477C481.641 486.492 482.233 485.344 482.566 484.111C482.899 482.879 482.966 481.589 482.761 480.329L468.735 394.524C468.007 390.05 464.682 383.628 460.189 383.751Z" fill="#FF2D3B"/>
<path opacity="0.2" d="M360.286 405.318L449.641 399.818" stroke="black" stroke-width="2" stroke-linecap="round" stroke-linejoin="round"/>
<path opacity="0.2" d="M349.585 407.625L365.909 482.606" stroke="black" stroke-width="2" stroke-linecap="round" stroke-linejoin="round"/>
<path opacity="0.2" d="M240.746 475.321L252.258 532.993C252.258 532.993 261.082 510.113 240.746 475.321Z" fill="#FFC4B4"/>
<path opacity="0.2" d="M242.255 475.998C242.655 477.024 344.507 433.316 344.507 433.316C344.783 443.226 342.305 453.018 337.349 461.603C332.394 470.189 325.154 477.232 316.435 481.949C285.778 499.135 242.255 475.998 242.255 475.998Z" fill="#FFC4B4"/>
<path d="M309.909 477.702C312.345 477.702 314.321 475.726 314.321 473.29C314.321 470.853 312.345 468.878 309.909 468.878C307.472 468.878 305.497 470.853 305.497 473.29C305.497 475.726 307.472 477.702 309.909 477.702Z" fill="#FF2D3B"/>
<path opacity="0.2" d="M344.558 433.316C344.558 433.316 357.188 452.328 354.13 484.709L344.558 433.316Z" fill="black"/>
<g opacity="0.2">
<path opacity="0.2" d="M235.872 452.667L238.222 451.631" stroke="#FFC4B4" stroke-linecap="round" stroke-linejoin="round"/>
<path opacity="0.2" d="M243.096 449.475L338.206 407.43" stroke="#FFC4B4" stroke-linecap="round" stroke-linejoin="round" stroke-dasharray="5.2 5.2"/>
<path opacity="0.2" d="M340.647 406.353L342.987 405.316" stroke="#FFC4B4" stroke-linecap="round" stroke-linejoin="round"/>
</g>
<path opacity="0.2" d="M363.282 422.174L452.637 416.664" stroke="black" stroke-width="2" stroke-linecap="round" stroke-linejoin="round"/>
<path opacity="0.2" d="M367.304 443.198L456.659 437.688" stroke="black" stroke-width="2" stroke-linecap="round" stroke-linejoin="round"/>
<g filter="url(#filter1_d)">
<rect x="330.8" y="223.519" width="92.8632" height="53.7432" rx="4" transform="rotate(17.7604 330.8 223.519)" fill="white"/>
</g>
<path d="M329.58 227.328C330.254 225.224 332.505 224.065 334.609 224.739L415.428 250.625C417.532 251.299 418.691 253.551 418.017 255.655L413.669 269.228L325.232 240.901L329.58 227.328Z" fill="#D8D8D8"/>
<path d="M328.656 251.522C329.33 249.418 331.581 248.259 333.685 248.933L343.754 252.158C345.858 252.832 347.017 255.084 346.343 257.188L342.597 268.883C341.923 270.987 339.672 272.146 337.568 271.472L327.499 268.247C325.395 267.573 324.236 265.321 324.91 263.217L328.656 251.522Z" fill="#FFEAEB"/>
<path d="M335.72 260.105C336.9 260.483 338.229 259.626 338.688 258.192C339.148 256.757 339.206 255.494 337.384 254.91C335.561 254.326 334.875 255.389 334.415 256.823C333.956 258.258 334.54 259.727 335.72 260.105Z" fill="#FF2D3B"/>
<path d="M330.414 262.778C330.441 262.691 330.421 262.753 330.414 262.778V262.778Z" fill="#FF2D3B"/>
<path d="M338.463 265.432C338.472 265.409 338.516 265.268 338.463 265.432V265.432Z" fill="#FF2D3B"/>
<path d="M338.513 265.257C339.274 262.746 339.176 261.929 336.826 260.679C336.826 260.679 336.331 261.015 335.512 260.752C334.693 260.49 334.486 259.93 334.486 259.93C331.875 259.585 331.304 260.176 330.479 262.594C330.412 262.792 330.407 262.802 330.414 262.779C330.4 262.822 330.374 262.902 330.33 263.041C330.33 263.041 330.54 264.43 333.981 265.532C337.422 266.635 338.4 265.626 338.4 265.626C338.429 265.537 338.449 265.474 338.463 265.432C338.457 265.446 338.465 265.418 338.513 265.257Z" fill="#FF2D3B"/>
<rect x="335.753" y="229.364" width="25.0731" height="3.04207" rx="1.52103" transform="rotate(17.7604 335.753 229.364)" fill="#BABABA"/>
<rect x="351.677" y="255.761" width="16.7154" height="2.02805" rx="1.01402" transform="rotate(17.7604 351.677 255.761)" fill="#808080"/>
<rect x="348.273" y="266.383" width="16.7154" height="2.02805" rx="1.01402" transform="rotate(17.7604 348.273 266.383)" fill="#808080"/>
<rect x="380.861" y="265.107" width="16.7154" height="2.02805" rx="1.01402" transform="rotate(17.7604 380.861 265.107)" fill="#808080"/>
<rect x="377.458" y="275.73" width="16.7154" height="2.02805" rx="1.01402" transform="rotate(17.7604 377.458 275.73)" fill="#808080"/>
<rect x="350.439" y="259.623" width="23.2158" height="3.04207" rx="1.52103" transform="rotate(17.7604 350.439 259.623)" fill="#D8D8D8"/>
<rect x="347.036" y="270.246" width="23.2158" height="3.04207" rx="1.52103" transform="rotate(17.7604 347.036 270.246)" fill="#D8D8D8"/>
<rect x="379.623" y="268.971" width="23.2158" height="3.04207" rx="1.52103" transform="rotate(17.7604 379.623 268.971)" fill="#D8D8D8"/>
<rect x="376.221" y="279.594" width="23.2158" height="3.04207" rx="1.52103" transform="rotate(17.7604 376.221 279.594)" fill="#D8D8D8"/>
<rect x="333.892" y="234.605" width="42.7171" height="4.05609" rx="2.02805" transform="rotate(17.7604 333.892 234.605)" fill="#808080"/>
<path d="M442.79 259.319C442.79 259.319 440.756 280.984 432.705 282.851C427.719 283.928 422.521 283.408 417.847 281.365L411.3 276.332L408.105 287.475C408.105 287.475 411.597 292.221 418.887 288.933C418.887 288.933 431.888 294.654 439.075 288.933C446.263 283.213 448.566 267.519 448.566 267.519L442.79 259.319Z" fill="#F9AD95"/>
<path d="M449.262 248.826C449.262 248.826 443.644 239.252 446.198 221.896C448.752 204.54 463.303 202.395 468.921 203.649C474.54 204.902 479.136 210.298 482.962 220.568C486.788 230.839 488.2 233.513 494.58 231.712C500.959 229.91 517.935 224.283 522.661 229.288C524.021 230.655 525.023 232.336 525.578 234.183C526.134 236.029 526.226 237.984 525.847 239.874C525.847 239.874 549.462 234.135 547.419 255.197C545.376 276.258 511.295 295.917 478.876 275.107C446.458 254.296 449.262 248.826 449.262 248.826Z" fill="#263238"/>
<path d="M449.002 299.799C449.002 299.799 442.586 354.988 442.799 380.869C443.013 406.75 452.206 467.742 452.206 467.742H463.545C463.545 467.742 462.05 418.971 462.263 402.283C462.477 385.596 465.467 357.987 465.467 357.987C465.467 357.987 469.098 382.8 473.379 391.567C477.66 400.333 501.405 431.359 517.879 440.988L525.577 433.922C525.577 433.922 508.463 412.749 502.046 402.265C495.629 391.78 489.862 388.809 487.503 369.307C485.145 349.806 489.221 318.613 482.377 299.79L449.002 299.799Z" fill="#263238"/>
<path opacity="0.2" d="M465.467 357.986L460.536 323.005C460.536 323.005 456.645 344.029 464.306 369.706L465.467 357.986Z" fill="black"/>
<path d="M454.537 470.834L454.918 481.671L462.523 482.302L462.904 481.29V470.072L454.537 470.834Z" fill="#F9AD95"/>
<path d="M450.925 466.711L451.621 470.77L464.678 471.085L465.504 466.21L450.925 466.711Z" fill="#40EAEA"/>
<path d="M514.304 441.74L526.404 430.467L529.069 434.711L518.678 444.22L514.304 441.74Z" fill="#40EAEA"/>
<path d="M520.136 441.741L528.122 448.464L533.248 442.437L526.692 435.658L520.136 441.741Z" fill="#F9AD95"/>
<path d="M534.799 441.972L539.628 444.944C539.848 445.08 540.036 445.262 540.178 445.477C540.32 445.693 540.414 445.937 540.452 446.193C540.49 446.449 540.472 446.709 540.398 446.957C540.325 447.205 540.198 447.434 540.027 447.628C536.526 451.584 527.584 461.631 526.692 462.337C525.587 463.266 524.25 461.706 523.906 460.313C523.906 460.313 526.441 456.951 526.692 454.797C526.798 453.133 526.798 451.464 526.692 449.801C526.673 449.384 526.812 448.976 527.082 448.659L532.478 442.325C532.756 441.995 533.145 441.778 533.572 441.713C533.999 441.648 534.435 441.74 534.799 441.972Z" fill="#263238"/>
<path d="M464.381 482.6L465.384 488.172C465.43 488.426 465.42 488.688 465.354 488.939C465.288 489.189 465.168 489.422 465.003 489.621C464.837 489.82 464.63 489.981 464.396 490.091C464.162 490.202 463.907 490.26 463.648 490.261C458.364 490.261 444.917 490.317 443.793 490.131C442.391 489.899 442.642 487.893 443.468 486.723C443.468 486.723 447.657 486.37 449.412 485.098C450.717 484.074 451.958 482.97 453.126 481.792C453.425 481.5 453.823 481.33 454.241 481.318L462.552 481.123C462.983 481.108 463.406 481.248 463.742 481.52C464.079 481.791 464.305 482.175 464.381 482.6Z" fill="#263238"/>
<path d="M483.593 269.191L495.183 261.056C495.183 261.056 492.1 248.724 487.531 248.111C482.962 247.498 460.285 243.18 445.863 248.111C445.863 248.111 440.681 249.587 439.084 264.139L445.25 266.107C445.25 266.107 447.46 293.354 448.825 297.551H481.736C481.736 297.551 482.107 274.122 483.593 269.191Z" fill="#40EAEA"/>
<path d="M486.092 267.437C486.092 267.437 490.484 279.973 491.264 286.715C491.264 286.715 480.826 282.555 478.133 280.651L476.09 273.315L469.181 269.944L467.129 275.516L472.896 282.666C472.896 282.666 488.617 297.376 496.585 294.014C504.553 290.652 493.437 262.311 493.437 262.311L486.092 267.437Z" fill="#F9AD95"/>
<path d="M456.608 212.544C456.608 212.544 452.587 220.568 452.894 227.096C453.2 233.624 456.497 236.289 462.765 237.209C462.765 237.209 465.439 245.566 458.419 246.412C457.88 246.477 457.695 248.603 457.732 248.947C457.918 250.303 459.264 251.045 460.518 251.361C461.838 251.654 463.186 251.803 464.539 251.807C465.959 251.856 467.372 251.581 468.67 251.004C469.968 250.426 471.118 249.561 472.033 248.473C472.181 248.297 473.593 246.495 473.593 246.495C473.593 246.495 470.24 244.833 471.42 233.949C473.02 232.908 474.248 231.386 474.93 229.603C475.571 229.263 476.137 228.799 476.596 228.238C477.055 227.677 477.398 227.03 477.605 226.335C478.106 224.162 476.184 221.153 472.673 224.162C472.673 224.162 466.062 220.818 463.554 209.108C461.695 211.008 459.246 212.219 456.608 212.544Z" fill="#F9AD95"/>
<path d="M458.493 225.314L459.059 221.023L456.022 224.385C456.336 224.719 456.721 224.976 457.15 225.137C457.578 225.298 458.037 225.358 458.493 225.314Z" fill="#FBCCBB"/>
<path d="M460.258 228.453C460.258 228.453 463.462 228.945 465.003 226.893" stroke="#222221" stroke-width="0.75" stroke-linecap="round" stroke-linejoin="round"/>
<path d="M463.461 215.014C464.188 214.808 464.958 214.801 465.689 214.996C466.419 215.19 467.084 215.579 467.612 216.12" stroke="#222221" stroke-linecap="round" stroke-linejoin="round"/>
<path d="M457.917 214.087C457.917 214.087 456.06 213.799 455.233 214.848" stroke="#222221" stroke-linecap="round" stroke-linejoin="round"/>
<path d="M464.751 220.661C464.668 221.302 464.25 221.785 463.823 221.729C463.396 221.674 463.108 221.107 463.191 220.457C463.275 219.807 463.693 219.333 464.12 219.389C464.547 219.445 464.835 220.011 464.751 220.661Z" fill="#222221"/>
<path d="M457.339 219.224C457.422 218.578 457.14 218.009 456.708 217.953C456.275 217.897 455.857 218.375 455.773 219.021C455.689 219.667 455.972 220.236 456.404 220.292C456.836 220.348 457.255 219.87 457.339 219.224Z" fill="#222221"/>
<path d="M464.13 219.389L462.663 218.748C462.682 218.909 462.743 219.061 462.84 219.191C462.936 219.321 463.065 219.423 463.213 219.488C463.362 219.553 463.524 219.578 463.685 219.56C463.846 219.543 463.999 219.484 464.13 219.389Z" fill="#222221"/>
<path d="M456.849 218.015L455.382 217.374C455.401 217.535 455.462 217.687 455.559 217.817C455.655 217.947 455.784 218.049 455.932 218.114C456.08 218.179 456.243 218.204 456.404 218.186C456.565 218.169 456.718 218.11 456.849 218.015Z" fill="#222221"/>
<path d="M447.675 296.102V299.975L483.334 300.272L482.378 295.666L447.675 296.102Z" fill="#40EAEA"/>
<path d="M586.376 395.598C597.434 381.148 623.757 375.774 632.86 366.659C644.772 354.707 644.72 336.774 634.569 330.3C625.764 324.681 596.553 362.671 593.277 366.943C581.948 381.562 578.672 392.399 576.548 402.9C576.794 393.979 577.027 385.77 577.222 379.451C577.83 358.825 578.594 352.183 578.957 350.15C580.252 349.14 581.624 347.987 582.453 347.366C589.522 342.096 605.19 335.816 613.023 328.164C624.469 316.977 622.618 303.562 614.59 298.603C606.213 293.424 591.374 305.712 583.514 317.922C575.655 330.132 579.009 341.837 576.807 351.898C576.341 353.892 575.862 361.44 575.422 371.916C573.558 361.593 567.848 352.362 559.444 346.084C548.606 337.435 539.245 326.895 530.311 328.254C521.376 329.614 526.232 343.559 533.25 353.348C539.543 362.062 570.605 370.763 575.176 377.768C574.632 392.011 574.153 409.944 573.816 426.699C571.369 418.05 573.052 417.325 563.018 404.04C557.061 396.167 532.59 386.43 529.689 391.869C526.789 397.307 531.204 407.51 540.436 414.67C547.881 420.445 564.338 420.432 568.236 424.019C569.129 424.847 572.12 428.059 573.752 429.91C573.35 450.342 573.182 468.379 573.376 474.542L574.982 474.607C574.904 473.014 575.085 462.617 575.409 448.853C579.423 441.538 606.484 437.2 614.784 429.638C623.511 421.675 629.778 412.378 626.036 406.15C622.916 400.971 598.353 408.015 588.292 416.612C581.637 422.348 577.571 428.46 575.707 436.669C575.927 427.295 576.199 417.247 576.445 407.73C578.491 405.412 583.061 399.935 586.376 395.598Z" fill="#40EAEA"/>
<path d="M588.733 490.519H560.688C559.147 490.519 557.826 488.525 557.528 485.754L555.534 467.627H593.874L591.893 485.754C591.569 488.525 590.261 490.519 588.733 490.519Z" fill="#212121"/>
<path d="M594.676 474.632H554.731C553.773 474.632 552.97 473.337 552.867 471.551L552.051 458.136C551.921 456.078 552.789 454.252 553.915 454.252H595.505C596.618 454.252 597.486 456.052 597.356 458.136L596.541 471.551C596.45 473.312 595.634 474.632 594.676 474.632Z" fill="#212121"/>
<path d="M124.948 219.007V226.776" stroke="#FF2D3B" stroke-width="2.5" stroke-linecap="round" stroke-linejoin="round"/>
<path d="M124.948 237.135V244.904" stroke="#FF2D3B" stroke-width="2.5" stroke-linecap="round" stroke-linejoin="round"/>
<path d="M112 231.955H119.769" stroke="#FF2D3B" stroke-width="2.5" stroke-linecap="round" stroke-linejoin="round"/>
<path d="M130.127 231.955H137.896" stroke="#FF2D3B" stroke-width="2.5" stroke-linecap="round" stroke-linejoin="round"/>
<path d="M551.356 156.252V164.021" stroke="#FF2D3B" stroke-width="2.5" stroke-linecap="round" stroke-linejoin="round"/>
<path d="M551.356 174.38V182.149" stroke="#FF2D3B" stroke-width="2.5" stroke-linecap="round" stroke-linejoin="round"/>
<path d="M538.408 169.2H546.177" stroke="#FF2D3B" stroke-width="2.5" stroke-linecap="round" stroke-linejoin="round"/>
<path d="M556.535 169.2H564.304" stroke="#FF2D3B" stroke-width="2.5" stroke-linecap="round" stroke-linejoin="round"/>
<path d="M143.942 469.595C144.592 466.851 143.483 463.887 141.543 461.839C139.603 459.792 136.937 458.564 134.212 457.837C131.016 456.986 127.655 456.765 124.376 457.191C123.085 457.359 121.776 457.639 120.674 458.333C119.574 459.027 118.708 460.207 118.688 461.508C118.659 463.431 120.355 464.89 121.942 465.978C124.737 467.895 127.684 469.59 130.746 471.045C133.209 472.215 135.876 473.25 138.589 472.971C141.301 472.693 143.611 471.398 144.02 469.213" fill="#FF2D3B"/>
<path d="M149.845 464.479C150.833 463.98 151.641 463.099 152.093 462.191C152.176 462.024 152.248 461.855 152.306 461.687C152.684 460.597 152.739 459.448 152.646 458.292C152.571 457.346 152.396 456.395 152.22 455.467C151.544 451.898 150.814 448.209 149.197 445.002C148.681 443.977 148.073 443.001 147.348 442.094C146.452 440.975 145.353 439.963 144.005 439.478C142.921 439.088 141.655 439.096 140.643 439.606C140.395 439.732 140.162 439.888 139.951 440.075C138.682 441.201 138.497 443.094 138.527 444.791C138.618 449.777 139.838 454.739 142.071 459.199C142.083 459.223 142.096 459.248 142.108 459.272C143.145 461.329 144.482 463.35 146.499 464.462C147.678 465.095 148.853 464.98 149.845 464.479Z" fill="#FF2D3B"/>
<path d="M157.553 472.443C159.359 469.949 162.154 468.332 165.093 467.412C166.672 466.917 168.412 466.586 169.956 467.179C171.5 467.773 172.66 469.604 171.997 471.12C171.602 472.022 170.699 472.585 169.815 473.018C167.679 474.066 165.134 474.882 164.082 477.015C163.483 478.233 163.45 479.771 162.473 480.713C161.518 481.636 159.903 481.612 158.788 480.893C157.67 480.175 157.006 478.907 156.704 477.615C156.704 477.615 155.732 474.956 157.553 472.443Z" fill="#FF2D3B"/>
<path d="M162.648 496.703C162.677 496.691 162.549 496.322 162.295 495.666C162.007 494.925 161.646 493.995 161.216 492.889C160.777 491.714 160.271 490.306 159.851 488.707C159.433 487.113 159.129 485.308 158.949 483.414C158.797 481.517 158.859 479.693 159.196 478.088C159.525 476.48 160.162 475.116 160.913 474.135C161.655 473.147 162.443 472.501 163.012 472.102C163.599 471.726 163.92 471.503 163.907 471.475C163.893 471.448 163.544 471.618 162.916 471.956C162.309 472.316 161.465 472.942 160.661 473.943C159.848 474.935 159.155 476.345 158.793 477.998C158.422 479.651 158.349 481.521 158.503 483.451C158.685 485.379 159.004 487.196 159.452 488.814C159.901 490.431 160.442 491.839 160.921 493.006C161.404 494.172 161.831 495.099 162.134 495.734C162.437 496.371 162.621 496.716 162.648 496.703Z" fill="#011727"/>
<path d="M161.803 494.576C161.816 494.568 161.746 494.408 161.602 494.112C161.43 493.774 161.214 493.35 160.949 492.826C160.381 491.712 159.566 490.096 158.619 488.07C156.703 484.029 154.265 478.348 151.872 471.958C149.484 465.563 147.619 459.667 146.454 455.35C146.15 454.274 145.897 453.294 145.688 452.433C145.47 451.57 145.28 450.829 145.15 450.217C145.016 449.648 144.907 449.183 144.82 448.814C144.739 448.495 144.69 448.329 144.674 448.332C144.658 448.334 144.679 448.506 144.731 448.833C144.796 449.206 144.879 449.676 144.98 450.253C145.084 450.872 145.248 451.621 145.444 452.489C145.629 453.361 145.863 454.347 146.146 455.431C147.237 459.779 149.059 465.705 151.452 472.115C153.85 478.517 156.34 484.194 158.334 488.207C159.319 490.221 160.18 491.818 160.795 492.91C161.09 493.417 161.331 493.828 161.522 494.156C161.693 494.438 161.789 494.583 161.803 494.576Z" fill="#011727"/>
<path d="M156.45 483.906C156.478 483.891 156.233 483.416 155.763 482.567C155.277 481.727 154.528 480.539 153.513 479.133C152.485 477.737 151.21 476.108 149.649 474.425C148.114 472.722 146.297 470.962 144.263 469.267C140.219 465.831 135.916 463.523 132.625 462.411C131.819 462.082 131.038 461.946 130.373 461.76C130.038 461.68 129.73 461.587 129.439 461.536C129.152 461.497 128.885 461.461 128.637 461.427C127.674 461.298 127.143 461.242 127.14 461.273C127.119 461.394 129.283 461.533 132.519 462.709C135.745 463.887 139.964 466.204 143.975 469.611C145.993 471.292 147.805 473.029 149.347 474.705C150.912 476.361 152.203 477.96 153.258 479.322C154.3 480.695 155.085 481.851 155.613 482.657C156.125 483.474 156.423 483.921 156.45 483.906Z" fill="#011727"/>
</g>
<defs>
<filter id="filter0_d" x="212" y="324.462" width="133.898" height="128.561" filterUnits="userSpaceOnUse" color-interpolation-filters="sRGB">
<feFlood flood-opacity="0" result="BackgroundImageFix"/>
<feColorMatrix in="SourceAlpha" type="matrix" values="0 0 0 0 0 0 0 0 0 0 0 0 0 0 0 0 0 0 127 0"/>
<feOffset/>
<feGaussianBlur stdDeviation="2"/>
<feColorMatrix type="matrix" values="0 0 0 0 0 0 0 0 0 0 0 0 0 0 0 0 0 0 0.25 0"/>
<feBlend mode="normal" in2="BackgroundImageFix" result="effect1_dropShadow"/>
<feBlend mode="normal" in="SourceGraphic" in2="effect1_dropShadow" result="shape"/>
</filter>
<filter id="filter1_d" x="310.406" y="219.519" width="112.831" height="87.5086" filterUnits="userSpaceOnUse" color-interpolation-filters="sRGB">
<feFlood flood-opacity="0" result="BackgroundImageFix"/>
<feColorMatrix in="SourceAlpha" type="matrix" values="0 0 0 0 0 0 0 0 0 0 0 0 0 0 0 0 0 0 127 0"/>
<feOffset/>
<feGaussianBlur stdDeviation="2"/>
<feColorMatrix type="matrix" values="0 0 0 0 0 0 0 0 0 0 0 0 0 0 0 0 0 0 0.2 0"/>
<feBlend mode="normal" in2="BackgroundImageFix" result="effect1_dropShadow"/>
<feBlend mode="normal" in="SourceGraphic" in2="effect1_dropShadow" result="shape"/>
</filter>
</defs>
</svg>
