<svg width="132" height="71" viewBox="0 0 132 71" fill="none" xmlns="http://www.w3.org/2000/svg">
<path fill-rule="evenodd" clip-rule="evenodd" d="M23.7302 67C23.7302 69.2091 25.6371 71 27.9894 71H116.825C119.178 71 121.085 69.2091 121.085 67C121.085 64.7909 119.178 63 116.825 63H113.175C110.822 63 108.915 61.2091 108.915 59C108.915 56.7909 110.822 55 113.175 55H124.735C127.088 55 128.995 53.2091 128.995 51C128.995 48.7909 127.088 47 124.735 47H111.349C113.702 47 115.608 45.2091 115.608 43C115.608 40.7909 113.702 39 111.349 39H72.4074C74.7597 39 76.6667 37.2091 76.6667 35C76.6667 32.7909 74.7597 31 72.4074 31H37.7249C35.3725 31 33.4656 32.7909 33.4656 35C33.4656 37.2091 35.3725 39 37.7249 39H13.3862C11.0339 39 9.12698 40.7909 9.12698 43C9.12698 45.2091 11.0339 47 13.3862 47H28.5979C30.9502 47 32.8571 48.7909 32.8571 51C32.8571 53.2091 30.9502 55 28.5979 55H4.25926C1.90694 55 0 56.7909 0 59C0 61.2091 1.90694 63 4.25926 63H27.9894C25.6371 63 23.7302 64.7909 23.7302 67ZM131.428 67C131.428 69.2091 129.521 71 127.169 71C124.817 71 122.91 69.2091 122.91 67C122.91 64.7909 124.817 63 127.169 63C129.521 63 131.428 64.7909 131.428 67Z" fill="#FFEAEB"/>
<circle r="15" transform="matrix(1 0 0 -1 79 43)" fill="white"/>
<path d="M78.75 60C69.79 60 62.5 52.71 62.5 43.75C62.5 34.79 69.79 27.5 78.75 27.5C87.71 27.5 95 34.79 95 43.75C95 52.71 87.71 60 78.75 60ZM78.75 30C71.17 30 65 36.17 65 43.75C65 51.33 71.17 57.5 78.75 57.5C86.33 57.5 92.5 51.33 92.5 43.75C92.5 36.17 86.33 30 78.75 30Z" fill="#FF2D3B"/>
<path d="M86.2501 45.0001C85.9301 45.0001 85.6101 44.8776 85.3651 44.6351L78.7501 38.0176L72.1351 44.6326C71.6476 45.1201 70.8551 45.1201 70.3676 44.6326C69.8801 44.1451 69.8801 43.3526 70.3676 42.8651L77.8676 35.3651C78.3551 34.8776 79.1476 34.8776 79.6351 35.3651L87.1351 42.8651C87.6226 43.3526 87.6226 44.1451 87.1351 44.6326C86.8901 44.8776 86.5701 45.0001 86.2501 45.0001Z" fill="#FF2D3B"/>
<path d="M78.75 52.5C78.06 52.5 77.5 51.94 77.5 51.25V36.25C77.5 35.56 78.06 35 78.75 35C79.44 35 80 35.56 80 36.25V51.25C80 51.94 79.44 52.5 78.75 52.5Z" fill="#FF2D3B"/>
<path d="M58.75 52.5H41.25C37.8025 52.5 35 49.6975 35 46.25V13.75C35 10.3025 37.8025 7.5 41.25 7.5H46.25C46.94 7.5 47.5 8.06 47.5 8.75C47.5 9.44 46.94 10 46.25 10H41.25C39.1825 10 37.5 11.6825 37.5 13.75V46.25C37.5 48.3175 39.1825 50 41.25 50H58.75C59.44 50 60 50.56 60 51.25C60 51.94 59.44 52.5 58.75 52.5Z" fill="#FF2D3B"/>
<path d="M63.75 15H48.75C46.6825 15 45 13.3175 45 11.25V6.25C45 5.56 45.56 5 46.25 5H50.125C50.705 2.15 53.2325 0 56.25 0C59.2675 0 61.795 2.15 62.375 5H66.25C66.94 5 67.5 5.56 67.5 6.25V11.25C67.5 13.3175 65.8175 15 63.75 15ZM47.5 7.5V11.25C47.5 11.9375 48.0625 12.5 48.75 12.5H63.75C64.4375 12.5 65 11.9375 65 11.25V7.5H61.25C60.56 7.5 60 6.94 60 6.25C60 4.1825 58.3175 2.5 56.25 2.5C54.1825 2.5 52.5 4.1825 52.5 6.25C52.5 6.94 51.94 7.5 51.25 7.5H47.5Z" fill="#FF2D3B"/>
<path d="M68.75 22.5H43.75C43.06 22.5 42.5 21.94 42.5 21.25C42.5 20.56 43.06 20 43.75 20H68.75C69.44 20 70 20.56 70 21.25C70 21.94 69.44 22.5 68.75 22.5Z" fill="#FF2D3B"/>
<path d="M61.25 30H43.75C43.06 30 42.5 29.44 42.5 28.75C42.5 28.06 43.06 27.5 43.75 27.5H61.25C61.94 27.5 62.5 28.06 62.5 28.75C62.5 29.44 61.94 30 61.25 30Z" fill="#FF2D3B"/>
<path d="M56.25 37.5H43.75C43.06 37.5 42.5 36.94 42.5 36.25C42.5 35.56 43.06 35 43.75 35H56.25C56.94 35 57.5 35.56 57.5 36.25C57.5 36.94 56.94 37.5 56.25 37.5Z" fill="#FF2D3B"/>
<path d="M76.25 22.5C75.56 22.5 75 21.94 75 21.25V13.75C75 11.6825 73.3175 10 71.25 10H66.25C65.56 10 65 9.44 65 8.75C65 8.06 65.56 7.5 66.25 7.5H71.25C74.6975 7.5 77.5 10.3025 77.5 13.75V21.25C77.5 21.94 76.94 22.5 76.25 22.5Z" fill="#FF2D3B"/>
</svg>
