<svg width="246" height="164" viewBox="0 0 246 164" fill="none" xmlns="http://www.w3.org/2000/svg">
<path d="M120.57 40.3428C113.882 38.2985 107.505 40.165 101.129 41.8094C98.4091 42.476 95.6892 43.1871 92.9246 43.6759C89.3129 44.2981 87.7077 43.0982 85.612 40.165C80.4396 32.8766 74.9997 25.7658 69.6935 18.6107C67.6424 15.8997 65.5021 13.2332 63.5402 10.4778C62.6484 9.23345 61.935 7.76686 61.4891 6.34472C60.6419 3.6782 61.5783 2.16718 64.2982 1.32278C71.6555 -1.12152 78.7452 -0.0104765 85.612 3.27823C93.3259 6.92246 99.7468 12.2555 105.41 18.4774C110.359 23.8548 114.952 29.5879 119.5 35.3209C120.436 36.5208 120.615 38.3429 121.15 39.8984C120.971 40.0317 120.748 40.165 120.57 40.3428Z" fill="#FF2D3B"/>
<path d="M123.78 39.8538C123.513 37.765 124.315 35.9429 125.698 34.1207C132.966 24.6991 140.546 15.5885 150.222 8.47775C156.063 4.16688 162.395 0.611521 169.797 0.211543C173.498 0.0337757 177.288 0.878173 180.944 1.5448C182.951 1.90034 183.753 3.67801 183.129 5.50013C182.282 7.81112 181.256 10.211 179.785 12.1664C175.683 17.5883 171.179 22.7436 167.032 28.1655C164.089 32.032 161.369 36.1206 158.783 40.2537C156.955 43.098 155.261 44.2535 151.872 43.6758C149.107 43.2313 146.387 42.4758 143.623 41.8536C140.814 41.187 138.049 40.2093 135.195 39.9426C131.45 39.6315 127.704 39.8538 123.78 39.8538Z" fill="#FF2D3B"/>
<path d="M153.388 55.2749C150.668 56.9637 151.292 59.4524 151.961 62.0745C151.248 62.0745 150.668 62.119 150.088 62.0745C148.349 61.8523 147.502 62.3412 147.457 64.2966C147.457 65.0966 146.387 66.2965 145.585 66.5187C143.757 67.0965 142.776 68.0297 142.82 70.2074C140.947 69.0519 139.298 68.563 137.603 70.163C137.38 70.3852 136.043 69.8519 135.641 69.3186C133.813 66.9631 132.074 64.6077 130.469 62.119C127.749 57.9859 125.163 53.7639 122.309 49.1864C120.124 52.4751 118.162 55.4527 116.2 58.4303C113.837 61.9856 111.474 65.5854 109.066 69.0963C108.308 70.2074 107.461 70.6963 105.945 69.7185C104.964 69.0963 103.269 69.5852 101.753 69.5852C101.664 67.8964 100.549 66.8743 98.5428 66.4298C97.9186 66.2965 96.9822 65.1855 97.0268 64.6077C97.2051 62.0301 95.7783 61.8523 93.8163 62.0745C93.4596 62.119 93.1029 62.0745 92.5678 62.0745C93.2367 59.408 93.8609 56.8304 91.1855 55.2305C91.4977 54.3861 92.0773 53.5417 91.899 53.2306C90.0262 50.6529 93.5042 49.053 93.1475 46.6087C93.0583 45.8088 95.4661 44.0311 96.9376 43.72C103.626 42.2979 110.27 40.0758 117.315 40.7424C119.455 40.9646 121.506 41.0979 122.22 43.9867C123.067 40.698 125.609 40.9202 128.016 40.698C133.367 40.2535 138.45 41.7646 143.578 42.7867C146.209 43.32 148.929 43.4534 150.579 45.9865C150.98 46.6087 151.248 47.3642 151.515 48.0753C151.649 48.4308 151.604 48.9197 151.827 49.0975C153.209 50.3419 153.522 51.6751 152.496 53.3639C152.362 53.675 152.987 54.4305 153.388 55.2749Z" fill="#FF2D3B"/>
<path d="M246 162.914C244.306 162.914 242.834 163.047 241.407 162.825C240.828 162.736 240.114 161.98 239.847 161.358C238.286 157.847 236.815 154.292 235.477 150.692C234.986 149.448 234.362 149.048 233.069 149.092C227.139 149.137 221.164 149.137 215.233 149.137C214.52 149.137 213.762 149.137 212.825 149.137C213.316 147.715 213.539 146.426 214.163 145.404C214.52 144.826 215.59 144.47 216.303 144.47C221.788 144.381 227.272 144.426 233.158 144.426C228.699 133.449 224.374 122.783 219.826 111.583C219.291 112.872 218.934 113.628 218.622 114.428C214.787 123.894 210.997 133.315 207.163 142.781C204.844 148.603 202.392 154.381 200.251 160.292C199.493 162.38 198.512 163.358 196.283 162.958C195.525 162.825 194.722 162.958 193.652 162.958C194.009 161.98 194.187 161.269 194.455 160.647C201.589 143.27 208.723 125.938 215.768 108.561C216.437 106.917 217.24 106.161 219.023 106.472C219.603 106.561 220.227 106.561 220.807 106.472C222.412 106.25 223.126 106.917 223.705 108.428C228.075 119.272 232.534 130.027 236.993 140.826C239.757 147.537 242.477 154.247 245.197 160.914C245.465 161.447 245.688 162.069 246 162.914Z" fill="#FF2D3B"/>
<path d="M19.2181 149.181C19.7085 147.759 19.9315 146.47 20.5557 145.448C20.9124 144.915 21.9826 144.515 22.7406 144.515C28.2251 144.426 33.7096 144.47 39.5954 144.47C35.1365 133.493 30.8113 122.827 26.2632 111.628C25.7281 112.917 25.3714 113.672 25.0593 114.472C21.2246 123.938 17.4345 133.36 13.5998 142.826C11.2811 148.648 8.82871 154.425 6.68842 160.336C5.9304 162.425 4.90484 163.358 2.71996 163.003C1.96194 162.869 1.15933 163.003 0 163.003C0.936378 160.692 1.73899 158.736 2.5416 156.781C9.14084 140.737 15.7401 124.649 22.2501 108.561C22.919 106.917 23.7662 106.161 25.5052 106.472C26.0848 106.561 26.7091 106.561 27.2887 106.472C28.894 106.25 29.6074 106.961 30.1871 108.428C34.8689 119.983 39.64 131.538 44.3665 143.093C46.8189 149.048 49.2267 155.003 51.6792 160.958C51.9021 161.536 52.1251 162.158 52.4372 163.003C50.9657 163.003 49.7172 162.914 48.5133 163.047C47.2202 163.18 46.6851 162.603 46.2393 161.492C44.8124 157.936 43.2518 154.425 41.9141 150.825C41.4236 149.537 40.7548 149.226 39.4617 149.226C33.5313 149.27 27.5563 149.27 21.6259 149.27C20.9124 149.181 20.199 149.181 19.2181 149.181Z" fill="#FF2D3B"/>
<path d="M142.864 162.691C142.686 162.825 142.642 162.869 142.597 162.869C137.603 163.313 137.603 163.313 135.686 158.736C134.571 156.069 133.412 153.447 132.431 150.736C131.985 149.448 131.271 149.136 129.978 149.136C124.048 149.181 118.073 149.181 112.142 149.181C111.429 149.181 110.715 149.181 109.735 149.181C110.225 147.714 110.448 146.426 111.072 145.403C111.429 144.87 112.499 144.47 113.257 144.47C118.742 144.381 124.226 144.426 130.112 144.426C125.653 133.448 121.328 122.782 116.824 111.672C116.2 113.005 115.799 113.938 115.397 114.872C111.652 124.116 107.906 133.36 104.205 142.604C101.798 148.559 99.3898 154.514 97.1603 160.514C96.4469 162.469 95.5105 163.269 93.504 162.958C92.7014 162.825 91.8987 162.958 90.6948 162.958C90.9624 162.114 91.0961 161.447 91.3637 160.825C98.5426 143.315 105.766 125.849 112.9 108.339C113.525 106.828 114.283 106.383 115.843 106.428C119.901 106.517 119.901 106.428 121.372 110.072C125.787 120.783 130.156 131.537 134.571 142.248C137.112 148.47 139.699 154.692 142.24 160.914C142.463 161.491 142.686 162.114 142.864 162.691Z" fill="#FF2D3B"/>
<path d="M74.3304 162.825C72.5022 162.825 70.9862 162.825 69.158 162.825C69.158 145.625 69.158 128.426 69.158 111.05C62.9601 111.05 57.0297 111.05 50.9209 111.05C50.9209 109.539 50.9209 108.161 50.9209 106.605C64.699 106.605 78.5664 106.605 92.5674 106.605C92.5674 107.939 92.5674 109.316 92.5674 110.872C86.5925 110.872 80.6175 110.872 74.3304 110.872C74.3304 128.293 74.3304 145.492 74.3304 162.825Z" fill="#FF2D3B"/>
<path d="M153.432 106.517C154.948 106.517 156.42 106.517 158.07 106.517C158.07 123.76 158.07 140.915 158.07 158.336C167.3 158.336 176.307 158.336 185.492 158.336C185.492 159.936 185.492 161.313 185.492 162.78C174.791 162.78 164.223 162.78 153.432 162.78C153.432 144.159 153.432 125.493 153.432 106.517Z" fill="#FF2D3B"/>
</svg>
