<svg width="113" height="19" viewBox="0 0 113 19" fill="none" xmlns="http://www.w3.org/2000/svg">
<path d="M15.9099 10.6349C14.118 10.096 12.4096 10.588 10.7013 11.0215C9.97255 11.1972 9.24381 11.3847 8.50313 11.5135C7.53546 11.6775 7.10539 11.3612 6.54391 10.588C5.15812 8.66667 3.70065 6.7922 2.27902 4.90601C1.72948 4.19137 1.15605 3.48844 0.630401 2.76208C0.391472 2.43405 0.200327 2.04744 0.0808627 1.67255C-0.14612 0.96962 0.104756 0.571295 0.833491 0.348702C2.80466 -0.295648 4.70415 -0.00276173 6.54391 0.864181C8.61065 1.82485 10.3309 3.2307 11.8481 4.87086C13.1742 6.28843 14.4047 7.79972 15.6232 9.31102C15.8741 9.62733 15.9219 10.1077 16.0653 10.5177C16.0175 10.5529 15.9577 10.588 15.9099 10.6349Z" fill="#202020"/>
<path d="M16.7701 10.5061C16.6984 9.95545 16.9134 9.47512 17.2838 8.99478C19.231 6.51111 21.2619 4.10944 23.8543 2.23497C25.4193 1.09857 27.1157 0.161338 29.0988 0.0558987C30.0904 0.00903693 31.1058 0.23163 32.0854 0.407362C32.623 0.501086 32.8381 0.969703 32.6708 1.45004C32.4438 2.05924 32.1691 2.69187 31.7748 3.20735C30.6758 4.63664 29.4692 5.99563 28.3581 7.42491C27.5697 8.44416 26.8409 9.52198 26.148 10.6115C25.6582 11.3613 25.2043 11.6659 24.2963 11.5136C23.5557 11.3964 22.8269 11.1973 22.0862 11.0333C21.3336 10.8575 20.5929 10.5998 19.8284 10.5295C18.8249 10.4475 17.8213 10.5061 16.7701 10.5061Z" fill="#202020"/>
<path d="M24.7025 14.5712C23.9738 15.0164 24.141 15.6725 24.3202 16.3637C24.1291 16.3637 23.9738 16.3754 23.8185 16.3637C23.3526 16.3051 23.1256 16.434 23.1136 16.9495C23.1136 17.1603 22.8269 17.4766 22.6119 17.5352C22.1221 17.6875 21.8592 17.9336 21.8712 18.5076C21.3694 18.203 20.9274 18.0741 20.4735 18.4959C20.4137 18.5545 20.0553 18.4139 19.9478 18.2733C19.458 17.6524 18.9921 17.0315 18.562 16.3754C17.8333 15.2859 17.1404 14.1729 16.3758 12.9662C15.7904 13.8331 15.2648 14.6181 14.7391 15.403C14.106 16.3403 13.4728 17.2892 12.8277 18.2147C12.6246 18.5076 12.3976 18.6365 11.9915 18.3787C11.7286 18.2147 11.2747 18.3436 10.8685 18.3436C10.8446 17.8984 10.5459 17.629 10.0083 17.5118C9.84109 17.4767 9.59021 17.1838 9.60216 17.0315C9.64995 16.352 9.26766 16.3051 8.74201 16.3637C8.64644 16.3754 8.55087 16.3637 8.40751 16.3637C8.58671 15.6608 8.75396 14.9813 8.03717 14.5595C8.1208 14.3369 8.2761 14.1143 8.22831 14.0323C7.72656 13.3528 8.65839 12.9311 8.56281 12.2867C8.53892 12.0758 9.18403 11.6072 9.57827 11.5252C11.3702 11.1503 13.1503 10.5645 15.0378 10.7403C15.6112 10.7988 16.1608 10.834 16.3519 11.5955C16.5789 10.7286 17.2599 10.7871 17.905 10.7286C19.3385 10.6114 20.7004 11.0097 22.0743 11.2792C22.7791 11.4198 23.5079 11.4549 23.9499 12.1227C24.0574 12.2867 24.1291 12.4859 24.2008 12.6733C24.2366 12.767 24.2247 12.8959 24.2844 12.9428C24.6547 13.2708 24.7383 13.6223 24.4636 14.0675C24.4277 14.1495 24.595 14.3486 24.7025 14.5712Z" fill="#202020"/>
<path d="M112.559 17.8967C112.105 17.8967 111.71 17.9318 111.328 17.8733C111.173 17.8498 110.982 17.6507 110.91 17.4867C110.492 16.5611 110.098 15.6239 109.739 14.675C109.608 14.3469 109.441 14.2415 109.094 14.2532C107.505 14.2649 105.904 14.2649 104.315 14.2649C104.124 14.2649 103.921 14.2649 103.67 14.2649C103.802 13.89 103.862 13.5503 104.029 13.2808C104.124 13.1285 104.411 13.0348 104.602 13.0348C106.072 13.0114 107.541 13.0231 109.118 13.0231C107.923 10.1294 106.765 7.31766 105.546 4.36536C105.403 4.70511 105.307 4.90427 105.223 5.11515C104.196 7.61054 103.181 10.0942 102.153 12.5896C101.532 14.1243 100.875 15.6473 100.301 17.2055C100.098 17.7561 99.8356 18.0139 99.2382 17.9084C99.0351 17.8733 98.8201 17.9084 98.5334 17.9084C98.629 17.6507 98.6767 17.4632 98.7484 17.2992C100.66 12.7185 102.571 8.14945 104.459 3.56871C104.638 3.13524 104.853 2.93608 105.331 3.01809C105.486 3.04152 105.653 3.04152 105.809 3.01809C106.239 2.95951 106.43 3.13524 106.585 3.53357C107.756 6.39213 108.951 9.22727 110.145 12.0741C110.886 13.8432 111.615 15.6122 112.344 17.3695C112.415 17.5101 112.475 17.6741 112.559 17.8967Z" fill="#202020"/>
<path d="M51.7987 14.2766C51.9301 13.9017 51.9899 13.562 52.1571 13.2925C52.2527 13.1519 52.5394 13.0465 52.7425 13.0465C54.2119 13.0231 55.6813 13.0348 57.2583 13.0348C56.0636 10.1411 54.9048 7.32937 53.6863 4.37708C53.5429 4.71683 53.4473 4.91599 53.3637 5.12687C52.3363 7.62226 51.3209 10.1059 50.2935 12.6013C49.6722 14.136 49.0152 15.659 48.4418 17.2172C48.2387 17.7678 47.9639 18.0139 47.3785 17.9201C47.1754 17.885 46.9604 17.9201 46.6498 17.9201C46.9007 17.3109 47.1157 16.7954 47.3307 16.28C49.0988 12.0507 50.8669 7.8097 52.6111 3.56871C52.7903 3.13524 53.0173 2.93608 53.4832 3.01809C53.6385 3.04152 53.8057 3.04152 53.961 3.01809C54.3911 2.95951 54.5822 3.14696 54.7375 3.53357C55.9919 6.57958 57.2702 9.6256 58.5365 12.6716C59.1936 14.2415 59.8387 15.8114 60.4958 17.3812C60.5555 17.5335 60.6152 17.6975 60.6988 17.9201C60.3046 17.9201 59.9701 17.8967 59.6476 17.9318C59.3011 17.967 59.1577 17.8147 59.0383 17.5218C58.656 16.5846 58.2379 15.659 57.8795 14.7101C57.7481 14.3704 57.5689 14.2883 57.2224 14.2883C55.6335 14.3001 54.0327 14.3001 52.4438 14.3001C52.2527 14.2766 52.0615 14.2766 51.7987 14.2766Z" fill="#202020"/>
<path d="M84.9264 17.8325C84.8786 17.8677 84.8666 17.8794 84.8547 17.8794C83.5167 17.9966 83.5167 17.9966 83.003 16.7899C82.7043 16.0869 82.3937 15.3957 82.1309 14.6811C82.0114 14.3413 81.8203 14.2593 81.4738 14.2593C79.8849 14.271 78.2841 14.271 76.6952 14.271C76.5041 14.271 76.3129 14.271 76.0501 14.271C76.1815 13.8844 76.2413 13.5447 76.4085 13.2752C76.5041 13.1346 76.7908 13.0292 76.9939 13.0292C78.4633 13.0058 79.9327 13.0175 81.5097 13.0175C80.315 10.1238 79.1562 7.31207 77.9496 4.38321C77.7824 4.73467 77.6748 4.98069 77.5673 5.22672C76.5638 7.66353 75.5603 10.1003 74.5688 12.5372C73.9236 14.107 73.2785 15.6769 72.6812 17.2585C72.4901 17.774 72.2392 17.9848 71.7016 17.9028C71.4866 17.8677 71.2715 17.9028 70.949 17.9028C71.0207 17.6802 71.0565 17.5045 71.1282 17.3405C73.0516 12.7246 74.9869 8.12043 76.8983 3.50455C77.0656 3.10622 77.2687 2.98907 77.6868 3.00079C78.7739 3.02422 78.7739 3.00078 79.1682 3.96145C80.3509 6.78487 81.5216 9.62001 82.7043 12.4434C83.3853 14.0836 84.0782 15.7238 84.7591 17.3639C84.8188 17.5162 84.8786 17.6802 84.9264 17.8325Z" fill="#202020"/>
<path d="M66.5646 17.82C66.0748 17.82 65.6686 17.82 65.1788 17.82C65.1788 13.2862 65.1788 8.75228 65.1788 4.17154C63.5183 4.17154 61.9294 4.17154 60.2927 4.17154C60.2927 3.77322 60.2927 3.41004 60.2927 3C63.9842 3 67.6995 3 71.4507 3C71.4507 3.35146 71.4507 3.71464 71.4507 4.12468C69.8499 4.12468 68.2491 4.12468 66.5646 4.12468C66.5646 8.71714 66.5646 13.251 66.5646 17.82Z" fill="#202020"/>
<path d="M87.7576 3C88.1638 3 88.558 3 89.0001 3C89.0001 7.54559 89.0001 12.0677 89.0001 16.6602C91.473 16.6602 93.8862 16.6602 96.3471 16.6602C96.3471 17.082 96.3471 17.4451 96.3471 17.8317C93.48 17.8317 90.6487 17.8317 87.7576 17.8317C87.7576 12.923 87.7576 8.00249 87.7576 3Z" fill="#202020"/>
</svg>
