<svg width="230" height="100" viewBox="0 0 230 100" fill="none" xmlns="http://www.w3.org/2000/svg">
<path fill-rule="evenodd" clip-rule="evenodd" d="M41.5278 90C41.5278 93.866 44.8649 97 48.9815 97H204.444C208.561 97 211.898 93.866 211.898 90C211.898 86.134 208.561 83 204.444 83H198.056C193.939 83 190.602 79.866 190.602 76C190.602 72.134 193.939 69 198.056 69H218.287C222.404 69 225.741 65.866 225.741 62C225.741 58.134 222.404 55 218.287 55H194.861C198.978 55 202.315 51.866 202.315 48C202.315 44.134 198.978 41 194.861 41H126.713C130.83 41 134.167 37.866 134.167 34C134.167 30.134 130.83 27 126.713 27H66.0185C61.902 27 58.5648 30.134 58.5648 34C58.5648 37.866 61.902 41 66.0185 41H23.4259C19.3094 41 15.9722 44.134 15.9722 48C15.9722 51.866 19.3094 55 23.4259 55H50.0463C54.1629 55 57.5 58.134 57.5 62C57.5 65.866 54.1629 69 50.0463 69H7.4537C3.33714 69 0 72.134 0 76C0 79.866 3.33714 83 7.4537 83H48.9815C44.8649 83 41.5278 86.134 41.5278 90ZM230 90C230 93.866 226.663 97 222.546 97C218.43 97 215.093 93.866 215.093 90C215.093 86.134 218.43 83 222.546 83C226.663 83 230 86.134 230 90Z" fill="#FFEAEB"/>
<path d="M159.779 42.613C164.274 42.613 167.919 39.4232 167.919 35.4884C167.919 31.5536 164.274 28.3638 159.779 28.3638C155.283 28.3638 151.638 31.5536 151.638 35.4884C151.638 39.4232 155.283 42.613 159.779 42.613Z" fill="#FFD1CF"/>
<path d="M174.72 78.0404L168.133 74.7472C166.754 74.0576 165.883 72.6479 165.883 71.1059L165.883 64.9995H153.671V71.1059C153.671 72.6477 152.8 74.0571 151.421 74.7467L144.834 78.0401C142.766 79.0745 141.459 81.1885 141.459 83.5014V97.565H178.095V83.5016C178.095 81.1891 176.789 79.0748 174.72 78.0404Z" fill="white"/>
<path d="M178.096 83.5022C178.096 81.1893 176.789 79.0751 174.72 78.0407L168.134 74.7475C167.754 74.5581 167.424 74.3054 167.13 74.0195L164.794 76.6193C161.983 79.7472 157.572 79.7472 154.761 76.6193L152.425 74.019C152.13 74.3049 151.8 74.5576 151.422 74.747L144.835 78.0404C142.766 79.0748 141.46 81.1888 141.46 83.5017V97.5652H178.096V83.5022Z" fill="white"/>
<path d="M159.779 64.9994C167.647 64.9994 174.025 58.621 174.025 50.7528C174.025 42.8846 167.647 36.5061 159.779 36.5061C151.91 36.5061 145.532 42.8846 145.532 50.7528C145.532 58.621 151.91 64.9994 159.779 64.9994Z" fill="#FFD1CF"/>
<path d="M159.778 69.0704C155.113 69.0704 151.059 66.4551 149.002 62.611C147.604 59.9978 148.516 56.7196 150.939 55.0131C151.404 54.6856 151.884 54.3121 152.357 53.8904C153.812 52.5916 154.665 51.2221 155.145 50.2184C155.557 49.3587 156.505 48.8732 157.429 49.1086C164.615 50.9397 169.502 54.6826 171.263 56.1986C171.731 56.6016 172.001 57.1947 171.953 57.8104C171.467 64.1101 166.202 69.0704 159.778 69.0704Z" fill="white"/>
<path d="M58.0103 44.6465V46.0749C58.0103 47.8251 58.2923 49.5636 58.8459 51.2239L62.0809 60.9292H68.1868V38.5405H64.1164C60.7441 38.54 58.0103 41.2738 58.0103 44.6465Z" fill="#FFD1CF"/>
<path d="M86.0353 48.3265L82.4344 60.9293L66.1517 46.6819C63.9036 46.6819 62.0811 44.8594 62.0811 42.6113C62.0811 39.2389 64.8149 36.5054 68.187 36.5054H86.505V44.9716C86.505 46.1063 86.3468 47.2354 86.0353 48.3265Z" fill="#FFD1CF"/>
<path d="M78.3639 67.0359H66.151V79.2488H78.3639V67.0359Z" fill="white"/>
<path d="M88.1824 74.7783L78.3631 71.9729L72.2576 79.2473L66.1517 71.9729L56.3329 74.7783C53.7116 75.5271 51.9043 77.9232 51.9043 80.6494V97.5653H92.6112V80.6494C92.6112 77.9232 90.8039 75.5271 88.1824 74.7783Z" fill="white"/>
<path d="M72.2576 69.0707C65.5131 69.0707 60.0455 63.6031 60.0455 56.8586C60.0455 54.2522 61.081 51.7525 62.9238 49.9094L64.9284 47.9048C65.7099 47.1233 66.7786 46.6739 67.8831 46.7087C74.3894 46.9138 80.1485 48.3078 83.2967 51.3823C84.0673 52.1349 84.4695 53.1878 84.4695 54.2649V56.8583C84.4697 63.6033 79.0021 69.0707 72.2576 69.0707Z" fill="white"/>
<path d="M115 73.1411C128.316 73.1411 140.271 67.6961 144.185 65.7121C144.983 65.3076 145.424 64.4426 145.277 63.5602C144.645 59.7859 142.945 48.4818 141.459 28.3638C140.251 11.9988 129.613 1.9043 115 1.9043C100.387 1.9043 89.7487 11.9988 88.5403 28.3638C87.0552 48.4818 85.3548 59.7862 84.7231 63.5602C84.5753 64.4428 85.0164 65.3076 85.8147 65.7121C89.7291 67.6964 101.684 73.1411 115 73.1411Z" fill="#FFD1CF"/>
<path d="M80.3992 97.5653V84.5516C80.3992 81.3273 82.3019 78.4069 85.2513 77.1043L102.397 69.5316C103.872 68.8803 104.823 67.4201 104.823 65.8078V56.8586H125.177V65.8078C125.177 67.4198 126.128 68.8801 127.603 69.5316L144.749 77.1043C147.698 78.4069 149.601 81.3275 149.601 84.5516V97.5653H80.3992Z" fill="white"/>
<path d="M144.748 77.1042L132.102 71.5188C129.472 78.4123 122.817 83.3181 115 83.3181C107.182 83.3181 100.527 78.4123 97.8972 71.5188L85.2507 77.1042C82.3013 78.4068 80.3986 81.3272 80.3986 84.5515V97.5655H149.6V84.5515C149.601 81.3272 147.698 78.4068 144.748 77.1042Z" fill="white"/>
<path d="M133.301 32.4358C130.033 29.5936 122.695 24.5675 110.109 22.6645C108.367 22.4012 106.61 23.2584 105.835 24.8405C104.544 27.4768 101.798 31.6982 96.3445 35.4184C95.2621 36.1568 94.6466 37.4129 94.6466 38.723V39.8783C94.6466 50.7188 102.827 60.1844 113.645 60.8849C125.499 61.6525 135.353 52.2646 135.353 40.5755V37.0048C135.353 35.2557 134.621 33.5837 133.301 32.4358Z" fill="white"/>
<path d="M94.6466 87.5195C93.5949 87.5195 92.7423 88.3721 92.7423 89.4238V97.5651C92.7423 98.6167 93.5949 99.4694 94.6466 99.4694C95.6983 99.4694 96.5509 98.6167 96.5509 97.5651V89.4238C96.5509 88.3721 95.6983 87.5195 94.6466 87.5195Z" fill="#FF2D3B"/>
<path d="M135.353 87.5195C134.302 87.5195 133.449 88.3721 133.449 89.4238V97.5651C133.449 98.6167 134.302 99.4694 135.353 99.4694C136.405 99.4694 137.258 98.6167 137.258 97.5651V89.4238C137.258 88.3721 136.405 87.5195 135.353 87.5195Z" fill="#FF2D3B"/>
<path d="M77.512 50.4204C77.7854 50.5572 78.0759 50.6217 78.3621 50.6217C79.0606 50.6217 79.7331 50.2358 80.0668 49.5688C80.5373 48.6281 80.1559 47.4842 79.2152 47.014C74.7932 44.803 66.5024 44.7776 66.1515 44.7776C65.1001 44.7776 64.2477 45.6297 64.2474 46.6814C64.2472 47.7328 65.0993 48.5857 66.151 48.5862C68.2934 48.5874 74.5103 48.9195 77.512 50.4204Z" fill="#FF2D3B"/>
<path d="M60.0455 83.449C58.9939 83.449 58.1412 84.3016 58.1412 85.3533V97.5654C58.1412 98.6171 58.9939 99.4697 60.0455 99.4697C61.0972 99.4697 61.9498 98.6171 61.9498 97.5654V85.3533C61.9498 84.3016 61.0975 83.449 60.0455 83.449Z" fill="#FF2D3B"/>
<path d="M175.572 76.337L167.86 72.4817C167.815 72.4594 167.787 72.4142 167.787 72.3644L167.788 68.4885C170.954 66.3088 173.194 62.8628 173.755 58.8185C175.179 56.3579 175.929 53.5787 175.929 50.7527C175.929 45.4829 173.392 40.7953 169.475 37.8454C169.705 37.0809 169.823 36.2923 169.823 35.4876C169.823 30.5096 165.317 26.4595 159.778 26.4595C154.239 26.4595 149.732 30.5096 149.732 35.4876C149.732 36.2933 149.849 37.0822 150.079 37.8462C147.744 39.6052 145.902 41.9838 144.794 44.7336C144.322 40.095 143.83 34.6114 143.359 28.2237C142.737 19.7955 139.706 12.678 134.594 7.64104C129.52 2.64214 122.745 0 115 0C107.255 0 100.48 2.64214 95.4067 7.64079C90.2946 12.678 87.2635 19.7955 86.6414 28.2234C86.4761 30.4611 86.3085 32.5819 86.1402 34.6008H68.187C61.5255 34.6008 56.1059 40.0204 56.1059 46.6819V46.7953C56.1059 48.3467 56.4726 49.9004 57.1665 51.288L58.1412 53.2377V56.3468C58.1412 61.2741 60.5693 65.6953 64.2472 68.356V71.1063C64.2472 71.459 64.0103 71.7728 63.6713 71.8698L55.8096 74.1161C52.389 75.0931 50 78.2604 50 81.8178V97.5653C50 98.617 50.8526 99.4696 51.9043 99.4696C52.956 99.4696 53.8086 98.617 53.8086 97.5653V81.8178C53.8086 79.9516 55.0619 78.2903 56.856 77.7777L64.7179 75.5314C65.0015 75.4504 65.2709 75.3404 65.5274 75.2099L70.3533 80.0359V97.5653C70.3533 98.617 71.206 99.4696 72.2576 99.4696C73.3093 99.4696 74.1619 98.617 74.1619 97.5653V80.0359L79.0217 75.1762C79.6712 75.4948 80.3184 75.6802 80.7927 75.8158L82.7231 76.3672C80.1071 78.2273 78.4948 81.2613 78.4948 84.5511V97.5648C78.4948 98.6165 79.3474 99.4691 80.3991 99.4691C81.4508 99.4691 82.3034 98.6165 82.3034 97.5648V84.5511C82.3034 82.0826 83.7626 79.8432 86.0209 78.8459L96.9083 74.0371C100.32 80.8695 107.292 85.2219 115 85.2219C122.737 85.2219 129.686 80.8791 133.095 74.0387L143.979 78.8459C146.238 79.8432 147.697 82.0826 147.697 84.5511V97.5648C147.697 98.6165 148.549 99.4691 149.601 99.4691C150.653 99.4691 151.505 98.6165 151.505 97.5648V84.5511C151.505 82.1152 150.62 79.8204 149.1 78.0364L152.048 76.563L154.26 78.6653C155.807 80.136 157.792 80.8708 159.778 80.8708C161.763 80.8708 163.749 80.1355 165.296 78.6653L167.508 76.5633L173.869 79.7434C175.301 80.4597 176.191 81.8998 176.191 83.5017V97.5651C176.191 98.6167 177.044 99.4694 178.096 99.4694C179.147 99.4694 180 98.6167 180 97.5651V83.5017C180 80.4483 178.303 77.7028 175.572 76.337ZM153.54 35.4871C153.54 32.6091 156.339 30.2676 159.777 30.2676C163.216 30.2676 166.014 32.6091 166.014 35.4871C166.014 35.6077 166.005 35.7273 165.995 35.8467C164.08 35.0448 161.98 34.6005 159.777 34.6005C157.575 34.6005 155.475 35.0448 153.561 35.8464C153.551 35.7273 153.54 35.608 153.54 35.4871ZM159.777 38.4093C166.583 38.4093 172.121 43.9465 172.121 50.7525C172.121 52.0644 171.907 53.3639 171.494 54.6045C166.087 49.1112 156.575 46.9583 156.117 46.8573C155.553 46.7331 154.964 46.8713 154.514 47.2326C154.064 47.5941 153.803 48.14 153.803 48.7169C153.803 48.7293 153.716 50.0504 152.325 51.4411C151.581 52.1847 151.581 53.3905 152.325 54.134C153.069 54.8777 154.275 54.8777 155.018 54.134C156.089 53.063 156.718 51.976 157.087 51.0582C160.292 52.0101 166.942 54.414 169.927 58.6337C169.08 63.5414 164.828 67.1659 159.777 67.1659C154.505 67.1659 150.101 63.2177 149.534 57.9819C149.504 57.7014 149.411 57.4312 149.264 57.1905C148.067 55.2413 147.434 53.015 147.434 50.7522C147.434 43.9465 152.971 38.4093 159.777 38.4093ZM98.0798 10.3535C102.425 6.0719 108.276 3.80859 115 3.80859C121.724 3.80859 127.574 6.0719 131.92 10.3535C136.365 14.7334 139.007 21.0097 139.56 28.5037C141.06 48.8139 142.766 60.1399 143.431 64.0665C143.441 64.127 143.421 64.1536 143.384 64.177C141.573 65.3493 137.643 67.5359 131.512 69.1764L128.372 67.7893C127.588 67.443 127.081 66.665 127.081 65.8075V59.2606C133.201 55.2903 137.258 48.398 137.258 40.5757V37.005C137.258 34.6843 136.271 32.4951 134.551 30.9991C130.725 27.6714 122.064 21.8643 107.048 20.3627C106.004 20.2581 105.068 21.0214 104.964 22.0682C104.859 23.1148 105.623 24.0479 106.669 24.1525C120.635 25.549 128.567 30.8422 132.051 33.8731C132.94 34.6454 133.449 35.7873 133.449 37.005V40.5757C133.449 50.7484 125.173 59.0247 115 59.0247C104.827 59.0247 96.5511 50.7484 96.5511 40.5757V38.9827C96.5511 38.2509 96.9568 37.5806 97.6363 37.1893C100.017 35.8185 103.157 33.2789 104.595 28.9658C104.927 27.9682 104.388 26.8896 103.39 26.557C102.393 26.2244 101.314 26.7637 100.981 27.7616C99.9222 30.9394 97.5441 32.8475 95.7358 33.8888C93.8894 34.9519 92.7422 36.9039 92.7422 38.9829V40.5759C92.7422 48.3985 96.7991 55.2905 102.919 59.2608V65.8078C102.919 66.6652 102.412 67.443 101.628 67.7895L98.4874 69.1766C92.354 67.5356 88.4241 65.3477 86.6155 64.177C86.5794 64.1536 86.5591 64.1269 86.5693 64.0668C87.2335 60.1404 88.9403 48.8149 90.4398 28.504C90.9928 21.0097 93.6347 14.7334 98.0798 10.3535ZM61.9498 56.3465V52.7878C61.9498 52.4922 61.881 52.2005 61.7487 51.9362L60.5729 49.5845C60.1423 48.7227 59.9145 47.7584 59.9145 46.7951V46.6816C59.9145 42.1202 63.6256 38.4091 68.187 38.4091H84.601V46.3144C84.601 47.5918 84.2991 48.8713 83.7276 50.0139L82.7665 51.9359C82.6343 52.2005 82.5654 52.492 82.5654 52.7875V56.8581C82.5654 59.6699 81.4538 62.2973 79.4353 64.2559C77.4178 66.2138 74.754 67.2464 71.9392 67.1609C66.431 66.9961 61.9498 62.1444 61.9498 56.3465ZM71.825 70.9682C71.9715 70.9728 72.1172 70.9748 72.2632 70.9748C73.7074 70.9748 75.1174 70.7567 76.459 70.3405V71.105C76.459 71.5181 76.5014 71.8929 76.5768 72.2352L72.2579 76.5541L67.9186 72.2149C68.0083 71.8574 68.0563 71.4854 68.0563 71.1058V70.3024C69.2542 70.6957 70.5176 70.9291 71.825 70.9682ZM80.2676 71.1058L80.2681 68.4822C80.9077 68.0391 81.5176 67.5433 82.0881 66.9895C82.472 66.617 82.8295 66.225 83.1647 65.8187C83.4706 66.4393 83.9396 66.9814 84.5457 67.3736C86.0721 68.3621 88.9527 70.0041 93.1889 71.5164L87.8548 73.8724L81.839 72.1537C80.2673 71.7048 80.2676 71.5296 80.2676 71.1058ZM115 81.4136C108.804 81.4136 103.193 77.9503 100.394 72.4977L103.166 71.2734C105.33 70.3179 106.727 68.1727 106.727 65.8078V61.2385C109.286 62.2666 112.078 62.8335 115 62.8335C117.922 62.8335 120.714 62.2666 123.272 61.2385V65.8078C123.272 68.1727 124.67 70.3182 126.833 71.2734L129.605 72.4975C126.809 77.9562 121.219 81.4136 115 81.4136ZM136.811 71.5169C141.046 70.0051 143.926 68.3639 145.454 67.3741C146.767 66.5238 147.447 64.9765 147.186 63.4315C147.172 63.347 147.156 63.2543 147.141 63.1629C148.212 65.3165 149.813 67.1433 151.767 68.4885V72.3642C151.767 72.4142 151.74 72.4591 151.695 72.4815L145.729 75.4646C145.658 75.4313 145.59 75.394 145.518 75.3623L136.811 71.5169ZM156.883 75.9049L155.113 74.223C155.412 73.6634 155.576 73.0286 155.576 72.3642V70.3377C156.906 70.7503 158.316 70.9748 159.777 70.9748C161.238 70.9748 162.649 70.7503 163.979 70.3377L163.978 72.3636C163.978 73.0286 164.142 73.6634 164.441 74.2233L162.671 75.9049C161.049 77.4476 158.506 77.4474 156.883 75.9049Z" fill="#FF2D3B"/>
<path d="M169.954 85.9651C168.903 85.9651 168.05 86.8177 168.05 87.8694V97.5653C168.05 98.617 168.903 99.4696 169.954 99.4696C171.006 99.4696 171.859 98.617 171.859 97.5653V87.8694C171.859 86.8177 171.006 85.9651 169.954 85.9651Z" fill="#FF2D3B"/>
</svg>
