<svg width="230" height="111" viewBox="0 0 230 111" fill="none" xmlns="http://www.w3.org/2000/svg">
<path fill-rule="evenodd" clip-rule="evenodd" d="M41.5278 90C41.5278 93.866 44.8649 97 48.9815 97H204.444C208.561 97 211.898 93.866 211.898 90C211.898 86.134 208.561 83 204.444 83H198.056C193.939 83 190.602 79.866 190.602 76C190.602 72.134 193.939 69 198.056 69H218.287C222.404 69 225.741 65.866 225.741 62C225.741 58.134 222.404 55 218.287 55H194.861C198.978 55 202.315 51.866 202.315 48C202.315 44.134 198.978 41 194.861 41H126.713C130.83 41 134.167 37.866 134.167 34C134.167 30.134 130.83 27 126.713 27H66.0185C61.902 27 58.5648 30.134 58.5648 34C58.5648 37.866 61.902 41 66.0185 41H23.4259C19.3094 41 15.9722 44.134 15.9722 48C15.9722 51.866 19.3094 55 23.4259 55H50.0463C54.1629 55 57.5 58.134 57.5 62C57.5 65.866 54.1629 69 50.0463 69H7.4537C3.33714 69 0 72.134 0 76C0 79.866 3.33714 83 7.4537 83H48.9815C44.8649 83 41.5278 86.134 41.5278 90ZM230 90C230 93.866 226.663 97 222.546 97C218.43 97 215.093 93.866 215.093 90C215.093 86.134 218.43 83 222.546 83C226.663 83 230 86.134 230 90Z" fill="#FFEAEB"/>
<path d="M150.675 72.1653L138.436 67.7148L121.078 71.1865L103.719 67.7148L91.4803 72.1651C87.3641 73.6619 84.6244 77.5736 84.6244 81.9535V97.2246H157.531V81.9533C157.531 77.5736 154.791 73.6619 150.675 72.1653Z" fill="white"/>
<path d="M133.229 53.8269H108.926V71.1853H133.229V53.8269Z" fill="white"/>
<path d="M138.436 1.75146H115.87C112.768 1.75146 109.992 3.11463 108.083 5.26581C102.726 5.69609 98.5111 10.1708 98.5111 15.6384V22.181C98.5111 23.6002 98.6852 25.0143 99.0295 26.3913L99.7288 29.1882C100.073 30.5653 100.247 31.9791 100.247 33.3986V36.4692H141.908V33.3986C141.908 31.9793 142.082 30.5653 142.426 29.1882L143.126 26.3913C143.47 25.0143 143.644 23.6004 143.644 22.181V6.959C143.644 4.08303 141.312 1.75146 138.436 1.75146Z" fill="#FFD1CF"/>
<path d="M123.528 78.1299L118.627 78.1312L117.606 97.2244H124.549L123.528 78.1299Z" fill="#FFD1CF"/>
<path d="M117.606 72.9221V78.1297C117.606 79.0883 118.383 79.8655 119.342 79.8655H122.813C123.772 79.8655 124.549 79.0883 124.549 78.1297V72.9221H117.606Z" fill="#FFD1CF"/>
<path d="M108.62 63.4008L121.077 71.1867L113.847 78.4171C113.089 79.1756 111.831 79.0715 111.207 78.1986L103.719 67.7148L106.256 63.9097C106.776 63.1288 107.824 62.9032 108.62 63.4008Z" fill="white"/>
<path d="M133.535 63.4005L121.078 71.1865L128.308 78.4168C129.067 79.1754 130.325 79.0712 130.948 78.1983L138.436 67.7146L135.9 63.9094C135.379 63.1286 134.331 62.9029 133.535 63.4005Z" fill="white"/>
<path d="M134.992 23.0582C126.892 17.7708 114.367 18.2088 108.581 18.7634C106.802 18.9341 105.455 20.4317 105.455 22.2189V26.2291C105.455 27.228 105.058 28.1863 104.351 28.8926L101.35 31.8938C100.644 32.6001 100.247 33.5584 100.247 34.5573V37.5138C100.247 48.9833 109.22 58.8219 120.687 59.0315C132.37 59.2452 141.908 49.8386 141.908 38.2046V34.5573C141.908 33.5584 141.511 32.6001 140.804 31.8938L137.803 28.8926C137.097 28.1863 136.7 27.228 136.7 26.2291V26.2289C136.7 24.9528 136.061 23.7557 134.992 23.0582Z" fill="white"/>
<path d="M150.675 72.165L142.196 69.0818C134.778 73.2423 129.757 81.1705 129.757 90.2811C129.757 92.6956 130.121 95.0231 130.777 97.2247H157.531V81.9534C157.531 77.5735 154.791 73.6618 150.675 72.165Z" fill="white"/>
<path d="M154.058 109.376C164.604 109.376 173.153 100.827 173.153 90.2807C173.153 79.7347 164.604 71.1855 154.058 71.1855C143.512 71.1855 134.963 79.7347 134.963 90.2807C134.963 100.827 143.512 109.376 154.058 109.376Z" fill="#FFB5B1"/>
<path d="M135.661 25.5656C136.35 26.1401 137.374 26.047 137.948 25.3577C138.522 24.6685 138.429 23.6444 137.74 23.0703C134.049 19.9943 128.817 18.028 122.19 17.2264C116.86 16.5813 111.763 16.8273 108.426 17.1471C105.806 17.3981 103.83 19.5787 103.83 22.2195V26.0539C103.83 26.9511 104.557 27.678 105.454 27.678C106.352 27.678 107.079 26.9511 107.079 26.0539V22.2195C107.079 21.2617 107.791 20.4711 108.736 20.3806C114.319 19.8453 128.117 19.2793 135.661 25.5656Z" fill="#FF2D3B"/>
<path d="M138.436 0.127441H115.87C112.653 0.127441 109.569 1.42781 107.31 3.71607C101.416 4.51404 96.8872 9.62997 96.8872 15.6385V20.4712C96.8872 23.1562 97.2174 25.8388 97.8686 28.4436L98.6228 31.4612V37.5139C98.6228 44.8744 102.031 51.4903 107.302 55.7453V61.5299C106.36 61.6412 105.475 62.1527 104.904 63.0087L102.663 66.3704L90.9252 70.6387C86.1848 72.3622 83 76.9091 83 81.9531V97.2243C83 98.1214 83.7269 98.8484 84.6241 98.8484C85.5213 98.8484 86.2482 98.1214 86.2482 97.2243V81.9531C86.2482 78.2701 88.5737 74.95 92.0352 73.6916L103.114 69.6628L109.885 79.1421C110.46 79.9477 111.356 80.4561 112.342 80.5378C112.436 80.5456 112.528 80.5495 112.621 80.5495C113.509 80.5495 114.362 80.1989 114.996 79.5653L116.011 78.5501C116.106 79.3063 116.45 79.9858 116.962 80.5001L115.984 97.1292C115.932 98.0246 116.615 98.7934 117.51 98.846C117.543 98.8479 117.575 98.8488 117.607 98.8488C118.46 98.8488 119.176 98.1829 119.227 97.32L120.158 81.4899H121.997L122.928 97.32C122.978 98.1829 123.694 98.8488 124.547 98.8488C124.579 98.8488 124.612 98.8479 124.644 98.846C125.54 98.7934 126.223 98.0246 126.17 97.1292L125.192 80.5001C125.704 79.9858 126.049 79.3063 126.144 78.5501L127.159 79.5653C127.793 80.1991 128.645 80.5497 129.533 80.5497C129.626 80.5497 129.719 80.5458 129.812 80.538C130.799 80.4566 131.694 79.9477 132.269 79.1426L139.758 68.6591C140.15 68.1101 140.162 67.3756 139.787 66.8141L137.251 63.0091C136.68 62.1527 135.794 61.6412 134.852 61.5299V55.9404C135.531 55.4109 136.185 54.8405 136.808 54.2281C141.144 49.971 143.532 44.2804 143.532 38.2049V31.4612L144.286 28.4438C144.937 25.8396 145.268 23.1573 145.268 20.4712V6.9593C145.268 3.19202 142.203 0.127441 138.436 0.127441ZM112.699 77.2681C112.689 77.2781 112.661 77.3032 112.61 77.3006C112.559 77.2963 112.537 77.2657 112.529 77.2541L105.692 67.6827L107.607 64.8102C107.64 64.7599 107.707 64.7448 107.759 64.7775L118.486 71.4815L112.699 77.2681ZM122.925 78.13C122.925 78.1915 122.875 78.2417 122.813 78.2417H119.342C119.28 78.2417 119.23 78.1917 119.23 78.13V75.3311L121.077 73.4835L122.925 75.3311L122.925 78.13ZM121.078 69.2712L110.551 62.6917V57.9335C113.58 59.6093 117.017 60.589 120.658 60.6557C120.8 60.6583 120.941 60.6596 121.082 60.6596C124.811 60.6594 128.4 59.757 131.605 58.0515V62.6878C131.605 62.6891 131.605 62.6906 131.605 62.6919L121.078 69.2712ZM136.463 67.6829L129.626 77.2545C129.618 77.266 129.596 77.2965 129.545 77.3008C129.491 77.3036 129.467 77.2783 129.457 77.2683L123.67 71.4818L134.396 64.7777C134.447 64.7461 134.515 64.7608 134.548 64.8104L136.463 67.6829ZM142.02 20.4712C142.02 22.8918 141.722 25.3091 141.135 27.6562L140.332 30.8676C140.3 30.9965 140.284 31.1286 140.284 31.2613V38.2047C140.284 43.4014 138.241 48.2687 134.533 51.9102C130.825 55.5508 125.912 57.5088 120.717 57.4077C110.325 57.2176 101.871 48.2932 101.871 37.5139V31.2613C101.871 31.1286 101.855 30.9963 101.823 30.8676L101.02 27.656C100.433 25.3084 100.135 22.8911 100.135 20.4712V15.6385C100.135 11.0941 103.684 7.24882 108.213 6.88459C108.632 6.85102 109.02 6.657 109.299 6.34343C110.971 4.45731 113.366 3.37565 115.87 3.37565H138.436C140.412 3.37565 142.02 4.9833 142.02 6.9593V20.4712Z" fill="#FF2D3B"/>
<path d="M96.4922 82.6112C96.0912 81.8089 95.1157 81.4834 94.3133 81.8849C93.511 82.2859 93.1858 83.2612 93.587 84.0638L94.5899 86.0699C94.9571 86.8044 95.1514 87.6268 95.1514 88.4484V97.2244C95.1514 98.1216 95.8783 98.8485 96.7755 98.8485C97.6726 98.8485 98.3996 98.1216 98.3996 97.2244V88.4484C98.3996 87.1251 98.0869 85.8003 97.4951 84.6173L96.4922 82.6112Z" fill="#FF2D3B"/>
<path d="M154.059 69.5625C142.635 69.5625 133.34 78.8569 133.34 90.2811C133.34 101.705 142.635 111 154.059 111C165.483 111 174.778 101.705 174.778 90.2811C174.778 78.8567 165.483 69.5625 154.059 69.5625ZM154.059 107.752C144.426 107.752 136.589 99.9142 136.589 90.2809C136.589 80.6476 144.426 72.8105 154.059 72.8105C163.692 72.8105 171.53 80.6476 171.53 90.2809C171.53 99.9142 163.692 107.752 154.059 107.752Z" fill="#FF2D3B"/>
<path d="M161.697 88.6566H155.683V82.6429C155.683 81.7457 154.956 81.0188 154.059 81.0188C153.162 81.0188 152.435 81.7457 152.435 82.6429V88.6566H146.421C145.524 88.6566 144.797 89.3836 144.797 90.2807C144.797 91.1779 145.524 91.9049 146.421 91.9049H152.435V97.9186C152.435 98.8157 153.162 99.5427 154.059 99.5427C154.956 99.5427 155.683 98.8157 155.683 97.9186V91.9049H161.697C162.594 91.9049 163.321 91.1779 163.321 90.2807C163.321 89.3836 162.594 88.6566 161.697 88.6566Z" fill="#FF2D3B"/>
</svg>
