<svg width="27" height="21" viewBox="0 0 27 21" fill="none" xmlns="http://www.w3.org/2000/svg">
<path d="M0.999901 0H22.4598C22.973 0 23.3929 0.419869 23.3929 0.93306V1.39956H0.0668945V0.93306C0.0668945 0.419869 0.486764 0 0.999901 0ZM0.0668945 15.8617V6.06475H23.393V15.8617C23.393 16.3749 22.9731 16.7948 22.4599 16.7948H1.04659H0.999954C0.486763 16.7948 0.0668945 16.3749 0.0668945 15.8617Z" fill="#FF2D3B"/>
<path d="M13.9956 14.862H21.4599C21.7398 14.862 21.9264 14.6755 21.9264 14.3955V10.1968C21.9264 9.91694 21.7398 9.73035 21.4599 9.73035H13.9956C13.7156 9.73035 13.5291 9.91694 13.5291 10.1968V14.3955C13.529 14.6754 13.7156 14.862 13.9956 14.862ZM14.4621 10.6634H20.9934V13.929H14.4621V10.6634Z" fill="white"/>
<path d="M1.39961 8.79726H5.1318C5.41171 8.79726 5.5983 8.61067 5.5983 8.33076C5.5983 8.05085 5.41171 7.86426 5.1318 7.86426H1.39961C1.1197 7.86426 0.933105 8.05085 0.933105 8.33076C0.933105 8.61067 1.1197 8.79726 1.39961 8.79726Z" fill="white"/>
<path d="M6.99775 8.79726H10.7299C11.0099 8.79726 11.1964 8.61067 11.1964 8.33076C11.1964 8.05085 11.0099 7.86426 10.7299 7.86426H6.99775C6.71784 7.86426 6.53125 8.05085 6.53125 8.33076C6.53125 8.61067 6.71784 8.79726 6.99775 8.79726Z" fill="white"/>
<path d="M1.39961 10.6634H7.46436C7.74428 10.6634 7.93086 10.4768 7.93086 10.1968C7.93086 9.91694 7.74428 9.73035 7.46436 9.73035H1.39961C1.1197 9.73035 0.933105 9.91694 0.933105 10.1968C0.933105 10.4768 1.1197 10.6634 1.39961 10.6634Z" fill="white"/>
<path d="M10.7298 9.73035H9.33027C9.05036 9.73035 8.86377 9.91694 8.86377 10.1968C8.86377 10.4768 9.05036 10.6634 9.33027 10.6634H10.7298C11.0097 10.6634 11.1963 10.4768 11.1963 10.1968C11.1963 9.91694 11.0097 9.73035 10.7298 9.73035Z" fill="white"/>
<path d="M0 2.26599H23.3261V3.47896V5.06512H0V2.26599ZM26.1251 5.11175L24.7256 20.0871C24.6789 20.6003 24.2124 20.9735 23.6992 20.9268L2.19261 18.5009C1.72611 18.4543 1.39951 18.0811 1.35287 17.6612H22.393C23.4193 17.6612 24.259 16.8214 24.259 15.7951V5.53162V3.9921L25.332 4.08542C25.5653 4.08542 25.7985 4.22538 25.9385 4.41197C26.0785 4.59856 26.1718 4.87847 26.1251 5.11175Z" fill="#FFEAEB"/>
</svg>
