<svg width="193" height="96" viewBox="0 0 193 96" fill="none" xmlns="http://www.w3.org/2000/svg">
<path fill-rule="evenodd" clip-rule="evenodd" d="M34.8472 74C34.8472 77.866 37.6475 81 41.1019 81H171.556C175.01 81 177.81 77.866 177.81 74C177.81 70.134 175.01 67 171.556 67H166.194C162.74 67 159.94 63.866 159.94 60C159.94 56.134 162.74 53 166.194 53H183.171C186.626 53 189.426 49.866 189.426 46C189.426 42.134 186.626 39 183.171 39H163.514C166.968 39 169.769 35.866 169.769 32C169.769 28.134 166.968 25 163.514 25H106.329C109.783 25 112.583 21.866 112.583 18C112.583 14.134 109.783 11 106.329 11H55.3981C51.9438 11 49.1435 14.134 49.1435 18C49.1435 21.866 51.9438 25 55.3981 25H19.6574C16.2031 25 13.4028 28.134 13.4028 32C13.4028 35.866 16.2031 39 19.6574 39H41.9954C45.4497 39 48.25 42.134 48.25 46C48.25 49.866 45.4497 53 41.9954 53H6.25463C2.80029 53 0 56.134 0 60C0 63.866 2.80029 67 6.25463 67H41.1019C37.6475 67 34.8472 70.134 34.8472 74ZM193 74C193 77.866 190.2 81 186.745 81C183.291 81 180.491 77.866 180.491 74C180.491 70.134 183.291 67 186.745 67C190.2 67 193 70.134 193 74Z" fill="#F7EAFF"/>
<g filter="url(#filter0_d)">
<g filter="url(#filter1_d)">
<rect x="52.2686" y="4.26611" width="96.582" height="86.8352" rx="4" fill="#66268D"/>
</g>
<path d="M52.2686 8.26611C52.2686 6.05697 54.0594 4.26611 56.2686 4.26611L144.851 4.26611C147.06 4.26611 148.851 6.05697 148.851 8.26611V37.0508H52.2686V8.26611Z" fill="#262324" fill-opacity="0.3"/>
<rect x="60.2433" y="14.8989" width="22.1518" height="2.65822" rx="1.32911" fill="#7934A3"/>
<rect x="60.2432" y="45.0254" width="22.1518" height="2.65822" fill="#D8D8D8"/>
<rect x="108.977" y="45.0254" width="22.1518" height="2.65822" rx="1.32911" fill="#D8D8D8"/>
<rect x="60.2432" y="66.291" width="22.1518" height="2.65822" rx="1.32911" fill="#D8D8D8"/>
<rect x="108.977" y="66.291" width="22.1518" height="2.65822" rx="1.32911" fill="#D8D8D8"/>
<rect x="60.2432" y="21.1016" width="31.0126" height="4.43037" rx="2.21518" fill="#7934A3"/>
<rect x="60.2432" y="51.228" width="31.0126" height="4.43037" rx="2.21518" fill="#481F61"/>
<rect x="108.977" y="51.228" width="31.0126" height="4.43037" rx="2.21518" fill="#481F61"/>
<rect x="60.2433" y="72.4937" width="31.0126" height="4.43037" rx="2.21518" fill="#481F61"/>
<rect x="108.977" y="72.4937" width="31.0126" height="4.43037" rx="2.21518" fill="#481F61"/>
</g>
<rect x="120.046" y="9.64062" width="19.372" height="19.372" rx="4" fill="#F7EAFF"/>
<path d="M127.289 17.6948C127.435 18.2011 127.764 18.8268 128.031 19.2813C128.29 19.7235 128.698 20.1265 129.234 20.3155C129.592 20.4407 129.985 20.4431 130.343 20.3131C130.87 20.1228 131.28 19.7206 131.544 19.2798C131.814 18.8265 132.147 18.2006 132.29 17.6924C132.399 17.3059 132.398 17.08 132.345 16.9522C132.285 16.8073 132.132 16.6313 132.16 16.477C132.29 15.6944 132.224 15.2 132.092 14.8878C131.889 14.4067 131.339 14.0412 130.882 13.7889C130.586 13.6132 130.175 13.4784 129.633 13.5241C129.457 13.5314 129.291 13.5675 129.135 13.618C128.935 13.6854 128.752 13.784 128.586 13.8996C128.384 14.0271 128.192 14.1859 128.023 14.3664C127.756 14.6408 127.518 14.9946 127.414 15.435C127.328 15.7647 127.347 16.1088 127.419 16.4794C127.447 16.6339 127.294 16.8097 127.234 16.9546C127.181 17.0824 127.18 17.3083 127.289 17.6948Z" fill="#AF2DFF"/>
<path d="M133.76 21.1362C132.58 20.8359 131.158 21.3049 130.79 22.4664L130.752 22.5874L130.607 23.0482C130.606 23.0493 130.605 23.0493 130.604 23.0482C130.604 23.0471 130.602 23.0471 130.602 23.0482L130.538 23.2448C130.518 23.3077 130.429 23.3088 130.408 23.2465L130.126 22.4468C130.087 22.3373 130.106 22.2156 130.169 22.1183C130.985 20.8629 129.857 20.8764 129.792 20.8787C129.727 20.8764 128.599 20.8629 129.415 22.1183C129.478 22.2157 129.497 22.3373 129.458 22.4468L129.177 23.2465C129.155 23.3088 129.066 23.3077 129.046 23.2448L128.982 23.0482C128.982 23.0471 128.98 23.0471 128.98 23.0482C128.979 23.0493 128.978 23.0493 128.977 23.0482L128.832 22.5874L128.793 22.4657C128.425 21.3042 127.002 20.8358 125.821 21.1362C124.908 21.3687 124.861 22.4203 124.897 22.9446C124.897 22.9488 124.897 22.9466 124.897 22.9508C124.946 23.6005 125.315 24.1781 125.919 24.4215C126.733 24.7492 128.061 25.137 129.792 25.1384C131.526 25.1384 132.857 24.7487 133.67 24.4201C134.271 24.1773 134.639 23.5974 134.687 22.951C134.688 22.9433 134.687 22.9472 134.688 22.9394C134.72 22.4134 134.671 21.368 133.76 21.1362Z" fill="#AF2DFF"/>
<defs>
<filter id="filter0_d" x="48.2686" y="0.266113" width="104.582" height="94.8352" filterUnits="userSpaceOnUse" color-interpolation-filters="sRGB">
<feFlood flood-opacity="0" result="BackgroundImageFix"/>
<feColorMatrix in="SourceAlpha" type="matrix" values="0 0 0 0 0 0 0 0 0 0 0 0 0 0 0 0 0 0 127 0"/>
<feOffset/>
<feGaussianBlur stdDeviation="2"/>
<feColorMatrix type="matrix" values="0 0 0 0 0 0 0 0 0 0 0 0 0 0 0 0 0 0 0.08 0"/>
<feBlend mode="normal" in2="BackgroundImageFix" result="effect1_dropShadow"/>
<feBlend mode="normal" in="SourceGraphic" in2="effect1_dropShadow" result="shape"/>
</filter>
<filter id="filter1_d" x="48.2686" y="0.266113" width="104.582" height="94.8352" filterUnits="userSpaceOnUse" color-interpolation-filters="sRGB">
<feFlood flood-opacity="0" result="BackgroundImageFix"/>
<feColorMatrix in="SourceAlpha" type="matrix" values="0 0 0 0 0 0 0 0 0 0 0 0 0 0 0 0 0 0 127 0"/>
<feOffset/>
<feGaussianBlur stdDeviation="2"/>
<feColorMatrix type="matrix" values="0 0 0 0 0 0 0 0 0 0 0 0 0 0 0 0 0 0 0.25 0"/>
<feBlend mode="normal" in2="BackgroundImageFix" result="effect1_dropShadow"/>
<feBlend mode="normal" in="SourceGraphic" in2="effect1_dropShadow" result="shape"/>
</filter>
</defs>
</svg>
