<svg width="200" height="205" viewBox="0 0 200 205" fill="none" xmlns="http://www.w3.org/2000/svg">
<path d="M3.35766 116.734C6.84513 114.718 11.2071 114.568 15.0649 115.728C18.9227 116.888 22.3227 119.253 25.2697 122C30.9701 127.314 34.6326 135.504 36.7858 142.994C28.3315 144.846 19.4602 140.142 15.1091 137.474C8.23366 133.257 -1.63194 121.458 3.35766 116.734Z" fill="#40EAEA"/>
<path d="M51.5684 144.509C47.4297 142.742 44.655 138.421 44.2497 133.94C43.8444 129.458 45.6204 124.933 48.5657 121.532C49.9284 119.958 51.7484 118.517 53.8284 118.58C55.7724 118.637 57.4884 120.064 58.3377 121.814C59.187 123.564 59.2937 125.584 59.1444 127.524C58.6297 134.174 56.9124 140.516 51.5684 144.509Z" fill="#40EAEA"/>
<path d="M64.8178 165.764C64.7818 165.794 64.3751 165.396 63.6765 164.64C62.9778 163.885 61.9872 162.773 60.8125 161.354C58.4738 158.524 55.3698 154.402 53.0512 149.232C50.7045 144.058 50.0712 138.784 50.5538 135.101C50.7712 133.254 51.1725 131.797 51.5392 130.829C51.9058 129.861 52.1778 129.357 52.2138 129.372C52.3578 129.417 51.3431 131.512 51.0431 135.149C50.6965 138.76 51.3872 143.88 53.6845 148.948C55.9645 154.034 58.9645 158.15 61.1965 161.048C62.2605 162.401 63.1578 163.544 63.8818 164.465C64.5165 165.273 64.8538 165.732 64.8178 165.764Z" fill="#263238"/>
<path d="M11.6633 125.056C11.6767 125.036 11.8846 125.15 12.2663 125.388C12.7106 125.676 13.257 126.028 13.919 126.456C15.3481 127.39 17.3898 128.784 19.8923 130.533C24.8997 134.03 31.7133 139.009 39.0882 144.704C46.4642 150.404 53.0255 155.706 57.7415 159.582C60.0269 161.486 61.9055 163.052 63.2975 164.21C63.8922 164.726 64.3829 165.152 64.7842 165.498C65.1189 165.798 65.2869 165.965 65.2722 165.984C65.2575 166.002 65.0588 165.872 64.6949 165.606C64.2735 165.288 63.7562 164.896 63.1269 164.421C61.7015 163.304 59.7762 161.798 57.4335 159.965C52.6402 156.188 46.0335 150.948 38.6642 145.254C31.2955 139.564 24.5362 134.528 19.6065 130.933C17.2038 129.182 15.2283 127.744 13.7647 126.677C13.1325 126.208 12.6111 125.82 12.1866 125.504C11.8305 125.229 11.6502 125.076 11.6633 125.056Z" fill="#263238"/>
<path d="M48.7111 156.812C40.4178 152.205 29.854 151.957 21.354 156.169C19.1895 157.242 16.8983 159.064 17.0712 161.473C17.2436 163.886 19.7864 165.366 22.1035 166.064C31.7436 168.97 43.0058 165.326 49.1178 157.325" fill="#40EAEA"/>
<path d="M27.8093 159.989C27.7874 159.946 28.2656 159.67 29.1557 159.205C29.5974 158.964 30.1474 158.689 30.8193 158.445C31.486 158.192 32.2308 157.852 33.1052 157.632C33.9661 157.368 34.9161 157.102 35.963 156.929C36.9974 156.686 38.1292 156.602 39.3138 156.466C41.6912 156.314 44.3245 156.392 47.0419 156.828C49.7605 157.282 52.2712 158.072 54.4832 158.946C56.6832 159.857 58.5792 160.87 60.0858 161.852C60.8632 162.304 61.4965 162.818 62.0752 163.232C62.6592 163.641 63.1272 164.041 63.4992 164.377C64.2538 165.04 64.6525 165.421 64.6218 165.457C64.5325 165.565 62.8738 164.09 59.8285 162.269C58.3098 161.354 56.4205 160.402 54.2458 159.541C52.0592 158.714 49.5925 157.958 46.9298 157.513C44.2645 157.085 41.6898 156.992 39.3565 157.106C38.1953 157.221 37.0833 157.281 36.065 157.494C35.0333 157.64 34.0948 157.874 33.2396 158.104C29.8213 159.036 27.875 160.126 27.8093 159.989Z" fill="#263238"/>
<path d="M189.045 41.0499C189.045 41.0499 182.618 35.9212 172.826 51.5162C163.035 67.1122 159.036 76.2532 159.036 76.2532C159.036 76.2532 156.527 79.4802 154.376 77.0313C152.224 74.5829 149.572 67.9465 145.472 68.7315C141.22 69.5455 139.44 74.0502 139.622 80.9202C139.804 87.79 139.649 102.856 139.63 104.218C139.611 105.556 138.676 107.444 136.942 106.011C135.21 104.578 125.646 91.7972 119.854 96.6984C114.061 101.599 117.711 120.654 118.071 122.745C118.43 124.836 117.952 125.672 116.937 126.091C115.921 126.509 113.112 121.911 110.243 118.387C107.374 114.863 103.431 111.281 100.325 114.388C97.2203 117.495 95.0745 131.356 106.314 155.187L112.245 165.89L124.527 166.305C150.867 165.595 162.271 157.432 163.645 153.259C165.019 149.086 160.043 147.181 155.605 146.208C151.167 145.236 145.795 144.802 145.71 143.707C145.626 142.611 146.158 141.808 148.186 141.186C150.214 140.565 168.869 135.232 170.632 127.852C172.395 120.472 156.676 117.698 154.616 116.797C152.555 115.896 153.819 114.21 155.004 113.59C156.212 112.959 169.591 106.03 175.805 103.094C182.019 100.159 185.238 96.5402 184.047 92.3776C182.9 88.3633 175.78 88.9881 172.624 88.1712C169.468 87.3545 171.219 83.6613 171.219 83.6613C171.219 83.6613 177.576 75.9709 187.083 60.2C196.589 44.4288 188.907 40.955 188.907 40.955" fill="#40EAEA"/>
<path d="M180.252 55.0018C180.252 55.0018 180.205 55.1037 180.099 55.2938C179.982 55.4968 179.82 55.7752 179.614 56.1337C179.173 56.8824 178.538 57.9615 177.723 59.3446C176.078 62.1313 173.667 66.1461 170.669 71.0947C164.677 80.9944 156.283 94.5988 146.964 109.593C137.642 124.592 129.215 138.175 123.168 148.04C120.155 152.965 117.715 156.955 116.018 159.729C115.179 161.097 114.524 162.165 114.07 162.906C113.851 163.256 113.68 163.528 113.556 163.726C113.439 163.911 113.371 164 113.371 164C113.371 164 113.417 163.898 113.525 163.708C113.641 163.506 113.802 163.226 114.009 162.868C114.45 162.12 115.085 161.04 115.899 159.658C117.545 156.871 119.955 152.857 122.953 147.908C128.946 138.009 137.339 124.403 146.662 109.404C155.981 94.4099 164.408 80.828 170.455 70.9626C173.467 66.0376 175.908 62.0471 177.605 59.2732C178.444 57.905 179.098 56.8371 179.553 56.0968C179.772 55.7461 179.943 55.4734 180.067 55.2754C180.185 55.0913 180.252 55.0018 180.252 55.0018Z" fill="#263238"/>
<path d="M148.809 78.1658C148.837 78.1598 148.921 78.4638 149.05 79.0184C149.181 79.5722 149.344 80.3781 149.537 81.3769C149.918 83.3737 150.371 86.146 150.813 89.2143C151.235 92.2332 151.617 94.9632 151.912 97.0743C152.046 98.0078 152.161 98.8014 152.255 99.4533C152.338 100.016 152.37 100.329 152.342 100.335C152.313 100.341 152.227 100.038 152.094 99.4841C151.965 98.9293 151.801 98.1224 151.619 97.1216C151.258 95.1204 150.841 92.3433 150.399 89.275C149.955 86.2608 149.555 83.5346 149.245 81.4266C149.105 80.4934 148.987 79.6997 148.889 79.0475C148.811 78.4846 148.78 78.171 148.809 78.1658Z" fill="#263238"/>
<path d="M153.442 100.652C153.419 100.538 159.093 99.3481 166.112 97.9941C173.133 96.6389 178.841 95.6333 178.863 95.747C178.885 95.8605 173.213 97.0504 166.192 98.4055C159.173 99.7596 153.463 100.766 153.442 100.652Z" fill="#263238"/>
<path d="M135.449 126.778C135.453 126.75 135.774 126.763 136.353 126.81C137.021 126.87 137.837 126.944 138.799 127.032C140.862 127.216 143.714 127.464 146.869 127.623C150.027 127.79 152.888 127.843 154.96 127.868C155.926 127.88 156.745 127.892 157.415 127.9C157.995 127.912 158.317 127.932 158.318 127.961C158.319 127.99 157.999 128.025 157.42 128.063C156.84 128.101 156 128.14 154.962 128.164C152.887 128.216 150.015 128.209 146.848 128.041C143.683 127.882 140.826 127.588 138.766 127.326C137.737 127.191 136.905 127.072 136.332 126.972C135.76 126.874 135.446 126.807 135.449 126.778Z" fill="#263238"/>
<path d="M126.782 107.361C126.809 107.349 126.958 107.606 127.205 108.083C127.452 108.559 127.798 109.253 128.217 110.115C129.055 111.839 130.186 114.233 131.412 116.887C132.639 119.543 133.727 121.956 134.496 123.712C134.881 124.59 135.185 125.303 135.388 125.8C135.589 126.297 135.688 126.579 135.662 126.59C135.636 126.602 135.486 126.345 135.239 125.869C134.991 125.393 134.646 124.699 134.227 123.837C133.389 122.113 132.257 119.719 131.031 117.063C129.805 114.409 128.717 111.996 127.948 110.24C127.564 109.361 127.259 108.648 127.057 108.151C126.855 107.654 126.756 107.373 126.782 107.361Z" fill="#263238"/>
<path d="M107.968 128.408C107.994 128.396 108.182 128.727 108.498 129.338C108.843 130.026 109.28 130.897 109.802 131.938C110.888 134.141 112.361 137.199 113.964 140.586C115.569 143.974 117 147.051 118.017 149.287C118.49 150.351 118.887 151.241 119.201 151.945C119.472 152.576 119.61 152.932 119.584 152.944C119.557 152.957 119.37 152.626 119.054 152.014C118.708 151.326 118.27 150.455 117.749 149.415C116.663 147.211 115.191 144.154 113.587 140.765C111.983 137.378 110.551 134.301 109.536 132.065C109.061 131.002 108.664 130.111 108.35 129.407C108.079 128.775 107.942 128.42 107.968 128.408Z" fill="#263238"/>
<path d="M119.471 152.279C119.474 152.25 119.881 152.256 120.617 152.292C121.43 152.337 122.475 152.394 123.728 152.463C126.353 152.605 129.981 152.791 133.991 152.886C138.002 152.986 141.634 152.984 144.264 152.965C145.517 152.959 146.563 152.953 147.379 152.949C148.114 152.949 148.523 152.962 148.524 152.991C148.524 153.02 148.12 153.062 147.384 153.112C146.65 153.162 145.585 153.217 144.27 153.262C141.639 153.356 137.999 153.406 133.981 153.305C129.963 153.21 126.33 152.977 123.707 152.759C122.395 152.646 121.334 152.543 120.603 152.456C119.872 152.369 119.469 152.308 119.471 152.279Z" fill="#263238"/>
<path fill-rule="evenodd" clip-rule="evenodd" d="M0 168H186V164H0V168Z" fill="#FF2D3B"/>
<path d="M93.5 137V140.9" stroke="#FF2D3B" stroke-width="2.5" stroke-linecap="round" stroke-linejoin="round"/>
<path d="M93.5 146.1V150" stroke="#FF2D3B" stroke-width="2.5" stroke-linecap="round" stroke-linejoin="round"/>
<path d="M87 143.5H90.9" stroke="#FF2D3B" stroke-width="2.5" stroke-linecap="round" stroke-linejoin="round"/>
<path d="M96.1001 143.5H100" stroke="#FF2D3B" stroke-width="2.5" stroke-linecap="round" stroke-linejoin="round"/>
<path d="M93.5 27V30.9" stroke="#FF2D3B" stroke-width="2.5" stroke-linecap="round" stroke-linejoin="round"/>
<path d="M93.5 36.1V40" stroke="#FF2D3B" stroke-width="2.5" stroke-linecap="round" stroke-linejoin="round"/>
<path d="M87 33.5H90.9" stroke="#FF2D3B" stroke-width="2.5" stroke-linecap="round" stroke-linejoin="round"/>
<path d="M96.1001 33.5H100" stroke="#FF2D3B" stroke-width="2.5" stroke-linecap="round" stroke-linejoin="round"/>
<path d="M166.174 5.75736C166.102 5.7621 166.028 5.76049 165.949 5.75052C165.94 5.749 165.93 5.74747 165.92 5.74596C165.104 5.60016 164.43 4.62562 164.279 3.52611C164.27 3.45174 164.262 3.3773 164.258 3.30366C164.226 2.8233 164.301 2.35978 164.451 1.963C164.6 1.51191 164.939 1.08302 165.359 1.00951C165.397 1.00152 165.437 0.995604 165.476 0.99302L165.477 0.992948C165.481 0.992733 165.483 0.99259 165.485 0.992446C165.631 0.983836 165.77 1.01591 165.88 1.08035C165.88 1.08035 165.88 1.08143 165.881 1.08136C165.888 1.08526 165.894 1.08917 165.901 1.09415C166.041 1.18593 166.119 1.3079 166.153 1.4143C166.156 1.42389 166.159 1.43349 166.161 1.44308C166.162 1.44633 166.163 1.44951 166.163 1.45167C166.163 1.45275 166.163 1.45276 166.163 1.45276C166.164 1.45701 166.166 1.46125 166.166 1.46558C166.166 1.46666 166.166 1.46666 166.166 1.46666C166.186 1.55769 166.177 1.62896 166.161 1.67454C166.147 1.71788 166.126 1.74101 166.116 1.74166L166.115 1.74173C166.114 1.7418 166.114 1.74072 166.113 1.74079C166.083 1.73408 166.106 1.62171 166.017 1.47549C165.949 1.3561 165.787 1.23215 165.576 1.24283C165.573 1.24305 165.571 1.24319 165.569 1.24333C165.568 1.2434 165.568 1.2434 165.567 1.24348C165.53 1.24592 165.491 1.25282 165.451 1.2642C165.446 1.26557 165.442 1.26694 165.438 1.26831C165.434 1.26968 165.429 1.27105 165.426 1.27235C165.141 1.35542 164.91 1.66195 164.784 2.08103C164.668 2.43433 164.611 2.84342 164.639 3.26752C164.644 3.33676 164.651 3.40585 164.661 3.47581C164.79 4.46043 165.374 5.32906 165.975 5.48042C166.084 5.50902 166.189 5.51618 166.286 5.50979C166.288 5.50965 166.289 5.50958 166.29 5.50951C166.451 5.49881 166.589 5.44836 166.682 5.39437C166.684 5.39314 166.685 5.39198 166.687 5.39076C166.694 5.38816 166.699 5.38349 166.705 5.37982C166.708 5.37852 166.711 5.37614 166.715 5.37484C166.718 5.37246 166.72 5.37123 166.723 5.36885C166.725 5.36763 166.727 5.3664 166.729 5.36409C166.84 5.29041 166.895 5.22379 166.922 5.222L166.923 5.22193C166.924 5.22185 166.925 5.22178 166.926 5.22171C166.926 5.22171 166.926 5.22279 166.927 5.22272C166.927 5.22272 166.927 5.22272 166.928 5.22265C166.928 5.22265 166.928 5.22265 166.929 5.22366C166.933 5.22453 166.935 5.22978 166.936 5.23952C166.939 5.27955 166.904 5.38507 166.778 5.50974C166.774 5.51435 166.77 5.51787 166.766 5.5214C166.762 5.52378 166.76 5.52609 166.758 5.5284C166.754 5.53085 166.751 5.53324 166.748 5.5367C166.627 5.64038 166.427 5.73948 166.177 5.75714C166.176 5.75722 166.175 5.75729 166.174 5.75736Z" fill="#F1496C"/>
<path d="M166.177 5.75714C166.427 5.73948 166.627 5.64038 166.748 5.5367C166.627 5.64038 166.427 5.73948 166.177 5.75714ZM165.949 5.75052C165.94 5.749 165.93 5.74747 165.92 5.74596C165.104 5.60016 164.43 4.62562 164.279 3.52611C164.27 3.45174 164.262 3.3773 164.258 3.30366C164.262 3.3773 164.27 3.45174 164.279 3.52611C164.43 4.62562 165.104 5.60016 165.92 5.74596C165.93 5.74747 165.94 5.749 165.949 5.75052ZM166.758 5.5284C166.76 5.52609 166.762 5.52378 166.766 5.5214C166.762 5.52378 166.76 5.52609 166.758 5.5284ZM166.778 5.50974C166.904 5.38507 166.939 5.27955 166.936 5.23952C166.939 5.27955 166.904 5.38507 166.778 5.50974ZM166.29 5.50951C166.451 5.49881 166.589 5.44836 166.682 5.39437C166.589 5.44836 166.451 5.49881 166.29 5.50951ZM166.705 5.37982C166.708 5.37852 166.711 5.37614 166.715 5.37484C166.711 5.37614 166.708 5.37852 166.705 5.37982ZM166.723 5.36885C166.725 5.36763 166.727 5.3664 166.729 5.36409C166.727 5.3664 166.725 5.36763 166.723 5.36885ZM166.929 5.22366C166.928 5.22265 166.928 5.22265 166.928 5.22265C166.928 5.22265 166.928 5.22265 166.929 5.22366ZM166.927 5.22272C166.926 5.22279 166.926 5.22171 166.926 5.22171C166.926 5.22171 166.926 5.22279 166.927 5.22272ZM166.923 5.22193L166.922 5.222L166.923 5.22193ZM164.639 3.26752C164.611 2.84342 164.668 2.43433 164.784 2.08103C164.91 1.66195 165.141 1.35542 165.426 1.27235C165.429 1.27105 165.434 1.26968 165.438 1.26831C165.434 1.26968 165.429 1.27105 165.426 1.27235C165.141 1.35542 164.91 1.66195 164.784 2.08103C164.668 2.43433 164.611 2.84342 164.639 3.26752ZM166.116 1.74166L166.115 1.74173L166.116 1.74166ZM166.113 1.74079C166.083 1.73408 166.106 1.62171 166.017 1.47549C166.106 1.62171 166.083 1.73408 166.113 1.74079ZM166.161 1.67454C166.177 1.62896 166.186 1.55769 166.166 1.46666C166.186 1.55769 166.177 1.62896 166.161 1.67454ZM166.166 1.46558C166.166 1.46125 166.164 1.45701 166.163 1.45276C166.164 1.45701 166.166 1.46125 166.166 1.46558ZM166.163 1.45167C166.163 1.44951 166.162 1.44633 166.161 1.44308C166.162 1.44633 166.163 1.44951 166.163 1.45167ZM165.451 1.2642C165.491 1.25282 165.53 1.24592 165.567 1.24348C165.53 1.24592 165.491 1.25282 165.451 1.2642ZM165.576 1.24283C165.573 1.24305 165.571 1.24319 165.569 1.24333C165.571 1.24319 165.573 1.24305 165.576 1.24283ZM165.881 1.08136C165.88 1.08143 165.88 1.08035 165.88 1.08035C165.88 1.08035 165.88 1.08143 165.881 1.08136ZM165.359 1.00951C165.397 1.00152 165.437 0.995604 165.476 0.99302C165.437 0.995604 165.397 1.00152 165.359 1.00951ZM165.485 0.992446C165.483 0.99259 165.481 0.992733 165.477 0.992948C165.481 0.992733 165.483 0.99259 165.485 0.992446Z" fill="#F36386"/>
<path d="M31.2386 176.657L32.8329 179.537C32.8329 179.537 33.5156 181.432 35.4142 184.43C35.907 185.209 36.5354 185.891 37.2599 186.459C38.1388 187.148 39.3434 188.016 40.1503 188.285C41.1489 188.62 41.2222 189.994 40.3106 190.285C39.3999 190.576 36.6249 189.722 34.1545 187.4C31.6835 185.077 32.3931 190.366 32.6173 192.297C32.8419 194.23 33.2542 200.239 32.7148 200.779C31.9242 201.569 30.9307 200.868 30.7518 198.933C30.5709 196.974 29.6281 191.235 28.6136 191.401C27.6138 191.567 28.8887 201.387 28.8887 201.387C28.8887 201.387 29.5011 203.441 28.3349 203.675C26.232 204.095 25.6455 193.555 25.6145 192.551C25.5924 191.853 24.4843 191.996 24.5471 192.744C24.6118 193.514 26.0465 202.509 23.9093 202.957C22.2699 203.301 23.3463 194.293 22.0118 192.593C20.6777 190.891 21.8903 199.505 20.3101 199.77C19.7219 199.867 19.2693 199.859 19.2876 194.813C19.3053 189.643 21.6356 175.646 21.6356 175.646L31.3817 176.792" fill="#FFC4B4"/>
<path d="M64.7411 100.331C64.7411 100.331 36.3721 131.918 35.9471 135.794C35.5218 139.67 33.9565 182.398 33.9565 182.398L20.0169 181.94C20.0169 181.94 15.2376 129.707 19.2335 124.107C23.2292 118.506 39.1584 97.3493 39.1584 97.3493L64.7411 100.331Z" fill="#FFC4B4"/>
<path d="M119.213 78.9246L146.716 84.1531L140.315 52.3835L139.664 50.8902L129.651 50.0181L130.352 42.628C130.736 39.1632 133.999 36.7669 137.419 37.4364C138.521 37.6512 139.681 37.8786 140.729 38.0839C143.086 38.5469 145.144 39.9784 146.376 42.0417C148.5 45.5997 150.601 49.5027 150.403 49.1681L150.402 49.1682L150.403 49.1681L167.512 87.5339C167.512 87.5339 172.52 95.1939 166.96 103.495C162.689 109.875 151.123 106.4 145.744 105.727L110.603 100.398L119.213 78.9246Z" fill="#FFC4B4"/>
<path d="M62.6588 43.4458C62.9232 44.0455 62.7957 44.7972 62.3482 45.2757C61.9003 45.7542 61.1587 45.9327 60.5432 45.7084C59.3731 45.2829 59.0492 43.7787 59.1183 42.5365C59.1878 41.2931 59.4433 39.9439 58.7968 38.8805C58.3017 38.0669 57.3898 37.6232 56.6485 37.0258C55.3561 35.9847 54.5354 34.3386 54.6182 32.6803C54.7 31.0231 55.7411 29.4153 57.2738 28.7801C58.8386 28.1308 60.8942 28.3855 61.9584 27.0674C62.7291 26.1122 62.6137 24.7126 63.1671 23.6164C64.0257 21.9143 66.2147 21.3952 68.1208 21.4241C70.0269 21.453 72.0084 21.8236 73.7897 21.1436C75.2767 20.5755 76.4053 19.352 77.7632 18.5208C80.7058 16.7184 84.7817 17.0075 87.4405 19.2065C90.0994 21.4066 91.1466 25.3556 89.9266 28.5846C89.4891 29.7437 88.7506 30.8392 87.6655 31.4382" fill="#17282F"/>
<path d="M66.6908 75.5997L84.5105 72.9807C84.4832 70.8809 83.7968 62.7994 83.7968 62.7994C83.7968 62.7994 91.1739 61.1461 90.7711 53.6868C90.3687 46.2287 87.9417 29.2021 87.9417 29.2021C79.0684 26.0658 69.1935 27.9794 62.1329 34.2006L61.0847 35.1243L66.6908 75.5997Z" fill="#FFC4B4"/>
<path d="M85.4532 42.231C84.9836 41.859 84.9053 41.1763 85.2774 40.7072C85.6496 40.238 86.3319 40.1591 86.8011 40.5311C87.2705 40.9031 87.3494 41.5857 86.9768 42.0549C86.6047 42.524 85.9227 42.6029 85.4532 42.231Z" fill="#17282F"/>
<path d="M88.77 40.3027C88.6619 40.4392 87.8926 39.9251 86.8661 39.9878C85.8383 40.0365 85.1294 40.6312 85.0074 40.5067C84.9477 40.4509 85.0489 40.2105 85.3575 39.9423C85.6607 39.6755 86.1919 39.4023 86.8322 39.3674C87.4726 39.3325 88.0309 39.5465 88.3604 39.7789C88.6964 40.0131 88.8228 40.2416 88.77 40.3027Z" fill="#17282F"/>
<path d="M76.1927 42.0359C76.7218 42.3148 76.9254 42.9707 76.6456 43.5011C76.3665 44.0303 75.7107 44.2336 75.1807 43.9547C74.6511 43.6758 74.4479 43.0188 74.7269 42.4895C75.0063 41.9592 75.6627 41.757 76.1927 42.0359Z" fill="#17282F"/>
<path d="M77.6815 41.9458C77.5734 42.0834 76.8037 41.5683 75.7777 41.6321C74.7498 41.6796 74.0409 42.2743 73.9189 42.1499C73.8588 42.0952 73.96 41.8548 74.2686 41.5855C74.5713 41.3187 75.1034 41.0465 75.7437 41.0106C76.3841 40.9768 76.9421 41.1908 77.272 41.4232C77.608 41.6562 77.7343 41.8847 77.6815 41.9458Z" fill="#17282F"/>
<path d="M82.359 50.1406C82.3465 50.0611 82.9727 49.8902 83.9952 49.6789C84.2621 49.6319 84.4685 49.5573 84.4784 49.4111C84.5158 49.2456 84.3928 48.9658 84.2351 48.6557C83.9259 47.9938 83.6132 47.3245 83.2852 46.6236C81.9664 43.7261 81.0172 41.3245 81.1638 41.2583C81.3114 41.1909 82.4993 43.4843 83.8181 46.3818C84.1311 47.0891 84.4302 47.7647 84.7258 48.4318C84.8453 48.7358 85.0557 49.0859 84.9469 49.5386C84.8873 49.7653 84.6867 49.9395 84.5127 49.9977C84.3382 50.0626 84.187 50.0737 84.0584 50.0877C83.0196 50.1946 82.3711 50.2203 82.359 50.1406Z" fill="#17282F"/>
<path d="M79.099 51.4958C80.4793 51.9421 82.1294 52.5063 84.2303 52.6245C84.2303 52.6245 83.1585 54.62 80.958 53.975C78.6729 53.3072 79.099 51.4958 79.099 51.4958Z" fill="white"/>
<path d="M83.8018 62.6915C83.8018 62.6915 79.1177 63.387 73.9031 60.5752C73.9031 60.5752 76.5555 65.7857 83.9472 64.6204L83.8018 62.6915Z" fill="#FEAA91"/>
<path d="M88.2191 31.0669C88.2191 31.0669 84.0265 33.8802 77.7579 31.7827C73.6438 30.4062 69.032 30.1015 68.154 31.0128C67.2751 31.9252 67.6252 35.915 63.9809 37.6075C63.9809 37.6075 65.3088 45.126 62.2583 45.2817C59.2081 45.4373 59.4399 33.4698 59.4399 33.4698L66.3016 28.8309L74.1289 26.1773L81.8569 26.1775L87.9463 26.9557L88.2191 31.0669Z" fill="#17282F"/>
<path d="M62.5156 42.7826C62.3848 42.7348 57.2942 41.6067 57.7951 46.6916C58.2963 51.7754 63.2973 50.2243 63.2917 50.0769C63.2862 49.9306 62.5156 42.7826 62.5156 42.7826Z" fill="#FFC4B4"/>
<path d="M61.5487 48.304C61.5249 48.2904 61.4664 48.3747 61.3234 48.458C61.1841 48.5401 60.9374 48.6108 60.6626 48.5377C60.1059 48.3932 59.5696 47.5845 59.4546 46.6706C59.3961 46.2094 59.4502 45.7592 59.5777 45.378C59.6963 44.9909 59.9115 44.7082 60.1769 44.633C60.4401 44.5438 60.6474 44.6866 60.7235 44.8239C60.8055 44.9597 60.7836 45.0643 60.8116 45.0701C60.8272 45.081 60.9122 44.9743 60.8501 44.7687C60.8194 44.6697 60.7482 44.556 60.6194 44.47C60.4871 44.3821 60.3024 44.3497 60.1161 44.3882C59.727 44.4542 59.4099 44.8502 59.2691 45.2681C59.1069 45.6896 59.0361 46.1963 59.1019 46.7146C59.2346 47.736 59.8538 48.6435 60.6093 48.7836C60.977 48.8418 61.2642 48.7043 61.4067 48.5698C61.5514 48.4277 61.567 48.3115 61.5487 48.304Z" fill="#F68260"/>
<path d="M58.0088 27.2209C57.9417 27.0852 58.7652 26.6654 59.8121 26.9219C60.8613 27.1707 61.4025 27.9194 61.2813 28.01C61.1674 28.1251 60.555 27.6713 59.6799 27.4708C58.8101 27.2514 58.0577 27.3763 58.0088 27.2209Z" fill="#17282F"/>
<path d="M60.6905 23.8145C60.8654 23.8094 60.9283 24.8843 61.251 26.0962C61.5657 27.3141 62.1989 28.1501 62.0767 28.2604C61.9835 28.3774 61.0653 27.6092 60.7067 26.2464C60.3549 24.9049 60.5564 23.8092 60.6905 23.8145Z" fill="#17282F"/>
<path d="M83.6679 38.9591C83.4846 38.717 84.3795 37.823 85.849 37.6636C87.3185 37.4965 88.3871 38.171 88.2616 38.4478C88.1507 38.7485 87.1454 38.6425 85.974 38.7854C84.8001 38.9035 83.8423 39.2278 83.6679 38.9591Z" fill="#17282F"/>
<path d="M72.1715 38.7625C71.9885 38.5192 72.8826 37.6264 74.3521 37.467C75.822 37.2988 76.8911 37.9744 76.7656 38.2512C76.6544 38.5519 75.6489 38.4459 74.4771 38.5888C73.3032 38.7069 72.3459 39.0313 72.1715 38.7625Z" fill="#17282F"/>
<path d="M59.4571 165.665C59.6113 165.686 59.6865 166.064 59.6247 166.509C59.562 166.953 59.387 167.296 59.2327 167.274C59.0781 167.252 59.003 166.875 59.0654 166.43C59.1273 165.985 59.3028 165.642 59.4571 165.665Z" fill="#33535F"/>
<path d="M118.008 164.271L53.7615 164.091L53.9474 133.393L52.8463 116.312L47.2707 126.328L26.8557 110.828L45.8063 82.3687L45.8079 82.373C49.0976 78.4709 53.0545 75.4841 57.8855 73.3662C60.2325 72.3368 62.75 71.646 65.6937 71.3257C72.1914 72.8712 78.5592 72.4519 84.7961 70.0691C87.4408 70.225 93.5286 70.2046 102.373 72.1377L127.026 77.0794L121.026 107.345L106.069 103.391C106.069 103.391 117.747 158.085 118.008 164.271Z" fill="#F03D5F"/>
<path d="M52.2973 117.339C52.1611 117.263 52.9503 115.563 54.0589 113.541C55.1684 111.519 56.18 109.938 56.3184 110.01C56.4574 110.082 55.6678 111.783 54.556 113.81C53.4445 115.835 52.4327 117.416 52.2973 117.339Z" fill="#17282F"/>
<path d="M86.1333 80.3884C64.0146 81.8561 46.081 82.9189 46.0706 82.7631C46.0604 82.6084 63.9772 81.2924 86.0959 79.8247C108.208 78.3575 126.145 77.2944 126.155 77.4491C126.166 77.6049 108.245 78.9212 86.1333 80.3884Z" fill="#F89DB4"/>
<path d="M80.0079 94.6626C56.1344 96.2468 36.7793 97.405 36.7689 97.2492C36.7586 97.0934 56.0971 95.6842 79.9706 94.1001C103.835 92.5165 123.195 91.358 123.205 91.5138C123.215 91.6696 103.873 93.0791 80.0079 94.6626Z" fill="#F89DB4"/>
<path d="M107.022 107.882C107.016 107.857 107.011 107.83 107.005 107.804C107.254 107.801 107.384 107.805 107.385 107.818C107.386 107.832 107.262 107.853 107.022 107.882Z" fill="white"/>
<path d="M68.7355 110.666C64.18 110.969 59.8069 111.253 55.7478 111.512C55.8441 111.312 55.9302 111.127 56.005 110.961C59.9806 110.686 64.2508 110.398 68.6981 110.103C88.2114 108.808 104.359 107.843 107.005 107.804C107.011 107.83 107.016 107.857 107.022 107.882C104.428 108.192 88.2763 109.37 68.7355 110.666ZM55.2068 111.547C40.5158 112.481 30.0525 113.071 30.0445 112.95C30.0365 112.829 40.6676 112.019 55.5521 110.992C55.4448 111.16 55.3288 111.345 55.2068 111.547Z" fill="#F89DB4"/>
<path d="M55.7477 111.512C55.5665 111.524 55.3867 111.535 55.2067 111.547C55.3287 111.345 55.4447 111.16 55.552 110.992C55.7024 110.981 55.8532 110.971 56.0049 110.961C55.9302 111.127 55.844 111.312 55.7477 111.512Z" fill="#9BA6A6"/>
<path d="M110.444 124.24C110.441 124.223 110.438 124.211 110.435 124.194C110.501 124.197 110.536 124.203 110.536 124.211C110.537 124.218 110.506 124.228 110.444 124.24Z" fill="white"/>
<path d="M82.1116 126.381C66.3996 127.423 53.6579 128.141 53.6475 127.986C53.6372 127.83 66.3622 126.859 82.0742 125.817C96.9755 124.828 109.21 124.13 110.435 124.194C110.438 124.211 110.441 124.223 110.444 124.24C109.277 124.463 97.04 125.39 82.1116 126.381Z" fill="#F89DB4"/>
<path d="M84.1386 143.471C68.0117 144.541 54.9335 145.281 54.9232 145.126C54.9128 144.97 67.9743 143.977 84.1012 142.907C100.223 141.837 113.304 141.095 113.314 141.251C113.324 141.407 100.261 142.401 84.1386 143.471Z" fill="#F89DB4"/>
<path d="M116.895 156.833C116.892 156.818 116.89 156.803 116.887 156.788C116.955 156.791 116.991 156.796 116.991 156.804C116.992 156.811 116.958 156.821 116.895 156.833ZM53.7798 160.999C53.7797 160.998 53.7797 160.998 53.7797 160.998C53.7797 160.998 53.7797 160.998 53.7797 160.997L53.7798 160.999Z" fill="white"/>
<path d="M85.4055 159.183C67.9638 160.341 53.8177 161.153 53.7799 160.999L53.7798 160.997C53.8181 160.839 67.9391 159.776 85.3681 158.62C101.958 157.519 115.572 156.729 116.887 156.788C116.89 156.803 116.892 156.818 116.895 156.833C115.629 157.064 102.017 158.081 85.4055 159.183Z" fill="#F89DB4"/>
<path d="M139.855 32.2425C137.859 32.3749 137.626 36.4174 137.759 38.4221L141.587 39.4625C141.841 37.0007 141.85 32.1101 139.855 32.2425Z" fill="#F8A58D"/>
<path d="M161.676 114.999C163.363 117.683 163.609 121.109 162.809 124.177C162.009 127.244 160.248 129.987 158.174 132.385C154.161 137.023 147.828 140.142 141.999 142.054C140.296 135.46 143.737 128.346 145.708 124.846C148.824 119.316 157.815 111.213 161.676 114.999Z" fill="#FFEAEB"/>
<path d="M141.24 153.724C142.508 150.418 145.826 148.11 149.338 147.66C152.851 147.21 156.461 148.475 159.222 150.692C160.499 151.718 161.686 153.107 161.697 154.745C161.709 156.275 160.637 157.666 159.285 158.385C157.934 159.104 156.349 159.247 154.819 159.186C149.573 158.976 144.536 157.81 141.24 153.724Z" fill="#FFEAEB"/>
<path d="M124.911 164.764C124.886 164.737 125.187 164.405 125.762 163.834C126.335 163.262 127.18 162.451 128.262 161.486C130.42 159.564 133.57 157.002 137.569 155.028C141.569 153.032 145.699 152.38 148.609 152.652C150.068 152.769 151.225 153.042 151.997 153.302C152.769 153.562 153.174 153.761 153.163 153.79C153.132 153.904 151.455 153.168 148.585 153.038C145.736 152.871 141.729 153.563 137.811 155.518C133.877 157.459 130.728 159.939 128.514 161.779C127.481 162.655 126.608 163.394 125.905 163.99C125.288 164.513 124.937 164.792 124.911 164.764Z" fill="#263238"/>
<path d="M155.374 121.774C155.39 121.784 155.306 121.951 155.13 122.258C154.917 122.615 154.656 123.055 154.339 123.589C153.645 124.74 152.609 126.386 151.307 128.405C148.702 132.445 144.986 137.949 140.722 143.915C136.455 149.882 132.476 155.197 129.566 159.019C128.135 160.872 126.959 162.395 126.088 163.523C125.7 164.006 125.38 164.405 125.119 164.73C124.893 165.002 124.766 165.139 124.751 165.128C124.736 165.117 124.833 164.957 125.031 164.663C125.269 164.322 125.563 163.904 125.918 163.395C126.755 162.242 127.882 160.684 129.256 158.788C132.087 154.908 136.015 149.559 140.277 143.598C144.537 137.637 148.301 132.174 150.984 128.192C152.29 126.251 153.364 124.656 154.16 123.474C154.511 122.963 154.801 122.541 155.037 122.198C155.242 121.91 155.358 121.764 155.374 121.774Z" fill="#263238"/>
<path d="M131.481 151.836C134.862 145.179 134.749 136.865 131.188 130.303C130.281 128.632 128.781 126.883 126.892 127.089C124.999 127.295 123.909 129.338 123.428 131.181C121.424 138.847 124.618 147.598 131.089 152.171" fill="#FFEAEB"/>
<path d="M128.372 135.491C128.405 135.472 128.636 135.84 129.028 136.527C129.231 136.867 129.463 137.292 129.674 137.813C129.893 138.33 130.182 138.906 130.381 139.587C130.613 140.256 130.85 140.996 131.017 141.814C131.238 142.62 131.337 143.508 131.478 144.436C131.667 146.301 131.683 148.374 131.42 150.524C131.142 152.675 130.594 154.673 129.971 156.438C129.319 158.194 128.577 159.715 127.849 160.929C127.517 161.553 127.13 162.066 126.822 162.533C126.517 163.005 126.216 163.384 125.963 163.687C125.464 164.3 125.176 164.624 125.146 164.601C125.059 164.534 126.17 163.187 127.514 160.738C128.189 159.517 128.882 158.004 129.496 156.268C130.082 154.525 130.605 152.563 130.878 150.456C131.136 148.347 131.135 146.32 130.976 144.488C130.852 143.578 130.773 142.705 130.575 141.911C130.431 141.104 130.219 140.372 130.013 139.706C129.181 137.045 128.266 135.547 128.372 135.491Z" fill="#263238"/>
</svg>
