<svg width="23" height="21" viewBox="0 0 23 21" fill="none" xmlns="http://www.w3.org/2000/svg">
<path fill-rule="evenodd" clip-rule="evenodd" d="M20.0526 11.8148C20.2278 11.8148 20.3704 11.6722 20.3704 11.497V8.87333C20.3704 8.69815 20.2278 8.55556 20.0526 8.55596H17.9944C17.3327 8.55596 16.7644 8.17626 16.5114 7.56515C16.258 6.95404 16.3916 6.28344 16.8593 5.81574L18.3146 4.36089C18.4389 4.23704 18.4389 4.03537 18.3146 3.91111L16.4597 2.05619C16.3362 1.93193 16.1346 1.93193 16.0099 2.05619L14.555 3.51104C14.0873 3.97874 13.4176 4.11237 12.8056 3.85896C12.1945 3.60596 11.8148 3.03763 11.8148 2.376V0.317778C11.8148 0.142593 11.6722 0 11.4966 0H8.87333C8.69815 0 8.55556 0.142593 8.55556 0.317778V2.376C8.55556 3.03763 8.17585 3.60596 7.56474 3.85856C6.95282 4.11196 6.28263 3.97793 5.81533 3.51063L4.36048 2.05578C4.23622 1.93152 4.03456 1.93152 3.9107 2.05578L2.05578 3.9107C1.93152 4.03456 1.93152 4.23622 2.05578 4.36048L3.51104 5.81533C3.97915 6.28304 4.11237 6.95363 3.85896 7.56474C3.60596 8.17585 3.03763 8.55556 2.376 8.55556H0.317778C0.142593 8.55556 0 8.69815 0 8.87333V11.497C0 11.6722 0.142593 11.8148 0.317778 11.8148H2.376C3.03763 11.8148 3.60596 12.1945 3.85896 12.8052C4.11237 13.4163 3.97874 14.0869 3.51104 14.5546L2.05578 16.0095C1.93152 16.1333 1.93152 16.335 2.05578 16.4593L3.9107 18.3142C4.03415 18.438 4.23581 18.4389 4.36048 18.3142L5.81533 16.8589C6.12659 16.5477 6.52707 16.3847 6.94018 16.3847C7.14878 16.3847 7.35982 16.4263 7.56474 16.5114C8.17585 16.7644 8.55556 17.3327 8.55556 17.9944V20.0526C8.55556 20.2278 8.69815 20.3704 8.87333 20.3704H11.497C11.6722 20.3704 11.8148 20.2278 11.8148 20.0526V17.9944C11.8148 17.3327 12.1945 16.7644 12.8056 16.5114C13.4167 16.2588 14.0869 16.3912 14.555 16.8593L16.0099 18.3146C16.1341 18.4393 16.3358 18.4384 16.4597 18.3146L18.3146 16.4597C18.4389 16.3358 18.4389 16.1341 18.3146 16.0099L16.8593 14.555C16.3912 14.0873 16.258 13.4167 16.5114 12.8056C16.7644 12.1945 17.3327 11.8148 17.9944 11.8148H20.0526ZM7.33325 10.1853C7.33325 11.7575 8.61292 13.0372 10.1851 13.0372C11.7573 13.0372 13.037 11.7575 13.037 10.1853C13.037 8.61316 11.7573 7.3335 10.1851 7.3335C8.61292 7.3335 7.33325 8.61316 7.33325 10.1853Z" fill="#FFEAEB"/>
<path fill-rule="evenodd" clip-rule="evenodd" d="M22.7816 14.12C22.902 14.12 23 14.022 23 13.9016V12.0984C23 11.978 22.902 11.88 22.7816 11.8803H21.367C20.9123 11.8803 20.5217 11.6193 20.3478 11.1993C20.1737 10.7793 20.2655 10.3184 20.587 9.997L21.5871 8.99712C21.6725 8.912 21.6725 8.7734 21.5871 8.688L20.3123 7.41316C20.2274 7.32776 20.0888 7.32776 20.0032 7.41316L19.0033 8.41304C18.6818 8.73448 18.2215 8.82632 17.801 8.65216C17.381 8.47828 17.12 8.08768 17.12 7.63296V6.2184C17.12 6.098 17.022 6 16.9013 6H15.0984C14.978 6 14.88 6.098 14.88 6.2184V7.63296C14.88 8.08768 14.619 8.47828 14.199 8.65188C13.7785 8.82604 13.3179 8.73392 12.9967 8.41276L11.9968 7.41288C11.9114 7.32748 11.7728 7.32748 11.6877 7.41288L10.4129 8.68772C10.3275 8.77284 10.3275 8.91144 10.4129 8.99684L11.413 9.99672C11.7348 10.3182 11.8263 10.779 11.6522 11.199C11.4783 11.619 11.0877 11.88 10.633 11.88H9.2184C9.098 11.88 9 11.978 9 12.0984V13.9016C9 14.022 9.098 14.12 9.2184 14.12H10.633C11.0877 14.12 11.4783 14.381 11.6522 14.8007C11.8263 15.2207 11.7345 15.6816 11.413 16.003L10.4129 17.0029C10.3275 17.088 10.3275 17.2266 10.4129 17.312L11.6877 18.5868C11.7726 18.672 11.9112 18.6725 11.9968 18.5868L12.9967 17.5867C13.2106 17.3728 13.4859 17.2608 13.7698 17.2608C13.9132 17.2608 14.0582 17.2893 14.199 17.3478C14.619 17.5217 14.88 17.9123 14.88 18.367V19.7816C14.88 19.902 14.978 20 15.0984 20H16.9016C17.022 20 17.12 19.902 17.12 19.7816V18.367C17.12 17.9123 17.381 17.5217 17.801 17.3478C18.221 17.1742 18.6816 17.2652 19.0033 17.587L20.0032 18.5871C20.0886 18.6728 20.2272 18.6722 20.3123 18.5871L21.5871 17.3123C21.6725 17.2272 21.6725 17.0886 21.5871 17.0032L20.587 16.0033C20.2652 15.6818 20.1737 15.221 20.3478 14.801C20.5217 14.381 20.9123 14.12 21.367 14.12H22.7816ZM14.0398 13.0002C14.0398 14.0807 14.9193 14.9602 15.9998 14.9602C17.0803 14.9602 17.9598 14.0807 17.9598 13.0002C17.9598 11.9197 17.0803 11.0402 15.9998 11.0402C14.9193 11.0402 14.0398 11.9197 14.0398 13.0002Z" fill="#FF2D3B"/>
</svg>
