<svg width="23" height="23" viewBox="0 0 23 23" fill="none" xmlns="http://www.w3.org/2000/svg">
<path d="M18.6875 23H4.3125C1.93059 23 0 21.0694 0 18.6875V4.3125C0 1.93059 1.93059 0 4.3125 0H18.6875C21.0694 0 23 1.93059 23 4.3125V18.6875C23 21.0694 21.0694 23 18.6875 23Z" fill="#A0AABB" fill-opacity="0.3"/>
<path d="M16.619 10.2515L15.7183 10.1366C15.6444 9.90791 15.553 9.68733 15.4452 9.47816L16.0015 8.76222C16.2264 8.47198 16.2007 8.06295 15.9432 7.8136L15.1887 7.05888C14.937 6.79935 14.528 6.77355 14.2371 6.99781L13.5211 7.55407C13.312 7.44703 13.0914 7.35561 12.8627 7.28173L12.7492 6.38242C12.7053 6.02164 12.3991 5.75 12.037 5.75H10.9637C10.6009 5.75 10.2947 6.02164 10.2515 6.38101L10.1366 7.28173C9.90791 7.35648 9.68733 7.44703 9.47816 7.55407L8.76222 6.99781C8.47269 6.77285 8.06365 6.79865 7.8136 7.05589L7.05888 7.81062C6.79935 8.06295 6.77285 8.47198 6.99781 8.76222L7.55407 9.47816C7.44703 9.68733 7.35561 9.90791 7.28085 10.1366L6.38242 10.2508C6.02164 10.2947 5.75 10.6009 5.75 10.963V12.0363C5.75 12.3991 6.02164 12.7053 6.38101 12.7485L7.28173 12.8634C7.35561 13.0921 7.44703 13.3127 7.55477 13.5218L6.99851 14.2378C6.77355 14.528 6.79935 14.937 7.05677 15.1864L7.81132 15.9411C8.06365 16.2007 8.47198 16.2264 8.76222 16.0015L9.47816 15.4452C9.68733 15.5523 9.90791 15.6435 10.1366 15.7183L10.2508 16.6176C10.294 16.9784 10.6002 17.25 10.963 17.25H12.0363C12.3991 17.25 12.7053 16.9784 12.7485 16.619L12.8634 15.7183C13.0921 15.6444 13.3127 15.553 13.5218 15.4452L14.2378 16.0015C14.5273 16.2264 14.937 16.2007 15.1864 15.9432L15.9411 15.1887C16.2007 14.9363 16.2271 14.5273 16.0022 14.2371L15.4459 13.5211C15.553 13.312 15.6444 13.0914 15.7191 12.8627L16.6183 12.7485C16.9791 12.7053 17.2507 12.3991 17.2507 12.0363V10.963C17.25 10.6009 16.9784 10.2947 16.619 10.2515V10.2515ZM11.5 13.8956C10.179 13.8956 9.1044 12.821 9.1044 11.5C9.1044 10.179 10.179 9.1044 11.5 9.1044C12.821 9.1044 13.8956 10.179 13.8956 11.5C13.8956 12.821 12.821 13.8956 11.5 13.8956Z" fill="#A0AABB"/>
</svg>
