<svg width="193" height="96" viewBox="0 0 193 96" fill="none" xmlns="http://www.w3.org/2000/svg">
<path fill-rule="evenodd" clip-rule="evenodd" d="M34.8472 74C34.8472 77.866 37.6475 81 41.1019 81H171.556C175.01 81 177.81 77.866 177.81 74C177.81 70.134 175.01 67 171.556 67H166.194C162.74 67 159.94 63.866 159.94 60C159.94 56.134 162.74 53 166.194 53H183.171C186.626 53 189.426 49.866 189.426 46C189.426 42.134 186.626 39 183.171 39H163.514C166.968 39 169.769 35.866 169.769 32C169.769 28.134 166.968 25 163.514 25H106.329C109.783 25 112.583 21.866 112.583 18C112.583 14.134 109.783 11 106.329 11H55.3981C51.9438 11 49.1435 14.134 49.1435 18C49.1435 21.866 51.9438 25 55.3981 25H19.6574C16.2031 25 13.4028 28.134 13.4028 32C13.4028 35.866 16.2031 39 19.6574 39H41.9954C45.4497 39 48.25 42.134 48.25 46C48.25 49.866 45.4497 53 41.9954 53H6.25463C2.80029 53 0 56.134 0 60C0 63.866 2.80029 67 6.25463 67H41.1019C37.6475 67 34.8472 70.134 34.8472 74ZM193 74C193 77.866 190.2 81 186.745 81C183.291 81 180.491 77.866 180.491 74C180.491 70.134 183.291 67 186.745 67C190.2 67 193 70.134 193 74Z" fill="#E8FDFD"/>
<g filter="url(#filter0_d)">
<rect x="52.2686" y="4.26562" width="96.582" height="86.8352" rx="4" fill="#3C393A"/>
<path d="M52.2686 8.26562C52.2686 6.05648 54.0594 4.26562 56.2686 4.26562L144.851 4.26563C147.06 4.26563 148.851 6.05649 148.851 8.26563V37.0503H52.2686V8.26562Z" fill="#262324"/>
<rect x="60.2433" y="14.8984" width="22.1518" height="2.65822" rx="1.32911" fill="white"/>
<rect x="60.2432" y="45.0249" width="22.1518" height="2.65822" rx="1.32911" fill="#D8D8D8"/>
<rect x="108.977" y="45.0249" width="22.1518" height="2.65822" rx="1.32911" fill="#D8D8D8"/>
<rect x="60.2432" y="66.2905" width="22.1518" height="2.65822" rx="1.32911" fill="#D8D8D8"/>
<rect x="108.977" y="66.2905" width="22.1518" height="2.65822" rx="1.32911" fill="#D8D8D8"/>
<rect x="60.2432" y="21.1011" width="31.0126" height="4.43037" rx="2.21518" fill="#808080"/>
<rect x="60.2432" y="51.2275" width="31.0126" height="4.43037" rx="2.21518" fill="#808080"/>
<rect x="108.977" y="51.2275" width="31.0126" height="4.43037" rx="2.21518" fill="#808080"/>
<rect x="60.2433" y="72.4932" width="31.0126" height="4.43037" rx="2.21518" fill="#808080"/>
<rect x="108.977" y="72.4932" width="31.0126" height="4.43037" rx="2.21518" fill="#808080"/>
<rect x="122.268" y="11.354" width="17.7215" height="17.7215" rx="4" fill="#E8FDFD"/>
<path d="M136.34 19.1195C136.405 19.0884 136.446 19.0232 136.446 18.9516C136.446 18.88 136.405 18.8148 136.34 18.7837L132.863 17.1087C131.766 16.5802 130.488 16.5802 129.391 17.1087L125.92 18.7805C125.854 18.8121 125.813 18.8786 125.813 18.9516C125.813 19.0245 125.854 19.091 125.92 19.1227L129.391 20.7946C130.488 21.323 131.766 21.323 132.863 20.7946L136.34 19.1195Z" fill="#40EAEA"/>
<path d="M128.643 20.9013C128.185 20.6807 127.654 21.0144 127.654 21.5227C127.654 21.7876 127.805 22.0291 128.044 22.1441L130.615 23.3825C130.774 23.4594 130.949 23.4993 131.127 23.4993C131.304 23.4993 131.479 23.4594 131.638 23.3825L134.578 21.9664C134.586 21.9624 134.593 21.9557 134.596 21.9473C134.598 21.9425 134.6 21.9373 134.6 21.9321V21.7685C134.6 21.1463 133.949 20.7379 133.389 21.0079L131.933 21.7091C131.424 21.9547 130.83 21.9547 130.32 21.7091L128.643 20.9013Z" fill="#40EAEA"/>
<path d="M135.95 22.9634C135.907 22.8332 135.885 22.6971 135.885 22.5602V20.1297C135.885 19.973 135.72 19.8714 135.58 19.9419C135.509 19.9777 135.465 20.0503 135.465 20.1297V22.5602C135.465 22.6971 135.443 22.8332 135.4 22.9634L135.3 23.267C135.232 23.4769 135.269 23.7073 135.402 23.8842L135.563 24.1003C135.589 24.1356 135.631 24.1564 135.675 24.1564C135.719 24.1564 135.761 24.1356 135.787 24.1003L135.948 23.8842C136.081 23.7073 136.118 23.477 136.049 23.2671L135.95 22.9634Z" fill="#40EAEA"/>
</g>
<defs>
<filter id="filter0_d" x="48.2686" y="0.265625" width="104.582" height="94.8352" filterUnits="userSpaceOnUse" color-interpolation-filters="sRGB">
<feFlood flood-opacity="0" result="BackgroundImageFix"/>
<feColorMatrix in="SourceAlpha" type="matrix" values="0 0 0 0 0 0 0 0 0 0 0 0 0 0 0 0 0 0 127 0"/>
<feOffset/>
<feGaussianBlur stdDeviation="2"/>
<feColorMatrix type="matrix" values="0 0 0 0 0 0 0 0 0 0 0 0 0 0 0 0 0 0 0.25 0"/>
<feBlend mode="normal" in2="BackgroundImageFix" result="effect1_dropShadow"/>
<feBlend mode="normal" in="SourceGraphic" in2="effect1_dropShadow" result="shape"/>
</filter>
</defs>
</svg>
