<svg width="219" height="153" viewBox="0 0 219 153" fill="none" xmlns="http://www.w3.org/2000/svg">
<path d="M210.5 110V113.9" stroke="#FF2D3B" stroke-width="2.5" stroke-linecap="round" stroke-linejoin="round"/>
<path d="M210.5 119.1V123" stroke="#FF2D3B" stroke-width="2.5" stroke-linecap="round" stroke-linejoin="round"/>
<path d="M204 116.5H207.9" stroke="#FF2D3B" stroke-width="2.5" stroke-linecap="round" stroke-linejoin="round"/>
<path d="M213.1 116.5H217" stroke="#FF2D3B" stroke-width="2.5" stroke-linecap="round" stroke-linejoin="round"/>
<path d="M173.52 99.6222C176.385 98.1466 179.751 97.9528 182.928 98.4805C184.636 98.7606 186.418 99.2722 187.576 100.554C188.739 101.836 188.96 104.092 187.624 105.196C186.833 105.853 185.723 105.95 184.695 105.939C182.207 105.912 179.449 105.471 177.457 106.968C176.32 107.824 175.567 109.241 174.215 109.661C172.89 110.07 171.393 109.289 170.687 108.094C169.982 106.898 169.96 105.401 170.289 104.049C170.294 104.054 170.639 101.114 173.52 99.6222Z" fill="#40EAEA"/>
<path d="M166.961 86.966C168.711 89.4649 172.115 88.6355 173.693 87.1114C175.271 85.5874 175.938 83.374 176.542 81.2629C177.926 76.443 179.326 71.3914 178.297 66.48C177.99 65.0151 177.441 63.5503 176.407 62.4624C175.378 61.3746 173.79 60.7283 172.341 61.1107C170.623 61.5631 169.562 63.2433 168.787 64.8428C166.519 69.5389 165.324 74.7466 165.302 79.965C165.302 82.3992 165.588 84.9519 166.961 86.966Z" fill="#40EAEA"/>
<path d="M162.157 90.5527C164.058 88.2962 164.419 85.0057 163.574 82.1838C162.728 79.3564 160.816 76.9545 158.614 74.9942C156.034 72.6947 152.997 70.9013 149.733 69.7542C148.451 69.3019 147.094 68.9464 145.743 69.0757C144.385 69.2049 143.023 69.8996 142.393 71.1006C141.461 72.8832 142.355 75.0427 143.325 76.8091C145.032 79.9165 146.981 82.8892 149.157 85.6897C150.907 87.9408 152.905 90.1649 155.571 91.1828C158.237 92.2006 160.999 92.0821 162.416 90.2349" fill="#40EAEA"/>
<path d="M166.842 124.675C166.875 124.675 166.928 124.271 166.998 123.539C167.079 122.709 167.182 121.675 167.3 120.437C167.445 119.133 167.634 117.583 167.995 115.891C168.356 114.206 168.921 112.38 169.648 110.522C170.402 108.68 171.318 107.006 172.389 105.665C173.456 104.318 174.689 103.343 175.852 102.783C177.01 102.213 178.049 101.976 178.771 101.873C179.498 101.798 179.902 101.744 179.902 101.712C179.902 101.679 179.498 101.674 178.749 101.696C178.012 101.744 176.929 101.933 175.707 102.487C174.479 103.031 173.17 104.022 172.05 105.395C170.924 106.763 169.977 108.476 169.212 110.35C168.474 112.235 167.914 114.082 167.569 115.805C167.225 117.523 167.068 119.096 166.966 120.41C166.869 121.724 166.831 122.79 166.81 123.528C166.805 124.266 166.81 124.675 166.842 124.675Z" fill="#011727"/>
<path d="M167.058 122.289C167.074 122.289 167.085 122.106 167.09 121.761C167.09 121.362 167.09 120.867 167.085 120.253C167.08 118.944 167.08 117.054 167.15 114.717C167.263 110.042 167.667 105.012 168.447 97.9143C169.185 91.2418 170.171 83.4814 171.216 78.4353C171.442 77.2882 171.663 76.2542 171.878 75.3495C172.083 74.4447 172.255 73.6638 172.422 73.0284C172.567 72.4306 172.68 71.9459 172.772 71.5635C172.847 71.2296 172.88 71.0465 172.864 71.0411C172.847 71.0358 172.783 71.2081 172.68 71.5366C172.567 71.9136 172.422 72.3929 172.244 72.9799C172.05 73.6046 171.851 74.3855 171.625 75.2848C171.388 76.1842 171.14 77.2182 170.892 78.3599C169.858 82.9321 168.771 89.3246 167.984 96.4333C167.203 103.542 166.853 110.015 166.821 114.701C166.794 117.043 166.843 118.939 166.902 120.248C166.94 120.862 166.972 121.357 166.993 121.756C167.02 122.111 167.042 122.289 167.058 122.289Z" fill="#011727"/>
<path d="M167.091 109.804C167.123 109.804 167.118 109.244 167.08 108.231C167.021 107.219 166.881 105.76 166.595 103.966C166.294 102.178 165.874 100.056 165.206 97.7514C164.921 96.6959 164.242 94.1702 162.605 90.395C160.451 85.2788 157.521 81.0998 154.974 78.5094C154.376 77.8201 153.708 77.3246 153.18 76.8399C152.906 76.6083 152.663 76.3768 152.416 76.1883C152.168 76.0159 151.936 75.8544 151.721 75.709C150.881 75.1381 150.412 74.8312 150.396 74.8581C150.321 74.9604 152.276 76.1075 154.742 78.7356C157.198 81.3529 160.047 85.505 162.185 90.5781C163.375 93.33 164.21 95.7804 164.797 97.8645C165.481 100.148 165.933 102.248 166.272 104.02C166.595 105.792 166.784 107.241 166.897 108.242C166.989 109.249 167.059 109.804 167.091 109.804Z" fill="#011727"/>
<path d="M154.187 129.931L155.436 147.067H177.452L178.707 129.931H154.187Z" fill="#BF222C"/>
<path d="M181.329 123.178H152.06V129.931H181.329V123.178Z" fill="#FF2D3B"/>
<path d="M152.06 146.41V148.284H153.438H180.85V146.41H152.06Z" fill="#FF2D3B"/>
<path d="M154.785 151.37L153.438 148.074H179.8L178.228 151.37H154.785Z" fill="#BF222C"/>
<path d="M178.297 135.532C178.303 135.537 178.265 135.591 178.195 135.688C178.109 135.806 178.001 135.946 177.866 136.124C177.554 136.523 177.123 137.072 176.585 137.767L176.525 137.842L176.472 137.767C175.664 136.652 174.587 135.16 173.321 133.41H173.504C172.567 134.735 171.522 136.216 170.402 137.804L170.305 137.944L170.197 137.815C169.05 136.453 167.812 134.972 166.519 133.437L166.729 133.431C166.665 133.512 166.595 133.598 166.525 133.685C165.383 135.117 164.279 136.501 163.234 137.81L163.126 137.95L163.024 137.804C161.909 136.226 160.865 134.745 159.922 133.415L160.105 133.426C158.576 135.171 157.278 136.646 156.282 137.783L156.212 137.858L156.158 137.772C155.652 136.927 155.253 136.248 154.962 135.763C154.838 135.542 154.736 135.37 154.655 135.23C154.585 135.106 154.558 135.042 154.564 135.042C154.569 135.036 154.612 135.095 154.693 135.214C154.784 135.349 154.892 135.521 155.032 135.731C155.339 136.21 155.759 136.873 156.287 137.707L156.169 137.697C157.149 136.55 158.425 135.052 159.928 133.291L160.024 133.178L160.111 133.297C161.064 134.627 162.114 136.097 163.24 137.67L163.03 137.664C164.069 136.356 165.173 134.966 166.309 133.534C166.379 133.448 166.449 133.361 166.514 133.281L166.616 133.151L166.724 133.281C168.011 134.821 169.25 136.302 170.391 137.664L170.187 137.67C171.318 136.092 172.373 134.622 173.321 133.297L173.413 133.168L173.504 133.297C174.743 135.069 175.798 136.576 176.59 137.702L176.477 137.697C177.037 137.023 177.484 136.485 177.812 136.097C177.958 135.93 178.076 135.796 178.168 135.683C178.249 135.569 178.292 135.526 178.297 135.532Z" fill="#011727"/>
<path d="M179.013 129.818C179.013 129.893 173.499 129.952 166.691 129.952C159.884 129.952 154.37 129.893 154.37 129.818C154.37 129.742 159.884 129.683 166.691 129.683C173.493 129.678 179.013 129.742 179.013 129.818Z" fill="#F5F5F5"/>
<path d="M47.4998 6V9.9" stroke="#FF2D3B" stroke-width="2.5" stroke-linecap="round" stroke-linejoin="round"/>
<path d="M47.4998 15.0996V18.9996" stroke="#FF2D3B" stroke-width="2.5" stroke-linecap="round" stroke-linejoin="round"/>
<path d="M41 12.5002H44.9" stroke="#FF2D3B" stroke-width="2.5" stroke-linecap="round" stroke-linejoin="round"/>
<path d="M50.1001 12.5002H54.0001" stroke="#FF2D3B" stroke-width="2.5" stroke-linecap="round" stroke-linejoin="round"/>
<path d="M186.465 72.2004H212.315C215.711 72.2004 218.559 69.5496 218.559 66.1257C218.559 66.0152 218.559 66.0152 218.559 65.9048C218.559 60.6032 214.396 56.2956 209.139 56.1852C208.262 56.1852 207.386 56.2956 206.51 56.5165C205.743 52.7612 202.348 50 198.514 50C194.352 50 190.956 52.9821 190.408 56.9583C189.642 56.7374 188.765 56.627 187.889 56.627C183.398 56.8479 179.893 60.4927 180.002 65.0212C180.002 66.5675 180.441 67.8929 181.098 69.1078C182.193 70.9855 184.274 72.2004 186.465 72.2004Z" fill="white"/>
<path d="M10.6219 106.583H53.093C58.6718 106.583 63.3508 102.215 63.3508 96.5726C63.3508 96.3906 63.3508 96.3906 63.3508 96.2086C63.3508 87.4724 56.5123 80.3743 47.8741 80.1922C46.4344 80.1922 44.9947 80.3743 43.555 80.7383C42.2952 74.5501 36.7164 70 30.4177 70C23.5792 70 18.0003 74.9141 17.1005 81.4663C15.8408 81.1023 14.4011 80.9203 12.9614 80.9203C5.58294 81.2843 -0.175857 87.2904 0.0041052 94.7526C0.0041052 97.3007 0.723954 99.4847 1.80373 101.487C3.60335 104.581 7.02263 106.583 10.6219 106.583Z" fill="white"/>
<path d="M155.165 6.05566C161.881 16.6171 161.442 31.2626 154.103 41.4015C149.211 48.1635 141.876 52.6911 136.051 58.6664C130.226 64.6376 125.799 73.4416 128.875 81.1995C132.005 89.0956 141.173 92.3092 148.039 97.3096C155.517 102.758 160.768 111.173 162.379 120.282C163.99 129.392 161.936 139.099 156.776 146.778H85.4655C85.4655 146.778 72.9373 122.906 89.0432 104.712C105.149 86.5179 113.798 86.2209 113.204 74.2911C112.606 62.3613 104.258 58.4823 99.4833 54.0092C94.7089 49.536 71.4477 39.0959 85.1684 6.05566H155.165V6.05566Z" fill="#FAFAFA"/>
<path d="M155.166 6.05579C155.166 6.05579 154.752 6.04742 153.94 6.04742C153.124 6.04324 151.915 6.04324 150.324 6.03905C147.14 6.03487 142.449 6.0265 136.407 6.01813C124.31 6.00976 106.806 5.99721 85.1646 5.98047H85.1102L85.0935 6.0265C84.1185 8.49949 83.1352 11.0478 82.4364 13.7468C81.7166 16.4332 81.1308 19.2367 80.9216 22.1365C80.704 25.0322 80.7961 28.024 81.3735 30.995C81.9677 33.9575 83.0305 36.8908 84.5955 39.6065C85.3738 40.9664 86.2902 42.2594 87.2819 43.5022C88.282 44.7408 89.3909 45.9041 90.5667 47.0171C91.7425 48.126 92.9937 49.1721 94.295 50.1722C95.5922 51.1764 96.9479 52.1263 98.2702 53.1264C98.9313 53.6243 99.5381 54.185 100.17 54.7457C100.806 55.2981 101.459 55.8295 102.116 56.3526C103.434 57.407 104.764 58.4615 106.02 59.6122C108.556 61.8802 110.698 64.713 111.878 68.0145C112.451 69.659 112.861 71.383 112.991 73.1488C113.024 73.5882 113.087 74.0276 113.1 74.4711C113.108 74.9147 113.133 75.3582 113.112 75.8018C113.108 76.6889 113.008 77.5801 112.845 78.4547C112.51 80.208 111.773 81.8859 110.702 83.3379C109.648 84.8066 108.35 86.0996 107.003 87.3424C104.296 89.8196 101.425 92.1796 98.6719 94.7321C95.906 97.2679 93.2238 99.9459 90.6378 102.762C89.3532 104.176 88.0518 105.595 86.9304 107.172C85.7713 108.721 84.7964 110.407 83.9427 112.156C82.2564 115.671 81.2145 119.525 80.8714 123.467C80.5031 127.408 80.7835 131.425 81.566 135.354C81.951 137.321 82.4656 139.271 83.0975 141.188C83.7293 143.104 84.4574 144.995 85.3613 146.82L85.3906 146.878H85.4575C86.0349 146.878 86.6626 146.878 87.2945 146.878C111.639 146.878 135.127 146.874 156.768 146.874H156.823L156.852 146.828C160.25 141.727 162.267 135.869 162.823 129.994C163.413 124.119 162.509 118.232 160.355 113.001C158.229 107.754 154.923 103.155 150.927 99.5358C148.935 97.7114 146.717 96.2218 144.491 94.8409C142.265 93.46 140.018 92.1796 137.897 90.782C135.784 89.3802 133.746 87.8864 132.093 86.062C130.432 84.2501 129.164 82.1244 128.503 79.8355C127.837 77.5467 127.829 75.1448 128.218 72.8852C128.616 70.6173 129.411 68.4706 130.423 66.4956C131.436 64.5164 132.666 62.7003 134.014 61.0433C135.357 59.3821 136.851 57.905 138.357 56.5116C141.374 53.7331 144.466 51.302 147.245 48.8039C148.638 47.5569 149.956 46.3016 151.17 45.0086C152.375 43.7072 153.479 42.3766 154.425 40.9957C156.333 38.2424 157.643 35.3384 158.505 32.539C159.367 29.7354 159.794 27.0239 159.894 24.53C159.953 23.9065 159.928 23.2956 159.928 22.7014C159.919 22.1072 159.936 21.5214 159.877 20.9565C159.836 20.3916 159.79 19.8393 159.752 19.2995C159.689 18.7639 159.597 18.245 159.526 17.7429C158.898 13.7049 157.681 10.7507 156.731 8.86354C156.505 8.38233 156.304 7.9597 156.086 7.62076C155.881 7.27346 155.714 6.98055 155.576 6.74622C155.308 6.28593 155.166 6.05579 155.166 6.05579C155.195 6.106 155.312 6.31104 155.572 6.77132C155.706 7.00565 155.873 7.29856 156.074 7.64587C156.287 7.98481 156.484 8.40743 156.71 8.88864C157.647 10.78 158.852 13.73 159.472 17.7638C159.543 18.2659 159.631 18.7848 159.693 19.3204C159.735 19.856 159.773 20.4084 159.815 20.9733C159.873 21.5382 159.857 22.1198 159.861 22.714C159.861 23.3082 159.882 23.9191 159.823 24.5384C159.718 27.0239 159.287 29.7271 158.421 32.5223C157.559 35.3133 156.25 38.2005 154.341 40.9413C153.396 42.3138 152.295 43.6403 151.09 44.9375C149.877 46.2263 148.559 47.4774 147.165 48.7202C144.387 51.2099 141.294 53.6369 138.265 56.4195C136.759 57.8129 135.256 59.2942 133.901 60.9638C132.545 62.6292 131.31 64.4494 130.289 66.4412C129.273 68.4288 128.465 70.5838 128.063 72.8727C127.67 75.1532 127.67 77.5801 128.344 79.8983C129.013 82.2123 130.298 84.3673 131.967 86.1959C133.637 88.0412 135.683 89.5434 137.8 90.9494C139.93 92.3553 142.173 93.6358 144.395 95.0166C146.617 96.3975 148.822 97.8788 150.801 99.6948C154.772 103.293 158.061 107.875 160.17 113.093C162.313 118.295 163.208 124.149 162.618 129.99C162.062 135.832 160.053 141.656 156.676 146.728L156.764 146.682C135.118 146.682 111.631 146.678 87.2903 146.678C86.6626 146.678 86.035 146.678 85.4533 146.678L85.5496 146.736C84.6541 144.933 83.926 143.041 83.2983 141.137C82.6707 139.229 82.1602 137.288 81.7752 135.329C80.9969 131.417 80.7166 127.421 81.0848 123.504C81.4237 119.588 82.4573 115.759 84.1352 112.269C84.9847 110.532 85.9513 108.855 87.102 107.319C88.215 105.754 89.5122 104.34 90.7926 102.929C93.3744 100.117 96.0525 97.4436 98.81 94.9078C101.555 92.3595 104.421 89.9995 107.137 87.514C108.484 86.267 109.794 84.9656 110.861 83.476C111.945 82.0031 112.694 80.2875 113.033 78.5091C113.196 77.6178 113.296 76.7182 113.305 75.8227C113.326 75.375 113.301 74.9272 113.292 74.4795C113.276 74.0317 113.217 73.5882 113.179 73.1447C113.045 71.3663 112.631 69.6256 112.05 67.9602C110.857 64.6293 108.689 61.763 106.137 59.4825C104.873 58.3234 103.538 57.2648 102.22 56.2145C101.559 55.6872 100.911 55.16 100.279 54.6118C99.6594 54.0595 99.036 53.4862 98.3706 52.9841C97.04 51.9798 95.6884 51.0342 94.3954 50.0299C93.0983 49.034 91.8513 47.9921 90.6797 46.8874C89.5122 45.7827 88.4075 44.6236 87.4116 43.3934C86.4283 42.1548 85.5161 40.8702 84.7378 39.5228C83.1812 36.828 82.1225 33.9115 81.5283 30.9698C80.9509 28.0198 80.8588 25.0405 81.0722 22.1575C81.2773 19.266 81.8631 16.475 82.5744 13.797C83.269 11.1064 84.2482 8.56226 85.219 6.09345L85.1479 6.13948C106.777 6.12274 124.272 6.11019 136.361 6.10182C142.408 6.09345 147.102 6.08508 150.287 6.08089C151.877 6.07671 153.095 6.07253 153.91 6.07253C154.743 6.05997 155.166 6.05579 155.166 6.05579Z" fill="#011727"/>
<path d="M88.0102 25.4244C77.5073 27.1526 94.0693 45.7523 103.442 53.0918C108.87 57.3432 114.698 61.9502 117.276 68.344C120.201 75.5998 118.033 83.7511 119.452 91.0487C119.686 92.2622 121.477 92.0697 121.46 90.8353C121.389 86.0442 121.519 81.2572 122.314 76.5413C123.44 69.8546 126.013 63.239 130.7 58.3349C134.524 54.3346 139.541 51.6733 143.625 47.9366C149.584 42.4759 155.706 35.4335 156.304 27.3702C156.304 27.3702 144.864 18.1561 138.512 19.3193C131.089 20.6793 123.783 32.132 112.284 30.8181C104.246 29.9059 100.191 23.4242 88.0102 25.4244Z" fill="#FF5661"/>
<path d="M87.0767 124.993C87.3403 122.366 88.0433 119.395 90.374 118.156C91.7841 117.407 93.504 117.491 95.0522 117.897C96.6004 118.303 98.0524 119.006 99.5839 119.462C102.601 120.357 105.907 120.252 108.861 119.169C111.71 118.123 114.158 116.231 116.803 114.742C119.447 113.252 122.548 112.147 125.494 112.88C130.574 114.143 133.218 120.261 138.24 121.738C140.47 122.395 142.868 122.027 145.14 121.512C147.408 120.997 149.688 120.336 152.011 120.424C153.831 120.491 155.726 121.123 157.007 122.37L156.994 122.353C157.007 122.366 157.019 122.378 157.032 122.395C157.241 122.604 157.434 122.826 157.609 123.069C159.166 125.144 159.417 127.939 158.936 130.475C158.4 133.316 157.074 135.94 155.651 138.455C153.973 141.417 152.069 144.367 149.299 146.342C145.88 148.778 141.579 147.096 137.394 147.426C127.632 148.196 117.125 148.723 107.363 147.966C102.203 147.564 97.3704 148.125 93.278 144.961C90.3991 142.735 88.5245 139.379 87.6206 135.852C86.7084 132.316 86.7126 128.613 87.0767 124.993Z" fill="#FF5661"/>
<g opacity="0.24">
<g opacity="0.24">
<path opacity="0.24" d="M105.505 119.96C106.057 120.805 106.292 121.935 105.76 122.793C105.229 123.651 104.509 124.429 104.279 125.412C103.915 126.952 104.844 128.463 105.539 129.885C106.777 132.434 107.338 135.338 106.924 138.141C106.505 140.945 105.07 143.619 102.827 145.351C101.835 146.117 100.547 146.711 99.3498 146.334C98.2242 145.983 97.4961 144.841 97.2743 143.681C97.0525 142.522 97.2366 141.33 97.3831 140.162C98.0652 134.731 97.9271 129.199 96.9688 123.81C96.8098 122.91 96.655 121.881 97.2283 121.165C97.5923 120.709 98.174 120.496 98.7305 120.307C100.902 119.583 103.25 120.391 105.505 119.96Z" fill="#011727"/>
</g>
</g>
<path d="M162.007 150.016C162.007 150.016 162.204 146.743 157.936 144.919H82.9301C82.9301 144.919 79.0177 146.898 78.5365 149.944L162.007 150.016Z" fill="#011727"/>
<path d="M84.5159 6.45265C84.5536 6.46939 84.5954 6.49031 84.6331 6.50705L155.166 6.05513C155.166 6.05513 155.417 5.89612 155.789 5.60321C157.802 4.02987 156.672 0.799492 154.124 0.820414L85.6708 1.37276C82.8422 1.39786 81.9634 5.24335 84.5159 6.45265Z" fill="#011727"/>
<g opacity="0.24">
<g opacity="0.24">
<path opacity="0.24" d="M95.8057 33.3546C95.6635 33.6266 96.1949 34.2166 97.2033 35.1121C98.216 36.0117 99.6973 37.2419 101.58 38.7609C103.472 40.2673 105.765 42.0791 108.685 43.7738C110.15 44.6191 111.778 45.3848 113.556 46.0083C114.452 46.3096 115.38 46.5899 116.355 46.7824C117.326 46.9916 118.339 47.1297 119.381 47.1758C121.456 47.2929 123.569 46.9916 125.461 46.3431C127.34 45.6903 128.946 44.7697 130.348 43.8491C131.754 42.916 132.968 41.9954 134.11 41.1167C135.248 40.2338 136.286 39.3844 137.211 38.581C140.914 35.3715 142.864 33.0115 142.487 32.5554C142.098 32.0825 139.474 33.5848 135.39 36.0954C134.369 36.7231 133.252 37.4093 132.051 38.1458C130.854 38.8739 129.566 39.6815 128.252 40.4263C126.934 41.1711 125.557 41.849 124.13 42.2884C122.712 42.711 121.201 42.9118 119.594 42.824C116.381 42.6608 113.263 41.5268 110.564 40.2254C107.849 38.899 105.422 37.3926 103.304 36.2084C101.191 35.0116 99.3792 34.1245 98.0653 33.6517C96.7472 33.1789 95.9438 33.0952 95.8057 33.3546Z" fill="#011727"/>
</g>
</g>
<path d="M121.406 99.7945C120.632 99.5226 119.707 100.301 119.841 101.108C119.979 101.916 121.109 102.351 121.749 101.841C122.389 101.33 122.222 100.133 121.465 99.8196" fill="#FF5661"/>
<path d="M146.629 45.0293C146.633 45.0335 146.721 44.9498 146.88 44.7782C147.048 44.5941 147.278 44.343 147.562 44.0292C147.851 43.6986 148.232 43.3137 148.621 42.8199C149.014 42.3303 149.462 41.7738 149.952 41.1629C150.408 40.5185 150.922 39.828 151.441 39.0581C151.688 38.6648 151.943 38.2589 152.207 37.8404C152.337 37.6312 152.475 37.422 152.6 37.2002C152.722 36.9785 152.843 36.7525 152.969 36.5223C153.998 34.7105 154.914 32.5848 155.567 30.2666C156.22 27.9443 156.525 25.6512 156.555 23.5632C156.555 23.0401 156.53 22.5338 156.517 22.0401C156.504 21.7932 156.509 21.5505 156.484 21.312C156.458 21.0735 156.433 20.8391 156.408 20.609C156.354 20.1487 156.32 19.701 156.258 19.2742C156.182 18.8515 156.107 18.4456 156.036 18.0565C155.914 17.274 155.709 16.5919 155.563 15.9852C155.483 15.6839 155.421 15.3994 155.341 15.1441C155.258 14.8931 155.182 14.6587 155.111 14.4453C154.977 14.0436 154.868 13.7214 154.789 13.4829C154.714 13.2653 154.672 13.1523 154.663 13.1523C154.655 13.1565 154.684 13.2737 154.747 13.4955C154.818 13.7382 154.91 14.0604 155.032 14.4663C155.094 14.6797 155.165 14.914 155.241 15.1651C155.316 15.4203 155.37 15.709 155.446 16.0103C155.584 16.617 155.776 17.3033 155.885 18.0816C155.952 18.4707 156.019 18.8725 156.09 19.2951C156.149 19.7177 156.178 20.1654 156.228 20.6215C156.249 20.8517 156.274 21.086 156.299 21.3203C156.32 21.5589 156.316 21.8015 156.325 22.0442C156.333 22.5338 156.358 23.0401 156.354 23.559C156.316 25.6303 156.007 27.9024 155.358 30.2081C154.709 32.5095 153.806 34.6184 152.793 36.4261C152.672 36.6562 152.55 36.8822 152.429 37.104C152.308 37.3258 152.169 37.5308 152.04 37.7442C151.78 38.1626 151.529 38.5685 151.286 38.9619C150.776 39.7318 150.27 40.4264 149.822 41.0708C149.341 41.6901 148.906 42.2466 148.521 42.7446C148.144 43.2425 147.772 43.6317 147.495 43.9748C147.223 44.3012 147.006 44.5564 146.843 44.7489C146.7 44.9289 146.625 45.0251 146.629 45.0293Z" fill="#011727"/>
<path d="M150.601 107.193C150.605 107.193 150.576 107.142 150.521 107.054C150.458 106.958 150.379 106.828 150.274 106.661C150.161 106.485 150.023 106.272 149.864 106.025C149.781 105.9 149.693 105.766 149.601 105.619C149.496 105.481 149.379 105.343 149.257 105.188C149.011 104.887 148.734 104.552 148.437 104.184C148.115 103.837 147.747 103.477 147.358 103.083C146.563 102.313 145.604 101.493 144.483 100.665C142.261 98.9827 139.395 97.3089 136.29 95.3548C134.75 94.3631 133.127 93.317 131.591 92.0449C130.055 90.7812 128.574 89.325 127.373 87.5885C125.009 84.0736 124.051 80.0021 123.963 76.3617C123.866 72.6961 124.649 69.4281 125.565 66.8254C126.494 64.2143 127.561 62.2225 128.335 60.8835C128.725 60.2098 129.043 59.6993 129.26 59.352C129.365 59.1846 129.444 59.0549 129.507 58.9587C129.561 58.8708 129.587 58.8206 129.587 58.8206C129.582 58.8164 129.549 58.8624 129.49 58.9461C129.423 59.0424 129.335 59.1679 129.227 59.3311C128.997 59.67 128.666 60.1763 128.264 60.8417C127.465 62.1723 126.373 64.1557 125.419 66.7752C124.477 69.3862 123.674 72.671 123.758 76.3701C123.774 77.2906 123.85 78.2363 123.988 79.1903C124.122 80.1486 124.322 81.1152 124.599 82.0818C125.138 84.015 126 85.9398 127.185 87.714C128.398 89.4757 129.896 90.9444 131.444 92.2123C132.993 93.4927 134.62 94.5346 136.169 95.5263C139.286 97.4721 142.152 99.1291 144.378 100.79C145.496 101.61 146.458 102.414 147.257 103.171C147.646 103.56 148.019 103.912 148.341 104.255C148.642 104.615 148.923 104.945 149.174 105.243C149.299 105.393 149.421 105.527 149.525 105.665C149.622 105.807 149.714 105.941 149.797 106.063C149.965 106.305 150.107 106.515 150.224 106.686C150.337 106.845 150.425 106.971 150.492 107.067C150.567 107.151 150.601 107.197 150.601 107.193Z" fill="#011727"/>
<path d="M154.492 114.587C154.484 114.591 154.517 114.658 154.584 114.78C154.664 114.922 154.764 115.098 154.881 115.311C155.015 115.537 155.174 115.822 155.337 116.16C155.5 116.499 155.71 116.872 155.885 117.311C155.977 117.529 156.078 117.755 156.178 117.993C156.279 118.232 156.362 118.487 156.459 118.746C156.664 119.261 156.823 119.834 157.003 120.433C157.325 121.638 157.593 122.985 157.735 124.421C157.86 125.856 157.84 127.232 157.743 128.475C157.672 129.095 157.622 129.689 157.513 130.233C157.463 130.505 157.429 130.772 157.375 131.024C157.316 131.275 157.262 131.513 157.208 131.747C157.116 132.212 156.978 132.618 156.877 132.978C156.781 133.342 156.676 133.647 156.584 133.894C156.505 134.124 156.442 134.317 156.388 134.472C156.346 134.605 156.325 134.677 156.333 134.681C156.341 134.685 156.371 134.618 156.429 134.488C156.492 134.338 156.572 134.149 156.664 133.923C156.768 133.676 156.885 133.375 156.994 133.011C157.107 132.651 157.254 132.245 157.358 131.781C157.417 131.551 157.475 131.308 157.538 131.057C157.601 130.806 157.639 130.538 157.693 130.262C157.81 129.714 157.869 129.115 157.944 128.492C158.053 127.237 158.078 125.847 157.952 124.4C157.81 122.952 157.534 121.592 157.199 120.378C157.011 119.776 156.844 119.203 156.63 118.684C156.526 118.424 156.442 118.169 156.333 117.93C156.224 117.696 156.124 117.466 156.023 117.253C155.835 116.813 155.618 116.441 155.442 116.11C155.27 115.775 155.099 115.499 154.952 115.273C154.818 115.068 154.71 114.897 154.618 114.759C154.542 114.642 154.5 114.583 154.492 114.587Z" fill="#011727"/>
<path d="M102.76 124.643C102.76 124.647 102.785 124.668 102.844 124.705C102.915 124.747 102.999 124.802 103.103 124.869C103.35 125.019 103.689 125.22 104.12 125.479C104.342 125.613 104.589 125.756 104.857 125.915C105.133 126.065 105.438 126.208 105.765 126.375C106.421 126.693 107.154 127.099 108.016 127.421C108.443 127.597 108.89 127.781 109.355 127.969C109.819 128.157 110.326 128.3 110.836 128.48C111.853 128.852 112.983 129.116 114.158 129.425C116.535 129.953 119.192 130.342 122.004 130.434C124.816 130.492 127.494 130.241 129.896 129.84C131.089 129.593 132.227 129.388 133.265 129.07C133.783 128.919 134.294 128.802 134.771 128.639C135.244 128.471 135.7 128.312 136.135 128.162C137.014 127.881 137.763 127.517 138.437 127.233C138.771 127.086 139.085 126.957 139.37 126.823C139.646 126.676 139.897 126.546 140.127 126.425C140.571 126.191 140.918 126.003 141.173 125.869C141.282 125.81 141.37 125.76 141.441 125.718C141.5 125.685 141.529 125.664 141.529 125.659C141.529 125.655 141.495 125.668 141.428 125.697C141.353 125.731 141.261 125.777 141.148 125.827C140.889 125.952 140.533 126.128 140.085 126.346C139.855 126.459 139.6 126.588 139.319 126.726C139.035 126.856 138.717 126.977 138.382 127.12C137.704 127.392 136.955 127.743 136.077 128.015C135.641 128.162 135.189 128.316 134.712 128.48C134.24 128.639 133.729 128.752 133.21 128.898C132.177 129.208 131.043 129.404 129.854 129.643C127.465 130.032 124.804 130.275 122.004 130.22C119.209 130.133 116.565 129.752 114.196 129.237C113.025 128.936 111.899 128.681 110.882 128.317C110.372 128.145 109.869 128.003 109.405 127.823C108.941 127.639 108.493 127.459 108.07 127.291C107.208 126.977 106.476 126.584 105.815 126.279C105.488 126.12 105.179 125.982 104.903 125.835C104.631 125.685 104.384 125.542 104.158 125.417C103.723 125.174 103.375 124.982 103.124 124.843C103.015 124.785 102.923 124.739 102.852 124.697C102.794 124.655 102.76 124.643 102.76 124.643Z" fill="#011727"/>
<path d="M98.3961 36.083C98.3919 36.0872 98.4254 36.1123 98.484 36.1667C98.5551 36.2253 98.6472 36.3006 98.7602 36.3927C99.0154 36.5977 99.3753 36.8822 99.8272 37.2463C100.76 37.9827 102.104 39.0498 103.807 40.3218C105.51 41.5855 107.577 43.0584 110.029 44.4351C111.267 45.0963 112.59 45.7741 114.037 46.2805C115.481 46.7909 117.038 47.1801 118.665 47.3098C121.934 47.5316 125.034 46.7031 127.553 45.4603C128.813 44.8285 129.951 44.1213 130.989 43.4183C132.01 42.6986 132.943 41.9998 133.767 41.3303C135.424 39.9996 136.721 38.874 137.625 38.1041C138.064 37.7233 138.412 37.4262 138.659 37.2086C138.767 37.1124 138.855 37.0329 138.922 36.9701C138.981 36.9157 139.01 36.8864 139.006 36.8822C139.002 36.878 138.968 36.9032 138.906 36.9534C138.834 37.012 138.742 37.0831 138.625 37.1751C138.37 37.3802 138.014 37.6689 137.567 38.0371C136.646 38.7903 135.336 39.895 133.671 41.2089C132.842 41.8701 131.905 42.5563 130.884 43.2677C129.85 43.9581 128.716 44.6569 127.465 45.2804C124.963 46.5022 121.904 47.3098 118.678 47.0922C117.075 46.9667 115.54 46.5817 114.109 46.0796C112.673 45.5817 111.359 44.9121 110.125 44.2594C107.677 42.8994 105.61 41.4433 103.894 40.1963C102.183 38.941 100.823 37.8949 99.8774 37.1793C99.4129 36.832 99.0447 36.5558 98.7853 36.3592C98.6681 36.2713 98.5719 36.2044 98.4965 36.15C98.4338 36.1039 98.3961 36.083 98.3961 36.083Z" fill="#011727"/>
<g opacity="0.24">
<g opacity="0.24">
<path opacity="0.24" d="M136.135 128.156C134.152 126.624 131.365 126.996 128.917 127.511C126.465 128.026 123.996 128.863 121.515 128.515C119.644 128.252 117.929 127.335 116.083 126.934C114.238 126.532 111.999 126.829 110.978 128.415C119.092 131.06 128.072 130.967 136.135 128.156Z" fill="#011727"/>
</g>
</g>
<path d="M53.6075 109.273L65.2077 96.2884L65.3262 112.073L61.8364 122.198L96.5292 128.213L97.9994 100.839L100.498 79.8145C100.805 77.2402 99.335 74.7791 96.9223 73.8313L87.374 70.0723L73.9267 72.5388L68.5197 74.596C66.2471 75.4577 64.2222 76.8686 62.6227 78.6943L46.3372 97.317" fill="#FF2D3B"/>
<path d="M66.0155 93.1797C66.0101 93.1259 65.2508 93.239 64.0552 93.0397C62.8704 92.8566 61.2333 92.275 59.8761 91.0256C58.519 89.7708 57.8135 88.1875 57.5335 87.0242C57.2427 85.8502 57.2911 85.0801 57.2373 85.0801C57.2211 85.0801 57.1942 85.2686 57.1888 85.6132C57.1834 85.9579 57.2158 86.4587 57.3396 87.0673C57.5766 88.2736 58.2767 89.9269 59.6877 91.2302C61.0986 92.5281 62.8058 93.0936 64.0283 93.2336C64.6422 93.309 65.1431 93.3036 65.4877 93.2659C65.8324 93.239 66.0209 93.1959 66.0155 93.1797Z" fill="white"/>
<path d="M65.0034 111.4C64.9226 111.4 64.9011 105.928 64.9549 99.1858C65.0088 92.4379 65.1219 86.9717 65.2027 86.9717C65.2834 86.9717 65.305 92.4379 65.2511 99.1858C65.1919 105.934 65.0842 111.4 65.0034 111.4Z" fill="#011727"/>
<path d="M66.2741 115.413L87.2395 106.974C88.9305 106.296 90.0883 104.712 90.2284 102.898L91.7632 82.7992C91.7632 82.7992 91.5801 74.2526 96.9224 73.8379L99.9598 75.0335C103.886 77.1176 104.861 82.8315 104.322 87.2476C103.563 93.5162 103.245 102.391 102.394 107.831C101.699 112.284 99.1466 116.2 94.7898 117.347L68.9722 122.937L66.2741 115.413Z" fill="#FF2D3B"/>
<path d="M91.4565 85.8633C91.4458 85.8633 91.4242 86.0195 91.3919 86.321C91.3596 86.6495 91.3111 87.0912 91.2573 87.6458C91.1496 88.8253 90.9988 90.484 90.8157 92.5196C90.6379 94.5876 90.4279 97.0326 90.1963 99.7522C90.1371 100.431 90.0779 101.131 90.0186 101.842C89.954 102.553 89.9109 103.285 89.7494 103.991C89.5932 104.701 89.2539 105.369 88.71 105.875C88.166 106.382 87.4875 106.759 86.7766 107.076C80.9981 109.575 75.6665 111.643 71.7998 113.092C69.8826 113.797 68.3208 114.374 67.206 114.783C66.6837 114.977 66.269 115.128 65.9566 115.241C65.6712 115.348 65.5258 115.408 65.5258 115.418C65.5312 115.429 65.682 115.386 65.9728 115.295C66.2851 115.192 66.7052 115.058 67.2384 114.885C68.337 114.519 69.9149 113.975 71.8644 113.275C75.7527 111.875 81.0896 109.839 86.8897 107.33C87.6113 107.001 88.3168 106.619 88.8985 106.075C89.4855 105.536 89.8624 104.793 90.0186 104.05C90.1856 103.307 90.2233 102.569 90.2879 101.858C90.3471 101.147 90.401 100.447 90.4548 99.7684C90.6649 97.0488 90.8534 94.5984 91.0149 92.5304C91.1657 90.4893 91.2842 88.8306 91.3704 87.6512C91.4027 87.0965 91.4296 86.6495 91.4511 86.321C91.4619 86.0248 91.4673 85.8633 91.4565 85.8633Z" fill="#011727"/>
<path d="M103.466 96.791C103.455 96.791 103.445 96.8826 103.423 97.0603C103.407 97.2703 103.38 97.5234 103.353 97.8358C103.288 98.552 103.208 99.516 103.105 100.69C102.992 101.891 102.847 103.324 102.637 104.907C102.421 106.485 102.168 108.23 101.689 109.996C101.463 110.89 101.145 111.714 100.666 112.425C100.186 113.141 99.6533 113.782 99.0986 114.347C97.9892 115.478 96.8044 116.313 95.7434 116.862C93.6001 117.977 92.0383 117.993 92.0598 118.069C92.0598 118.08 92.1568 118.074 92.3345 118.063C92.5122 118.053 92.7761 118.031 93.11 117.961C93.7778 117.843 94.7418 117.579 95.835 117.04C96.9282 116.502 98.1453 115.672 99.2817 114.531C99.8471 113.954 100.396 113.308 100.892 112.581C101.393 111.849 101.732 110.971 101.958 110.077C102.443 108.283 102.691 106.533 102.89 104.945C103.084 103.356 103.213 101.918 103.299 100.712C103.385 99.5053 103.434 98.5251 103.461 97.8519C103.466 97.5396 103.472 97.2811 103.477 97.0711C103.482 96.8826 103.477 96.791 103.466 96.791Z" fill="#011727"/>
<path d="M94.5042 110.851C94.5311 110.846 94.4449 110.393 94.1218 109.736C93.8041 109.079 93.2171 108.223 92.3608 107.491C91.5045 106.758 90.5674 106.311 89.8673 106.101C89.1618 105.886 88.7095 105.87 88.7041 105.897C88.6933 105.945 89.1349 106.031 89.8027 106.284C90.4705 106.537 91.3537 106.995 92.1777 107.695C93.0016 108.401 93.594 109.203 93.9441 109.823C94.3049 110.447 94.4611 110.867 94.5042 110.851Z" fill="#011727"/>
<path d="M90.3794 95.5674C90.3794 95.562 90.3309 95.5835 90.2448 95.6266C90.1478 95.6805 90.024 95.7451 89.8678 95.8259C89.5339 95.9821 89.0384 96.2352 88.3706 96.4614C87.0512 96.9191 84.9886 97.3823 82.4952 96.9622C80.034 96.5583 77.1744 95.1096 75.1925 92.4223C74.2124 91.0975 73.4531 89.4603 73.2807 87.6724C73.1946 86.7838 73.2646 85.8575 73.5608 84.9851C73.8462 84.1126 74.374 83.3102 75.0741 82.6747C75.7688 82.0392 76.6304 81.5923 77.5352 81.4792C78.4292 81.3391 79.3824 81.5761 80.0017 82.1739C80.3033 82.4755 80.4864 82.874 80.481 83.2887C80.481 83.7033 80.3248 84.1072 80.0771 84.4411C79.5817 85.1197 78.7415 85.4374 77.9445 85.5559C76.3127 85.7821 74.7079 85.4859 73.3615 84.8989C72.0098 84.3119 70.9058 83.4341 70.1141 82.4701C69.3171 81.5007 68.827 80.4505 68.5362 79.5027C68.24 78.5495 68.1538 77.6825 68.1377 76.9823C68.1269 76.2769 68.2023 75.7329 68.2561 75.3667C68.2884 75.1998 68.31 75.0598 68.3315 74.952C68.3477 74.8605 68.3531 74.8066 68.3477 74.8066C68.3477 74.8066 68.0515 75.5552 68.0246 76.9823C68.0246 77.6932 68.0946 78.571 68.38 79.5512C68.6654 80.5206 69.1501 81.5976 69.9579 82.5993C70.7603 83.5956 71.8859 84.5004 73.2646 85.1143C74.6432 85.7229 76.2858 86.0352 77.9768 85.8144C78.8115 85.6959 79.7217 85.3674 80.2871 84.6081C80.5618 84.2419 80.7503 83.7787 80.7503 83.294C80.7557 82.8094 80.5349 82.3301 80.1902 81.9854C79.4901 81.3068 78.4507 81.0645 77.4921 81.2099C76.5227 81.3338 75.6072 81.8077 74.8802 82.4755C74.1478 83.1433 73.5931 83.9888 73.2915 84.9043C72.9845 85.8198 72.9091 86.7838 73.0007 87.7047C73.1838 89.5573 73.9701 91.2321 74.9771 92.5839C77.0128 95.3197 79.9479 96.7791 82.4575 97.1615C84.9994 97.5654 87.0835 97.0591 88.4029 96.5691C89.7493 96.0521 90.3794 95.5674 90.3794 95.5674Z" fill="white"/>
<path d="M104.112 90.2035C104.123 90.1927 104.01 90.0365 103.767 89.7727C103.525 89.5142 103.153 89.1587 102.636 88.7871C101.619 88.0224 99.933 87.3277 97.9997 87.1446C97.0303 87.0422 96.0932 87.0853 95.2639 87.2577C94.4345 87.43 93.7236 87.71 93.1582 87.9955C92.5927 88.2809 92.1619 88.5663 91.8764 88.7763C91.591 88.9864 91.4456 89.1156 91.4564 89.1318C91.4833 89.1749 92.1134 88.701 93.2443 88.1786C94.3645 87.6454 96.0771 87.1984 97.9673 87.4246C99.863 87.6023 101.5 88.2486 102.523 88.9541C103.563 89.6434 104.074 90.2466 104.112 90.2035Z" fill="white"/>
<path d="M100.757 75.8354C100.714 75.7869 100.218 76.4763 99.0604 77.0686C98.4895 77.3648 97.7464 77.6126 96.9008 77.7041C96.0553 77.7957 95.1021 77.6987 94.1974 77.3325C93.298 76.9502 92.5548 76.347 92.0217 75.6846C91.4831 75.0222 91.1385 74.3275 90.9392 73.7082C90.5407 72.4695 90.6753 71.6348 90.6107 71.6348C90.5945 71.6348 90.5514 71.834 90.5407 72.2056C90.5245 72.5772 90.5676 73.1211 90.7507 73.762C90.9284 74.4029 91.2677 75.1407 91.817 75.8408C92.3609 76.5355 93.1364 77.1817 94.0897 77.5856C95.0483 77.9734 96.0499 78.0649 96.9278 77.9572C97.811 77.8495 98.5703 77.5695 99.1519 77.241C99.7336 76.9125 100.148 76.557 100.401 76.2878C100.66 76.0185 100.773 75.8462 100.757 75.8354Z" fill="white"/>
<path d="M82.4894 108.885C82.5002 108.885 82.484 108.75 82.4463 108.487C82.3871 108.233 82.3063 107.851 82.0747 107.404C81.6493 106.499 80.5991 105.368 78.935 104.679C77.2979 103.941 75.0414 103.801 72.7741 104.458C71.6647 104.787 70.3938 105.196 69.5644 106.278C69.1551 106.812 69.0205 107.603 69.3275 108.25C69.6237 108.901 70.2053 109.348 70.8192 109.661C71.4439 109.968 72.1225 110.14 72.8064 110.151C73.4796 110.161 74.1851 109.994 74.7129 109.558C75.246 109.127 75.5261 108.465 75.5638 107.829C75.6122 107.189 75.483 106.575 75.2783 106.015C74.3844 103.774 72.5803 102.347 70.9592 101.642C69.3113 100.92 67.8195 100.845 66.834 100.931C65.8431 101.033 65.3261 101.249 65.3261 101.249C65.3369 101.286 65.8593 101.109 66.8394 101.039C67.8142 100.985 69.2736 101.092 70.8731 101.819C71.6701 102.18 72.4887 102.703 73.2265 103.413C73.9589 104.124 74.6213 105.029 75.036 106.095C75.2299 106.629 75.3483 107.216 75.2999 107.803C75.2568 108.384 75.0091 108.96 74.5405 109.337C74.0774 109.72 73.4419 109.876 72.8118 109.86C72.1763 109.849 71.5355 109.682 70.9485 109.397C70.3722 109.106 69.8391 108.686 69.586 108.126C69.3221 107.571 69.4298 106.909 69.7906 106.429C70.146 105.939 70.663 105.589 71.1908 105.315C71.724 105.045 72.2948 104.862 72.8495 104.695C75.0737 104.038 77.2602 104.157 78.865 104.851C80.4968 105.503 81.5416 106.575 81.9832 107.442C82.4409 108.32 82.4517 108.896 82.4894 108.885Z" fill="white"/>
<path d="M96.4486 116.452C96.4594 116.398 95.6516 116.333 94.4399 115.897C93.2335 115.477 91.6341 114.61 90.32 113.161C89.006 111.707 88.3113 110.027 88.0097 108.783C87.7027 107.533 87.7135 106.726 87.6596 106.726C87.6435 106.726 87.6219 106.925 87.6273 107.291C87.6327 107.657 87.6812 108.185 87.8104 108.826C88.0635 110.102 88.7529 111.847 90.1046 113.344C91.4564 114.841 93.1258 115.703 94.3699 116.08C94.9946 116.274 95.517 116.376 95.8778 116.419C96.244 116.468 96.4486 116.468 96.4486 116.452Z" fill="white"/>
<path d="M103.245 100.828C103.245 100.817 103.158 100.785 102.992 100.726C102.825 100.672 102.571 100.591 102.243 100.51C101.591 100.354 100.611 100.133 99.3887 100.22C98.7801 100.268 98.1123 100.408 97.4499 100.699C96.7875 100.99 96.1305 101.453 95.6404 102.121C95.1611 102.788 94.8649 103.655 94.9349 104.566C94.9673 105.018 95.1073 105.47 95.3496 105.874C95.5973 106.273 95.9636 106.634 96.4482 106.795C96.9275 106.946 97.4876 106.87 97.8646 106.515C98.2362 106.154 98.3278 105.648 98.3547 105.206C98.387 104.312 98.1931 103.456 97.8592 102.713C97.1914 101.21 95.9528 100.225 94.8003 99.8102C93.6424 99.3794 92.6138 99.4117 91.9514 99.5302C91.6175 99.5894 91.359 99.6648 91.1921 99.7241C91.0251 99.7887 90.939 99.8264 90.9444 99.8318C90.9551 99.8587 91.3052 99.7187 91.9676 99.6379C92.6246 99.5571 93.6209 99.5625 94.7303 99.9987C95.8289 100.419 96.9976 101.377 97.6223 102.821C97.9346 103.532 98.1123 104.35 98.08 105.196C98.0585 105.605 97.9615 106.041 97.6761 106.316C97.3907 106.585 96.9329 106.655 96.5344 106.531C96.1359 106.402 95.8074 106.09 95.5866 105.734C95.3658 105.373 95.2419 104.959 95.2042 104.544C95.1342 103.715 95.4035 102.896 95.8451 102.271C96.2975 101.647 96.9168 101.2 97.5415 100.909C98.1716 100.618 98.8124 100.473 99.4048 100.413C100.595 100.306 101.564 100.489 102.221 100.613C102.873 100.753 103.234 100.85 103.245 100.828Z" fill="white"/>
<g opacity="0.3">
<g opacity="0.3">
<path opacity="0.3" d="M72.2946 113.016C74.535 111.751 76.7268 110.776 79.0749 109.71C81.4175 108.643 83.7171 107.275 85.2466 105.207C88.1385 101.308 87.81 95.6806 90.772 91.8301C90.5781 94.4151 90.3842 97.0055 90.1904 99.5905C90.0126 101.96 90.3789 104.308 88.8494 105.918C87.5623 107.275 85.0527 108.315 83.2755 108.902C79.7104 110.092 75.8652 111.837 72.2946 113.016Z" fill="#011727"/>
</g>
</g>
<path d="M35.8731 142.554C35.8731 142.554 18.3328 147.406 17.6273 147.654C16.5718 148.025 16.7495 151.897 18.392 151.838C19.1675 151.811 31.8663 152.312 33.4712 152.21C35.076 152.107 39.9121 150.201 39.9121 150.201L35.8731 142.554Z" fill="#FF2D3B"/>
<path d="M28.5654 149.248C28.4793 149.259 28.3608 148.333 27.7899 147.363C27.2352 146.389 26.4974 145.818 26.5513 145.748C26.5836 145.678 27.4507 146.173 28.0484 147.218C28.6516 148.252 28.6408 149.254 28.5654 149.248Z" fill="#011727"/>
<path d="M30.3963 148.419C30.3101 148.435 30.1324 147.606 29.6639 146.69C29.2061 145.769 28.646 145.134 28.7107 145.074C28.7591 145.015 29.4431 145.591 29.9278 146.561C30.4178 147.519 30.4663 148.413 30.3963 148.419Z" fill="#011727"/>
<path d="M32.1091 147.961C32.0229 147.956 32.0876 147.078 31.6998 146.109C31.3282 145.129 30.682 144.531 30.7466 144.466C30.7843 144.402 31.5706 144.94 31.9745 146.001C32.3892 147.051 32.1791 147.983 32.1091 147.961Z" fill="#011727"/>
<path d="M31.7962 145.694C31.7639 145.699 31.6077 145.215 31.6077 144.391C31.6077 143.981 31.6562 143.491 31.7854 142.958C31.85 142.694 31.9362 142.42 32.0439 142.145C32.1032 142.005 32.1678 141.843 32.3239 141.714C32.4855 141.569 32.7871 141.596 32.9271 141.746C33.0887 141.887 33.1372 142.086 33.1587 142.242C33.1749 142.404 33.1856 142.554 33.1802 142.705C33.1749 143.007 33.1372 143.297 33.0725 143.561C32.9433 144.095 32.7332 144.547 32.534 144.902C32.1247 145.613 31.7693 145.979 31.7477 145.958C31.71 145.931 32.0008 145.522 32.3509 144.805C32.5232 144.45 32.7009 144.008 32.8086 143.502C32.8625 143.249 32.8948 142.98 32.8948 142.7C32.8894 142.43 32.8894 142.091 32.7332 141.962C32.6471 141.892 32.5717 141.887 32.5017 141.94C32.4263 142 32.3616 142.118 32.3078 142.247C32.2001 142.511 32.1085 142.77 32.0439 143.023C31.9039 143.529 31.8393 143.998 31.8123 144.391C31.7639 145.188 31.8447 145.689 31.7962 145.694Z" fill="#011727"/>
<path d="M31.8179 145.517C31.8072 145.485 32.2326 145.339 32.9489 145.334C33.3043 145.334 33.7351 145.372 34.1929 145.485C34.4191 145.544 34.6668 145.603 34.9092 145.749C35.1515 145.873 35.3992 146.206 35.3077 146.551C35.2323 146.88 34.9522 147.106 34.6776 147.176C34.3975 147.251 34.1283 147.224 33.8913 147.176C33.412 147.063 33.035 146.826 32.7496 146.616C32.1895 146.174 31.9149 145.835 31.9364 145.813C31.9687 145.776 32.2972 146.066 32.8735 146.443C33.1589 146.626 33.5197 146.826 33.9506 146.907C34.166 146.95 34.3922 146.96 34.6022 146.896C34.8068 146.837 34.9792 146.68 35.0276 146.481C35.0761 146.287 34.9576 146.104 34.7691 145.991C34.5806 145.873 34.3491 145.808 34.1337 145.743C33.6974 145.619 33.2935 145.56 32.9543 145.539C32.2595 145.49 31.8287 145.56 31.8179 145.517Z" fill="#011727"/>
<path d="M25.8672 149.437C25.7811 149.426 25.8673 148.677 25.5226 147.854C25.1941 147.024 24.6071 146.55 24.6663 146.48C24.6932 146.41 25.431 146.825 25.7972 147.74C26.1742 148.656 25.9426 149.464 25.8672 149.437Z" fill="#011727"/>
<path d="M38.1083 150.246C38.1137 150.262 37.8767 150.375 37.4297 150.564C36.9774 150.736 36.3204 150.973 35.4802 151.167C33.8054 151.592 31.4089 151.829 28.7862 151.802C26.1581 151.775 23.7885 151.651 22.0706 151.587C21.2574 151.544 20.5788 151.506 20.0403 151.479C19.561 151.447 19.2971 151.42 19.2971 151.398C19.2971 151.377 19.5663 151.366 20.0456 151.366C20.5842 151.371 21.2681 151.377 22.0813 151.382C23.8585 151.414 26.2012 151.463 28.7915 151.511C31.4089 151.538 33.7677 151.334 35.4425 150.967C37.112 150.623 38.0868 150.192 38.1083 150.246Z" fill="#011727"/>
<path d="M38.6252 150.643C38.6037 150.686 38.119 150.401 37.3112 150.045C36.5088 149.701 35.3078 149.291 33.9938 149.496C32.6743 149.701 31.7373 150.584 31.1234 151.203C30.5094 151.844 30.1486 152.264 30.1109 152.237C30.084 152.216 30.3856 151.747 30.9672 151.063C31.2634 150.724 31.6404 150.331 32.1304 149.975C32.6151 149.62 33.2398 149.313 33.9399 149.205C35.3563 148.99 36.6003 149.464 37.392 149.857C38.2052 150.272 38.6468 150.616 38.6252 150.643Z" fill="#011727"/>
<path d="M54.491 137.714C54.491 137.714 71.0888 148.582 71.6866 149.029C72.5806 149.702 71.5573 152.922 70.0063 152.362C69.2739 152.098 55.3472 148.226 53.8501 147.639C52.353 147.058 48.3193 143.772 48.3193 143.772L54.491 137.714Z" fill="#FF2D3B"/>
<path d="M59.4185 146.308C59.3431 146.292 59.6393 145.334 60.5279 144.531C61.4111 143.718 62.3912 143.513 62.3966 143.589C62.4289 143.67 61.5457 143.987 60.7271 144.752C59.8924 145.501 59.4993 146.346 59.4185 146.308Z" fill="#011727"/>
<path d="M57.9268 144.963C57.8567 144.936 58.1799 144.101 58.9392 143.331C59.6932 142.556 60.5225 142.216 60.5494 142.286C60.5925 142.362 59.8655 142.798 59.1493 143.536C58.4276 144.268 58.0075 145.006 57.9268 144.963Z" fill="#011727"/>
<path d="M56.4348 144.003C56.3594 144.003 56.4402 143.056 57.1618 142.178C57.8727 141.294 58.7828 141.014 58.799 141.09C58.8367 141.171 58.045 141.542 57.3934 142.361C56.7202 143.169 56.521 144.025 56.4348 144.003Z" fill="#011727"/>
<path d="M57.4201 141.94C57.377 141.918 57.6032 141.471 57.7971 140.696C57.894 140.308 57.9694 139.845 57.9909 139.323C58.0017 139.064 57.9963 138.79 57.9748 138.504C57.964 138.369 57.9425 138.235 57.8832 138.154C57.8294 138.079 57.7594 138.063 57.6571 138.1C57.4686 138.176 57.3662 138.499 57.2801 138.752C57.1939 139.016 57.1401 139.285 57.1185 139.544C57.0647 140.061 57.1077 140.534 57.1616 140.928C57.2801 141.714 57.4362 142.193 57.3878 142.209C57.3555 142.22 57.1293 141.768 56.957 140.965C56.8708 140.567 56.8115 140.071 56.8492 139.522C56.8708 139.247 56.9193 138.962 57.0054 138.671C57.0485 138.526 57.1024 138.386 57.167 138.235C57.237 138.089 57.3447 137.917 57.5386 137.831C57.7163 137.734 58.0125 137.793 58.1202 137.987C58.2333 138.159 58.2441 138.332 58.2548 138.483C58.2764 138.779 58.2764 139.064 58.2548 139.339C58.2171 139.883 58.1148 140.362 57.9909 140.755C57.7432 141.536 57.447 141.956 57.4201 141.94Z" fill="#011727"/>
<path d="M57.4526 141.763C57.4311 141.806 57.0433 141.607 56.3755 141.446C56.0416 141.365 55.6377 141.295 55.1854 141.284C54.9592 141.279 54.7168 141.273 54.5014 141.327C54.286 141.376 54.1137 141.51 54.1029 141.715C54.0867 141.925 54.2052 142.124 54.3829 142.243C54.5607 142.366 54.7868 142.42 55.0023 142.447C55.4385 142.496 55.837 142.42 56.1709 142.329C56.8333 142.14 57.2372 141.963 57.2533 142.011C57.2641 142.043 56.9033 142.28 56.2301 142.528C55.8962 142.646 55.4654 142.754 54.9753 142.716C54.733 142.695 54.4691 142.641 54.2268 142.48C53.9844 142.329 53.7851 142.027 53.8175 141.693C53.8336 141.332 54.1729 141.095 54.4368 141.052C54.7168 140.988 54.9646 141.009 55.2015 141.02C55.6754 141.052 56.0955 141.144 56.4348 141.252C57.1079 141.467 57.4688 141.736 57.4526 141.763Z" fill="#011727"/>
<path d="M67.8898 151.758C67.8683 151.785 67.6098 151.591 67.4859 151.117C67.3459 150.654 67.4321 149.937 67.7983 149.318C67.9706 149 68.1699 148.731 68.353 148.489C68.5361 148.246 68.7246 148.031 68.9185 147.885C69.1123 147.735 69.3116 147.67 69.4462 147.665C69.5862 147.659 69.6562 147.692 69.6562 147.708C69.6562 147.751 69.3601 147.729 69.0531 148.042C68.8969 148.192 68.7407 148.397 68.5738 148.645C68.4015 148.893 68.2183 149.162 68.0568 149.453C67.7229 150.04 67.6206 150.643 67.6906 151.074C67.7444 151.499 67.9275 151.731 67.8898 151.758Z" fill="#011727"/>
<path d="M61.928 147.306C61.8526 147.312 61.8742 146.472 62.5151 145.718C63.1452 144.953 63.9691 144.781 63.9745 144.856C64.0068 144.937 63.3067 145.211 62.7412 145.901C62.1596 146.585 62.0142 147.323 61.928 147.306Z" fill="#011727"/>
<path d="M50.0214 144.358C50.0375 144.342 50.2906 144.531 50.7484 144.859C51.2169 145.182 51.9009 145.635 52.7948 146.114C53.6888 146.593 54.7874 147.089 56.0476 147.563C57.3024 148.031 58.7134 148.473 60.2052 148.904C63.1887 149.765 65.8922 150.552 67.8471 151.139C68.7841 151.424 69.5596 151.666 70.152 151.849C70.6959 152.022 70.9921 152.13 70.9867 152.146C70.9814 152.167 70.6744 152.097 70.1197 151.957C69.5165 151.796 68.7356 151.591 67.7878 151.338C65.8221 150.805 63.1133 150.051 60.1244 149.189C58.6326 148.758 57.2163 148.306 55.9561 147.816C54.6959 147.326 53.5919 146.803 52.7033 146.297C51.8147 145.791 51.1361 145.306 50.6891 144.951C50.2422 144.59 50.0106 144.375 50.0214 144.358Z" fill="#011727"/>
<path d="M49.4065 144.585C49.3957 144.553 49.9235 144.359 50.8121 144.214C51.6899 144.074 53.0201 144.004 54.3018 144.639C54.9373 144.951 55.4382 145.436 55.7936 145.921C56.1544 146.411 56.3914 146.896 56.5691 147.31C56.9191 148.14 57.0645 148.678 57.0322 148.689C56.9892 148.705 56.7737 148.193 56.3806 147.396C55.9875 146.626 55.3628 145.495 54.1672 144.898C52.9717 144.305 51.7061 144.332 50.839 144.413C49.9612 144.51 49.4173 144.628 49.4065 144.585Z" fill="#011727"/>
<path d="M19.9976 111.205C19.9976 111.205 15.0161 112.983 14.9999 118.567C14.9622 129.263 36.6061 141.051 36.6061 141.051L65.4127 121.96L67.2168 121.228C67.2222 121.233 28.3288 106.622 19.9976 111.205Z" fill="#011727"/>
<path d="M50.8229 131.606C50.8121 131.622 50.5429 131.439 50.0743 131.099C49.6004 130.755 48.9272 130.249 48.1033 129.613C46.4553 128.337 44.2096 126.533 41.797 124.459C39.3843 122.386 37.2571 120.442 35.7491 119.004C34.9952 118.288 34.392 117.695 33.9827 117.28C33.5734 116.866 33.3526 116.629 33.3688 116.618C33.3849 116.602 33.6273 116.812 34.0635 117.2C34.532 117.625 35.1514 118.18 35.8945 118.853C37.4402 120.248 39.5836 122.17 41.9962 124.238C44.4089 126.306 46.6277 128.137 48.2433 129.451C49.0188 130.087 49.665 130.609 50.1551 131.013C50.5913 131.379 50.8337 131.589 50.8229 131.606Z" fill="#455A64"/>
<path d="M28.1294 115.207C28.1187 115.137 29.4058 115.008 30.9029 115.46C32.4108 115.896 33.4179 116.704 33.3694 116.758C33.3209 116.833 32.2708 116.166 30.8167 115.746C29.3735 115.304 28.1294 115.293 28.1294 115.207Z" fill="#455A64"/>
<path d="M30.6123 113.522C30.6392 113.452 31.5601 113.862 32.3194 114.809C33.0842 115.752 33.2888 116.737 33.2134 116.748C33.1273 116.775 32.8149 115.881 32.0879 114.993C31.377 114.093 30.5638 113.598 30.6123 113.522Z" fill="#455A64"/>
<path d="M18.4141 147.385C18.3979 147.352 18.7588 147.282 19.1573 147.611C19.5504 147.923 19.8843 148.553 19.992 149.28C20.0997 150.018 19.9382 150.697 19.7281 151.122C19.5235 151.558 19.3027 151.763 19.2758 151.747C19.2381 151.72 19.3942 151.478 19.5343 151.047C19.6797 150.621 19.7982 149.997 19.7012 149.323C19.6043 148.65 19.3296 148.069 19.0173 147.762C18.7103 147.444 18.4087 147.428 18.4141 147.385Z" fill="#011727"/>
<path d="M26.6217 93.7354L36.8863 119.747L81.0681 120.469L81.8813 118.077L66.3983 117.517L58.9557 94.4408L26.6217 93.7354Z" fill="#455A64"/>
<path d="M47.2579 104.997C46.6925 104.614 45.6423 104.765 45.1307 105.223C44.6191 105.681 44.4575 106.472 44.716 107.108C44.9745 107.743 45.6262 108.185 46.3101 108.223C47.0371 108.26 47.7965 107.808 47.9957 107.108C48.2004 106.408 47.9742 105.368 47.2579 104.997Z" fill="#EBEBEB"/>
<path d="M33.881 142.349C33.881 142.349 74.5839 115.649 76.2534 115.094C77.9175 114.539 81.9458 111.9 85.9741 113.01C90.0024 114.119 93.6106 117.733 95.4201 123.01C96.4541 126.026 96.9388 131.169 97.1649 135.031C97.4396 139.646 96.0125 144.245 92.9912 147.746C91.618 149.34 89.927 150.724 87.9182 151.348C87.4927 151.478 87.0565 151.596 86.6042 151.693C78.9084 153.363 70.9972 149.905 66.6782 143.324L65.7303 141.881C65.7303 141.881 39.1049 151.661 38.6848 151.526L33.881 142.349Z" fill="#011727"/>
<path d="M84.2349 135.004C84.2349 135.004 84.1595 135.041 84.0141 135.101C83.8525 135.165 83.6317 135.251 83.3463 135.364C82.7431 135.596 81.8814 135.93 80.7667 136.355C78.5048 137.206 75.2358 138.44 71.1753 139.969C67.1039 141.488 62.2193 143.297 56.7477 145.29C51.2708 147.282 45.2068 149.463 38.7228 151.661L38.6043 151.698L38.5451 151.585C37.5272 149.641 36.4555 147.595 35.3677 145.511C34.813 144.45 34.2637 143.394 33.7467 142.414L33.6821 142.296L33.7951 142.225C46.02 134.465 56.9524 127.523 64.842 122.515C68.7841 120.027 71.9615 118.023 74.1695 116.634C75.2628 115.95 76.1137 115.422 76.7007 115.051C76.9807 114.878 77.2015 114.744 77.3631 114.647C77.5139 114.555 77.5947 114.518 77.5947 114.518C77.5947 114.518 77.5246 114.571 77.3792 114.674C77.2231 114.776 77.0077 114.921 76.733 115.105C76.1514 115.482 75.3113 116.031 74.2288 116.731C72.0315 118.142 68.8703 120.172 64.9497 122.693C57.0709 127.723 46.1547 134.691 33.9513 142.479L33.9998 142.29C34.5168 143.276 35.0661 144.326 35.6208 145.387C36.7087 147.465 37.7803 149.517 38.7982 151.461L38.6205 151.391C45.0991 149.205 51.1685 147.029 56.6454 145.053C62.117 143.06 67.007 141.283 71.0945 139.797C75.1658 138.305 78.4455 137.099 80.7128 136.269C81.833 135.86 82.7054 135.542 83.314 135.321C83.6048 135.219 83.8256 135.138 83.9871 135.084C84.1541 135.025 84.2349 135.004 84.2349 135.004Z" fill="#455A64"/>
<path d="M80.0128 40.1931C79.318 38.319 77.7832 37.5004 75.8391 37.0319C73.8949 36.5634 71.73 37.1181 70.2544 38.4698C69.2689 39.3745 68.5472 40.624 67.3247 41.1733C65.316 42.0834 62.7472 40.7532 60.8461 41.868C59.7206 42.525 59.1659 44.0221 59.5967 45.2554C60.0275 46.4887 61.39 47.318 62.6771 47.1349C61.3685 47.7542 61.1261 49.7199 62.0255 50.8508C62.9249 51.9818 64.5889 52.2887 65.9838 51.8956C67.3732 51.5025 68.5311 50.5331 69.5112 49.4722C70.4967 48.4113 71.353 47.2372 72.4193 46.2571C73.4856 45.2769 74.8105 44.4907 76.2537 44.4368C78.2086 44.3614 80.0128 45.6809 81.0414 47.3449C82.07 49.009 82.4524 50.9855 82.7378 52.9242C83.0232 54.863 83.2386 56.834 83.9872 58.6435C84.0734 58.8536 84.2026 59.0905 84.4234 59.139C84.7465 59.209 84.9889 58.8482 85.1181 58.5412C86.5883 55.0945 87.3746 51.3517 87.4123 47.6034C87.4338 45.4277 87.1915 43.3867 85.8398 41.6849C84.488 39.9831 81.3753 38.9114 80.0128 40.1931Z" fill="#011727"/>
<path d="M84.6011 48.881L87.5954 70.6272C88.1017 74.327 85.4144 77.6983 81.6984 78.0214C78.2302 78.323 75.1282 75.8457 74.6597 72.399C74.4335 70.7619 74.245 69.3994 74.2127 69.2324C74.2127 69.2324 68.6065 69.4748 67.454 64.0517C66.8939 61.429 66.1884 55.9359 65.6068 50.9651C64.9821 45.6228 68.5688 40.6952 73.8465 39.6396L74.3689 39.5373C80.0828 38.7241 83.9603 43.1347 84.6011 48.881Z" fill="#FFBE9D"/>
<path d="M74.1854 69.1512C74.1854 69.1512 77.6751 68.7419 80.8687 65.7207C80.8687 65.7207 79.9747 69.9698 74.4492 70.5622L74.1854 69.1512Z" fill="#EB996E"/>
<path d="M67.9113 54.2768C67.9759 54.6915 68.3852 54.9715 68.816 54.9123C69.2469 54.8476 69.5431 54.4653 69.4785 54.0506C69.4084 53.6359 69.0045 53.3559 68.5737 53.4151C68.1375 53.4798 67.8413 53.8675 67.9113 54.2768Z" fill="#011727"/>
<path d="M67.2967 53.3887C67.4152 53.4695 67.9161 52.9202 68.7508 52.7532C69.5855 52.5755 70.2803 52.8825 70.3503 52.764C70.388 52.7102 70.2533 52.5486 69.9464 52.4032C69.6448 52.2632 69.1601 52.1608 68.6377 52.2686C68.1153 52.3763 67.7168 52.6563 67.5068 52.8986C67.2913 53.1518 67.2429 53.351 67.2967 53.3887Z" fill="#011727"/>
<path d="M76.1613 52.9243C76.2313 53.3389 76.6352 53.619 77.066 53.5597C77.4969 53.4951 77.7931 53.1127 77.7285 52.6981C77.6584 52.2834 77.2545 52.0033 76.8237 52.0626C76.3875 52.1272 76.0913 52.5096 76.1613 52.9243Z" fill="#011727"/>
<path d="M75.5423 51.9014C75.6608 51.9822 76.1617 51.4329 76.9964 51.2659C77.8311 51.0882 78.5259 51.3952 78.5959 51.2767C78.6336 51.2228 78.4989 51.0613 78.192 50.9159C77.8904 50.7759 77.4057 50.6735 76.8833 50.7812C76.3609 50.889 75.9624 51.169 75.7524 51.4113C75.537 51.6645 75.4885 51.8691 75.5423 51.9014Z" fill="#011727"/>
<path d="M73.7485 58.7048C73.7431 58.6564 73.2046 58.6725 72.3429 58.7318C72.1275 58.7533 71.9121 58.7479 71.8474 58.6133C71.7667 58.4679 71.8097 58.2202 71.8636 57.9509C71.9605 57.3962 72.0629 56.8092 72.1706 56.2006C72.5853 53.7126 72.8384 51.6823 72.736 51.6661C72.6337 51.65 72.219 53.6533 71.8044 56.1414C71.7074 56.7553 71.6159 57.3369 71.5243 57.897C71.492 58.1555 71.4058 58.4571 71.5836 58.7587C71.6751 58.9041 71.8528 58.9903 71.9982 59.001C72.1436 59.0172 72.2621 58.9956 72.3698 58.9795C73.2261 58.8556 73.7539 58.7533 73.7485 58.7048Z" fill="#011727"/>
<path d="M76.3227 58.7955C76.1826 58.817 76.3657 59.7218 75.7195 60.5188C75.0732 61.3212 74.0877 61.4128 74.1039 61.5367C74.1039 61.5959 74.357 61.6713 74.7663 61.6013C75.1702 61.5367 75.7303 61.2889 76.1234 60.7989C76.5165 60.3088 76.6189 59.7433 76.5704 59.3663C76.5273 58.9786 76.3819 58.7739 76.3227 58.7955Z" fill="#011727"/>
<path d="M74.6756 48.67C74.8049 48.8801 75.6181 48.6054 76.6198 48.53C77.6214 48.4331 78.4723 48.5623 78.5585 48.3307C78.5962 48.223 78.4185 48.0345 78.0523 47.8784C77.6915 47.7222 77.1422 47.6145 76.5444 47.6683C75.9412 47.7222 75.4242 47.9215 75.0957 48.1369C74.7618 48.3577 74.6164 48.5731 74.6756 48.67Z" fill="#011727"/>
<path d="M67.1248 50.911C67.3079 51.0726 67.8464 50.7602 68.5358 50.6095C69.2197 50.4371 69.8391 50.4802 69.936 50.254C69.9737 50.1463 69.8444 49.974 69.5536 49.8447C69.2682 49.7155 68.8158 49.6562 68.3419 49.7639C67.868 49.8717 67.491 50.1302 67.2918 50.3725C67.0817 50.6202 67.0386 50.8303 67.1248 50.911Z" fill="#011727"/>
<path d="M84.962 52.9955C85.0481 52.9363 88.4787 51.143 89.1034 54.8858C89.7281 58.6287 85.8452 58.4833 85.8183 58.3756C85.7913 58.2678 84.962 52.9955 84.962 52.9955Z" fill="#FFBE9D"/>
<path d="M86.7227 56.7653C86.7389 56.7492 86.7981 56.7976 86.9166 56.83C87.0297 56.8623 87.2236 56.8623 87.4067 56.7599C87.7783 56.5499 88.0045 55.866 87.9129 55.1874C87.8644 54.8427 87.7406 54.5304 87.5736 54.2827C87.4121 54.0295 87.2074 53.868 86.9974 53.8626C86.7927 53.8518 86.6689 53.9918 86.642 54.1049C86.6096 54.218 86.6473 54.288 86.6258 54.2988C86.615 54.3096 86.5342 54.2503 86.5396 54.0888C86.545 54.0134 86.5719 53.9164 86.6473 53.8303C86.7227 53.7441 86.852 53.6849 86.992 53.6741C87.2828 53.6472 87.5898 53.868 87.7675 54.1426C87.9668 54.4119 88.1122 54.7619 88.166 55.1497C88.2683 55.909 87.9991 56.6792 87.4875 56.9215C87.2344 57.0346 87.0028 56.9915 86.8735 56.9215C86.7443 56.8569 86.712 56.7761 86.7227 56.7653Z" fill="#EB996E"/>
<path d="M64.2227 50.0532C66.7431 50.2148 69.3173 49.0677 70.8845 47.0859C71.9831 45.7018 72.6832 43.8816 74.2396 43.0414C75.2844 42.476 76.5769 42.4706 77.7078 42.826C78.8441 43.1868 79.8404 43.8816 80.7398 44.6678C80.2389 47.6406 81.5637 50.5864 82.8509 53.3114C82.9909 53.613 83.1578 53.9361 83.454 54.0815C83.9602 54.3293 84.5688 53.9361 84.8704 53.4568C85.3551 52.6921 85.4143 51.7389 85.3928 50.8341C85.3497 48.7715 84.9889 46.6981 84.1541 44.8132C83.314 42.9283 81.9838 41.2373 80.2443 40.1279C78.0686 38.7439 75.3221 38.3507 72.8017 38.8947C70.2813 39.4386 67.9925 40.8819 66.28 42.8099C65.4829 43.7038 64.7936 44.7325 64.5243 45.8957" fill="#011727"/>
</svg>
