<svg width="234" height="66" viewBox="0 0 234 66" fill="none" xmlns="http://www.w3.org/2000/svg">
<path d="M0 40.7984L5.52826 43.9779L0 47.1574V65.8777L5.52826 62.6982V3.17948L0 0V40.7984Z" fill="#00000A"/>
<path d="M11.0266 59.5187L16.5549 56.3392V9.53837L11.0266 6.35889V59.5187Z" fill="#00000A"/>
<path d="M22.054 53.1596L27.5822 49.9801V15.8973L22.054 12.7178V53.1596Z" fill="#00000A"/>
<path d="M33.0801 46.8009L38.6083 49.9507V15.9272L33.0801 19.1067V46.8009Z" fill="#00000A"/>
<path d="M49.6355 56.3099V43.9783L44.137 40.7988V53.1602L49.6355 56.3099Z" fill="#00000A"/>
<path d="M49.6355 9.56836L44.137 12.7181V40.7986L49.6355 37.6191V9.56836Z" fill="#00000A"/>
<path d="M130.925 15.5703H109.168V19.6115H117.877V50.2772H122.216V19.6115H130.925V15.5703Z" fill="#00000A"/>
<path d="M179.134 15.5703H174.764V50.2772H187.842V46.2657H179.134V15.5703Z" fill="#00000A"/>
<path d="M71.719 50.2772H97.8148L95.2884 45.9388H79.2386L91.7218 24.3065L106.702 50.2772H111.725L91.7218 15.5703L71.719 50.2772Z" fill="#00000A"/>
<path d="M128.606 50.2772H154.732L152.206 45.9388H136.156L148.639 24.3065L163.589 50.2772H168.642L148.639 15.5703L128.606 50.2772Z" fill="#00000A"/>
<path d="M228.977 50.2772H234L213.997 15.5703L193.965 50.2772H220.09L217.564 45.9388H201.514L213.997 24.3065L228.977 50.2772Z" fill="#00000A"/>
</svg>
