<svg width="130" height="35" viewBox="0 0 130 35" fill="none" xmlns="http://www.w3.org/2000/svg">
<path fill-rule="evenodd" clip-rule="evenodd" d="M24.961 29.1626L27.6048 34.1906H37.9409L35.2971 29.1626H24.961Z" fill="#00000A"/>
<path fill-rule="evenodd" clip-rule="evenodd" d="M2.74635 29.1626L0 34.1906H22.2149L24.9613 29.1626H2.74635Z" fill="#00000A"/>
<path fill-rule="evenodd" clip-rule="evenodd" d="M18.4712 0L15.9751 5.02805H20.9674L18.4712 0Z" fill="#00000A"/>
<path fill-rule="evenodd" clip-rule="evenodd" d="M24.2959 10.0562H13.6458L10.9832 15.0842H26.9585L24.2959 10.0562Z" fill="#00000A"/>
<path fill-rule="evenodd" clip-rule="evenodd" d="M29.2542 19.1064H7.68773L4.9919 24.1345H31.9501L29.2542 19.1064Z" fill="#00000A"/>
<path fill-rule="evenodd" clip-rule="evenodd" d="M49.3328 22.9088H52.2096C52.8279 22.9088 53.3485 22.6945 53.7715 22.266C54.1939 21.8376 54.4055 21.2864 54.4055 20.6131C54.4055 19.9396 54.1939 19.3938 53.7715 18.9754C53.3485 18.5574 52.8279 18.348 52.2096 18.348H49.3328V22.9088ZM43.7962 13.1138H52.2095C54.3948 13.1138 56.2301 13.8178 57.7149 15.2258C59.1998 16.6339 59.9421 18.4297 59.9421 20.6132C59.9421 22.7968 59.1998 24.5924 57.7149 26.0003C56.2301 27.4085 54.3948 28.1125 52.2095 28.1125H49.3327V34.5405H43.7962V13.1138Z" fill="#00000A"/>
<path fill-rule="evenodd" clip-rule="evenodd" d="M70.7053 18.1644H67.6433V22.97H70.7053C71.3859 22.9907 71.9425 22.7763 72.3756 22.3273C72.8086 21.8787 73.0253 21.2969 73.0253 20.5826C73.0253 19.8685 72.8086 19.2867 72.3756 18.8377C71.9425 18.3891 71.3859 18.1644 70.7053 18.1644ZM79.3353 34.5405H73.3967L69.6234 27.6227H67.6437V34.5405H62.1072V13.1138H70.7678C72.9739 13.1138 74.8196 13.8178 76.3041 15.2258C77.8093 16.5933 78.562 18.3585 78.562 20.5214C78.562 21.7868 78.2321 22.9602 77.5723 24.0414C76.9123 25.1233 76.0152 25.9802 74.8814 26.6127L79.3353 34.5405Z" fill="#00000A"/>
<path fill-rule="evenodd" clip-rule="evenodd" d="M81.2837 34.5405H86.8205V13.1138H81.2837V34.5405Z" fill="#00000A"/>
<path fill-rule="evenodd" clip-rule="evenodd" d="M97.6147 34.9999C95.3671 34.9999 93.4856 34.5305 91.9702 33.5917C90.4542 32.6533 89.3872 31.3471 88.7689 29.6736L93.5011 26.9495C94.3052 28.8473 95.7281 29.7961 97.7694 29.7961C99.4602 29.7961 100.306 29.3168 100.306 28.3574C100.306 27.7453 99.821 27.2356 98.852 26.827C98.5221 26.7047 97.6147 26.4291 96.1302 26.0006C94.0269 25.409 92.4286 24.5824 91.336 23.5213C90.2428 22.4603 89.6966 21.0524 89.6966 19.297C89.6966 17.3178 90.4081 15.7157 91.8308 14.4914C93.2947 13.2669 95.0886 12.6548 97.2128 12.6548C99.027 12.6548 100.635 13.0785 102.038 13.9251C103.44 14.772 104.512 15.9813 105.255 17.5523L100.615 20.2459C99.9346 18.6541 98.8105 17.8585 97.2437 17.8585C96.6042 17.8585 96.1094 17.986 95.759 18.2409C95.4084 18.4966 95.2331 18.838 95.2331 19.2664C95.2331 19.7362 95.4856 20.1341 95.9909 20.4601C96.4958 20.7868 97.4805 21.1642 98.9449 21.5927C100.037 21.9194 100.883 22.205 101.481 22.4498C102.162 22.7359 102.863 23.1234 103.584 23.613C105.089 24.5924 105.842 26.1537 105.842 28.2963C105.842 30.3982 105.089 32.0412 103.584 33.2244C102.079 34.4083 100.089 34.9999 97.6147 34.9999Z" fill="#00000A"/>
<path fill-rule="evenodd" clip-rule="evenodd" d="M124.431 13.1138H129.937V34.5405H124.431V23.0005L119.173 31.6021H118.617L113.389 23.0313V34.5405H107.853V13.1138H113.389L118.895 22.2661L124.431 13.1138Z" fill="#00000A"/>
<path fill-rule="evenodd" clip-rule="evenodd" d="M57.0807 0.318359H52.2218V1.24418H54.1646V8.29622H55.1379V1.24418H57.0807V0.318359Z" fill="#00000A"/>
<path fill-rule="evenodd" clip-rule="evenodd" d="M67.8384 0.318359H66.8651V8.29622H69.7812V7.37039H67.8384V0.318359Z" fill="#00000A"/>
<path fill-rule="evenodd" clip-rule="evenodd" d="M43.8637 8.29622H49.6891L49.1281 7.29396H45.5481L48.3291 2.32546L51.671 8.29622H52.7944L48.3291 0.318359L43.8637 8.29622Z" fill="#00000A"/>
<path fill-rule="evenodd" clip-rule="evenodd" d="M56.5649 8.29622H62.3902L61.8293 7.29396H58.2494L61.0302 2.32546L64.3722 8.29622H65.4957L61.0302 0.318359L56.5649 8.29622Z" fill="#00000A"/>
<path fill-rule="evenodd" clip-rule="evenodd" d="M78.9585 8.29622H80.0819L75.6165 0.318359L71.1512 8.29622H76.9766L76.4156 7.29396H72.8356L75.6165 2.32546L78.9585 8.29622Z" fill="#00000A"/>
</svg>
