<svg width="26" height="30" viewBox="0 0 26 30" fill="none" xmlns="http://www.w3.org/2000/svg">
<path d="M25.1751 7.72469C25.1595 6.91432 25.1452 6.14938 25.1452 5.40934C25.1452 4.82925 24.6753 4.35934 24.0952 4.35934C19.6045 4.35934 16.185 3.06846 13.335 0.29751C13.1315 0.0989626 12.8676 0 12.6037 0C12.3392 0 12.0753 0.0989626 11.8711 0.29751C9.02112 3.06846 5.60287 4.35934 1.1122 4.35934C0.532742 4.35934 0.0622025 4.82925 0.0622025 5.40934C0.0622025 6.14938 0.0478871 6.91494 0.032327 7.72531C-0.111449 15.2627 -0.308751 25.5859 12.2595 29.9421C12.3709 29.9807 12.4867 30 12.6031 30H12.6037C12.7201 30 12.8359 29.9807 12.9466 29.9421C25.5161 25.5859 25.3188 15.262 25.1751 7.72469Z" fill="white"/>
<path d="M19.027 12.5145V16.2408C19.027 16.5844 18.7488 16.8632 18.4046 16.8632H15.0896V20.1788C15.0896 20.5224 14.8108 20.8012 14.4672 20.8012H10.7409C10.3973 20.8012 10.1184 20.5224 10.1184 20.1788V16.8632H6.80283C6.45864 16.8632 6.18042 16.5844 6.18042 16.2408V12.5145C6.18042 12.1709 6.45864 11.8921 6.80283 11.8921H10.1184V8.57651C10.1184 8.23294 10.3973 7.9541 10.7409 7.9541H14.4673C14.8108 7.9541 15.0897 8.23294 15.0897 8.57651V11.8921H18.4047C18.7488 11.8921 19.027 12.1709 19.027 12.5145Z" fill="#4A2DFF"/>
</svg>
