<svg width="45" height="45" viewBox="0 0 45 45" fill="none" xmlns="http://www.w3.org/2000/svg">
<path d="M26.2501 39.75L33.0601 44.25H0.750064V41.595C0.747691 39.1873 2.05902 36.9702 4.17006 35.8125L11.4675 31.8224C12.427 31.2944 13.0222 30.2851 13.02 29.1899V26.19C11.6137 24.3761 10.6066 22.2854 10.065 20.055C9.36087 19.6018 8.93451 18.8225 8.93258 17.9851V14.7001C8.93653 14.0068 9.23351 13.3474 9.75004 12.885V8.13754C9.75004 8.13754 8.85005 1.32006 17.625 0.787529C17.985 0.765029 18.3601 0.75 18.75 0.75C28.7175 0.75 27.75 8.13745 27.75 8.13745V12.8849C28.245 13.335 26.2501 39.75 26.2501 39.75Z" fill="#A0AABB"/>
<path d="M34.5001 41.7151L30.8101 44.2501H0.750125V41.5951C0.747752 39.1875 2.05908 36.9703 4.17012 35.8126L11.4676 31.8226C12.4271 31.2945 13.0223 30.2853 13.0201 29.1901V26.1901C11.6137 24.3762 10.6067 22.2856 10.0651 20.0552C9.36093 19.602 8.93457 18.8226 8.93264 17.9852V14.7002C8.93659 14.0069 9.23357 13.3476 9.75011 12.8852V8.13761C9.75011 8.13761 8.85011 1.32013 17.6251 0.787598C26.3926 1.32013 25.5001 8.13761 25.5001 8.13761V12.8851C26.0167 13.3475 26.3137 14.0068 26.3175 14.7001V17.9851C26.3178 18.1338 26.3027 18.2821 26.2725 18.4276L34.5001 41.7151Z" fill="#F1F1F1"/>
<path d="M44.2501 32.235C44.2507 35.4217 42.985 38.4781 40.7317 40.7315C38.4783 42.9848 35.4219 44.2505 32.2351 44.2499H32.1152C27.1539 44.2075 22.7299 41.1176 20.9822 36.4742C19.2345 31.8307 20.5232 26.5906 24.2251 23.2874V23.28C25.1729 22.4222 26.2546 21.7255 27.4276 21.2175C30.4925 19.8774 33.9776 19.8774 37.0426 21.2175C38.2155 21.7255 39.2974 22.4222 40.245 23.28V23.2874C42.7983 25.5599 44.2562 28.817 44.2501 32.235Z" fill="#3BD7D7"/>
<path d="M42.0375 32.235C42.0375 38.8724 37.1634 44.2499 31.1472 44.2499H31.0385C25.0698 44.1823 20.2501 38.8349 20.2501 32.235C20.2144 28.8856 21.5246 25.6621 23.887 23.2874V23.28C24.7308 22.433 25.7123 21.7356 26.7898 21.2175C29.5402 19.8774 32.7543 19.8774 35.5047 21.2175C36.5822 21.7356 37.5636 22.433 38.4074 23.28V23.2874C40.7651 25.6646 42.0725 28.8871 42.0375 32.235Z" fill="#40EAEA"/>
<path d="M36.2387 29.8297C36.2351 31.4228 35.293 32.8642 33.8352 33.5068V37.841C33.8352 38.7258 33.1178 39.4432 32.233 39.4432C31.3481 39.4432 30.6307 38.7258 30.6307 37.841V33.5068C28.7952 32.7076 27.8309 30.6768 28.3717 28.7492C28.9125 26.8217 30.7926 25.5889 32.776 25.8613C34.7593 26.1337 36.2375 27.8277 36.2387 29.8297Z" fill="white"/>
<path d="M40.2451 17.2801L40.2452 23.2801C39.2974 22.4223 38.2156 21.7256 37.0426 21.2176V17.2801C37.0575 15.9346 36.5399 14.6379 35.6026 13.6726C34.7328 12.7364 33.513 12.204 32.2351 12.2026C30.7569 12.2115 29.3696 12.9176 28.4926 14.1077C27.7974 15.0187 27.423 16.1342 27.4277 17.2802V21.2176C26.2547 21.7257 25.1728 22.4224 24.2251 23.2802L24.2252 17.2802C24.2124 14.5571 25.528 11.9989 27.7502 10.4251C30.9131 8.19431 35.2338 8.62225 37.8977 11.4302C39.4156 12.9976 40.2584 15.0979 40.2451 17.2801Z" fill="#F5F5F5"/>
<path d="M32.2351 45.0001C26.9561 45.007 22.2183 41.7614 20.3179 36.8363C18.4175 31.9112 19.7473 26.3244 23.6628 22.7836C23.6815 22.7631 23.7009 22.7426 23.7218 22.7236C24.7303 21.811 25.8814 21.0697 27.1294 20.5292C30.3877 19.1154 34.0863 19.1159 37.3441 20.5307C38.5909 21.071 39.7409 21.8117 40.7484 22.7236C40.77 22.7433 40.7905 22.7646 40.8096 22.7858C44.7187 26.3291 46.044 31.9128 44.1441 36.8348C42.2441 41.7569 37.511 45.0021 32.2351 45.0001ZM24.7878 23.7826C24.7676 23.8061 24.7458 23.8282 24.7225 23.8486C21.2423 26.963 20.0447 31.9019 21.7119 36.2644C23.3791 40.6269 27.5652 43.5085 32.2354 43.5082C36.9056 43.508 41.0915 40.6261 42.7582 36.2634C44.4248 31.9006 43.2268 26.9619 39.7463 23.8478C39.7231 23.8269 39.701 23.8046 39.6803 23.7812C38.8082 23.0032 37.8171 22.3702 36.7445 21.9062C33.8696 20.6547 30.604 20.6542 27.7287 21.9047C26.6542 22.3691 25.6612 23.0032 24.7878 23.7826Z" fill="#2F2E41"/>
<path d="M32.2328 40.193C30.9343 40.1915 29.882 39.1391 29.8806 37.8405V33.9668C28.0051 32.8994 27.0833 30.703 27.6355 28.6168C28.1875 26.5306 30.075 25.0776 32.233 25.0776C34.391 25.0776 36.2784 26.5306 36.8306 28.6168C37.3826 30.703 36.4609 32.8994 34.5854 33.9668V37.8406C34.5838 39.1391 33.5314 40.1915 32.2328 40.193ZM32.2328 26.5737C30.6897 26.5756 29.3594 27.6592 29.0455 29.1701C28.7315 30.6809 29.52 32.2048 30.9346 32.8213C31.2058 32.9415 31.3806 33.2102 31.3807 33.5069V37.8406C31.3807 38.3113 31.7623 38.6929 32.233 38.6929C32.7038 38.6929 33.0854 38.3113 33.0854 37.8406V33.5069C33.0855 33.2102 33.2603 32.9415 33.5314 32.8213C34.946 32.2048 35.7345 30.6807 35.4204 29.1699C35.1063 27.659 33.7759 26.5754 32.2328 26.5737Z" fill="#2F2E41"/>
<path d="M40.2451 24.0337C40.0466 24.0346 39.8559 23.9564 39.7152 23.8163C39.5744 23.6763 39.4953 23.4859 39.4952 23.2873V17.28C39.5127 15.2934 38.7461 13.3801 37.3616 11.9554C34.9552 9.40927 31.0433 9.01886 28.1811 11.0391C26.1587 12.4722 24.9621 14.8014 24.975 17.28V23.2801C24.9763 23.548 24.8345 23.7963 24.6031 23.9314C24.3717 24.0665 24.0858 24.0679 23.8531 23.9351C23.6204 23.8023 23.4763 23.5553 23.4749 23.2874V17.2801C23.4619 14.3123 24.8971 11.5246 27.3201 9.81093C30.7863 7.36731 35.5204 7.83629 38.4397 10.9125C40.0961 12.6162 41.0142 14.9041 40.9951 17.2802V23.2802C40.9955 23.695 40.6602 24.032 40.2451 24.0337Z" fill="#2F2E41"/>
<path d="M37.0427 21.9676C36.8438 21.9677 36.6529 21.8887 36.5122 21.748C36.3716 21.6073 36.2926 21.4165 36.2926 21.2176V17.2801C36.307 16.1316 35.8669 15.024 35.068 14.1988C34.3404 13.4043 33.3124 12.952 32.235 12.9522C30.992 12.9605 29.8262 13.5565 29.0915 14.5591C28.4929 15.3393 28.1713 16.2967 28.1774 17.2801V21.2176C28.1774 21.6318 27.8417 21.9675 27.4274 21.9675C27.0132 21.9675 26.6775 21.6317 26.6775 21.2176V17.2801C26.6699 15.9684 27.0993 14.6916 27.8977 13.6509C28.8405 12.3602 30.3099 11.5576 31.9053 11.4618C33.5007 11.366 35.0555 11.9872 36.1459 13.1558C37.2171 14.2597 37.809 15.742 37.7927 17.2801V21.2176C37.7928 21.4164 37.7138 21.6073 37.5731 21.748C37.4324 21.8887 37.2415 21.9677 37.0427 21.9676Z" fill="#2F2E41"/>
<path d="M32.235 45H0.750059C0.551163 45.0001 0.360353 44.9211 0.21964 44.7804C0.0790154 44.6397 1.91737e-06 44.4489 1.91737e-06 44.2499V41.5949C-0.00193167 38.9135 1.45872 36.4444 3.8097 35.1547L11.1075 31.1645C11.827 30.7684 12.2728 30.0112 12.2699 29.1898V26.4498C10.9371 24.6712 9.96256 22.6506 9.40024 20.5004C8.63102 19.8924 8.18234 18.9657 8.1826 17.9852V14.6996C8.18656 13.9161 8.4773 13.1613 8.99998 12.5777V8.1797C8.83976 6.25314 9.45121 4.34179 10.7 2.86593C12.3673 0.964598 15.0758 0 18.75 0C22.4205 0 25.1276 0.963895 26.7953 2.86453C28.0451 4.34021 28.6583 6.25165 28.5001 8.179V10.4253C28.5001 10.8395 28.1643 11.1753 27.7501 11.1753C27.3359 11.1753 27.0001 10.8394 27.0001 10.4253V8.13725C27.0002 8.10464 27.0022 8.07212 27.0064 8.03987C27.1204 6.51681 26.6355 5.00949 25.6547 3.8387C24.2822 2.28673 21.9593 1.50011 18.7502 1.50011C15.5378 1.50011 13.2131 2.28744 11.8413 3.8402C10.8612 5.01143 10.3778 6.51936 10.494 8.04206C10.4981 8.07362 10.5002 8.10543 10.5003 8.13734V12.8849C10.5003 13.096 10.4112 13.2974 10.2549 13.4393C9.89348 13.7589 9.68544 14.2174 9.68289 14.6999V17.9855C9.68403 18.5689 9.98181 19.1117 10.4732 19.4262C10.6367 19.5322 10.7525 19.6977 10.7962 19.8876C11.3122 22.0027 12.2661 23.986 13.5962 25.7096C13.7087 25.8444 13.7702 26.0145 13.7701 26.1901V29.1901C13.7732 30.5598 13.0281 31.8218 11.8274 32.4809L4.53031 36.4704C2.66018 37.4971 1.49862 39.4618 1.50029 41.5951V43.5001H32.2352C32.6495 43.5001 32.9852 43.836 32.9852 44.2501C32.985 44.6642 32.6493 45 32.235 45Z" fill="#2F2E41"/>
</svg>
