<svg width="38" height="45" viewBox="0 0 38 45" fill="none" xmlns="http://www.w3.org/2000/svg">
<path d="M3 0.75H34.5C35.7426 0.75 36.75 1.7574 36.75 3V42C36.75 43.2426 35.7426 44.25 34.5 44.25H3C1.7574 44.25 0.75 43.2426 0.75 42V3C0.75 1.7574 1.7574 0.75 3 0.75Z" fill="#8F97A4"/>
<path d="M3 0.75H32.25C33.4926 0.75 34.5 1.7574 34.5 3V42C34.5 43.2426 33.4926 44.25 32.25 44.25H3C1.7574 44.25 0.75 43.2426 0.75 42V3C0.75 1.7574 1.7574 0.75 3 0.75Z" fill="#8F97A4"/>
<path d="M23.25 5.25H33C33.4142 5.25 33.7499 5.58583 33.7499 5.99997V39C33.7499 39.4142 33.4142 39.75 33 39.75H4.50003C4.0858 39.75 3.75006 39.4141 3.75006 39V6.00006C3.75006 5.58583 4.08589 5.25009 4.50003 5.25009H23.25V5.25Z" fill="#F2F2F2"/>
<path d="M18.75 41.2501C19.5785 41.2501 20.2501 40.5785 20.2501 39.75C20.2501 38.9216 19.5785 38.25 18.75 38.25C17.9216 38.25 17.25 38.9216 17.25 39.75C17.25 40.5785 17.9216 41.2501 18.75 41.2501Z" fill="#F2F2F2"/>
<path d="M26.9751 22.1936C26.7762 22.1937 26.5853 22.1146 26.4446 21.9739C26.304 21.8333 26.225 21.6425 26.225 21.4435C26.2251 21.2221 26.2138 21.0009 26.1913 20.7806C26.1694 20.5652 26.1367 20.3511 26.0932 20.139C26.0499 19.9288 25.9961 19.7216 25.9328 19.5187C25.8694 19.3166 25.7966 19.1188 25.7145 18.9254C25.6321 18.7314 25.5409 18.5424 25.4406 18.3585C25.2444 17.9949 25.3791 17.5412 25.7419 17.3435C26.1048 17.1458 26.5591 17.2788 26.7582 17.6408C26.8813 17.8672 26.9936 18.0995 27.0951 18.3381C27.1965 18.5769 27.2864 18.8215 27.3647 19.072C27.4426 19.3217 27.5085 19.5768 27.5624 19.8373C27.6162 20.099 27.6566 20.3632 27.6836 20.629C27.7111 20.8996 27.7249 21.1715 27.725 21.4435C27.725 21.6424 27.6461 21.8332 27.5054 21.9738C27.3648 22.1146 27.174 22.1936 26.9751 22.1936Z" fill="#F83633"/>
<path d="M14.0618 16.0993C13.7477 16.0996 13.4668 15.904 13.3579 15.6094C13.249 15.3148 13.3353 14.9836 13.574 14.7795C13.7849 14.5986 14.0054 14.4279 14.2328 14.2682C14.4602 14.1093 14.6957 13.9611 14.9392 13.8237C15.1813 13.6874 15.4307 13.5627 15.6873 13.4494C15.9441 13.3374 16.2066 13.237 16.4747 13.1506C16.7454 13.063 17.0205 12.9896 17.299 12.9309C17.5798 12.8712 17.8635 12.8262 18.149 12.7961C18.7316 12.7346 19.3191 12.7346 19.9017 12.7961C20.1878 12.8263 20.4721 12.8716 20.7535 12.9317C21.0306 12.9899 21.3044 13.0628 21.5738 13.1499C21.842 13.2364 22.1055 13.3367 22.3633 13.4502C22.6193 13.5623 22.8687 13.6875 23.1115 13.8238C23.3547 13.9607 23.5903 14.1091 23.8184 14.2691C24.1567 14.5071 24.2386 14.9742 24.0013 15.3131C23.764 15.652 23.2972 15.7348 22.9578 15.4982C22.77 15.3663 22.5761 15.244 22.3762 15.1312C22.1766 15.0192 21.9712 14.9159 21.7603 14.8236C21.3369 14.6369 20.8951 14.4945 20.4423 14.3988C20.2115 14.3495 19.9782 14.3124 19.7436 14.2875C19.2661 14.2376 18.7848 14.2376 18.3073 14.2875C18.0733 14.3123 17.8406 14.3492 17.6105 14.398C17.3825 14.4467 17.1571 14.5068 16.9352 14.5782C16.7162 14.6491 16.5009 14.7309 16.2903 14.8236C16.0794 14.9159 15.8744 15.0192 15.6748 15.1312C15.4741 15.244 15.2807 15.3663 15.0928 15.4982C14.9042 15.6293 14.7233 15.7706 14.549 15.9193C14.4133 16.0354 14.2405 16.0994 14.0618 16.0993Z" fill="#F83633"/>
<path d="M24.1054 22.3386C23.9065 22.3387 23.7157 22.2597 23.575 22.119C23.4344 21.9784 23.3554 21.7876 23.3554 21.5886C23.3554 21.4319 23.3473 21.2774 23.3323 21.1243C23.317 20.9733 23.2943 20.8225 23.2646 20.6753C23.2352 20.5291 23.1986 20.3843 23.1547 20.2417C23.1111 20.0989 23.0614 19.9613 23.005 19.8258C22.9485 19.691 22.8862 19.5594 22.8178 19.431C22.7482 19.3013 22.674 19.1768 22.5937 19.0559C22.5131 18.9344 22.4274 18.8186 22.337 18.7066C22.2469 18.596 22.1514 18.4893 22.0506 18.3865C21.9492 18.2839 21.8441 18.1858 21.7342 18.0935C21.624 18.0005 21.5098 17.9141 21.3915 17.8328C21.2754 17.7529 21.1531 17.6767 21.0267 17.6071C20.9007 17.5375 20.7712 17.4738 20.6381 17.416C20.5082 17.3603 20.3726 17.3098 20.2346 17.2659C20.0961 17.2226 19.9552 17.1846 19.8108 17.1545C19.5472 17.1012 19.3323 16.9109 19.2476 16.6555C19.163 16.4002 19.2216 16.1191 19.4013 15.9189C19.5809 15.7187 19.8541 15.6301 20.117 15.6867C20.3093 15.7267 20.4994 15.7766 20.6865 15.8361C20.8719 15.8946 21.0542 15.9623 21.2329 16.039C21.4127 16.1174 21.5855 16.2016 21.7533 16.2946C21.9206 16.3876 22.0832 16.4886 22.2411 16.5963C22.4011 16.7069 22.5535 16.8226 22.6996 16.9457C22.8453 17.068 22.9863 17.1984 23.1204 17.3353C23.2537 17.4708 23.3815 17.6129 23.5023 17.7623C23.6235 17.9117 23.7374 18.0667 23.844 18.2274C23.9499 18.3871 24.0491 18.5526 24.14 18.7225C24.2311 18.8924 24.3147 19.0681 24.3898 19.2483C24.4648 19.4292 24.5314 19.614 24.5894 19.8027C24.6465 19.9902 24.6955 20.1822 24.7351 20.3784C24.7746 20.5747 24.8047 20.7724 24.8252 20.9746C24.8453 21.1774 24.8554 21.382 24.8556 21.5883C24.8557 21.7872 24.7767 21.978 24.6359 22.1187C24.4951 22.2596 24.3044 22.3386 24.1054 22.3386Z" fill="#F83633"/>
<path d="M14.7795 21.0002C14.5586 20.9998 14.3491 20.9023 14.2066 20.7337C14.064 20.5649 14.0029 20.3421 14.0394 20.1242C14.0701 19.944 14.1079 19.7676 14.1525 19.5947C14.1976 19.4211 14.2492 19.2504 14.3074 19.0849C14.3667 18.9164 14.4316 18.7546 14.5022 18.5978C14.5744 18.4381 14.652 18.2841 14.7351 18.1357C14.8201 17.9856 14.9094 17.8406 15.0047 17.7013C15.1007 17.5614 15.2021 17.4272 15.309 17.2985C15.4159 17.1704 15.5283 17.0473 15.6448 16.9316C15.7619 16.8144 15.885 16.7034 16.0136 16.5991C16.1403 16.4951 16.2726 16.3981 16.4098 16.3084C16.5466 16.2183 16.6883 16.1359 16.8342 16.0616C17.0727 15.9389 17.3585 15.9529 17.5838 16.0984C17.809 16.2438 17.9394 16.4986 17.9258 16.7664C17.9122 17.0342 17.7565 17.2743 17.5176 17.3961C17.4197 17.4466 17.3245 17.5021 17.2323 17.5624C17.1388 17.6239 17.0484 17.6903 16.9609 17.7616C16.8713 17.8343 16.7856 17.9116 16.7041 17.993C16.6196 18.0772 16.5393 18.1651 16.4624 18.2582C16.3852 18.3505 16.3118 18.4477 16.2424 18.5497C16.1721 18.6523 16.1054 18.7592 16.0435 18.8698C15.9819 18.9804 15.9233 19.0962 15.8695 19.2148C15.8164 19.3335 15.767 19.4572 15.722 19.5833C15.6787 19.7078 15.6388 19.8374 15.6048 19.97C15.5704 20.1033 15.5414 20.2387 15.5181 20.3765C15.4566 20.7363 15.1448 20.9997 14.7795 21.0002Z" fill="#F83633"/>
<path d="M17.265 22.6098C17.0661 22.6099 16.8753 22.5309 16.7346 22.3902C16.594 22.2495 16.515 22.0587 16.515 21.8598C16.515 21.7565 16.5193 21.6539 16.5281 21.5528C16.5369 21.4533 16.5494 21.3544 16.5658 21.2577C16.5838 21.1559 16.605 21.0599 16.6296 20.967C16.6544 20.8732 16.6834 20.7795 16.716 20.6886C16.7482 20.5985 16.7837 20.5106 16.8233 20.4242C16.8643 20.3348 16.9075 20.2506 16.9536 20.1701C17.0013 20.0866 17.0525 20.0053 17.1063 19.9284C17.1565 19.8558 17.2143 19.7811 17.2751 19.7086C17.3363 19.6361 17.4007 19.5665 17.4678 19.5014C17.5308 19.4392 17.6008 19.3776 17.6725 19.3197C17.82 19.1998 17.9806 19.0969 18.1511 19.0128C18.232 18.9723 18.315 18.9361 18.3998 18.9044C18.4918 18.8701 18.5858 18.8414 18.6814 18.8187C18.7737 18.7958 18.8673 18.7787 18.9618 18.7675C19.1567 18.7448 19.3536 18.7448 19.5485 18.7675C19.6455 18.7792 19.7418 18.7968 19.8367 18.8202C19.9272 18.8422 20.0163 18.8693 20.1037 18.9015C20.1932 18.9348 20.2809 18.973 20.3663 19.0158C20.4486 19.057 20.5287 19.1024 20.6062 19.152C20.7641 19.2541 20.9112 19.3718 21.0453 19.5036C21.1101 19.5666 21.1746 19.6361 21.2357 19.7086C21.2958 19.7796 21.3529 19.8544 21.4071 19.932C21.4584 20.0053 21.5093 20.0866 21.5569 20.1701C21.6023 20.2485 21.6458 20.3341 21.6862 20.4213C21.7276 20.5121 21.7631 20.5993 21.7949 20.6887C21.8275 20.7795 21.8564 20.8733 21.8816 20.9685C21.9062 21.0614 21.9274 21.1589 21.9447 21.2578C21.9612 21.356 21.9743 21.4555 21.9827 21.5566C21.9992 21.7548 21.9363 21.9514 21.8078 22.1033C21.6793 22.2552 21.4957 22.3496 21.2975 22.366C21.0989 22.3847 20.901 22.3227 20.7487 22.1938C20.5964 22.065 20.5024 21.8802 20.4879 21.6812C20.4831 21.624 20.4758 21.5669 20.4659 21.5113C20.4568 21.4563 20.4451 21.4029 20.4311 21.3509C20.4172 21.2966 20.4015 21.2454 20.3835 21.1956C20.3648 21.1444 20.3439 21.0939 20.3216 21.044C20.3033 21.0038 20.2802 20.959 20.2557 20.9159C20.2297 20.8705 20.2044 20.8302 20.1769 20.7914C20.1473 20.7481 20.1186 20.7115 20.0887 20.6756C20.0604 20.6416 20.0303 20.6091 19.9986 20.5782C19.9649 20.5453 19.9327 20.5167 19.899 20.4896C19.8653 20.4625 19.8305 20.4376 19.795 20.4142C19.7634 20.394 19.7308 20.3755 19.6973 20.3586C19.6566 20.3381 19.62 20.3227 19.5823 20.308C19.5548 20.2985 19.519 20.2868 19.4828 20.2781C19.4453 20.269 19.4074 20.2622 19.3692 20.2576C19.2935 20.2481 19.2171 20.2481 19.1414 20.2576C19.1058 20.2618 19.0705 20.2681 19.0356 20.2767C18.9968 20.2859 18.9587 20.2973 18.9213 20.3111C18.8868 20.3239 18.853 20.3389 18.8202 20.3558C18.7815 20.3746 18.7439 20.3958 18.7078 20.4195C18.68 20.4378 18.6452 20.4627 18.6115 20.4898C18.5783 20.5163 18.5465 20.5447 18.5162 20.5748C18.483 20.6067 18.4516 20.6404 18.4221 20.6759C18.3922 20.7108 18.3643 20.7471 18.3382 20.785C18.3064 20.8305 18.2808 20.8707 18.2566 20.9132C18.2317 20.9571 18.2083 21.0033 18.1866 21.0501C18.1658 21.0955 18.1456 21.1454 18.1273 21.1958C18.1094 21.2457 18.0936 21.2969 18.08 21.3496C18.0653 21.4046 18.0537 21.4595 18.0438 21.5151C18.0347 21.5686 18.0273 21.6265 18.0222 21.685C18.0171 21.7422 18.0149 21.8008 18.0149 21.8601C18.0149 22.059 17.936 22.2498 17.7953 22.3904C17.6547 22.5309 17.4639 22.6098 17.265 22.6098Z" fill="#F83633"/>
<path d="M25.5399 30.75C25.2459 30.7499 24.9791 30.5781 24.8573 30.3103C24.7357 30.0427 24.7816 29.7286 24.9749 29.507C25.6296 28.5284 26.0569 27.4154 26.2251 26.25C26.2251 25.8357 26.5608 25.5 26.9751 25.5C27.3893 25.5 27.725 25.8357 27.725 26.25C27.5566 27.7794 26.9991 29.2402 26.1057 30.4929C25.9633 30.6565 25.7568 30.7502 25.5399 30.75Z" fill="#F83633"/>
<path d="M26.9759 24C26.9521 24.0003 26.9284 23.9991 26.9048 23.9963C26.7068 23.9778 26.5244 23.8813 26.3975 23.7281C26.2706 23.5749 26.2098 23.3777 26.2284 23.1797C26.2543 22.8123 26.2575 22.4437 26.2379 22.0759C26.2313 21.8657 26.2251 21.6555 26.2251 21.4438C26.2251 21.0296 26.5608 20.6938 26.9751 20.6938C27.3893 20.6938 27.725 21.0296 27.725 21.4438C27.725 21.6394 27.7313 21.8349 27.7371 22.0298C27.7591 22.4598 27.754 22.8909 27.7217 23.3203C27.6854 23.7052 27.3625 23.9995 26.9759 24Z" fill="#F83633"/>
<path d="M21.1754 32.2492C20.8939 32.2491 20.6361 32.0914 20.508 31.8407C20.3799 31.59 20.403 31.2887 20.5679 31.0605C22.0309 29.2011 22.9928 26.9977 23.3617 24.6606C23.3933 24.3943 23.5647 24.1651 23.8112 24.0596C24.0577 23.954 24.3418 23.9881 24.5563 24.149C24.7709 24.3099 24.8831 24.573 24.8508 24.8393C24.4564 27.4299 23.4003 29.8749 21.7844 31.9379C21.6433 32.1336 21.4167 32.2495 21.1754 32.2492Z" fill="#F83633"/>
<path d="M17.648 32.2501C17.3592 32.2501 17.0962 32.084 16.9716 31.8235C16.8471 31.5629 16.8833 31.254 17.0646 31.0293C17.1833 30.882 17.2988 30.7324 17.4114 30.5803C17.5235 30.428 17.633 30.2727 17.74 30.1145C17.8461 29.9578 17.9498 29.7974 18.0501 29.6348C18.1501 29.4729 18.2472 29.3074 18.3412 29.1404C18.4342 28.9741 18.5251 28.8042 18.6126 28.6328C18.6983 28.4629 18.7818 28.2886 18.862 28.1136C18.9422 27.9378 19.0185 27.7605 19.0908 27.5818C19.164 27.4009 19.2333 27.2186 19.2992 27.0362C19.3636 26.8545 19.4256 26.6686 19.4838 26.481C19.5421 26.2942 19.5962 26.1058 19.6464 25.9156C19.6969 25.7251 19.7431 25.534 19.7852 25.3399C19.8738 24.9352 20.2737 24.679 20.6783 24.7675C21.0831 24.8561 21.3393 25.256 21.2507 25.6606C21.2035 25.8753 21.1521 26.0881 21.0966 26.2993C21.0406 26.5103 20.9805 26.7193 20.9164 26.9263C20.8523 27.1328 20.784 27.3377 20.7114 27.5408C20.6382 27.7458 20.5612 27.9475 20.4807 28.1457C20.4005 28.3435 20.3155 28.5412 20.2265 28.7361C20.1382 28.9302 20.0459 29.1221 19.9496 29.3118C19.8522 29.5029 19.7526 29.6904 19.6493 29.8751C19.5449 30.0603 19.4377 30.242 19.327 30.4222C19.2153 30.6031 19.1007 30.7796 18.9831 30.9539C18.8644 31.1297 18.7429 31.3011 18.6183 31.4703C18.4923 31.641 18.3635 31.808 18.232 31.9713C18.0898 32.1479 17.875 32.2506 17.648 32.2501Z" fill="#F83633"/>
<path d="M11.9089 28.4974C11.6064 28.4974 11.3334 28.3156 11.2168 28.0363C11.1003 27.7571 11.1629 27.4352 11.3756 27.2201C11.5534 27.0397 11.7217 26.8502 11.8799 26.6525C12.0403 26.451 12.1919 26.2394 12.334 26.0197C12.4768 25.7985 12.6102 25.567 12.7328 25.3282C12.8555 25.0887 12.9683 24.839 13.0702 24.5834C13.172 24.3263 13.2624 24.0621 13.3416 23.7909C13.4158 23.5328 13.6222 23.3341 13.8829 23.2698C14.1436 23.2056 14.4187 23.2857 14.6043 23.4797C14.7898 23.6738 14.8574 23.9522 14.7816 24.2097C14.6893 24.5269 14.5836 24.8357 14.4645 25.1363C14.3448 25.438 14.2124 25.7303 14.0675 26.013C13.9214 26.2964 13.7639 26.5704 13.5947 26.8326C13.4269 27.0937 13.2458 27.3459 13.052 27.5884C12.8612 27.8279 12.6576 28.057 12.4422 28.2747C12.3015 28.4176 12.1093 28.4978 11.9089 28.4974Z" fill="#F83633"/>
<path d="M10.474 25.4997C10.1718 25.4997 9.89915 25.3183 9.78234 25.0396C9.66545 24.761 9.72723 24.4394 9.93896 24.2238C10.7562 23.404 11.216 22.2943 11.2181 21.1367C11.2168 19.9527 11.4625 18.7816 11.9395 17.698C12.1062 17.3187 12.5487 17.1464 12.9279 17.3131C13.3072 17.4797 13.4795 17.9223 13.3128 18.3015C13.2172 18.5197 13.1323 18.7431 13.0579 18.9717C12.9843 19.2008 12.9222 19.4335 12.872 19.6689C12.7696 20.1514 12.718 20.6433 12.7182 21.1367C12.7167 22.6878 12.1024 24.1754 11.009 25.2756C10.8681 25.4193 10.6752 25.5001 10.474 25.4997Z" fill="#F83633"/>
<path d="M14.0611 30.7497C13.7706 30.7495 13.5065 30.5815 13.3829 30.3186C13.2594 30.0557 13.2987 29.7452 13.4839 29.5215C13.5857 29.3984 13.685 29.2725 13.782 29.142C13.8802 29.0109 13.9743 28.8777 14.0658 28.7414C14.1581 28.6037 14.2476 28.4633 14.3342 28.3203C14.421 28.1767 14.5049 28.0302 14.5859 27.8808C14.6679 27.7292 14.7463 27.5769 14.822 27.4216C14.9388 27.18 15.1758 27.0191 15.4435 27C15.7112 26.9808 15.9687 27.1061 16.1188 27.3286C16.2688 27.5511 16.2885 27.8369 16.1704 28.0779C16.085 28.2536 15.9963 28.4263 15.9041 28.5957C15.8126 28.7656 15.717 28.9326 15.6174 29.0967C15.5186 29.26 15.4164 29.4212 15.311 29.5779C15.2048 29.7361 15.0956 29.8902 14.9836 30.04C14.8722 30.1894 14.7569 30.3359 14.639 30.478C14.4967 30.6505 14.2846 30.7502 14.0611 30.7497Z" fill="#F83633"/>
<path d="M16.9944 25.2466C16.7671 25.2473 16.5518 25.1448 16.4092 24.9679C16.2665 24.791 16.212 24.5589 16.2609 24.3369C16.2961 24.1758 16.3278 24.0137 16.3562 23.8506C16.3844 23.6888 16.4088 23.5254 16.4294 23.3607C16.4507 23.1966 16.4675 23.0318 16.4811 22.8663C16.4943 22.7008 16.5038 22.5352 16.5096 22.3682C16.5151 22.2034 16.5173 22.0357 16.5151 21.8694C16.5126 21.6704 16.5893 21.4787 16.7282 21.3362C16.8672 21.1937 17.057 21.1123 17.256 21.1099H17.2651C17.6756 21.1098 18.0099 21.4398 18.015 21.8503C18.0172 22.04 18.0151 22.2298 18.0088 22.4194C18.0022 22.6099 17.9912 22.799 17.9758 22.987C17.9608 23.1753 17.941 23.3636 17.9176 23.5503C17.8938 23.7364 17.8659 23.9219 17.8341 24.1069C17.8022 24.2908 17.766 24.4746 17.7264 24.6562C17.6513 25.0005 17.3467 25.2462 16.9944 25.2466Z" fill="#F83633"/>
<path d="M34.5 45H2.99997C1.34385 44.9982 0.00175781 43.6562 0 42V2.99997C0.00175781 1.34385 1.34385 0.00175781 2.99997 0H34.5C36.1562 0.00166992 37.4984 1.34385 37.4999 2.99997V41.9999C37.4984 43.6562 36.1562 44.9983 34.5 45ZM2.99997 1.50003C2.17195 1.501 1.50091 2.17195 1.49994 3.00006V42C1.50091 42.828 2.17187 43.4991 2.99997 43.5001H34.5C35.328 43.499 35.9989 42.828 36 42V2.99997C35.9989 2.17195 35.328 1.50108 34.5 1.49994H2.99997V1.50003Z" fill="#2F2E41"/>
<path d="M18.75 42C17.5074 42 16.5 40.9926 16.5 39.75C16.5 38.5074 17.5074 37.5 18.75 37.5C19.9927 37.5 21 38.5074 21 39.75C20.9987 40.9921 19.9921 41.9986 18.75 42ZM18.75 38.9999C18.3358 38.9999 18 39.3357 18 39.7499C18 40.1641 18.3359 40.4999 18.75 40.4999C19.1642 40.4999 19.5 40.1641 19.5 39.7499C19.4996 39.3359 19.1641 39.0004 18.75 38.9999Z" fill="#2F2E41"/>
<path d="M17.25 40.5H4.50003C3.67201 40.499 3.00097 39.8281 3 39V6.00003C3.00097 5.17201 3.67192 4.50097 4.50003 4.5H14.25C14.6642 4.5 15 4.83583 15 5.24997C15 5.66411 14.6641 5.99994 14.25 5.99994H4.50003V39H17.2501C17.6643 39 18 39.3357 18 39.7499C18 40.1642 17.6642 40.5 17.25 40.5Z" fill="#2F2E41"/>
<path d="M33 40.4999H20.25C19.8358 40.4999 19.5001 40.1642 19.5001 39.7499C19.5001 39.3357 19.8358 39 20.25 39H33.0001V5.99994H23.25C22.8358 5.99994 22.5 5.66411 22.5 5.24997C22.5 4.83583 22.8358 4.5 23.25 4.5H33C33.828 4.50105 34.4989 5.17201 34.5 6.00003V39.0001C34.4989 39.8279 33.828 40.4989 33 40.4999Z" fill="#2F2E41"/>
<path d="M18.75 5.99986C18.6519 5.99872 18.555 5.97833 18.4647 5.93983C18.3739 5.90186 18.2903 5.8486 18.2175 5.78242C18.0029 5.5677 17.9404 5.24417 18.0596 4.96503C18.0959 4.87319 18.1495 4.78908 18.2175 4.71745C18.5181 4.43989 18.9817 4.43989 19.2824 4.71745C19.3486 4.7904 19.4019 4.87416 19.4399 4.96503C19.5596 5.24409 19.4973 5.56788 19.2825 5.7825C19.2096 5.84869 19.1258 5.90195 19.0349 5.94C18.9448 5.97824 18.848 5.99863 18.75 5.99986Z" fill="#2F2E41"/>
</svg>
