<svg xmlns="http://www.w3.org/2000/svg" xmlns:xlink="http://www.w3.org/1999/xlink" viewBox="0 0 500 250"><defs><style>.cls-1{isolation:isolate;}.cls-2{fill:url(#linear-gradient);}.cls-3{fill:#a0aabb;}.cls-4{fill:#3f3d56;}.cls-5,.cls-9{opacity:0.39;}.cls-5,.cls-7,.cls-9{mix-blend-mode:multiply;}.cls-6{fill:url(#linear-gradient-2);}.cls-7{fill:url(#linear-gradient-3);}.cls-30,.cls-8{fill:#fff;}.cls-9{fill:none;stroke-linecap:round;stroke-miterlimit:10;stroke-width:1.88px;stroke:url(#linear-gradient-4);}.cls-10{fill:#5d5d6b;}.cls-11{fill:#dadada;}.cls-12{fill:#ccc;}.cls-13{fill:#191b48;}.cls-14{fill:#30b0b0;}.cls-15{fill:#248484;}.cls-16{fill:#201f2b;}.cls-17{fill:#edf3ff;}.cls-18{fill:#ddddfd;}.cls-19{fill:url(#linear-gradient-5);}.cls-20{fill:#808194;}.cls-21{fill:url(#linear-gradient-6);}.cls-22{fill:url(#linear-gradient-7);}.cls-23{fill:#e9e9e9;}.cls-24{fill:url(#linear-gradient-8);}.cls-25{fill:#40eaea;}.cls-26{fill:#f83633;}.cls-27{fill:#e3e3e3;}.cls-28{fill:#ba2926;}.cls-29{fill:#f2f2f2;}.cls-30{font-size:4.88px;font-family:Roboto-Bold, Roboto;font-weight:700;letter-spacing:0.01em;}</style><linearGradient id="linear-gradient" x1="323.94" y1="52.24" x2="218.8" y2="189.3" gradientTransform="translate(515.05 277.63) rotate(-180)" gradientUnits="userSpaceOnUse"><stop offset="0" stop-color="#eef5fd"/><stop offset="1" stop-color="#dee8fe"/></linearGradient><linearGradient id="linear-gradient-2" x1="149.61" y1="135.46" x2="365.43" y2="135.46" gradientUnits="userSpaceOnUse"><stop offset="0" stop-color="#dde9f7"/><stop offset="0.61" stop-color="#b6d1f2"/><stop offset="1" stop-color="#a2c5ef"/></linearGradient><linearGradient id="linear-gradient-3" x1="-574.66" y1="217.41" x2="-575.37" y2="258.27" gradientTransform="matrix(-1, 0, 0, 1, -317.33, 0)" gradientUnits="userSpaceOnUse"><stop offset="0" stop-color="#75769a"/><stop offset="0.97" stop-color="#fff" stop-opacity="0"/></linearGradient><linearGradient id="linear-gradient-4" x1="148.67" y1="197.05" x2="366.37" y2="197.05" xlink:href="#linear-gradient-2"/><linearGradient id="linear-gradient-5" x1="502.13" y1="-384.68" x2="502.1" y2="-384.67" gradientTransform="translate(-188.78 -32.82) rotate(58.54)" gradientUnits="userSpaceOnUse"><stop offset="0" stop-color="#fff" stop-opacity="0"/><stop offset="1" stop-color="#e0bad1"/></linearGradient><linearGradient id="linear-gradient-6" x1="209.59" y1="92.48" x2="209.59" y2="137.56" gradientUnits="userSpaceOnUse"><stop offset="0" stop-color="#fff"/><stop offset="0.14" stop-color="#fbfdfe"/><stop offset="1" stop-color="#e7f1fb"/></linearGradient><linearGradient id="linear-gradient-7" x1="205.64" y1="123.54" x2="261.23" y2="123.54" gradientTransform="translate(466.88 247.08) rotate(-180)" gradientUnits="userSpaceOnUse"><stop offset="0" stop-color="#272438"/><stop offset="1" stop-color="#304260"/></linearGradient><linearGradient id="linear-gradient-8" x1="233.44" y1="88.1" x2="233.44" y2="81.2" gradientTransform="translate(466.88 169.3) rotate(-180)" xlink:href="#linear-gradient-7"/></defs><title>illustration-health</title><g class="cls-1"><g id="Layer_1" data-name="Layer 1"><rect class="cls-2" x="142.37" y="66.53" width="230.31" height="144.58" rx="7.51" ry="7.51" transform="translate(515.05 277.63) rotate(180)"/><rect class="cls-3" x="142.37" y="66.53" width="230.31" height="144.58" rx="7.51" ry="7.51" transform="translate(515.05 277.63) rotate(180)"/><rect class="cls-4" x="149.61" y="73.87" width="215.82" height="123.18" transform="translate(515.04 270.92) rotate(180)"/><g class="cls-5"><path class="cls-6" d="M363.55,75.75V195.17H151.49V75.75H363.55m1.88-1.88H149.61V197.05H365.43V73.87Z"/></g><path class="cls-3" d="M386,226.73l-13.4-18.47H142.45l-13.39,18.47c-2.06,2.84,0,8.27,3.47,8.27h250C386.06,235,388.09,229.57,386,226.73Z"/><path class="cls-7" d="M386.84,229.34c0,2.19-1.79,5.66-4.29,5.66h-250c-2.5,0-4.23-3.47-4.29-5.66Z"/><path class="cls-8" d="M346.69,212.16h8.58c.55,0,.93-.11.83-.24l-.31-.42a2.08,2.08,0,0,0-1.17-.24H346.1c-.55,0-.93.11-.85.24l.28.42A2,2,0,0,0,346.69,212.16Z"/><path class="cls-8" d="M332.89,212.16h8.57c.56,0,.94-.11.86-.24l-.27-.42a1.91,1.91,0,0,0-1.14-.24h-8.52c-.55,0-.94.11-.87.24l.23.42A1.86,1.86,0,0,0,332.89,212.16Z"/><path class="cls-8" d="M319.08,212.16h8.58c.55,0,.95-.11.88-.24l-.22-.42a1.81,1.81,0,0,0-1.12-.24h-8.52c-.56,0-1,.11-.9.24l.19.42C318,212.05,318.53,212.16,319.08,212.16Z"/><path class="cls-8" d="M305.28,212.16h8.57c.56,0,1-.11.91-.24l-.18-.42c-.05-.13-.55-.24-1.1-.24H305c-.55,0-1,.11-.92.24l.15.42C304.24,212.05,304.72,212.16,305.28,212.16Z"/><path class="cls-8" d="M291.47,212.16h8.58c.55,0,1-.11.93-.24l-.14-.42c0-.13-.52-.24-1.07-.24h-8.52c-.55,0-1,.11-.94.24l.1.42C290.44,212.05,290.92,212.16,291.47,212.16Z"/><path class="cls-8" d="M277.67,212.16h8.57c.56,0,1-.11,1-.24l-.09-.42c0-.13-.5-.24-1.05-.24h-8.52c-.55,0-1,.11-1,.24l.06.42C276.65,212.05,277.11,212.16,277.67,212.16Z"/><path class="cls-8" d="M263.86,212.16h8.58c.55,0,1-.11,1-.24l-.05-.42c0-.13-.47-.24-1-.24h-8.52c-.55,0-1,.11-1,.24v.42C262.85,212.05,263.31,212.16,263.86,212.16Z"/><path class="cls-8" d="M250.06,212.16h8.57c.56,0,1-.11,1-.24v-.42c0-.13-.45-.24-1-.24h-8.52c-.55,0-1,.11-1,.24l0,.42C249.06,212.05,249.5,212.16,250.06,212.16Z"/><path class="cls-8" d="M236.25,212.16h8.58c.55,0,1-.11,1-.24l0-.42c0-.13-.42-.24-1-.24h-8.51c-.56,0-1,.11-1,.24l-.08.42C235.27,212.05,235.7,212.16,236.25,212.16Z"/><path class="cls-8" d="M222.45,212.16H231c.56,0,1-.11,1.06-.24l.08-.42c0-.13-.4-.24-.95-.24h-8.52c-.55,0-1,.11-1.06.24l-.12.42C221.47,212.05,221.89,212.16,222.45,212.16Z"/><path class="cls-8" d="M208.64,212.16h8.58c.55,0,1-.11,1.08-.24l.13-.42c0-.13-.38-.24-.93-.24H209c-.55,0-1,.11-1.09.24l-.16.42C207.68,212.05,208.09,212.16,208.64,212.16Z"/><path class="cls-8" d="M194.84,212.16h8.57c.56,0,1.05-.11,1.11-.24l.17-.42c.05-.13-.35-.24-.9-.24h-8.52c-.55,0-1.05.11-1.11.24l-.21.42C193.88,212.05,194.28,212.16,194.84,212.16Z"/><path class="cls-8" d="M177.87,212.16h11.74a1.85,1.85,0,0,0,1.13-.24l.22-.42c.06-.13-.33-.24-.88-.24H178.42a2,2,0,0,0-1.14.23l-.27.43C176.93,212.05,177.32,212.16,177.87,212.16Z"/><path class="cls-8" d="M160.83,212.16h11.81a2,2,0,0,0,1.16-.24l.28-.43c.08-.12-.3-.23-.85-.23H161.49a2.08,2.08,0,0,0-1.17.24l-.32.42C159.91,212.05,160.28,212.16,160.83,212.16Z"/><path class="cls-8" d="M351.67,219.65h9.06c.59,0,1-.12.87-.26l-1-1.38a2.21,2.21,0,0,0-1.24-.25h-8.94c-.58,0-1,.11-.88.25l.9,1.38A2.14,2.14,0,0,0,351.67,219.65Z"/><path class="cls-8" d="M337.08,219.65h9.06c.59,0,1-.12.9-.26l-.87-1.38a2,2,0,0,0-1.21-.25H336c-.58,0-1,.11-.91.25l.76,1.38A2,2,0,0,0,337.08,219.65Z"/><path class="cls-8" d="M322.49,219.65h9.07c.58,0,1-.12.92-.26l-.73-1.38c-.07-.14-.6-.25-1.18-.25h-8.94c-.58,0-1,.11-.93.25l.61,1.38C321.38,219.53,321.91,219.65,322.49,219.65Z"/><path class="cls-8" d="M307.91,219.65H317c.59,0,1-.12.95-.26l-.58-1.38c-.06-.14-.58-.25-1.16-.25h-8.94c-.58,0-1,.11-1,.25l.47,1.38C306.8,219.53,307.32,219.65,307.91,219.65Z"/><path class="cls-8" d="M250,219.65h52c.8,0,1.43-.09,1.39-.19l-.48-1.52a3.47,3.47,0,0,0-1.5-.18H250.07a3.14,3.14,0,0,0-1.45.18l-.11,1.52C248.5,219.56,249.15,219.65,250,219.65Z"/><path class="cls-8" d="M235,219.65H244c.59,0,1.07-.12,1.09-.26l.14-1.38c0-.14-.45-.25-1-.25h-8.94c-.58,0-1.07.11-1.09.25l-.25,1.38C233.93,219.53,234.38,219.65,235,219.65Z"/><path class="cls-8" d="M220.38,219.65h9.06c.59,0,1.09-.12,1.12-.26l.28-1.38c0-.14-.42-.25-1-.25H220.9c-.58,0-1.08.11-1.12.25l-.39,1.38C219.35,219.53,219.79,219.65,220.38,219.65Z"/><path class="cls-8" d="M205.79,219.65h9.07c.58,0,1.09-.12,1.14-.26l.42-1.38c.05-.14-.39-.25-1-.25h-8.94c-.58,0-1.09.11-1.14.25l-.54,1.38C204.78,219.53,205.21,219.65,205.79,219.65Z"/><path class="cls-8" d="M172.48,219.65h10.18c.59,0,1.13-.12,1.2-.26l.12-.22c.08-.14-.33-.25-.92-.25H172.93a2,2,0,0,0-1.21.25l-.14.22C171.49,219.53,171.89,219.65,172.48,219.65Z"/><path class="cls-8" d="M156.44,219.65h10.18a2.1,2.1,0,0,0,1.23-.26l.14-.22c.09-.14-.3-.25-.89-.25H157a2.19,2.19,0,0,0-1.24.25l-.16.22C155.46,219.53,155.85,219.65,156.44,219.65Z"/><path class="cls-8" d="M188.53,219.65h10.18c.58,0,1.11-.12,1.17-.26l.09-.22c.06-.14-.36-.25-.95-.25H188.89c-.58,0-1.11.11-1.18.25l-.11.22C187.52,219.53,187.94,219.65,188.53,219.65Z"/><path class="cls-8" d="M173.2,218.48h10.1c.58,0,1.12-.12,1.19-.26l.11-.21c.08-.14-.33-.25-.91-.25h-10a2,2,0,0,0-1.21.25l-.13.21C172.22,218.36,172.62,218.48,173.2,218.48Z"/><path class="cls-8" d="M347.82,213.85h8.68c.56,0,.94-.11.84-.24l-.62-.85a2.14,2.14,0,0,0-1.19-.24h-8.6c-.55,0-.94.11-.85.24l.56.85A2,2,0,0,0,347.82,213.85Z"/><path class="cls-8" d="M333.83,213.85h8.69c.56,0,1-.11.87-.24l-.54-.85a2,2,0,0,0-1.16-.24h-8.6c-.56,0-.95.11-.88.24l.47.85A1.93,1.93,0,0,0,333.83,213.85Z"/><path class="cls-8" d="M319.85,213.85h8.69c.56,0,1-.11.89-.24l-.45-.85a1.83,1.83,0,0,0-1.13-.24h-8.6c-.56,0-1,.11-.9.24l.38.85C318.79,213.74,319.29,213.85,319.85,213.85Z"/><path class="cls-8" d="M305.87,213.85h8.69c.56,0,1-.11.91-.24l-.36-.85c-.05-.13-.55-.24-1.1-.24H305.4c-.55,0-1,.11-.92.24l.29.85C304.82,213.74,305.31,213.85,305.87,213.85Z"/><path class="cls-8" d="M291.89,213.85h8.69c.56,0,1-.11.94-.24l-.27-.85c-.05-.13-.53-.24-1.09-.24h-8.6c-.56,0-1,.11-.95.24l.2.85C290.85,213.74,291.33,213.85,291.89,213.85Z"/><path class="cls-8" d="M277.91,213.85h8.68c.57,0,1-.11,1-.24l-.18-.85c0-.13-.5-.24-1.06-.24h-8.6c-.56,0-1,.11-1,.24l.12.85C276.87,213.74,277.34,213.85,277.91,213.85Z"/><path class="cls-8" d="M263.93,213.85h8.68c.56,0,1-.11,1-.24l-.09-.85c0-.13-.48-.24-1-.24h-8.6c-.56,0-1,.11-1,.24l0,.85C262.9,213.74,263.36,213.85,263.93,213.85Z"/><path class="cls-8" d="M249.94,213.85h8.69c.56,0,1-.11,1-.24v-.85c0-.13-.45-.24-1-.24H250c-.55,0-1,.11-1,.24l-.07.85C248.93,213.74,249.38,213.85,249.94,213.85Z"/><path class="cls-8" d="M236,213.85h8.69c.56,0,1-.11,1-.24l.09-.85c0-.13-.43-.24-1-.24h-8.6c-.56,0-1,.11-1.05.24l-.15.85C235,213.74,235.4,213.85,236,213.85Z"/><path class="cls-8" d="M222,213.85h8.69c.56,0,1-.11,1.06-.24l.18-.85c0-.13-.41-.24-1-.24h-8.6c-.56,0-1,.11-1.08.24l-.24.85C221,213.74,221.42,213.85,222,213.85Z"/><path class="cls-8" d="M208,213.85h8.69c.56,0,1.05-.11,1.09-.24l.26-.85c0-.13-.38-.24-.94-.24h-8.6c-.55,0-1.05.11-1.1.24l-.33.85C207,213.74,207.44,213.85,208,213.85Z"/><path class="cls-8" d="M194,213.85h8.68c.57,0,1.07-.11,1.12-.24l.35-.85c.06-.13-.35-.24-.91-.24h-8.6c-.56,0-1.06.11-1.12.24l-.42.85C193.05,213.74,193.46,213.85,194,213.85Z"/><path class="cls-8" d="M176.83,213.85h11.89c.56,0,1.08-.11,1.14-.24l.45-.85c.06-.13-.33-.24-.89-.24H177.65a2,2,0,0,0-1.16.23l-.53.86C175.88,213.74,176.27,213.85,176.83,213.85Z"/><path class="cls-8" d="M159.58,213.85h12a2,2,0,0,0,1.17-.24l.55-.86c.09-.13-.3-.23-.85-.23H160.56a2.12,2.12,0,0,0-1.18.24l-.64.85C158.64,213.74,159,213.85,159.58,213.85Z"/><path class="cls-8" d="M342.45,215.59h14.93c.79,0,1.36-.08,1.29-.18l-.75-1a3.89,3.89,0,0,0-1.53-.18H341.61c-.77,0-1.35.08-1.29.18l.61,1A3.78,3.78,0,0,0,342.45,215.59Z"/><path class="cls-8" d="M321,215.58H336c.78,0,1.37-.08,1.31-.18l-.58-1a3.69,3.69,0,0,0-1.5-.18H320.4c-.77,0-1.36.08-1.32.18l.45,1A3.55,3.55,0,0,0,321,215.58Z"/><path class="cls-8" d="M306.48,215.58h8.8c.57,0,1-.11.93-.24l-.37-.88c-.06-.13-.56-.24-1.13-.24H306c-.56,0-1,.11-.94.24l.3.88C305.41,215.47,305.91,215.58,306.48,215.58Z"/><path class="cls-8" d="M292.32,215.58h8.8c.57,0,1-.11.95-.24l-.28-.88c0-.13-.53-.24-1.1-.24H292c-.56,0-1,.11-1,.24l.21.88C291.26,215.47,291.75,215.58,292.32,215.58Z"/><path class="cls-8" d="M278.15,215.58H287c.57,0,1-.11,1-.24l-.19-.88c0-.13-.5-.24-1.07-.24H278c-.56,0-1,.11-1,.24l.12.88C277.11,215.47,277.58,215.58,278.15,215.58Z"/><path class="cls-8" d="M264,215.58h8.8c.57,0,1-.11,1-.24l-.09-.88c0-.13-.49-.24-1.05-.24h-8.71c-.56,0-1,.11-1,.24l0,.88C263,215.47,263.42,215.58,264,215.58Z"/><path class="cls-8" d="M249.83,215.58h8.8c.57,0,1-.11,1-.24v-.88c0-.13-.46-.24-1-.24h-8.71c-.57,0-1,.11-1,.24l-.07.88C248.8,215.47,249.26,215.58,249.83,215.58Z"/><path class="cls-8" d="M235.66,215.58h8.8c.57,0,1-.11,1.06-.24l.09-.88c0-.13-.44-.24-1-.24H235.9c-.57,0-1,.11-1.07.24l-.15.88C234.65,215.47,235.09,215.58,235.66,215.58Z"/><path class="cls-8" d="M221.5,215.58h8.8c.57,0,1.06-.11,1.08-.24l.18-.88c0-.13-.41-.24-1-.24h-8.71c-.57,0-1,.11-1.09.24l-.25.88C220.5,215.47,220.93,215.58,221.5,215.58Z"/><path class="cls-8" d="M207.34,215.58h8.8c.57,0,1.06-.11,1.11-.24l.26-.88c.05-.13-.38-.24-.94-.24h-8.71c-.57,0-1.07.11-1.12.24l-.34.88C206.35,215.47,206.77,215.58,207.34,215.58Z"/><path class="cls-8" d="M193.18,215.58H202c.57,0,1.07-.11,1.13-.24l.36-.88c.05-.13-.36-.24-.92-.24h-8.71c-.57,0-1.08.11-1.14.24l-.43.88C192.2,215.47,192.61,215.58,193.18,215.58Z"/><path class="cls-8" d="M179.32,215.58h8.8c.57,0,1.09-.11,1.16-.25l.45-.87c.07-.13-.33-.24-.9-.24h-8.71a2,2,0,0,0-1.16.24l-.52.87C178.36,215.47,178.76,215.58,179.32,215.58Z"/><path class="cls-8" d="M158.67,215.58h14.71a3.78,3.78,0,0,0,1.52-.18l.63-1c.06-.09-.52-.17-1.3-.17H159.68a3.93,3.93,0,0,0-1.53.18l-.76,1C157.32,215.5,157.89,215.58,158.67,215.58Z"/><path class="cls-8" d="M335.8,217.36h23.27c.57,0,1-.11.86-.25l-.67-.9a2.2,2.2,0,0,0-1.21-.24H335c-.57,0-1,.11-.9.24l.5.9C334.69,217.25,335.22,217.36,335.8,217.36Z"/><path class="cls-8" d="M321.45,217.36h8.92c.58,0,1-.11.91-.25l-.47-.9a2,2,0,0,0-1.17-.24h-8.82c-.57,0-1,.11-.93.24l.41.9C320.36,217.25,320.88,217.36,321.45,217.36Z"/><path class="cls-8" d="M307.1,217.37H316c.58,0,1-.11.94-.25l-.38-.9c-.06-.13-.57-.24-1.14-.24h-8.83c-.57,0-1,.11-.95.24l.31.9C306,217.25,306.53,217.37,307.1,217.37Z"/><path class="cls-8" d="M292.75,217.36h8.92c.58,0,1-.11,1-.25l-.28-.9c-.05-.13-.54-.24-1.11-.24h-8.83c-.57,0-1,.11-1,.24l.21.9C291.68,217.25,292.18,217.36,292.75,217.36Z"/><path class="cls-8" d="M278.41,217.36h8.91c.58,0,1-.11,1-.25l-.19-.9c0-.13-.52-.24-1.09-.24h-8.82c-.57,0-1,.11-1,.24l.12.9C277.35,217.25,277.83,217.36,278.41,217.36Z"/><path class="cls-8" d="M264.06,217.36H273c.58,0,1-.11,1-.25l-.1-.9c0-.13-.49-.24-1.06-.24H264c-.57,0-1,.11-1,.24l0,.9C263,217.25,263.48,217.36,264.06,217.36Z"/><path class="cls-8" d="M249.71,217.36h8.91c.58,0,1.05-.11,1.05-.25v-.9c0-.13-.46-.24-1-.24H249.8c-.57,0-1,.11-1.05.24l-.07.9C248.67,217.25,249.13,217.36,249.71,217.36Z"/><path class="cls-8" d="M235.36,217.37h8.91c.58,0,1.06-.11,1.07-.25l.09-.9c0-.13-.44-.24-1-.24H235.6c-.57,0-1.06.11-1.08.24l-.16.9C234.33,217.25,234.78,217.37,235.36,217.37Z"/><path class="cls-8" d="M221,217.36h8.92c.57,0,1.06-.12,1.09-.26l.18-.9c0-.13-.41-.24-1-.24H221.4c-.58,0-1.07.11-1.11.24l-.25.9C220,217.25,220.43,217.36,221,217.36Z"/><path class="cls-8" d="M206.66,217.36h8.92c.57,0,1.08-.11,1.12-.25l.28-.9c0-.13-.39-.24-1-.24h-8.83c-.57,0-1.07.11-1.13.24l-.35.9C205.66,217.25,206.08,217.36,206.66,217.36Z"/><path class="cls-8" d="M192.31,217.36h8.92c.57,0,1.09-.11,1.15-.25l.37-.9c.05-.13-.36-.24-.94-.24H193a1.92,1.92,0,0,0-1.16.24l-.44.9C191.32,217.25,191.74,217.36,192.31,217.36Z"/><path class="cls-8" d="M157,217.37h29.91c.58,0,1.1-.11,1.17-.25l.47-.9c.07-.13-.34-.24-.91-.24H158a2.22,2.22,0,0,0-1.22.24l-.68.9C156,217.25,156.39,217.37,157,217.37Z"/><path class="cls-8" d="M232.76,226.87h51.65c.76,0,1.33-.72,1-1.23l-2.68-3.72a.84.84,0,0,0-.7-.32H235.16a.87.87,0,0,0-.7.32l-2.67,3.72C231.42,226.15,232,226.87,232.76,226.87Z"/><line class="cls-9" x1="149.61" y1="197.05" x2="365.43" y2="197.05"/><path class="cls-10" d="M381.76,181.11c-3.67,4.13.24,18.95,5.43,21,1.61.64,4.36-1.51,8.33-6.35,4.13-5,.66-9.06.66-9.06C392,186,381.76,181.11,381.76,181.11Z"/><path class="cls-11" d="M231,133.14s-.57,6.8,2.83,10.62,7.08,11.33,7.08,11.33,5.24-11,7.65-14.58S257.87,129,258,121.67s-11.9-18.41-11.9-18.41-6.66,11.89-7.22,18.69S231,133.14,231,133.14Z"/><path class="cls-12" d="M298.51,52.28S294.83,71.81,298,76c1.88,2.46,9.43,9.63,9.43,9.63S300.8,104,293.06,104.54C256.55,106.86,268.27,84,268.27,84s7.35-4.87,8.61-8.25-.75-15.43-.75-15.43Z"/><path class="cls-12" d="M298,76c.12.17.28.36.45.56-5.83,2.56-12.56,2.93-18.89,2.65-1.65-.07-3.3-.21-5-.37a9.88,9.88,0,0,0,2.23-3.09c1.26-3.37-.75-15.43-.75-15.43l22.38-8S294.83,71.81,298,76Z"/><path class="cls-13" d="M248.36,197c1.9-4.62,4-8.67,4-8.67l65.65-.19s.36,3.25.86,8.86Z"/><path class="cls-14" d="M249.65,197c-.65-.53-1-.86-1-.86s4.33-75.95,5.53-84.68,4.17-26.19,4.17-26.19l13.08-4s-5.6,11,9.67,13c21.72,2.83,26-12.21,26-12.21l14.67,10.08L320.15,197Z"/><path class="cls-15" d="M269.5,197h6.69s-2.35-19.3-4-43.67c-1.6-22.94-1.67-44.62-1.67-44.62s-2.07,25-2.07,39.54S269.5,197,269.5,197Z"/><path class="cls-15" d="M293.19,109.12s-4.74,25.66-5.16,46.69c-.36,18.13.91,40.8.91,40.8h7.2l5-45Z"/><path class="cls-11" d="M300.7,52s-.3-6.39,5.06-6.22c3.41.1,3.68,3.23,1,7.27-1.12,1.7-1.24,5.55-2.63,6.79-1.69,1.5-3.11-.82-3.62-1.87C299.68,56.25,300.7,52,300.7,52Z"/><path class="cls-11" d="M271.85,52s.3-6.39-5.06-6.22c-3.41.1-3.68,3.23-1,7.27,1.12,1.7,1.24,5.55,2.63,6.79,1.69,1.5,3.11-.82,3.62-1.87C272.87,56.25,271.85,52,271.85,52Z"/><path class="cls-11" d="M306.12,36.39a59.73,59.73,0,0,1-1.08,6.5c-.12.74-.26,1.59-.4,2.57-1.11,7.68-2.51,18.11-3.12,19.66-1,2.58-6.48,6.76-9.08,8.29s-9.15,1.22-11.75-.31-8.49-5.4-9.49-8c-.61-1.58-2.07-12.31-3.18-20.11-.13-.89-.25-1.66-.37-2.34a58,58,0,0,1-1-6.28c-.4-6.48,6.89-15.9,19.76-15.9C301.59,20.49,306.53,29.91,306.12,36.39Z"/><path class="cls-16" d="M305.54,41.23,305,42.79l.06.1c-.12.74-.26,1.59-.4,2.57-.27,1.87-.56,3.9-.85,5.93L301.63,54c1-3,1.66-9.29,2-11.32v0a25.3,25.3,0,0,1-2.3-10l-.8-5.17-3.46.15c-.49-.51-8-.23-14.49.27-8.25.63-10.72,3.57-10.72,3.57-.48,3.1-1.1,7.82-2.67,10.53l-.09.15-.12.21c.38,2,.55,7.77,1.71,11l-1.73-2c-.32-2.19-.62-4.38-.91-6.38,0-.29-.08-.54-.12-.8v0s-.35-1.19-.83-2.86c-.36-1.24-1.24-7.58-1.45-8.47-.07-.28-.13-.55-.18-.82-.76-4,.86-18.72,23.59-16.93.27,0,.54.06.81.09,7.49,1,10.93,4.52,10.93,4.52l2.56,4.52c4.26.64,4.72,3.1,3.74,8C307,32.45,306,40,305.54,41.23Z"/><path class="cls-11" d="M225.58,128.47c1.14,3.4,1.14,6.94,1.14,11.61s-.43,12.75,2.26,14.73,6.52,5.81,9.78,2.69,5-8.07,5.38-12.75-4.82-11.47-7.23-15.57Z"/><path class="cls-17" d="M333.36,97.76C329.44,93.37,307.07,82,307.07,82s-13.68,29.47-15,46.06c-1,12.2-1.33,43.81,0,54.43.38,3,.86,8.34,1.35,14.46h30.8c-.09-8.1,1.18-41.92.49-55.06C324.07,129.94,333.36,97.76,333.36,97.76Z"/><path class="cls-18" d="M301.85,79.06A162.16,162.16,0,0,0,291,123.57c-2.66,25.89,1.08,59,1.08,59l11.71-61.73-5.07-7.3,7.73-4.68L307.07,82Z"/><path class="cls-17" d="M258.36,85.26c-6.87,3.18-8.12,5.67-12.1,14.63s-28.78,22.83-28.78,22.83,8.43,26.74,5.94,34.2c3.07-2.35,25.1-14.82,30.08-24.28C260.69,119,258.36,85.26,258.36,85.26Z"/><path class="cls-17" d="M272.81,197h-27q.15-5.55.43-11.8c1.52-33,2-62.86,4.34-80.81,1.09-8.34,7.76-19.12,7.76-19.12l10.8-3-2,29.62s3.48,49.78,5,65.21C272.63,182,272.8,189.35,272.81,197Z"/><rect class="cls-18" x="300.31" y="181.31" width="17.49" height="3.7"/><rect class="cls-18" x="250.8" y="181.31" width="17.49" height="3.7"/><path class="cls-18" d="M273.14,79.23s-3,56.17-2.32,74.09S273,185.26,273,185.26L260.2,128.1l4.9-12.38-4.9-7.53,9-26Z"/><g id="_Group_" data-name="&lt;Group&gt;"><path class="cls-19" d="M401.54,194.78h-.16A.3.3,0,0,1,401.54,194.78Z"/><path class="cls-11" d="M400,200.13c1.43,2.34,4.74,3.85,7.42,4.85s4.24.75,6.51,2.17,6.5,2.48,7.53,2.93a3.58,3.58,0,0,0,3.18.2c1-.56-.54-1.44-2-2.18s-2.4-1.27-4.11-2.34a11.26,11.26,0,0,1-2.53-2.08,28.57,28.57,0,0,0,4,1.35c4,1,5.35,1.35,6.82,1.87,1.86.65,3.42.46,4-.22.71-.9-.48-1.66-1.9-2.27-.74-.33-1.78-.62-5.85-2.22-1.8-.7-4.46-1.66-4.46-1.66l4.52.86,5.26,1c5.84,1,5.84,1,6.54.23s-.42-2.18-2.85-2.49c-1-.13-3.45-1.1-7.08-2.09a24.59,24.59,0,0,1-8.56-4.33s-5.82-4.71-6.36-5.45-4.46,4.31-4.46,4.31l-5,2.5S398.49,197.71,400,200.13Z"/><path class="cls-11" d="M416.84,196.19a22.16,22.16,0,0,1,6.4.39c2.52.56,5.62.68,6.78,1s4.3-.34,3-1.8-2.73-1-5.61-1.67c-2.27-.53-6.5-1.69-7.92-2.15s-4.71-2.63-7.36-2.61a16.88,16.88,0,0,1-3.57-.29l-2.11,2.25L408,194Z"/><path class="cls-11" d="M402.36,187.33c1.93-1.32,5.67-2.86,8-2.44a10.12,10.12,0,0,0,5.76-1,36.05,36.05,0,0,0,3.55-1.66,2.87,2.87,0,0,1,1.1,2.88c-.49,1.69-3.69,3-4.6,3.38s-1.93,1.19-3.53,1.87-.5,3.57-4.67,5.61c-3.2,1.56-7.32-.25-7.4-.88C399.93,189.49,400.42,188.66,402.36,187.33Z"/></g><path class="cls-11" d="M401.7,188.54c-9.5-2.33-16.79-8.56-27.06-16-4.46-3.23-14.5-6.87-16.77-13.48-5.1-14.87-11.25-34-13.88-42.27-.89-2.78-15.27-5.74-19.86,4-2,4.14,3.16,14.57,7.34,25.11,5.91,14.92,12,28.61,20,32.65C359.77,182.72,387,196,400,200.13,401.84,196.12,404.18,192.25,401.7,188.54Z"/><path class="cls-17" d="M325.16,102.81c3-9.14,8.2-5,8.2-5S339,99.88,345,118.7s15.49,40.27,19.91,44.68,31.27,23.35,31.27,23.35-5.07,2.31-8.83,10.92c-.7,1.62-1.12,3.21-.16,4.49,0,0-34.9-14.15-39.95-20.46s-21-34.07-26.08-42.9S321.37,114.17,325.16,102.81Z"/><path class="cls-20" d="M211.09,90.41c-5.32-3-10,3-9.58,6.43s5.38,1.81,5.38,1.81Z"/><path class="cls-21" d="M208.62,137.56c-7.5-12.57-7.11-40.73-7.11-40.73,3.31,2.86,9.25,1.84,13.54-4.24,0,0-.6-1.37.35,5.58.74,5.52,1.63,11.63,2.28,16A233.86,233.86,0,0,1,208.62,137.56Z"/><rect class="cls-22" x="205.64" y="83.47" width="55.59" height="80.15" rx="2.31" ry="2.31" transform="translate(466.88 247.08) rotate(180)"/><rect class="cls-23" x="209.33" y="88.92" width="46.23" height="69.97" transform="translate(464.88 247.81) rotate(180)"/><rect class="cls-8" x="211.32" y="86.74" width="46.23" height="69.97" transform="translate(468.87 243.44) rotate(180)"/><rect class="cls-24" x="218" y="81.2" width="30.88" height="6.9" transform="translate(466.88 169.3) rotate(180)"/><rect class="cls-25" x="218.14" y="101.61" width="12.31" height="4.98"/><rect class="cls-26" x="218.14" y="111.05" width="27.23" height="3.65"/><rect class="cls-27" x="218.14" y="122.21" width="26.45" height="1.34"/><rect class="cls-25" x="217.91" y="127.06" width="19.4" height="0.44"/><rect class="cls-27" x="217.91" y="131.49" width="34.28" height="0.44"/><rect class="cls-27" x="217.91" y="133.83" width="34.28" height="0.44"/><rect class="cls-27" x="217.91" y="136.17" width="34.28" height="0.44"/><rect class="cls-27" x="217.91" y="138.51" width="34.28" height="0.44"/><rect class="cls-27" x="217.91" y="140.85" width="34.28" height="0.44"/><rect class="cls-27" x="217.91" y="143.19" width="15.67" height="0.44"/><rect class="cls-27" x="218.14" y="119.33" width="33.92" height="1.34"/><rect class="cls-27" x="218.14" y="116.45" width="33.92" height="1.34"/><path class="cls-11" d="M207.16,79.38c5-.11,8.21,1,8.54,1.91.72,2-.79,2.44-3.36,2.82a36.17,36.17,0,0,1-5.64.18C204.67,84.38,204.58,79.44,207.16,79.38Z"/><path class="cls-11" d="M205.68,82.48c5.23,1,10.15,3.14,10.41,4.41.53,2.49-1.21,2.46-4.44,2.19s-4.48-.87-7-1.33S202.47,81.84,205.68,82.48Z"/><path class="cls-11" d="M204.67,87.24c3.65.21,8.27,1.77,8.78,2.77,1.33,2.58-1.38,2.75-4,2.52a43,43,0,0,1-5.62-1.08C201.82,91.08,202.11,87.1,204.67,87.24Z"/><path class="cls-11" d="M204.17,91.08c3.27,1,5.52,2,5.7,3.36.29,2.12-1.63,1.7-3.44,1.2a27.49,27.49,0,0,1-3.79-1.53C201.27,93.58,202.37,90.54,204.17,91.08Z"/><rect class="cls-28" x="94.97" y="66.41" width="27.35" height="61.39"/><rect class="cls-8" x="98.01" y="90.11" width="21.88" height="26.44"/><rect class="cls-28" x="100.03" y="93.25" width="15.8" height="2.63"/><rect class="cls-28" x="100.03" y="97.31" width="11.75" height="2.63"/><rect class="cls-8" x="98.41" y="71.27" width="5.47" height="6.28"/><path class="cls-25" d="M82,88.07V85.84H68.58v2.23h0A11.94,11.94,0,0,0,65,96.63V125.1a2.7,2.7,0,0,0,2.7,2.7H83a2.7,2.7,0,0,0,2.7-2.7V96.63A11.94,11.94,0,0,0,82,88.07Z"/><rect class="cls-8" x="68.58" y="85.32" width="13.46" height="2.74"/><rect class="cls-25" x="67.31" y="77.83" width="16" height="7.86" rx="0.95" ry="0.95"/><rect class="cls-25" x="64.88" y="97.39" width="20.91" height="24.16"/><rect class="cls-8" x="67.84" y="102.35" width="15.19" height="16.07"/><rect class="cls-8" x="69.91" y="100.37" width="11.04" height="0.95"/><path class="cls-26" d="M167.21,96.14h-6.8V93.91a4,4,0,0,0-3.95-4H144.29a4,4,0,0,0-3.95,4v2.23h-6.8a4,4,0,0,0-4,4v23.7a4,4,0,0,0,4,4h33.67a4,4,0,0,0,4-4v-23.7A4,4,0,0,0,167.21,96.14Zm-24.52-2.23a1.6,1.6,0,0,1,1.6-1.6h12.17a1.6,1.6,0,0,1,1.6,1.6v2.23H142.69Z"/><polygon class="cls-8" points="157.31 109.9 152.76 109.9 152.76 105.34 147.99 105.34 147.99 109.9 143.44 109.9 143.44 114.67 147.99 114.67 147.99 119.22 152.76 119.22 152.76 114.67 157.31 114.67 157.31 109.9"/><path class="cls-29" d="M346.46,19.4h72.29a0,0,0,0,1,0,0V59.75A24.35,24.35,0,0,1,394.4,84.1H346.46a24.35,24.35,0,0,1-24.35-24.35v-16A24.35,24.35,0,0,1,346.46,19.4Z" transform="translate(740.86 103.5) rotate(180)"/><rect class="cls-3" x="338.86" y="51.91" width="47.63" height="2.34"/><rect class="cls-3" x="338.86" y="43.58" width="61.08" height="2.34"/><rect class="cls-3" x="338.86" y="34.58" width="61.08" height="2.34"/><path class="cls-8" d="M161.93,187.83a4.11,4.11,0,0,1-4.11-4.11v-3.47h-1.13a2.16,2.16,0,0,0-2.16,2.16v6a2.16,2.16,0,0,0,2.16,2.15h.5v2.77l3.64-2.77h6a2.16,2.16,0,0,0,2.16-2.15v-.56Z"/><path class="cls-8" d="M176.68,174.34H161.93a2.49,2.49,0,0,0-2.49,2.49v6.89a2.48,2.48,0,0,0,2.49,2.49h10l4.21,3.19v-3.19h.57a2.49,2.49,0,0,0,2.49-2.49v-6.89A2.5,2.5,0,0,0,176.68,174.34Zm-11.62,7.27a1.13,1.13,0,1,1,0-2.26,1.13,1.13,0,0,1,0,2.26Zm4.24,0a1.13,1.13,0,1,1,1.13-1.13A1.13,1.13,0,0,1,169.3,181.61Zm4.25,0a1.13,1.13,0,0,1,0-2.26,1.13,1.13,0,0,1,0,2.26Z"/><circle class="cls-25" cx="180.12" cy="173.04" r="4.15"/><text class="cls-30" transform="translate(178.86 175.12)">3</text></g></g></svg>