<svg id="Layer_1" data-name="Layer 1" xmlns="http://www.w3.org/2000/svg" viewBox="0 0 500 250"><defs><style>.cls-1{fill:#3f3d56;}.cls-2{fill:#f83633;}.cls-14,.cls-3{fill:none;stroke-miterlimit:10;}.cls-3{stroke:#f2f2f2;stroke-width:3.4px;}.cls-4{fill:#f2f2f2;}.cls-5{fill:#a0aabb;}.cls-6{fill:#40eaea;}.cls-7{fill:#30b0b0;}.cls-8{fill:#fff;}.cls-9{fill:#dadada;}.cls-10{fill:#ba2926;}.cls-11{fill:#2f2e41;}.cls-12{fill:#ccc;}.cls-13{fill:#201f2b;}.cls-14{stroke:#2f2e41;stroke-width:1.13px;}.cls-15{fill:#e6e7e8;}.cls-16{fill:#bbbdbf;}</style></defs><title>illustration-finance</title><path class="cls-1" d="M283.36,22.64a8.09,8.09,0,0,1,9.67,1.3c4.88,4.62.83,13.31,1.94,15.72s4.44,1.93,4.44,1.93-1.57,3.54-7.12,1.65-4.42-14-4.42-14l-4.13-2.9s-1-1.63-.85-2.09A14.16,14.16,0,0,0,283.36,22.64Z"/><path class="cls-2" d="M283.93,22.12s4.17.77,3.63,5.94l-1.73-.52L282.66,23S282.27,22.6,283.93,22.12Z"/><path class="cls-3" d="M179.41,142.58S307.81,97.84,381.29,22.92"/><polygon class="cls-4" points="397.26 5 384.8 39.39 379.93 24.15 364.28 20.82 397.26 5"/><path class="cls-4" d="M436.32,237.39c0,4.2-83.42,7.61-186.32,7.61s-186.32-3.41-186.32-7.61,83.42-7.6,186.32-7.6S436.32,233.19,436.32,237.39Z"/><rect class="cls-5" x="179.91" y="167.73" width="36.72" height="69.12"/><rect class="cls-5" x="229.08" y="139.8" width="36.72" height="97.05"/><rect class="cls-5" x="278.24" y="113.03" width="36.72" height="123.82"/><rect class="cls-5" x="327.41" y="89.21" width="36.72" height="147.64"/><rect class="cls-5" x="376.57" y="61.84" width="36.72" height="175.01"/><rect class="cls-6" x="242.45" y="222.52" width="68.88" height="14.33" rx="1.35" ry="1.35"/><path class="cls-7" d="M309.23,234.69H244.55a2.1,2.1,0,0,1-2.1-2.1v2.16a2.1,2.1,0,0,0,2.1,2.1h64.68a2.1,2.1,0,0,0,2.1-2.1v-2.16A2.1,2.1,0,0,1,309.23,234.69Z"/><rect class="cls-7" x="245.3" y="222.52" width="2.79" height="14.33"/><rect class="cls-7" x="252.05" y="222.52" width="2.79" height="14.33"/><rect class="cls-7" x="258.8" y="222.52" width="2.79" height="14.33"/><rect class="cls-7" x="265.55" y="222.52" width="2.79" height="14.33"/><rect class="cls-7" x="272.31" y="222.52" width="2.79" height="14.33"/><rect class="cls-7" x="279.06" y="222.52" width="2.79" height="14.33"/><rect class="cls-7" x="285.81" y="222.52" width="2.79" height="14.33"/><rect class="cls-7" x="292.57" y="222.52" width="2.79" height="14.33"/><rect class="cls-7" x="299.32" y="222.52" width="2.79" height="14.33"/><rect class="cls-7" x="306.07" y="222.52" width="2.79" height="14.33"/><path class="cls-8" d="M309.23,222.52H244.55a2.1,2.1,0,0,0-2.1,2.1v1.56a2.1,2.1,0,0,1,2.1-2.1h64.68a2.1,2.1,0,0,1,2.1,2.1v-1.56A2.1,2.1,0,0,0,309.23,222.52Z"/><rect class="cls-6" x="228.12" y="208.34" width="68.88" height="14.33" rx="1.35" ry="1.35"/><path class="cls-7" d="M294.9,220.51H230.22a2.1,2.1,0,0,1-2.1-2.1v2.16a2.1,2.1,0,0,0,2.1,2.1H294.9a2.1,2.1,0,0,0,2.1-2.1v-2.16A2.1,2.1,0,0,1,294.9,220.51Z"/><rect class="cls-7" x="230.97" y="208.34" width="2.79" height="14.33"/><rect class="cls-7" x="237.72" y="208.34" width="2.79" height="14.33"/><rect class="cls-7" x="244.47" y="208.34" width="2.79" height="14.33"/><rect class="cls-7" x="251.23" y="208.34" width="2.79" height="14.33"/><rect class="cls-7" x="257.98" y="208.34" width="2.79" height="14.33"/><rect class="cls-7" x="264.73" y="208.34" width="2.79" height="14.33"/><rect class="cls-7" x="271.49" y="208.34" width="2.79" height="14.33"/><rect class="cls-7" x="278.24" y="208.34" width="2.79" height="14.33"/><rect class="cls-7" x="284.99" y="208.34" width="2.79" height="14.33"/><rect class="cls-7" x="291.74" y="208.34" width="2.79" height="14.33"/><path class="cls-8" d="M294.9,208.34H230.22a2.1,2.1,0,0,0-2.1,2.1V212a2.1,2.1,0,0,1,2.1-2.1H294.9A2.1,2.1,0,0,1,297,212v-1.56A2.1,2.1,0,0,0,294.9,208.34Z"/><rect class="cls-6" x="242.45" y="194.01" width="68.88" height="14.33" rx="1.34" ry="1.34"/><path class="cls-7" d="M309.23,206.18H244.55a2.1,2.1,0,0,1-2.1-2.1v2.16a2.1,2.1,0,0,0,2.1,2.1h64.68a2.1,2.1,0,0,0,2.1-2.1v-2.16A2.1,2.1,0,0,1,309.23,206.18Z"/><rect class="cls-7" x="245.3" y="194.01" width="2.79" height="14.33"/><rect class="cls-7" x="252.05" y="194.01" width="2.79" height="14.33"/><rect class="cls-7" x="258.8" y="194.01" width="2.79" height="14.33"/><rect class="cls-7" x="265.55" y="194.01" width="2.79" height="14.33"/><rect class="cls-7" x="272.31" y="194.01" width="2.79" height="14.33"/><rect class="cls-7" x="279.06" y="194.01" width="2.79" height="14.33"/><rect class="cls-7" x="285.81" y="194.01" width="2.79" height="14.33"/><rect class="cls-7" x="292.57" y="194.01" width="2.79" height="14.33"/><rect class="cls-7" x="299.32" y="194.01" width="2.79" height="14.33"/><rect class="cls-7" x="306.07" y="194.01" width="2.79" height="14.33"/><path class="cls-8" d="M309.23,194H244.55a2.1,2.1,0,0,0-2.1,2.1v1.56a2.1,2.1,0,0,1,2.1-2.1h64.68a2.1,2.1,0,0,1,2.1,2.1v-1.56A2.1,2.1,0,0,0,309.23,194Z"/><path class="cls-9" d="M221.24,86.88s-4.28,2.53-5.69,2.76a32.5,32.5,0,0,1-5.05.56c-1.75-.18-2.42-4.91-1.83-6.51s4.47-.82,4.47-.82-2.33-.55-2.42-1.13,2.41-.83,3.57-.92a34.73,34.73,0,0,1,5.4.9Z"/><path class="cls-2" d="M244.27,66.24c1.56-1.17,7.31-6.5,12.38-11.27a33.92,33.92,0,0,1,18.53-8.63h0l-4.8,6.17L274,58.4S256.7,77.09,250.44,80.11s-29.58,8.19-29.58,8.19l-2.33-8.06S241.69,68.18,244.27,66.24Z"/><path class="cls-10" d="M263.44,61.84,253.2,78.35c4-3,9.7-8.5,14.11-13C267.17,64.69,263.44,61.84,263.44,61.84Z"/><path class="cls-10" d="M220.86,88.3l3.38-.77-2.67-8.87-3,1.58Z"/><path class="cls-11" d="M272,183.4,271.64,194H251.69s.88-5.68,9.55-5.68l.55-5.67Z"/><path class="cls-11" d="M285.86,183.4l.35,10.61h20s-.89-5.68-9.56-5.68l-.54-5.67Z"/><path class="cls-1" d="M261.89,105l-1,43.64.66,34.72H272s6.49-65.82,6.22-74.19S261.89,105,261.89,105Z"/><rect class="cls-1" x="267.31" y="96.7" width="21.66" height="27.2"/><path class="cls-1" d="M296,105.17V183.4H285.86s-9.5-69.53-9.23-77.9S296,105.17,296,105.17Z"/><polygon class="cls-12" points="283.74 44.41 283.27 39.66 275.19 41.73 275.19 46.34 272.04 54.5 276.19 55.34 279.7 53.32 283.74 44.41"/><path class="cls-12" d="M300.71,85.73h0v0Z"/><circle class="cls-7" cx="311.06" cy="143.69" r="27.03" transform="translate(111.14 421.97) rotate(-79.1)"/><circle class="cls-6" cx="311.06" cy="143.69" r="26.04" transform="translate(76.38 393.35) rotate(-71.57)"/><circle class="cls-7" cx="311.06" cy="143.69" r="21.63" transform="translate(111.14 421.97) rotate(-79.1)"/><circle class="cls-8" cx="311.06" cy="143.69" r="19.93" transform="translate(111.14 421.97) rotate(-79.1)"/><path class="cls-9" d="M323.89,128.45a19.92,19.92,0,0,1-28.07,28.07,19.92,19.92,0,1,0,28.07-28.07Z"/><path class="cls-6" d="M312.7,142.35a23.41,23.41,0,0,1,2.95,1.09,5.19,5.19,0,0,1,1.94,1.59,4.44,4.44,0,0,1,.8,2.75,4.76,4.76,0,0,1-.71,2.53,5,5,0,0,1-2.14,1.85,7.69,7.69,0,0,1-3.45.7h0v2h-1v-2.08a7.44,7.44,0,0,1-4.3-1.64A5.1,5.1,0,0,1,305,147.5h3.81A2.83,2.83,0,0,0,311.1,150v-5l-.51-.15a21.69,21.69,0,0,1-2.95-1.06,5,5,0,0,1-1.94-1.57,4.5,4.5,0,0,1-.8-2.78,4.42,4.42,0,0,1,.8-2.62,5.18,5.18,0,0,1,2.21-1.72,8.28,8.28,0,0,1,3.19-.64v-2.13h1v2.16a7,7,0,0,1,4.2,1.53,5.06,5.06,0,0,1,1.76,3.47h-3.86a2.68,2.68,0,0,0-.67-1.44,2.6,2.6,0,0,0-1.43-.77v4.82Zm-3.35-1.54a5.1,5.1,0,0,0,1.75,1v-4.57a2.81,2.81,0,0,0-1.74.59,1.87,1.87,0,0,0-.62,1.5A1.92,1.92,0,0,0,309.35,140.81Zm4.54,8.66a2.1,2.1,0,0,0,.66-1.61,1.91,1.91,0,0,0-.64-1.51,5.54,5.54,0,0,0-1.84-1v4.75A2.63,2.63,0,0,0,313.89,149.47Z"/><path class="cls-2" d="M297.89,51.44S312.39,72.35,314,79.12s1.6,30.65,1.6,30.65l-8.37.53S301.79,88,300.46,85.09s-8.55-13-11-17.1C284.87,60.59,289.32,39,297.89,51.44Z"/><path class="cls-9" d="M314.17,109.82l-5.38.34a34.89,34.89,0,0,0-2.1,5c-.06.42-.14,1.07-.19,1.66h1.93s-1.65,3.53-.22,4.47,6.18,1.35,6.76-.31a33.53,33.53,0,0,0,.6-5C315.66,114.56,314.17,109.82,314.17,109.82Z"/><path class="cls-2" d="M296.47,92.09c-1.17-4.92-.65-13.81.18-19.39s-3.86-25-3.86-25l-9.05-3.27c-2.82,5.68-7.34,8.25-8.56,7.59s0-5.66,0-5.66l-2.45,1.16c-3,3.08-7.39,8.06-9,13.38a14.08,14.08,0,0,0,1.42,11.5s-.39,11.7-1.76,18.79c-.71,3.68-2.54,10.1-1.47,13.87,1,3.57,5.55,2.11,11.61,1.38h0l1.68-6.54,2.25,6.36c5.95.23,12.69,2.42,18.15,1.33C297.24,107.23,298.87,102.22,296.47,92.09Z"/><path class="cls-10" d="M306.52,107.44c.44,1.75.71,2.86.71,2.86l8.37-.53s0-1.21,0-3.15Z"/><path class="cls-1" d="M283.48,39.85a67.66,67.66,0,0,0,4.37-6.78c.56-1.23.32-6.26-2.33-7.85,0,0-.27-2.48-4-3.2-2-.37-11-.42-12,5-.63,3.54,1.48,7,1.48,7l5.5.09Z"/><path class="cls-9" d="M284.61,36A8.52,8.52,0,0,1,275.93,44c-4.4-.23-5.8-10.94-4.44-14.81,0,0,1.2,1.87,4.79,1.52,6-.59,6,2,6,3.75,0,0,1.07-2.21,2.18-2.51s2.74,2.12.11,4Z"/><path class="cls-8" d="M274.38,71.21c1.48,0,14.35-25,14.35-25l-5-1.8c-2.82,5.68-7.34,8.25-8.56,7.59s0-5.66,0-5.66l-2.45,1.16,0,0A6.67,6.67,0,0,0,271,53.44S272.9,71.21,274.38,71.21Z"/><path class="cls-9" d="M276.63,80.66a1.45,1.45,0,1,1-1.45-1.45A1.44,1.44,0,0,1,276.63,80.66Z"/><path class="cls-9" d="M276.63,90.82a1.45,1.45,0,1,1-1.45-1.45A1.45,1.45,0,0,1,276.63,90.82Z"/><path class="cls-9" d="M179.41,110.72s4.28,2.52,5.69,2.76a32.5,32.5,0,0,0,5.05.56c1.75-.18,2.42-4.91,1.83-6.52s-4.46-.81-4.46-.81,2.32-.55,2.41-1.13-2.4-.83-3.57-.92a34.56,34.56,0,0,0-5.39.9Z"/><path class="cls-1" d="M115,77a65,65,0,0,1-4.63-6.62c-.61-1.21-.56-6.26,2-8,0,0,.18-2.49,3.93-3.34,2-.46,10.86.74,12.54,3.6.88,1.5-1.6,8.06-1.6,8.06l-5.51.3Z"/><polygon class="cls-9" points="114.96 82.02 115.42 77.26 123.53 79.34 123.53 83.95 126.68 92.13 122.52 92.96 119.01 90.94 114.96 82.02"/><path class="cls-8" d="M118.93,86.1s3.17,2.92,4.52-.53l.63.79s.19,1.62-.09,2-2.2.63-2.28.59l-1.33-.36Z"/><path class="cls-1" d="M105.26,160.58s5.18,16.77,2.79,25.22c-2.17,7.67-22.5,28.6-22.5,28.6L91,222.17S113.78,209,124.68,198c6.42-6.51,11.86-22.22,1.9-49.7l-11.69-3.69s-7,9.82-7.26,11.27S105.26,160.58,105.26,160.58Z"/><path class="cls-1" d="M132.06,146.93s11.57,16.69,20.13,30.6,13,47.95,13,47.95l-10.24,1.38s-11.29-30.65-26.76-45.05c-13.13-12.22-25.33-29.26-25.33-29.26Z"/><path class="cls-1" d="M153.24,98c-3-1.28-19.48-10.72-23.61-13.16l-7.16,12.47s21.2,14.15,28,15.64S181.18,114,181.18,114l.39-8.4S156.21,99.27,153.24,98Z"/><path class="cls-1" d="M129.8,102c6.35,4,15.23,9.26,19.79,10.68L135.32,99.44S133.11,96.38,129.8,102Z"/><polygon class="cls-11" points="181.64 103.08 177.18 102.3 178.2 114.03 181.18 114 181.64 103.08"/><path class="cls-8" d="M122.75,149.07l10.53-1.42s.59-39.61-1.22-49.42A22.7,22.7,0,0,0,123.53,84s1.21,5,0,5.67-5.74-1.9-8.57-7.6l-4.13,10.41L114,138.88l3.53,7.85Z"/><path class="cls-2" d="M123.53,106.29l4.37,6.4a48.17,48.17,0,0,0,3.11-4.35c0-.35-1.46-3.84-1.46-3.84l-5.89-15-1.84.81Z"/><path class="cls-1" d="M100.88,118.5s-2.69,36.19-1.62,40.24,18.11,1.72,22.84-.06,11-6.05,10.47-8.46-3.35-28.72-4.54-38.51A61.68,61.68,0,0,1,115,82s-7.64,2.08-11.79,4.76l2.63,10.47-.47,4.87Z"/><path class="cls-1" d="M100.52,89.68S86,110.63,84.39,117.41s-1.6,30.68-1.6,30.68l8.38.54s5.45-22.3,6.78-25.25,8.56-13,11.06-17.12C113.56,98.85,109.1,77.26,100.52,89.68Z"/><path class="cls-1" d="M123.53,82.5a23.16,23.16,0,0,1,7.85,3.41c3.68,2.59,4,7.83,3.92,14.73s-1,19.35,1.9,33.72S141.63,154,140,154.84c-3.89,1.88-6.13,1.31-6.76-1l-.32-1.31c-.81-3.26-3-23-4.86-40.78,2.81-15.12-1.4-22.78-4.5-27.76Z"/><path class="cls-11" d="M130.76,93.58l-2.11-1,.69-6.21-5.81-3.9V84c3.1,5,7.31,12.64,4.5,27.76C128,111.71,131.44,102.63,130.76,93.58Z"/><path class="cls-8" d="M123.53,84l-.22,4.38,1.4-1.32L126.83,89A28,28,0,0,0,123.53,84Z"/><path class="cls-11" d="M91,222.17l-5.45-7.77h-.39l-6.56,3.19,4.79,17.3,7.61,2a10.33,10.33,0,0,0-2.06-5.79Z"/><path class="cls-11" d="M154.92,226.86l1.43,10h20.34s-1.6-4.55-6.06-4.72l-5.47-6.65Z"/><path class="cls-9" d="M113.76,73.19a8.32,8.32,0,0,0,5.14,7.08,8.41,8.41,0,0,0,3.85.67c4.39-.39,5.39-11.16,3.88-15a9.08,9.08,0,0,1-5.89,1.44,28.57,28.57,0,0,1-4.82-.66,13.87,13.87,0,0,1-.13,4.49s-1-1.76-2.08-2-2.66,2.23.05,4Z"/><polygon class="cls-11" points="81.16 142.63 92.22 144.59 91.22 148.63 81.29 148.01 81.16 142.63"/><path class="cls-11" d="M115.44,93.52l-1.88,2.85s7.8,11.33,14.47,15.34A61.68,61.68,0,0,1,115,82l-4.13,6.49Z"/><path class="cls-11" d="M130.52,120.77a1.54,1.54,0,1,1-1.54-1.54A1.54,1.54,0,0,1,130.52,120.77Z"/><path class="cls-11" d="M132.06,132.72a1.54,1.54,0,1,1-1.54-1.53A1.54,1.54,0,0,1,132.06,132.72Z"/><rect class="cls-11" x="106.93" y="132.72" width="11.87" height="2.73" transform="translate(-7.33 6.53) rotate(-3.21)"/><path class="cls-8" d="M115,82l6.64,6.84-4.44-.72-1.35,1.68S114.76,84.07,115,82Z"/><path class="cls-2" d="M122.67,91.13s-2.29-.88-2.42-1.92,2.78-1.46,3.61-1.37.29,2.12-.17,3A.78.78,0,0,1,122.67,91.13Z"/><rect class="cls-13" x="63.68" y="161.17" width="47.95" height="30.54"/><rect class="cls-11" x="63.68" y="161.17" width="47.95" height="15.27"/><rect class="cls-14" x="80" y="155.96" width="15.31" height="15.27" rx="2.55" ry="2.55"/><path class="cls-6" d="M89.7,176.44a2,2,0,1,1-2-2A2,2,0,0,1,89.7,176.44Z"/><path class="cls-9" d="M84.49,148.2S83,153,83.09,154.38a33.51,33.51,0,0,0,.6,5.05c.57,1.66,5.34,1.24,6.77.31s-.22-4.54-.22-4.54,1.07,2.14,1.65,2.09.26-2.53.09-3.69a34.89,34.89,0,0,0-2.1-5Z"/><rect class="cls-15" x="185.38" y="80.5" width="29.04" height="37.88" transform="translate(-22.15 76.18) rotate(-20.47)"/><rect class="cls-16" x="185.14" y="88.15" width="5.81" height="5.81" transform="translate(-19.97 71.51) rotate(-20.47)"/><rect class="cls-16" x="192.04" y="85.42" width="5.81" height="1.49" transform="translate(-17.83 73.61) rotate(-20.47)"/><rect class="cls-16" x="192.8" y="87.1" width="9.72" height="1.49" transform="translate(-18.24 74.67) rotate(-20.47)"/><rect class="cls-16" x="187.37" y="94" width="21.81" height="1.19" transform="translate(-20.56 75.3) rotate(-20.47)"/><rect class="cls-16" x="188.28" y="96.44" width="21.81" height="1.19" transform="translate(-21.36 75.78) rotate(-20.47)"/><rect class="cls-16" x="189.2" y="98.88" width="21.81" height="1.19" transform="translate(-22.15 76.25) rotate(-20.47)"/><rect class="cls-16" x="190.11" y="101.32" width="21.81" height="1.19" transform="translate(-22.95 76.73) rotate(-20.47)"/><rect class="cls-16" x="191.02" y="103.76" width="21.81" height="1.19" transform="translate(-23.75 77.2) rotate(-20.47)"/><rect class="cls-16" x="191.93" y="106.21" width="21.81" height="1.19" transform="translate(-24.54 77.67) rotate(-20.47)"/><rect class="cls-16" x="192.84" y="108.65" width="21.81" height="1.19" transform="translate(-25.34 78.14) rotate(-20.47)"/><rect class="cls-16" x="193.75" y="111.09" width="21.81" height="1.19" transform="translate(-26.13 78.62) rotate(-20.47)"/><polygon class="cls-2" points="144.05 46.49 160.61 32.75 177.18 46.49 177.18 65.93 144.05 65.93 144.05 46.49"/><rect class="cls-15" x="149.16" y="35.58" width="22.92" height="22.55" rx="0.3" ry="0.3"/><rect class="cls-16" x="152.05" y="38.47" width="17.14" height="1.2"/><rect class="cls-16" x="152.05" y="40.84" width="17.14" height="1.2"/><rect class="cls-16" x="152.05" y="43.22" width="17.14" height="1.2"/><rect class="cls-16" x="152.05" y="45.59" width="17.14" height="1.2"/><rect class="cls-16" x="152.05" y="50.34" width="17.14" height="1.2"/><rect class="cls-16" x="152.05" y="47.97" width="17.14" height="1.2"/><rect class="cls-16" x="152.05" y="52.71" width="17.14" height="1.2"/><rect class="cls-16" x="152.05" y="55.09" width="17.14" height="1.2"/><polygon class="cls-2" points="144.05 46.49 157.79 56.21 144.05 65.93 144.05 46.49"/><polygon class="cls-2" points="177.18 46.49 163.44 56.21 177.18 65.93 177.18 46.49"/><polygon class="cls-10" points="163.45 56.21 157.79 56.21 157.79 56.2 144.05 65.93 177.18 65.93 163.45 56.21"/><g id="_Group_" data-name="&lt;Group&gt;"><g id="_Group_2" data-name="&lt;Group&gt;"><g id="_Group_3" data-name="&lt;Group&gt;"><g id="_Group_4" data-name="&lt;Group&gt;"><g id="_Group_5" data-name="&lt;Group&gt;"><g id="_Group_6" data-name="&lt;Group&gt;"><path id="_Compound_Path_" data-name="&lt;Compound Path&gt;" class="cls-1" d="M229,42.11h1.17a1,1,0,0,1,.81.62,7.61,7.61,0,0,0,.39.93,1,1,0,0,1-.12,1l-.84.83a1.51,1.51,0,0,0,0,2.12L231.78,49a1.51,1.51,0,0,0,2.13,0l.83-.83a.8.8,0,0,1,.59-.21.88.88,0,0,1,.41.08,8.47,8.47,0,0,0,.94.39,1,1,0,0,1,.63.81v1.17a1.5,1.5,0,0,0,1.49,1.5h1.92a1.5,1.5,0,0,0,1.5-1.5V49.22a1,1,0,0,1,.62-.81,7.61,7.61,0,0,0,.93-.39,1.12,1.12,0,0,1,.42-.08.8.8,0,0,1,.59.21l.84.83a1.46,1.46,0,0,0,1.06.44,1.47,1.47,0,0,0,1.06-.44l1.35-1.35a1.5,1.5,0,0,0,0-2.12l-.83-.83a1,1,0,0,1-.13-1,7.61,7.61,0,0,0,.39-.93,1,1,0,0,1,.81-.62h1.17a1.5,1.5,0,0,0,1.5-1.5V38.7a1.51,1.51,0,0,0-1.5-1.51h-1.17a1,1,0,0,1-.81-.62,8.33,8.33,0,0,0-.39-.93,1,1,0,0,1,.13-1l.83-.83a1.49,1.49,0,0,0,0-2.12l-1.35-1.36a1.52,1.52,0,0,0-1.06-.44,1.5,1.5,0,0,0-1.06.44l-.84.84a.85.85,0,0,1-.59.21,1,1,0,0,1-.42-.09,9.58,9.58,0,0,0-.93-.39,1,1,0,0,1-.62-.8V28.91a1.5,1.5,0,0,0-1.5-1.49H238.8a1.49,1.49,0,0,0-1.49,1.49v1.18a1,1,0,0,1-.63.8,9.58,9.58,0,0,0-.93.39,1,1,0,0,1-.41.09.85.85,0,0,1-.6-.21l-.83-.84a1.51,1.51,0,0,0-2.13,0l-1.35,1.36a1.51,1.51,0,0,0,0,2.12l.84.83a1,1,0,0,1,.12,1,8.33,8.33,0,0,0-.39.93,1,1,0,0,1-.81.62H229a1.51,1.51,0,0,0-1.5,1.51v1.91A1.51,1.51,0,0,0,229,42.11Zm6.35-2.46A4.39,4.39,0,1,1,239.76,44,4.4,4.4,0,0,1,235.37,39.65Z"/></g></g></g></g></g><g id="_Group_7" data-name="&lt;Group&gt;"><g id="_Group_8" data-name="&lt;Group&gt;"><g id="_Group_9" data-name="&lt;Group&gt;"><g id="_Group_10" data-name="&lt;Group&gt;"><g id="_Group_11" data-name="&lt;Group&gt;"><path id="_Compound_Path_2" data-name="&lt;Compound Path&gt;" class="cls-6" d="M220,58.7h.82a.69.69,0,0,1,.57.44c.08.22.17.44.27.65a.67.67,0,0,1-.09.71l-.58.58a1.06,1.06,0,0,0,0,1.49l1,1a1,1,0,0,0,.74.31,1.08,1.08,0,0,0,.75-.31l.58-.58a.57.57,0,0,1,.42-.15.58.58,0,0,1,.29.06c.21.1.43.19.65.27a.67.67,0,0,1,.44.57v.82a1,1,0,0,0,1,1h1.34a1.06,1.06,0,0,0,1.06-1v-.82a.67.67,0,0,1,.44-.57c.22-.08.44-.17.65-.27a.65.65,0,0,1,.29-.06.58.58,0,0,1,.42.15l.58.58a1.05,1.05,0,0,0,.74.31,1,1,0,0,0,.75-.31l.95-1a1,1,0,0,0,.31-.74,1.06,1.06,0,0,0-.31-.75l-.58-.58a.67.67,0,0,1-.09-.71c.1-.21.19-.43.27-.65a.67.67,0,0,1,.57-.44h.82a1.06,1.06,0,0,0,1.05-1.05V56.3a1.06,1.06,0,0,0-1.05-1h-.82a.67.67,0,0,1-.57-.44c-.08-.22-.17-.44-.27-.65a.67.67,0,0,1,.09-.71l.58-.59a1,1,0,0,0,0-1.48l-.95-1a1,1,0,0,0-.75-.31,1.05,1.05,0,0,0-.74.31l-.58.58a.59.59,0,0,1-.42.16.65.65,0,0,1-.29-.07,5.24,5.24,0,0,0-.65-.27.69.69,0,0,1-.44-.57v-.82a1.06,1.06,0,0,0-1.06-1h-1.34a1,1,0,0,0-1,1v.82a.69.69,0,0,1-.44.57,5.24,5.24,0,0,0-.65.27.73.73,0,0,1-.29.07A.57.57,0,0,1,224,51l-.58-.58a1.08,1.08,0,0,0-.75-.31,1,1,0,0,0-.74.31l-1,1a1,1,0,0,0,0,1.48l.58.59a.67.67,0,0,1,.09.71c-.1.21-.19.43-.27.65a.69.69,0,0,1-.57.44H220a1.06,1.06,0,0,0-1.05,1v1.35A1.06,1.06,0,0,0,220,58.7ZM224.44,57a3.08,3.08,0,1,1,3.08,3.08A3.09,3.09,0,0,1,224.44,57Z"/></g></g></g></g></g></g></svg>