<svg width="188" height="148" viewBox="0 0 188 148" fill="none" xmlns="http://www.w3.org/2000/svg">
<path d="M114.369 144.016C81.6774 144.016 55.176 117.514 55.176 84.8232C55.176 52.132 81.6774 25.6306 114.369 25.6306C147.06 25.6306 173.561 52.132 173.561 84.8232C173.561 117.514 147.06 144.016 114.369 144.016Z" fill="#F2F2F2"/>
<path d="M104.73 93.965C117.811 114.025 114.227 139.54 114.227 139.54C114.227 139.54 89.4343 132.53 76.3532 112.469C63.2722 92.4088 66.8564 66.8945 66.8564 66.8945C66.8564 66.8945 91.6492 73.9046 104.73 93.965Z" fill="#3F3D56"/>
<path d="M114.297 139.306C114.297 139.306 114.615 139.256 115.201 139.137C115.669 139.042 116.312 138.907 117.098 138.72C124.124 137.064 142.804 131.464 155.017 116.741C170.302 98.3049 169.659 72.5481 169.659 72.5481C169.659 72.5481 146.287 76.3457 130.886 92.9015C130.219 93.6129 129.57 94.3503 128.938 95.1136C115.638 111.154 114.398 132.738 114.3 138.073C114.287 138.873 114.297 139.306 114.297 139.306Z" fill="#40EAEA"/>
<path fill-rule="evenodd" clip-rule="evenodd" d="M123.724 93.965C110.643 114.025 114.227 139.54 114.227 139.54C114.227 139.54 139.02 132.53 152.101 112.469C165.182 92.4088 161.598 66.8945 161.598 66.8945C161.598 66.8945 136.805 73.9046 123.724 93.965Z" stroke="#3F3D56"/>
<path opacity="0.1" d="M114.3 138.073C114.646 138.49 114.951 138.846 115.201 139.137C115.757 139.77 116.072 140.102 116.072 140.102C116.072 140.102 116.455 139.621 117.098 138.72C120.632 133.794 131.997 116.28 131.12 96.0485C131.073 94.9882 130.995 93.9391 130.886 92.9014C130.219 93.6128 129.57 94.3502 128.938 95.1135C115.638 111.154 114.398 132.737 114.3 138.073Z" fill="black"/>
<path d="M94.9043 97.5116C95.9382 121.438 113.699 140.103 113.699 140.103C113.699 140.103 129.784 119.975 128.75 96.049C127.716 72.1228 109.955 53.458 109.955 53.458C109.955 53.458 93.8703 73.5854 94.9043 97.5116Z" fill="#40EAEA"/>
<path d="M113.699 139.425L109.794 54.4338" stroke="#3F3D56"/>
<path d="M91.5 147.178C40.9659 147.178 0 144.646 0 141.522C0 138.399 40.9659 135.867 91.5 135.867C142.034 135.867 183 138.399 183 141.522C183 144.646 142.034 147.178 91.5 147.178Z" fill="#3F3D56"/>
<path d="M167.812 139.444V116.602V139.444Z" fill="#3F3D56"/>
<path d="M167.812 139.444V116.602" stroke="#3F3D56" stroke-width="2"/>
<path d="M167.812 119.832C166.028 119.832 164.582 118.386 164.582 116.602C164.582 114.818 166.028 113.372 167.812 113.372C169.596 113.372 171.042 114.818 171.042 116.602C171.042 118.386 169.596 119.832 167.812 119.832Z" fill="#3F3D56"/>
<path d="M167.812 130.68C167.812 130.68 168.273 120.755 177.733 121.909L167.812 130.68Z" fill="#3F3D56"/>
<path d="M89.1426 102.154V38.1841V102.154Z" fill="#3F3D56"/>
<path d="M89.1426 102.154V38.1841" stroke="#3F3D56" stroke-width="2"/>
<path d="M89.1425 42.627C86.6887 42.627 84.6995 40.6378 84.6995 38.184C84.6995 35.7302 86.6887 33.741 89.1425 33.741C91.5964 33.741 93.5856 35.7302 93.5856 38.184C93.5856 40.6378 91.5964 42.627 89.1425 42.627Z" fill="#3F3D56"/>
<path d="M89.1426 56.2784C89.1426 56.2784 89.7773 42.627 102.789 44.2138L89.1426 56.2784Z" fill="#3F3D56"/>
<path d="M35.7731 66.7529L39.6299 74.0216C39.6299 74.0216 67.518 79.3619 63.9578 87.6689C60.3976 95.976 56.3924 108.14 54.3156 107.843C52.2389 107.547 40.8167 101.02 40.3716 99.0912C39.9266 97.1627 50.6071 88.114 50.6071 88.114L32.9546 84.7021C32.9546 84.7021 30.4328 96.5694 33.6963 104.728C36.9598 112.887 38.8882 134.99 36.6631 135.286C34.438 135.583 28.8011 137.363 26.2793 135.731C23.7575 134.099 22.5708 98.3494 22.5708 98.3494C22.5708 98.3494 17.2305 74.9117 20.494 72.2415C23.7575 69.5714 35.7731 66.7529 35.7731 66.7529Z" fill="#2F2E41"/>
<path d="M29.7124 131.682C29.7124 131.682 33.1212 129.888 33.8388 131.324C33.8388 131.324 33.3006 135.629 35.4535 136.168C37.6064 136.706 38.5034 140.473 35.4535 140.832C32.4036 141.191 30.4301 140.115 29.3536 140.115C28.2772 140.115 29.3536 136.347 29.3536 136.347L29.7124 131.682Z" fill="#2F2E41"/>
<path d="M45.9705 101.903C45.9705 101.903 49.6809 100.868 50.0797 102.423C50.0797 102.423 48.6456 106.518 50.6365 107.498C52.6275 108.478 52.7098 112.35 49.6528 112.058C46.5958 111.765 44.8937 110.297 43.8415 110.07C42.7893 109.843 44.636 106.387 44.636 106.387L45.9705 101.903Z" fill="#2F2E41"/>
<path d="M27.5401 41.1644C27.5401 41.1644 27.3918 46.653 28.4302 47.098C29.4686 47.543 22.6449 50.2132 22.6449 50.2132L21.4582 48.1364C21.4582 48.1364 22.7932 40.7194 22.4966 40.126C22.1999 39.5326 27.5401 41.1644 27.5401 41.1644Z" fill="#DADADA"/>
<path d="M25.065 42.4123C20.0418 42.4123 15.9696 38.3402 15.9696 33.317C15.9696 28.2938 20.0418 24.2217 25.065 24.2217C30.0882 24.2217 34.1603 28.2938 34.1603 33.317C34.1603 38.3402 30.0882 42.4123 25.065 42.4123Z" fill="#2F2E41"/>
<path d="M24.4377 28.5657C22.3591 28.5657 20.6741 26.8807 20.6741 24.8022C20.6741 22.7236 22.3591 21.0386 24.4377 21.0386C26.5162 21.0386 28.2012 22.7236 28.2012 24.8022C28.2012 26.8807 26.5162 28.5657 24.4377 28.5657Z" fill="#2F2E41"/>
<path d="M29.4558 22.7636C29.4557 20.8368 28.0005 19.2212 26.0842 19.0203C26.2145 19.0068 26.3453 19 26.4763 19C28.5549 19 30.2399 20.685 30.2399 22.7636C30.2399 24.8422 28.5549 26.5272 26.4763 26.5272C26.3453 26.5271 26.2145 26.5203 26.0842 26.5068C28.0005 26.3059 29.4557 24.6904 29.4558 22.7636Z" fill="#2F2E41"/>
<path d="M25.3151 43.9828C21.8742 43.9828 19.0848 41.1934 19.0848 37.7525C19.0848 34.3116 21.8742 31.5222 25.3151 31.5222C28.7559 31.5222 31.5453 34.3116 31.5453 37.7525C31.5453 41.1934 28.7559 43.9828 25.3151 43.9828Z" fill="#DADADA"/>
<path d="M20.939 45.8371C20.939 45.8371 26.2793 47.4689 28.9494 45.8371C31.6195 44.2054 37.9982 48.9523 39.0366 51.029C40.075 53.1058 35.1797 55.1826 35.1797 55.1826C35.1797 55.1826 36.5776 59.193 36.2923 61.1904C35.9956 63.2671 36.5148 67.4948 36.5148 67.4948C36.5148 67.4948 23.4095 76.129 20.494 72.2417C20.049 71.6484 16.3405 57.7044 16.3405 57.7044L11.1486 52.5124C11.1486 52.5124 14.4121 47.7655 16.3405 47.3205C18.2689 46.8755 20.939 45.8371 20.939 45.8371Z" fill="#F83633"/>
<path d="M56.7633 76.321C56.7633 76.321 66.8504 81.513 64.7737 82.9964C62.6969 84.4798 54.2415 77.2111 54.2415 77.2111L56.7633 76.321Z" fill="#DADADA"/>
<path d="M17.1564 72.6125C17.1564 72.6125 21.6446 69.5822 22.3673 71.0973C23.09 72.6125 17.453 76.0244 16.2663 74.6893C15.0796 73.3542 17.1564 72.6125 17.1564 72.6125Z" fill="#DADADA"/>
<path d="M13.8187 50.8806L11.1485 52.5124C11.1485 52.5124 2.09977 64.973 5.21492 67.7914C8.33007 70.6099 16.3405 76.2468 16.3405 76.2468C16.3405 76.2468 19.0106 72.39 18.1205 72.2416C17.2305 72.0933 10.1102 66.1597 10.1102 66.1597L16.3405 54.5891L13.8187 50.8806Z" fill="#F83633"/>
<path d="M37.2565 50.2874L39.1849 51.0291L44.2285 60.0778L57.5791 76.2469C57.5791 76.2469 55.799 79.0654 54.3156 78.472C52.8322 77.8787 41.7067 65.4181 41.7067 65.4181L34.438 54.1442L37.2565 50.2874Z" fill="#F83633"/>
<path d="M25.065 34.1136C21.6007 34.1136 18.7923 32.4286 18.7923 30.35C18.7923 28.2714 21.6007 26.5864 25.065 26.5864C28.5292 26.5864 31.3376 28.2714 31.3376 30.35C31.3376 32.4286 28.5292 34.1136 25.065 34.1136Z" fill="#2F2E41"/>
<rect x="38.0194" y="110.794" width="29.2327" height="29.2327" fill="#F83633"/>
<path fill-rule="evenodd" clip-rule="evenodd" d="M45 115V127.94L46.7776 128.948L45 129.956V135.898L55.6667 129.848L61 132.865V128.948L59.2222 127.94L61 126.931V118.033L55.6667 121.058L45 115Z" fill="white"/>
<path d="M136.494 23.1304L135 22.2821V24V39.3657V39.9481L135.507 40.2355L136.084 40.563L135.507 40.8904L135 41.1778V41.7603V48.8163V50.5331L136.493 49.6862L148.667 42.7816L154.508 46.0854L156 46.9296V45.215V40.563V39.9806L155.493 39.6932L154.916 39.3657L155.493 39.0381L156 38.7508V38.1683V27.6014V25.8846L154.507 26.7315L148.667 30.0436L136.494 23.1304Z" fill="#F83633" stroke="white" stroke-width="2"/>
<path d="M158.494 3.13044L157 2.28209V4V12.0872V12.6697L157.084 12.7173L157 12.765V13.3475V17.0612V18.778L158.493 17.9311L164.667 14.4295L167.508 16.0362L169 16.8804V15.1658V12.7174V12.1349L168.916 12.0872L169 12.0395V11.457V5.89545V4.17864L167.507 5.02562L164.667 6.63619L158.494 3.13044Z" fill="#F83633" stroke="white" stroke-width="2"/>
<path d="M180.494 8.13044L179 7.28209V9V13.8523V14.026V14.4348V14.6085V16.8367V18.5535L180.493 17.7066L184.001 15.7174L185.508 16.5699L187 17.414V15.6995V14.2304V14.0567V13.648V13.4742V10.1373V8.42046L185.507 9.26744L184 10.1218L180.494 8.13044Z" fill="#F83633" stroke="white" stroke-width="2"/>
<path d="M165.494 28.1304L164 27.2821V29V33.8523V34.026V34.4348V34.6085V36.8367V38.5535L165.493 37.7066L169.001 35.7174L170.508 36.5699L172 37.414V35.6995V34.2304V34.0567V33.648V33.4742V30.1373V28.4205L170.507 29.2674L169 30.1218L165.494 28.1304Z" fill="#F83633" stroke="white" stroke-width="2"/>
</svg>
