<svg id="Layer_1" data-name="Layer 1" xmlns="http://www.w3.org/2000/svg" viewBox="0 0 500 250"><defs><style>.cls-1{fill:#f4f2f1;}.cls-2{fill:#e5e5e5;}.cls-3{opacity:0.7;}.cls-4{fill:none;stroke:#2f2e41;stroke-miterlimit:10;stroke-width:1.05px;}.cls-5{fill:#2f2e41;}.cls-6{fill:#30b0b0;}.cls-7{fill:#40eaea;}.cls-8{fill:#fff;}.cls-9{fill:#3f3d56;}.cls-10{fill:#ba2926;}.cls-11{fill:#f83633;}.cls-12{fill:#a0aabb;}</style></defs><title>illustration-goverment</title><g id="_Group_" data-name="&lt;Group&gt;"><g id="_Group_2" data-name="&lt;Group&gt;"><path id="_Path_" data-name="&lt;Path&gt;" class="cls-1" d="M194.92,39.51H140.15a4.6,4.6,0,0,0-4.61,4.6V144.74a4.6,4.6,0,0,0,4.61,4.61h75.22a4.6,4.6,0,0,0,4.6-4.61v-81Z"/><path id="_Path_2" data-name="&lt;Path&gt;" class="cls-2" d="M194.92,39.51l0,20.19a4,4,0,0,0,4,4h21Z"/><g id="_Group_3" data-name="&lt;Group&gt;" class="cls-3"><rect id="_Rectangle_" data-name="&lt;Rectangle&gt;" class="cls-2" x="151.74" y="77.1" width="52.03" height="4.73"/><rect id="_Rectangle_2" data-name="&lt;Rectangle&gt;" class="cls-2" x="140.84" y="87.35" width="73.84" height="4.73"/><rect id="_Rectangle_3" data-name="&lt;Rectangle&gt;" class="cls-2" x="140.84" y="97.6" width="73.84" height="4.73"/><rect id="_Rectangle_4" data-name="&lt;Rectangle&gt;" class="cls-2" x="140.84" y="107.85" width="73.84" height="4.73"/><rect id="_Rectangle_5" data-name="&lt;Rectangle&gt;" class="cls-2" x="140.84" y="118.09" width="73.84" height="4.73"/><rect id="_Rectangle_6" data-name="&lt;Rectangle&gt;" class="cls-2" x="140.84" y="128.34" width="73.84" height="4.73"/></g></g><g id="_Group_4" data-name="&lt;Group&gt;"><polyline id="_Path_3" data-name="&lt;Path&gt;" class="cls-4" points="318.6 132.02 346.63 132.02 346.63 116.95"/><circle id="_Path_4" data-name="&lt;Path&gt;" class="cls-5" cx="346.59" cy="117" r="2.43" transform="translate(-18.45 140.67) rotate(-22.36)"/></g><g id="_Group_5" data-name="&lt;Group&gt;"><g id="_Group_6" data-name="&lt;Group&gt;"><path id="_Path_5" data-name="&lt;Path&gt;" class="cls-6" d="M355.86,22.88c-32.11,11.73-51.87-6.71-53-7.83V15l0,0,0,0v.05c-1.16,1.12-20.91,19.56-53,7.83,0,0-17.76,82.05,53,121.6v0l0,0,0,0v0C373.62,104.93,355.86,22.88,355.86,22.88Z"/><path id="_Path_6" data-name="&lt;Path&gt;" class="cls-7" d="M347.82,31.5c-27.25,10-44-5.69-45-6.64v-.05l0,0,0,0v.05c-1,.95-17.74,16.59-45,6.64,0,0-15.07,69.62,45,103.17v0h.05v0C362.89,101.12,347.82,31.5,347.82,31.5Z"/></g><path id="_Path_7" data-name="&lt;Path&gt;" class="cls-8" d="M349.21,32.53h-.71a1.34,1.34,0,0,1-1.34-1.34v-.71a1.34,1.34,0,0,0-1.34-1.34h0a1.34,1.34,0,0,0-1.34,1.34v.71a1.34,1.34,0,0,1-1.34,1.34h-.71a1.34,1.34,0,0,0-1.34,1.34h0a1.34,1.34,0,0,0,1.34,1.34h.71a1.34,1.34,0,0,1,1.34,1.34v.7a1.34,1.34,0,0,0,1.34,1.34h0a1.34,1.34,0,0,0,1.34-1.34v-.7a1.34,1.34,0,0,1,1.34-1.34h.71a1.33,1.33,0,0,0,1.33-1.34h0A1.33,1.33,0,0,0,349.21,32.53Z"/><path id="_Path_8" data-name="&lt;Path&gt;" class="cls-8" d="M352.76,39.14h-.26a.5.5,0,0,1-.5-.49v-.26a.49.49,0,0,0-.49-.5h0a.5.5,0,0,0-.5.5v.26a.49.49,0,0,1-.49.49h-.27a.5.5,0,0,0-.49.5h0a.49.49,0,0,0,.49.49h.27a.5.5,0,0,1,.49.5v.26a.5.5,0,0,0,.5.5h0a.49.49,0,0,0,.49-.5v-.26a.51.51,0,0,1,.5-.5h.26a.5.5,0,0,0,.5-.49h0A.51.51,0,0,0,352.76,39.14Z"/><path id="_Path_9" data-name="&lt;Path&gt;" class="cls-8" d="M351.27,26.66H351a.49.49,0,0,1-.49-.49v-.26a.5.5,0,0,0-.5-.5h0a.49.49,0,0,0-.49.5v.26a.5.5,0,0,1-.5.49h-.26a.5.5,0,0,0-.5.5h0a.5.5,0,0,0,.5.5H349a.5.5,0,0,1,.5.49v.26a.49.49,0,0,0,.49.5h0a.5.5,0,0,0,.5-.5v-.26a.49.49,0,0,1,.49-.49h.26a.5.5,0,0,0,.5-.5h0A.5.5,0,0,0,351.27,26.66Z"/></g><g id="_Group_7" data-name="&lt;Group&gt;"><g id="_Group_8" data-name="&lt;Group&gt;"><rect id="_Rectangle_7" data-name="&lt;Rectangle&gt;" class="cls-9" x="238.89" y="88.48" width="38.42" height="108.62"/></g><g id="_Group_9" data-name="&lt;Group&gt;"><path id="_Path_10" data-name="&lt;Path&gt;" class="cls-5" d="M289.24,197.11H228.37a2.48,2.48,0,0,1-2.47-2.48h0a2.48,2.48,0,0,1,2.47-2.47h60.87a2.47,2.47,0,0,1,2.47,2.47h0A2.47,2.47,0,0,1,289.24,197.11Z"/></g><g id="_Group_10" data-name="&lt;Group&gt;"><rect id="_Rectangle_8" data-name="&lt;Rectangle&gt;" class="cls-5" x="185.22" y="76.65" width="147.17" height="102.97" rx="7" ry="7"/></g><g id="_Group_11" data-name="&lt;Group&gt;"><rect id="_Rectangle_9" data-name="&lt;Rectangle&gt;" class="cls-9" x="190.37" y="80.92" width="136.87" height="80.87" rx="3.56" ry="3.56"/></g><g id="_Group_12" data-name="&lt;Group&gt;"><g id="_Group_13" data-name="&lt;Group&gt;"><rect id="_Rectangle_10" data-name="&lt;Rectangle&gt;" class="cls-5" x="195.36" y="88.48" width="126.9" height="12.1"/></g><g id="_Group_14" data-name="&lt;Group&gt;"><rect id="_Rectangle_11" data-name="&lt;Rectangle&gt;" class="cls-5" x="195.36" y="143.68" width="126.9" height="12.1"/></g><g id="_Group_15" data-name="&lt;Group&gt;"><rect id="_Rectangle_12" data-name="&lt;Rectangle&gt;" class="cls-5" x="231.83" y="107.37" width="90.43" height="7.67"/></g><g id="_Group_16" data-name="&lt;Group&gt;"><rect id="_Rectangle_13" data-name="&lt;Rectangle&gt;" class="cls-5" x="231.83" y="119.18" width="90.43" height="7.67"/></g><g id="_Group_17" data-name="&lt;Group&gt;"><rect id="_Rectangle_14" data-name="&lt;Rectangle&gt;" class="cls-5" x="231.83" y="130.98" width="90.43" height="7.67"/></g><g id="_Group_18" data-name="&lt;Group&gt;"><rect id="_Rectangle_15" data-name="&lt;Rectangle&gt;" class="cls-5" x="195.36" y="106.98" width="29.67" height="32.86"/></g></g><g id="_Group_19" data-name="&lt;Group&gt;"><g id="_Group_20" data-name="&lt;Group&gt;"><path id="_Compound_Path_" data-name="&lt;Compound Path&gt;" class="cls-10" d="M256.7,140.58a23.29,23.29,0,0,1-23.26-23.27V87.89a23.27,23.27,0,1,1,46.53,0v29.42A23.29,23.29,0,0,1,256.7,140.58Zm0-68.93a16.26,16.26,0,0,0-16.23,16.24v29.42a16.24,16.24,0,1,0,32.47,0V87.89A16.26,16.26,0,0,0,256.7,71.65Z"/></g><rect id="_Path_11" data-name="&lt;Path&gt;" class="cls-11" x="221.19" y="104.48" width="71.04" height="56.74" rx="8.56" ry="8.56"/><path id="_Path_12" data-name="&lt;Path&gt;" class="cls-8" d="M265.29,149.55l-5-18.83a7.74,7.74,0,1,0-7.19,0l-5,18.83Z"/></g></g><g id="_Group_21" data-name="&lt;Group&gt;"><path id="_Path_13" data-name="&lt;Path&gt;" class="cls-12" d="M150.73,153.7V139.53a1.54,1.54,0,0,1,1.55-1.55h21a1.54,1.54,0,0,1,1.55,1.55h0a1.56,1.56,0,0,0,1.55,1.55h31.73a1.55,1.55,0,0,1,1.55,1.55v9.52a1.56,1.56,0,0,1-1.51,1.55l-55.79,1.55A1.54,1.54,0,0,1,150.73,153.7Z"/><rect id="_Rectangle_16" data-name="&lt;Rectangle&gt;" class="cls-8" x="153.1" y="143.45" width="53.78" height="20.97"/><path id="_Path_14" data-name="&lt;Path&gt;" class="cls-12" d="M150.94,185H208a1.54,1.54,0,0,0,1.54-1.43L212,150a1.55,1.55,0,0,0-1.54-1.66h-24a1.51,1.51,0,0,0-1.06.43l-2.75,2.61a1.57,1.57,0,0,1-1.07.42H149.79a1.55,1.55,0,0,0-1.55,1.61l1.16,30.08A1.54,1.54,0,0,0,150.94,185Z"/></g><g id="_Group_22" data-name="&lt;Group&gt;"><path id="_Path_15" data-name="&lt;Path&gt;" class="cls-6" d="M303.14,153.7V139.53a1.54,1.54,0,0,1,1.55-1.55h21a1.54,1.54,0,0,1,1.55,1.55h0a1.56,1.56,0,0,0,1.55,1.55h31.73a1.55,1.55,0,0,1,1.55,1.55v9.52a1.56,1.56,0,0,1-1.51,1.55l-55.79,1.55A1.54,1.54,0,0,1,303.14,153.7Z"/><rect id="_Rectangle_17" data-name="&lt;Rectangle&gt;" class="cls-8" x="305.51" y="143.45" width="53.78" height="20.97"/><path id="_Path_16" data-name="&lt;Path&gt;" class="cls-6" d="M303.35,185h57a1.54,1.54,0,0,0,1.55-1.43l2.5-33.55a1.55,1.55,0,0,0-1.54-1.66h-24a1.51,1.51,0,0,0-1.06.43l-2.75,2.61a1.57,1.57,0,0,1-1.07.42H302.2a1.55,1.55,0,0,0-1.55,1.61l1.15,30.08A1.55,1.55,0,0,0,303.35,185Z"/></g><g id="_Group_23" data-name="&lt;Group&gt;"><path id="_Compound_Path_2" data-name="&lt;Compound Path&gt;" class="cls-7" d="M230.49,64.23a1.65,1.65,0,1,0,1.64,1.64A1.64,1.64,0,0,0,230.49,64.23Z"/><g id="_Group_24" data-name="&lt;Group&gt;"><path id="_Path_17" data-name="&lt;Path&gt;" class="cls-7" d="M230.49,60.09a5.74,5.74,0,0,0-4,1.66,1.05,1.05,0,0,0,0,1.47h0a1,1,0,0,0,1.49.05,3.61,3.61,0,0,1,5.09,0,1.05,1.05,0,0,0,1.5-.05h0a1.06,1.06,0,0,0,0-1.47A5.74,5.74,0,0,0,230.49,60.09Z"/><path id="_Path_18" data-name="&lt;Path&gt;" class="cls-7" d="M230.49,49.45A16.32,16.32,0,0,0,219.18,54a1.05,1.05,0,0,0,0,1.48l.1.11a1.06,1.06,0,0,0,1.49.06,14.06,14.06,0,0,1,19.48,0,1,1,0,0,0,1.48-.06l.1-.11a1.06,1.06,0,0,0,0-1.48A16.36,16.36,0,0,0,230.49,49.45Z"/><path id="_Path_19" data-name="&lt;Path&gt;" class="cls-7" d="M230.49,55.24a10.59,10.59,0,0,0-7.26,2.88,1.15,1.15,0,0,0-.06,1.62h0a1.14,1.14,0,0,0,1.61,0,8.33,8.33,0,0,1,11.41,0,1.14,1.14,0,0,0,1.61,0h0a1.14,1.14,0,0,0-.06-1.62A10.58,10.58,0,0,0,230.49,55.24Z"/></g></g><g id="_Group_25" data-name="&lt;Group&gt;"><path id="_Path_20" data-name="&lt;Path&gt;" class="cls-4" d="M180.38,198.42v21h76.78"/><circle id="_Path_21" data-name="&lt;Path&gt;" class="cls-5" cx="180.41" cy="198.44" r="2.43"/><circle id="_Path_22" data-name="&lt;Path&gt;" class="cls-5" cx="257.14" cy="219.44" r="2.43"/></g><g id="_Group_26" data-name="&lt;Group&gt;"><polyline id="_Path_23" data-name="&lt;Path&gt;" class="cls-4" points="197.73 67.9 177.76 67.9 177.76 95.93 162.69 95.93"/><circle id="_Path_24" data-name="&lt;Path&gt;" class="cls-5" cx="162.73" cy="95.89" r="2.43"/><circle id="_Path_25" data-name="&lt;Path&gt;" class="cls-5" cx="197.64" cy="68.17" r="2.43"/></g><g id="_Group_27" data-name="&lt;Group&gt;"><g id="_Group_28" data-name="&lt;Group&gt;"><g id="_Group_29" data-name="&lt;Group&gt;"><path class="cls-1" d="M313,196.06h-.71a1.34,1.34,0,0,1-1.34-1.34V194a1.34,1.34,0,0,0-1.34-1.34h0a1.34,1.34,0,0,0-1.34,1.34v.7a1.34,1.34,0,0,1-1.34,1.34h-.71a1.34,1.34,0,0,0-1.34,1.34h0a1.34,1.34,0,0,0,1.34,1.34h.71a1.34,1.34,0,0,1,1.34,1.34v.71a1.34,1.34,0,0,0,1.34,1.34h0a1.34,1.34,0,0,0,1.34-1.34v-.71a1.34,1.34,0,0,1,1.34-1.34H313a1.34,1.34,0,0,0,1.34-1.34h0A1.34,1.34,0,0,0,313,196.06Z"/></g><g id="_Group_30" data-name="&lt;Group&gt;"><path class="cls-1" d="M317,205.33h-.47a.91.91,0,0,1-.9-.9V204a.89.89,0,0,0-.89-.89h0a.89.89,0,0,0-.9.89v.48a.9.9,0,0,1-.9.9h-.47a.89.89,0,0,0-.9.89h0a.9.9,0,0,0,.9.9h.47a.9.9,0,0,1,.9.9v.47a.9.9,0,0,0,.9.9h0a.89.89,0,0,0,.89-.9V208a.9.9,0,0,1,.9-.9H317a.9.9,0,0,0,.9-.9h0A.89.89,0,0,0,317,205.33Z"/></g><g id="_Group_31" data-name="&lt;Group&gt;"><path class="cls-1" d="M328.69,219.48a9.23,9.23,0,0,0-2.79-3.84c-7-5.55-15.73-2.52-15.73-2.52S311,199.2,297,198.59a11.38,11.38,0,0,0-8.93,3.54,10.69,10.69,0,0,0-17.59,8.16,11.11,11.11,0,0,0,.07,1.16c-3.87,1.11-7.28,4.06-7.85,10.8A11.63,11.63,0,0,0,274.17,235h43.62C325.82,235,331.67,226.94,328.69,219.48Z"/></g></g></g><polygon id="_Path_26" data-name="&lt;Path&gt;" class="cls-2" points="303.34 219.85 289.04 227.71 289.04 212.16 303.34 219.85"/><g id="_Group_32" data-name="&lt;Group&gt;"><g id="_Group_33" data-name="&lt;Group&gt;"><g id="_Group_34" data-name="&lt;Group&gt;"><g id="_Group_35" data-name="&lt;Group&gt;"><g id="_Group_36" data-name="&lt;Group&gt;"><g id="_Group_37" data-name="&lt;Group&gt;"><path id="_Compound_Path_3" data-name="&lt;Compound Path&gt;" class="cls-11" d="M169.93,64.94h-1.32a1.1,1.1,0,0,1-.92-.7,9.69,9.69,0,0,0-.44-1,1.09,1.09,0,0,1,.14-1.15l1-.94a1.72,1.72,0,0,0,0-2.4l-1.53-1.53a1.7,1.7,0,0,0-1.2-.49,1.67,1.67,0,0,0-1.2.49l-.94.94a1,1,0,0,1-.68.24,1,1,0,0,1-.46-.1c-.35-.16-.7-.31-1.06-.44a1.09,1.09,0,0,1-.71-.91V55.58a1.7,1.7,0,0,0-1.7-1.7H156.7a1.7,1.7,0,0,0-1.7,1.7V56.9a1.08,1.08,0,0,1-.7.91,9.85,9.85,0,0,0-1.06.44,1,1,0,0,1-.46.1,1,1,0,0,1-.68-.24l-.94-.94a1.69,1.69,0,0,0-1.2-.49,1.67,1.67,0,0,0-1.2.49l-1.53,1.53a1.67,1.67,0,0,0-.5,1.19,1.7,1.7,0,0,0,.5,1.21l.94.94a1.07,1.07,0,0,1,.14,1.15c-.16.34-.31.69-.44,1a1.08,1.08,0,0,1-.91.7h-1.33a1.7,1.7,0,0,0-1.69,1.7V68.8a1.71,1.71,0,0,0,1.69,1.71H147a1.06,1.06,0,0,1,.91.7c.13.35.28.71.44,1.05a1.06,1.06,0,0,1-.14,1.14l-.94.95a1.67,1.67,0,0,0,0,2.39l1.53,1.54a1.71,1.71,0,0,0,1.2.49,1.73,1.73,0,0,0,1.2-.49l.94-1a1,1,0,0,1,.68-.24,1,1,0,0,1,.46.1,10.77,10.77,0,0,0,1.06.44,1.09,1.09,0,0,1,.7.91v1.33a1.7,1.7,0,0,0,1.7,1.69h2.16a1.7,1.7,0,0,0,1.7-1.69V78.54a1.1,1.1,0,0,1,.71-.91,9.69,9.69,0,0,0,1-.44,1.2,1.2,0,0,1,.47-.1,1,1,0,0,1,.68.24l.94,1a1.71,1.71,0,0,0,1.2.49,1.75,1.75,0,0,0,1.2-.49l1.53-1.54a1.71,1.71,0,0,0,0-2.39l-1-.95a1.08,1.08,0,0,1-.14-1.14,10.61,10.61,0,0,0,.44-1.05,1.09,1.09,0,0,1,.92-.7h1.32a1.7,1.7,0,0,0,1.69-1.71V66.64A1.7,1.7,0,0,0,169.93,64.94Zm-7.18,2.78a5,5,0,1,1-5-5A5,5,0,0,1,162.75,67.72Z"/></g></g></g></g></g><g id="_Group_38" data-name="&lt;Group&gt;"><g id="_Group_39" data-name="&lt;Group&gt;"><g id="_Group_40" data-name="&lt;Group&gt;"><g id="_Group_41" data-name="&lt;Group&gt;"><g id="_Group_42" data-name="&lt;Group&gt;"><path id="_Compound_Path_4" data-name="&lt;Compound Path&gt;" class="cls-7" d="M180.15,46.18h-.93a.79.79,0,0,1-.65-.5,5.88,5.88,0,0,0-.3-.73.76.76,0,0,1,.1-.81l.66-.66a1.2,1.2,0,0,0,0-1.68L178,40.72a1.22,1.22,0,0,0-1.69,0l-.66.66a.64.64,0,0,1-.47.17.72.72,0,0,1-.33-.07c-.24-.11-.49-.21-.74-.3a.78.78,0,0,1-.5-.65v-.92a1.19,1.19,0,0,0-1.19-1.2h-1.51a1.19,1.19,0,0,0-1.19,1.2v.92a.78.78,0,0,1-.5.65c-.25.09-.5.19-.74.3a.7.7,0,0,1-.33.07.64.64,0,0,1-.47-.17l-.66-.66a1.21,1.21,0,0,0-.84-.34,1.18,1.18,0,0,0-.84.34l-1.08,1.08a1.18,1.18,0,0,0,0,1.68l.66.66a.76.76,0,0,1,.1.81c-.11.23-.22.48-.31.73a.76.76,0,0,1-.64.5h-.93a1.19,1.19,0,0,0-1.19,1.19v1.52a1.2,1.2,0,0,0,1.19,1.19H164a.75.75,0,0,1,.64.49c.09.25.2.5.31.74a.74.74,0,0,1-.1.8l-.66.67a1.18,1.18,0,0,0,0,1.68l1.08,1.07a1.19,1.19,0,0,0,.84.35,1.22,1.22,0,0,0,.84-.35l.66-.66a.71.71,0,0,1,.47-.17.7.7,0,0,1,.33.07,6.81,6.81,0,0,0,.74.31.78.78,0,0,1,.5.64v.93a1.19,1.19,0,0,0,1.19,1.19h1.51a1.19,1.19,0,0,0,1.19-1.19v-.93a.78.78,0,0,1,.5-.64,6.81,6.81,0,0,0,.74-.31.84.84,0,0,1,.33-.07.69.69,0,0,1,.47.17l.66.66a1.2,1.2,0,0,0,1.69,0L179,54.46a1.2,1.2,0,0,0,0-1.68l-.66-.67a.74.74,0,0,1-.1-.8,6.81,6.81,0,0,0,.31-.74.75.75,0,0,1,.64-.49h.93a1.2,1.2,0,0,0,1.19-1.19V47.37A1.19,1.19,0,0,0,180.15,46.18Zm-5,2a3.49,3.49,0,1,1-3.49-3.48A3.48,3.48,0,0,1,175.11,48.13Z"/></g></g></g></g></g></g><g id="_Group_43" data-name="&lt;Group&gt;"><g id="_Group_44" data-name="&lt;Group&gt;"><path id="_Compound_Path_5" data-name="&lt;Compound Path&gt;" class="cls-7" d="M210.73,214.18a12.4,12.4,0,1,1,12.4-12.39A12.41,12.41,0,0,1,210.73,214.18Zm0-23a10.58,10.58,0,1,0,10.58,10.58A10.59,10.59,0,0,0,210.73,191.21Z"/></g><g id="_Group_45" data-name="&lt;Group&gt;"><path id="_Compound_Path_6" data-name="&lt;Compound Path&gt;" class="cls-7" d="M210.73,214a1,1,0,0,1-.37-.08c-.26-.12-6.26-2.94-6.26-12s6-12.28,6.21-12.41a.9.9,0,0,1,1.33.8v22.82a.94.94,0,0,1-.41.77A1,1,0,0,1,210.73,214Zm-.9-21.95c-1.56,1.4-3.91,4.41-3.91,9.83s2.37,8.24,3.91,9.52Z"/></g><g id="_Group_46" data-name="&lt;Group&gt;"><path id="_Compound_Path_7" data-name="&lt;Compound Path&gt;" class="cls-7" d="M211,214a1,1,0,0,1-.49-.14.92.92,0,0,1-.42-.77V190.3a.92.92,0,0,1,.44-.78.91.91,0,0,1,.89,0c.25.13,6.21,3.35,6.21,12.41s-6,11.92-6.25,12A1,1,0,0,1,211,214Zm.91-21.93v19.34c1.54-1.26,3.91-4.1,3.91-9.53S213.42,193.51,211.87,192.1Z"/></g><g id="_Group_47" data-name="&lt;Group&gt;"><g id="_Group_48" data-name="&lt;Group&gt;"><rect id="_Path_27" data-name="&lt;Path&gt;" class="cls-7" x="199.32" y="197.93" width="22.82" height="1.81"/></g><g id="_Group_49" data-name="&lt;Group&gt;"><rect id="_Path_28" data-name="&lt;Path&gt;" class="cls-7" x="199.32" y="203.83" width="22.82" height="1.81"/></g></g></g></g></svg>