<svg width="401" height="303" viewBox="0 0 401 303" fill="none" xmlns="http://www.w3.org/2000/svg">
<path d="M295.437 144.59L289.621 170.753L284.899 191.978L281.135 208.905L276.416 230.13L260.996 299.471L69.9167 211.177L55.8712 204.685L38.0925 196.469L24.0423 189.978L7.14282 182.168L16.7232 168.229L24.6903 156.639L34.7689 141.975L42.7331 130.392L132.358 0L227.301 84.1805L244.208 99.1704L257.69 111.123L274.599 126.113L295.437 144.59Z" fill="#F1F1F1"/>
<rect x="126.381" y="143.964" width="41.3943" height="41.3943" fill="#40EAEA"/>
<path d="M197.447 117.589C212.115 117.589 224.005 105.698 224.005 91.0307C224.005 76.3629 212.115 64.4724 197.447 64.4724C182.779 64.4724 170.889 76.3629 170.889 91.0307C170.889 105.698 182.779 117.589 197.447 117.589Z" fill="#40EAEA"/>
<path fill-rule="evenodd" clip-rule="evenodd" d="M225.745 130.98C223.317 130.98 221.349 132.948 221.349 135.376C221.352 137.803 223.319 139.769 225.745 139.772C228.173 139.772 230.141 137.804 230.141 135.376C230.141 132.948 228.173 130.98 225.745 130.98ZM225.745 139.039C223.722 139.039 222.082 137.399 222.082 135.376C222.084 133.354 223.723 131.715 225.745 131.713C227.769 131.713 229.409 133.353 229.409 135.376C229.409 137.399 227.769 139.039 225.745 139.039Z" fill="#3F3D56"/>
<path fill-rule="evenodd" clip-rule="evenodd" d="M177.032 204.904L183.503 211.841L190.44 205.37L183.97 198.433L177.032 204.904ZM183.539 210.809L178.064 204.939L183.934 199.464L189.409 205.334L183.539 210.809Z" fill="#3F3D56"/>
<path fill-rule="evenodd" clip-rule="evenodd" d="M124.797 107.506L130.064 113.152L135.71 107.885L130.443 102.239L124.797 107.506ZM130.093 112.312L125.637 107.535L130.414 103.079L134.87 107.856L130.093 112.312Z" fill="#3F3D56"/>
<path d="M0 298.918H400.755V299.65H0V298.918Z" fill="#3F3D56"/>
<path fill-rule="evenodd" clip-rule="evenodd" d="M167.408 84.2537C167.408 104.485 183.809 120.886 204.041 120.886C224.262 120.863 240.65 104.476 240.673 84.2537C240.673 64.0223 224.272 47.6216 204.041 47.6216C183.809 47.6216 167.408 64.0223 167.408 84.2537ZM168.141 84.2536C168.141 64.4269 184.214 48.3542 204.041 48.3542C223.858 48.3765 239.918 64.4361 239.94 84.2536C239.94 104.08 223.867 120.153 204.041 120.153C184.214 120.153 168.141 104.08 168.141 84.2536Z" fill="#3F3D56"/>
<path d="M172.026 132.45L181.489 112.755L182.15 113.073L172.686 132.767L172.026 132.45Z" fill="#3F3D56"/>
<path d="M178.957 159.305L179.305 158.661L220.988 181.22L220.64 181.864L178.957 159.305Z" fill="#3F3D56"/>
<path fill-rule="evenodd" clip-rule="evenodd" d="M126.014 185.725H179.497V132.242H126.014V185.725ZM178.765 184.992H126.747V132.974H178.765V184.992Z" fill="#3F3D56"/>
<path d="M321.263 132.608C326.321 132.608 330.421 128.508 330.421 123.45C330.421 118.392 326.321 114.292 321.263 114.292C316.205 114.292 312.105 118.392 312.105 123.45C312.105 128.508 316.205 132.608 321.263 132.608Z" fill="#DADADA"/>
<path d="M326.025 128.212C326.025 128.212 327.124 139.202 328.956 141.034C330.788 142.865 316.135 139.935 316.135 139.935C316.135 139.935 318.333 130.777 316.867 129.311C315.402 127.846 326.025 128.212 326.025 128.212Z" fill="#DADADA"/>
<path d="M332.436 146.711C332.436 146.711 336.832 159.166 337.931 166.859C339.03 174.552 339.03 177.849 339.03 177.849C339.03 177.849 343.792 192.502 342.327 199.462C342.327 199.462 347.822 215.946 343.06 215.946C338.297 215.946 336.832 202.392 336.832 202.392L329.506 167.592L332.436 146.711Z" fill="#DADADA"/>
<path d="M334.634 152.573C334.634 152.573 333.535 139.019 328.773 137.92C326.499 137.395 322.806 136.62 319.568 135.953C313.926 134.791 308.106 137.468 305.541 142.626C305.06 143.561 304.741 144.571 304.596 145.613C303.863 151.474 300.2 151.474 303.497 159.166C306.793 166.859 306.061 174.918 306.061 174.918L308.259 194.333C308.259 194.333 299.101 219.976 299.833 237.193L291.408 279.32C291.408 279.32 293.24 283.715 298.368 281.518C298.368 281.518 311.189 259.905 310.09 244.153L323.278 214.847C323.278 214.847 332.436 242.688 335 245.252L341.594 284.814C341.594 284.814 347.821 286.646 350.752 284.814C350.752 284.814 351.851 246.717 345.623 240.49C345.623 240.49 339.396 214.115 340.861 207.154C342.327 200.194 342.693 189.571 331.703 180.047C331.703 180.047 333.169 176.017 328.406 173.819L332.07 162.097L334.634 152.573Z" fill="#2F2E41"/>
<path d="M311.658 136.961C311.559 136.947 311.458 136.935 311.355 136.926C308.112 136.633 305.319 139.223 305.175 142.476L304.596 155.503L302.398 169.79L297.636 200.561C297.636 200.561 288.478 211.55 294.705 212.283C300.932 213.015 302.031 200.194 302.031 200.194L310.09 176.017L313.387 153.672C313.387 153.672 317.233 149.826 315.632 140.936C315.298 138.896 313.699 137.296 311.658 136.961Z" fill="#DADADA"/>
<path d="M290.676 277.854L288.111 291.042C288.111 291.042 281.884 293.972 285.913 297.636C289.943 301.299 295.438 296.903 295.438 296.903L296.903 292.507L296.537 299.101H297.636L298.735 292.507C298.735 292.507 300.933 288.478 299.467 285.181V280.785L290.676 277.854Z" fill="#2F2E41"/>
<path d="M340.678 279.136L339.213 291.225C339.213 291.225 332.986 294.156 337.015 297.819C341.045 301.482 346.539 297.086 346.539 297.086L348.005 292.69L347.638 299.284H348.737L349.836 292.69C349.836 292.69 352.034 288.661 350.569 285.364V280.968L340.678 279.136Z" fill="#2F2E41"/>
<path d="M326.041 109.295H326.041C325.527 109.296 325.015 109.347 324.511 109.447C323.601 109.005 322.602 108.775 321.591 108.774H321.326C316.215 108.774 312.072 113.398 312.072 119.103V119.103H313.785L314.061 116.998L314.467 119.103H315.893C315.449 120.792 315.227 122.531 315.231 124.278V134.791H317.82L319.318 130.896L318.944 134.791H335.585L336.948 131.25L336.607 134.791H338.481V126.536C338.481 117.014 332.911 109.295 326.041 109.295Z" fill="#2F2E41"/>
<rect x="384.222" y="176.398" width="0.686742" height="122.807" fill="#3F3D56"/>
<path d="M384.698 288.681C392.094 288.681 398.089 274.998 398.089 258.121C398.089 241.243 392.094 227.561 384.698 227.561C377.302 227.561 371.306 241.243 371.306 258.121C371.306 274.998 377.302 288.681 384.698 288.681Z" fill="#3F3D56"/>
<path d="M384.698 218.976C392.094 218.976 398.089 205.294 398.089 188.416C398.089 171.538 392.094 157.856 384.698 157.856C377.302 157.856 371.306 171.538 371.306 188.416C371.306 205.294 377.302 218.976 384.698 218.976Z" fill="#3F3D56"/>
<path d="M385.027 163.449L384.369 163.251C384.41 163.113 388.448 149.277 381.818 140.371C378.074 135.341 371.649 132.79 362.722 132.79V132.103C371.88 132.103 378.491 134.748 382.371 139.963C389.206 149.149 385.069 163.307 385.027 163.449Z" fill="#3F3D56"/>
<path d="M362.722 141.031C367.463 141.031 371.306 137.188 371.306 132.447C371.306 127.706 367.463 123.862 362.722 123.862C357.981 123.862 354.137 127.706 354.137 132.447C354.137 137.188 357.981 141.031 362.722 141.031Z" fill="#F1F1F1"/>
<path fill-rule="evenodd" clip-rule="evenodd" d="M200.817 215.763H236.898L233.423 209.734H211.25L228.474 179.848L249.173 215.763H256.131L228.474 167.775L200.817 215.763Z" fill="#F83633"/>
<path fill-rule="evenodd" clip-rule="evenodd" d="M203.125 212.466H239.206L235.731 206.437H213.558L230.782 176.551L251.481 212.466H258.439L230.782 164.478L203.125 212.466Z" stroke="#3F3D56" stroke-width="0.8"/>
<path d="M95.3844 193.773L94.904 198.512C94.904 198.512 98.7468 212.257 92.9826 211.309C87.2184 210.361 89.1398 198.512 89.1398 198.512L90.1005 194.721L95.3844 193.773Z" fill="#DADADA"/>
<path d="M34.2925 194.505L34.7729 199.245C34.7729 199.245 30.9301 212.99 36.6943 212.042C42.4585 211.094 40.5371 199.245 40.5371 199.245L39.5764 195.453L34.2925 194.505Z" fill="#DADADA"/>
<path d="M81.9247 284.477L83.3375 294.511L73.4469 293.555L74.8601 283.521L81.9247 284.477Z" fill="#DADADA"/>
<path d="M28.7035 284.477L27.2906 294.511L37.1813 293.555L35.768 283.521L28.7035 284.477Z" fill="#DADADA"/>
<path d="M83.3717 189.001C83.3717 189.001 85.7683 189.959 83.3717 226.358L82.4131 285.748H72.8266L68.992 233.064L63.7194 200.974L48.8604 242.643L36.8773 287.185L27.2908 284.79L39.7533 227.795C39.7533 227.795 37.3567 194.748 45.9845 189.001C54.6123 183.253 83.3717 189.001 83.3717 189.001Z" fill="#2F2E41"/>
<path d="M80.993 290.641C80.993 290.641 81.167 287.353 81.9187 287.189C82.6703 287.026 88.1215 291.002 88.1215 291.002C88.1215 291.002 93.9921 290.279 93.5728 295.702C93.1535 301.124 84.7669 299.317 84.7669 299.317C84.7669 299.317 83.0896 302.57 79.735 302.57C76.3804 302.57 71.3484 302.57 70.9291 300.401C70.5098 298.232 73.0258 288.472 73.8644 288.833C74.7031 289.195 76.7997 288.833 76.7997 288.833L80.993 290.641Z" fill="#2F2E41"/>
<path d="M29.2685 290.357C29.2685 290.357 29.0944 286.991 28.3428 286.823C27.5912 286.656 22.14 290.727 22.14 290.727C22.14 290.727 16.2694 289.986 16.6887 295.538C17.108 301.09 25.4946 299.239 25.4946 299.239C25.4946 299.239 27.1719 302.57 30.5265 302.57C33.8811 302.57 38.9131 302.57 39.3324 300.349C39.7517 298.129 37.2357 288.136 36.3971 288.506C35.5584 288.876 33.4618 288.506 33.4618 288.506L29.2685 290.357Z" fill="#2F2E41"/>
<path d="M64.6553 116.479C59.5975 116.479 55.4973 112.379 55.4973 107.321C55.4973 102.263 59.5975 98.1631 64.6553 98.1631C69.7132 98.1631 73.8134 102.263 73.8134 107.321C73.8134 112.379 69.7132 116.479 64.6553 116.479Z" fill="#DADADA"/>
<path d="M58.616 108.786C58.616 108.786 58.1354 121.728 55.7324 123.166C53.3294 124.604 70.1503 123.166 70.1503 123.166L68.2279 112.141L58.616 108.786Z" fill="#DADADA"/>
<path d="M54.6013 121.461C54.6013 121.461 63.2275 117.163 71.3744 120.028C79.5213 122.894 83.8344 126.237 83.8344 126.237L78.5628 153.935C78.5628 153.935 88.6267 190.23 85.7513 191.186C82.8759 192.141 48.8506 188.32 45.496 191.186C42.1413 194.051 42.1414 187.843 42.1414 187.843C42.1414 187.843 46.9337 175.903 45.9752 165.875C45.0167 155.846 45.0167 152.503 45.0167 152.503L39.7452 130.057L54.6013 121.461Z" fill="#F83633"/>
<path d="M80.6711 126.37H84.0106C84.0106 126.37 89.2584 129.719 89.2584 134.503C89.2584 139.288 94.0291 165.603 94.0291 165.603L96.8915 195.268L88.7813 196.703L81.6253 157.47L76.3775 146.943L80.6711 126.37Z" fill="#F83633"/>
<path d="M48.9033 130.033H39.8961C39.8961 130.033 37.0518 132.911 35.6296 139.626C34.2074 146.341 32.7852 172.721 32.7852 172.721L33.7333 196.703H40.8443L41.7924 165.527L46.533 145.382L48.9033 130.033Z" fill="#F83633"/>
<path d="M72.4353 106.583L70.5226 111.512C69.7388 113.532 68.8411 115.693 67.0038 116.82C64.7354 118.212 61.7061 117.533 59.5116 116.026C55.4696 113.248 53.5666 108.228 54.7407 103.439C55.9148 98.6505 59.9182 95.1036 64.7777 94.5469L64.8685 96.1967L66.8756 94.4998C67.1763 95.0203 67.6968 95.3732 68.2882 95.4575C68.8796 95.5419 69.4767 95.3484 69.9088 94.9324C69.3815 96.0348 69.99 97.3793 70.8688 98.2237C71.9484 99.2611 75.0361 100.508 74.908 102.362C74.8225 103.6 72.933 105.3 72.4353 106.583Z" fill="#2F2E41"/>
</svg>
