<svg id="Layer_1" data-name="Layer 1" xmlns="http://www.w3.org/2000/svg" viewBox="0 0 500 250"><defs><style>.cls-1{fill:#40eaea;}.cls-2{fill:#3a3a3a;}.cls-17,.cls-3,.cls-4{fill:none;}.cls-3,.cls-4{stroke:#3a3a3a;stroke-miterlimit:10;}.cls-17,.cls-3{stroke-width:1.03px;}.cls-4{stroke-width:0.73px;}.cls-5{fill:#3bd7d7;}.cls-6{fill:#a0aabb;}.cls-7{fill:#21465b;}.cls-8{fill:#dadada;}.cls-9{fill:#eb5757;}.cls-10{fill:#f83633;}.cls-11{fill:#bf222c;}.cls-12,.cls-13{opacity:0.37;}.cls-13{fill:#e89c82;isolation:isolate;}.cls-14{fill:#d9fbfb;}.cls-15{fill:#7d7d7d;}.cls-16{fill:#3f3d56;}.cls-17{stroke:#3f3d56;}</style></defs><title>illustration-travel</title><path class="cls-1" d="M286.71,227.12a21.78,21.78,0,0,0,2.39-1.67A21.78,21.78,0,0,1,286.71,227.12Z"/><path class="cls-1" d="M291.29,223.52c.69-.68,1.33-1.4,2-2.14l.13.1a27.28,27.28,0,0,1-2.06,2.11Z"/><path class="cls-1" d="M295,219.08c.56-.79,1.1-1.61,1.61-2.43l.22.13a25.94,25.94,0,0,1-1.66,2.42Z"/><path class="cls-1" d="M298.08,214.12l1.28-2.61.34.14-1.34,2.62Z"/><path class="cls-1" d="M300.48,208.82l1-2.74.44.15-1,2.75Z"/><path class="cls-1" d="M302.25,203.29l.65-2.83.57.11-.71,2.86Z"/><path class="cls-1" d="M303.38,197.62c.12-1,.22-1.93.28-2.89h.68c-.08,1-.19,2-.35,2.93Z"/><path class="cls-1" d="M303.82,191.82a23.2,23.2,0,0,0-.12-2.89l.76-.06c.07,1,.1,2,.09,2.95Z"/><path class="cls-1" d="M303.3,186.06l-.53-2.84.8-.18.52,2.91Z"/><path class="cls-1" d="M302.05,180.42c-.27-.93-.57-1.85-.9-2.75l.85-.3c.33.93.61,1.86.88,2.81Z"/><path class="cls-1" d="M300.06,175c-.39-.88-.82-1.74-1.29-2.59l.85-.45c.46.87.89,1.76,1.28,2.66Z"/><path class="cls-1" d="M297.29,170c-.52-.8-1.08-1.58-1.67-2.34l.81-.63c.6.79,1.17,1.59,1.69,2.43Z"/><path class="cls-1" d="M293.77,165.41c-.65-.71-1.33-1.39-2.06-2.06l.78-.75c.71.68,1.4,1.39,2.06,2.12Z"/><path class="cls-1" d="M289.57,161.49c-.76-.6-1.53-1.18-2.32-1.71l.67-1c.8.57,1.59,1.16,2.36,1.78Z"/><path class="cls-1" d="M284.82,158.24c-.83-.48-1.68-.93-2.54-1.36l.56-1.1c.88.44,1.74.93,2.59,1.43Z"/><path class="cls-1" d="M279.67,155.67l-2.69-1,.43-1.19,2.75,1.1Z"/><path class="cls-1" d="M274.24,153.7l-2.78-.79.33-1.24,2.83.83Z"/><path class="cls-1" d="M268.65,152.23l-2.84-.59.24-1.27,2.88.6Z"/><path class="cls-1" d="M263,151.15l-2.87-.45.18-1.29,2.9.45Z"/><path class="cls-1" d="M257.2,150.33l-2.9-.34.15-1.32,2.91.35Z"/><path class="cls-1" d="M251.41,149.68l-2.91-.28.14-1.34,2.9.29Z"/><path class="cls-1" d="M245.6,149.12l-2.92-.29.15-1.37,2.9.3Z"/><path class="cls-1" d="M239.78,148.51l-2.91-.38.2-1.39,2.86.39Z"/><path class="cls-1" d="M234,147.67l-2.88-.54.28-1.39,2.85.54Z"/><path class="cls-1" d="M228.2,146.52l-2.86-.67.35-1.39,2.82.67Z"/><path class="cls-1" d="M222.5,145.12l-2.82-.8.41-1.4,2.79.8Z"/><path class="cls-1" d="M216.87,143.43l-2.78-.94.49-1.36,2.75.92Z"/><path class="cls-1" d="M211.33,141.47l-2.73-1.1.56-1.31,2.69,1.07Z"/><path class="cls-1" d="M205.92,139.2l-2.67-1.26.62-1.25,2.62,1.22Z"/><path class="cls-1" d="M200.63,136.61l-2.57-1.44.69-1.19,2.53,1.4Z"/><path class="cls-1" d="M195.54,133.64,193.08,132l.79-1.11,2.41,1.61Z"/><path class="cls-1" d="M190.72,130.23l-2.27-1.9.89-1,2.21,1.83Z"/><path class="cls-1" d="M186.29,126.32l-2-2.14,1-.89,2,2.07Z"/><path class="cls-1" d="M182.3,122l-1.83-2.31,1-.79,1.79,2.27Z"/><path class="cls-1" d="M178.76,117.24l-1.6-2.48,1.09-.67,1.57,2.43Z"/><path class="cls-1" d="M175.7,112.2l-1.35-2.62,1.13-.56,1.33,2.58Z"/><path class="cls-1" d="M173.12,106.9,172,104.17l1.16-.44,1.1,2.68Z"/><path class="cls-1" d="M171,101.39l-.87-2.8,1.13-.34.9,2.76Z"/><path class="cls-1" d="M169.38,95.75l-.68-2.85,1.08-.25.71,2.81Z"/><path class="cls-1" d="M168.11,90l-.52-2.89,1-.18.54,2.87Z"/><path class="cls-1" d="M167.19,84.21,167,81.28l1-.06.29,2.87Z"/><path class="cls-1" d="M166.84,78.33l.06-2.93.89,0,0,2.89Z"/><path class="cls-1" d="M167.12,72.45l.39-2.91.79.12L168,72.54Z"/><path class="cls-1" d="M168.06,66.65l.7-2.86.71.2-.66,2.82Z"/><path class="cls-1" d="M169.64,61l1-2.75.55.22-1,2.74Z"/><path class="cls-1" d="M171.88,55.56,173.21,53l.39.2-1.26,2.63Z"/><path class="cls-1" d="M174.68,50.41,176.29,48l.24.18L175,50.61Z"/><path class="cls-1" d="M178,45.6l1.84-2.26.12.1-1.78,2.3Z"/><path class="cls-1" d="M181.82,41.16l2.07-2.06h0l-2,2.12Z"/><path class="cls-2" d="M199.8,240.8a3.85,3.85,0,0,1-2.39,3.57,3.86,3.86,0,1,1-1.47-7.43,3.81,3.81,0,0,1,2.73,1.13,3.81,3.81,0,0,1,1.13,2.73Z"/><path class="cls-3" d="M205.33,199.93l18.09-61.86"/><path class="cls-1" d="M227.61,140.57,222.28,139a1.61,1.61,0,0,1-.52-.27,1.65,1.65,0,0,1-.38-.45,1.37,1.37,0,0,1-.18-.56,1.63,1.63,0,0,1,.05-.58,1.53,1.53,0,0,1,.72-.9,1.5,1.5,0,0,1,1.14-.13l5.33,1.57a1.51,1.51,0,0,1,.91.71,1.52,1.52,0,0,1,.17.56,1.43,1.43,0,0,1-.05.58,1.3,1.3,0,0,1-.27.52,1.27,1.27,0,0,1-.45.38,1.37,1.37,0,0,1-.56.18A1.42,1.42,0,0,1,227.61,140.57Z"/><path class="cls-4" d="M207.43,199.93l18.11-61.86"/><path class="cls-1" d="M211.14,177.42l-11-3.23a9.47,9.47,0,0,0-11.74,6.44L175.12,226a9.46,9.46,0,0,0,6.43,11.74l11,3.23a9.47,9.47,0,0,0,11.74-6.44l13.24-45.34A9.46,9.46,0,0,0,211.14,177.42Z"/><path class="cls-5" d="M195.37,241.53c3.42,1,7.33-2.06,8.74-6.89l13.27-45.45c1.4-4.8-.24-9.5-3.66-10.5l-.88-.26c-5.94,20.12-10.72,38.45-15.4,48.23-3.82,8-8.77,10.65-12.64,11.79Z"/><path class="cls-6" d="M187.47,223.91l-10.8-3.15a.84.84,0,0,0-1,.57l0,.07a.85.85,0,0,0,.58,1L187,225.6A.85.85,0,0,0,188,225l0-.07A.85.85,0,0,0,187.47,223.91Z"/><path class="cls-6" d="M188.89,218.89l-10.79-3.16a.85.85,0,0,0-1,.58l0,.07a.84.84,0,0,0,.57,1l10.8,3.16a.84.84,0,0,0,1-.58l0-.07A.83.83,0,0,0,188.89,218.89Z"/><path class="cls-6" d="M190.24,213.87l-10.79-3.15a.85.85,0,0,0-1,.57l0,.07a.85.85,0,0,0,.57,1l10.8,3.15a.84.84,0,0,0,1.05-.57l0-.07A.85.85,0,0,0,190.24,213.87Z"/><path class="cls-7" d="M193.77,78.37C188,83,188.69,90.51,192.59,96.94s14.42,9.64,20.14,5.42c3.09-2.3,6.57-6.57,10.06-8.12a71.13,71.13,0,0,1,8.65-3.08c5.28-1.68,8.3-7.86,12.85-11.36,4.75-3.61,6.18-10.61,9.64-15.73,2.78-4.12,5.86-4,7.74-8.71,1.6-4,5.14-7.67,5.8-12,1.14-7.3-4-13.25-10.51-13.29S244.6,34.94,240.6,40.82c-3,4.42-5.22,9.56-9,13-9.69,8.85-26.25,2.44-30.82,15.24C198.77,74.51,197.65,75.28,193.77,78.37Z"/><path class="cls-8" d="M253.46,153.86C258.75,180.8,264,205.57,271,231.71c.54,2.06,1.35,5.66,2.06,5.76a6.39,6.39,0,0,0,2.84-.36,2.07,2.07,0,0,0,1-1,2.1,2.1,0,0,0,.2-1.37c-4.12-39.92-5.34-72.1-13.16-110.88-.27-1.37-12.53-6.9-12.53-6.9"/><path class="cls-8" d="M200.83,222.46l4.78-3.22a3.87,3.87,0,0,1,2.06-.86c1.33,0,2.22,1.31,2.85,2.44a2,2,0,0,1,.37,1.33c-.13.57-.73.88-1.28,1.14l-7.21,3.4"/><path class="cls-9" d="M205,242l-4.37-8.87c-.47-1-3.84-8.79-4.35-9.9a1.71,1.71,0,0,1-.24-1.17,1.83,1.83,0,0,1,.42-.54,1.63,1.63,0,0,1,.61-.32,21,21,0,0,1,5.47-1.34,1.34,1.34,0,0,1,.63,0,.84.84,0,0,1,.78.82,1.62,1.62,0,0,1,0,.58c-.14,1.59-.1,1.68.9,3,.24.33,1.36,1.55,1.65,1.84a2.38,2.38,0,0,1,.58,1.23,44.65,44.65,0,0,1,1.24,11.75,4.72,4.72,0,0,1-.59,2.58,1.79,1.79,0,0,1-1,.81,1.88,1.88,0,0,1-1.3-.1"/><path class="cls-8" d="M208.42,222.33c.09.7.64,1.11,1.16.84,7.7-3.94,24.72-17.56,31.26-27,9.56-13.86,3.48-14.49,10-31.52,5-13.15,10.93-30.65,11.8-44.94-4.93-.16-8.69-.57-13.65,0a2.51,2.51,0,0,0-1.17.3,2.34,2.34,0,0,0-.89.82c-.81.88-4.48,11.44-7.9,21.48-8.67,25.49-2.63,39.68-6.31,44.67-13.33,18-16.56,22.55-25.5,31.49-.31.31-.52.53.62-.9Z"/><path class="cls-9" d="M291.16,244.07l-9.9.18c-1,0-9.59-.27-10.82-.27a1.27,1.27,0,0,1-.67,0,1.29,1.29,0,0,1-.56-.36,1.11,1.11,0,0,1-.3-.59,1.14,1.14,0,0,1,0-.66,20.74,20.74,0,0,1,1.11-5.52,1.59,1.59,0,0,1,.76-1,1.5,1.5,0,0,1,1.1.3c1.38.82,1.48.81,3.09.48.41-.08,2-.57,2.38-.72a2.39,2.39,0,0,1,1.35,0,45.21,45.21,0,0,1,11.21,4,4.9,4.9,0,0,1,2.06,1.63,1.8,1.8,0,0,1-.35,2.4"/><path class="cls-8" d="M287.19,126.75c.95-.17,3.39,1.34,4.17,1.89a4.48,4.48,0,0,1,2,2.46,4.42,4.42,0,0,1-.21,1.84,4.68,4.68,0,0,1-.91,1.63,2.53,2.53,0,0,1-.86.86.91.91,0,0,1-.58.11.85.85,0,0,1-.52-.27c-.17-.24-.17-.58-.37-.8s-.79-.21-1.21-.23a2.29,2.29,0,0,1-1.71-1.15,21.75,21.75,0,0,1-2.13-3.09"/><path class="cls-10" d="M285.28,129.75a1.48,1.48,0,0,1-.88.46,1.5,1.5,0,0,1-1-.19,84.62,84.62,0,0,1-19.57-16.71,29.71,29.71,0,0,1-3.49-4.93,37.85,37.85,0,0,1-2.87-7.94c-2-7.12-4-14.41-3.75-21.8.11-3.61,1.26-7.88,5-8.7a5.68,5.68,0,0,1,3.65.46c2.48,1.18,4,3.52,5,6,2.88,7.12,2.06,15.15,2.61,22.83a20.21,20.21,0,0,0,1.49,6.94,24.44,24.44,0,0,0,4,5.62c4.8,5.53,7.21,8.73,11.66,14a1.53,1.53,0,0,1,0,2.06Z"/><path class="cls-11" d="M243.72,119.24a3.65,3.65,0,0,1-2.25-.71,3.72,3.72,0,0,1-1.36-1.94c-2.63-10-2.93-21.29-4-31.36a27.69,27.69,0,0,1,1.12-9.4c1.52-3.69,2.24-5.31,6.83-7.47s9.27-1,14.42-.83c6.11.17,8.33,8.8,10.64,12.75,3.44,5.83,2.45,9.27-.3,14.63-1.74,3.38-4.57,2.58-4.88,20.73a2.21,2.21,0,0,1-.72,1.48,2.23,2.23,0,0,1-1.55.58Z"/><path class="cls-8" d="M220.08,131.33c-.7.65-1.12,3.89-1.16,4.84a4.67,4.67,0,0,0,.71,3.09,4.57,4.57,0,0,0,1.56,1,4.4,4.4,0,0,0,1.8.26,2.45,2.45,0,0,0,1.2-.15.86.86,0,0,0,.43-.39.88.88,0,0,0,.09-.57c-.08-.29-.35-.5-.4-.79s.31-.75.54-1.1a2.29,2.29,0,0,0,.31-1,2.35,2.35,0,0,0-.18-1.05,25.16,25.16,0,0,0-1.57-3.93"/><path class="cls-10" d="M220.22,132.59a1.51,1.51,0,0,1-1.37-1.12,74.7,74.7,0,0,1-1.13-29.63,30.9,30.9,0,0,1,1.51-6.08,38.68,38.68,0,0,1,4.26-7.58C227.71,81.81,232,75.34,238,70.54c2.9-2.35,7-4.32,10.18-1.92a5.94,5.94,0,0,1,2.06,3.18c.77,2.74-.07,5.5-1.33,7.93-3.6,7.08-10.44,11.81-16,17.44a21,21,0,0,0-4.42,5.85,25.48,25.48,0,0,0-1.7,6.93c-1.09,7.54-1.39,14.06-2.4,21.48a1.48,1.48,0,0,1-1.54,1.28Z"/><path class="cls-10" d="M219.37,180.11a2.39,2.39,0,0,0,.73.72,2.51,2.51,0,0,0,1,.37,2.55,2.55,0,0,0,1-.06,2.47,2.47,0,0,0,.91-.47c3.62-2.92,9.41-3.7,13.39-1.39,4.87,2.82,9.4,7,15.09,7.15,4.23.15,8.24-2,12.49-1.9,5.73.12,10.81,4.25,16.19,5.52a3.17,3.17,0,0,0,1.56,0,3.22,3.22,0,0,0,1.38-.72,3.14,3.14,0,0,0,.87-1.28,3.26,3.26,0,0,0,.16-1.55c-4.65-24.3-13.39-48.49-21.5-71.95-8.33.69-12.08,1.24-21.18,1.24-10.11,10-9.67,23.27-12.36,36.93-1.85,9.43-7.21,16.42-10,25.52a2.22,2.22,0,0,0-.05,1A2.25,2.25,0,0,0,219.37,180.11Z"/><path class="cls-6" d="M264.27,119s-26.29,1.93-25.07-.52c1-2.06-.33-4.77.7-4.56,4.39.87,24,.17,24,.17Z"/><path class="cls-8" d="M251.29,69a2.94,2.94,0,0,1-1-1.24,3,3,0,0,1-.23-1.6c.28-3,.67-7.37.86-9.38.09-.84.17-1.66.28-2.49a1,1,0,0,1,.17-.52.53.53,0,0,1,.36-.17c1.23-.23,2.36.6,3.55,1,1.44.46,3,.23,4.48.63a.6.6,0,0,1,.26.11.55.55,0,0,1,.19.21,1.21,1.21,0,0,1,0,.38c0,2.4-.27,7.49-.36,10.5,0,.68.13,1.71-.3,2.19l-.91,1a4.34,4.34,0,0,1-5.08.83Z"/><g class="cls-12"><path class="cls-13" d="M251.37,53.8a.53.53,0,0,1,.36-.17c1.23-.23,2.37.6,3.55,1,1.44.46,3,.23,4.48.63a.56.56,0,0,1,.26.11.55.55,0,0,1,.19.21,1.21,1.21,0,0,1,0,.38l-.08,4a7.94,7.94,0,0,1-4.3,1.29,6,6,0,0,1-3-.95A5.82,5.82,0,0,1,250.77,58l.11-1.17c.08-.83.17-1.66.28-2.49A1,1,0,0,1,251.37,53.8Z"/></g><path class="cls-8" d="M248.77,51.64c-1.63-.16-3.09-1-3.39-2.33a2.88,2.88,0,0,1,.15-1.09,2.52,2.52,0,0,1,.55-.95,2.71,2.71,0,0,1,.87-.67,2.88,2.88,0,0,1,1.07-.28"/><path class="cls-8" d="M248.51,51.76c1.76,6.37,6.09,6.94,10.63,8.24a8.12,8.12,0,0,0,3,.11c2.06-.37,3-2.52,3.4-4.33a43.33,43.33,0,0,0,1-9.5,13.87,13.87,0,0,0-1.28-6.34,7.3,7.3,0,0,0-5.51-3.85c-3.09-.34-6.18,1.43-8.24,3.59-3,3.18-4.53,7.55-3.23,11.33"/><path class="cls-8" d="M266.5,46.15a9.43,9.43,0,0,0,.24,2.8,2.61,2.61,0,0,0,.91,1.51,1.12,1.12,0,0,1,.31.34,1.11,1.11,0,0,1,.15.43,1.18,1.18,0,0,1,0,.46,1.07,1.07,0,0,1-.23.4,1.45,1.45,0,0,1-.82.47,1.09,1.09,0,0,1-.69,0,1.23,1.23,0,0,1-.57-.41"/><path class="cls-7" d="M245.43,46.06c4.95.38,15-2.06,19.37-4.4a14.7,14.7,0,0,0,3.33-2.81c.84-.94-4.19-1.28-4.53-2.49-.58-2.06-3.17-2.79-5.32-2.68a15.19,15.19,0,0,0-9.36,3.85"/><path class="cls-1" d="M274.29,36.64c0,2.3-7.87,4.31-17.66,4.48s-17.78-1.54-17.82-3.84,7.87-4.31,17.63-4.45S274.25,34.35,274.29,36.64Z"/><path class="cls-1" d="M266.92,28.43c0,1.7,2.34,9.56-11.51,9.81-12.55.23-10.09-7.72-10.12-9.41s4.79-3.21,10.76-3.28S266.89,26.73,266.92,28.43Z"/><path class="cls-14" d="M215.8,11.66l-6.73,3.54a6.12,6.12,0,0,0-.64-.5l-1-.71a1.85,1.85,0,0,0-.39-1.54c-.55-.81-1.37-.67-2.3-.1-.75-.45-1.52-.87-2.28-1.27.22-.73.19-1.35-.17-1.65s-1.26-.13-2.06.49a98,98,0,0,0-12-4.9A.19.19,0,0,0,188,5a.2.2,0,0,0-.12.08.2.2,0,0,0,0,.15.2.2,0,0,0,.06.13l13.93,13.76.66.89-9.79,7.59-11-1.22c-.8-.09-.91.5-.41.87,1.9,1.42,8,5,8,5L192.24,40a.36.36,0,0,0,.15.19.36.36,0,0,0,.23.06.39.39,0,0,0,.22-.11.38.38,0,0,0,.1-.21l1.62-8.76L206.16,25l.33.44L217.05,41.4a.51.51,0,0,0,.28.2.52.52,0,0,0,.35,0,.47.47,0,0,0,.27-.23A.57.57,0,0,0,218,41c-.52-2.81-.76-6.05-1.25-9.36.79-.57,1.23-1.24,1-1.75s-.7-.67-1.44-.7c-.17-.85-.34-1.69-.55-2.53.91-.87,1.34-1.62.54-2.82a1.22,1.22,0,0,0-.7-.52,1.25,1.25,0,0,0-.87.08c-.18-.49-.35-1-.55-1.44a10.32,10.32,0,0,0-.64-1.18l4.61-5.48C219.44,13.39,218.34,11.48,215.8,11.66Z"/><path class="cls-15" d="M244.8,34.5a49.07,49.07,0,0,0,22.45-.35,1,1,0,0,0,.46-.5,1.06,1.06,0,0,0,.05-.68,1,1,0,0,0-.39-.56,1,1,0,0,0-.65-.2,46.66,46.66,0,0,1-21.38.35C244.08,32.3,243.54,34.23,244.8,34.5Z"/><path class="cls-10" d="M317.89,210v4l.58.31-.58.32v1.85l3.44-1.88,1.71.94V214.3l-.57-.31.57-.32V210.9l-1.71.94Z"/><rect class="cls-16" x="329.74" y="222.95" width="0.59" height="22.05"/><path class="cls-16" d="M330,226.07a3.12,3.12,0,1,0-3.12-3.12A3.12,3.12,0,0,0,330,226.07Z"/><path class="cls-16" d="M330,236.54s-.45-9.58-9.58-8.47Z"/><path class="cls-17" d="M333.07,244.87H173"/></svg>