<svg width="97" height="30" viewBox="0 0 97 30" fill="none" xmlns="http://www.w3.org/2000/svg">
<path fill-rule="evenodd" clip-rule="evenodd" d="M0 18.5757L2.51111 20.023L0 21.4703V30.0003L2.51132 28.5528V1.44796L0 0.000610352V18.5757Z" fill="white"/>
<path fill-rule="evenodd" clip-rule="evenodd" d="M5.02258 27.105L7.5339 25.6576V4.34237L5.02258 2.89502V27.105Z" fill="white"/>
<path fill-rule="evenodd" clip-rule="evenodd" d="M10.0453 24.2101L12.5566 22.7627V7.23725L10.0453 5.78979V24.2101Z" fill="white"/>
<path fill-rule="evenodd" clip-rule="evenodd" d="M15.0679 21.3154L17.5792 22.7515V7.24866L15.0679 8.69601V21.3154Z" fill="white"/>
<path fill-rule="evenodd" clip-rule="evenodd" d="M22.6021 25.6462V20.0226L20.0908 18.5752V24.21L22.6021 25.6462Z" fill="white"/>
<path fill-rule="evenodd" clip-rule="evenodd" d="M22.6021 4.35364L20.0908 5.78975V18.5751L22.6021 17.1276V4.35364Z" fill="white"/>
<path fill-rule="evenodd" clip-rule="evenodd" d="M50.1513 4.35876H46.9619V4.94898H48.2372V9.44427H48.876V4.94898H50.1513V4.35876Z" fill="white"/>
<path fill-rule="evenodd" clip-rule="evenodd" d="M58.2431 4.35876H57.6042V9.44427H59.5183V8.85405H58.2431V4.35876Z" fill="white"/>
<path fill-rule="evenodd" clip-rule="evenodd" d="M40.9604 9.33209H44.7843L44.416 8.69323H42.0662L43.8914 5.52605L46.0852 9.33209H46.8226L43.8914 4.24658L40.9604 9.33209Z" fill="white"/>
<path fill-rule="evenodd" clip-rule="evenodd" d="M50.3274 9.44427H54.1513L53.7829 8.80531H51.4331L53.2585 5.63813L55.4522 9.44427H56.1896L53.2585 4.35876L50.3274 9.44427Z" fill="white"/>
<path fill-rule="evenodd" clip-rule="evenodd" d="M66.0576 9.44427H66.795L63.864 4.35876L60.9329 9.44427H64.7567L64.3885 8.80531H62.0386L63.864 5.63813L66.0576 9.44427Z" fill="white"/>
<path fill-rule="evenodd" clip-rule="evenodd" d="M39.0702 8.28552C38.9263 8.28552 38.8056 8.33612 38.7015 8.44021C38.5974 8.5444 38.5468 8.66333 38.5468 8.8038C38.5468 8.95808 38.5957 9.08206 38.6963 9.18254C38.7972 9.28333 38.9194 9.33228 39.0702 9.33228C39.2175 9.33228 39.338 9.28333 39.4387 9.18254C39.5429 9.07835 39.5935 8.95622 39.5935 8.80885C39.5935 8.66509 39.5429 8.54451 39.4387 8.44021C39.3345 8.33612 39.2141 8.28552 39.0702 8.28552Z" fill="white"/>
<mask id="mask0" mask-type="alpha" maskUnits="userSpaceOnUse" x="0" y="0" width="97" height="30">
<path d="M0 29.9998H96.905V0H0V29.9998Z" fill="white"/>
</mask>
<g mask="url(#mask0)">
<path fill-rule="evenodd" clip-rule="evenodd" d="M30.1361 9.44427H30.775V4.35876H30.1361V9.44427Z" fill="white"/>
<path fill-rule="evenodd" clip-rule="evenodd" d="M36.1922 8.26209C35.8261 8.63021 35.3725 8.81644 34.8425 8.81644C34.3516 8.81644 33.9137 8.63413 33.541 8.27456C33.1648 7.91355 32.9737 7.44814 32.9737 6.89131C32.9737 6.35964 33.1578 5.90608 33.5208 5.543C33.8832 5.17632 34.3342 4.98989 34.8603 4.98989C35.3888 4.98989 35.839 5.17663 36.1985 5.54465C36.5583 5.90886 36.7411 6.36623 36.7411 6.90306C36.7411 7.43402 36.5563 7.89118 36.1922 8.26209ZM34.871 4.35876C34.1561 4.35876 33.5609 4.60219 33.0516 5.10305C32.5406 5.60319 32.2925 6.18413 32.2925 6.87936C32.2925 7.67352 32.5638 8.29672 33.1221 8.78459C33.6252 9.22218 34.2 9.44427 34.8301 9.44427C35.5545 9.44427 36.1554 9.20167 36.6671 8.70277C37.1752 8.20747 37.4223 7.62097 37.4223 6.90997C37.4223 6.20278 37.1759 5.6136 36.669 5.10892C36.1642 4.60404 35.576 4.35876 34.871 4.35876Z" fill="white"/>
<path fill-rule="evenodd" clip-rule="evenodd" d="M32.9158 15.5489H35.3637C36.5065 15.5489 37.327 15.7767 37.8014 16.2252C38.2776 16.6756 38.509 17.3283 38.509 18.2215C38.509 19.0847 38.277 19.7273 37.8 20.1857C37.3251 20.6405 36.5058 20.8711 35.3637 20.8711H32.9158V15.5489ZM35.5434 13.1071H30.1361V29.7048H32.9158V23.3131H35.5434C37.3826 23.3131 38.8199 22.8618 39.8159 21.9708C40.8227 21.069 41.3333 19.8073 41.3333 18.2215C41.3333 16.6528 40.8398 15.3932 39.8674 14.4778C38.9013 13.5682 37.4465 13.1071 35.5434 13.1071Z" fill="white"/>
<path fill-rule="evenodd" clip-rule="evenodd" d="M53.0314 18.3115C53.0314 20.15 52.0393 21.0068 49.9087 21.0068H47.2811V15.6161H49.9087C52.0393 15.6161 53.0314 16.4728 53.0314 18.3115ZM54.6797 21.5624C55.46 20.7091 55.8557 19.5773 55.8557 18.1986C55.8557 16.6771 55.3634 15.4333 54.393 14.503C53.427 13.5769 51.9789 13.1071 50.0885 13.1071H44.5015V29.7049H47.2811V23.2231H48.943L53.0842 29.7049H56.2823L51.8926 23.0525C53.0711 22.7982 54.0071 22.2985 54.6797 21.5624Z" fill="white"/>
<path fill-rule="evenodd" clip-rule="evenodd" d="M59.1378 29.7049H61.9175V13.1071H59.1378V29.7049Z" fill="white"/>
<path fill-rule="evenodd" clip-rule="evenodd" d="M74.3091 21.1111C73.6783 20.8063 72.8337 20.4821 71.7977 20.1466C70.974 19.8815 70.3208 19.641 69.8563 19.4297C69.4289 19.2368 69.0673 18.9669 68.7806 18.627C68.5132 18.31 68.3833 17.8974 68.3833 17.3662C68.3833 16.6906 68.5845 16.1888 68.9984 15.831C69.4299 15.459 70 15.2783 70.7409 15.2783C71.5542 15.2783 72.1728 15.4826 72.6319 15.9032C73.1018 16.333 73.3817 16.8121 73.4873 17.3669L73.5441 17.6639H76.468L76.4152 17.2519C76.2527 15.9917 75.6715 14.9392 74.6872 14.1246C73.7076 13.3149 72.3799 12.9043 70.7409 12.9043C69.687 12.9043 68.7527 13.09 67.9645 13.4563C67.1602 13.8305 66.5329 14.368 66.0991 15.0556C65.6661 15.7412 65.4465 16.5414 65.4465 17.434C65.4465 18.4693 65.686 19.3218 66.158 19.968C66.6207 20.6007 67.1894 21.0811 67.8478 21.3974C68.4711 21.698 69.3001 22.0186 70.3157 22.3506C71.1465 22.6127 71.8126 22.8611 72.2957 23.0868C72.7401 23.2959 73.1178 23.5852 73.4191 23.9472C73.7029 24.2878 73.8411 24.7269 73.8411 25.2888C73.8411 25.9442 73.6405 26.4633 73.2281 26.876C72.8219 27.2823 72.2121 27.4879 71.4161 27.4879C70.7919 27.4879 70.2585 27.3645 69.8302 27.1202C69.3989 26.8746 69.064 26.5611 68.8353 26.1885C68.6028 25.8101 68.4654 25.4195 68.426 25.0267L68.3933 24.6976H65.4804L65.5155 25.0952C65.5958 26.0135 65.9028 26.8446 66.4278 27.5636C66.951 28.2791 67.6571 28.8481 68.5268 29.2545C69.3893 29.6578 70.3842 29.8627 71.4835 29.8627C72.6205 29.8627 73.5958 29.6428 74.3831 29.2094C75.1756 28.7732 75.7764 28.1948 76.1688 27.4923C76.5579 26.7946 76.7553 26.0306 76.7553 25.221C76.7553 24.1413 76.5126 23.256 76.0342 22.5892C75.5645 21.933 74.9839 21.436 74.3091 21.1111Z" fill="white"/>
<path fill-rule="evenodd" clip-rule="evenodd" d="M93.8424 13.3777L88.6369 25.8956L83.3455 13.3777H80.2844V29.7049H83.0641V18.8248L87.4478 29.7049H89.7647L94.1258 18.7934V29.7049H96.9048V13.3777H93.8424Z" fill="white"/>
</g>
</svg>
