<svg width="36" height="35" viewBox="0 0 36 35" fill="none" xmlns="http://www.w3.org/2000/svg">
<path d="M9.75122 25.7856C11.5284 26.5221 13.7092 25.8469 14.7134 24.301C15.1185 23.6762 15.3599 22.9879 15.5422 22.2708C15.9525 20.6576 16.3742 19.0473 16.8072 17.4398C16.8848 17.1565 16.8119 17.1169 16.5519 17.12C15.5058 17.1317 14.4565 17.1247 13.408 17.1247C13.5765 16.4968 14.3184 15.9357 15.148 15.786C15.6749 15.6913 16.2065 15.7177 16.735 15.7363C17.0455 15.7479 17.1727 15.6664 17.2511 15.3483C17.6945 13.5581 18.1555 11.7716 18.6341 9.98875C18.9639 8.76567 19.5654 7.6947 20.5618 6.87983C21.6382 5.99666 22.89 5.65519 24.2559 5.85697C25.1833 5.99356 25.9035 6.61441 26.1022 7.35943C25.427 7.11109 24.7549 6.98459 24.0533 7.05522C22.3499 7.2275 21.206 8.12619 20.6387 9.72721C20.1443 11.1148 19.8781 12.5668 19.4924 13.9855C19.3504 14.5086 19.2417 15.0409 19.0842 15.5594C19.0019 15.8286 19.0842 15.855 19.3232 15.8519C20.2545 15.8418 21.1858 15.8465 22.1171 15.8519C22.2164 15.8519 22.3227 15.817 22.4415 15.8993C21.9572 16.8174 21.1532 17.1868 20.1707 17.2488C19.8349 17.2775 19.4973 17.2762 19.1618 17.245C18.8087 17.2031 18.7109 17.3676 18.6341 17.6687C18.1793 19.4568 17.7137 21.2417 17.2372 23.0236C16.9942 23.9292 16.6016 24.7697 15.9955 25.4915C14.8764 26.8185 13.4523 27.4448 11.7123 27.2764C11.1613 27.2236 10.6732 26.9768 10.2541 26.6113C9.99877 26.4001 9.82168 26.1094 9.75122 25.7856Z" fill="#BF222C"/>
<path d="M35.4756 17.515C35.4756 23.1927 35.4779 28.8699 35.4826 34.5466C35.4826 34.8896 35.4135 35.0052 35.0449 34.9998C33.5455 34.9765 32.0454 34.9882 30.5437 34.9921C30.3225 34.9921 30.1556 35.0107 30.1556 34.6855C30.1556 34.3603 30.3209 34.3495 30.5646 34.351C31.8444 34.358 33.1256 34.3402 34.4046 34.3627C34.7701 34.3697 34.8803 34.2851 34.8796 33.9009C34.8656 28.6754 34.8625 23.4499 34.8702 18.2244C34.8702 12.5079 34.8728 6.79084 34.878 1.0733C34.878 0.717085 34.7864 0.612316 34.4302 0.62551C33.6937 0.653448 32.9557 0.62551 32.2192 0.640255C31.9561 0.645687 31.8979 0.552559 31.8948 0.30577C31.8917 0.058981 31.9949 0.0108649 32.2153 0.011641C33.2242 0.0173321 34.2331 0.0134518 35.242 0C35.4344 0 35.4989 0.0628614 35.4802 0.245237C35.4756 0.335718 35.4756 0.426379 35.4802 0.51686L35.4756 17.515Z" fill="white"/>
<path d="M0.00699096 17.4801C0.00699096 11.8298 0.00699096 6.17905 0.00699096 0.527731C0.0085431 -0.0519911 -0.0737199 0.0263916 0.529284 0.0232874C1.43495 0.018631 2.33985 0.0271677 3.24552 0.018631C3.47058 0.018631 3.5994 0.0388087 3.59707 0.323625C3.59707 0.58904 3.50317 0.649573 3.25871 0.644917C2.54783 0.6325 1.83618 0.637932 1.1253 0.641036C0.558774 0.641036 0.621636 0.578951 0.62086 1.12918C0.62086 6.71686 0.62086 12.3027 0.62086 17.8868C0.62086 23.2277 0.618531 28.568 0.613875 33.9079C0.613875 34.2501 0.684497 34.3735 1.0539 34.3634C2.35925 34.3394 3.66537 34.3634 4.97149 34.3495C5.22914 34.3495 5.33391 34.4061 5.33702 34.6902C5.34012 34.9742 5.19732 34.9936 4.97847 34.9928C3.45273 34.9882 1.92698 34.9796 0.399681 34.9983C0.0690763 35.0022 -0.000769701 34.9013 6.36496e-06 34.587C0.00931916 28.8844 0.0116474 23.1821 0.00699096 17.4801Z" fill="white"/>
<path d="M10.3598 27.2461C7.71261 26.9148 5.48996 24.495 5.35492 21.9301C5.16168 18.2826 7.71339 16.3928 10.477 15.8768C11.6868 15.6509 12.9092 15.7433 14.14 15.7557C13.6154 16.0731 13.1909 16.4705 12.9161 17.0129C12.8385 17.1681 12.6957 17.1161 12.5739 17.1208C11.8646 17.1495 11.1514 17.1363 10.4537 17.3001C7.17247 18.0707 5.9424 22.1823 8.24266 24.6929C8.30952 24.7719 8.38215 24.8458 8.45996 24.9141C8.79374 25.1744 9.04452 25.5263 9.1817 25.9268C9.37882 26.4864 9.82506 26.8752 10.3598 27.2461Z" fill="white"/>
<path d="M25.4938 5.85852C27.7172 6.12859 29.6326 8.00124 30.0377 10.2565C30.6376 13.5936 28.581 16.5038 25.2043 17.0998C24.0806 17.2985 22.9537 17.2551 21.712 17.2504C22.2739 16.8872 22.6433 16.4875 22.8761 15.9722C22.9537 15.7922 23.1183 15.8527 23.2494 15.8535C23.9099 15.8597 24.5687 15.8387 25.2129 15.6796C27.0095 15.2365 28.2915 13.6557 28.4103 11.7489C28.5065 10.1967 28.1503 8.82154 26.8581 7.81731C26.7882 7.7627 26.7345 7.68997 26.7029 7.607C26.2575 6.53991 26.2559 6.54068 25.4938 5.85852Z" fill="white"/>
</svg>
