<svg width="107" height="137" viewBox="0 0 107 137" fill="none" xmlns="http://www.w3.org/2000/svg">
<path d="M70.2125 20H86.9707C89.1685 20 91 18.3057 91 16.1656C91 16.0764 91 16.0764 91 15.9873C91 12.6879 88.2528 9.92357 84.8645 9.8344C84.315 9.8344 83.674 9.92357 83.1245 10.0127C82.7582 7.78344 80.652 6 78.0879 6C75.4322 6 73.2344 7.87261 72.7766 10.3694C72.2271 10.1911 71.6777 10.1911 71.1282 10.1911C68.1978 10.2803 66 12.5987 66 15.4522C66 16.4331 66.2747 17.2357 66.7326 18.0382C67.4652 19.2866 68.7473 20 70.2125 20Z" fill="#F8F9F9"/>
<path d="M75.6934 73H90.4672C92.3942 73 94 71.557 94 69.7342C94 69.6582 94 69.6582 94 69.5823C94 66.7722 91.5912 64.4177 88.6204 64.3418C88.1387 64.3418 87.5766 64.4177 87.0949 64.4937C86.6131 62.519 84.7664 61 82.5182 61C80.1898 61 78.2628 62.5949 77.8613 64.7215C77.3796 64.5696 76.8978 64.5696 76.4161 64.5696C73.927 64.7975 72 66.7722 72 69.2025C72 70.038 72.2409 70.7215 72.6423 71.4051C73.2847 72.3924 74.4891 73 75.6934 73Z" fill="#FF8189"/>
<path fill-rule="evenodd" clip-rule="evenodd" d="M70.4311 113.113L49.6014 111.021V111L49.4996 111.011L49.3978 111V111.021L28.5689 113.113L26 133.919L26.6611 134H72.3381L73 133.919L70.4311 113.113Z" fill="#BF222C"/>
<path fill-rule="evenodd" clip-rule="evenodd" d="M70.3361 112.296L70.3453 112.197L49.6114 110.032L49.6014 110.131H49.6974V110L49.5 110.021L49.4086 110.011L49.3026 110V110.041L28.5787 112.205L26 133.904L26.7541 133.999L26.7595 134H72.2405L72.9048 133.916L73 133.904L70.4221 112.205L70.3453 112.197L70.3361 112.296L70.2409 112.308L72.7858 133.73L72.229 133.801H26.7718L26.2143 133.73L28.7507 112.387L49.4946 110.221V110.11H49.3986L49.3894 110.209L49.4908 110.22L49.5 110.221L49.6106 110.209L49.6014 110.11H49.5054V110.221L70.3261 112.395L70.3361 112.296L70.2409 112.308L70.3361 112.296Z" fill="#293B83"/>
<path fill-rule="evenodd" clip-rule="evenodd" d="M49.236 123C59.3285 122.724 73 120.253 73 120.253L69.911 66.7107C70.1357 64.3632 70.1778 63.1557 67.6772 62.3641C64.2331 61.2722 50.2933 55.0276 50.2933 55.0276L50.0966 55.0176V55H47.791V55.0176L47.6006 55.0276C47.6006 55.0276 34.1375 61.2722 30.8105 62.3641C28.3956 63.1557 28.4799 64.3632 28.6968 66.7107L25 120.253C25 120.253 38.8556 122.721 48.6009 122.999L49.236 123Z" fill="#FF2D3B"/>
<path fill-rule="evenodd" clip-rule="evenodd" d="M18.2945 82C18.2945 82 16.4432 93.6913 17.1685 94.9021C17.8937 96.1129 29.9277 99.3372 38.0837 97.3882C46.2398 95.4399 56 91.0001 56 91.0001L35.8107 85.637L27.1194 86.4414C27.1194 86.4414 20.9692 84.7045 18.2945 82Z" fill="#FFB5B1"/>
<mask id="mask0" mask-type="alpha" maskUnits="userSpaceOnUse" x="16" y="81" width="41" height="17">
<path fill-rule="evenodd" clip-rule="evenodd" d="M18.2686 81.6533C18.2686 81.6533 16.4142 93.292 17.1407 94.4973C17.8671 95.7026 29.9212 98.9124 38.0908 96.9722C46.2604 95.0326 56.0369 90.6128 56.0369 90.6128L35.814 85.274L27.1082 86.0747C27.1082 86.0747 20.9477 84.3456 18.2686 81.6533Z" fill="white"/>
</mask>
<g mask="url(#mask0)">
<path fill-rule="evenodd" clip-rule="evenodd" d="M32.2189 97.581C25.1115 97.581 17.7055 95.4341 17.1407 94.4972C17.1214 94.4655 17.1043 94.4268 17.0889 94.3812C19.7974 94.4756 22.1717 94.5181 24.2597 94.5181C39.7604 94.5181 39.2614 92.1724 39.2614 91.3083C39.2614 90.7072 36.0446 89.2048 33.5086 88.1132C37.8015 89.0315 44.9917 90.6445 52.1912 92.2452C48.5938 93.7066 43.0468 95.7962 38.0909 96.9721C36.2697 97.4046 34.2567 97.581 32.2189 97.581Z" fill="#EB9592"/>
</g>
<path fill-rule="evenodd" clip-rule="evenodd" d="M15 82.894L25.7215 86L30.1771 84.748L32.3431 82.7591L46 77.6307L45.9185 55C45.9185 55 27.15 59.3824 21.6631 65.5701C18.415 69.2324 15 82.894 15 82.894Z" fill="#FF2D3B"/>
<path fill-rule="evenodd" clip-rule="evenodd" d="M26.0318 86L26 85.9933C26 85.9933 27.2219 78.262 28.6372 73L29 82.5239C27.4835 83.6279 26.477 85.2039 26.0318 86Z" fill="#BF222C"/>
<path fill-rule="evenodd" clip-rule="evenodd" d="M84 82.894L73.2503 86L68.7828 84.748L66.6112 82.7591L53 77.6307V55C53 55 71.8179 59.3824 77.3201 65.5701C80.5768 69.2324 84 82.894 84 82.894Z" fill="#FF2D3B"/>
<path fill-rule="evenodd" clip-rule="evenodd" d="M72.5952 84.1546L69.342 83.9635L69.3436 83.9349L72.5024 83.6881C72.5349 83.8498 72.5658 84.0053 72.5952 84.1546ZM72.1689 82.0588C71.3365 82.0457 70.4754 82.0426 69.7954 82.0426C69.6646 82.0426 69.5408 82.0426 69.4256 82.0426L69.4325 81.8886L72.0946 81.7076C72.1202 81.8259 72.1449 81.9428 72.1689 82.0588ZM69.5122 80.0535L69.8356 72.6196C70.5373 74.8995 71.198 77.6235 71.7318 80.0295C71.0912 80.0319 70.306 80.0419 69.5122 80.0535Z" fill="#BF222C"/>
<path fill-rule="evenodd" clip-rule="evenodd" d="M65 81C65 81 66.2676 77.8859 66.647 77.2117C67.0264 76.5374 68.4124 77.5716 67.8796 78.9376C67.3475 80.3044 67.1027 80.8067 67.1027 80.8067L65 81Z" fill="#E59A98"/>
<path fill-rule="evenodd" clip-rule="evenodd" d="M56 86.6101C56 86.6101 65.2737 80.0887 65.7212 80.0887C66.168 80.0887 72.794 79.9404 73.23 80.0273C73.6218 80.1055 73.715 80.8049 73.6134 81.1549C73.5523 81.3639 73.3591 81.5115 73.1315 81.5225L68.602 81.817V81.9061C68.602 81.9061 72.7413 81.874 74.4657 81.9887C74.8331 82.0136 75.1118 82.3095 75.1065 82.6617C75.1011 83.0096 74.817 83.2946 74.4543 83.3158L69.2397 83.7046L75.4455 84.0524L76 85.7551L60.8045 88L56 86.6101Z" fill="#EEA4A0"/>
<path fill-rule="evenodd" clip-rule="evenodd" d="M79.9953 83.7116C79.9953 83.7116 81 89.5706 81 91.9224C81 94.2742 76.8305 96.8599 74.8447 96.9985C72.859 97.1379 32.2539 87.3866 30.0701 87.1999C27.8856 87.014 26 86.5391 26 86.5391C26 86.5391 27.985 82.6444 31.6583 81.4031C35.3316 80.1619 39.5019 82.1277 41.9831 82.7302C44.4659 83.332 57.7689 85.2096 64.7179 85.0891C71.6677 84.9686 79.9953 83.7116 79.9953 83.7116Z" fill="#FFB5B1"/>
<mask id="mask1" mask-type="alpha" maskUnits="userSpaceOnUse" x="25" y="81" width="57" height="16">
<path fill-rule="evenodd" clip-rule="evenodd" d="M80.1327 83.9208C80.1327 83.9208 81.1492 89.6759 81.1492 91.986C81.1492 94.2961 76.9306 96.836 74.9214 96.9721C72.9123 97.1091 31.8289 87.5306 29.6194 87.3473C27.4091 87.1647 25.5013 86.6982 25.5013 86.6982C25.5013 86.6982 27.5097 82.8726 31.2263 81.6533C34.9428 80.4341 39.1623 82.3651 41.6727 82.9569C44.1847 83.548 57.6445 85.3923 64.6754 85.2739C71.707 85.1556 80.1327 83.9208 80.1327 83.9208Z" fill="white"/>
</mask>
<g mask="url(#mask1)">
<path fill-rule="evenodd" clip-rule="evenodd" d="M74.8727 96.9737C73.6078 96.9745 62.889 94.6234 52.1911 92.2452C44.9916 90.6446 37.8014 89.0315 33.5085 88.1132C31.3934 87.6614 29.9823 87.3775 29.6194 87.3473C27.6559 87.1849 25.9307 86.7988 25.5702 86.7153L25.5013 86.6982C25.5013 86.6982 39.4818 88.2208 53.9898 90.7568C68.4987 93.2935 79.9037 94.3519 79.9037 94.3519L79.062 95.0907C77.7065 96.1374 75.9968 96.8995 74.9214 96.9722C74.9075 96.9737 74.8913 96.9737 74.8727 96.9737Z" fill="#EC9794"/>
</g>
<path fill-rule="evenodd" clip-rule="evenodd" d="M55 6.99999C56.6525 5.70158 55.5908 3.08686 57.5 4C60.7108 5.53656 68.9946 14.0513 70.1714 17.3201C70.6777 18.7255 70.8881 20.2157 70.9745 21.7007C71.1024 23.9001 70.7978 26.4264 68.9498 27.715C68.7175 27.8773 68.4459 28.0191 68.1601 27.9979C67.6255 27.9592 67.3178 27.4025 67.1435 26.9126C66.5916 25.3616 66.3545 23.7242 65.8874 22.1482C64.5426 17.6159 59.2744 13.9956 56 10.5L55 6.99999Z" fill="#BF222C"/>
<path fill-rule="evenodd" clip-rule="evenodd" d="M56.5699 8.81045C60.6731 6.41219 65.9818 11.8126 67.4781 15.205C68.2501 16.9558 68.5857 18.8831 68.5949 20.8073C68.6049 22.8042 67.8552 26.3929 66.4952 22.9412C65.3614 20.0641 64.9842 17.3183 63.3117 14.6161C61.8061 12.1815 59.8965 9.30197 57.4596 7.82424C56.8231 7.43798 56.2558 8.182 56.5221 8.78829C57.816 11.7382 60.3545 14.0106 61.8693 16.902C63.4425 19.9058 63.4571 23.443 64.9527 26.3644C66.9308 30.227 70.1074 26.3945 70.7047 23.6361C71.6976 19.0533 70.1181 13.7162 66.9993 10.3673C64.1614 7.32084 59.4362 4.46905 55.5046 6.93617C54.347 7.66277 55.3853 9.50302 56.5699 8.81045Z" fill="#BF222C"/>
<path fill-rule="evenodd" clip-rule="evenodd" d="M32.3381 27.9861C29.0682 23.2816 29.3295 16.5518 32.4887 11.7707C35.6479 6.99118 41.3401 4.19533 47.0376 4.00873C50.0916 3.90885 53.4237 4.65059 55.3495 7.04074C55.8698 7.68725 56.2625 8.63959 55.7837 9.31784C55.5755 9.61206 55.2427 9.78704 54.9176 9.94035C51.7853 11.42 48.2995 11.9008 44.9243 12.6619C41.5483 13.4237 38.0979 14.5635 35.6502 17.0264C32.8691 19.8246 31.7886 24.217 32.9513 28" fill="#BF222C"/>
<path fill-rule="evenodd" clip-rule="evenodd" d="M32.1985 27.6943C28.2013 20.8712 30.4256 12.6397 37.3019 8.47188C40.3547 6.62132 44.1862 5.61303 47.7905 5.77522C49.3338 5.84407 51.4799 6.10341 52.7045 7.08338C56.2086 9.88715 51.2251 10.1182 49.292 10.5764C43.9589 11.8402 38.1533 12.4132 34.1364 16.5022C31.1136 19.5791 30.1723 24.3068 31.2233 28.343C31.5231 29.4944 33.36 29.0063 33.0601 27.8519C29.6831 14.8796 45.5512 15.1099 53.8391 12.046C60.878 9.44497 54.6218 4.07001 49.9484 3.25604C36.09 0.8409 21.7976 15.9919 30.8256 28.4731C31.4047 29.274 32.7122 28.5718 32.1985 27.6943Z" fill="#BF222C"/>
<path fill-rule="evenodd" clip-rule="evenodd" d="M64.3295 29.1156C64.3295 29.1156 70.9037 25.8372 71.8326 30.5203C72.7616 35.2034 69.7599 39.8189 64.4008 37.2767C59.0409 34.7352 64.3295 29.1156 64.3295 29.1156Z" fill="#FFB5B1"/>
<path fill-rule="evenodd" clip-rule="evenodd" d="M68.2725 36L68.0807 35.9337C67.9497 35.8305 67.9289 35.6429 68.0352 35.5148C69.5179 33.7155 67.2099 31.8085 67.1105 31.7278L67.0881 31.7007L66.8985 31.77C66.7413 31.8401 66.3892 32.1008 66 33.075C66.0401 32.6026 66.0763 32.1264 66.1087 31.6465C66.2782 31.4498 66.4577 31.3104 66.6465 31.2268C67.008 31.0671 67.3509 31 67.6707 31C68.7866 31 69.6188 31.8175 69.9571 32.3675C70.0427 32.5092 69.9964 32.6915 69.8523 32.7759C69.803 32.8061 69.7483 32.8196 69.6943 32.8196C69.5918 32.8196 69.4909 32.7684 69.4339 32.675C69.403 32.626 68.8297 31.7286 67.8772 31.6118C68.8181 32.5589 69.8192 34.3002 68.5099 35.8885C68.449 35.9616 68.3612 36 68.2725 36Z" fill="#E7817E"/>
<path fill-rule="evenodd" clip-rule="evenodd" d="M35.6708 29.1156C35.6708 29.1156 29.0964 25.8372 28.1674 30.5203C27.2384 35.2034 30.2402 39.8189 35.5995 37.2767C40.9587 34.7352 35.6708 29.1156 35.6708 29.1156Z" fill="#FFB5B1"/>
<path fill-rule="evenodd" clip-rule="evenodd" d="M30.7306 36C30.6419 36 30.5531 35.9616 30.4929 35.8885C29.1815 34.3002 30.1834 32.5589 31.1266 31.6118C30.1726 31.7286 29.5983 32.626 29.5674 32.675C29.5103 32.7684 29.4092 32.8196 29.3057 32.8196C29.2525 32.8196 29.1977 32.8061 29.1483 32.7759C29.0039 32.6915 28.9568 32.5092 29.0433 32.3675C29.3822 31.8175 30.2158 31 31.3335 31C31.6531 31 31.9973 31.0671 32.3586 31.2268C32.5461 31.3097 32.7237 31.4468 32.8919 31.6389C32.9244 32.1151 32.9606 32.5898 33 33.0585C32.6125 32.0978 32.2628 31.8394 32.1069 31.77L31.917 31.7007L31.8947 31.7278C31.7951 31.8085 29.4833 33.7155 30.9684 35.5148C31.0741 35.6429 31.0533 35.8305 30.9221 35.9337L30.7306 36Z" fill="#E7817E"/>
<path fill-rule="evenodd" clip-rule="evenodd" d="M54 50.2512C54 47.9034 51.7643 46 49.0052 46C46.247 46 44.0105 47.9034 44.0105 50.2512L44 55.3575C43.9968 57.9208 46.2358 60 48.9972 60C51.7562 60 53.9935 57.9245 53.9952 55.3643L54 50.2512Z" fill="#EEA4A0"/>
<mask id="mask2" mask-type="alpha" maskUnits="userSpaceOnUse" x="44" y="45" width="10" height="21">
<path fill-rule="evenodd" clip-rule="evenodd" d="M53.9899 54.2241V52.129L53.9884 52.1298L53.9861 54.2248C53.9876 54.2248 53.9892 54.2241 53.9899 54.2241V62.1067C53.9899 63.876 52.5564 65.3103 50.7871 65.3103H47.6082C45.8389 65.3103 44.4045 63.876 44.4045 62.1067V46.8729C44.4045 46.138 45.001 45.5415 45.736 45.5415H52.6585C53.3942 45.5415 53.9899 46.138 53.9899 46.8729" fill="white"/>
</mask>
<g mask="url(#mask2)">
<path fill-rule="evenodd" clip-rule="evenodd" d="M50.7871 65.3103H47.6082C45.8389 65.3103 44.4045 63.876 44.4045 62.1067V46.8729C44.4045 46.138 45.001 45.5415 45.736 45.5415H52.6585C53.3942 45.5415 53.9899 46.138 53.9899 46.8729V62.1067C53.9899 63.876 52.5564 65.3103 50.7871 65.3103Z" fill="#FFB5B1"/>
</g>
<mask id="mask3" mask-type="alpha" maskUnits="userSpaceOnUse" x="44" y="45" width="10" height="21">
<path fill-rule="evenodd" clip-rule="evenodd" d="M50.7871 65.3103H47.6082C45.8389 65.3103 44.4045 63.876 44.4045 62.1067V46.8729C44.4045 46.138 45.001 45.5415 45.736 45.5415H52.6585C53.3942 45.5415 53.9899 46.138 53.9899 46.8729V62.1067C53.9899 63.876 52.5564 65.3103 50.7871 65.3103Z" fill="white"/>
</mask>
<g mask="url(#mask3)">
<path fill-rule="evenodd" clip-rule="evenodd" d="M49.8115 54.7455C47.9803 54.7455 46.1483 54.4507 44.4045 53.8612V51.7213C46.0787 52.5027 47.8836 52.8942 49.6885 52.8942C51.1453 52.8942 52.6013 52.6396 53.9884 52.1298L53.9861 54.2248C52.6214 54.5722 51.2164 54.7455 49.8115 54.7455Z" fill="#E17170"/>
</g>
<path fill-rule="evenodd" clip-rule="evenodd" d="M66.9715 22.4526C66.8351 17.7419 63.0317 14 58.3945 14H40.7634C36.0391 14 32.1617 17.8132 32.0269 22.6123C31.8342 29.4399 32.6949 38.3788 34.0465 41.7832C35.3017 44.9456 38.6791 48.1643 42.6474 50.8623C46.8662 53.7302 52.3649 53.7122 56.5605 50.8098C60.4457 48.122 63.7082 44.9268 64.9565 41.7832C66.3181 38.3522 67.1695 29.2997 66.9715 22.4526Z" fill="#FFB5B1"/>
<mask id="mask4" mask-type="alpha" maskUnits="userSpaceOnUse" x="42" y="40" width="15" height="8">
<path fill-rule="evenodd" clip-rule="evenodd" d="M56.9126 41.4736C56.6233 40.6543 55.5657 40.8717 53.6966 41.7815C51.6712 42.7664 48.1009 43.0047 45.5579 41.9734C43.6316 41.1912 42.6746 41.1123 42.3303 41.8171C41.9853 42.5219 44.1252 46.6709 48.1821 47.1722C48.9403 47.2666 50.0938 47.2991 51.32 47.0988C55.3538 46.4381 57.2329 42.3772 56.9126 41.4736Z" fill="white"/>
</mask>
<g mask="url(#mask4)">
<path fill-rule="evenodd" clip-rule="evenodd" d="M56.9126 41.4736C56.6233 40.6543 55.5657 40.8717 53.6966 41.7815C51.6712 42.7664 48.1009 43.0047 45.5579 41.9734C43.6316 41.1912 42.6746 41.1123 42.3303 41.8171C41.9853 42.5219 44.1252 46.6709 48.1821 47.1722C48.9403 47.2666 50.0938 47.2991 51.32 47.0988C55.3538 46.4381 57.2329 42.3772 56.9126 41.4736Z" fill="#7E322C"/>
<path fill-rule="evenodd" clip-rule="evenodd" d="M44.0795 40.9158C44.0795 40.9158 44.1475 43.803 49.1708 43.8912C54.1933 43.9786 55.6732 42.5683 55.6949 40.5739L44.0795 40.9158Z" fill="#FFFFFE"/>
<path fill-rule="evenodd" clip-rule="evenodd" d="M45.934 46.6492C45.934 46.6492 49.3898 44.4359 54.7341 46.5108L50.606 49.3593L45.934 46.6492Z" fill="#EEA4A0"/>
<path fill-rule="evenodd" clip-rule="evenodd" d="M49.4625 47.2465C48.972 47.2465 48.5342 47.2163 48.1822 47.1722C47.4209 47.0786 46.7277 46.8558 46.1057 46.5518C46.5846 46.2957 48.053 45.6234 50.2462 45.6234C51.2721 45.6234 52.4557 45.7704 53.7725 46.1758C53.0708 46.6114 52.2531 46.9456 51.32 47.0987C50.6632 47.2063 50.0273 47.2465 49.4625 47.2465Z" fill="#E88683"/>
</g>
<path fill-rule="evenodd" clip-rule="evenodd" d="M43 29.5003C43 30.3288 42.105 31 41.0004 31C39.8958 31 39 30.3288 39 29.5003C39 28.6719 39.8958 28 41.0004 28C42.105 28 43 28.6719 43 29.5003Z" fill="#282D49"/>
<path fill-rule="evenodd" clip-rule="evenodd" d="M60 29.5003C60 30.3288 59.105 31 58.0004 31C56.8958 31 56 30.3288 56 29.5003C56 28.6719 56.8958 28 58.0004 28C59.105 28 60 28.6719 60 29.5003Z" fill="#282D49"/>
<path fill-rule="evenodd" clip-rule="evenodd" d="M57.9089 10.0819C58.143 10.4729 57.8815 10.9752 57.6261 11.3509C56.1486 13.5293 54.6551 15.7262 52.7777 17.5257C50.9004 19.3259 48.5837 20.7215 46.0649 20.9851C45.7852 21.0141 45.4728 21.019 45.2592 20.8255C45.0426 20.6296 44.9992 20.2958 45 19.9943C45.0084 18.1819 46.0801 16.5767 47.2353 15.2417C49.5406 12.5804 52.3756 10.4391 55.501 9" fill="#BF222C"/>
<path fill-rule="evenodd" clip-rule="evenodd" d="M56.7791 10.5693C56.1721 12.7048 53.7078 14.9917 52.0871 16.4998C51.1068 17.4128 50.0326 18.2647 48.8148 18.8651C48.3864 19.0767 45.6837 20.2195 45.2134 19.9325C44.0072 19.1958 49.0073 14.5963 49.7532 14.005C51.5275 12.5956 53.5704 11.5757 55.3758 10.207C56.0122 9.72411 55.2966 8.8925 54.6594 9.01152C50.9283 9.70829 47.3719 12.5805 45.0193 15.3857C43.904 16.716 41.5087 20.8274 44.3091 21.8126C47.0964 22.7941 51.1666 19.6824 53.0015 17.977C54.4009 16.6761 55.5892 15.1771 56.7216 13.6554C57.591 12.4871 58.3904 11.7881 57.7928 10.4405C57.5964 9.99755 56.8955 10.1595 56.7791 10.5693Z" fill="#BF222C"/>
<path fill-rule="evenodd" clip-rule="evenodd" d="M52.0842 12.0308C47.7068 15.582 42.7744 18.4737 37.5128 20.5746C36.603 20.9376 35.497 21.2577 34.7008 20.6934C34.1504 20.3032 33.9323 19.5721 34.0181 18.9112C34.1038 18.2502 34.4481 17.6483 34.8399 17.1038C35.7541 15.8358 36.9541 14.7883 38.2308 13.8699C42.7534 10.613 48.391 8.8743 54 9.00708" fill="#BF222C"/>
<path fill-rule="evenodd" clip-rule="evenodd" d="M51.5018 10.9203C48.975 13.1683 45.5874 15.1292 42.5717 16.686C41.3523 17.3158 39.156 18.6375 37.8977 18.7979C36.3914 19.8775 35.7326 19.2268 35.9205 16.8464C36.3243 16.3801 36.7625 15.9496 37.235 15.555C39.6659 13.391 42.7346 11.803 45.8283 10.8245C48.6241 9.93945 51.5462 10.0399 54.3226 9.22486C55.2254 8.96019 55.2262 7.66023 54.3226 7.39557C50.2099 6.18902 45.0479 7.96459 41.3157 9.73939C38.0552 11.2892 32.4581 14.487 32.0386 18.5838C31.0196 28.5554 50.4961 13.6689 52.4982 12.2093C53.4548 11.5126 52.3945 10.1263 51.5018 10.9203Z" fill="#BF222C"/>
<path fill-rule="evenodd" clip-rule="evenodd" d="M57.5625 11.0201C57.365 14.6491 57.8147 18.3229 58.8759 21.7501C59.5463 23.9137 60.644 26.1734 62.5493 26.8989C62.7826 26.9877 63.0425 27.0494 63.2716 26.9461C63.5048 26.8412 63.6582 26.5842 63.7626 26.3239C64.3531 24.8426 63.7332 23.1274 63.0887 21.6756C61.294 17.6319 59.2577 13.7283 57 10L57.5625 11.0201Z" fill="#BF222C"/>
<path fill-rule="evenodd" clip-rule="evenodd" d="M56.9629 11.1189C56.4726 15.1621 56.7754 19.3421 58.4392 23.1139C59.2727 25.0034 61.7885 28.9426 64.4515 27.7937C66.9449 26.7176 65.8636 23.0858 65.0766 21.3223C63.2664 17.2666 60.8977 12.5594 57.8188 9.3452C56.9086 8.39423 55.6159 9.59623 56.1085 10.6778C57.0992 12.8542 58.5771 14.8266 59.7916 16.8896C60.8505 18.6891 63.1766 21.5436 63.3385 23.6536C63.5577 26.5127 61.598 24.0196 60.9187 22.7855C60.2881 21.6398 59.9016 20.2767 59.5562 19.0238C58.8498 16.4603 58.4927 13.7732 58.3788 11.1189C58.3393 10.1773 57.0713 10.225 56.9629 11.1189Z" fill="#BF222C"/>
<path fill-rule="evenodd" clip-rule="evenodd" d="M57.8119 11.5657C58.9391 13.7522 60.0662 15.9387 61.1933 18.1244C62.8188 21.2764 64.5667 24.5669 67.6441 26.5875C67.9681 26.8007 68.3313 27.0051 68.7289 26.9999C69.3272 26.9925 69.8136 26.4905 69.9472 25.9507C70.0808 25.4102 69.9392 24.8467 69.7648 24.3173C68.8128 21.4237 66.8906 18.8663 64.6043 16.7057C62.3181 14.5452 59.6654 12.7496 57 11L57.8119 11.5657Z" fill="#BF222C"/>
<path fill-rule="evenodd" clip-rule="evenodd" d="M57.0962 10.9018C58.0175 13.6902 64.9516 33.6422 70.1697 28.0002C72.5805 25.3946 69.1266 20.2302 67.5898 18.0894C65.1022 14.6228 61.2207 10.574 57.2405 9.06943C56.1741 8.66671 55.6642 10.1157 56.2401 10.8518C58.2099 13.3704 61.1881 14.945 63.3908 17.2952C64.2058 18.1651 69.1763 24.1808 67.7574 25.1924C66.1586 26.3337 59.2422 11.8425 58.3434 10.3557C57.9484 9.7033 56.8362 10.1125 57.0962 10.9018Z" fill="#BF222C"/>
<path fill-rule="evenodd" clip-rule="evenodd" d="M57.9696 9C58.1796 6.4843 57.2908 3.88293 55.6344 2.16454C55.5592 2.086 55.4734 2.00587 55.3706 2.00032C55.1968 1.9908 55.0776 2.19627 55.0357 2.38509C54.8995 2.99993 55.1776 3.6243 55.4479 4.18122C56.1679 5.66875 56.8886 7.15547 57.6093 8.6422" fill="#BF222C"/>
<path fill-rule="evenodd" clip-rule="evenodd" d="M58.7755 8.58735C59.1061 7.08903 59.1228 5.61174 58.4747 4.18521C58.0063 3.15393 56.8486 1 55.4342 1C51.7662 1 56.1471 8.09928 57.3734 8.87164C57.9629 9.24296 58.7611 8.75271 58.7573 8.11596C58.7504 7.13399 58.1434 6.3725 57.6559 5.53269C57.4191 5.12293 56.2484 2.82178 55.9872 2.94579C55.6185 2.94579 55.2499 2.94579 54.8805 2.94579C56.563 3.82114 57.5234 6.77791 57.6536 8.44303C57.6986 9.01742 58.6354 9.22556 58.7755 8.58735Z" fill="#BF222C"/>
<path fill-rule="evenodd" clip-rule="evenodd" d="M54 8.89907C53.8614 6.19686 51.2123 4.31019 48.6306 3.57293C41.8645 1.63833 34.4766 4.82299 29.4906 9.82403C28.0948 11.2251 26.7528 13.0343 27.0388 15C29.6245 14.4417 32.0438 13.1205 33.9197 11.2418" fill="#BF222C"/>
<path fill-rule="evenodd" clip-rule="evenodd" d="M53.9864 8.79676C54.3985 2.34505 45.3473 1.47002 40.814 2.22828C35.0612 3.19166 26.068 7.9202 26.0001 14.6646C25.9917 15.5489 26.8579 16.1719 27.6867 15.9576C30.4043 15.2562 33.3517 14.0846 34.8193 11.554C35.352 10.6359 34.3194 9.78011 33.4608 10.1873C31.1805 11.2667 29.5183 12.7079 26.9784 13.3709C27.5409 13.8019 28.1034 14.2329 28.6651 14.6646C28.7093 9.73555 36.3006 5.96425 40.3118 4.86796C44.8115 3.63724 50.6872 4.30484 52.7195 9.1417C53.0057 9.82237 53.9475 9.3983 53.9864 8.79676Z" fill="#BF222C"/>
<path fill-rule="evenodd" clip-rule="evenodd" d="M28 11C29.6653 6.79772 34.2794 4.17693 38.9214 2.88623C42.3008 1.94722 46.0186 1.55471 49.315 2.71791C52.6122 3.88111 55.3011 6.92449 54.9728 10.1684" fill="#BF222C"/>
<path fill-rule="evenodd" clip-rule="evenodd" d="M29.4787 12.3355C33.4613 2.8522 51.9657 -1.95993 54.1284 11.1044C54.3603 12.5063 56.5901 12.4781 56.8454 11.1044C58.2335 3.62884 49.9795 -0.450952 43.9319 0.0396863C36.9739 0.604444 29.866 4.46913 27.0873 11.2954C26.5189 12.6924 28.8893 13.7389 29.4787 12.3355Z" fill="#BF222C"/>
<path fill-rule="evenodd" clip-rule="evenodd" d="M58.5592 7.81483C58.4704 7.91494 58.3815 8.01504 58.2927 8.11425C59.1661 5.82347 61.3079 4.77952 63.2311 5.03872C63.515 5.07716 63.8421 5.18173 63.9591 5.52673C64.1597 6.11842 63.581 6.62252 63.116 6.82094C61.4109 7.54759 59.7051 8.27335 58 9" fill="#BF222C"/>
<path fill-rule="evenodd" clip-rule="evenodd" d="M58.2884 6.67168C58.1949 6.67797 58.1015 6.68426 58.008 6.69125C58.1645 7.26148 58.321 7.83241 58.4775 8.40334C59.2445 7.83311 59.719 7.08957 60.639 6.70383C61.0696 6.52284 61.5292 6.39985 61.9931 6.34254C62.2282 6.31389 62.4598 6.3111 62.6956 6.3076C62.8089 6.3097 62.923 6.3097 63.0363 6.3083C63.2721 6.34814 63.2721 6.28524 63.0348 6.11893C63.0688 5.86316 63.1028 5.6074 63.1361 5.35163C62.8217 6.03926 60.6184 6.39146 59.9173 6.62556C58.9683 6.94212 57.9627 7.14548 57.2127 7.82123C56.7254 8.26008 57.1553 8.91906 57.6999 8.98196C58.6949 9.09726 59.6963 8.63325 60.6432 8.34953C61.6305 8.05393 62.7013 7.83101 63.6496 7.4243C64.8776 6.8974 65.6141 5.40823 64.3181 4.47462C63.1531 3.63535 61.0965 4.06582 59.8876 4.56687C58.5781 5.10984 57.2268 6.13779 57.0767 7.60949C56.9712 8.64583 58.6645 8.84848 58.906 7.85407C58.9294 7.75694 58.9527 7.6598 58.9761 7.56267C59.0774 7.14688 58.7686 6.63814 58.2884 6.67168Z" fill="#BF222C"/>
<path fill-rule="evenodd" clip-rule="evenodd" d="M41.0004 31.5C39.8958 31.5 39 30.605 39 29.5004C39 28.3958 39.8958 27.5 41.0004 27.5C42.105 27.5 43 28.3958 43 29.5004C43 30.605 42.105 31.5 41.0004 31.5Z" fill="#202020"/>
<path fill-rule="evenodd" clip-rule="evenodd" d="M58.0004 31.5C56.8958 31.5 56 30.605 56 29.5004C56 28.3958 56.8958 27.5 58.0004 27.5C59.105 27.5 60 28.3958 60 29.5004C60 30.605 59.105 31.5 58.0004 31.5Z" fill="#202020"/>
<path fill-rule="evenodd" clip-rule="evenodd" d="M64.0315 28C62.4235 28 60.9489 26.4285 60 25H62.9784C63.181 25.1613 63.3716 25.2618 63.5273 25.2618C63.6643 25.2618 63.7746 25.184 63.8424 25H64.3049C64.8568 25.7726 65.425 26.4632 66 27.0229C65.7669 27.3533 65.4332 27.6257 64.9722 27.8132C64.6557 27.942 64.3414 28 64.0315 28Z" fill="#BF222C"/>
<path fill-rule="evenodd" clip-rule="evenodd" d="M35.2751 24.4721V24.9459H44.7249C45.2449 24.9459 45.7096 25.15 46.0445 25.4756C46.3786 25.8019 46.5775 26.2401 46.5783 26.7257V30.9703C46.5775 32.092 46.1136 33.1056 45.3509 33.8489C44.5882 34.5914 43.5321 35.0541 42.3584 35.0541H37.7353C36.5355 35.0541 35.4564 34.5812 34.6768 33.8221C33.8972 33.0623 33.4225 32.0257 33.4217 30.8789V26.7257C33.4225 26.2401 33.6222 25.8019 33.9555 25.4756C34.2904 25.15 34.7551 24.9459 35.2751 24.9459V24C34.517 24 33.825 24.2995 33.3219 24.789C32.818 25.2785 32.5 25.9666 32.5 26.7257V30.8789C32.5 32.2993 33.0937 33.5864 34.0423 34.5087C34.9901 35.4325 36.2982 36 37.7353 36H42.3584C43.7702 36 45.0536 35.4427 45.9853 34.5355C46.917 33.6298 47.5008 32.3647 47.5 30.9703V26.7257C47.5008 25.9666 47.182 25.2785 46.6781 24.789C46.175 24.2995 45.483 24 44.7249 24H35.2751V24.4721Z" fill="#F8F9F9"/>
<path fill-rule="evenodd" clip-rule="evenodd" d="M31.7501 28.1826L32.8831 28.9417C33.0997 29.0865 33.3575 28.9521 33.4593 28.6418C33.5604 28.3315 33.4665 27.9622 33.2499 27.8164L32.1169 27.0583C31.9003 26.9135 31.6425 27.0479 31.5407 27.3582C31.4396 27.6685 31.5335 28.0378 31.7501 28.1826Z" fill="#F8F9F9"/>
<path fill-rule="evenodd" clip-rule="evenodd" d="M63.7249 24.4721V24H54.2751C53.517 24 52.8242 24.2995 52.3211 24.789C51.818 25.2785 51.4992 25.9666 51.5 26.7257V30.9703C51.4992 32.3647 52.083 33.6298 53.0147 34.5355C53.9456 35.4427 55.2298 36 56.6416 36H61.2647C62.7018 36 64.0091 35.4325 64.9577 34.5087C65.9063 33.5864 66.5 32.2993 66.5 30.8789V26.7257C66.5 25.9666 66.182 25.2785 65.6781 24.789C65.175 24.2995 64.4822 24 63.7249 24V24.9459C64.2449 24.9459 64.7096 25.15 65.0437 25.4756C65.3778 25.8019 65.5775 26.2401 65.5783 26.7257V30.8789C65.5775 32.0257 65.1028 33.0623 64.3232 33.8221C63.5436 34.5812 62.4637 35.0541 61.2647 35.0541H56.6416C55.4679 35.0541 54.4111 34.5914 53.6483 33.8489C52.8864 33.1056 52.4217 32.092 52.4217 30.9703V26.7257C52.4217 26.2401 52.6214 25.8019 52.9555 25.4756C53.2896 25.15 53.7543 24.9459 54.2751 24.9459H63.7249V24.4721Z" fill="#F8F9F9"/>
<path fill-rule="evenodd" clip-rule="evenodd" d="M66.8833 27.0583L65.7502 27.8164C65.5329 27.9622 65.4397 28.3315 65.5408 28.6418C65.6419 28.9521 65.8997 29.0865 66.1171 28.9417L67.2502 28.1826C67.4668 28.0378 67.5607 27.6685 67.4589 27.3582C67.3578 27.0479 67.1 26.9135 66.8833 27.0583Z" fill="#F8F9F9"/>
<path fill-rule="evenodd" clip-rule="evenodd" d="M47.33 29H51.67C52.1282 29 52.5 28.776 52.5 28.5C52.5 28.2235 52.1282 28 51.67 28H47.33C46.871 28 46.5 28.2235 46.5 28.5C46.5 28.776 46.871 29 47.33 29Z" fill="#F8F9F9"/>
<path fill-rule="evenodd" clip-rule="evenodd" d="M0 137H99V133H0V137Z" fill="#BF222C"/>
<path d="M98.5 30V33.9" stroke="#FF2D3B" stroke-width="2.5" stroke-linecap="round" stroke-linejoin="round"/>
<path d="M98.5 39.1V43" stroke="#FF2D3B" stroke-width="2.5" stroke-linecap="round" stroke-linejoin="round"/>
<path d="M92 36.5H95.9" stroke="#FF2D3B" stroke-width="2.5" stroke-linecap="round" stroke-linejoin="round"/>
<path d="M101.1 36.5H105" stroke="#FF2D3B" stroke-width="2.5" stroke-linecap="round" stroke-linejoin="round"/>
<path d="M11.5 106V109.9" stroke="#FF2D3B" stroke-width="2.5" stroke-linecap="round" stroke-linejoin="round"/>
<path d="M11.5 115.1V119" stroke="#FF2D3B" stroke-width="2.5" stroke-linecap="round" stroke-linejoin="round"/>
<path d="M5 112.5H8.9" stroke="#FF2D3B" stroke-width="2.5" stroke-linecap="round" stroke-linejoin="round"/>
<path d="M14.1 112.5H18" stroke="#FF2D3B" stroke-width="2.5" stroke-linecap="round" stroke-linejoin="round"/>
</svg>
