<svg width="45" height="39" viewBox="0 0 45 39" fill="none" xmlns="http://www.w3.org/2000/svg">
<path d="M44.25 11.2476V34.4977C44.2502 35.2934 43.9342 36.0566 43.3716 36.6193C42.8089 37.1819 42.0457 37.4979 41.25 37.4977H3.75003C2.95435 37.498 2.19111 37.1819 1.62844 36.6193C1.06576 36.0566 0.749794 35.2934 0.74997 34.4977V11.2476C0.749794 10.4519 1.06576 9.6887 1.62844 9.12603C2.19111 8.56335 2.95427 8.24738 3.75003 8.24756H17.25L44.25 11.2476Z" fill="#8F97A4"/>
<path d="M42 11.2476V34.4977C42.0002 35.2934 41.6842 36.0566 41.1216 36.6193C40.5589 37.1819 39.7957 37.4979 39 37.4977H3.75003C2.95435 37.498 2.19111 37.1819 1.62844 36.6193C1.06576 36.0566 0.749794 35.2934 0.74997 34.4977V11.2476C0.749794 10.4519 1.06576 9.6887 1.62844 9.12603C2.19111 8.56335 2.95427 8.24738 3.75003 8.24756H15L42 11.2476Z" fill="white"/>
<path d="M44.25 7.79753V14.6751C44.1669 20.9519 41.1951 26.8399 36.195 30.6351L31.7475 34.1526C31.1612 34.61 30.3389 34.61 29.7525 34.1526L29.61 34.0401L25.305 30.6351C20.3049 26.84 17.3332 20.9519 17.25 14.6751V7.79753C17.2541 7.29576 17.5457 6.84075 18 6.62761L29.5425 1.02511C30.3056 0.657644 31.1944 0.657644 31.9575 1.02511L41.9925 5.89259L43.5 6.62761C43.9543 6.84075 44.246 7.29576 44.25 7.79753Z" fill="#3BD7D7"/>
<path d="M42 6.01304V13.348C41.9714 19.9365 39.021 26.1726 33.945 30.3731L29.61 34.0406L25.305 30.6356C20.3049 26.8405 17.3332 20.9524 17.25 14.6756V7.79802C17.2541 7.29625 17.5457 6.84124 18 6.6281L29.5425 1.0256C30.3056 0.658132 31.1944 0.658132 31.9575 1.0256L41.9925 5.89307C41.9987 5.93271 42.0013 5.97288 42 6.01304Z" fill="#40EAEA"/>
<path d="M30.75 21.7477C34.478 21.7477 37.5 18.739 37.5 15.0276C37.5 11.3163 34.478 8.30762 30.75 8.30762C27.0221 8.30762 24 11.3163 24 15.0276C24 18.739 27.0221 21.7477 30.75 21.7477Z" fill="white"/>
<path d="M15.2908 24.2507L12.6857 22.9666C12.3506 22.803 12.1376 22.4633 12.1365 22.0903V21.0826C12.2239 20.9827 12.3062 20.8784 12.383 20.7701C12.7339 20.2786 13.007 19.7361 13.1927 19.1615C13.5338 19.061 13.7693 18.7494 13.7728 18.3938V17.3183C13.7716 17.0897 13.6723 16.8726 13.5001 16.7222V15.1674C13.5001 15.1674 13.8238 12.7476 10.5001 12.7476C7.1761 12.7476 7.50015 15.1674 7.50015 15.1674V16.7222C7.32797 16.8726 7.22866 17.0897 7.22743 17.3183V18.3938C7.22901 18.6691 7.3713 18.9244 7.60456 19.0706C7.78641 19.8038 8.12277 20.4898 8.59105 21.0825V22.0652C8.58999 22.4254 8.39101 22.7558 8.07311 22.9253L5.64012 24.2336C4.94034 24.6065 4.50229 25.3338 4.50009 26.1267V26.9976H16.5001V26.1794C16.4974 25.3587 16.0284 24.6107 15.2908 24.2507Z" fill="#F83633"/>
<path d="M30.75 35.2447C30.2197 35.2465 29.7043 35.0691 29.2873 34.7415L24.8397 31.22C19.6595 27.2827 16.5829 21.1778 16.5 14.6717V7.79643C16.5001 7.00673 16.9552 6.28778 17.669 5.95002L29.2153 0.349893C30.1854 -0.116631 31.3151 -0.116631 32.2852 0.349893L43.831 5.94993C44.5447 6.28787 44.9998 7.00673 45 7.79634V14.6716C44.9168 21.1781 41.8398 27.2833 36.6592 31.2207L32.2126 34.7414C31.7956 35.0691 31.2802 35.2464 30.75 35.2447ZM30.75 1.49836C30.4454 1.49783 30.1446 1.56639 29.8704 1.69901L18.3238 7.29914C18.1291 7.38879 18.0032 7.58215 18.0001 7.79643V14.6717C18.0846 20.7185 20.9508 26.3891 25.7696 30.043L30.2183 33.5653C30.5312 33.8084 30.969 33.8084 31.2818 33.5653L35.7291 30.0437C40.5487 26.39 43.4155 20.7191 43.5001 14.6717V7.79643C43.4971 7.58215 43.3712 7.38861 43.1764 7.29914L31.63 1.69901C31.3555 1.56674 31.0547 1.4981 30.75 1.49836Z" fill="#2F2E41"/>
<path d="M30.75 22.4976C26.6284 22.4811 23.299 19.1293 23.3101 15.0077C23.3212 10.886 26.6684 7.55217 30.79 7.55762C34.9116 7.56316 38.25 10.9059 38.2501 15.0275C38.2372 19.1595 34.8819 22.5013 30.75 22.4976ZM30.75 9.05765C27.4568 9.07418 24.799 11.7543 24.8099 15.0476C24.8209 18.3408 27.4967 21.0031 30.7899 20.9977C34.0832 20.9922 36.75 18.321 36.75 15.0277C36.7378 11.7238 34.0538 9.05326 30.75 9.05765Z" fill="#2F2E41"/>
<path d="M29.5228 17.9291C29.3238 17.9294 29.133 17.8503 28.9926 17.7094L27.765 16.4819C27.4722 16.1891 27.4722 15.7142 27.765 15.4214C28.0579 15.1285 28.5327 15.1285 28.8256 15.4214L29.5228 16.1186L32.6745 12.967C32.9678 12.6766 33.4406 12.6778 33.7324 12.9696C34.0242 13.2614 34.0254 13.7342 33.7351 14.0275L30.0532 17.7094C29.9126 17.8503 29.7218 17.9294 29.5228 17.9291Z" fill="#2F2E41"/>
<path d="M41.25 38.2477H3.75003C1.67994 38.2452 0.00246094 36.5677 0 34.4977V11.2476C0.00246094 9.1775 1.67994 7.50002 3.75003 7.49756H17.25C17.6643 7.49756 18 7.83339 18 8.24753C18 8.66176 17.6642 8.9975 17.25 8.9975H3.75003C2.50796 8.99882 1.50135 10.0054 1.50003 11.2475V34.4977C1.50135 35.7397 2.50796 36.7463 3.75003 36.7476H41.2501C42.4921 36.7463 43.4987 35.7397 43.5001 34.4977V11.2476C43.5001 10.8334 43.8359 10.4976 44.25 10.4976C44.6643 10.4976 45 10.8334 45 11.2476V34.4977C44.9975 36.5677 43.3201 38.2452 41.25 38.2477Z" fill="#2F2E41"/>
<path d="M16.5 30.7475H4.66989C4.25566 30.7475 3.91992 30.4118 3.91992 29.9975C3.91992 29.5833 4.25575 29.2476 4.66989 29.2476H16.5C16.9142 29.2476 17.2499 29.5834 17.2499 29.9975C17.2499 30.4117 16.9142 30.7475 16.5 30.7475Z" fill="#2F2E41"/>
<path d="M10.5 33.7475H4.66989C4.25566 33.7475 3.91992 33.4118 3.91992 32.9975C3.91992 32.5833 4.25575 32.2476 4.66989 32.2476H10.4999C10.9142 32.2476 11.2499 32.5833 11.2499 32.9975C11.2499 33.4118 10.9142 33.7475 10.5 33.7475Z" fill="#2F2E41"/>
<path d="M16.5 27.7472H4.5C4.3011 27.7473 4.11029 27.6683 3.96958 27.5276C3.82895 27.387 3.74994 27.1961 3.74994 26.9972V26.1263C3.75161 25.0572 4.34144 24.0757 5.28477 23.5724L7.71785 22.2643C7.79238 22.2256 7.83958 22.1491 7.8409 22.0651V21.3349C7.44073 20.7757 7.13636 20.154 6.94002 19.4951C6.64391 19.205 6.47701 18.808 6.4771 18.3936V17.3184C6.47771 17.0069 6.57281 16.703 6.74991 16.4468V15.206C6.69023 14.4492 6.93413 13.6998 7.42781 13.123C8.23658 12.3144 9.36017 11.9027 10.4999 11.9972C11.6394 11.9027 12.7628 12.3142 13.5717 13.1222C14.0656 13.6991 14.3096 14.4488 14.25 15.2059V16.4467C14.4271 16.7029 14.5222 17.0068 14.5228 17.3183V18.3935C14.5235 18.9262 14.2488 19.4214 13.7966 19.703C13.595 20.2371 13.3247 20.7425 12.9924 21.2067C12.9561 21.2572 12.9208 21.3048 12.8863 21.3495V22.09C12.8879 22.1768 12.9384 22.2553 13.0166 22.2928L15.6222 23.5767L15.6226 23.5775C16.6191 24.0609 17.2513 25.0716 17.25 26.1791V26.9972C17.2501 27.1961 17.1711 27.3869 17.0304 27.5276C16.8898 27.6683 16.699 27.7472 16.5 27.7472ZM5.24997 26.2472H15.75V26.1791C15.7491 25.6434 15.4419 25.1554 14.9593 24.9229L12.3541 23.639C11.7609 23.3512 11.3848 22.7492 11.3861 22.09V21.0822C11.3861 20.898 11.4539 20.7202 11.5766 20.5827C11.6469 20.5023 11.7129 20.4182 11.7744 20.3308C12.0801 19.9022 12.318 19.4292 12.4797 18.9282C12.5557 18.696 12.74 18.5154 12.9737 18.4441L13.0228 17.3183C12.8558 17.1641 12.7575 16.9493 12.7499 16.7221V15.1672C12.7499 15.1339 12.7521 15.1006 12.7565 15.0676C12.7782 14.7145 12.6618 14.3667 12.4317 14.0978C11.8968 13.6422 11.1988 13.4252 10.4999 13.4973C9.79514 13.4226 9.09114 13.6447 8.55685 14.1103C8.33467 14.378 8.22252 14.7203 8.24335 15.0676C8.24774 15.1006 8.24994 15.1339 8.24994 15.1672V16.7221C8.24994 16.9362 8.15836 17.1401 7.99831 17.2824L7.97704 18.3936C8.15291 18.5145 8.27973 18.6942 8.33484 18.9004C8.49076 19.5179 8.77315 20.0963 9.16435 20.5989C9.27764 20.7346 9.34005 20.9056 9.34084 21.0823V22.0652C9.33987 22.7011 8.98954 23.2849 8.42897 23.585L5.99511 24.8939C5.53843 25.1359 5.25199 25.6096 5.24988 26.1265V26.2472H5.24997Z" fill="#2F2E41"/>
</svg>
