<svg id="Layer_1" data-name="Layer 1" xmlns="http://www.w3.org/2000/svg" viewBox="0 0 500 250"><defs><style>.cls-1,.cls-13,.cls-7{fill:#40eaea;}.cls-1{opacity:0.3;}.cls-2{fill:#201f2b;}.cls-3{fill:#a0aabb;}.cls-4{fill:#f2f2f2;}.cls-5{fill:#2f2e41;}.cls-6{fill:#30b0b0;}.cls-8{fill:#ba2926;}.cls-9{fill:#dadada;}.cls-10{fill:#a3a3a3;}.cls-11{fill:#fff;}.cls-12{fill:#f83633;}.cls-13{opacity:0.5;}</style></defs><title>illustration-education</title><path class="cls-1" d="M109.93,164.71l-.54,4-1.31-4.67c-3.68-1.16-6.87-1.56-9.41-1-22.62,5.14,16.47,36.25,16.47,36.25a188.58,188.58,0,0,0-24.52-12.77l-.15,4.1L88.92,186c-9.37-3.67-18.07-5.36-19.81-.06-1.64,5,1.66,9.71,7.32,13.91l6.52.23-3.84,1.61c13.08,8.39,34.73,14.38,42.2,15.75-7.14-1.13-24.62-3.4-35-1.17L88,219,83.87,217c-3.62,1.17-5.88,3.11-5.63,6.16C78.7,229,104,231.05,104,231.05l92.38-.85.51.25S139.71,175.62,109.93,164.71Z"/><path class="cls-1" d="M399.72,218.63c-1.78-8.28-19.87-10.71-42.93-6.17,8.21-2.81,19.49-9.19,25.33-12.11l-4-2.55,8,.38c6.56-3.85,9.85-7.62,7.7-11-1.6-2.55-5.11-3.61-9.88-3.59l-2.5,4.48.52-4.42c-12,.69-14.74-1.27-30.94,5.28,10.12-5.26,11.58-6.89,12.25-9l-5.49-2.4h6.43c5.2-5.58,13.44-16.64,10-21.74-2.82-4.2-15.21,1.64-23.11,4.67L347.79,168l.68-6.46c-25.13,10.95-16.61,2.16-16.61,2.16s26.23-54.27,10.78-53.05c-6.11.48-12.67,4.16-19.11,10.05l-.16,5.4-1.92-3.43a138.55,138.55,0,0,0-13.78,16.16c6-12.64,10.58-25,11-34.29l-4.59-.55,4.53-3.15c-.42-4.67-2.27-8.2-6-10.07-5.75-2.86-11.78,1.47-17.71,10.08l1.46,7.77-3.68-4.36c-21.26,34.65-40.7,120-40.7,120l-1.54,4.62,62.46,3.09S403.32,235.34,399.72,218.63Z"/><path class="cls-2" d="M430.23,232.32H72.8a1,1,0,1,1,0-2.07H430.23a1,1,0,1,1,0,2.07Z"/><path class="cls-3" d="M307.87,195.56H161.38c-5.6,0-10.13-4.11-10.13-9.19v-5.46c0-5.08,4.53-9.19,10.13-9.19H307.87a16.46,16.46,0,0,0-.27,23.57Z"/><path class="cls-4" d="M305.82,174.45H232.1a9.18,9.18,0,0,0-9.19,9.19h0a9.18,9.18,0,0,0,9.19,9.19h73.72A17.66,17.66,0,0,1,305.82,174.45Z"/><path class="cls-2" d="M301.27,145.64c.32-.55-.17-1.18-.91-1.18H183.7c-9.14,0-16.56,6.11-16.56,13.66h0c0,7.54,7.42,13.66,16.56,13.66H300.4c.74,0,1.23-.64.9-1.19h0A24.3,24.3,0,0,1,301.27,145.64Z"/><path class="cls-4" d="M300.34,147.4H222.07a10.46,10.46,0,0,0-10.47,10.46v.79a10.47,10.47,0,0,0,10.47,10.47h78.44A24.12,24.12,0,0,1,300.34,147.4Z"/><path class="cls-4" d="M159.29,143.24h75.29c6.68,0,12.09-5.83,12.09-13h0c0-7.2-5.41-13-12.09-13H159.29a21.2,21.2,0,0,1,.54,25.33Z"/><path class="cls-5" d="M245.68,130.21h0c0-7.2-5.48-13-12.23-13H157.92a.66.66,0,0,1-.63-.68h0a.66.66,0,0,1,.63-.67H277.74c7.45,0,13.49,6.44,13.49,14.39h0c0,7.94-6,14.38-13.49,14.38H157.92a.66.66,0,0,1-.63-.67h0a.66.66,0,0,1,.63-.68h75.53C240.2,143.24,245.68,137.41,245.68,130.21Z"/><path class="cls-6" d="M251,158.34h-8c-1.74,0-3.14.54-3.14,1.2v.11H251Z"/><path class="cls-7" d="M257.89,161.35c0-1.66-2.11-3-4.7-3H242.85c2,0,3.56,1,3.56,2.29l0,32.26,5.72-4.15,5.82,4.15Z"/><path class="cls-8" d="M368.1,195.52H150.43a12.23,12.23,0,0,0-12.24,12.23v10.3a12.24,12.24,0,0,0,12.24,12.24H368.1l-.12-.12A24.92,24.92,0,0,1,368.1,195.52Z"/><path class="cls-4" d="M364.24,200.66H247.88a12.23,12.23,0,0,0-12.23,12.24h0a12.23,12.23,0,0,0,12.23,12.24H364.24A25,25,0,0,1,364.24,200.66Z"/><path class="cls-2" d="M307.11,213h-9.43a3.68,3.68,0,0,0-3.68,3.68V217h13.11Z"/><path class="cls-5" d="M298.06,213c2.26,0,5.63,1.91,7.52,4.26L328,245h13.14l-21.28-26.4c-2.51-3.1-6.95-5.62-9.92-5.62Z"/><path class="cls-8" d="M101.09,227.24l4.59-1.07a31.88,31.88,0,0,0,7.19-.47,11.28,11.28,0,0,1,.5,2.83c0,.32-.44,2-.77,2-1.18.18-3.26,0-6.94.06,0,0-5.81.69-8.91-.34S101.09,227.24,101.09,227.24Z"/><path class="cls-2" d="M151.77,152.17c.25,2.66,2.49,3.6,4.57,5.28,1.4,1.13,1.16,4.19.09,6.09-2.71,4.8-.4,5.39,1.78,8.92,5.25,8.5-11,10.38-13,11s-3.25,1.4-4.39,1.27c-3.45-.38-6.6-5.28-8.35-9.81s2.5-4.77,2.72-7.37-4.76-3.16-3.28-8.07c1.59-5.32,3.84-9.83,6.83-11.44,4.94-2.68,11,.12,12.32,2.27A4.18,4.18,0,0,1,151.77,152.17Z"/><path class="cls-4" d="M152.15,210.36c.43,1.07,2.78,4.84,2.78,4.84l-33.07.33-.51-6.79c9.08-.07,18.05-4.08,26.42-7C148,202.3,151.94,209.85,152.15,210.36Z"/><path class="cls-6" d="M128.7,184.34s1.78-12.54,4.64-13.84,18.32.5,20.64,1.92-1.54,16.14-2.14,20.25c0,.25-.07.5-.11.74a34.52,34.52,0,0,0,1.68,17.65c-8.46,2.57-10.65,4-19.73,3.73L130.29,195S127.6,185.37,128.7,184.34Z"/><path class="cls-9" d="M145.62,162.25s.71,6.9,1.32,8.6-1.63,5.13-5.29,6.09-1-3.68-1.08-5.47-.44-10.26-.44-10.26Z"/><path class="cls-10" d="M145.71,163.05a7,7,0,0,1-1.68,1.37,5,5,0,0,1-3.74.75c-.09-2.14-.16-4-.16-4l5.49,1S145.65,162.56,145.71,163.05Z"/><path class="cls-9" d="M144.34,149.65a6.28,6.28,0,0,1,3.43,2.67c1.27,2.11,2,8.2-2.55,10.87s-7.83-1.45-7.75-5.36S138.57,148.75,144.34,149.65Z"/><path class="cls-9" d="M136.09,156.2c0,1,.57,1.81,1.16,1.78s1-.88,1-1.89-.57-1.81-1.16-1.78S136,155.18,136.09,156.2Z"/><path class="cls-9" d="M147.65,157.75c-.36,1-.1,2,.57,2.26s1.51-.38,1.87-1.38.1-2-.57-2.26S148,156.75,147.65,157.75Z"/><path class="cls-7" d="M154,172.42a10.66,10.66,0,0,0-4.26,5.24c-1.62,3.86,3.89,23.56,5.07,24.83a2.92,2.92,0,0,0,5-1.63C160.32,197.77,158.45,173.39,154,172.42Z"/><path class="cls-11" d="M138.2,169.78l4.55,27.31L125.05,200l-5.62-25.55S134,168.5,138.2,169.78Z"/><path class="cls-11" d="M104,170.62a9.58,9.58,0,0,1,5.32-.48c3.32.65,8.58,2,10.7,4.26,3.19,3.43,6.14,26.1,6.14,26.1l-13.76-3.08-8.4-26.8Z"/><path class="cls-2" d="M151.38,217.34c-2.32-6.43-28.54-29.82-35.48-28l3.73,14.27s7.79,23.22,15.42,26.22a20.22,20.22,0,0,0,14.78-.39S153.69,223.77,151.38,217.34Z"/><path class="cls-9" d="M142,179.81c-.33.65,1.76,1.82,2.37,2.26s3.11,0,3.11,0S142.32,179.08,142,179.81Z"/><path class="cls-9" d="M119.56,210.38s-6.67,13.85-6.69,15.29c0,2.08-9.63,1.51-7.55.62.48-.2,2-1,2.11-1.07.62-.53,6.15-17.73,6.15-17.73Z"/><path class="cls-2" d="M121.68,193.82c-.32-.36-3.7-1.7-6.3,1.54s-7.58,28.45-7.58,28.45l6.13.6S129.18,202.09,121.68,193.82Z"/><path class="cls-12" d="M101.86,174.91l7.88,23a2.56,2.56,0,0,0,2,1.71c7.39,1,11.25,1.58,11.25,1.58s1.44.07,3,.09l16.92-1.8a2.6,2.6,0,0,0,2.22-3.09L141,173.83a2.53,2.53,0,0,0-2.89-2.1l-16.27,2.73-4.28-.11-12.8-2.87A2.58,2.58,0,0,0,101.86,174.91Z"/><path class="cls-9" d="M136.29,186.09a50.29,50.29,0,0,0,6.09.8,16.24,16.24,0,0,1,3.57.44s5.06,11.92,5.79,13.25c2.17,4,8.19,3.5,8.09.19-.08-2.63-10.36-19.12-13.09-19s-11.29-1.7-11.55-.62c-.13.59,7.88.86,6.62,1.36-.79.31-7.06-.4-7,.34s5.67.81,6.28,1.38-6-.7-6,.55c0,.64,5.82.18,6.46,1.14C141.81,186.28,135.81,184.85,136.29,186.09Z"/><path class="cls-9" d="M105.68,184.15a.62.62,0,0,0-.86.42,1.26,1.26,0,0,0,.18,1.16c.57.62,4.54,1.2,4.56.61S106.91,184.68,105.68,184.15Z"/><path class="cls-9" d="M104.9,185.69s-.39,1.49-.05,1.5,4.64.44,4.83-.07S105.46,185.39,104.9,185.69Z"/><path class="cls-9" d="M104.72,187.23a1.37,1.37,0,0,0,.23,1c.36.38,4.36.13,4.51-.5S104.86,186.74,104.72,187.23Z"/><path class="cls-9" d="M105.33,188.62a1.26,1.26,0,0,0,.2.73c.2.21,3.15-.09,3.45-.72S105.67,188,105.33,188.62Z"/><path class="cls-9" d="M115.35,223.58a87.19,87.19,0,0,1-2.83,8.48c-.92,2.21-1.16,4.41-1.78,5.52-1.55,2.79-4.09,2.9-6.1,1.22s.68-8.74.68-8.74l6.37-9Z"/><path class="cls-12" d="M110.74,237.58c.55-1,.8-2.83,1.5-4.78a5.71,5.71,0,0,1-3.5.75,4.19,4.19,0,0,1-3.42-3.49s-3.39,7.24-1.38,8.92A4.43,4.43,0,0,0,110.74,237.58Z"/><polygon class="cls-8" points="121.86 174.47 127.07 201.44 123.94 201.25 123.03 201.19 117.58 174.35 121.86 174.47"/><path class="cls-5" d="M140,228.23c1.78,3.29,5.34,3.8,8.54,3.53,3.54-.3,7.44-2.24,8.49-6.3,1.12-4.34-.35-9.72-2.93-13.12-13.2-17.44-13.3-19.16-18.55-21.48-5.68-2.5-26.74,33.49-26.74,33.49l5.78,3a151.88,151.88,0,0,0,14.22-13.61,39.94,39.94,0,0,0,2.51-4.61S138.84,226.06,140,228.23Z"/><path class="cls-13" d="M140.21,123.35a6.39,6.39,0,0,0-2.74,11.46,4.22,4.22,0,0,1,1.62,2.48l.8,3.4A1.84,1.84,0,0,0,142,142.1l2.11-.32a1.84,1.84,0,0,0,1.57-2c-.25-3.51-.59-4.79.57-6.34A6.38,6.38,0,0,0,140.21,123.35Z"/><path class="cls-4" d="M141.43,139.44h0a.52.52,0,0,1-.58-.44l-1-7.43-1.74-1.49a.52.52,0,0,1-.06-.73.51.51,0,0,1,.72,0l2,1.74,1.09,7.82A.51.51,0,0,1,141.43,139.44Z"/><path class="cls-4" d="M144,139.37h0a.52.52,0,0,0,.43-.59l-1.21-7.41,1.23-1.94a.51.51,0,1,0-.87-.55l-1.43,2.27,1.27,7.79A.51.51,0,0,0,144,139.37Z"/><path class="cls-7" d="M139.07,137.2a.29.29,0,0,1,0,.09l.8,3.4A1.84,1.84,0,0,0,142,142.1l2.11-.32a1.84,1.84,0,0,0,1.57-2c-.11-1.56-.24-2.68-.25-3.58Z"/><path class="cls-3" d="M139.16,69.08,137,65.88h-3.88a.54.54,0,0,1-.43-.86L135,61.94l-1.21-3.69a.53.53,0,0,1,.68-.67l3.67,1.29,3.14-2.29a.53.53,0,0,1,.85.44L142,60.91l3.15,2.27a.54.54,0,0,1-.16.95l-3.73,1.11-1.19,3.7A.54.54,0,0,1,139.16,69.08Z"/><path class="cls-3" d="M343.81,74.87l-1.63-2.35h-2.85a.39.39,0,0,1-.31-.63l1.73-2.27-.89-2.71a.39.39,0,0,1,.5-.49l2.7.94,2.3-1.68A.4.4,0,0,1,346,66l-.07,2.86,2.31,1.67a.39.39,0,0,1-.12.69l-2.73.82-.88,2.72A.39.39,0,0,1,343.81,74.87Z"/><polygon class="cls-3" points="298.31 40.36 294.72 39.76 292.62 42.82 288.64 41.86 287.41 45.8 282.86 44.91 281.28 48.41 276.77 48.27 276.82 46.56 280.19 46.67 281.87 42.98 286.23 43.83 287.49 39.82 291.88 40.88 293.93 37.89 297.26 38.45 298.19 36.21 299.77 36.87 298.31 40.36"/><polygon class="cls-3" points="196.42 51.49 193.79 52.29 192.03 48.21 188.04 48.91 186.22 46.07 184.78 46.99 187.22 50.8 191 50.13 192.83 54.38 196.79 53.16 196.42 51.49"/><path class="cls-12" d="M119,94.77l-3.94,2.39,4.08,18.33a2.38,2.38,0,0,0,3.55,1.51h0a2.36,2.36,0,0,0,1.07-2.56l-1-4.3,4.12-2.52,3.42,2.86a2.36,2.36,0,0,0,2.75.21l.07,0a2.36,2.36,0,0,0,.29-3.84Zm2.66,11-.75-3.37,2.64,2.22Z"/><path class="cls-12" d="M356.35,112.11a5.83,5.83,0,0,1,2.72-4.17c1.06-.72,1.93-1.34,2.17-2.19.4-1.47-1.14-2.17-2.67-2.16a1.46,1.46,0,0,1-1.47-1.43h0a1.48,1.48,0,0,1,1.4-1.52,9.49,9.49,0,0,1,3,.35c3.29.91,4.29,3.15,3.71,5.22-.53,1.9-2.05,2.82-3.28,3.6a4.64,4.64,0,0,0-2.27,3.22Zm-1.6,3.26a2.31,2.31,0,1,1,1.59,2.89A2.24,2.24,0,0,1,354.75,115.37Z"/><path class="cls-13" d="M246.3,16.77a5.81,5.81,0,0,0-4,9.93,3.9,3.9,0,0,1,1.12,2.45l.25,3.18a1.68,1.68,0,0,0,1.68,1.54h1.94A1.68,1.68,0,0,0,249,32.33c.26-3.2.12-4.39,1.37-5.63A5.81,5.81,0,0,0,246.3,16.77Z"/><path class="cls-4" d="M245.21,31.41h0a.48.48,0,0,1-.46-.48l.08-6.82-1.36-1.58a.46.46,0,1,1,.7-.61l1.6,1.85L245.68,31A.48.48,0,0,1,245.21,31.41Z"/><path class="cls-4" d="M247.54,31.69h0a.46.46,0,0,0,.46-.47l-.07-6.83,1.36-1.57a.47.47,0,0,0-.71-.61L247,24.05l.08,7.18A.46.46,0,0,0,247.54,31.69Z"/><path class="cls-7" d="M243.39,29.07a.19.19,0,0,0,0,.08l.25,3.18a1.68,1.68,0,0,0,1.68,1.54h1.94A1.68,1.68,0,0,0,249,32.33c.11-1.42.15-2.45.27-3.26Z"/><polygon class="cls-4" points="256.17 8.09 251.74 15.6 259.26 10.01 256.17 8.09"/><polygon class="cls-4" points="238.14 6.15 242.68 13.87 241.91 5 238.14 6.15"/><polygon class="cls-4" points="230.26 17.2 237.47 20.04 230.11 20.48 230.26 17.2"/><polygon class="cls-4" points="252.51 27.36 255.4 31.03 257.52 28.52 252.51 27.36"/><polygon class="cls-4" points="255.4 20.62 261.96 17.92 262.15 20.81 255.4 20.62"/><polygon class="cls-4" points="238.24 27.94 232.07 30.84 234 33.15 238.24 27.94"/><path class="cls-5" d="M165,67a29.6,29.6,0,0,1,4.79,1c2.22.63,3.52,1.23,4.49,2.26a3.63,3.63,0,0,1,1,3.7,3.78,3.78,0,0,1-3.63,2.68v0a4.19,4.19,0,0,1,2.06,4.88,4.46,4.46,0,0,1-2.64,2.93c-1.44.6-3.54.56-6.74-.35a27.07,27.07,0,0,1-3.86-1.37Zm1.84,7.18,1.19.34c1.91.55,3.16,0,3.5-1.14s-.4-2.13-2-2.6a10.71,10.71,0,0,0-1.58-.34Zm-2,7.13a13.1,13.1,0,0,0,1.4.45c1.64.47,3.27.27,3.76-1.43s-.81-2.68-2.62-3.2l-1.24-.35Z"/><path class="cls-8" d="M320.68,73.94a1.69,1.69,0,0,1-1.23,2,15.85,15.85,0,0,1-3.11.4c-6.34.21-9.73-3.62-9.91-8.84-.21-6.25,4.13-9.88,9.68-10.07a13.55,13.55,0,0,1,2.85.18,1.68,1.68,0,0,1,1.35,2v.06A1.68,1.68,0,0,1,318.37,61a9.21,9.21,0,0,0-2-.13c-3.29.11-5.77,2.18-5.64,6.26.13,3.67,2.38,5.91,6.08,5.78a11.41,11.41,0,0,0,1.85-.23,1.67,1.67,0,0,1,2,1.27Z"/><path class="cls-2" d="M115.24,159.23a2.56,2.56,0,0,1,1.61-3.22,2.55,2.55,0,1,1-1.61,3.22Zm-.45-4-4.27-10.19a1.6,1.6,0,0,1,.94-2.12l1-.38a1.6,1.6,0,0,1,2.07,1l3.24,10.56Z"/><path class="cls-9" d="M309.09,146s11,4.79,12,5c.61.14,7.6-7.1,11.41-9.93.17-.13.85-1.1,1-1.19,2.27-1.14-1.57,5.42-1.57,5.42s-8.1,10.31-9.94,11.19c-2.3,1.11-13.68-4.52-13.61-4.84Z"/><path class="cls-12" d="M307.34,135.72c.48-3.24,2.73-10.14.65-12.89-2.92-3.88-9.08-3.71-12,0a19.4,19.4,0,0,0-2.76,5.85,30,30,0,0,1-1.56,3.91,7.77,7.77,0,0,1-2.31,3.18c-4.84,3-10.26,5-10.61,11.75-.42,8.05,8.41,18.13,19.24,13.25,4.15-1.86,9.58-7.9,11.35-12.08.8-1.88.42-1.68,0-4.55C308.94,141.58,307,138.33,307.34,135.72Z"/><path class="cls-2" d="M301.45,140.54l14.72,8.1-3.47,5.27s-11.08-4.23-13.33-4.83S298.9,140.32,301.45,140.54Z"/><path class="cls-9" d="M301.2,133.51s-.39,5.61-.67,7.18-.48,8.38,2.9,9.21,2.11-8.33,2.16-10,.39-7,.39-7Z"/><path class="cls-10" d="M301.15,134.18a6.57,6.57,0,0,0,.92,1.09,4.48,4.48,0,0,0,3.69,1.4L306,133l-4.78.56Z"/><path class="cls-9" d="M304.69,122.78a5.8,5.8,0,0,0-3.63,1.69c-1.57,1.62-3.45,6.92.07,10.24s7,.46,7.71-3S310,123.17,304.69,122.78Z"/><path class="cls-12" d="M306.61,123s-2.14,5.53-7.2,5.06c-2.29-.21-2.81,2.92-2.81,2.92s1.88-7.43,4.23-8.54S306.61,123,306.61,123Z"/><path class="cls-9" d="M300.06,129.35c.12,1-.32,1.82-1,1.89s-1.28-.64-1.39-1.61.32-1.82,1-1.9S300,128.38,300.06,129.35Z"/><path class="cls-2" d="M337.67,131.16l-12.46,25.46a1.21,1.21,0,0,0,.2,1.55l9.1,5.33,11.38-22.56-6.82-10.2C338.73,130.23,338,130.44,337.67,131.16Z"/><path class="cls-11" d="M326.81,155.79l10.84-22.16c.35-.72,1.06-.93,1.4-.42,1.52,2.26,3.8,5.68,5.44,8.13l-10.21,20.25L327,157.34A1.21,1.21,0,0,1,326.81,155.79Z"/><path class="cls-9" d="M332.73,139.4a2.59,2.59,0,0,1,1-.77c.52-.14,1.16-.12,1.26.22.15.49-1.4,1-1.4,1l-.84,1.23A2.26,2.26,0,0,1,332.73,139.4Z"/><path class="cls-9" d="M300.77,139.18s3.84,3.17,4.94,4.27a27.54,27.54,0,0,0,3,2.42l-3.1-4.29-2-1.83Z"/><path class="cls-9" d="M348.39,190a7,7,0,0,1-1.36-2.53c-1.29-6.67-7.38-24.72-14-24.72-5.79,0-23.66,14-32,22.11-2.41,2.34-2.25.36-.77.9.88.33,6.85,10.25,7.8,10.29,2.92.14,5.62-1.82,8.05-3.18a23.14,23.14,0,0,0,8.45-7.65,128.32,128.32,0,0,0,9.16-16.08,73.32,73.32,0,0,0,2.32,8c1.72,3.49,6.85,12.11,8.87,15.46l7.88-.21A39.06,39.06,0,0,1,348.39,190Z"/><path class="cls-9" d="M333.52,166.44S307,178.78,305.37,183s-.39,10.54,3.47,11.83,27.77-19.16,27.77-19.16a40.3,40.3,0,0,0,7.45,9.52c2.33,2,6.27,3.73,8.52,5.23a6,6,0,0,1,2.41,2.61l5.52.25s-.93-.31-2.6-2.57C352.27,183.13,339.17,165.45,333.52,166.44Z"/><path class="cls-5" d="M323.3,164.9s8.51,9.17,10.18,21.25c0,0-13.33,5.74-19.88,9.21s-13.89-.13-16.2-4,0-14.72,0-14.72L311,174.54Z"/><path class="cls-6" d="M343.48,190.24c-.68-.26-.91,3.17-1,3.94a1.77,1.77,0,0,0,.39,1.51c.28.19,11.2.41,13.28-.15a1.83,1.83,0,0,0,.49-.26c1.54-1.34-5.56-4.89-7-4.59A9.54,9.54,0,0,1,343.48,190.24Z"/><path class="cls-2" d="M300.55,140.67s-2.08,0-4.3,4.76c-2.73,5.88,1.17,28.33.88,31.53,0,0,1,1.11,6.57,1.92a8.71,8.71,0,0,0,7.78-2.83,51.38,51.38,0,0,1,.65-16.82c1-4.42,1.58-8.7-2.52-12.67A30.49,30.49,0,0,0,300.55,140.67Z"/><path class="cls-6" d="M352.65,190.45c-.68-.26-1.26,3.05-1.21,3.85a3.24,3.24,0,0,0,.38,1.58c.28.19,11.21.35,13.3-.21a2.3,2.3,0,0,0,.48-.26c1.54-1.34-6.35-4.69-7.78-4.39C356.55,191.28,355.7,191.62,352.65,190.45Z"/><path class="cls-5" d="M345.34,130.11l-20.65,30.07c-.48.69-.36,1.54.23,1.76l14,5.21,16.52-23.68-8.24-13.66C346.8,129.19,345.86,129.35,345.34,130.11Z"/><path class="cls-9" d="M340.43,152.91c-.26-.51-2.41.62-2.41.62a14.71,14.71,0,0,1-2,.26c-.16-.08,1.28-.2,1.28-.2s2.34-.8,2.32-1.06c-.11-1.08-1.58.26-2.73.31a14.91,14.91,0,0,1-2.68-.12c-.34-.19.52-.61.52-.61s1.13-.51.95-.81c-.44-.72-3.07.65-3.63,1.16a8.38,8.38,0,0,1-1.48,1.37c-2.82,1.59-6.2,4.33-10.18,6.25C319,159,306.29,147.54,306,147.26l-7,5.48s20,15.19,21.07,15.16c1.39-.05,9.7-8.81,11.94-10.9a7.33,7.33,0,0,1,3.07-.47,10.13,10.13,0,0,0,3.75-.85c.75-.79-2.78,0-2.45-.2a15.12,15.12,0,0,1,1.87-.3,2.86,2.86,0,0,0,1.78-.86c.21-.47-2,.2-2,.2l-1.81.11,1.73-.35S340.69,153.41,340.43,152.91Z"/><path class="cls-2" d="M304,143.78c-2.25-2.3-6.57-2-7.83,1.32a9.15,9.15,0,0,0,.06,4.5c1.6,3.86,10.93,10.16,10.93,10.16l5.14-7Z"/><path class="cls-9" d="M211.59,76.78c0-.3.37-2.2.37-2.2s-.85-2.7-.94-2.71c-1.74-.12-3.06,1.06-2.76,2.66v0a8.15,8.15,0,0,0,6.31,5.56l2.13.38a12,12,0,0,1-.54-3.56A30.51,30.51,0,0,1,211.59,76.78Z"/><path class="cls-2" d="M241.1,64.86c0-.15-15.34,9.8-15.34,9.8s-6.53.06-11.35,0a15.23,15.23,0,0,0,.61,4.26c4.76.91,10.19,1.86,11.43,1.76,2.3-.18,13.83-5.93,13.83-5.93S241.13,65,241.1,64.86Z"/><path class="cls-5" d="M241.27,102c0-.25-3.26-11.33-3.6-21.26-.26-7.69,2.12-14.59,3.34-15.85.45-.47,4.65-1.48,4.65-1.48L244.13,66c-1.55,2.93-2,5.53-2.65,8.84-1.95,9.6,6.83,28.8,6.39,28.92S241.39,103,241.27,102Z"/><polygon class="cls-4" points="207.76 63.27 205.07 65.02 213.1 78.52 215.62 67.56 207.76 63.27"/><polygon class="cls-4" points="209.42 61.14 212.79 72.35 215.49 67.51 209.42 61.14"/><polygon class="cls-4" points="231.69 59.85 234.29 69.26 215.17 67.53 231.69 59.85"/><path class="cls-9" d="M220.79,99.67s-8.12,9.92-8.15,11.37c0,2.07-9.63,1.5-7.55.61.48-.2,2-1,2.11-1.06.62-.54,7-13.07,7-13.07Z"/><path class="cls-2" d="M200.86,112.6l6.18-1.92a9.08,9.08,0,0,0,5.6.38,8.26,8.26,0,0,1,1.06,3.36c0,.33.19,1.3-.14,1.35-1.18.18-4.45.11-8.13.19a31.32,31.32,0,0,1-8.08-1C194.25,114,200.86,112.6,200.86,112.6Z"/><path class="cls-8" d="M260.12,102A44.09,44.09,0,0,1,246,95.48c-7.9-5.65-16.79-11.53-20.31-11-2.82.39-19.28,23-19.28,23l8,3.47,14.4-14.78s14.71,15.16,19.54,16.19C259.3,114.68,262.82,106.57,260.12,102Z"/><path class="cls-7" d="M204.7,65,215.78,88.5a.37.37,0,0,0,.26.21l7.41,2.06L214,67.51l-8.82-3A.38.38,0,0,0,204.7,65Z"/><path class="cls-2" d="M242.42,42.84a2.56,2.56,0,0,1,4.33,0,1.9,1.9,0,0,1,2.57.32S251.87,42,253,45.91a1.34,1.34,0,0,1,1.72,1.16,4.07,4.07,0,0,1-.3,2.78s.84.48.68,2A1.87,1.87,0,0,1,254,53.49s0,2.17-.86,2.93A3,3,0,0,1,251,57s-.19,1.2-1.28,1.23-2.56-.82-3.7-.21-4.35.53-4.35.53-3.72-1.12-3.12-4.85a2.66,2.66,0,0,1-.7-3.65s-1.58-3,.53-5.13A6.11,6.11,0,0,1,242.42,42.84Z"/><path class="cls-9" d="M231.14,131.22s.45,12.21.73,14.28-5.19,8.26-4.49,6.1c.16-.49.57-2.14.58-2.29,0-.82-2-14.75-2-14.75Z"/><path class="cls-2" d="M225.32,155.42l2.6-5.93a9.07,9.07,0,0,0,4-4,8.25,8.25,0,0,1,3.23,1.4c.27.2,1.11.71.93,1-.63,1-2.84,3.43-5.19,6.27a31.36,31.36,0,0,1-6,5.46C222,161.31,225.32,155.42,225.32,155.42Z"/><path class="cls-12" d="M225.8,143.94c.57-.58-5.78-31.82-2.7-34.83s23.65-7.46,23.65-7.46l2.7-9.51s8.61,2.52,12.09,7.71c1.9,2.84-.05,9.32-.39,10-2.94,6.12-10.2,6.43-15.48,6.37-4.86,0-13.48-.11-13.48-.11l0,27.61a16.5,16.5,0,0,1-3.8.45A9,9,0,0,1,225.8,143.94Z"/><path class="cls-11" d="M244.87,64.08l5.57-2a1.57,1.57,0,0,0,.22,0c.6-.07,7.18,21.44,9.32,29.57s-.66,6.6-.66,6.6a24.49,24.49,0,0,1-10.64,3.28c-5.94.22-4.75-7-4.75-7s-3.13-15-2.77-20S244.87,64.08,244.87,64.08Z"/><path class="cls-9" d="M245,59.71l0,2.74v.49s-.38,4.69,1,5.42,4.54-6.28,4.54-6.28l-1.44-8Z"/><path class="cls-9" d="M249.46,56.71a9.17,9.17,0,0,1-4.52,5.73l0-2.73,4-5.59Z"/><path class="cls-9" d="M245.07,46A4.27,4.27,0,0,0,240,50.11a34.61,34.61,0,0,0,.17,4.12c.41,3.71,2.78,7.08,4.47,6.86s6-3.2,5.53-8.48C249.81,49.34,247.82,46.6,245.07,46Z"/><path class="cls-9" d="M248.93,53.18a1.25,1.25,0,1,0,2.42-.31,1.24,1.24,0,1,0-2.42.31Z"/><path class="cls-2" d="M237.55,45.11c-1.57,1.59-1.91,3.77-.77,4.84s3.33.66,4.9-.93,1.9-3.77.76-4.85S239.11,43.51,237.55,45.11Z"/><path class="cls-2" d="M242.24,45.66c.07.6.86,1,1.75.88s1.55-.69,1.48-1.29-.86-1-1.76-.88S242.16,45.06,242.24,45.66Z"/><path class="cls-2" d="M238,50.88a1.39,1.39,0,1,0,1.2-1.57A1.39,1.39,0,0,0,238,50.88Z"/><path class="cls-5" d="M250.44,62.08s5.45-.89,7.29-.11c1.16.5,2.65,10.39,2.65,10.39s.06,10,.74,12.82c2.31,9.56,5.54,17.93,5.17,18.4-2.37,2-12.29,3.76-13,2.83C244.92,96.15,250.44,62.08,250.44,62.08Z"/><path class="cls-9" d="M259.54,72.22s-5.46,16.88-7.85,18.65-13.13-14.8-13.13-14.8-4.76-2.7-5.09-2.72c-1.35-.12,2.81-.81,2.81-.81l.51-4.31s.21,0,1.45,1.43c1.68,1.89,3.14,4.83,3.82,5.32l7.2,5.46,3.66-11.69Z"/><polygon class="cls-5" points="213.99 67.51 216.25 67.29 225.94 91.4 223.45 90.77 213.99 67.51"/><path class="cls-7" d="M235.53,61.64,241.36,90a.77.77,0,0,1-.73.93l-14.69.45-9.69-24.11,18.28-6.23A.77.77,0,0,1,235.53,61.64Z"/><path class="cls-2" d="M241.45,74,239.59,78s9.16,15.08,12,14.24,8.16-17.16,9-21.66-.9-8.23-3.21-8.8-4.11,3.34-4.82,5-3.28,13.62-3.28,13.62Z"/><path class="cls-9" d="M208.89,74.18a6.34,6.34,0,0,1-.45-1c-.11-.37,2.14-1.65,3-1.07S210,73.61,208.89,74.18Z"/><path class="cls-9" d="M209,75.65a3.54,3.54,0,0,1-.68-1c-.11-.37,2.89-1.88,3.78-1.29S210.08,75.09,209,75.65Z"/><path class="cls-9" d="M210,76.68a3.58,3.58,0,0,1-.67-1c-.11-.37,2.14-1.65,3-1.06S211.11,76.12,210,76.68Z"/><path class="cls-9" d="M237.27,69.9h-.46a2.84,2.84,0,0,1-.66-.07c-.87-.19-3.23-.65-3.42-.18s3.41,1.25,3.41,1.25-4-.51-4,.16,4,1,4,1-3.53-.13-3.6.26,4.34,1.47,4.34,1.47-3.56-.77-3.92-.32,5.59,2.62,5.59,2.62Z"/><path class="cls-9" d="M210,76.68s2-1.1,2.47-.76-1.67,2-1.67,2l.26.6S209.67,77.44,210,76.68Z"/></svg>