<svg id="Layer_1" data-name="Layer 1" xmlns="http://www.w3.org/2000/svg" viewBox="0 0 500 250"><defs><style>.cls-1{fill:#201f2b;}.cls-2{fill:#f83633;}.cls-3{fill:#b3f7f7;}.cls-4{fill:#a0aabb;}.cls-5{fill:#fdcfce;}.cls-6{fill:#2f2e41;}.cls-7{fill:#dadada;}.cls-8{fill:#ba2926;}.cls-9{fill:#a3a3a3;}.cls-10{fill:#f8a492;}.cls-11{fill:#30b0b0;}.cls-12{fill:#3f3d56;}.cls-13{fill:#40eaea;}.cls-14{fill:#fff;}.cls-15{fill:#96d9c9;}.cls-16{fill:#466eb6;}</style></defs><title>illustration-enterprise</title><path class="cls-1" d="M71.39,242.63a1.19,1.19,0,0,0,0,2.37H428.57a1.17,1.17,0,0,0,1.17-1.17v0a1.17,1.17,0,0,0-1.17-1.18Z"/><path class="cls-2" d="M258.69,118.17l-1.94-2.81h-3.43a.46.46,0,0,1-.37-.75l2.07-2.73L254,108.63a.47.47,0,0,1,.6-.59l3.23,1.13,2.77-2a.48.48,0,0,1,.75.4l-.08,3.42,2.77,2a.47.47,0,0,1-.14.83l-3.28,1-1.05,3.26A.47.47,0,0,1,258.69,118.17Z"/><path class="cls-3" d="M349.07,56.1l1.8-4.18-2.42-3.86a.63.63,0,0,1,.59-1l4.54.42L356.5,44a.63.63,0,0,1,1.09.26l1,4.45,4.23,1.7a.62.62,0,0,1,.09,1.11L359,53.89l-.31,4.54a.63.63,0,0,1-1,.43l-3.42-3L349.8,57A.63.63,0,0,1,349.07,56.1Z"/><path class="cls-4" d="M113.25,171l-2.32-4.43-5-.6a.69.69,0,0,1-.41-1.17l3.5-3.57-1-4.91a.69.69,0,0,1,1-.75l4.48,2.23,4.37-2.43a.69.69,0,0,1,1,.7l-.73,4.95,3.66,3.41a.69.69,0,0,1-.36,1.18l-4.93.83L114.48,171A.68.68,0,0,1,113.25,171Z"/><polygon class="cls-4" points="377.98 64.52 378.04 66.94 374.15 67.46 373.8 71.01 370.95 71.88 371.39 73.32 375.2 72.16 375.53 68.8 379.58 68.25 379.49 64.61 377.98 64.52"/><path class="cls-5" d="M162.74,39.72a3,3,0,0,1,3.32-2.52,3,3,0,1,1-3.32,2.52Zm1.57-4.35.78-12.77a1.84,1.84,0,0,1,2-1.72l1.27.14A1.85,1.85,0,0,1,170,23.15l-2,12.63Z"/><path class="cls-6" d="M154.65,104c.09,3.17.9,10,8.08,11.08,4.46.7,10.16-3.3,9.8-6.24s-1.19-10.43-5.84-12.14C162.8,95.21,154.46,96.89,154.65,104Z"/><path class="cls-7" d="M214.54,206.27c1,4.26,1.82,10.41,2.11,10.75.14.17.44,1.24.58,1.42,4.64,1.68,8.71-.06,11.94-2-2.53-.45-5.94-.92-6.41-1.25-1.76-1.24-1.34-5.67-1.66-9.64C219.85,205.8,216.8,205,214.54,206.27Z"/><path class="cls-4" d="M216.56,216.78c0,1.69,1.11,5.28,1.44,5.27s14.34-1.21,15.65-3.35c.79-1.28-1.36-1.62-4.48-2.23C225.94,218.38,216.94,217.84,216.56,216.78Z"/><path class="cls-7" d="M148.39,215.78a64.54,64.54,0,0,1-6.9,4.74c-.19.09-1.31.09-1.52.18-2.86,4-2.28,8.4-1.3,12,1.11-2.32,2.42-5.56,2.93-5.85a67.67,67.67,0,0,1,8.91-4.3C148.75,220.66,149,218.3,148.39,215.78Z"/><path class="cls-7" d="M155.72,126.72l-9.95,18.11s-6.66,8.38-10.09,12.68c.74,1.21,1.45,2.45,2.09,3.72,3.41-2.9,10.67-9,13.26-12.45,3.82-5,10.75-17,10.75-17Z"/><path class="cls-6" d="M182.2,158.24,171.55,174s-.61-1,3.2.35,28.41,6,29.87,7.72c1,1.23,8.65,25.36,10.12,28.46,2.22.89,5.43-.1,7.71-.43.14-11.62-6-32.78-7.66-35.26-3.67-5.55-21.14-11.54-29-14.9-1.27-.54-2.26-1-2.88-1.33Z"/><path class="cls-4" d="M141.32,220.56c-1.63-.43-4.95-.41-5-.09s-2.67,14.13-1,16c1,1.11,1.92-.87,3.35-3.71C137.69,229.1,140.2,220.65,141.32,220.56Z"/><path class="cls-6" d="M179.4,169.3c.1-1.18,2.62-8.06,3.51-10.74,0-.09-.63-1.64-1.34-3.87l-1,.16-15.15.69s-6.09,10.3-5.38,15c1,6.6,10.54,30.08,9.09,31.19-2.63,2-15.47,9.44-22.06,13.86a19.87,19.87,0,0,0,3.22,8.16c5.37-1.86,28.57-11.22,31-18.39C183.34,199.05,179.25,171.31,179.4,169.3Z"/><path class="cls-8" d="M179.16,111.42s-4.17,6.55-6.63,6.79l8.7,8s5.92-8.88,6.54-10.4C187.77,115.85,182.38,111.05,179.16,111.42Z"/><path class="cls-2" d="M182.2,151a23.07,23.07,0,0,0,.73,7.55c-3.5.75-15.9,2.33-18.93-1.36-.11-.13,4.3-7.89,3.69-11.06-.89-4.68-4.78-12.61-5.1-13-.54-.72-2.52,3-2.52,3-2.33,0-7.66-5.39-7.66-5.39s5.51-9.6,7-10.5,14-2.26,14.05-2.26c.92-.07,3.43,2.11,4.13,2.8C185.53,128.63,183.4,140,182.2,151Z"/><path class="cls-7" d="M166.43,113.9a35.71,35.71,0,0,1,1.37,6.34c0,1.84.74,4.33,4.59,4s.69-4.25.14-6a69.92,69.92,0,0,1-1.2-7.24Z"/><path class="cls-9" d="M171.7,113.72c-.22-1.5-.37-2.75-.37-2.75l-4.9,2.93s.28.92.58,2.1A4.54,4.54,0,0,0,171.7,113.72Z"/><path class="cls-7" d="M162.43,100.29a6.89,6.89,0,0,0-2.54,4.07c-.52,2.66,1.06,9.23,6.77,10.26s7.56-4.49,6-8.49S168.07,97.16,162.43,100.29Z"/><path class="cls-7" d="M173.18,104.46c0,1.12-.51,2-1.17,2s-1.18-.9-1.19-2,.52-2,1.17-2S173.18,103.34,173.18,104.46Z"/><path class="cls-7" d="M162.37,110c.75.9.86,2,.26,2.55s-1.72.19-2.47-.71-.86-2-.25-2.55S161.62,109.13,162.37,110Z"/><path class="cls-6" d="M156.58,97.78c.22-3.07,2.39-14.47-4.59-15.55s-8.46,6.54-12.33-3.72C136.08,69,125.42,72.68,125,79.9a6.44,6.44,0,0,0-3,.48,6.91,6.91,0,0,0-3.42,9.14c.24.57.1,1.14.45,1.61-.81,3.15-.25,6.74,2.18,10.39,6.63,10,13.27-.52,17.76,0s1.56,4.06,5.44,6.79,7,2,13.33-5.44l1.56-2A2.66,2.66,0,0,1,156.58,97.78Z"/><path class="cls-10" d="M352.69,184.65a58.41,58.41,0,0,0,7-3.49c.28-.15,1.47-1,1.64-1.15,3.08,1.84,4.21,3.4,6.64,5.85-1.8.09-2.56-1.38-3.25-1.23s-3.45,1.94-7.54,5.11C356.47,187.45,354.41,186.3,352.69,184.65Z"/><path class="cls-10" d="M303.2,220.48a39.1,39.1,0,0,0,2.42,7.34c.08.18.62.32.72.51-2.32,2.73-3.33,7.28-6.15,9.27.2-1.79,1.4-5.15,1.37-5.85-.05-.85-1.34-3.73-3.78-8.29C300.15,223.15,301.29,221.91,303.2,220.48Z"/><path class="cls-11" d="M304.66,228.57a1.54,1.54,0,0,1,2.11-.87c.75.47,1.74,1,2.49,1.5a1.68,1.68,0,0,1,.87,1.38c-.06.43-9.94,12-11.21,12.15s1.08-9.6,2.46-10.61S303.24,232.15,304.66,228.57Z"/><path class="cls-11" d="M361,181.17a1.55,1.55,0,0,1-.49-2.23c.6-.65,1.29-1.54,1.93-2.18a1.64,1.64,0,0,1,1.51-.61c.41.13,10,11.93,9.95,13.2s-9.26-2.78-10-4.32C363.28,183.65,364.3,183.21,361,181.17Z"/><path class="cls-12" d="M307,177.4s19.49,26.27,22.88,26.51c3.17.23,27.76-13.48,27.76-13.48l-3.2-7.08-19.69,7.08L321,164.49Z"/><path class="cls-6" d="M318.2,155.21s3.57.85,5.61,6.28-1.37,10-9.92,17.84c-8.32,7.67-16.54,14.88-16.54,14.88L304.1,222l-5.61,4.76s-13-28.24-13.38-35C285,189.22,305,159.45,305,159.45Z"/><path class="cls-7" d="M303.12,121.19l-10.87,6.08-8.61,4.14s-2.1-7.15-1.4-10.65a4.47,4.47,0,0,1,.78-1.36c1.42-2.13-1.62-5.44-1.62-5.44s-1.82-.52-3.07,2.5,1.05,4.29,1.05,4.29-2.61,9.14-1.52,15.79c.58,3.49,9.3.93,16.24-2.07a74.51,74.51,0,0,0,10.14-5.35Z"/><path class="cls-13" d="M305.56,120.15a1.11,1.11,0,0,0-1.22-.11c-1.35.5-14.39,7.67-14.39,7.67s1.17,6.27,4.23,8.19l6.57-2,5-12.71A1,1,0,0,0,305.56,120.15Z"/><path class="cls-12" d="M335.6,93.35c-5-3-11.13-2.44-14.8,1.63a12.26,12.26,0,0,0-9.3.26c-5.54,2.59-10.44,9.34-6.27,14.24-.89,6.51,3,10.29,7.86,10.73,2.64,5.29,12,5.83,17.36,1.47,4.44,1.72,9.72,1,13-2.22a26.08,26.08,0,0,1,2.2-2.12c-.31.16,12.38-1.52,11.8-12.71C356.87,93.2,343.2,88.82,335.6,93.35Z"/><path class="cls-13" d="M313.1,119.29l8.06.44L319.82,131s-3.89,10.84-2.31,16,3.12,9,3.12,9-4.59,5.27-17.45,4.19c0,0,.17-9.35,0-12.18s-3.45-14.61-3-17.27,3.29-10,4-10.65,3.66-.94,3.66-.94Z"/><path class="cls-7" d="M313.47,113.1s-.13.91-.27,2.08a22.93,22.93,0,0,0-.18,4.32c.25,1.79-1.44,6.52-5.25,6.7s-.08-5.23.21-7,.28-8.26.28-8.26Z"/><path class="cls-9" d="M308.3,113.67c0-1.5,0-2.74,0-2.74l5.21,2.17s-.14.94-.27,2.14A4.46,4.46,0,0,1,308.3,113.67Z"/><path class="cls-7" d="M313.87,99.73a6.6,6.6,0,0,1,3.35,3.08c1.14,2.3,1.35,8.7-3.61,11.08s-8-2.19-7.62-6.25S307.93,98.29,313.87,99.73Z"/><path class="cls-7" d="M305.09,106.25c.27,1,1,1.72,1.58,1.56s.85-1.12.58-2.14-1-1.72-1.58-1.56S304.81,105.23,305.09,106.25Z"/><path class="cls-7" d="M316.62,108.44c-.46,1-.28,2.09.41,2.4s1.61-.26,2.07-1.27.27-2.09-.41-2.4S317.08,107.43,316.62,108.44Z"/><path class="cls-1" d="M209.17,157.69c-.76-2.21-31.61-92.09-33-96a11.7,11.7,0,0,0-14.75-7.22l-46,15.33a11.43,11.43,0,0,0-7.28,14.55l33,96a11.69,11.69,0,0,0,14.75,7.22l46-15.33A11.43,11.43,0,0,0,209.17,157.69ZM198,160.11,151.5,175.6a6.75,6.75,0,0,1-8.51-4.17l-30.48-88.8a6.59,6.59,0,0,1,4.19-8.39l46.5-15.48a6.73,6.73,0,0,1,8.5,4.16c7.41,21.56,29.82,86.86,30.49,88.8A6.59,6.59,0,0,1,198,160.11Z"/><path class="cls-14" d="M186.07,170.53c.71,2.06-2.55,5-7.27,6.59s-9.13,1.17-9.84-.9,2.55-5,7.27-6.59S185.36,168.46,186.07,170.53Z"/><path class="cls-1" d="M184.81,170.69c.67,1.94-2,4.59-6,5.92s-7.77.84-8.43-1.1,2-4.6,6-5.93S184.15,168.75,184.81,170.69Z"/><path class="cls-4" d="M354.25,67.81,302.53,56.12a12.42,12.42,0,0,0-15,9l-23.6,104.39c-1.47,6.53,2.87,13.08,9.71,14.63l51.71,11.69a12.43,12.43,0,0,0,15.05-9L364,82.44A12.41,12.41,0,0,0,354.25,67.81Zm-17,109.8a7.16,7.16,0,0,1-8.68,5.21L276.28,171a7.16,7.16,0,0,1-5.59-8.44L292.51,66a7.16,7.16,0,0,1,8.68-5.21l52.25,11.81A7.16,7.16,0,0,1,359,81.06Z"/><path class="cls-14" d="M311.48,185.57c-.51,2.25-5.22,3.1-10.53,1.9s-9.2-4-8.7-6.25,5.23-3.09,10.54-1.89S312,183.32,311.48,185.57Z"/><path class="cls-4" d="M310.21,185c-.48,2.12-4.5,3-9,2s-7.73-3.55-7.25-5.66,4.5-3,9-2S310.69,182.91,310.21,185Z"/><path class="cls-7" d="M320.83,122.65s17-4.13,20.78-4.82,16.94-5.44,17.44-5.64,2.38-7,3.12-6.49-1.13,3.41-.21,3.79,8.85-3.16,8.91-2.52c.1,1.2-4.77,2.35-4.61,2.9s5-1.67,5.55-.84-4.75,1.68-4.85,2.14,5.13-.14,4.85.86c-.15.53-4.66.42-4.47,1s3.62,1.24,3.38,1.84-2.8-.9-4.58-.45-3.28-.13-5.9,1.41-11.18,8-17.28,9.34-19.55,4.32-19.55,4.32Z"/><path class="cls-13" d="M316.71,120a15.73,15.73,0,0,1,4.44-.31c.78,0,1.86,0,2.69,0,3.07-.09,6,.06,6,.06s1.54,7.46.25,9.36c0,0-12,1.72-11.72,2.55Z"/><path class="cls-7" d="M275.07,120.08l1-1.31a2.54,2.54,0,0,1,1.61-1.09c1-.1.94-1.32-.08-1.14A9.12,9.12,0,0,0,276,117a18.73,18.73,0,0,0,2.07-1.19c.2-.76-.92-1.06-2.43.06S275.07,120.08,275.07,120.08Z"/><path class="cls-7" d="M136.3,159.35a9.86,9.86,0,0,0-1.32.84l0-.07,1-1c1-.75.47-1.55-.45-1a9.53,9.53,0,0,0-1.44.93,11.42,11.42,0,0,0,1.58-1.79c0-.79-1.22-.7-2.28.84-.93,1.35.44,3.72.84,4.28a2.91,2.91,0,0,0,1.12,1.19l.24-1.55a2.49,2.49,0,0,1,1.17-1.55C137.63,160,137.21,158.85,136.3,159.35Z"/><path class="cls-7" d="M278.82,115.34s2.42-1.94,2.8-1.11.22,2.61-.14,2.48-.32-1.4-1.35-1.07C279.84,115.74,278.4,116.19,278.82,115.34Z"/><rect class="cls-13" x="267.46" y="-26.19" width="26.03" height="106.73" rx="9.02" ry="9.02" transform="translate(195.41 295.82) rotate(-77.96)"/><polygon class="cls-13" points="305.66 42.72 313.65 53.63 316.21 45.56 305.66 42.72"/><path class="cls-14" d="M255.48,18.21a4.1,4.1,0,0,1-8-1.7,4.1,4.1,0,0,1,8,1.7Z"/><path class="cls-14" d="M249,20.6h2a4.89,4.89,0,0,1,4.89,4.89v2.93a0,0,0,0,1,0,0H244.11a0,0,0,0,1,0,0V25.49A4.89,4.89,0,0,1,249,20.6Z" transform="translate(10.61 -51.59) rotate(12.04)"/><path class="cls-14" d="M289.82,28c-.81,3.8-6.94,5.71-13.71,4.26s-11.58-5.68-10.77-9.48,6.94-5.7,13.7-4.26S290.63,24.23,289.82,28Z"/><polygon class="cls-14" points="278.65 30.97 274.74 34.66 284.01 32.46 283.67 26.48 278.65 30.97"/><path class="cls-14" d="M307.1,30.43l1.4-.7a1,1,0,0,0,.52-1.17A9.56,9.56,0,0,0,307.27,25a1,1,0,0,0-1.22-.26l-2.45,1.2a1,1,0,0,0-.56.79,12.57,12.57,0,0,0,2.15,8.8,21,21,0,0,0,7.88,6.71,1,1,0,0,0,1-.11l2.26-1.68a1,1,0,0,0,.29-1.27,8,8,0,0,0-3.25-3.35,1,1,0,0,0-1.16.14l-.84.75a1,1,0,0,1-1.24.08c-.83-.55-2.23-1.89-3.55-5A1,1,0,0,1,307.1,30.43Z"/><rect class="cls-3" x="210.28" y="95.47" width="20.93" height="20.93" rx="2.81" ry="2.81" transform="translate(15.58 239.57) rotate(-58.71)"/><path class="cls-14" d="M228.74,108.16a1.49,1.49,0,0,0-.39-2.08,36.23,36.23,0,0,0-10.61-6.52,1.47,1.47,0,0,0-2,.61h0a42.52,42.52,0,0,0-2,6.46,1.51,1.51,0,0,0,.91,1.74h0a1.52,1.52,0,0,0,1.93-.73c.19-.39.37-.79.55-1.18a1,1,0,0,1,1.31-.37,31.72,31.72,0,0,1,3.83,2.32.94.94,0,0,1,.28,1.32l-.78,1a1.49,1.49,0,0,0,.26,2h0a1.54,1.54,0,0,0,2,0C224.58,112.28,227.74,109.2,228.74,108.16Z"/><path class="cls-15" d="M218.62,101.64a1,1,0,0,1,.38.41l.44-.72-.93-.57-.44.72A1.21,1.21,0,0,1,218.62,101.64Z"/><path class="cls-15" d="M217.15,102a1,1,0,0,1,.41-.39l-.72-.44-.57.93.72.44A1,1,0,0,1,217.15,102Z"/><path class="cls-15" d="M217.51,103.47a1.17,1.17,0,0,1-.39-.41l-.44.72.93.57.44-.73A1,1,0,0,1,217.51,103.47Z"/><path class="cls-15" d="M219.13,102.57a1.08,1.08,0,0,1-.15.54,1.17,1.17,0,0,1-.41.39l.72.44.56-.93Z"/><path class="cls-15" d="M218.62,102.89a.65.65,0,1,1-.22-.89A.64.64,0,0,1,218.62,102.89Z"/><path class="cls-15" d="M226.87,108a1.4,1.4,0,1,1-.47-1.92A1.39,1.39,0,0,1,226.87,108Z"/><path class="cls-5" d="M234.17,58.29a5.92,5.92,0,0,1,3.29-4,4.77,4.77,0,0,1,6.35,2.58c1.32,2.84.52,7.29-4.25,13-7.47-.08-11.39-2.34-12.71-5.18A4.79,4.79,0,0,1,229,58.21,5.9,5.9,0,0,1,234.17,58.29Z"/><rect class="cls-2" x="118.12" y="32.74" width="26.27" height="18.23" rx="3.93" ry="3.93" transform="translate(-5.24 60.53) rotate(-25.48)"/><polygon class="cls-2" points="120.08 47.08 116.52 57.68 124.43 51.84 120.08 47.08"/><path class="cls-14" d="M126,43l2.1-1.07s1.7-3.29,1.44-4-1.42-2-1.1-2.41a1.55,1.55,0,0,1,2.14-.3c.73.48,1.6,3.12,1.93,3.17a14,14,0,0,0,2.32-1,1.74,1.74,0,0,1,1.8.15h0a.93.93,0,0,1,.3,1.14l-.28.62.61.32a.93.93,0,0,1,.41,1.25l-.23.46.39.17a.93.93,0,0,1,.46,1.31l-.22.39.09.07a.92.92,0,0,1,.26,1.23l-.22.39-5.6,2.84a4.35,4.35,0,0,1-1.69.46l-2.13.67a.48.48,0,0,1-.59-.25l-2.41-4.93A.48.48,0,0,1,126,43Z"/><path class="cls-2" d="M263.41,69c12.56-2.85,24.17,1.09,25.92,8.8.87,3.86-.88,7.93-4.42,11.39l7.68,10.22L279.86,93a35.93,35.93,0,0,1-10.1,3.93c-12.56,2.85-24.16-1.09-25.91-8.81S250.85,71.82,263.41,69Z"/><path class="cls-14" d="M275.51,82.36a8.13,8.13,0,1,1-7.79-8.45A8.13,8.13,0,0,1,275.51,82.36Z"/><path class="cls-2" d="M263,83.15a4.34,4.34,0,0,0,8.68.35Z"/><polygon class="cls-5" points="105.42 104.9 101.28 105.73 101.79 109.63 97.75 110.63 97.78 114.42 94.87 115.66 95.5 117.13 99.39 115.47 99.36 111.88 103.56 110.84 103.06 107.01 106.81 106.26 105.42 104.9"/><polygon class="cls-3" points="381.45 137.02 380.29 132.95 376.44 133.78 375.13 129.82 371.35 130.16 369.88 127.36 368.47 128.11 370.43 131.85 374.01 131.53 375.38 135.64 379.17 134.83 380.21 138.51 381.45 137.02"/><polygon class="cls-13" points="106.11 61.55 103.79 62.26 102.23 58.66 98.72 59.28 97.12 56.78 95.85 57.59 97.99 60.94 101.33 60.35 102.94 64.1 106.43 63.03 106.11 61.55"/><path class="cls-7" d="M192,76.11a8.55,8.55,0,0,0-3.64-1.3c-.93-.08-5-.08-5.57.91s3.78,3.78,4,4.94-2.5,19.2-3.29,22.78a47.65,47.65,0,0,1-3.28,8c2,.32,4.5,2,6.06,3.16,2-4.36,4-9.27,4.29-11.57C191.06,98.39,192.78,76.78,192,76.11Z"/><path class="cls-16" d="M203.87,45c-1.4-.11-8.71,5.46-8.71,5.46l-.33.44s9.87,1.67,10.34,1.36C206.42,51.41,205,45.09,203.87,45Zm-8.69,5.63a54.57,54.57,0,0,1,8.35-4.3,11.28,11.28,0,0,1,.9,4.73C203.26,51,198.07,51.08,195.18,50.62Z"/><path class="cls-16" d="M193.19,40.37c-1.27-3.38-2.5-3.23-3.38-3.11s-4.81,2.9-4.45,5.05,8.25,8.4,8.25,8.4l.53-.6S194.45,43.76,193.19,40.37Zm-6.63,1.73c-.18-1.07,2.55-3.35,3.45-3.64a1.36,1.36,0,0,1,.53,0c.16,0,.77.36,1.51,2.35A37.6,37.6,0,0,1,193.7,50C190.56,47.38,186.77,43,186.56,42.1Z"/><rect class="cls-16" x="192.84" y="49.67" width="2.92" height="2.05" rx="0.8" ry="0.8" transform="translate(92.19 223.6) rotate(-74.06)"/><path class="cls-2" d="M201.69,79.67,174.5,71.9a2.9,2.9,0,0,1-2-3.4l4.81-22.25,35.41,10.11-8,22.33C204.37,79.62,203,80.06,201.69,79.67Z"/><path class="cls-8" d="M212.79,61.55,174.32,50.64l.3-2.59a2.53,2.53,0,0,1,3.21-2.14l34.76,10c1.24.36,2,1.4,1.62,2.25Z"/><rect class="cls-16" x="191.16" y="52.99" width="5.45" height="0.76" transform="translate(89.34 225.15) rotate(-74.07)"/><rect class="cls-16" x="180.92" y="65.58" width="20.48" height="0.95" transform="translate(75.17 231.73) rotate(-74.07)"/><path class="cls-7" d="M185,76.08l.1-1.16A25.42,25.42,0,0,1,182.5,74l-.15-.89c-.49-1.21-1-.34-1.19-.07a6.49,6.49,0,0,0,.13,1.74s1.83,1.93,2.62,2.67c.38.36,1.62,1.36,1.62,1.36l1-1.36Z"/></svg>