<svg width="110" height="34" viewBox="0 0 110 34" fill="none" xmlns="http://www.w3.org/2000/svg">
<path fill-rule="evenodd" clip-rule="evenodd" d="M0 21.052L2.84587 22.6923L0 24.3325V33.9997L2.84611 32.3593V1.64097L0 0.000671387V21.052Z" fill="white"/>
<path fill-rule="evenodd" clip-rule="evenodd" d="M5.69202 30.7181L8.53812 29.0777V4.92094L5.69202 3.28064V30.7181Z" fill="white"/>
<path fill-rule="evenodd" clip-rule="evenodd" d="M11.3845 27.4378L14.2306 25.7975V8.2023L11.3845 6.56189V27.4378Z" fill="white"/>
<path fill-rule="evenodd" clip-rule="evenodd" d="M17.0771 24.1567L19.9233 25.7842V8.21472L17.0771 9.85502V24.1567Z" fill="white"/>
<path fill-rule="evenodd" clip-rule="evenodd" d="M25.6153 29.065V22.6917L22.7692 21.0513V27.4373L25.6153 29.065Z" fill="white"/>
<path fill-rule="evenodd" clip-rule="evenodd" d="M25.6153 4.93408L22.7692 6.56165V21.0515L25.6153 19.4109V4.93408Z" fill="white"/>
<path fill-rule="evenodd" clip-rule="evenodd" d="M56.8366 4.94006H53.222V5.60896H54.6673V10.7035H55.3913V5.60896H56.8366V4.94006Z" fill="white"/>
<path fill-rule="evenodd" clip-rule="evenodd" d="M66.0075 4.94006H65.2834V10.7035H67.4527V10.0346H66.0075V4.94006Z" fill="white"/>
<path fill-rule="evenodd" clip-rule="evenodd" d="M46.4205 10.576H50.7542L50.3367 9.85194H47.6736L49.7422 6.26253L52.2285 10.576H53.0642L49.7422 4.8125L46.4205 10.576Z" fill="white"/>
<path fill-rule="evenodd" clip-rule="evenodd" d="M57.0365 10.7035H61.3701L60.9527 9.97938H58.2896L60.3583 6.38998L62.8445 10.7035H63.6803L60.3583 4.94006L57.0365 10.7035Z" fill="white"/>
<path fill-rule="evenodd" clip-rule="evenodd" d="M74.8636 10.7035H75.6993L72.3776 4.94006L69.0557 10.7035H73.3893L72.972 9.97938H70.3088L72.3776 6.38998L74.8636 10.7035Z" fill="white"/>
<path fill-rule="evenodd" clip-rule="evenodd" d="M44.2789 9.39032C44.1158 9.39032 43.9791 9.44767 43.8611 9.56563C43.743 9.68371 43.6857 9.8185 43.6857 9.97769C43.6857 10.1525 43.7411 10.293 43.8551 10.4069C43.9695 10.5211 44.108 10.5766 44.2789 10.5766C44.4458 10.5766 44.5824 10.5211 44.6965 10.4069C44.8146 10.2888 44.872 10.1504 44.872 9.98341C44.872 9.82048 44.8146 9.68383 44.6965 9.56563C44.5785 9.44767 44.4419 9.39032 44.2789 9.39032Z" fill="white"/>
<mask id="mask0" style="mask-type:alpha" maskUnits="userSpaceOnUse" x="0" y="0" width="110" height="34">
<path d="M0 33.9991H109.824V0H0V33.9991Z" fill="white"/>
</mask>
<g mask="url(#mask0)">
<path fill-rule="evenodd" clip-rule="evenodd" d="M34.1542 10.7035H34.8782V4.94006H34.1542V10.7035Z" fill="#F83633"/>
<path fill-rule="evenodd" clip-rule="evenodd" d="M41.0168 9.36375C40.6019 9.78094 40.0878 9.992 39.4872 9.992C38.9308 9.992 38.4345 9.78538 38.0122 9.37788C37.5857 8.96874 37.3692 8.44128 37.3692 7.81023C37.3692 7.20768 37.5778 6.69365 37.9893 6.28218C38.3999 5.86661 38.911 5.65533 39.5073 5.65533C40.1062 5.65533 40.6165 5.86696 41.0239 6.28405C41.4316 6.69681 41.6388 7.21515 41.6388 7.82355C41.6388 8.42528 41.4294 8.94339 41.0168 9.36375ZM39.5194 4.94006C38.7092 4.94006 38.0347 5.21594 37.4575 5.78357C36.8784 6.35039 36.5972 7.00877 36.5972 7.79668C36.5972 8.69672 36.9047 9.40299 37.5374 9.95591C38.1076 10.4518 38.759 10.7035 39.4731 10.7035C40.294 10.7035 40.9751 10.4286 41.555 9.86317C42.1308 9.30184 42.4108 8.63715 42.4108 7.83137C42.4108 7.02991 42.1316 6.36218 41.5572 5.79023C40.985 5.21804 40.3184 4.94006 39.5194 4.94006Z" fill="#F83633"/>
<path fill-rule="evenodd" clip-rule="evenodd" d="M37.3044 17.6221H40.0787C41.3739 17.6221 42.3037 17.8802 42.8413 18.3885C43.381 18.899 43.6432 19.6387 43.6432 20.651C43.6432 21.6292 43.3803 22.3575 42.8398 22.877C42.3016 23.3924 41.373 23.6538 40.0787 23.6538H37.3044V17.6221ZM40.2823 14.8547H34.1542V33.665H37.3044V26.4213H40.2823C42.3667 26.4213 43.9956 25.9099 45.1244 24.9C46.2654 23.8781 46.844 22.4481 46.844 20.651C46.844 18.8731 46.2848 17.4456 45.1827 16.4082C44.0879 15.3773 42.4392 14.8547 40.2823 14.8547Z" fill="#F83633"/>
<path fill-rule="evenodd" clip-rule="evenodd" d="M60.1011 20.7529C60.1011 22.8366 58.9768 23.8075 56.5622 23.8075H53.5843V17.6982H56.5622C58.9768 17.6982 60.1011 18.6691 60.1011 20.7529ZM61.9692 24.4372C62.8536 23.4702 63.3019 22.1875 63.3019 20.625C63.3019 18.9006 62.744 17.491 61.6442 16.4367C60.5495 15.3872 58.9084 14.8547 56.766 14.8547H50.4341V33.6652H53.5843V26.3193H55.4677L60.161 33.6652H63.7855L58.8105 26.1259C60.1461 25.8378 61.207 25.2714 61.9692 24.4372Z" fill="#F83633"/>
<path fill-rule="evenodd" clip-rule="evenodd" d="M67.0215 33.6652H70.1717V14.8547H67.0215V33.6652Z" fill="#F83633"/>
<path fill-rule="evenodd" clip-rule="evenodd" d="M84.2148 23.9256C83.4999 23.5801 82.5428 23.2127 81.3686 22.8325C80.4352 22.5321 79.6948 22.2595 79.1684 22.02C78.684 21.8014 78.2742 21.4955 77.9493 21.1103C77.6463 20.751 77.499 20.2834 77.499 19.6814C77.499 18.9158 77.7271 18.347 78.1962 17.9416C78.6852 17.52 79.3313 17.3152 80.171 17.3152C81.0926 17.3152 81.7938 17.5467 82.3141 18.0234C82.8466 18.5105 83.1638 19.0534 83.2835 19.6822L83.3479 20.0188H86.6615L86.6017 19.5519C86.4175 18.1237 85.7589 16.9308 84.6434 16.0077C83.5331 15.09 82.0284 14.6247 80.171 14.6247C78.9765 14.6247 77.9177 14.8352 77.0245 15.2503C76.1129 15.6743 75.4019 16.2836 74.9103 17.0628C74.4197 17.8398 74.1708 18.7467 74.1708 19.7583C74.1708 20.9316 74.4422 21.8978 74.9771 22.6301C75.5014 23.3471 76.146 23.8916 76.8921 24.25C77.5985 24.5907 78.538 24.9541 79.6891 25.3303C80.6306 25.6273 81.3856 25.9089 81.933 26.1647C82.4366 26.4017 82.8647 26.7295 83.2062 27.1397C83.5278 27.5257 83.6845 28.0234 83.6845 28.6602C83.6845 29.403 83.4571 29.9913 82.9898 30.459C82.5293 30.9195 81.8383 31.1525 80.9361 31.1525C80.2288 31.1525 79.6243 31.0126 79.1388 30.7358C78.6501 30.4574 78.2705 30.1022 78.0113 29.6798C77.7478 29.2509 77.5921 28.8083 77.5475 28.3632L77.5103 27.9902H74.2092L74.2489 28.4408C74.3399 29.4815 74.6878 30.4235 75.2829 31.2382C75.8758 32.0492 76.6761 32.694 77.6617 33.1545C78.6392 33.6117 79.7667 33.8439 81.0125 33.8439C82.3011 33.8439 83.4065 33.5946 84.2987 33.1035C85.1969 32.6091 85.8778 31.9536 86.3224 31.1574C86.7635 30.3667 86.9871 29.5009 86.9871 28.5833C86.9871 27.3598 86.7121 26.3564 86.1699 25.6007C85.6375 24.857 84.9796 24.2937 84.2148 23.9256Z" fill="#F83633"/>
<path fill-rule="evenodd" clip-rule="evenodd" d="M106.353 15.1609L100.453 29.3476L94.4566 15.1609H90.9875V33.6647H94.1378V21.3342L99.1059 33.6647H101.732L106.674 21.2986V33.6647H109.824V15.1609H106.353Z" fill="#F83633"/>
</g>
</svg>
