<svg width="15" height="20" viewBox="0 0 15 20" fill="none" xmlns="http://www.w3.org/2000/svg">
<path fill-rule="evenodd" clip-rule="evenodd" d="M0 1.66667C0 0.747477 0.747477 0 1.66667 0H10.4167C10.5273 0 10.6331 0.0439453 10.7113 0.12207L14.8779 4.28874C14.9561 4.36686 15 4.47266 15 4.58333V18.3333C15 19.2525 14.2525 20 13.3333 20H1.66667C0.747477 20 0 19.2525 0 18.3333V1.66667ZM10 0.833333H1.66667C1.20728 0.833333 0.833333 1.20728 0.833333 1.66667V18.3333C0.833333 18.7927 1.20728 19.1667 1.66667 19.1667H13.3333C13.7927 19.1667 14.1667 18.7927 14.1667 18.3333V5H11.6667C10.7475 5 10 4.25252 10 3.33333V0.833333ZM10.8333 1.42253L13.5775 4.16667H11.6667C11.2073 4.16667 10.8333 3.79272 10.8333 3.33333V1.42253ZM5.83333 8.37402C5.83333 6.9637 6.51327 6.66667 7.08333 6.66667C7.83366 6.66667 8.33333 6.95028 8.33333 8.33333C8.33333 8.65885 8.16488 9.26961 7.78158 10.4541C8.02734 10.7471 8.31055 11.0547 8.62793 11.3721C8.87207 11.6162 9.23828 11.9279 9.62402 12.2314C10.214 12.1326 10.6653 12.0833 10.8333 12.0833H10.834C11.3754 12.0833 12.5 12.0833 12.5 13.068C12.5 13.5689 12.2831 14.1667 11.25 14.1667C10.8769 14.1667 10.1066 13.6532 9.40918 13.1169C8.53882 13.2792 7.43652 13.5384 6.54948 13.8883C5.69499 15.6315 4.52474 16.6667 3.75 16.6667C3.14901 16.6667 2.5 16.2972 2.5 15.6999C2.5 14.8771 3.37809 14.4596 4.70866 13.8298L4.76506 13.803C5.04081 13.6723 5.33618 13.5323 5.64616 13.3773C5.73812 13.3313 5.83455 13.2874 5.93262 13.2438C6.05306 12.9744 6.16618 12.6827 6.27116 12.3682L6.40757 11.9584L6.40761 11.9583L6.40771 11.958C6.57106 11.4675 6.71907 11.023 6.84896 10.6266C6.17391 9.74935 5.83333 8.99577 5.83333 8.37402ZM7.08333 7.5C7.37793 7.5 7.5 7.5 7.5 8.33333C7.5 8.50912 7.38241 8.94775 7.16797 9.63379C6.84082 9.13005 6.66667 8.69995 6.66667 8.37402C6.66667 7.50081 6.93766 7.5 7.08333 7.5ZM8.03874 11.9613C7.83895 11.7615 7.65177 11.5674 7.47884 11.377C7.35474 11.7521 7.2168 12.168 7.06217 12.6318C7.03776 12.7059 7.01172 12.7791 6.98568 12.8516C7.50814 12.686 8.0542 12.5468 8.56771 12.4349C8.30973 12.2148 8.11686 12.0394 8.03874 11.9613ZM10.8333 12.9167C11.449 12.9167 11.6235 12.9765 11.6667 13.068C11.6667 13.2552 11.6659 13.3341 11.2793 13.3366C11.1658 13.3122 10.9033 13.1567 10.5794 12.9362C10.697 12.9232 10.7845 12.9167 10.8333 12.9167ZM3.75 15.8333C3.98641 15.8333 4.60531 15.4126 5.23112 14.5052L5.06673 14.5833L5.06636 14.5835C4.21442 14.9871 3.33333 15.4045 3.33333 15.6999C3.35083 15.7214 3.51196 15.8333 3.75 15.8333Z" fill="#F83633"/>
</svg>
