<svg width="52" height="52" viewBox="0 0 52 52" fill="none" xmlns="http://www.w3.org/2000/svg">
<path fill-rule="evenodd" clip-rule="evenodd" d="M26 0C40.3594 0 52 11.6406 52 26C52 40.3594 40.3594 52 26 52C11.6406 52 0 40.3594 0 26C0 11.6406 11.6406 0 26 0ZM34.3333 15H17.6667C15.6454 15 14 16.6454 14 18.6667V39.3333C14 39.8853 14.448 40.3333 15 40.3333C15.552 40.3333 16 39.8853 16 39.3333V33.6667H34.3333C36.3546 33.6667 38 32.0213 38 30V18.6667C38 16.6454 36.3546 15 34.3333 15ZM27.2247 19.0253C27.7633 19.15 28.098 19.6867 27.9747 20.2247L25.9747 28.8914C25.868 29.354 25.4567 29.6667 25.0007 29.6667C24.9267 29.6667 24.8507 29.658 24.7753 29.6414C24.2367 29.5167 23.9013 28.98 24.0253 28.442L26.0253 19.7753C26.15 19.2373 26.686 18.9047 27.2247 19.0253ZM22.3173 21.2413C22.7367 21.6007 22.7847 22.232 22.4254 22.6513L20.984 24.3333L22.426 26.0153C22.7854 26.4347 22.7373 27.066 22.318 27.4254C22.1287 27.5874 21.8974 27.6667 21.6674 27.6667C21.3854 27.6667 21.1053 27.548 20.9073 27.318L18.9073 24.9847C18.5867 24.6093 18.5867 24.0573 18.9073 23.6827L20.9073 21.3493C21.2673 20.93 21.8973 20.8807 22.3173 21.2413ZM31.092 21.3493L33.092 23.6827C33.4133 24.0573 33.4133 24.6093 33.0927 24.9847L31.0927 27.318C30.8947 27.548 30.6146 27.6667 30.3326 27.6667C30.102 27.6667 29.8713 27.588 29.682 27.426C29.2627 27.0667 29.2146 26.4353 29.574 26.016L31.016 24.3333L29.574 22.6513C29.2146 22.232 29.2627 21.6007 29.682 21.2413C30.1027 20.882 30.7333 20.9306 31.092 21.3493Z" fill="#F83633"/>
</svg>
