<svg width="405" height="56" viewBox="0 0 405 56" fill="none" xmlns="http://www.w3.org/2000/svg">
<path d="M92.5953 10.545C92.5953 12.001 92.2803 13.296 91.6503 14.43C91.0343 15.55 90.1383 16.425 88.9623 17.055C87.8003 17.685 86.4283 18 84.8463 18H79.2393V3.15297H84.8463C86.4423 3.15297 87.8213 3.46097 88.9833 4.07697C90.1453 4.69297 91.0343 5.56097 91.6503 6.68097C92.2803 7.80097 92.5953 9.08897 92.5953 10.545ZM84.5313 14.787C85.9313 14.787 87.0163 14.416 87.7863 13.674C88.5703 12.932 88.9623 11.889 88.9623 10.545C88.9623 9.20097 88.5703 8.15797 87.7863 7.41597C87.0163 6.67397 85.9313 6.30297 84.5313 6.30297H82.8303V14.787H84.5313Z" fill="#C1C1C1"/>
<path d="M96.8247 2.98497C96.8247 2.43897 97.0207 1.99097 97.4127 1.64097C97.8047 1.27697 98.3227 1.09497 98.9667 1.09497C99.6107 1.09497 100.129 1.27697 100.521 1.64097C100.913 1.99097 101.109 2.43897 101.109 2.98497C101.109 3.51697 100.913 3.96497 100.521 4.32897C100.129 4.67897 99.6107 4.85397 98.9667 4.85397C98.3227 4.85397 97.8047 4.67897 97.4127 4.32897C97.0207 3.96497 96.8247 3.51697 96.8247 2.98497ZM100.752 6.28197V18H97.1607V6.28197H100.752Z" fill="#C1C1C1"/>
<path d="M110.203 6.13497C111.099 6.13497 111.869 6.33797 112.513 6.74397C113.157 7.14997 113.633 7.70297 113.941 8.40297V6.28197H117.511V17.937C117.511 19.029 117.301 20.009 116.881 20.877C116.461 21.759 115.817 22.459 114.949 22.977C114.081 23.495 113.003 23.754 111.715 23.754C109.951 23.754 108.537 23.334 107.473 22.494C106.423 21.668 105.793 20.541 105.583 19.113H109.132C109.244 19.589 109.496 19.96 109.888 20.226C110.294 20.492 110.819 20.625 111.463 20.625C112.205 20.625 112.8 20.408 113.248 19.974C113.71 19.554 113.941 18.875 113.941 17.937V15.879C113.633 16.579 113.157 17.132 112.513 17.538C111.869 17.944 111.099 18.147 110.203 18.147C109.237 18.147 108.369 17.909 107.599 17.433C106.843 16.943 106.241 16.243 105.793 15.333C105.359 14.423 105.142 13.359 105.142 12.141C105.142 10.909 105.359 9.84497 105.793 8.94897C106.241 8.03897 106.843 7.34597 107.599 6.86997C108.369 6.37997 109.237 6.13497 110.203 6.13497ZM111.358 9.28497C110.588 9.28497 109.965 9.53697 109.489 10.041C109.027 10.545 108.796 11.245 108.796 12.141C108.796 13.037 109.027 13.737 109.489 14.241C109.965 14.745 110.588 14.997 111.358 14.997C112.114 14.997 112.73 14.738 113.206 14.22C113.696 13.702 113.941 13.009 113.941 12.141C113.941 11.259 113.696 10.566 113.206 10.062C112.73 9.54397 112.114 9.28497 111.358 9.28497Z" fill="#C1C1C1"/>
<path d="M122.167 2.98497C122.167 2.43897 122.363 1.99097 122.755 1.64097C123.147 1.27697 123.665 1.09497 124.309 1.09497C124.953 1.09497 125.471 1.27697 125.863 1.64097C126.255 1.99097 126.451 2.43897 126.451 2.98497C126.451 3.51697 126.255 3.96497 125.863 4.32897C125.471 4.67897 124.953 4.85397 124.309 4.85397C123.665 4.85397 123.147 4.67897 122.755 4.32897C122.363 3.96497 122.167 3.51697 122.167 2.98497ZM126.094 6.28197V18H122.503V6.28197H126.094Z" fill="#C1C1C1"/>
<path d="M137.73 14.913V18H136.113C134.741 18 133.67 17.664 132.9 16.992C132.144 16.306 131.766 15.179 131.766 13.611V9.30597H130.191V6.28197H131.766V3.40497H135.357V6.28197H137.709V9.30597H135.357V13.674C135.357 14.136 135.448 14.458 135.63 14.64C135.826 14.822 136.148 14.913 136.596 14.913H137.73Z" fill="#C1C1C1"/>
<path d="M146.72 6.13497C147.616 6.13497 148.386 6.33797 149.03 6.74397C149.674 7.14997 150.15 7.70297 150.458 8.40297V6.28197H154.028V18H150.458V15.879C150.15 16.579 149.674 17.132 149.03 17.538C148.386 17.944 147.616 18.147 146.72 18.147C145.754 18.147 144.886 17.909 144.116 17.433C143.36 16.943 142.758 16.243 142.31 15.333C141.876 14.423 141.659 13.359 141.659 12.141C141.659 10.909 141.876 9.84497 142.31 8.94897C142.758 8.03897 143.36 7.34597 144.116 6.86997C144.886 6.37997 145.754 6.13497 146.72 6.13497ZM147.875 9.28497C147.105 9.28497 146.482 9.53697 146.006 10.041C145.544 10.545 145.313 11.245 145.313 12.141C145.313 13.037 145.544 13.737 146.006 14.241C146.482 14.745 147.105 14.997 147.875 14.997C148.631 14.997 149.247 14.738 149.723 14.22C150.213 13.702 150.458 13.009 150.458 12.141C150.458 11.259 150.213 10.566 149.723 10.062C149.247 9.54397 148.631 9.28497 147.875 9.28497Z" fill="#C1C1C1"/>
<path d="M162.611 2.45997V18H159.02V2.45997H162.611Z" fill="#C1C1C1"/>
<path d="M181.118 3.00597C183.008 3.00597 184.569 3.50297 185.801 4.49697C187.047 5.49097 187.852 6.83497 188.216 8.52897H184.415C184.135 7.84297 183.701 7.30397 183.113 6.91197C182.539 6.51997 181.853 6.32397 181.055 6.32397C180.005 6.32397 179.158 6.70897 178.514 7.47897C177.87 8.24897 177.548 9.27797 177.548 10.566C177.548 11.854 177.87 12.883 178.514 13.653C179.158 14.409 180.005 14.787 181.055 14.787C181.853 14.787 182.539 14.591 183.113 14.199C183.701 13.807 184.135 13.275 184.415 12.603H188.216C187.852 14.283 187.047 15.627 185.801 16.635C184.569 17.629 183.008 18.126 181.118 18.126C179.676 18.126 178.409 17.811 177.317 17.181C176.225 16.537 175.378 15.641 174.776 14.493C174.188 13.345 173.894 12.036 173.894 10.566C173.894 9.09597 174.188 7.78697 174.776 6.63897C175.378 5.49097 176.225 4.60197 177.317 3.97197C178.409 3.32797 179.676 3.00597 181.118 3.00597Z" fill="#C1C1C1"/>
<path d="M196.339 8.48697C196.787 7.77297 197.361 7.20597 198.061 6.78597C198.775 6.36597 199.545 6.15597 200.371 6.15597V9.99897H199.342C198.39 9.99897 197.648 10.202 197.116 10.608C196.598 11.014 196.339 11.7 196.339 12.666V18H192.748V6.28197H196.339V8.48697Z" fill="#C1C1C1"/>
<path d="M215.524 11.826C215.524 12.12 215.489 12.442 215.419 12.792H207.292C207.334 13.674 207.558 14.311 207.964 14.703C208.37 15.081 208.888 15.27 209.518 15.27C210.05 15.27 210.491 15.137 210.841 14.871C211.191 14.605 211.422 14.262 211.534 13.842H215.335C215.181 14.668 214.845 15.41 214.327 16.068C213.809 16.712 213.151 17.223 212.353 17.601C211.555 17.965 210.666 18.147 209.686 18.147C208.538 18.147 207.516 17.909 206.62 17.433C205.738 16.943 205.045 16.243 204.541 15.333C204.037 14.423 203.785 13.359 203.785 12.141C203.785 10.909 204.03 9.84497 204.52 8.94897C205.024 8.03897 205.724 7.34597 206.62 6.86997C207.516 6.37997 208.538 6.13497 209.686 6.13497C210.848 6.13497 211.87 6.37297 212.752 6.84897C213.634 7.32497 214.313 7.99697 214.789 8.86497C215.279 9.71897 215.524 10.706 215.524 11.826ZM211.891 11.28C211.905 10.51 211.695 9.93597 211.261 9.55797C210.841 9.16597 210.316 8.96997 209.686 8.96997C209.028 8.96997 208.482 9.16597 208.048 9.55797C207.614 9.94997 207.369 10.524 207.313 11.28H211.891Z" fill="#C1C1C1"/>
<path d="M224.368 6.13497C225.264 6.13497 226.034 6.33797 226.678 6.74397C227.322 7.14997 227.791 7.70297 228.085 8.40297V2.45997H231.676V18H228.085V15.879C227.791 16.579 227.322 17.132 226.678 17.538C226.034 17.944 225.264 18.147 224.368 18.147C223.402 18.147 222.534 17.909 221.764 17.433C221.008 16.943 220.406 16.243 219.958 15.333C219.524 14.423 219.307 13.359 219.307 12.141C219.307 10.909 219.524 9.84497 219.958 8.94897C220.406 8.03897 221.008 7.34597 221.764 6.86997C222.534 6.37997 223.402 6.13497 224.368 6.13497ZM225.523 9.28497C224.753 9.28497 224.13 9.53697 223.654 10.041C223.192 10.545 222.961 11.245 222.961 12.141C222.961 13.037 223.192 13.737 223.654 14.241C224.13 14.745 224.753 14.997 225.523 14.997C226.279 14.997 226.895 14.738 227.371 14.22C227.861 13.702 228.106 13.009 228.106 12.141C228.106 11.259 227.861 10.566 227.371 10.062C226.895 9.54397 226.279 9.28497 225.523 9.28497Z" fill="#C1C1C1"/>
<path d="M247.799 11.826C247.799 12.12 247.764 12.442 247.694 12.792H239.567C239.609 13.674 239.833 14.311 240.239 14.703C240.645 15.081 241.163 15.27 241.793 15.27C242.325 15.27 242.766 15.137 243.116 14.871C243.466 14.605 243.697 14.262 243.809 13.842H247.61C247.456 14.668 247.12 15.41 246.602 16.068C246.084 16.712 245.426 17.223 244.628 17.601C243.83 17.965 242.941 18.147 241.961 18.147C240.813 18.147 239.791 17.909 238.895 17.433C238.013 16.943 237.32 16.243 236.816 15.333C236.312 14.423 236.06 13.359 236.06 12.141C236.06 10.909 236.305 9.84497 236.795 8.94897C237.299 8.03897 237.999 7.34597 238.895 6.86997C239.791 6.37997 240.813 6.13497 241.961 6.13497C243.123 6.13497 244.145 6.37297 245.027 6.84897C245.909 7.32497 246.588 7.99697 247.064 8.86497C247.554 9.71897 247.799 10.706 247.799 11.826ZM244.166 11.28C244.18 10.51 243.97 9.93597 243.536 9.55797C243.116 9.16597 242.591 8.96997 241.961 8.96997C241.303 8.96997 240.757 9.16597 240.323 9.55797C239.889 9.94997 239.644 10.524 239.588 11.28H244.166Z" fill="#C1C1C1"/>
<path d="M259.625 6.15597C260.969 6.15597 262.033 6.60397 262.817 7.49997C263.615 8.39597 264.014 9.62797 264.014 11.196V18H260.423V11.616C260.423 10.832 260.213 10.223 259.793 9.78897C259.387 9.34097 258.841 9.11697 258.155 9.11697C257.427 9.11697 256.846 9.34797 256.412 9.80997C255.992 10.272 255.782 10.93 255.782 11.784V18H252.191V6.28197H255.782V8.42397C256.118 7.72397 256.615 7.17097 257.273 6.76497C257.945 6.35897 258.729 6.15597 259.625 6.15597Z" fill="#C1C1C1"/>
<path d="M275.538 14.913V18H273.921C272.549 18 271.478 17.664 270.708 16.992C269.952 16.306 269.574 15.179 269.574 13.611V9.30597H267.999V6.28197H269.574V3.40497H273.165V6.28197H275.517V9.30597H273.165V13.674C273.165 14.136 273.256 14.458 273.438 14.64C273.634 14.822 273.956 14.913 274.404 14.913H275.538Z" fill="#C1C1C1"/>
<path d="M279.74 2.98497C279.74 2.43897 279.936 1.99097 280.328 1.64097C280.72 1.27697 281.238 1.09497 281.882 1.09497C282.526 1.09497 283.044 1.27697 283.436 1.64097C283.828 1.99097 284.024 2.43897 284.024 2.98497C284.024 3.51697 283.828 3.96497 283.436 4.32897C283.044 4.67897 282.526 4.85397 281.882 4.85397C281.238 4.85397 280.72 4.67897 280.328 4.32897C279.936 3.96497 279.74 3.51697 279.74 2.98497ZM283.667 6.28197V18H280.076V6.28197H283.667Z" fill="#C1C1C1"/>
<path d="M293.119 6.13497C294.015 6.13497 294.785 6.33797 295.429 6.74397C296.073 7.14997 296.549 7.70297 296.857 8.40297V6.28197H300.427V18H296.857V15.879C296.549 16.579 296.073 17.132 295.429 17.538C294.785 17.944 294.015 18.147 293.119 18.147C292.153 18.147 291.285 17.909 290.515 17.433C289.759 16.943 289.157 16.243 288.709 15.333C288.275 14.423 288.058 13.359 288.058 12.141C288.058 10.909 288.275 9.84497 288.709 8.94897C289.157 8.03897 289.759 7.34597 290.515 6.86997C291.285 6.37997 292.153 6.13497 293.119 6.13497ZM294.274 9.28497C293.504 9.28497 292.881 9.53697 292.405 10.041C291.943 10.545 291.712 11.245 291.712 12.141C291.712 13.037 291.943 13.737 292.405 14.241C292.881 14.745 293.504 14.997 294.274 14.997C295.03 14.997 295.646 14.738 296.122 14.22C296.612 13.702 296.857 13.009 296.857 12.141C296.857 11.259 296.612 10.566 296.122 10.062C295.646 9.54397 295.03 9.28497 294.274 9.28497Z" fill="#C1C1C1"/>
<path d="M309.01 2.45997V18H305.419V2.45997H309.01Z" fill="#C1C1C1"/>
<path d="M318.272 6.13497C319.756 6.13497 320.939 6.50597 321.821 7.24797C322.717 7.98997 323.277 8.96997 323.501 10.188H320.141C320.043 9.71197 319.819 9.34097 319.469 9.07497C319.133 8.79497 318.706 8.65497 318.188 8.65497C317.782 8.65497 317.474 8.74597 317.264 8.92797C317.054 9.09597 316.949 9.34097 316.949 9.66297C316.949 10.027 317.138 10.3 317.516 10.482C317.908 10.664 318.517 10.846 319.343 11.028C320.239 11.238 320.974 11.455 321.548 11.679C322.122 11.889 322.619 12.239 323.039 12.729C323.459 13.219 323.669 13.877 323.669 14.703C323.669 15.375 323.487 15.97 323.123 16.488C322.759 17.006 322.234 17.412 321.548 17.706C320.862 18 320.05 18.147 319.112 18.147C317.53 18.147 316.263 17.797 315.311 17.097C314.359 16.397 313.778 15.396 313.568 14.094H317.033C317.089 14.598 317.299 14.983 317.663 15.249C318.041 15.515 318.524 15.648 319.112 15.648C319.518 15.648 319.826 15.557 320.036 15.375C320.246 15.179 320.351 14.927 320.351 14.619C320.351 14.213 320.155 13.926 319.763 13.758C319.385 13.576 318.762 13.387 317.894 13.191C317.026 13.009 316.312 12.813 315.752 12.603C315.192 12.393 314.709 12.057 314.303 11.595C313.897 11.119 313.694 10.475 313.694 9.66297C313.694 8.61297 314.093 7.76597 314.891 7.12197C315.689 6.46397 316.816 6.13497 318.272 6.13497Z" fill="#C1C1C1"/>
<path d="M348.258 10.545C348.258 12.001 347.943 13.296 347.313 14.43C346.697 15.55 345.801 16.425 344.625 17.055C343.463 17.685 342.091 18 340.509 18H334.902V3.15297H340.509C342.105 3.15297 343.484 3.46097 344.646 4.07697C345.808 4.69297 346.697 5.56097 347.313 6.68097C347.943 7.80097 348.258 9.08897 348.258 10.545ZM340.194 14.787C341.594 14.787 342.679 14.416 343.449 13.674C344.233 12.932 344.625 11.889 344.625 10.545C344.625 9.20097 344.233 8.15797 343.449 7.41597C342.679 6.67397 341.594 6.30297 340.194 6.30297H338.493V14.787H340.194Z" fill="#C1C1C1"/>
<path d="M363.953 11.826C363.953 12.12 363.918 12.442 363.848 12.792H355.721C355.763 13.674 355.987 14.311 356.393 14.703C356.799 15.081 357.317 15.27 357.947 15.27C358.479 15.27 358.92 15.137 359.27 14.871C359.62 14.605 359.851 14.262 359.963 13.842H363.764C363.61 14.668 363.274 15.41 362.756 16.068C362.238 16.712 361.58 17.223 360.782 17.601C359.984 17.965 359.095 18.147 358.115 18.147C356.967 18.147 355.945 17.909 355.049 17.433C354.167 16.943 353.474 16.243 352.97 15.333C352.466 14.423 352.214 13.359 352.214 12.141C352.214 10.909 352.459 9.84497 352.949 8.94897C353.453 8.03897 354.153 7.34597 355.049 6.86997C355.945 6.37997 356.967 6.13497 358.115 6.13497C359.277 6.13497 360.299 6.37297 361.181 6.84897C362.063 7.32497 362.742 7.99697 363.218 8.86497C363.708 9.71897 363.953 10.706 363.953 11.826ZM360.32 11.28C360.334 10.51 360.124 9.93597 359.69 9.55797C359.27 9.16597 358.745 8.96997 358.115 8.96997C357.457 8.96997 356.911 9.16597 356.477 9.55797C356.043 9.94997 355.798 10.524 355.742 11.28H360.32Z" fill="#C1C1C1"/>
<path d="M383.528 6.15597C384.97 6.15597 386.104 6.60397 386.93 7.49997C387.756 8.38197 388.169 9.61397 388.169 11.196V18H384.599V11.616C384.599 10.874 384.396 10.3 383.99 9.89397C383.598 9.47397 383.059 9.26397 382.373 9.26397C381.659 9.26397 381.092 9.48797 380.672 9.93597C380.266 10.37 380.063 10.986 380.063 11.784V18H376.472V11.616C376.472 10.874 376.276 10.3 375.884 9.89397C375.492 9.47397 374.953 9.26397 374.267 9.26397C373.553 9.26397 372.986 9.48097 372.566 9.91497C372.146 10.349 371.936 10.972 371.936 11.784V18H368.345V6.28197H371.936V8.27697C372.244 7.61897 372.713 7.10097 373.343 6.72297C373.987 6.34497 374.736 6.15597 375.59 6.15597C376.486 6.15597 377.277 6.36597 377.963 6.78597C378.649 7.19197 379.167 7.77997 379.517 8.54997C379.923 7.82197 380.476 7.24097 381.176 6.80697C381.89 6.37297 382.674 6.15597 383.528 6.15597Z" fill="#C1C1C1"/>
<path d="M398.556 6.13497C399.718 6.13497 400.754 6.37997 401.664 6.86997C402.588 7.34597 403.309 8.03897 403.827 8.94897C404.359 9.85897 404.625 10.923 404.625 12.141C404.625 13.359 404.359 14.423 403.827 15.333C403.309 16.243 402.588 16.943 401.664 17.433C400.754 17.909 399.718 18.147 398.556 18.147C397.394 18.147 396.351 17.909 395.427 17.433C394.503 16.943 393.775 16.243 393.243 15.333C392.725 14.423 392.466 13.359 392.466 12.141C392.466 10.923 392.725 9.85897 393.243 8.94897C393.775 8.03897 394.503 7.34597 395.427 6.86997C396.351 6.37997 397.394 6.13497 398.556 6.13497ZM398.556 9.24297C397.87 9.24297 397.289 9.49497 396.813 9.99897C396.351 10.489 396.12 11.203 396.12 12.141C396.12 13.079 396.351 13.793 396.813 14.283C397.289 14.773 397.87 15.018 398.556 15.018C399.242 15.018 399.816 14.773 400.278 14.283C400.74 13.793 400.971 13.079 400.971 12.141C400.971 11.203 400.74 10.489 400.278 9.99897C399.816 9.49497 399.242 9.24297 398.556 9.24297Z" fill="#C1C1C1"/>
<path d="M84.2793 34.796C85.2313 34.796 86.0503 34.964 86.7363 35.3C87.4223 35.636 87.9403 36.098 88.2903 36.686C88.6403 37.274 88.8153 37.939 88.8153 38.681C88.8153 39.605 88.5423 40.382 87.9963 41.012C87.4643 41.642 86.6803 42.02 85.6443 42.146V42.272C86.7223 42.552 87.5623 42.986 88.1643 43.574C88.7803 44.162 89.0883 44.974 89.0883 46.01C89.0883 47.228 88.6823 48.222 87.8703 48.992C87.0583 49.762 85.8893 50.147 84.3633 50.147C82.8373 50.147 81.5983 49.755 80.6463 48.971C79.7083 48.173 79.1553 47.011 78.9873 45.485H80.8773C81.0033 46.409 81.3533 47.144 81.9273 47.69C82.5153 48.236 83.3063 48.509 84.3003 48.509C85.2383 48.509 85.9593 48.271 86.4633 47.795C86.9673 47.305 87.2193 46.675 87.2193 45.905C87.2193 44.981 86.8553 44.281 86.1273 43.805C85.4133 43.315 84.3913 43.07 83.0613 43.07H82.5573V41.474H83.0613C85.6373 41.474 86.9253 40.613 86.9253 38.891C86.9253 38.135 86.6873 37.533 86.2113 37.085C85.7353 36.637 85.0773 36.413 84.2373 36.413C83.3973 36.413 82.6903 36.658 82.1163 37.148C81.5423 37.624 81.2063 38.331 81.1083 39.269H79.2393C79.3373 37.869 79.8203 36.777 80.6883 35.993C81.5703 35.195 82.7673 34.796 84.2793 34.796Z" fill="#C1C1C1"/>
<path d="M102.442 39.143C102.33 38.261 102.029 37.582 101.539 37.106C101.063 36.616 100.398 36.371 99.5435 36.371C98.3535 36.371 97.4505 36.833 96.8345 37.757C96.2325 38.681 95.9315 40.144 95.9315 42.146L95.9525 42.923C96.1625 42.083 96.6455 41.418 97.4015 40.928C98.1575 40.424 99.0465 40.172 100.069 40.172C101.539 40.172 102.687 40.613 103.513 41.495C104.353 42.377 104.773 43.609 104.773 45.191C104.773 46.115 104.591 46.955 104.227 47.711C103.863 48.453 103.303 49.048 102.547 49.496C101.805 49.93 100.881 50.147 99.7745 50.147C97.6605 50.147 96.2045 49.482 95.4065 48.152C94.6225 46.822 94.2305 45.016 94.2305 42.734C94.2305 40.102 94.6505 38.128 95.4905 36.812C96.3445 35.482 97.7305 34.817 99.6485 34.817C101.063 34.817 102.148 35.216 102.904 36.014C103.674 36.812 104.129 37.855 104.269 39.143H102.442ZM96.1625 44.876C96.1625 45.898 96.4565 46.759 97.0445 47.459C97.6465 48.145 98.5425 48.488 99.7325 48.488C100.713 48.488 101.497 48.201 102.085 47.627C102.673 47.039 102.967 46.22 102.967 45.17C102.967 44.036 102.673 43.175 102.085 42.587C101.497 41.985 100.685 41.684 99.6485 41.684C99.0605 41.684 98.5005 41.803 97.9685 42.041C97.4365 42.279 97.0025 42.643 96.6665 43.133C96.3305 43.609 96.1625 44.19 96.1625 44.876Z" fill="#C1C1C1"/>
<path d="M109.646 42.503C109.646 44.883 110.038 46.738 110.822 48.068C111.606 49.398 112.964 50.063 114.896 50.063C116.828 50.063 118.186 49.398 118.97 48.068C119.768 46.738 120.167 44.883 120.167 42.503C120.167 40.151 119.768 38.31 118.97 36.98C118.186 35.65 116.828 34.985 114.896 34.985C112.964 34.985 111.606 35.65 110.822 36.98C110.038 38.296 109.646 40.137 109.646 42.503ZM118.277 42.503C118.277 43.721 118.186 44.743 118.004 45.569C117.836 46.381 117.507 47.032 117.017 47.522C116.527 48.012 115.82 48.257 114.896 48.257C113.986 48.257 113.286 48.012 112.796 47.522C112.306 47.032 111.97 46.381 111.788 45.569C111.62 44.743 111.536 43.721 111.536 42.503C111.536 41.299 111.62 40.291 111.788 39.479C111.97 38.667 112.306 38.023 112.796 37.547C113.286 37.057 113.986 36.812 114.896 36.812C115.82 36.812 116.527 37.057 117.017 37.547C117.507 38.023 117.836 38.667 118.004 39.479C118.186 40.291 118.277 41.299 118.277 42.503Z" fill="#C1C1C1"/>
<path d="M135.021 35.195V50H133.11V35.195H135.021Z" fill="#C1C1C1"/>
<path d="M146.683 38.282C148.027 38.282 149.112 38.716 149.938 39.584C150.764 40.438 151.177 41.677 151.177 43.301V50H149.266V43.469C149.266 42.321 148.972 41.439 148.384 40.823C147.796 40.207 146.998 39.899 145.99 39.899C144.94 39.899 144.1 40.242 143.47 40.928C142.84 41.6 142.525 42.587 142.525 43.889V50H140.614V38.471H142.525V41.201C142.819 40.263 143.337 39.542 144.079 39.038C144.835 38.534 145.703 38.282 146.683 38.282Z" fill="#C1C1C1"/>
<path d="M162.13 48.32V50H160.702C159.526 50 158.644 49.72 158.056 49.16C157.482 48.6 157.195 47.662 157.195 46.346V40.13H155.473V38.471H157.195V35.594H159.127V38.471H162.109V40.13H159.127V46.388C159.127 47.13 159.26 47.641 159.526 47.921C159.806 48.187 160.282 48.32 160.954 48.32H162.13Z" fill="#C1C1C1"/>
<path d="M177.587 43.595C177.587 44.001 177.559 44.351 177.503 44.645H168.284C168.326 45.961 168.697 46.948 169.397 47.606C170.111 48.264 170.979 48.593 172.001 48.593C172.925 48.593 173.695 48.362 174.311 47.9C174.941 47.424 175.326 46.794 175.466 46.01H177.503C177.363 46.808 177.048 47.522 176.558 48.152C176.082 48.782 175.459 49.272 174.689 49.622C173.919 49.972 173.051 50.147 172.085 50.147C170.979 50.147 169.999 49.909 169.145 49.433C168.291 48.957 167.619 48.278 167.129 47.396C166.653 46.5 166.415 45.45 166.415 44.246C166.415 43.042 166.653 41.992 167.129 41.096C167.619 40.2 168.291 39.514 169.145 39.038C169.999 38.562 170.979 38.324 172.085 38.324C173.205 38.324 174.178 38.562 175.004 39.038C175.844 39.514 176.481 40.151 176.915 40.949C177.363 41.747 177.587 42.629 177.587 43.595ZM175.655 43.721C175.697 42.867 175.557 42.153 175.235 41.579C174.913 41.005 174.472 40.578 173.912 40.298C173.352 40.018 172.743 39.878 172.085 39.878C171.035 39.878 170.153 40.207 169.439 40.865C168.725 41.509 168.34 42.461 168.284 43.721H175.655Z" fill="#C1C1C1"/>
<path d="M184.517 40.802C184.895 40.004 185.448 39.388 186.176 38.954C186.904 38.506 187.772 38.282 188.78 38.282V40.361H188.192C187.114 40.361 186.232 40.641 185.546 41.201C184.86 41.747 184.517 42.657 184.517 43.931V50H182.606V38.471H184.517V40.802Z" fill="#C1C1C1"/>
<path d="M197.911 38.324C199.031 38.324 199.976 38.604 200.746 39.164C201.53 39.724 202.076 40.473 202.384 41.411V38.471H204.295V50H202.384V47.06C202.076 47.998 201.53 48.747 200.746 49.307C199.976 49.867 199.031 50.147 197.911 50.147C196.889 50.147 195.979 49.909 195.181 49.433C194.383 48.957 193.753 48.278 193.291 47.396C192.843 46.5 192.619 45.45 192.619 44.246C192.619 43.042 192.843 41.992 193.291 41.096C193.753 40.2 194.383 39.514 195.181 39.038C195.979 38.562 196.889 38.324 197.911 38.324ZM198.457 40.025C197.281 40.025 196.336 40.403 195.622 41.159C194.922 41.901 194.572 42.93 194.572 44.246C194.572 45.562 194.922 46.598 195.622 47.354C196.336 48.096 197.281 48.467 198.457 48.467C199.213 48.467 199.885 48.292 200.473 47.942C201.075 47.592 201.544 47.102 201.88 46.472C202.216 45.828 202.384 45.086 202.384 44.246C202.384 43.406 202.216 42.664 201.88 42.02C201.544 41.376 201.075 40.886 200.473 40.55C199.885 40.2 199.213 40.025 198.457 40.025Z" fill="#C1C1C1"/>
<path d="M214.959 38.324C216.429 38.324 217.647 38.716 218.613 39.5C219.579 40.284 220.174 41.334 220.398 42.65H218.382C218.242 41.824 217.857 41.18 217.227 40.718C216.611 40.242 215.841 40.004 214.917 40.004C214.245 40.004 213.629 40.158 213.069 40.466C212.523 40.774 212.082 41.25 211.746 41.894C211.41 42.524 211.242 43.308 211.242 44.246C211.242 45.184 211.41 45.975 211.746 46.619C212.082 47.249 212.523 47.718 213.069 48.026C213.629 48.334 214.245 48.488 214.917 48.488C215.841 48.488 216.611 48.25 217.227 47.774C217.857 47.298 218.242 46.647 218.382 45.821H220.398C220.174 47.151 219.579 48.208 218.613 48.992C217.647 49.762 216.429 50.147 214.959 50.147C213.853 50.147 212.873 49.909 212.019 49.433C211.165 48.957 210.493 48.278 210.003 47.396C209.527 46.5 209.289 45.45 209.289 44.246C209.289 43.042 209.527 41.992 210.003 41.096C210.493 40.2 211.165 39.514 212.019 39.038C212.873 38.562 213.853 38.324 214.959 38.324Z" fill="#C1C1C1"/>
<path d="M230.921 48.32V50H229.493C228.317 50 227.435 49.72 226.847 49.16C226.273 48.6 225.986 47.662 225.986 46.346V40.13H224.264V38.471H225.986V35.594H227.918V38.471H230.9V40.13H227.918V46.388C227.918 47.13 228.051 47.641 228.317 47.921C228.597 48.187 229.073 48.32 229.745 48.32H230.921Z" fill="#C1C1C1"/>
<path d="M235.437 35.09C235.437 34.74 235.556 34.46 235.794 34.25C236.032 34.026 236.347 33.914 236.739 33.914C237.131 33.914 237.446 34.026 237.684 34.25C237.922 34.46 238.041 34.74 238.041 35.09C238.041 35.44 237.922 35.727 237.684 35.951C237.446 36.161 237.131 36.266 236.739 36.266C236.347 36.266 236.032 36.161 235.794 35.951C235.556 35.727 235.437 35.44 235.437 35.09ZM237.684 38.471V50H235.773V38.471H237.684Z" fill="#C1C1C1"/>
<path d="M247.75 47.963L251.32 38.471H253.378L248.863 50H246.595L242.08 38.471H244.138L247.75 47.963Z" fill="#C1C1C1"/>
<path d="M268.378 43.595C268.378 44.001 268.35 44.351 268.294 44.645H259.075C259.117 45.961 259.488 46.948 260.188 47.606C260.902 48.264 261.77 48.593 262.792 48.593C263.716 48.593 264.486 48.362 265.102 47.9C265.732 47.424 266.117 46.794 266.257 46.01H268.294C268.154 46.808 267.839 47.522 267.349 48.152C266.873 48.782 266.25 49.272 265.48 49.622C264.71 49.972 263.842 50.147 262.876 50.147C261.77 50.147 260.79 49.909 259.936 49.433C259.082 48.957 258.41 48.278 257.92 47.396C257.444 46.5 257.206 45.45 257.206 44.246C257.206 43.042 257.444 41.992 257.92 41.096C258.41 40.2 259.082 39.514 259.936 39.038C260.79 38.562 261.77 38.324 262.876 38.324C263.996 38.324 264.969 38.562 265.795 39.038C266.635 39.514 267.272 40.151 267.706 40.949C268.154 41.747 268.378 42.629 268.378 43.595ZM266.446 43.721C266.488 42.867 266.348 42.153 266.026 41.579C265.704 41.005 265.263 40.578 264.703 40.298C264.143 40.018 263.534 39.878 262.876 39.878C261.826 39.878 260.944 40.207 260.23 40.865C259.516 41.509 259.131 42.461 259.075 43.721H266.446Z" fill="#C1C1C1"/>
<path d="M295.932 35.447V50H294.021V38.387L289.38 50H287.679L283.017 38.429V50H281.106V35.447H283.395L288.561 47.669L293.643 35.447H295.932Z" fill="#C1C1C1"/>
<path d="M306.234 38.324C307.354 38.324 308.299 38.604 309.069 39.164C309.853 39.724 310.399 40.473 310.707 41.411V38.471H312.618V50H310.707V47.06C310.399 47.998 309.853 48.747 309.069 49.307C308.299 49.867 307.354 50.147 306.234 50.147C305.212 50.147 304.302 49.909 303.504 49.433C302.706 48.957 302.076 48.278 301.614 47.396C301.166 46.5 300.942 45.45 300.942 44.246C300.942 43.042 301.166 41.992 301.614 41.096C302.076 40.2 302.706 39.514 303.504 39.038C304.302 38.562 305.212 38.324 306.234 38.324ZM306.78 40.025C305.604 40.025 304.659 40.403 303.945 41.159C303.245 41.901 302.895 42.93 302.895 44.246C302.895 45.562 303.245 46.598 303.945 47.354C304.659 48.096 305.604 48.467 306.78 48.467C307.536 48.467 308.208 48.292 308.796 47.942C309.398 47.592 309.867 47.102 310.203 46.472C310.539 45.828 310.707 45.086 310.707 44.246C310.707 43.406 310.539 42.664 310.203 42.02C309.867 41.376 309.398 40.886 308.796 40.55C308.208 40.2 307.536 40.025 306.78 40.025Z" fill="#C1C1C1"/>
<path d="M324.542 38.324C325.564 38.324 326.474 38.562 327.272 39.038C328.07 39.514 328.693 40.2 329.141 41.096C329.603 41.992 329.834 43.042 329.834 44.246C329.834 45.45 329.603 46.5 329.141 47.396C328.693 48.278 328.07 48.957 327.272 49.433C326.474 49.909 325.564 50.147 324.542 50.147C323.422 50.147 322.47 49.867 321.686 49.307C320.916 48.733 320.384 47.984 320.09 47.06V55.46H318.179V38.471H320.09V41.411C320.384 40.487 320.916 39.745 321.686 39.185C322.47 38.611 323.422 38.324 324.542 38.324ZM323.996 40.025C323.254 40.025 322.582 40.2 321.98 40.55C321.378 40.886 320.909 41.376 320.573 42.02C320.237 42.664 320.069 43.406 320.069 44.246C320.069 45.086 320.237 45.828 320.573 46.472C320.909 47.102 321.378 47.592 321.98 47.942C322.582 48.292 323.254 48.467 323.996 48.467C325.186 48.467 326.131 48.096 326.831 47.354C327.545 46.598 327.902 45.562 327.902 44.246C327.902 42.93 327.545 41.901 326.831 41.159C326.131 40.403 325.186 40.025 323.996 40.025Z" fill="#C1C1C1"/>
<path d="M63.7041 18.9079C61.3792 17.4543 58.1445 16.1834 54.1012 15.2153V9.77049C54.106 9.35142 53.8648 8.96815 53.4853 8.79073L34.5986 0.098712C34.3138 -0.032904 33.9853 -0.032904 33.7005 0.098712L14.8217 8.79179C14.4427 8.96921 14.2021 9.35194 14.2073 9.77049V15.2495C10.2988 16.2182 6.99154 17.478 4.66717 18.9116C1.82422 20.6664 0.376953 22.649 0.376953 24.8065C0.376953 27.7011 3.04353 30.3281 8.07133 32.4056C10.0646 33.2095 12.1157 33.8629 14.2073 34.3593V40.23C14.2026 40.6491 14.4432 41.0318 14.8233 41.2092L33.7094 49.9013C33.9937 50.0329 34.3217 50.0329 34.6065 49.9013L53.4863 41.2082C53.8654 41.0308 54.106 40.6486 54.1012 40.23V34.3509C61.9183 32.4114 67.9195 29.1957 67.9195 24.8065C67.9195 22.1105 65.6299 20.1104 63.7041 18.9079ZM34.1543 2.26514L50.4738 9.77419L34.1543 17.3332L17.8347 9.77419L34.1543 2.26514ZM27.2807 39.5467V31.0468L33.7605 35.297L27.2807 39.5467ZM26.7942 28.1486C26.4631 27.9311 26.0387 27.9127 25.6902 28.1007C25.3412 28.2891 25.1237 28.6535 25.1243 29.0499V33.9761C22.1808 33.7092 19.2552 33.269 16.3638 32.6583V11.4578L33.0761 19.2096V32.2677L26.7942 28.1486ZM2.53917 24.8065C2.53917 23.1139 4.31812 21.6651 5.80487 20.7474C7.84232 19.4913 10.7032 18.3688 14.2073 17.4744V32.1497C6.52508 30.1834 2.53917 27.2757 2.53917 24.8065ZM16.3638 34.849C19.2567 35.446 22.1818 35.8777 25.1243 36.142V41.543C25.1237 41.9395 25.3412 42.3043 25.6902 42.4923C26.0387 42.6807 26.4631 42.6623 26.7942 42.4449L33.0761 38.3247V47.2389L16.3638 39.5382V34.849ZM51.9448 39.5382L35.2325 47.2389V36.9106L36.3186 36.1983C36.6224 35.9988 36.8056 35.6597 36.8056 35.2965C36.8056 34.9332 36.6224 34.5942 36.3186 34.3951L35.2325 33.6828V19.2101L51.9448 11.4584V32.6472C48.5406 33.3685 45.0912 33.8571 41.6207 34.1098C41.0416 34.1545 40.602 34.6499 40.6267 35.2301C40.6509 35.8103 41.1306 36.2673 41.7113 36.2631C41.7392 36.2631 41.7571 36.262 41.7855 36.2599C45.1986 36.0041 48.5917 35.5302 51.9448 34.8411V39.5382ZM59.2754 30.4703C57.5886 31.1384 55.8602 31.6959 54.1012 32.1387V17.4391C61.3792 19.2802 65.7631 22.0604 65.7631 24.8076C65.7631 26.726 63.4024 28.7903 59.2754 30.4703Z" fill="#C1C1C1"/>
</svg>
