<svg width="27" height="26" viewBox="0 0 27 26" fill="none" xmlns="http://www.w3.org/2000/svg">
<path d="M24.608 6.83659C23.4287 4.81589 21.8289 3.21611 19.8084 2.03687C17.7876 0.857566 15.5815 0.268066 13.1885 0.268066C10.7958 0.268066 8.58891 0.857746 6.56852 2.03687C4.54783 3.21605 2.94816 4.81589 1.7688 6.83659C0.58962 8.85722 0 11.0638 0 13.4562C0 16.33 0.838447 18.9142 2.51576 21.2095C4.1929 23.5049 6.35951 25.0933 9.01542 25.9747C9.32457 26.0321 9.55343 25.9917 9.70223 25.8547C9.8511 25.7174 9.92544 25.5455 9.92544 25.3397C9.92544 25.3053 9.92249 24.9964 9.91678 24.4124C9.91088 23.8284 9.90811 23.319 9.90811 22.8843L9.51313 22.9526C9.2613 22.9988 8.9436 23.0183 8.56004 23.0128C8.17667 23.0074 7.77867 22.9673 7.36661 22.8926C6.95436 22.8185 6.57093 22.6468 6.216 22.3778C5.86125 22.1087 5.60942 21.7566 5.46055 21.3218L5.28884 20.9267C5.17438 20.6636 4.99418 20.3713 4.74799 20.051C4.50181 19.7303 4.25287 19.513 4.00103 19.3985L3.8808 19.3124C3.80068 19.2552 3.72634 19.1862 3.65759 19.1062C3.5889 19.0261 3.53748 18.946 3.50313 18.8658C3.46873 18.7855 3.49724 18.7196 3.58896 18.668C3.68069 18.6163 3.84645 18.5912 4.08698 18.5912L4.4303 18.6425C4.65928 18.6884 4.94251 18.8255 5.28035 19.0546C5.61802 19.2835 5.8956 19.5811 6.11315 19.9473C6.37659 20.4168 6.69399 20.7745 7.06624 21.0207C7.43818 21.2669 7.8132 21.3898 8.19092 21.3898C8.56864 21.3898 8.89488 21.3612 9.16975 21.3042C9.44432 21.2469 9.70193 21.1609 9.94246 21.0465C10.0455 20.2791 10.326 19.6896 10.7838 19.2775C10.1313 19.209 9.54471 19.1057 9.02365 18.9684C8.5029 18.8309 7.96477 18.6078 7.40961 18.2984C6.85416 17.9894 6.39337 17.6057 6.02714 17.148C5.66084 16.69 5.36023 16.0888 5.12572 15.3448C4.89108 14.6006 4.77374 13.742 4.77374 12.769C4.77374 11.3835 5.22604 10.2045 6.13047 9.23133C5.7068 8.18971 5.74679 7.02202 6.25058 5.72838C6.58259 5.62523 7.07496 5.70264 7.72743 5.96013C8.38002 6.21774 8.85783 6.43841 9.16133 6.62138C9.46483 6.80429 9.70801 6.95929 9.89121 7.08499C10.9561 6.78745 12.0551 6.63864 13.1883 6.63864C14.3216 6.63864 15.4208 6.78745 16.4858 7.08499L17.1383 6.67305C17.5845 6.39818 18.1115 6.14628 18.7179 5.9173C19.3247 5.68844 19.7886 5.62541 20.1093 5.72856C20.6243 7.02226 20.6702 8.18989 20.2464 9.23152C21.1508 10.2047 21.6033 11.384 21.6033 12.7692C21.6033 13.7422 21.4855 14.6035 21.2512 15.3534C21.0166 16.1035 20.7134 16.7042 20.3415 17.1566C19.9691 17.609 19.5054 17.9896 18.9502 18.2985C18.395 18.6077 17.8566 18.8308 17.3359 18.9683C16.8149 19.1058 16.2283 19.2092 15.5758 19.2778C16.1709 19.7928 16.4685 20.6057 16.4685 21.7161V25.3392C16.4685 25.545 16.5401 25.7169 16.6834 25.8542C16.8265 25.9913 17.0524 26.0316 17.3616 25.9742C20.0178 25.0928 22.1845 23.5044 23.8615 21.209C25.5384 18.9137 26.3772 16.3295 26.3772 13.4557C26.3766 11.0636 25.7866 8.85722 24.608 6.83659Z" fill="#B8B8B8"/>
</svg>
