<svg width="131" height="150" viewBox="0 0 131 150" fill="none" xmlns="http://www.w3.org/2000/svg">
<g clip-path="url(#clip0)">
<path d="M65.055 150C100.984 150 130.11 145.023 130.11 138.882C130.11 132.742 100.984 127.765 65.055 127.765C29.1261 127.765 0 132.742 0 138.882C0 145.023 29.1261 150 65.055 150Z" fill="#F1F2F8"/>
<path d="M100.405 75.0435H116.3C118.385 75.0435 120.122 73.3932 120.122 71.3087C120.122 71.2218 120.122 71.2218 120.122 71.1349C120.122 67.9213 117.516 65.2287 114.302 65.1419C113.781 65.1419 113.173 65.2287 112.652 65.3156C112.131 63.0574 110.133 61.3202 107.701 61.3202C105.182 61.3202 103.098 63.1442 102.664 65.5762C102.143 65.4025 101.621 65.4025 101.1 65.4025C98.3209 65.4893 96.2363 67.7476 96.2363 70.5269C96.2363 71.4824 96.4969 72.2641 96.9312 73.0458C97.7129 74.3486 99.0157 75.0435 100.405 75.0435Z" fill="#FF8189"/>
<path d="M94.673 18.1529L37.6087 18.066C33.1791 18.066 29.5311 21.714 29.5311 26.1436L29.3574 123.422C29.3574 127.852 33.0054 131.5 37.435 131.5L94.4993 131.587C98.929 131.587 102.577 127.939 102.577 123.509L102.751 26.2305C102.751 21.8008 99.1027 18.2397 94.673 18.1529Z" fill="#828699"/>
<path d="M94.1517 24.8408H87.8981C87.3769 24.8408 86.8558 25.1013 86.5952 25.5356L85.1187 27.7939C83.5553 30.139 81.0365 31.5287 78.2571 31.4418L54.0243 31.355C51.2449 31.355 48.6392 29.9653 47.1627 27.6202L45.6861 25.3619C45.4256 24.9276 44.9044 24.6671 44.3833 24.6671H38.1297C37.2611 24.6671 36.5663 25.3619 36.5663 26.2305L36.3926 123.162C36.3926 124.03 37.0874 124.725 37.956 124.725L93.978 124.812C94.8465 124.812 95.5414 124.117 95.5414 123.248L95.7151 26.3173C95.7151 25.5356 95.0203 24.8408 94.1517 24.8408Z" fill="#F1F2F8"/>
<path d="M87.4639 105.877L42.6463 105.79C41.3435 105.79 40.3012 106.833 40.3012 108.135L40.2144 133.497C40.2144 134.8 41.2566 135.843 42.5595 135.843L87.3771 135.929C88.6799 135.929 89.7222 134.887 89.7222 133.584L89.809 108.222C89.809 106.92 88.7668 105.877 87.4639 105.877Z" fill="#BF222C"/>
<path d="M119.687 32.2235L77.7358 32.1367C76.5198 32.1367 75.5644 33.0921 75.5644 34.3081L75.4775 58.1065C75.4775 59.3225 76.433 60.2779 77.6489 60.2779L119.6 60.3648C120.816 60.3648 121.772 59.4094 121.772 58.1934L121.859 34.3949C121.859 33.2658 120.903 32.2235 119.687 32.2235Z" fill="#BF222C"/>
<path d="M109.525 38.9114H87.8979C87.1162 38.9114 86.4214 39.6063 86.4214 40.388C86.4214 41.1697 87.1162 41.8645 87.8979 41.8645H109.525C110.307 41.8645 111.002 41.1697 111.002 40.388C110.915 39.6063 110.307 38.9114 109.525 38.9114Z" fill="#FF8189"/>
<path d="M104.314 45.6862H92.9355C92.1538 45.6862 91.459 46.381 91.459 47.1627C91.459 47.9444 92.1538 48.6393 92.9355 48.6393H104.314C105.095 48.6393 105.79 47.9444 105.79 47.1627C105.79 46.381 105.182 45.6862 104.314 45.6862Z" fill="#FF8189"/>
<path d="M107.875 52.3741H89.4614C88.6797 52.3741 87.9849 53.0689 87.9849 53.8506C87.9849 54.6323 88.6797 55.3272 89.4614 55.3272H107.962C108.743 55.3272 109.438 54.6323 109.438 53.8506C109.351 53.0689 108.743 52.3741 107.875 52.3741Z" fill="#FF8189"/>
<path d="M70.006 112.826H48.3789C47.5972 112.826 46.9023 113.521 46.9023 114.302C46.9023 115.084 47.5972 115.779 48.3789 115.779H70.006C70.7877 115.779 71.4826 115.084 71.4826 114.302C71.4826 113.434 70.8746 112.826 70.006 112.826Z" fill="#FF8189"/>
<path d="M59.757 119.6H48.3789C47.5972 119.6 46.9023 120.295 46.9023 121.077C46.9023 121.859 47.5972 122.554 48.3789 122.554H59.757C60.5387 122.554 61.2336 121.859 61.2336 121.077C61.2336 120.208 60.5387 119.6 59.757 119.6Z" fill="#FF8189"/>
<path d="M66.8792 126.288H48.3789C47.5972 126.288 46.9023 126.983 46.9023 127.765C46.9023 128.547 47.5972 129.241 48.3789 129.241H66.8792C67.6609 129.241 68.3557 128.547 68.3557 127.765C68.3557 126.896 67.6609 126.288 66.8792 126.288Z" fill="#FF8189"/>
<path d="M15.5474 48.3787H36.0453C38.7379 48.3787 40.9961 46.2942 40.9961 43.6016C40.9961 43.5148 40.9961 43.5148 40.9961 43.4279C40.9961 39.2588 37.6956 35.8715 33.5265 35.7846C32.8317 35.7846 32.1368 35.8715 31.442 36.0452C30.834 33.0921 28.1415 30.9207 25.1015 30.9207C21.801 30.9207 19.1085 33.2658 18.6742 36.3926C18.0662 36.2189 17.3713 36.132 16.6765 36.132C13.1154 36.3057 10.336 39.172 10.4229 42.7331C10.4229 43.9491 10.7703 44.9913 11.2914 45.9467C12.16 47.4233 13.8103 48.3787 15.5474 48.3787Z" fill="#FFD5D8"/>
<path d="M71.7429 13.6364H87.6375C89.722 13.6364 91.4591 11.9861 91.4591 9.90156C91.4591 9.81471 91.4591 9.81471 91.4591 9.72785C91.4591 6.51419 88.8535 3.82166 85.6398 3.7348C85.1187 3.7348 84.5107 3.82166 83.9895 3.90851C83.6421 1.73712 81.5576 0 79.1256 0C76.6068 0 74.5223 1.82397 74.088 4.25594C73.5668 4.08222 73.0457 4.08222 72.5246 4.08222C69.7452 4.16908 67.6606 6.42733 67.6606 9.20672C67.6606 10.1621 67.9212 10.9438 68.3555 11.7255C69.0503 12.9415 70.3532 13.6364 71.7429 13.6364Z" fill="#FF8189"/>
<path d="M60.0175 57.238L9.46743 57.1511C8.07774 57.1511 6.86176 58.2802 6.86176 59.7568L6.7749 88.4192C6.7749 89.8089 7.90403 91.0249 9.38058 91.0249L59.9307 91.1118C61.3204 91.1118 62.5363 89.9826 62.5363 88.5061L62.6232 59.8437C62.6232 58.3671 61.4941 57.238 60.0175 57.238Z" fill="#FF2D3B"/>
<path d="M57.1515 68.2687H34.2215C33.7004 68.2687 33.2661 68.703 33.2661 69.2241C33.2661 69.7452 33.7004 70.1795 34.2215 70.1795H57.1515C57.6726 70.1795 58.1069 69.7452 58.1069 69.2241C58.1937 68.703 57.7595 68.2687 57.1515 68.2687Z" fill="white"/>
<path d="M52.027 73.0457H34.2215C33.7004 73.0457 33.2661 73.48 33.2661 74.0012C33.2661 74.5223 33.7004 74.9566 34.2215 74.9566H52.027C52.5481 74.9566 52.9824 74.5223 52.9824 74.0012C52.9824 73.5669 52.5481 73.0457 52.027 73.0457Z" fill="white"/>
<path d="M49.595 77.6491H34.2215C33.7004 77.6491 33.2661 78.0834 33.2661 78.6045C33.2661 79.1257 33.7004 79.5599 34.2215 79.5599H49.595C50.1161 79.5599 50.5504 79.1257 50.5504 78.6045C50.5504 78.0834 50.1161 77.6491 49.595 77.6491Z" fill="white"/>
<path d="M23.7983 69.0504C23.7983 71.1349 22.1481 72.872 20.1504 72.872C18.1527 72.872 16.5024 71.1349 16.5024 69.0504C16.5024 66.9658 18.1527 65.2287 20.1504 65.2287C22.1481 65.3156 23.7983 66.9658 23.7983 69.0504Z" fill="white"/>
<path d="M24.7539 75.6514L22.5825 74.9566C21.0191 74.4355 19.2819 74.4355 17.6317 74.9566L15.3734 75.6514C13.9837 76.0857 13.0283 77.3885 13.0283 78.8651V82.4262H18.5871H21.4533H27.0121V78.8651C27.099 77.3885 26.1436 76.0857 24.7539 75.6514Z" fill="white"/>
<path d="M20.4542 6.81818V10.9091" stroke="#FF2D3B" stroke-width="2.5" stroke-linecap="round" stroke-linejoin="round"/>
<path d="M20.4542 16.3636V20.4545" stroke="#FF2D3B" stroke-width="2.5" stroke-linecap="round" stroke-linejoin="round"/>
<path d="M13.6362 13.6364H17.7271" stroke="#FF2D3B" stroke-width="2.5" stroke-linecap="round" stroke-linejoin="round"/>
<path d="M23.1816 13.6364H27.2726" stroke="#FF2D3B" stroke-width="2.5" stroke-linecap="round" stroke-linejoin="round"/>
<path d="M122.045 92.0455V96.1364" stroke="#FF2D3B" stroke-width="2.5" stroke-linecap="round" stroke-linejoin="round"/>
<path d="M122.045 101.591V105.682" stroke="#FF2D3B" stroke-width="2.5" stroke-linecap="round" stroke-linejoin="round"/>
<path d="M115.227 98.8636H119.318" stroke="#FF2D3B" stroke-width="2.5" stroke-linecap="round" stroke-linejoin="round"/>
<path d="M124.772 98.8636H128.863" stroke="#FF2D3B" stroke-width="2.5" stroke-linecap="round" stroke-linejoin="round"/>
</g>
<defs>
<clipPath id="clip0">
<rect width="130.023" height="150" fill="white"/>
</clipPath>
</defs>
</svg>
