<svg width="30" height="29" viewBox="0 0 30 29" fill="none" xmlns="http://www.w3.org/2000/svg">
<path fill-rule="evenodd" clip-rule="evenodd" d="M6.02325 24.1335C8.6502 26.7699 12.2187 28.2517 15.9405 28.2517C22.6973 28.2433 28.4841 23.4101 29.696 16.7628C30.9079 10.1155 27.1992 3.5511 20.8801 1.15866C14.561 -1.23378 7.43473 1.22849 3.94046 7.01169C3.69041 7.31348 3.63971 7.73353 3.81077 8.08615C3.98183 8.43878 4.34311 8.65897 4.73492 8.64939C5.12673 8.63982 5.47683 8.40224 5.63046 8.04169C8.70302 2.88272 15.1158 0.788947 20.6407 3.14087C26.1655 5.49278 29.1015 11.5663 27.5128 17.357C25.9242 23.1476 20.2999 26.8726 14.3484 26.076C8.54264 25.2989 4.16904 20.4523 3.94913 14.6413L4.23046 14.9117C4.41918 15.0989 4.67466 15.2032 4.94046 15.2017C5.32977 15.1893 5.67644 14.9519 5.82884 14.5935C5.98124 14.235 5.91163 13.8207 5.65046 13.5317L3.65046 11.5317C3.26042 11.144 2.6305 11.144 2.24046 11.5317L0.24046 13.5317C-0.0993166 13.9284 -0.076472 14.5199 0.292897 14.8892C0.662266 15.2586 1.2537 15.2815 1.65046 14.9417L1.94605 14.6507C2.04741 18.2098 3.50212 21.6034 6.02325 24.1335Z" fill="#F83633"/>
<path d="M10.8783 14.9999L9.82234 13.3079H9.33634V14.9999H8.65234V10.7639H10.1463C10.6303 10.7639 10.9963 10.8819 11.2443 11.1179C11.4963 11.3539 11.6223 11.6659 11.6223 12.0539C11.6223 12.3859 11.5283 12.6579 11.3403 12.8699C11.1563 13.0819 10.8883 13.2179 10.5363 13.2779L11.6463 14.9999H10.8783ZM9.33634 12.8219H10.0923C10.6443 12.8219 10.9203 12.5779 10.9203 12.0899C10.9203 11.8579 10.8523 11.6779 10.7163 11.5499C10.5843 11.4179 10.3763 11.3519 10.0923 11.3519H9.33634V12.8219Z" fill="#F83633"/>
<path d="M15.3103 13.1879C15.3103 13.2999 15.3023 13.3979 15.2863 13.4819H12.7423C12.7543 13.8219 12.8483 14.0739 13.0243 14.2379C13.2003 14.4019 13.4183 14.4839 13.6783 14.4839C13.9063 14.4839 14.0983 14.4259 14.2543 14.3099C14.4143 14.1939 14.5123 14.0399 14.5483 13.8479H15.2803C15.2363 14.0799 15.1443 14.2859 15.0043 14.4659C14.8643 14.6459 14.6823 14.7879 14.4583 14.8919C14.2343 14.9919 13.9843 15.0419 13.7083 15.0419C13.3883 15.0419 13.1043 14.9739 12.8563 14.8379C12.6123 14.7019 12.4203 14.5059 12.2803 14.2499C12.1403 13.9939 12.0703 13.6919 12.0703 13.3439C12.0703 12.9999 12.1403 12.6999 12.2803 12.4439C12.4203 12.1879 12.6123 11.9919 12.8563 11.8559C13.1043 11.7199 13.3883 11.6519 13.7083 11.6519C14.0323 11.6519 14.3143 11.7199 14.5543 11.8559C14.7983 11.9879 14.9843 12.1719 15.1123 12.4079C15.2443 12.6399 15.3103 12.8999 15.3103 13.1879ZM14.6203 13.1699C14.6283 12.9539 14.5903 12.7739 14.5063 12.6299C14.4263 12.4819 14.3143 12.3739 14.1703 12.3059C14.0303 12.2339 13.8763 12.1979 13.7083 12.1979C13.4403 12.1979 13.2163 12.2799 13.0363 12.4439C12.8563 12.6079 12.7583 12.8499 12.7423 13.1699H14.6203Z" fill="#F83633"/>
<path d="M17.0567 11.6519C17.4447 11.6519 17.7547 11.7519 17.9867 11.9519C18.2227 12.1479 18.3667 12.4119 18.4187 12.7439H17.7707C17.7427 12.5639 17.6647 12.4199 17.5367 12.3119C17.4127 12.1999 17.2467 12.1439 17.0387 12.1439C16.8667 12.1439 16.7327 12.1859 16.6367 12.2699C16.5447 12.3499 16.4987 12.4599 16.4987 12.5999C16.4987 12.7039 16.5327 12.7879 16.6007 12.8519C16.6687 12.9159 16.7527 12.9659 16.8527 13.0019C16.9567 13.0379 17.1027 13.0779 17.2907 13.1219C17.5387 13.1779 17.7387 13.2359 17.8907 13.2959C18.0467 13.3559 18.1787 13.4519 18.2867 13.5839C18.3987 13.7119 18.4547 13.8879 18.4547 14.1119C18.4547 14.3879 18.3487 14.6119 18.1367 14.7839C17.9287 14.9559 17.6467 15.0419 17.2907 15.0419C16.8787 15.0419 16.5447 14.9459 16.2887 14.7539C16.0367 14.5619 15.8847 14.2939 15.8327 13.9499H16.4987C16.5187 14.1299 16.5987 14.2759 16.7387 14.3879C16.8787 14.4999 17.0627 14.5559 17.2907 14.5559C17.4547 14.5559 17.5827 14.5139 17.6747 14.4299C17.7707 14.3419 17.8187 14.2319 17.8187 14.0999C17.8187 13.9839 17.7827 13.8919 17.7107 13.8239C17.6387 13.7559 17.5487 13.7039 17.4407 13.6679C17.3327 13.6279 17.1847 13.5879 16.9967 13.5479C16.7567 13.4919 16.5607 13.4359 16.4087 13.3799C16.2607 13.3239 16.1327 13.2339 16.0247 13.1099C15.9207 12.9819 15.8687 12.8099 15.8687 12.5939C15.8687 12.3139 15.9727 12.0879 16.1807 11.9159C16.3927 11.7399 16.6847 11.6519 17.0567 11.6519Z" fill="#F83633"/>
<path d="M22.2126 13.1879C22.2126 13.2999 22.2046 13.3979 22.1886 13.4819H19.6446C19.6566 13.8219 19.7506 14.0739 19.9266 14.2379C20.1026 14.4019 20.3206 14.4839 20.5806 14.4839C20.8086 14.4839 21.0006 14.4259 21.1566 14.3099C21.3166 14.1939 21.4146 14.0399 21.4506 13.8479H22.1826C22.1386 14.0799 22.0466 14.2859 21.9066 14.4659C21.7666 14.6459 21.5846 14.7879 21.3606 14.8919C21.1366 14.9919 20.8866 15.0419 20.6106 15.0419C20.2906 15.0419 20.0066 14.9739 19.7586 14.8379C19.5146 14.7019 19.3226 14.5059 19.1826 14.2499C19.0426 13.9939 18.9726 13.6919 18.9726 13.3439C18.9726 12.9999 19.0426 12.6999 19.1826 12.4439C19.3226 12.1879 19.5146 11.9919 19.7586 11.8559C20.0066 11.7199 20.2906 11.6519 20.6106 11.6519C20.9346 11.6519 21.2166 11.7199 21.4566 11.8559C21.7006 11.9879 21.8866 12.1719 22.0146 12.4079C22.1466 12.6399 22.2126 12.8999 22.2126 13.1879ZM21.5226 13.1699C21.5306 12.9539 21.4926 12.7739 21.4086 12.6299C21.3286 12.4819 21.2166 12.3739 21.0726 12.3059C20.9326 12.2339 20.7786 12.1979 20.6106 12.1979C20.3426 12.1979 20.1186 12.2799 19.9386 12.4439C19.7586 12.6079 19.6606 12.8499 19.6446 13.1699H21.5226Z" fill="#F83633"/>
<path d="M24.535 14.4059V14.9999H24.115C23.763 14.9999 23.495 14.9159 23.311 14.7479C23.131 14.5759 23.041 14.2919 23.041 13.8959V12.2759H22.567V11.6939H23.041V10.8719H23.731V11.6939H24.529V12.2759H23.731V13.9079C23.731 14.0959 23.765 14.2259 23.833 14.2979C23.905 14.3699 24.029 14.4059 24.205 14.4059H24.535Z" fill="#F83633"/>
</svg>
