<svg width="22" height="22" viewBox="0 0 22 22" fill="none" xmlns="http://www.w3.org/2000/svg">
<path d="M19.5036 0.412354H1.93972C0.868453 0.412354 0 1.28081 0 2.35207V19.9159C0 20.9872 0.868453 21.8556 1.93972 21.8556H19.5035C20.5748 21.8556 21.4433 20.9872 21.4433 19.9159V2.35207C21.4433 1.28081 20.5748 0.412354 19.5036 0.412354ZM6.63546 18.9279C6.63546 19.2397 6.38275 19.4924 6.07098 19.4924H3.66809C3.35632 19.4924 3.10361 19.2397 3.10361 18.9279V8.85512C3.10361 8.54335 3.35632 8.29063 3.66809 8.29063H6.07098C6.38275 8.29063 6.63546 8.54335 6.63546 8.85512V18.9279ZM4.86954 7.34112C3.60882 7.34112 2.58678 6.31908 2.58678 5.05836C2.58678 3.79764 3.60882 2.77561 4.86954 2.77561C6.13025 2.77561 7.15229 3.79764 7.15229 5.05836C7.15229 6.31908 6.13031 7.34112 4.86954 7.34112ZM19.1929 18.9734C19.1929 19.26 18.9605 19.4924 18.6738 19.4924H16.0954C15.8088 19.4924 15.5764 19.26 15.5764 18.9734V14.2487C15.5764 13.5438 15.7831 11.1601 13.7344 11.1601C12.1453 11.1601 11.823 12.7917 11.7583 13.5239V18.9734C11.7583 19.26 11.5259 19.4924 11.2393 19.4924H8.74544C8.45882 19.4924 8.22642 19.26 8.22642 18.9734V8.80965C8.22642 8.52303 8.45882 8.29063 8.74544 8.29063H11.2393C11.5259 8.29063 11.7583 8.52303 11.7583 8.80965V9.68843C12.3475 8.80415 13.2232 8.12161 15.0877 8.12161C19.2165 8.12161 19.1929 11.9789 19.1929 14.0983V18.9734Z" fill="#B8B8B8"/>
</svg>
