<svg width="71" height="22" viewBox="0 0 71 22" fill="none" xmlns="http://www.w3.org/2000/svg">
<path fill-rule="evenodd" clip-rule="evenodd" d="M0 13.5796L1.8357 14.6376L0 15.6956V21.9313L1.83585 20.8732V1.05869L0 0.000640869V13.5796Z" fill="#011727"/>
<path fill-rule="evenodd" clip-rule="evenodd" d="M3.67151 19.8143L5.50736 18.7562V3.17419L3.67151 2.11613V19.8143Z" fill="#011727"/>
<path fill-rule="evenodd" clip-rule="evenodd" d="M7.34351 17.6984L9.17935 16.6404V5.29079L7.34351 4.23267V17.6984Z" fill="#011727"/>
<path fill-rule="evenodd" clip-rule="evenodd" d="M11.0154 15.582L12.8512 16.6318V5.29881L11.0154 6.35687V15.582Z" fill="#011727"/>
<path fill-rule="evenodd" clip-rule="evenodd" d="M16.5227 18.748V14.637L14.6869 13.5789V17.6981L16.5227 18.748Z" fill="#011727"/>
<path fill-rule="evenodd" clip-rule="evenodd" d="M16.5227 3.18266L14.6869 4.2325V13.579L16.5227 12.5208V3.18266Z" fill="#011727"/>
<path fill-rule="evenodd" clip-rule="evenodd" d="M36.6617 3.18651H34.3302V3.61797H35.2624V6.90416H35.7295V3.61797H36.6617V3.18651Z" fill="#011727"/>
<path fill-rule="evenodd" clip-rule="evenodd" d="M42.5774 3.18651H42.1104V6.90416H43.5096V6.4727H42.5774V3.18651Z" fill="#011727"/>
<path fill-rule="evenodd" clip-rule="evenodd" d="M29.9431 6.82192H32.7385L32.4692 6.35489H30.7514L32.0857 4.03959L33.6895 6.82192H34.2285L32.0857 3.10426L29.9431 6.82192Z" fill="#011727"/>
<path fill-rule="evenodd" clip-rule="evenodd" d="M36.7908 6.90416H39.5861L39.3169 6.43706H37.5991L38.9335 4.12176L40.5371 6.90416H41.0763L38.9335 3.18651L36.7908 6.90416Z" fill="#011727"/>
<path fill-rule="evenodd" clip-rule="evenodd" d="M48.2898 6.90416H48.8289L46.6862 3.18651L44.5435 6.90416H47.3388L47.0696 6.43706H45.3518L46.6862 4.12176L48.2898 6.90416Z" fill="#011727"/>
<path fill-rule="evenodd" clip-rule="evenodd" d="M28.5616 6.0571C28.4564 6.0571 28.3682 6.09409 28.2921 6.17018C28.2159 6.24635 28.179 6.33329 28.179 6.43598C28.179 6.54876 28.2147 6.63939 28.2883 6.71284C28.362 6.78653 28.4514 6.82231 28.5616 6.82231C28.6693 6.82231 28.7574 6.78653 28.831 6.71284C28.9072 6.63668 28.9442 6.5474 28.9442 6.43967C28.9442 6.33457 28.9072 6.24642 28.831 6.17018C28.7548 6.09409 28.6668 6.0571 28.5616 6.0571Z" fill="#011727"/>
<mask id="mask0" mask-type="alpha" maskUnits="userSpaceOnUse" x="0" y="0" width="71" height="22">
<path d="M0 21.9307H70.8404V0H0V21.9307Z" fill="white"/>
</mask>
<g mask="url(#mask0)">
<path fill-rule="evenodd" clip-rule="evenodd" d="M22.0308 6.90416H22.4978V3.18651H22.0308V6.90416Z" fill="#F83633"/>
<path fill-rule="evenodd" clip-rule="evenodd" d="M26.4574 6.03995C26.1898 6.30906 25.8581 6.4452 25.4707 6.4452C25.1118 6.4452 24.7917 6.31192 24.5193 6.04907C24.2442 5.78516 24.1046 5.44493 24.1046 5.03788C24.1046 4.6492 24.2391 4.31764 24.5045 4.05222C24.7694 3.78417 25.0991 3.64788 25.4837 3.64788C25.87 3.64788 26.1992 3.78439 26.462 4.05343C26.725 4.31967 26.8586 4.65403 26.8586 5.04646C26.8586 5.43461 26.7235 5.76881 26.4574 6.03995ZM25.4915 3.18651C24.9689 3.18651 24.5338 3.36446 24.1615 3.7306C23.788 4.09622 23.6066 4.5209 23.6066 5.02914C23.6066 5.60969 23.8049 6.06527 24.213 6.42192C24.5808 6.74181 25.001 6.90416 25.4616 6.90416C25.9912 6.90416 26.4305 6.72681 26.8045 6.3621C27.176 6.00002 27.3566 5.57127 27.3566 5.05151C27.3566 4.53454 27.1765 4.10383 26.806 3.7349C26.4369 3.36581 26.0069 3.18651 25.4915 3.18651Z" fill="#F83633"/>
<path fill-rule="evenodd" clip-rule="evenodd" d="M24.0628 11.3669H25.8523C26.6877 11.3669 27.2875 11.5334 27.6343 11.8613C27.9824 12.1906 28.1516 12.6677 28.1516 13.3206C28.1516 13.9517 27.982 14.4214 27.6333 14.7565C27.2861 15.089 26.6872 15.2576 25.8523 15.2576H24.0628V11.3669ZM25.9836 9.58182H22.0308V21.7152H24.0628V17.0427H25.9836C27.3282 17.0427 28.3789 16.7128 29.107 16.0615C29.843 15.4022 30.2162 14.4799 30.2162 13.3206C30.2162 12.1738 29.8555 11.2531 29.1446 10.5839C28.4384 9.91896 27.3749 9.58182 25.9836 9.58182Z" fill="#F83633"/>
<path fill-rule="evenodd" clip-rule="evenodd" d="M38.7676 13.3864C38.7676 14.7304 38.0424 15.3567 36.4848 15.3567H34.564V11.416H36.4848C38.0424 11.416 38.7676 12.0423 38.7676 13.3864ZM39.9726 15.7629C40.543 15.1392 40.8322 14.3118 40.8322 13.3039C40.8322 12.1916 40.4724 11.2824 39.763 10.6023C39.0568 9.92529 37.9982 9.58182 36.6163 9.58182H32.532V21.7153H34.564V16.977H35.7788L38.8062 21.7153H41.1441L37.9351 16.8522C38.7966 16.6663 39.4809 16.301 39.9726 15.7629Z" fill="#F83633"/>
<path fill-rule="evenodd" clip-rule="evenodd" d="M43.2314 21.7153H45.2635V9.58182H43.2314V21.7153Z" fill="#F83633"/>
<path fill-rule="evenodd" clip-rule="evenodd" d="M54.3218 15.4329C53.8607 15.21 53.2433 14.973 52.4859 14.7278C51.8838 14.534 51.4062 14.3582 51.0667 14.2038C50.7542 14.0627 50.4899 13.8654 50.2803 13.6169C50.0849 13.3852 49.9899 13.0835 49.9899 12.6953C49.9899 12.2014 50.137 11.8345 50.4396 11.573C50.755 11.301 51.1718 11.169 51.7134 11.169C52.3079 11.169 52.7601 11.3183 53.0958 11.6257C53.4392 11.94 53.6439 12.2902 53.7211 12.6958L53.7626 12.9129H55.9L55.8614 12.6117C55.7426 11.6905 55.3178 10.921 54.5982 10.3256C53.8821 9.73362 52.9115 9.43347 51.7134 9.43347C50.9429 9.43347 50.2599 9.56923 49.6838 9.83698C49.0957 10.1105 48.6372 10.5035 48.3201 11.0062C48.0036 11.5073 47.843 12.0923 47.843 12.7448C47.843 13.5017 48.0181 14.1249 48.3632 14.5972C48.7013 15.0597 49.1171 15.411 49.5984 15.6422C50.054 15.862 50.6601 16.0963 51.4025 16.339C52.0098 16.5306 52.4968 16.7122 52.8499 16.8772C53.1748 17.0301 53.4509 17.2416 53.6712 17.5061C53.8787 17.7551 53.9797 18.0761 53.9797 18.4869C53.9797 18.966 53.833 19.3455 53.5316 19.6472C53.2346 19.9442 52.7888 20.0945 52.2069 20.0945C51.7507 20.0945 51.3607 20.0043 51.0476 19.8257C50.7323 19.6462 50.4875 19.417 50.3203 19.1446C50.1503 18.868 50.0499 18.5824 50.0211 18.2953L49.9972 18.0548H47.8678L47.8934 18.3454C47.9521 19.0167 48.1765 19.6243 48.5604 20.1498C48.9428 20.6729 49.459 21.0889 50.0948 21.3859C50.7253 21.6808 51.4526 21.8306 52.2562 21.8306C53.0874 21.8306 53.8004 21.6698 54.3759 21.353C54.9553 21.0341 55.3945 20.6113 55.6813 20.0977C55.9658 19.5877 56.1101 19.0292 56.1101 18.4373C56.1101 17.6481 55.9326 17.0008 55.5829 16.5134C55.2395 16.0337 54.8151 15.6704 54.3218 15.4329Z" fill="#F83633"/>
<path fill-rule="evenodd" clip-rule="evenodd" d="M68.6017 9.77937L64.7963 18.9304L60.9281 9.77937H58.6904V21.715H60.7225V13.7614L63.9271 21.715H65.6208L68.8089 13.7384V21.715H70.8404V9.77937H68.6017Z" fill="#F83633"/>
</g>
</svg>