<svg width="91" height="28" viewBox="0 0 91 28" fill="none" xmlns="http://www.w3.org/2000/svg">
<path fill-rule="evenodd" clip-rule="evenodd" d="M0 17.3376L2.34369 18.6884L0 20.0392V28.0005L2.34388 26.6495V1.35182L0 0.000976562V17.3376Z" fill="white"/>
<path fill-rule="evenodd" clip-rule="evenodd" d="M4.6875 25.2979L7.03138 23.947V4.05299L4.6875 2.70215V25.2979Z" fill="white"/>
<path fill-rule="evenodd" clip-rule="evenodd" d="M9.375 22.5954L11.7189 21.2446V6.75426L9.375 5.40332V22.5954Z" fill="white"/>
<path fill-rule="evenodd" clip-rule="evenodd" d="M14.0635 19.8935L16.4074 21.2338V6.76465L14.0635 8.1155V19.8935Z" fill="white"/>
<path fill-rule="evenodd" clip-rule="evenodd" d="M21.0949 23.9365V18.6879L18.751 17.3369V22.596L21.0949 23.9365Z" fill="white"/>
<path fill-rule="evenodd" clip-rule="evenodd" d="M21.0949 4.06348L18.751 5.40384V17.3368L21.0949 15.9857V4.06348Z" fill="white"/>
<path fill-rule="evenodd" clip-rule="evenodd" d="M46.8068 4.06836H43.8301V4.61922H45.0203V8.81479H45.6166V4.61922H46.8068V4.06836Z" fill="white"/>
<path fill-rule="evenodd" clip-rule="evenodd" d="M54.3599 4.06836H53.7637V8.81479H55.5502V8.26393H54.3599V4.06836Z" fill="white"/>
<path fill-rule="evenodd" clip-rule="evenodd" d="M38.2295 8.70932H41.7984L41.4546 8.11306H39.2615L40.965 5.15705L43.0126 8.70932H43.7008L40.965 3.96289L38.2295 8.70932Z" fill="white"/>
<path fill-rule="evenodd" clip-rule="evenodd" d="M46.9717 8.81479H50.5406L50.1968 8.21843H48.0037L49.7073 5.26242L51.7548 8.81479H52.4431L49.7073 4.06836L46.9717 8.81479Z" fill="white"/>
<path fill-rule="evenodd" clip-rule="evenodd" d="M61.6532 8.81479H62.3414L59.6059 4.06836L56.8701 8.81479H60.439L60.0954 8.21843H57.9021L59.6059 5.26242L61.6532 8.81479Z" fill="white"/>
<path fill-rule="evenodd" clip-rule="evenodd" d="M36.4661 7.7334C36.3318 7.7334 36.2192 7.78063 36.122 7.87778C36.0248 7.97502 35.9775 8.08602 35.9775 8.21712C35.9775 8.36111 36.0232 8.47683 36.1171 8.57061C36.2113 8.66468 36.3253 8.71037 36.4661 8.71037C36.6035 8.71037 36.7161 8.66468 36.81 8.57061C36.9073 8.47336 36.9545 8.35938 36.9545 8.22183C36.9545 8.08765 36.9073 7.97512 36.81 7.87778C36.7128 7.78063 36.6003 7.7334 36.4661 7.7334Z" fill="white"/>
<mask id="mask0" mask-type="alpha" maskUnits="userSpaceOnUse" x="0" y="0" width="91" height="28">
<path d="M0 27.9996H90.4439V0H0V27.9996Z" fill="white"/>
</mask>
<g mask="url(#mask0)">
<path fill-rule="evenodd" clip-rule="evenodd" d="M28.127 8.81479H28.7232V4.06836H28.127V8.81479Z" fill="white"/>
<path fill-rule="evenodd" clip-rule="evenodd" d="M33.7794 7.71143C33.4377 8.05501 33.0143 8.22882 32.5197 8.22882C32.0615 8.22882 31.6528 8.05867 31.3049 7.72307C30.9538 7.38613 30.7754 6.95175 30.7754 6.43205C30.7754 5.93582 30.9472 5.51251 31.2861 5.17364C31.6243 4.83141 32.0452 4.65741 32.5362 4.65741C33.0295 4.65741 33.4497 4.8317 33.7852 5.17518C34.121 5.5151 34.2916 5.94198 34.2916 6.44302C34.2916 6.93857 34.1192 7.36526 33.7794 7.71143ZM32.5462 4.06836C31.879 4.06836 31.3235 4.29555 30.8482 4.76302C30.3713 5.22981 30.1396 5.77202 30.1396 6.42089C30.1396 7.16211 30.3929 7.74375 30.914 8.1991C31.3835 8.60751 31.92 8.81479 32.5081 8.81479C33.1841 8.81479 33.745 8.58837 34.2226 8.12273C34.6968 7.66045 34.9274 7.11305 34.9274 6.44946C34.9274 5.78943 34.6975 5.23953 34.2244 4.7685C33.7532 4.29728 33.2043 4.06836 32.5462 4.06836Z" fill="white"/>
<path fill-rule="evenodd" clip-rule="evenodd" d="M30.7213 14.5124H33.006C34.0726 14.5124 34.8384 14.725 35.2811 15.1436C35.7256 15.5641 35.9415 16.1732 35.9415 17.0069C35.9415 17.8125 35.725 18.4122 35.2799 18.8401C34.8366 19.2645 34.072 19.4798 33.006 19.4798H30.7213V14.5124ZM33.1737 12.2334H28.127V27.7245H30.7213V21.759H33.1737C34.8903 21.759 36.2317 21.3378 37.1614 20.5061C38.101 19.6645 38.5775 18.4869 38.5775 17.0069C38.5775 15.5427 38.117 14.3671 37.2094 13.5128C36.3077 12.6638 34.95 12.2334 33.1737 12.2334Z" fill="white"/>
<path fill-rule="evenodd" clip-rule="evenodd" d="M49.4954 17.0908C49.4954 18.8068 48.5695 19.6064 46.5809 19.6064H44.1285V14.5752H46.5809C48.5695 14.5752 49.4954 15.3748 49.4954 17.0908ZM51.0338 20.1249C51.7621 19.3286 52.1314 18.2723 52.1314 16.9855C52.1314 15.5654 51.6719 14.4045 50.7662 13.5362C49.8646 12.6719 48.5131 12.2334 46.7487 12.2334H41.5342V27.7246H44.1285V21.675H45.6795L49.5447 27.7246H52.5296L48.4325 21.5157C49.5324 21.2784 50.4061 20.812 51.0338 20.1249Z" fill="white"/>
<path fill-rule="evenodd" clip-rule="evenodd" d="M55.1943 27.7246H57.7887V12.2334H55.1943V27.7246Z" fill="white"/>
<path fill-rule="evenodd" clip-rule="evenodd" d="M69.3547 19.7036C68.7659 19.4191 67.9777 19.1165 67.0107 18.8034C66.242 18.556 65.6322 18.3315 65.1987 18.1343C64.7998 17.9542 64.4623 17.7023 64.1947 17.3851C63.9452 17.0892 63.8239 16.7041 63.8239 16.2083C63.8239 15.5778 64.0118 15.1094 64.3981 14.7756C64.8008 14.4283 65.3329 14.2597 66.0244 14.2597C66.7834 14.2597 67.3608 14.4503 67.7893 14.8429C68.2278 15.2441 68.4891 15.6912 68.5877 16.209L68.6407 16.4862H71.3696L71.3203 16.1017C71.1687 14.9255 70.6263 13.9432 69.7076 13.1829C68.7932 12.4272 67.5541 12.0439 66.0244 12.0439C65.0407 12.0439 64.1688 12.2173 63.4331 12.5591C62.6824 12.9084 62.0969 13.4101 61.6921 14.0518C61.288 14.6917 61.083 15.4386 61.083 16.2716C61.083 17.2379 61.3065 18.0336 61.7471 18.6367C62.1789 19.2272 62.7097 19.6756 63.3242 19.9708C63.9059 20.2514 64.6796 20.5506 65.6275 20.8604C66.4029 21.105 67.0247 21.3369 67.4755 21.5476C67.8902 21.7427 68.2428 22.0127 68.524 22.3505C68.7889 22.6684 68.9179 23.0783 68.9179 23.6027C68.9179 24.2144 68.7306 24.6989 68.3458 25.0841C67.9666 25.4633 67.3975 25.6552 66.6545 25.6552C66.072 25.6552 65.5742 25.54 65.1744 25.312C64.7719 25.0828 64.4593 24.7902 64.2458 24.4424C64.0288 24.0892 63.9006 23.7247 63.8639 23.3581L63.8333 23.051H61.1147L61.1474 23.4221C61.2223 24.2791 61.5088 25.0548 61.9989 25.7258C62.4871 26.3937 63.1462 26.9247 63.9579 27.304C64.7629 27.6804 65.6915 27.8717 66.7174 27.8717C67.7787 27.8717 68.689 27.6664 69.4237 27.2619C70.1634 26.8548 70.7242 26.315 71.0904 25.6593C71.4536 25.0081 71.6378 24.2951 71.6378 23.5394C71.6378 22.5318 71.4112 21.7054 70.9647 21.0831C70.5263 20.4707 69.9845 20.0068 69.3547 19.7036Z" fill="white"/>
<path fill-rule="evenodd" clip-rule="evenodd" d="M87.5857 12.4863L82.7272 24.1696L77.7886 12.4863H74.9316V27.7249H77.526V17.5703L81.6174 27.7249H83.7798L87.8502 17.5409V27.7249H90.4439V12.4863H87.5857Z" fill="white"/>
</g>
</svg>
