<svg width="25" height="19" viewBox="0 0 25 19" fill="none" xmlns="http://www.w3.org/2000/svg">
<path d="M12.9481 12.3275C12.7169 12.4759 12.4568 12.5353 12.2256 12.5353C11.9943 12.5353 11.7342 12.4759 11.503 12.3275L1.31339 5.93823C0.742146 5.58004 0 5.99066 0 6.66492V14.7021C0 16.7502 1.61851 18.4124 3.61275 18.4124H20.8673C22.8615 18.4124 24.48 16.7502 24.48 14.7021V6.66286C24.48 5.98904 23.7387 5.57834 23.1674 5.93565L12.9481 12.3275Z" fill="#B8B8B8"/>
<path d="M20.8834 0.412384H3.55975C2.05139 0.412384 0.745743 1.38004 0.218283 2.747C0.088693 3.08285 0.25171 3.4479 0.557181 3.63835L11.7817 10.6366C12.0598 10.81 12.4123 10.8098 12.6901 10.6362L23.8869 3.63853C24.1919 3.44793 24.3545 3.08319 24.2251 2.74764C23.6978 1.38034 22.392 0.412384 20.8834 0.412384Z" fill="#B8B8B8"/>
</svg>
