<svg width="462" height="183" viewBox="0 0 462 183" fill="none" xmlns="http://www.w3.org/2000/svg">
<path d="M393.194 87.1045L389.681 102.865L386.828 115.652L384.555 125.849L381.705 138.635L372.39 180.408L256.973 127.217L248.489 123.307L237.75 118.357L229.263 114.447L219.055 109.742L224.842 101.345L229.654 94.3626L235.742 85.5288L240.553 78.5509L294.689 0L352.038 50.7122L362.25 59.7424L370.393 66.9432L380.607 75.9734L393.194 87.1045Z" fill="#EEEEEE"/>
<rect x="290.8" y="86.3729" width="25.076" height="25.076" fill="#40EAEA"/>
<circle cx="333.29" cy="55.0279" r="16.0208" fill="#40EAEA"/>
<path fill-rule="evenodd" clip-rule="evenodd" d="M350.356 78.7108C349.009 78.7108 347.918 79.8023 347.918 81.1487C347.919 82.4945 349.01 83.5851 350.356 83.5866C351.702 83.5866 352.794 82.4951 352.794 81.1487C352.794 79.8023 351.702 78.7108 350.356 78.7108ZM350.356 83.1803C349.234 83.1803 348.324 82.2707 348.324 81.1487C348.326 80.0272 349.234 79.1184 350.356 79.1171C351.478 79.1171 352.388 80.0267 352.388 81.1487C352.388 82.2707 351.478 83.1803 350.356 83.1803Z" fill="#3F3D56"/>
<path fill-rule="evenodd" clip-rule="evenodd" d="M321.449 123.505L325.147 127.47L329.111 123.772L325.413 119.808L321.449 123.505ZM325.167 126.88L322.038 123.526L325.393 120.397L328.522 123.751L325.167 126.88Z" fill="#3F3D56"/>
<path fill-rule="evenodd" clip-rule="evenodd" d="M290.104 64.3223L293.129 67.5659L296.373 64.5405L293.347 61.2969L290.104 64.3223ZM293.146 67.0836L290.586 64.3391L293.331 61.7791L295.891 64.5237L293.146 67.0836Z" fill="#3F3D56"/>
<path d="M0 180.408H462V179.408H0V180.408Z" fill="#3F3D56"/>
<path fill-rule="evenodd" clip-rule="evenodd" d="M315.876 50.152C315.876 62.4623 325.856 72.4418 338.166 72.4418C350.471 72.4278 360.442 62.4565 360.456 50.152C360.456 37.8417 350.477 27.8622 338.166 27.8622C325.856 27.8622 315.876 37.8417 315.876 50.152ZM316.322 50.152C316.322 38.0879 326.102 28.308 338.166 28.308C350.225 28.3216 359.997 38.0935 360.01 50.152C360.01 62.2161 350.23 71.996 338.166 71.996C326.102 71.996 316.322 62.2161 316.322 50.152Z" fill="#3F3D56"/>
<path d="M318.166 79.6281L323.883 67.7298L324.282 67.9216L318.565 79.8198L318.166 79.6281Z" fill="#3F3D56"/>
<path d="M322.353 95.8531L322.563 95.4638L347.746 109.092L347.535 109.482L322.353 95.8531Z" fill="#3F3D56"/>
<path fill-rule="evenodd" clip-rule="evenodd" d="M290.8 111.449H322.842V79.4073H290.8V111.449ZM322.403 111.01H291.239V79.8462H322.403V111.01Z" fill="#3F3D56"/>
<path d="M415.803 87.766C415.803 87.766 418.372 95.4097 419.014 100.131C419.657 104.852 419.657 106.875 419.657 106.875C419.657 106.875 422.439 115.868 421.583 120.139C421.583 120.139 424.794 130.256 422.011 130.256C419.228 130.256 418.372 121.938 418.372 121.938L414.091 100.58L415.803 87.766Z" fill="#DADADA"/>
<path d="M416.948 92.3139C416.948 92.3139 416.291 84.1916 413.444 83.533C412.084 83.2186 409.876 82.7541 407.94 82.3545C404.567 81.6583 401.088 83.2625 399.554 86.3535C399.267 86.9139 399.076 87.5189 398.989 88.143C398.551 91.6553 396.361 91.6553 398.332 96.2653C400.303 100.875 399.865 105.705 399.865 105.705L401.179 117.339C401.179 117.339 395.704 132.706 396.142 143.024L391.104 168.269C391.104 168.269 392.2 170.903 395.266 169.586C395.266 169.586 402.931 156.634 402.274 147.194L410.158 129.633C410.158 129.633 415.634 146.316 417.167 147.853L421.109 171.561C421.109 171.561 424.832 172.659 426.584 171.561C426.584 171.561 427.241 148.731 423.518 144.999C423.518 144.999 419.795 129.194 420.671 125.023C421.547 120.852 421.766 114.486 415.196 108.778C415.196 108.778 416.072 106.363 413.225 105.046L415.415 98.0215L416.948 92.3139Z" fill="#2F2E41"/>
<path d="M402.318 82.229C402.256 82.2203 402.193 82.213 402.129 82.2073C400.109 82.0288 398.37 83.6077 398.28 85.5911L397.919 93.5327L396.55 102.242L393.584 121.001C393.584 121.001 387.881 127.701 391.759 128.148C395.638 128.594 396.322 120.778 396.322 120.778L401.341 106.039L403.395 92.4161C403.395 92.4161 405.79 90.0717 404.793 84.6522C404.584 83.4083 403.588 82.4332 402.318 82.229Z" fill="#DADADA"/>
<path d="M390.52 168.566L389.013 175.916C389.013 175.916 385.355 177.55 387.722 179.591C390.089 181.633 393.317 179.183 393.317 179.183L394.178 176.733L393.963 180.408H394.608L395.254 176.733C395.254 176.733 396.545 174.487 395.684 172.65V170.2L390.52 168.566Z" fill="#2F2E41"/>
<path d="M420.523 168.566L419.662 175.671C419.662 175.671 416.004 177.394 418.371 179.547C420.738 181.7 423.966 179.116 423.966 179.116L424.826 176.532L424.611 180.408H425.257L425.902 176.532C425.902 176.532 427.194 174.164 426.333 172.227V169.643L420.523 168.566Z" fill="#2F2E41"/>
<path d="M411.788 65.797H411.788C411.463 65.7976 411.139 65.829 410.82 65.8907C410.244 65.6186 409.612 65.4769 408.971 65.4762H408.803C405.568 65.4762 402.946 68.3239 402.946 71.8366V71.8366H404.03L404.205 70.5404L404.461 71.8366H405.365C405.084 72.8767 404.943 73.9478 404.945 75.0232V81.497H406.584L407.533 79.0984L407.296 81.497H417.83L418.693 79.3164L418.477 81.497H419.663V76.4139C419.663 70.5504 416.137 65.797 411.788 65.797Z" fill="#2F2E41"/>
<rect x="447.177" y="105.876" width="0.696555" height="74.5314" fill="#2F2E41"/>
<ellipse cx="447.525" cy="155.332" rx="8.35867" ry="18.1104" fill="#2F2E41"/>
<ellipse cx="447.525" cy="113.539" rx="8.35867" ry="18.1104" fill="#2F2E41"/>
<path d="M447.429 98.9109L447.021 98.7882C447.046 98.7018 449.55 90.0933 445.439 84.5515C443.116 81.4217 439.131 79.8346 433.594 79.8346V79.4073C439.274 79.4073 443.375 81.0528 445.782 84.298C450.021 90.0135 447.455 98.8226 447.429 98.9109Z" fill="#2F2E41"/>
<circle cx="432.898" cy="79.4073" r="4.87589" fill="#F1F1F1"/>
<path fill-rule="evenodd" clip-rule="evenodd" d="M336.077 129.559H357.431L355.375 125.972H342.251L352.446 108.185L364.696 129.559H368.815L352.446 101.001L336.077 129.559Z" fill="#F83633"/>
<path fill-rule="evenodd" clip-rule="evenodd" d="M337.47 128.166H358.824L356.768 124.578H343.644L353.839 106.792L366.09 128.166H370.208L353.839 99.6074L337.47 128.166Z" stroke="#3F3D56" stroke-width="0.8"/>
<path d="M272.47 116.574L272.179 119.446C272.179 119.446 274.514 127.774 271.011 127.2C267.507 126.625 268.675 119.446 268.675 119.446L269.259 117.148L272.47 116.574Z" fill="#DADADA"/>
<path d="M235.34 117.018L235.632 119.89C235.632 119.89 233.296 128.218 236.8 127.644C240.303 127.069 239.135 119.89 239.135 119.89L238.551 117.592L235.34 117.018Z" fill="#DADADA"/>
<path d="M265.169 113.682C265.169 113.682 266.626 114.263 265.169 136.318L264.587 172.304H258.76L256.43 140.381L253.225 120.937L244.194 146.186L236.911 173.175L231.084 171.724L238.659 137.189C238.659 137.189 237.202 117.165 242.446 113.682C247.69 110.2 265.169 113.682 265.169 113.682Z" fill="#2F2E41"/>
<path d="M263.724 175.269C263.724 175.269 263.83 173.277 264.286 173.178C264.743 173.079 268.056 175.488 268.056 175.488C268.056 175.488 271.625 175.05 271.37 178.336C271.115 181.621 266.018 180.526 266.018 180.526C266.018 180.526 264.998 182.498 262.959 182.498C260.92 182.498 257.862 182.498 257.607 181.183C257.352 179.869 258.882 173.955 259.391 174.174C259.901 174.393 261.175 174.174 261.175 174.174L263.724 175.269Z" fill="#2F2E41"/>
<path d="M232.286 175.097C232.286 175.097 232.181 173.058 231.724 172.956C231.267 172.854 227.954 175.321 227.954 175.321C227.954 175.321 224.386 174.873 224.641 178.237C224.896 181.601 229.993 180.479 229.993 180.479C229.993 180.479 231.012 182.498 233.051 182.498C235.09 182.498 238.148 182.498 238.403 181.152C238.658 179.806 237.129 173.752 236.619 173.976C236.109 174.2 234.835 173.976 234.835 173.976L232.286 175.097Z" fill="#2F2E41"/>
<ellipse rx="5.56608" ry="5.54914" transform="matrix(-1 0 0 1 253.794 64.1898)" fill="#DADADA"/>
<path d="M250.123 65.0777C250.123 65.0777 249.831 72.9197 248.371 73.791C246.91 74.6623 257.134 73.791 257.134 73.791L255.965 67.1108L250.123 65.0777Z" fill="#DADADA"/>
<path d="M247.683 72.7576C247.683 72.7576 252.926 70.1533 257.878 71.8895C262.829 73.6258 265.451 75.6514 265.451 75.6514L262.247 92.435C262.247 92.435 268.363 114.427 266.616 115.006C264.868 115.585 244.188 113.27 242.149 115.006C240.11 116.742 240.11 112.98 240.11 112.98C240.11 112.98 243.023 105.746 242.441 99.6693C241.858 93.5925 241.858 91.5669 241.858 91.5669L238.654 77.9664L247.683 72.7576Z" fill="#F83633"/>
<path d="M263.528 75.732H265.558C265.558 75.732 268.747 77.7614 268.747 80.6605C268.747 83.5597 271.647 99.505 271.647 99.505L273.386 117.48L268.457 118.349L264.108 94.5764L260.918 88.1983L263.528 75.732Z" fill="#F83633"/>
<path d="M244.22 77.9517H238.746C238.746 77.9517 237.017 79.6954 236.153 83.7643C235.288 87.8331 234.424 103.818 234.424 103.818L235 118.349H239.322L239.898 99.4584L242.78 87.2519L244.22 77.9517Z" fill="#F83633"/>
<path d="M258.523 63.7423L257.36 66.7291C256.884 67.9531 256.338 69.2625 255.221 69.9456C253.843 70.789 252.002 70.3777 250.668 69.4642C248.211 67.7814 247.055 64.7395 247.768 61.8378C248.482 58.9361 250.915 56.7869 253.868 56.4495L253.924 57.4492L255.144 56.421C255.326 56.7364 255.643 56.9502 256.002 57.0013C256.362 57.0525 256.724 56.9352 256.987 56.6832C256.667 57.3511 257.036 58.1658 257.571 58.6775C258.227 59.3061 260.103 60.0615 260.025 61.1852C259.974 61.9351 258.825 62.9652 258.523 63.7423Z" fill="#2F2E41"/>
</svg>
