<svg width="27" height="22" viewBox="0 0 27 22" fill="none" xmlns="http://www.w3.org/2000/svg">
<path d="M26.4619 2.95091C25.4779 3.38142 24.4293 3.66678 23.3361 3.80534C24.4607 3.13565 25.3191 2.08328 25.7227 0.814827C24.6741 1.43833 23.5164 1.87874 22.2826 2.12452C21.287 1.0672 19.8679 0.412354 18.3199 0.412354C15.3165 0.412354 12.8985 2.84369 12.8985 5.82431C12.8985 6.25318 12.9349 6.66555 13.0242 7.05812C8.51413 6.83874 4.52334 4.68287 1.84241 1.39874C1.37437 2.20864 1.09982 3.13565 1.09982 4.13359C1.09982 6.0074 2.06734 7.66843 3.50951 8.63008C2.63792 8.61359 1.78287 8.36122 1.05848 7.96369C1.05848 7.98018 1.05848 8.00163 1.05848 8.02307C1.05848 10.6523 2.93893 12.8363 5.40485 13.3394C4.96327 13.4598 4.48199 13.5175 3.98252 13.5175C3.63521 13.5175 3.28459 13.4977 2.95547 13.4251C3.65836 15.5678 5.65293 17.1431 8.02458 17.1942C6.17886 18.6342 3.83533 19.5018 1.29829 19.5018C0.853397 19.5018 0.426699 19.482 0 19.4276C2.40307 20.9732 5.25104 21.8556 8.32228 21.8556C18.305 21.8556 23.7628 13.6082 23.7628 6.45936C23.7628 6.22019 23.7545 5.98926 23.743 5.75998C24.8196 4.99792 25.7243 4.04617 26.4619 2.95091Z" fill="#B8B8B8"/>
</svg>
