<svg width="26" height="19" viewBox="0 0 26 19" fill="none" xmlns="http://www.w3.org/2000/svg">
<path d="M25.1787 3.2289C24.8823 2.12758 24.014 1.25947 22.9129 0.962914C20.9011 0.412354 12.8539 0.412354 12.8539 0.412354C12.8539 0.412354 4.80696 0.412354 2.79517 0.941927C1.71523 1.23829 0.825742 2.12778 0.529377 3.2289C0 5.24049 0 9.41235 0 9.41235C0 9.41235 0 13.6052 0.529377 15.5958C0.825938 16.6969 1.69405 17.5652 2.79536 17.8618C4.82814 18.4124 12.8541 18.4124 12.8541 18.4124C12.8541 18.4124 20.9011 18.4124 22.9129 17.8828C24.0142 17.5864 24.8823 16.7181 25.1789 15.617C25.7082 13.6052 25.7082 9.43354 25.7082 9.43354C25.7082 9.43354 25.7294 5.24049 25.1787 3.2289Z" fill="#B8B8B8"/>
<path d="M10.2919 13.2665L16.9835 9.41239L10.2919 5.55826V13.2665Z" fill="white"/>
</svg>
