<svg width="20" height="27" viewBox="0 0 20 27" fill="none" xmlns="http://www.w3.org/2000/svg">
<path d="M10 26.2564C9.84615 26.1274 0 23.5709 0 13.1282V3.12821H2.57131C7.84235 3.12821 9.65665 0.194712 10 0C10.363 0.205729 12.1302 3.12821 17.4287 3.12821H20V13.1282C20 23.5713 10.1538 26.1274 10 26.2564Z" fill="#FF2D3B"/>
<path d="M10 20.0513C6.1825 20.0513 3.07693 16.9457 3.07693 13.1282C3.07693 9.31071 6.1825 6.20514 10 6.20514C13.8175 6.20514 16.9231 9.31071 16.9231 13.1282C16.9231 16.9457 13.8175 20.0513 10 20.0513Z" fill="#FFEAEB"/>
<path d="M9.23077 16.5236L6.37921 13.6721L7.46695 12.5843L9.23077 14.3482L12.5331 11.0459L13.6208 12.1336L9.23077 16.5236Z" fill="#BF222C"/>
</svg>
