<svg width="23" height="23" viewBox="0 0 23 23" fill="none" xmlns="http://www.w3.org/2000/svg">
<path d="M23 11.5C23 14.4388 21.9011 17.0967 20.061 19.1411L11.5 16.8666L11.0144 16.7388L2.93897 19.141C1.09889 17.0967 0 14.4388 0 11.5C0 5.16231 5.16231 0 11.5 0C17.8377 0 23 5.16231 23 11.5Z" fill="#FFEAEB"/>
<path d="M17.991 15.5632C16.2788 13.7744 13.9787 12.7778 11.4999 12.7778C8.66326 12.7778 6.08215 14.0811 4.37001 16.33C3.70557 17.1732 3.24557 18.1444 2.9389 19.141C4.93215 21.4666 8.02437 23 11.4999 23C14.9245 23 18.0933 21.4411 20.061 19.1411C19.6777 17.8121 18.9877 16.5855 17.991 15.5632Z" fill="#BF222C"/>
<path d="M11.5 5.11108C8.68897 5.11108 6.38889 7.41117 6.38889 10.2222C6.38889 13.0332 8.68897 15.3333 11.5 15.3333C14.311 15.3333 16.6111 13.0332 16.6111 10.2222C16.6111 7.41117 14.311 5.11108 11.5 5.11108Z" fill="#FF2D3B"/>
</svg>
