<svg width="78" height="85" viewBox="0 0 78 85" fill="none" xmlns="http://www.w3.org/2000/svg">
<path fill-rule="evenodd" clip-rule="evenodd" d="M60.7724 33.2403C60.2104 31.3378 59.345 29.5004 58.9947 27.5396C58.6521 25.6195 58.7893 23.6352 58.5703 21.6989C58.2759 19.0966 57.71 16.1673 55.7201 14.2857C54.8483 13.4614 53.7379 13.0405 52.5742 12.829C52.1826 12.7575 50.7274 12.471 50.9341 12.7073C50.626 12.462 50.3384 12.0766 50.0269 11.8548C49.225 11.2844 48.305 10.8849 47.3493 10.6584C42.3319 9.46924 36.5467 12.4033 35.0838 17.8861C34.0591 21.7288 35.3531 25.6722 34.2572 29.5753C33.4003 32.628 32.4348 44.5416 33.9815 47.5429C34.152 47.8735 35.2279 52.4407 35.5317 52.2896C39.4118 50.3631 42.6268 53.5725 46.3654 53.9703C51.0607 54.47 58.0701 52.8235 60.4742 50.9283C61.8513 48.8459 61.3298 35.5471 60.7724 33.2403" fill="#344552"/>
<path fill-rule="evenodd" clip-rule="evenodd" d="M54.3479 25.3836C54.3479 25.3836 57.9816 23.5714 58.4952 26.1599C59.0087 28.748 57.3497 31.2993 54.3876 29.8943C51.4251 28.4892 54.3479 25.3836 54.3479 25.3836" fill="#FFB5B1"/>
<path fill-rule="evenodd" clip-rule="evenodd" d="M56.377 29.4651C56.377 29.6177 56.5007 29.7414 56.6533 29.7414C56.8059 29.7414 56.9297 29.6177 56.9297 29.4651C56.9297 29.3125 56.8059 29.1887 56.6533 29.1887C56.5007 29.1887 56.377 29.3125 56.377 29.4651" fill="#344552"/>
<path fill-rule="evenodd" clip-rule="evenodd" d="M57.0801 28.6354L56.9743 28.5989C56.9019 28.5418 56.8905 28.438 56.9489 28.3672C57.7683 27.3731 56.4929 26.3186 56.438 26.2744L56.4257 26.2594L56.3208 26.2976C56.2339 26.3362 56.0395 26.4804 55.824 27.0191C55.8464 26.7581 55.8665 26.4946 55.8845 26.2293C55.978 26.1208 56.0772 26.0435 56.1817 25.9972C56.3814 25.9092 56.571 25.8718 56.7479 25.8718C57.3645 25.8718 57.8241 26.3238 58.011 26.6281C58.0584 26.7062 58.033 26.807 57.9531 26.8538C57.9259 26.8701 57.896 26.8779 57.8662 26.8779C57.8091 26.8779 57.7534 26.8495 57.7218 26.798C57.7047 26.771 57.3882 26.2744 56.8615 26.21C57.3816 26.7336 57.9351 27.6959 57.2113 28.574C57.178 28.6144 57.1293 28.6354 57.0801 28.6354" fill="#E7817E"/>
<path fill-rule="evenodd" clip-rule="evenodd" d="M39.0603 25.3836C39.0603 25.3836 35.4266 23.5714 34.9131 26.1599C34.3995 28.748 36.0585 31.2993 39.021 29.8943C41.983 28.4892 39.0603 25.3836 39.0603 25.3836" fill="#FFB5B1"/>
<path fill-rule="evenodd" clip-rule="evenodd" d="M37.0317 29.4651C37.0317 29.6177 36.908 29.7414 36.7554 29.7414C36.6027 29.7414 36.479 29.6177 36.479 29.4651C36.479 29.3125 36.6027 29.1887 36.7554 29.1887C36.908 29.1887 37.0317 29.3125 37.0317 29.4651" fill="#344552"/>
<path fill-rule="evenodd" clip-rule="evenodd" d="M36.3299 28.6354C36.2807 28.6354 36.2319 28.6144 36.1985 28.574C35.4735 27.6959 36.0274 26.7336 36.5484 26.21C36.0213 26.2744 35.7039 26.771 35.6867 26.798C35.6551 26.8495 35.5992 26.8779 35.5425 26.8779C35.5126 26.8779 35.4823 26.8701 35.455 26.8538C35.375 26.807 35.3495 26.7062 35.3975 26.6281C35.5843 26.3238 36.045 25.8718 36.6627 25.8718C36.8394 25.8718 37.0293 25.9092 37.2294 25.9972C37.3331 26.0431 37.4312 26.119 37.5239 26.2255C37.542 26.4886 37.5617 26.7504 37.5842 27.0096C37.3696 26.4787 37.1766 26.3358 37.09 26.2976L36.9854 26.2594L36.9726 26.2744C36.9177 26.3186 35.6401 27.3731 36.4613 28.3672C36.5198 28.438 36.5084 28.5418 36.4358 28.5989L36.3299 28.6354" fill="#E7817E"/>
<path fill-rule="evenodd" clip-rule="evenodd" d="M49.471 40.5297L48.7456 40.0109V37.0512C48.7456 35.7615 47.6107 34.7158 46.2106 34.7158C44.8104 34.7158 43.6752 35.7615 43.6752 37.0512V40.1663L42.9599 40.5297L42.5588 45.2174H50.8496L49.471 40.5297" fill="#FFB5B1"/>
<mask id="mask0" mask-type="alpha" maskUnits="userSpaceOnUse" x="43" y="34" width="6" height="12">
<path fill-rule="evenodd" clip-rule="evenodd" d="M47.0347 45.3182H45.435C44.4571 45.3182 43.6643 44.5255 43.6643 43.5475V35.4522C43.6643 35.0455 43.994 34.7158 44.4002 34.7158H48.069C48.4757 34.7158 48.8054 35.0455 48.8054 35.4522V43.5475C48.8054 44.5255 48.0126 45.3182 47.0347 45.3182" fill="white"/>
</mask>
<g mask="url(#mask0)">
<path fill-rule="evenodd" clip-rule="evenodd" d="M46.5639 39.6524C45.5817 39.6524 44.5999 39.4946 43.6643 39.1782V38.0305C44.5618 38.45 45.5304 38.6595 46.498 38.6595C47.2797 38.6595 48.0609 38.5227 48.8054 38.2495V39.3728C48.0725 39.5592 47.3182 39.6524 46.5639 39.6524" fill="#E17170"/>
</g>
<path fill-rule="evenodd" clip-rule="evenodd" d="M51.2036 17.5813H41.7366C39.2005 17.5813 37.1185 19.6351 37.046 22.2195C36.9424 25.8963 37.4046 30.7106 38.1303 32.5435C38.8044 34.2465 40.6174 35.9804 42.748 37.433C45.0134 38.9778 47.9661 38.9682 50.2187 37.4047C52.3045 35.9573 54.0566 34.2365 54.7268 32.5435C55.4581 30.6962 55.9147 25.8211 55.8086 22.1335C55.7357 19.5964 53.6933 17.5813 51.2036 17.5813Z" fill="#FFB5B1" stroke="#FFB5B1"/>
<mask id="mask1" mask-type="alpha" maskUnits="userSpaceOnUse" x="43" y="32" width="8" height="4">
<path fill-rule="evenodd" clip-rule="evenodd" d="M50.1778 32.2819C50.0371 31.8428 49.5248 31.9595 48.6188 32.447C47.6374 32.9751 45.9069 33.1034 44.6741 32.55C43.7407 32.131 43.2767 32.0887 43.1099 32.4662C42.9432 32.8442 43.9801 35.0695 45.9458 35.3384C46.3136 35.3889 46.8724 35.4064 47.4668 35.2987C49.4222 34.9446 50.333 32.7664 50.1778 32.2819" fill="white"/>
</mask>
<g mask="url(#mask1)">
<path fill-rule="evenodd" clip-rule="evenodd" d="M50.1778 32.2819C50.0371 31.8428 49.5248 31.9595 48.6188 32.447C47.6374 32.9751 45.9069 33.1034 44.6741 32.55C43.7407 32.131 43.2767 32.0887 43.1099 32.4662C42.9432 32.8442 43.9801 35.0695 45.9458 35.3384C46.3136 35.3889 46.8724 35.4064 47.4668 35.2987C49.4222 34.9446 50.333 32.7664 50.1778 32.2819" fill="#7E322C"/>
<path fill-rule="evenodd" clip-rule="evenodd" d="M43.958 31.9828C43.958 31.9828 43.9909 33.5311 46.4253 33.5781C48.8596 33.6256 49.5767 32.8688 49.5874 31.7993L43.958 31.9828" fill="#FFFFFE"/>
<path fill-rule="evenodd" clip-rule="evenodd" d="M44.8567 35.0579C44.8567 35.0579 46.5316 33.8709 49.1216 34.9835L47.1208 36.5113L44.8567 35.0579" fill="#EEA4A0"/>
<path fill-rule="evenodd" clip-rule="evenodd" d="M46.567 35.3782C46.3292 35.3782 46.1171 35.3619 45.9461 35.3384C45.5775 35.2879 45.2414 35.1686 44.9399 35.0057C45.1721 34.8685 45.8837 34.5076 46.9467 34.5076C47.444 34.5076 48.0178 34.5862 48.6558 34.8039C48.3159 35.0374 47.9195 35.217 47.4671 35.2986C47.1489 35.3564 46.8411 35.3782 46.567 35.3782" fill="#E88683"/>
</g>
<path fill-rule="evenodd" clip-rule="evenodd" d="M43.1118 26.7009C43.1118 27.1587 42.7406 27.53 42.2829 27.53C41.8248 27.53 41.4536 27.1587 41.4536 26.7009C41.4536 26.2431 41.8248 25.8718 42.2829 25.8718C42.7406 25.8718 43.1118 26.2431 43.1118 26.7009" fill="#202020"/>
<path fill-rule="evenodd" clip-rule="evenodd" d="M51.955 26.7009C51.955 27.1587 51.5839 27.53 51.1258 27.53C50.668 27.53 50.2969 27.1587 50.2969 26.7009C50.2969 26.2431 50.668 25.8718 51.1258 25.8718C51.5839 25.8718 51.955 26.2431 51.955 26.7009" fill="#202020"/>
<path fill-rule="evenodd" clip-rule="evenodd" d="M49.1909 15.3709C49.1909 15.3709 49.842 22.0371 56.4138 23.6611L56.9289 20.1217C56.9289 20.1217 54.0096 15.3108 49.1909 15.3709" fill="#344552"/>
<path fill-rule="evenodd" clip-rule="evenodd" d="M49.2504 15.9782L49.1969 15.9838C49.1978 15.9881 49.3586 17.5262 50.3338 19.2543C51.308 20.982 53.1008 22.8992 56.3535 23.6484L56.4095 23.6614L56.9289 20.3317L56.9174 20.314C56.9135 20.3105 54.0686 15.9268 49.3385 15.9233L49.2495 15.9242L49.1909 15.9246L49.1969 15.9838L49.2504 15.9782L49.2508 16.0322L49.3385 16.0313C51.6687 16.0313 53.5406 17.1151 54.832 18.202C55.4772 18.7452 55.9769 19.2889 56.3145 19.6961C56.4835 19.8999 56.6123 20.0696 56.6983 20.1879C56.7847 20.3066 56.828 20.3731 56.828 20.3731L56.8729 20.3438L56.8198 20.3351L56.3128 23.5875L56.3654 23.5962L56.3774 23.5435C53.1564 22.8003 51.3915 20.909 50.4266 19.2008C49.9448 18.3467 49.6637 17.5383 49.5033 16.9441C49.4233 16.6471 49.3732 16.4035 49.3432 16.2347C49.3133 16.0658 49.3034 15.9726 49.3034 15.9721L49.2504 15.9782L49.2508 16.0322L49.2504 15.9782" fill="#011727"/>
<path fill-rule="evenodd" clip-rule="evenodd" d="M49.9753 14.3058C49.9753 14.3058 51.7255 18.6916 47.0598 21.4264C42.8254 23.9083 41.0648 18.827 37.2654 24.767C37.2654 24.767 35.3352 21.5272 37.5229 17.6399C38.6949 15.5578 46.5966 12.3873 49.9753 14.3058" fill="#344552"/>
<path fill-rule="evenodd" clip-rule="evenodd" d="M49.9257 14.3501L49.8773 14.3699C49.8773 14.3699 49.8965 14.4175 49.9261 14.5081C50.0146 14.7807 50.1929 15.4325 50.1925 16.2655C50.1913 17.7464 49.6355 19.7941 47.0059 21.3277C46.0556 21.8809 45.2364 22.0486 44.4886 22.0486C43.3136 22.0498 42.312 21.6289 41.2719 21.6277C40.0669 21.626 38.8301 22.2078 37.2677 24.6393L37.3116 24.668L37.3562 24.6406C37.3562 24.6401 37.3091 24.5618 37.2364 24.4114C37.0193 23.9593 36.5834 22.8706 36.5834 21.4275C36.5834 20.3367 36.8318 19.0437 37.6126 17.6647C38.0523 16.8831 39.527 15.9107 41.3537 15.1477C43.1809 14.3821 45.3621 13.8176 47.2213 13.818C48.2527 13.8176 49.1838 13.9916 49.9002 14.396L49.9257 14.3501L49.8773 14.3699L49.9257 14.3501L49.9512 14.3042C49.2117 13.8871 48.2639 13.7126 47.2213 13.7126C45.3416 13.7126 43.1512 14.281 41.3136 15.0504C39.4761 15.8218 37.993 16.7862 37.522 17.6124C36.7316 19.0074 36.479 20.3207 36.479 21.4275C36.4794 23.3808 37.264 24.6903 37.2669 24.6949L37.3099 24.767L37.3554 24.6966C38.9149 22.2778 40.1065 21.7343 41.2719 21.733C42.2827 21.7317 43.2886 22.1531 44.4886 22.1539C45.2522 22.1543 46.0936 21.9812 47.0581 21.4187C49.7203 19.8699 50.2986 17.7721 50.2969 16.2655C50.2969 15.1346 49.9758 14.3345 49.9741 14.3303L49.967 14.313L49.9512 14.3042L49.9257 14.3501" fill="#344552"/>
<path fill-rule="evenodd" clip-rule="evenodd" d="M66.1805 10.2311C66.1805 10.2311 65.5436 7.65439 65.8627 7.53877C66.1818 7.42272 66.4455 7.38012 66.6359 7.82783C66.8268 8.27597 67.5426 9.85554 67.5426 9.85554L68.1752 8.44505C68.1752 8.44505 68.8901 5.04293 69.0333 4.64304C69.1714 4.25836 69.8551 4.2175 69.9005 4.74779C69.9241 5.0238 69.4939 8.71063 69.4939 8.71063C69.4939 8.71063 70.9187 4.57045 71.2223 4.38572C71.5259 4.20055 72.0582 4.37311 71.9527 5.04815C71.9179 5.27069 70.8895 9.26048 70.8895 9.26048C70.8895 9.26048 72.1512 6.79289 72.5081 6.47471C72.8653 6.15654 73.2131 6.44777 73.2599 6.76942C73.3071 7.09107 71.7387 10.6197 71.7387 10.6197C71.7387 10.6197 72.6101 9.65124 72.9249 9.46695C73.2401 9.28265 73.5627 9.50824 73.5043 9.89553C73.4464 10.2824 71.1644 13.6232 71.1644 13.6232L70.3856 16.4759L66.6955 15.1889C66.8388 14.7933 67.0125 13.2703 67.0125 13.2703C66.9331 13.106 66.1805 10.2311 66.1805 10.2311" fill="#EEA4A0"/>
<path fill-rule="evenodd" clip-rule="evenodd" d="M66.3257 14.1719L66.5825 13.1599L71.3001 14.3051L70.882 15.3708L66.3257 14.1719" fill="#344552"/>
<path fill-rule="evenodd" clip-rule="evenodd" d="M66.3866 14.4318L66.4351 14.4471L66.6729 13.3082L71.1646 14.6328L70.7946 15.7772L66.3995 14.3722L66.3866 14.4318L66.4351 14.4471L66.3866 14.4318L66.3742 14.4915L70.8551 15.9235L71.3001 14.5461L66.6003 13.1599L66.3257 14.4762L66.3742 14.4915L66.3866 14.4318" fill="#344552"/>
<path fill-rule="evenodd" clip-rule="evenodd" d="M66.5962 38.52C69.1225 32.2032 71.3 15.6045 71.3 15.6045L66.0204 14.2651C66.0204 14.2651 62.5231 26.9891 60.6622 30.8909C59.7665 32.7689 56.2222 38.3107 54.7185 39.3279C55.7348 43.6204 57.7205 47.6861 60.0094 51.2971L59.9746 50.9197C59.9746 50.9197 64.3731 44.0802 66.5962 38.52" fill="#F83633"/>
<path fill-rule="evenodd" clip-rule="evenodd" d="M51.2302 67.3263L53.0606 42.4541C45.7618 46.4909 40.9009 42.5636 40.9009 42.5636L42.9734 67.3263H51.2302" fill="#FFEAEB"/>
<path fill-rule="evenodd" clip-rule="evenodd" d="M42.1818 67.8785C42.1291 66.5901 44.7793 64.3512 44.7695 62.9388C44.6551 46.3514 43.2254 42.2168 43.1306 40.2427L37.8218 41.8972C32.7784 43.469 30.155 47.6364 29.9892 52.9273L29.2935 67.006L42.1818 67.8785" fill="#F83633"/>
<path fill-rule="evenodd" clip-rule="evenodd" d="M59.866 51.1491C58.7055 49.3174 57.6235 47.3685 56.7045 45.3332C56.5764 44.8891 56.4051 44.4737 56.172 44.0946C55.5117 42.4862 55.3956 40.9789 54.9949 39.2866C55.081 39.2634 54.8853 39.3607 54.9949 39.2866C52.7281 39.8918 49.4677 40.3824 49.4677 40.3824H49.1914C49.0746 42.5279 48.6647 51.6092 48.243 63.2186C48.1909 64.6441 48.138 66.0247 48.0859 67.3258H61.3511L59.866 51.1491Z" fill="#F83633"/>
<g filter="url(#filter0_d)">
<path fill-rule="evenodd" clip-rule="evenodd" d="M66.8785 76.1691H24.3193V53.405C24.3193 52.2406 25.2609 51.2969 26.4222 51.2969H64.7756C65.9369 51.2969 66.8785 52.2406 66.8785 53.405V76.1691" fill="#F8F9F9"/>
</g>
<mask id="mask2" mask-type="alpha" maskUnits="userSpaceOnUse" x="43" y="62" width="6" height="7">
<path fill-rule="evenodd" clip-rule="evenodd" d="M48.4458 65.3967C48.4458 66.8676 47.2536 68.0598 45.7827 68.0598C44.3117 68.0598 43.1191 66.8676 43.1191 65.3967C43.1191 63.9257 44.3117 62.7332 45.7827 62.7332C47.2536 62.7332 48.4458 63.9257 48.4458 65.3967" fill="white"/>
</mask>
<g mask="url(#mask2)">
<path fill-rule="evenodd" clip-rule="evenodd" d="M48.4458 65.3967C48.4458 66.8676 47.2536 68.0598 45.7827 68.0598C44.3117 68.0598 43.1191 66.8676 43.1191 65.3967C43.1191 63.9257 44.3117 62.7332 45.7827 62.7332C47.2536 62.7332 48.4458 63.9257 48.4458 65.3967" fill="#344552"/>
</g>
<path fill-rule="evenodd" clip-rule="evenodd" d="M13.3728 78.2993H78.0001V75.7649H13.3728V78.2993Z" fill="#BA2926"/>
<path d="M66.7087 50.1914H74.8743C75.9394 50.1914 76.827 49.3938 76.827 48.3864C76.827 48.3444 76.827 48.3444 76.827 48.3024C76.827 46.7492 75.4956 45.4479 73.8536 45.4059C73.5873 45.4059 73.2767 45.4479 73.0104 45.4898C72.7442 44.3984 71.7234 43.5588 70.4808 43.5588C69.1939 43.5588 68.1288 44.4404 67.9069 45.6158C67.6406 45.5318 67.3743 45.5318 67.1081 45.5318C65.7323 45.6578 64.6672 46.7492 64.6672 48.0925C64.6672 48.5543 64.8004 48.9321 65.0223 49.3099C65.3773 49.8556 66.043 50.1914 66.7087 50.1914Z" fill="#FED7D6"/>
<path d="M59.3493 1V3.15559" stroke="#F83633" stroke-linecap="round" stroke-linejoin="round"/>
<path d="M59.3493 6.02954V8.18513" stroke="#F83633" stroke-linecap="round" stroke-linejoin="round"/>
<path d="M55.7568 4.59258H57.9124" stroke="#F83633" stroke-linecap="round" stroke-linejoin="round"/>
<path d="M60.7864 4.59258H62.942" stroke="#F83633" stroke-linecap="round" stroke-linejoin="round"/>
<path d="M14.9973 39.0161V41.1717" stroke="#F83633" stroke-linecap="round" stroke-linejoin="round"/>
<path d="M14.9973 44.0457V46.2012" stroke="#F83633" stroke-linecap="round" stroke-linejoin="round"/>
<path d="M11.4048 42.6087H13.5604" stroke="#F83633" stroke-linecap="round" stroke-linejoin="round"/>
<path d="M16.4343 42.6087H18.5899" stroke="#F83633" stroke-linecap="round" stroke-linejoin="round"/>
<defs>
<filter id="filter0_d" x="16.3193" y="43.2969" width="58.5591" height="40.8722" filterUnits="userSpaceOnUse" color-interpolation-filters="sRGB">
<feFlood flood-opacity="0" result="BackgroundImageFix"/>
<feColorMatrix in="SourceAlpha" type="matrix" values="0 0 0 0 0 0 0 0 0 0 0 0 0 0 0 0 0 0 127 0"/>
<feOffset/>
<feGaussianBlur stdDeviation="4"/>
<feColorMatrix type="matrix" values="0 0 0 0 1 0 0 0 0 0.176471 0 0 0 0 0.231372 0 0 0 0.11 0"/>
<feBlend mode="normal" in2="BackgroundImageFix" result="effect1_dropShadow"/>
<feBlend mode="normal" in="SourceGraphic" in2="effect1_dropShadow" result="shape"/>
</filter>
</defs>
</svg>
