<svg width="28" height="25" viewBox="0 0 28 25" fill="none" xmlns="http://www.w3.org/2000/svg">
<path d="M21.4651 12.3141C23.3552 12.3141 24.8876 10.453 24.8876 8.15708C24.8876 5.86116 24.3845 4 21.4651 4C18.5457 4 18.0425 5.86116 18.0425 8.15708C18.0425 10.453 19.5749 12.3141 21.4651 12.3141Z" fill="#FF2D3B"/>
<path d="M15.0007 18.6614C15.0001 18.5214 14.9995 18.622 15.0007 18.6614V18.6614Z" fill="#FF2D3B"/>
<path d="M27.9292 18.7708C27.931 18.7324 27.9298 18.5049 27.9292 18.7708V18.7708Z" fill="#FF2D3B"/>
<path d="M27.9218 18.4935C27.8584 14.4941 27.3361 13.3544 23.339 12.6331C23.339 12.6331 22.7763 13.35 21.4649 13.35C20.1535 13.35 19.5907 12.6331 19.5907 12.6331C15.6373 13.3466 15.0832 14.4693 15.0103 18.3636C15.0043 18.6816 15.0016 18.6983 15.0005 18.6614C15.0007 18.7306 15.001 18.8585 15.001 19.0816C15.001 19.0816 15.9526 21 21.4649 21C26.9771 21 27.9288 19.0816 27.9288 19.0816C27.9288 18.9383 27.9289 18.8386 27.929 18.7708C27.928 18.7936 27.9258 18.7494 27.9218 18.4935Z" fill="#FF2D3B"/>
<path d="M10.1273 11.7376C12.7957 11.7376 14.959 9.11006 14.959 5.86882C14.959 2.62752 14.2488 0 10.1273 0C6.00581 0 5.29541 2.62752 5.29541 5.86882C5.29541 9.11006 7.45877 11.7376 10.1273 11.7376Z" fill="#FF2D3B"/>
<path d="M1.00095 20.6985C1.00013 20.5009 0.999304 20.6428 1.00095 20.6985V20.6985Z" fill="#FF2D3B"/>
<path d="M19.2529 20.8529C19.2555 20.7988 19.2538 20.4775 19.2529 20.8529V20.8529Z" fill="#FF2D3B"/>
<path d="M12.7727 12.1879C18.4157 13.2063 19.1531 14.8152 19.2426 20.4615L19.2524 21.2917C19.2524 21.2917 17.9088 24 10.127 24C2.34492 24 1.00146 21.2917 1.00146 21.2917L1.01456 20.2781C1.11742 14.7802 1.89968 13.1952 7.48105 12.1879C7.48105 12.1879 8.27552 13.2 10.127 13.2C11.9784 13.2 12.7727 12.1879 12.7727 12.1879Z" fill="#FF2D3B" stroke="white"/>
</svg>
