<svg width="30" height="30" viewBox="0 0 30 30" fill="none" xmlns="http://www.w3.org/2000/svg">
<path fill-rule="evenodd" clip-rule="evenodd" d="M15 30C23.2843 30 30 23.2843 30 15C30 6.71573 23.2843 0 15 0C6.71573 0 0 6.71573 0 15C0 23.2843 6.71573 30 15 30Z" fill="#FF2D3B"/>
<path fill-rule="evenodd" clip-rule="evenodd" d="M23.079 13.7786L20.6005 11.3373V8.51714C20.6005 8.00721 20.181 7.59396 19.6626 7.59396C19.1454 7.59396 18.7259 8.00721 18.7259 8.51714V9.49072L16.8805 7.67288C15.9681 6.77464 14.3817 6.77623 13.4714 7.6745L7.27437 13.7786C6.90854 14.1397 6.90854 14.7239 7.27437 15.0844C7.64036 15.4454 8.23462 15.4454 8.60048 15.0844L14.7969 8.98014C14.9988 8.78234 15.3546 8.78234 15.5554 8.97956L21.7529 15.0844C21.9367 15.2649 22.1763 15.3547 22.4158 15.3547C22.6558 15.3547 22.8958 15.2648 23.079 15.0844C23.445 14.724 23.445 14.1397 23.079 13.7786Z" fill="white"/>
<path fill-rule="evenodd" clip-rule="evenodd" d="M15.5021 10.7325C15.3221 10.5553 15.0306 10.5553 14.8511 10.7325L9.40011 16.1003C9.31405 16.185 9.26526 16.3007 9.26526 16.4214V20.3365C9.26526 21.2552 10.0215 22 10.9541 22H13.6529V17.8831H16.6997V22H19.3985C20.3311 22 21.0873 21.2552 21.0873 20.3365V16.4214C21.0873 16.3007 21.039 16.185 20.9525 16.1003L15.5021 10.7325Z" fill="white"/>
</svg>
