<svg width="20" height="20" viewBox="0 0 20 20" fill="none" xmlns="http://www.w3.org/2000/svg">
<g clip-path="url(#clip0)">
<path d="M4.56291 12.9648C5.33477 12.9648 6.01015 12.6633 6.49256 12.1608L13.3428 16.2814C13.2463 16.4824 13.2463 16.7839 13.2463 16.9849C13.2463 18.6935 14.5006 20 16.1408 20C17.781 20 19.0353 18.6935 19.0353 16.9849C19.0353 15.2764 17.781 13.9698 16.1408 13.9698C15.3689 13.9698 14.6936 14.2714 14.2112 14.7739L7.3609 10.6533C7.45739 10.4523 7.45739 10.1508 7.45739 9.94975C7.45739 9.74874 7.45739 9.44724 7.3609 9.24623L14.2112 5.02513C14.6936 5.52764 15.3689 5.82915 16.1408 5.82915C17.6845 5.82915 18.9388 4.52261 18.9388 2.91457C18.9388 1.30653 17.6845 -1.18087e-07 16.1408 -2.53043e-07C14.5971 -3.87999e-07 13.3428 1.30653 13.3428 2.91457C13.3428 3.11558 13.3428 3.31658 13.4393 3.61809L6.58904 7.8392C6.10663 7.33668 5.43126 7.03518 4.6594 7.03518C3.01919 7.03517 1.76492 8.34171 1.76492 10.0503C1.76492 11.7588 2.92271 12.9648 4.56291 12.9648Z" fill="#A0AABB"/>
</g>
<defs>
<clipPath id="clip0">
<rect x="20" y="20" width="19.2" height="20" transform="rotate(-180 20 20)" fill="white"/>
</clipPath>
</defs>
</svg>
