<svg width="167" height="38" viewBox="0 0 167 38" fill="none" xmlns="http://www.w3.org/2000/svg">
<path d="M48.6471 6.53397V8.99997H47.6211V2.64597H49.7811C50.5131 2.64597 51.0621 2.81997 51.4281 3.16797C51.8001 3.51597 51.9861 3.99297 51.9861 4.59897C51.9861 5.19897 51.7971 5.67297 51.4191 6.02097C51.0411 6.36297 50.4951 6.53397 49.7811 6.53397H48.6471ZM49.6731 5.69697C50.5191 5.69697 50.9421 5.33097 50.9421 4.59897C50.9421 4.23897 50.8401 3.96597 50.6361 3.77997C50.4381 3.58797 50.1171 3.49197 49.6731 3.49197H48.6471V5.69697H49.6731Z" fill="#C1C1C1"/>
<path d="M55.1537 3.97797C55.6337 3.97797 56.0657 4.07997 56.4497 4.28397C56.8337 4.48797 57.1337 4.78197 57.3497 5.16597C57.5657 5.54997 57.6737 5.99997 57.6737 6.51597C57.6737 7.03797 57.5657 7.49097 57.3497 7.87497C57.1337 8.25897 56.8337 8.55297 56.4497 8.75697C56.0657 8.96097 55.6337 9.06297 55.1537 9.06297C54.6737 9.06297 54.2417 8.96097 53.8577 8.75697C53.4797 8.55297 53.1797 8.25897 52.9577 7.87497C52.7417 7.48497 52.6337 7.03197 52.6337 6.51597C52.6337 5.99997 52.7417 5.54997 52.9577 5.16597C53.1797 4.78197 53.4797 4.48797 53.8577 4.28397C54.2417 4.07997 54.6737 3.97797 55.1537 3.97797ZM55.1537 4.86897C54.8897 4.86897 54.6467 4.92897 54.4247 5.04897C54.2027 5.16897 54.0227 5.35497 53.8847 5.60697C53.7527 5.85297 53.6867 6.15597 53.6867 6.51597C53.6867 6.88197 53.7527 7.18797 53.8847 7.43397C54.0227 7.67997 54.2027 7.86297 54.4247 7.98297C54.6467 8.10297 54.8897 8.16297 55.1537 8.16297C55.4177 8.16297 55.6607 8.10297 55.8827 7.98297C56.1047 7.86297 56.2817 7.67997 56.4137 7.43397C56.5517 7.18797 56.6207 6.88197 56.6207 6.51597C56.6207 6.15597 56.5517 5.85297 56.4137 5.60697C56.2817 5.35497 56.1047 5.16897 55.8827 5.04897C55.6607 4.92897 55.4177 4.86897 55.1537 4.86897Z" fill="#C1C1C1"/>
<path d="M65.6082 4.04097L64.2312 8.99997H63.0972L61.8732 5.16597L60.6312 8.99997H59.5062L58.1292 4.04097H59.1642L60.1092 8.05497L61.3512 4.04097H62.4312L63.6912 8.05497L64.6362 4.04097H65.6082Z" fill="#C1C1C1"/>
<path d="M70.9146 6.28197C70.9146 6.44997 70.9026 6.59697 70.8786 6.72297H67.0626C67.0806 7.23297 67.2216 7.61097 67.4856 7.85697C67.7496 8.10297 68.0766 8.22597 68.4666 8.22597C68.8086 8.22597 69.0966 8.13897 69.3306 7.96497C69.5706 7.79097 69.7176 7.55997 69.7716 7.27197H70.8696C70.8036 7.61997 70.6656 7.92897 70.4556 8.19897C70.2456 8.46897 69.9726 8.68197 69.6366 8.83797C69.3006 8.98797 68.9256 9.06297 68.5116 9.06297C68.0316 9.06297 67.6056 8.96097 67.2336 8.75697C66.8676 8.55297 66.5796 8.25897 66.3696 7.87497C66.1596 7.49097 66.0546 7.03797 66.0546 6.51597C66.0546 5.99997 66.1596 5.54997 66.3696 5.16597C66.5796 4.78197 66.8676 4.48797 67.2336 4.28397C67.6056 4.07997 68.0316 3.97797 68.5116 3.97797C68.9976 3.97797 69.4206 4.07997 69.7806 4.28397C70.1466 4.48197 70.4256 4.75797 70.6176 5.11197C70.8156 5.45997 70.9146 5.84997 70.9146 6.28197ZM69.8796 6.25497C69.8916 5.93097 69.8346 5.66097 69.7086 5.44497C69.5886 5.22297 69.4206 5.06097 69.2046 4.95897C68.9946 4.85097 68.7636 4.79697 68.5116 4.79697C68.1096 4.79697 67.7736 4.91997 67.5036 5.16597C67.2336 5.41197 67.0866 5.77497 67.0626 6.25497H69.8796Z" fill="#C1C1C1"/>
<path d="M72.9313 5.01297C73.0993 4.68897 73.3393 4.43397 73.6513 4.24797C73.9633 4.05597 74.3233 3.95997 74.7313 3.95997V5.07597H74.4253C73.9753 5.07597 73.6123 5.18697 73.3363 5.40897C73.0663 5.62497 72.9313 5.98497 72.9313 6.48897V8.99997H71.9053V4.04097H72.9313V5.01297Z" fill="#C1C1C1"/>
<path d="M80.108 6.28197C80.108 6.44997 80.096 6.59697 80.072 6.72297H76.256C76.274 7.23297 76.415 7.61097 76.679 7.85697C76.943 8.10297 77.27 8.22597 77.66 8.22597C78.002 8.22597 78.29 8.13897 78.524 7.96497C78.764 7.79097 78.911 7.55997 78.965 7.27197H80.063C79.997 7.61997 79.859 7.92897 79.649 8.19897C79.439 8.46897 79.166 8.68197 78.83 8.83797C78.494 8.98797 78.119 9.06297 77.705 9.06297C77.225 9.06297 76.799 8.96097 76.427 8.75697C76.061 8.55297 75.773 8.25897 75.563 7.87497C75.353 7.49097 75.248 7.03797 75.248 6.51597C75.248 5.99997 75.353 5.54997 75.563 5.16597C75.773 4.78197 76.061 4.48797 76.427 4.28397C76.799 4.07997 77.225 3.97797 77.705 3.97797C78.191 3.97797 78.614 4.07997 78.974 4.28397C79.34 4.48197 79.619 4.75797 79.811 5.11197C80.009 5.45997 80.108 5.84997 80.108 6.28197ZM79.073 6.25497C79.085 5.93097 79.028 5.66097 78.902 5.44497C78.782 5.22297 78.614 5.06097 78.398 4.95897C78.188 4.85097 77.957 4.79697 77.705 4.79697C77.303 4.79697 76.967 4.91997 76.697 5.16597C76.427 5.41197 76.28 5.77497 76.256 6.25497H79.073Z" fill="#C1C1C1"/>
<path d="M83.0876 3.97797C83.5376 3.97797 83.9216 4.08897 84.2396 4.31097C84.5576 4.53297 84.7796 4.82697 84.9056 5.19297V2.33997H85.9406V8.99997H84.9056V7.84797C84.7796 8.21397 84.5576 8.50797 84.2396 8.72997C83.9216 8.95197 83.5376 9.06297 83.0876 9.06297C82.6556 9.06297 82.2686 8.96097 81.9266 8.75697C81.5906 8.55297 81.3266 8.25897 81.1346 7.87497C80.9426 7.49097 80.8466 7.03797 80.8466 6.51597C80.8466 5.99997 80.9426 5.54997 81.1346 5.16597C81.3266 4.78197 81.5906 4.48797 81.9266 4.28397C82.2686 4.07997 82.6556 3.97797 83.0876 3.97797ZM83.4026 4.87796C82.9466 4.87796 82.5806 5.02497 82.3046 5.31897C82.0346 5.60697 81.8996 6.00597 81.8996 6.51597C81.8996 7.02597 82.0346 7.42797 82.3046 7.72197C82.5806 8.00997 82.9466 8.15397 83.4026 8.15397C83.6906 8.15397 83.9486 8.08797 84.1766 7.95597C84.4046 7.81797 84.5846 7.62597 84.7166 7.37997C84.8486 7.13397 84.9146 6.84597 84.9146 6.51597C84.9146 6.19197 84.8486 5.90697 84.7166 5.66097C84.5846 5.40897 84.4046 5.21697 84.1766 5.08497C83.9486 4.94697 83.6906 4.87796 83.4026 4.87796Z" fill="#C1C1C1"/>
<path d="M92.1253 3.97797C92.5573 3.97797 92.9413 4.07997 93.2773 4.28397C93.6193 4.48797 93.8863 4.78197 94.0783 5.16597C94.2703 5.54997 94.3663 5.99997 94.3663 6.51597C94.3663 7.03797 94.2703 7.49097 94.0783 7.87497C93.8863 8.25897 93.6193 8.55297 93.2773 8.75697C92.9413 8.96097 92.5573 9.06297 92.1253 9.06297C91.6753 9.06297 91.2913 8.95197 90.9733 8.72997C90.6553 8.50797 90.4333 8.21397 90.3073 7.84797V8.99997H89.2812V2.33997H90.3073V5.19297C90.4333 4.82697 90.6553 4.53297 90.9733 4.31097C91.2913 4.08897 91.6753 3.97797 92.1253 3.97797ZM91.8103 4.87796C91.5223 4.87796 91.2643 4.94697 91.0363 5.08497C90.8083 5.21697 90.6283 5.40897 90.4963 5.66097C90.3643 5.90697 90.2983 6.19197 90.2983 6.51597C90.2983 6.84597 90.3643 7.13397 90.4963 7.37997C90.6283 7.62597 90.8083 7.81797 91.0363 7.95597C91.2643 8.08797 91.5223 8.15397 91.8103 8.15397C92.2663 8.15397 92.6323 8.00997 92.9083 7.72197C93.1843 7.42797 93.3223 7.02597 93.3223 6.51597C93.3223 6.01197 93.1843 5.61297 92.9083 5.31897C92.6323 5.02497 92.2663 4.87796 91.8103 4.87796Z" fill="#C1C1C1"/>
<path d="M95.9395 4.04097L97.4245 7.68597L98.8015 4.04097H99.9445L96.9475 11.358H95.8045L96.8755 8.88297L94.7875 4.04097H95.9395Z" fill="#C1C1C1"/>
<path fill-rule="evenodd" clip-rule="evenodd" d="M155.651 29.2717C155.651 30.9916 155.977 32.2869 156.629 33.1573C157.283 34.028 158.259 34.4628 159.557 34.4628C162.161 34.4628 163.464 32.7327 163.464 29.2717C163.464 25.8041 162.169 24.0697 159.579 24.0697C158.279 24.0697 157.3 24.507 156.64 25.3805C155.981 26.2548 155.651 27.5518 155.651 29.2717ZM166.886 29.2717C166.886 31.82 166.254 33.7788 164.991 35.1475C163.727 36.5165 161.916 37.2009 159.557 37.2009C157.198 37.2009 155.387 36.5165 154.124 35.1475C152.86 33.7788 152.228 31.8133 152.228 29.2505C152.228 26.6882 152.862 24.7315 154.129 23.3797C155.396 22.0287 157.212 21.3528 159.579 21.3528C161.944 21.3528 163.754 22.034 165.007 23.396C166.26 24.758 166.886 26.7164 166.886 29.2717ZM55.94 34.1843C55.3573 34.3876 54.7852 34.4893 54.2236 34.4893C52.9951 34.4893 52.0439 34.0276 51.3701 33.1047C50.6964 32.1817 50.3589 30.8953 50.3589 29.2453H50.3614C50.3738 27.6397 50.7087 26.3815 51.3701 25.4755C52.0439 24.5525 52.9951 24.0909 54.2236 24.0909C54.7852 24.0909 55.3573 24.1925 55.94 24.3962C56.5224 24.5998 57.1015 24.8388 57.6775 25.112L58.7304 22.4585C57.2212 21.7357 55.7187 21.374 54.2236 21.374C52.7561 21.374 51.4767 21.6951 50.3854 22.3375C49.2938 22.9798 48.4566 23.9031 47.8739 25.107C47.2996 26.2936 47.0095 27.6736 47.0014 29.2453H47.0007C47.0007 29.249 47.0005 29.2524 47.0004 29.2558L47.0004 29.2558C47.0002 29.2593 47 29.2627 47 29.2664C47 30.8674 47.2912 32.2693 47.8739 33.4731C48.4566 34.677 49.2938 35.6003 50.3854 36.2427C51.4767 36.885 52.7561 37.2062 54.2236 37.2062C55.7187 37.2062 57.2212 36.8448 58.7304 36.122L57.6775 33.4682C57.1015 33.7417 56.5224 33.9803 55.94 34.1843ZM85.5002 28.4292H86.553C87.585 28.4292 88.3463 28.2573 88.8383 27.9132C89.3296 27.5691 89.5753 27.0287 89.5753 26.2914C89.5753 25.5615 89.324 25.042 88.8224 24.7332C88.3202 24.4244 87.543 24.2701 86.4902 24.2701H85.5002V28.4292ZM85.5002 31.0829V36.9901H82.2358V21.5955H86.7214C88.8136 21.5955 90.3613 21.976 91.3654 22.7377C92.3691 23.4993 92.871 24.6559 92.871 26.2078C92.871 27.1131 92.6218 27.9185 92.1238 28.624C91.6251 29.3295 90.9193 29.8826 90.0073 30.2825C92.3236 33.7434 93.8324 35.9797 94.5351 36.9901H90.9126L87.2377 31.0829H85.5002ZM104.105 24.27C107.025 24.27 108.485 25.9232 108.485 29.2295C108.485 32.6061 106.913 34.2946 103.768 34.2946H102.368V24.27H104.105ZM109.712 34.9683C111.155 33.6205 111.876 31.6796 111.876 29.1452C111.876 26.7656 111.182 24.9123 109.791 23.5856C108.401 22.2589 106.45 21.5954 103.936 21.5954H99.1033V36.9903H103.463C106.186 36.9903 108.27 36.3162 109.712 34.9683ZM143.595 36.9904L137.003 25.5272V36.9904H134.086V21.5955H138.203L144.827 33.0166L144.806 21.5955H147.744V36.9904H143.595ZM68.1217 30.588L70.0554 24.3971L71.9885 30.588H68.1217ZM67.2665 33.3258H72.8437L73.9777 36.9904H73.9879H77.4947H77.5046L72.051 21.5323H72.0404H68.0592H68.049L65.302 29.3481L62.6055 36.9904H62.6154H66.1222H66.1325L67.2665 33.3258ZM122.1 24.3971L120.166 30.588H124.033L122.1 24.3971ZM120.093 21.5323H120.104H124.085H124.095L129.549 36.9904H129.539H126.032H126.022L125.615 35.6559L124.888 33.3258H119.311L118.587 35.645L118.177 36.9904H118.167H114.66H114.65L117.346 29.3481L120.093 21.5323Z" fill="#C1C1C1"/>
<path fill-rule="evenodd" clip-rule="evenodd" d="M19 38C29.4934 38 38 29.4934 38 19C38 8.50659 29.4934 0 19 0C8.50659 0 0 8.50659 0 19C0 29.4934 8.50659 38 19 38Z" fill="#C1C1C1"/>
<path fill-rule="evenodd" clip-rule="evenodd" d="M19.7048 6.92603C19.6807 7.35265 19.3153 7.67866 18.8886 7.65446C18.462 7.63026 18.136 7.26463 18.1599 6.83812C18.1845 6.4115 18.5499 6.08549 18.9765 6.1098C19.4031 6.134 19.7289 6.49963 19.7048 6.92603ZM5.00106 19.002C5.01983 18.6669 5.30721 18.4106 5.64202 18.4297C5.97726 18.4489 6.23317 18.7356 6.21439 19.0711C6.1954 19.4059 5.90791 19.6625 5.57256 19.6434C5.23786 19.6244 4.98141 19.337 5.00106 19.002ZM15.0563 16.0208C15.3777 16.6584 16.0213 17.0551 16.7366 17.0551C17.0274 17.0551 17.3197 16.9852 17.5812 16.8538C18.5069 16.387 18.8806 15.2543 18.4142 14.3285C18.0927 13.6901 17.449 13.2941 16.7338 13.2941C16.4431 13.2941 16.1508 13.364 15.8894 13.4952C14.9636 13.9618 14.5898 15.0946 15.0563 16.0208ZM14.8551 10.0663C15.0885 10.5295 14.9022 11.0945 14.4388 11.3275C13.9755 11.5611 13.411 11.3746 13.1776 10.9116C12.9439 10.4484 13.1304 9.88341 13.5936 9.64997C14.0566 9.41697 14.6215 9.60309 14.8551 10.0663ZM8.12362 24.402C7.74237 24.5941 7.58913 25.0595 7.78144 25.441C7.97364 25.8224 8.43878 25.9756 8.82015 25.7835C9.2014 25.5913 9.35519 25.126 9.16266 24.7443C8.97057 24.3633 8.50564 24.2098 8.12362 24.402ZM12.8006 7.18532C12.9517 7.48507 12.8309 7.85048 12.5315 8.00155C12.2315 8.15273 11.8663 8.03216 11.7153 7.73241C11.5642 7.43266 11.6848 7.06724 11.9842 6.91617C12.2842 6.765 12.6493 6.88568 12.8006 7.18532ZM8.02103 13.6144C8.37852 13.8488 8.85799 13.749 9.09241 13.3917C9.32629 13.0347 9.22666 12.5552 8.8696 12.3211C8.51201 12.0867 8.03264 12.1862 7.79833 12.5437C7.56402 12.9008 7.66398 13.3802 8.02103 13.6144ZM20.046 11.4806C20.0111 12.0898 19.4891 12.5557 18.8798 12.5213C18.2704 12.4862 17.8045 11.9642 17.839 11.3549C17.8739 10.7453 18.3959 10.2798 19.0049 10.3143C19.6145 10.3489 20.0804 10.8711 20.046 11.4806ZM23.4971 17.1205C22.4561 17.0599 21.5718 17.8605 21.5135 18.8906C21.4547 19.9255 22.2487 20.8155 23.2834 20.8743C23.3195 20.8764 23.3559 20.8775 23.3918 20.8775C24.3867 20.8775 25.2107 20.0986 25.2671 19.1044C25.2959 18.6026 25.1273 18.12 24.7928 17.7458C24.4589 17.3708 23.9986 17.1487 23.4971 17.1205ZM26.1179 7.76286C25.9339 8.0434 25.5567 8.12176 25.2763 7.93791C24.9957 7.75353 24.9171 7.37694 25.1013 7.09607C25.2856 6.81553 25.6625 6.73706 25.9429 6.92145C26.2235 7.10529 26.3016 7.48199 26.1179 7.76286ZM25.0263 14.2113C24.4813 14.4858 24.2623 15.1503 24.5367 15.6952C24.8114 16.2404 25.4757 16.4593 26.0208 16.1849C26.5658 15.9102 26.7849 15.2456 26.5105 14.7007C26.2358 14.1558 25.5712 13.9367 25.0263 14.2113ZM30.1372 12.5733C30.3295 12.955 30.1758 13.4202 29.7945 13.6124C29.4127 13.8043 28.948 13.651 28.7558 13.2695C28.5633 12.8882 28.7167 12.4229 29.0983 12.2308C29.4798 12.0387 29.9447 12.1918 30.1372 12.5733ZM19.5943 14.1336C19.0256 15.0008 19.2683 16.1681 20.135 16.7368C20.4425 16.9385 20.7985 17.0452 21.1648 17.0452C21.8018 17.0452 22.3897 16.7276 22.7386 16.1958C23.307 15.329 23.0643 14.1607 22.1974 13.5929C21.89 13.3911 21.5341 13.2844 21.1679 13.2844C20.5311 13.2844 19.943 13.6021 19.5943 14.1336ZM24.6499 10.9821C24.3656 11.416 23.7834 11.5372 23.3495 11.2528C22.9159 10.9683 22.7947 10.3859 23.0793 9.95222C23.3636 9.518 23.9462 9.3971 24.3797 9.68166C24.8136 9.96644 24.9345 10.5487 24.6499 10.9821ZM12.6508 18.9101C12.5923 19.9452 13.3865 20.835 14.4211 20.8942C14.4574 20.896 14.4935 20.8973 14.5295 20.8973C15.5244 20.8973 16.3483 20.1183 16.4052 19.1236C16.464 18.0888 15.6699 17.1987 14.6347 17.1398C13.5936 17.0791 12.7096 17.8794 12.6508 18.9101ZM8.17278 18.9755C8.2023 18.4575 8.64618 18.0615 9.16396 18.0912C9.68196 18.1205 10.0778 18.564 10.0485 19.0822C10.0193 19.6002 9.57517 19.9962 9.05717 19.9669C8.5395 19.9369 8.14327 19.4936 8.17278 18.9755ZM25.387 30.0127C25.0873 30.1635 24.9669 30.529 25.1179 30.8289C25.2686 31.1283 25.634 31.249 25.9343 31.098C26.2336 30.9468 26.3545 30.5816 26.2033 30.2818C26.0523 29.9823 25.6869 29.8616 25.387 30.0127ZM23.0636 27.948C22.8299 27.4846 23.0165 26.9202 23.4793 26.6863C23.9431 26.4531 24.5077 26.6391 24.7411 27.1027C24.9741 27.5658 24.7883 28.1308 24.3248 28.3638C23.8616 28.5973 23.2966 28.4115 23.0636 27.948ZM22.8623 21.9938C22.5408 21.3554 21.8968 20.9592 21.182 20.9592C20.8909 20.9592 20.5985 21.0285 20.337 21.1605C19.8889 21.3867 19.5553 21.7737 19.398 22.251C19.2406 22.7276 19.2783 23.2372 19.5045 23.6857C19.8259 24.3239 20.4696 24.7201 21.1842 24.7201C21.4756 24.7201 21.7676 24.6507 22.0293 24.5185C22.955 24.0525 23.3288 22.9195 22.8623 21.9938ZM31.7039 18.9431C31.7233 18.608 32.0101 18.3519 32.3455 18.3709C32.6808 18.3896 32.9371 18.6771 32.9176 19.0123C32.8987 19.3473 32.6114 19.6037 32.2766 19.5846C31.9411 19.5658 31.6848 19.2783 31.7039 18.9431ZM29.8972 24.3996C29.5399 24.1653 29.0599 24.2652 28.8263 24.6223C28.5919 24.9793 28.6915 25.459 29.049 25.6935C29.406 25.9275 29.8853 25.828 30.1203 25.4705C30.354 25.1133 30.2546 24.634 29.8972 24.3996ZM28.8609 18.0473C29.3788 18.0769 29.7753 18.5209 29.7456 19.0389C29.7162 19.5566 29.2724 19.9531 28.7545 19.9234C28.2361 19.8938 27.8401 19.4502 27.8696 18.9324C27.8994 18.4142 28.343 18.018 28.8609 18.0473ZM26.1459 21.8631C25.636 21.5288 24.9505 21.6713 24.616 22.1811C24.2814 22.6915 24.4242 23.3768 24.9341 23.7114C25.4444 24.0458 26.1294 23.9038 26.4642 23.393C26.7988 22.8831 26.6567 22.1978 26.1459 21.8631ZM11.8007 30.2514C11.9848 29.9708 12.3617 29.8924 12.6423 30.0766C12.9229 30.2607 13.0011 30.6371 12.8166 30.9181C12.633 31.1983 12.2561 31.2775 11.9756 31.0928C11.695 30.9089 11.6165 30.5323 11.8007 30.2514ZM12.892 23.8032C13.4372 23.5285 13.6564 22.864 13.3819 22.3191C13.1073 21.7741 12.4427 21.5548 11.8978 21.8296C11.3529 22.1041 11.1338 22.7684 11.4082 23.3135C11.6828 23.8584 12.3471 24.0776 12.892 23.8032ZM13.3022 15.8326C12.9679 16.3434 12.2826 16.4858 11.7722 16.151C11.2619 15.8164 11.1194 15.1316 11.4544 14.6208C11.789 14.111 12.4738 13.9684 12.9841 14.3032C13.4944 14.6375 13.637 15.3228 13.3022 15.8326ZM18.9503 30.3596C18.5239 30.3353 18.1585 30.6616 18.1341 31.088C18.1098 31.5149 18.4357 31.8803 18.8624 31.9045C19.2891 31.9285 19.6546 31.6028 19.6787 31.1759C19.7027 30.7495 19.377 30.3836 18.9503 30.3596ZM17.7931 26.5334C17.8276 25.9243 18.3501 25.4587 18.9591 25.493C19.5686 25.5276 20.0346 26.05 19.9998 26.6593C19.9652 27.2687 19.4432 27.7346 18.8336 27.6998C18.2241 27.6652 17.7585 27.1427 17.7931 26.5334ZM14.5689 26.7617C14.135 26.477 13.5531 26.5983 13.2685 27.0317C12.984 27.4656 13.1049 28.0478 13.5385 28.3325C13.9724 28.6167 14.555 28.496 14.8394 28.0621C15.1239 27.6282 15.0024 27.046 14.5689 26.7617ZM18.593 22.4668C18.6955 22.9582 18.5999 23.4604 18.3243 23.8803C17.9756 24.4122 17.3875 24.7296 16.7508 24.7296C16.3845 24.7296 16.0285 24.6233 15.7213 24.4214C15.3013 24.1461 15.0136 23.7237 14.9115 23.2323C14.8089 22.7406 14.9043 22.2383 15.1796 21.8186C15.5286 21.2865 16.1169 20.969 16.7532 20.969C17.1197 20.969 17.4759 21.0757 17.7831 21.2775C18.2032 21.5528 18.4906 21.9752 18.593 22.4668Z" fill="white"/>
</svg>
