<svg width="126" height="35" viewBox="0 0 126 35" fill="none" xmlns="http://www.w3.org/2000/svg">
<path fill-rule="evenodd" clip-rule="evenodd" d="M24.5361 28.582L27.0819 33.4237H37.0349L34.4891 28.582H24.5361Z" fill="#C1C1C1"/>
<path fill-rule="evenodd" clip-rule="evenodd" d="M3.14456 28.582L0.5 33.4237H21.8916L24.5361 28.582H3.14456Z" fill="#C1C1C1"/>
<path fill-rule="evenodd" clip-rule="evenodd" d="M18.2866 0.5L15.8831 5.3417H20.6903L18.2866 0.5Z" fill="#C1C1C1"/>
<path fill-rule="evenodd" clip-rule="evenodd" d="M23.8952 10.1836H13.6398L11.0759 15.0253H26.4591L23.8952 10.1836Z" fill="#C1C1C1"/>
<path fill-rule="evenodd" clip-rule="evenodd" d="M28.6702 18.8984H7.90305L5.30713 23.7401H31.2662L28.6702 18.8984Z" fill="#C1C1C1"/>
<path fill-rule="evenodd" clip-rule="evenodd" d="M48.004 22.56H50.7741C51.3695 22.56 51.8708 22.3537 52.2782 21.9411C52.6849 21.5285 52.8887 20.9977 52.8887 20.3494C52.8887 19.7008 52.6849 19.1753 52.2782 18.7724C51.8708 18.3699 51.3695 18.1682 50.7741 18.1682H48.004V22.56ZM42.6726 13.1279H50.7741C52.8784 13.1279 54.6457 13.8059 56.0754 15.1617C57.5053 16.5176 58.2202 18.2469 58.2202 20.3494C58.2202 22.4521 57.5053 24.1811 56.0754 25.5369C54.6457 26.8928 52.8784 27.5708 50.7741 27.5708H48.0039V33.7606H42.6726V13.1279Z" fill="#C1C1C1"/>
<path fill-rule="evenodd" clip-rule="evenodd" d="M68.5845 17.992H65.6359V22.6195H68.5845C69.2399 22.6395 69.7758 22.433 70.1929 22.0006C70.6098 21.5687 70.8185 21.0084 70.8185 20.3206C70.8185 19.6329 70.6098 19.0727 70.1929 18.6403C69.7758 18.2084 69.2399 17.992 68.5845 17.992V17.992ZM76.8943 33.761H71.1758L67.5423 27.0996H65.636V33.761H60.3047V13.1284H68.6443C70.7687 13.1284 72.546 13.8064 73.9754 15.1622C75.4249 16.479 76.1497 18.1788 76.1497 20.2615C76.1497 21.48 75.832 22.6099 75.1967 23.651C74.5611 24.6928 73.6973 25.518 72.6055 26.127L76.8943 33.761Z" fill="#C1C1C1"/>
<path fill-rule="evenodd" clip-rule="evenodd" d="M78.7708 33.7606H84.1023V13.1279H78.7708V33.7606Z" fill="#C1C1C1"/>
<path fill-rule="evenodd" clip-rule="evenodd" d="M94.4962 34.2029C92.3319 34.2029 90.5202 33.751 89.061 32.847C87.6011 31.9434 86.5737 30.6856 85.9783 29.0741L90.535 26.4509C91.3094 28.2784 92.6796 29.1921 94.6452 29.1921C96.2733 29.1921 97.0876 28.7305 97.0876 27.8067C97.0876 27.2172 96.6207 26.7264 95.6877 26.333C95.37 26.2152 94.4962 25.9498 93.0667 25.5372C91.0414 24.9675 89.5023 24.1716 88.4502 23.1498C87.3975 22.1282 86.8716 20.7724 86.8716 19.0821C86.8716 17.1762 87.5567 15.6335 88.9267 14.4546C90.3364 13.2755 92.0637 12.686 94.1092 12.686C95.8562 12.686 97.4051 13.094 98.7555 13.9093C100.105 14.7248 101.138 15.8892 101.853 17.4021L97.3855 19.9958C96.7302 18.463 95.6477 17.6969 94.139 17.6969C93.5232 17.6969 93.0468 17.8197 92.7093 18.0651C92.3716 18.3114 92.2029 18.64 92.2029 19.0526C92.2029 19.505 92.446 19.8881 92.9326 20.2021C93.4188 20.5167 94.367 20.8801 95.7771 21.2927C96.8292 21.6073 97.6433 21.8823 98.2194 22.1181C98.8747 22.3936 99.5496 22.7666 100.245 23.2381C101.694 24.1812 102.419 25.6846 102.419 27.7478C102.419 29.7719 101.694 31.3539 100.245 32.4933C98.795 33.6333 96.8791 34.2029 94.4962 34.2029" fill="#C1C1C1"/>
<path fill-rule="evenodd" clip-rule="evenodd" d="M120.319 13.1279H125.621V33.7606H120.319V22.6483L115.256 30.9311H114.72L109.686 22.6779V33.7606H104.355V13.1279H109.686L114.988 21.9411L120.319 13.1279Z" fill="#C1C1C1"/>
<path fill-rule="evenodd" clip-rule="evenodd" d="M55.4647 0.806641H50.7859V1.69815H52.6567V8.48882H53.5939V1.69815H55.4647V0.806641Z" fill="#C1C1C1"/>
<path fill-rule="evenodd" clip-rule="evenodd" d="M65.8237 0.806641H64.8865V8.48882H67.6945V7.59731H65.8237V0.806641Z" fill="#C1C1C1"/>
<path fill-rule="evenodd" clip-rule="evenodd" d="M42.7378 8.48882H48.3472L47.8071 7.52371H44.3598L47.0376 2.73935L50.2557 8.48882H51.3375L47.0376 0.806641L42.7378 8.48882Z" fill="#C1C1C1"/>
<path fill-rule="evenodd" clip-rule="evenodd" d="M54.9675 8.48882H60.577L60.0368 7.52371H56.5896L59.2674 2.73935L62.4855 8.48882H63.5673L59.2674 0.806641L54.9675 8.48882Z" fill="#C1C1C1"/>
<path fill-rule="evenodd" clip-rule="evenodd" d="M76.5314 8.48882H77.6131L73.3133 0.806641L69.0134 8.48882H74.6229L74.0827 7.52371H70.6355L73.3133 2.73935L76.5314 8.48882Z" fill="#C1C1C1"/>
</svg>
