<svg width="113" height="19" viewBox="0 0 113 19" fill="none" xmlns="http://www.w3.org/2000/svg">
<path d="M15.9099 10.6349C14.118 10.096 12.4096 10.588 10.7013 11.0215C9.97255 11.1972 9.24381 11.3847 8.50313 11.5135C7.53546 11.6775 7.10539 11.3612 6.54391 10.588C5.15812 8.66667 3.70065 6.7922 2.27902 4.90601C1.72948 4.19137 1.15605 3.48844 0.630401 2.76208C0.391472 2.43405 0.200327 2.04744 0.0808627 1.67255C-0.14612 0.96962 0.104756 0.571295 0.833491 0.348702C2.80466 -0.295648 4.70415 -0.00276173 6.54391 0.864181C8.61065 1.82485 10.3309 3.2307 11.8481 4.87086C13.1742 6.28843 14.4047 7.79972 15.6232 9.31102C15.8741 9.62733 15.9219 10.1077 16.0653 10.5177C16.0175 10.5529 15.9577 10.588 15.9099 10.6349Z" fill="#F8F9F9"/>
<path d="M16.7701 10.506C16.6984 9.95539 16.9134 9.47505 17.2838 8.99472C19.231 6.51105 21.2619 4.10938 23.8543 2.23491C25.4193 1.09851 27.1157 0.161277 29.0988 0.0558377C30.0904 0.0089759 31.1058 0.231569 32.0854 0.407301C32.623 0.501025 32.8381 0.969642 32.6708 1.44998C32.4438 2.05918 32.1691 2.69181 31.7748 3.20729C30.6758 4.63658 29.4692 5.99557 28.3581 7.42485C27.5697 8.4441 26.8409 9.52192 26.148 10.6115C25.6582 11.3612 25.2043 11.6658 24.2963 11.5135C23.5557 11.3964 22.8269 11.1972 22.0862 11.0332C21.3336 10.8575 20.5929 10.5997 19.8284 10.5294C18.8249 10.4474 17.8213 10.506 16.7701 10.506Z" fill="#F8F9F9"/>
<path d="M24.7024 14.5712C23.9737 15.0164 24.141 15.6725 24.3202 16.3637C24.129 16.3637 23.9737 16.3754 23.8184 16.3637C23.3525 16.3051 23.1255 16.434 23.1136 16.9494C23.1136 17.1603 22.8269 17.4766 22.6118 17.5352C22.122 17.6875 21.8592 17.9335 21.8711 18.5076C21.3694 18.203 20.9274 18.0741 20.4734 18.4959C20.4137 18.5545 20.0553 18.4139 19.9478 18.2733C19.4579 17.6524 18.992 17.0314 18.562 16.3754C17.8332 15.2858 17.1403 14.1729 16.3758 12.9662C15.7904 13.8331 15.2647 14.6181 14.7391 15.403C14.1059 16.3402 13.4728 17.2892 12.8276 18.2147C12.6246 18.5076 12.3976 18.6365 11.9914 18.3787C11.7286 18.2147 11.2746 18.3436 10.8684 18.3436C10.8445 17.8984 10.5459 17.6289 10.0083 17.5118C9.84103 17.4766 9.59015 17.1837 9.6021 17.0314C9.64989 16.352 9.2676 16.3051 8.74195 16.3637C8.64638 16.3754 8.55081 16.3637 8.40745 16.3637C8.58665 15.6607 8.7539 14.9812 8.03711 14.5595C8.12073 14.3369 8.27604 14.1143 8.22825 14.0323C7.7265 13.3528 8.65833 12.931 8.56275 12.2867C8.53886 12.0758 9.18397 11.6072 9.5782 11.5252C11.3702 11.1503 13.1502 10.5645 15.0377 10.7403C15.6112 10.7988 16.1607 10.834 16.3519 11.5955C16.5788 10.7285 17.2598 10.7871 17.9049 10.7285C19.3385 10.6114 20.7004 11.0097 22.0742 11.2792C22.7791 11.4197 23.5078 11.4549 23.9498 12.1227C24.0573 12.2867 24.129 12.4859 24.2007 12.6733C24.2365 12.767 24.2246 12.8959 24.2843 12.9428C24.6547 13.2708 24.7383 13.6223 24.4635 14.0674C24.4277 14.1494 24.5949 14.3486 24.7024 14.5712Z" fill="#F8F9F9"/>
<path d="M112.559 17.8967C112.105 17.8967 111.71 17.9318 111.328 17.8733C111.173 17.8498 110.982 17.6507 110.91 17.4867C110.492 16.5611 110.098 15.6239 109.739 14.675C109.608 14.3469 109.441 14.2415 109.094 14.2532C107.505 14.2649 105.904 14.2649 104.316 14.2649C104.124 14.2649 103.921 14.2649 103.67 14.2649C103.802 13.89 103.862 13.5503 104.029 13.2808C104.124 13.1285 104.411 13.0348 104.602 13.0348C106.072 13.0114 107.541 13.0231 109.118 13.0231C107.923 10.1294 106.765 7.31766 105.546 4.36536C105.403 4.70511 105.307 4.90427 105.223 5.11515C104.196 7.61054 103.181 10.0942 102.153 12.5896C101.532 14.1243 100.875 15.6473 100.302 17.2055C100.098 17.7561 99.8356 18.0139 99.2383 17.9084C99.0352 17.8733 98.8202 17.9084 98.5334 17.9084C98.629 17.6507 98.6768 17.4632 98.7485 17.2992C100.66 12.7185 102.571 8.14945 104.459 3.56871C104.638 3.13524 104.853 2.93608 105.331 3.01809C105.486 3.04152 105.654 3.04152 105.809 3.01809C106.239 2.95951 106.43 3.13524 106.585 3.53357C107.756 6.39213 108.951 9.22727 110.145 12.0741C110.886 13.8432 111.615 15.6122 112.344 17.3695C112.415 17.5101 112.475 17.6741 112.559 17.8967Z" fill="#F8F9F9"/>
<path d="M51.7988 14.2766C51.9302 13.9017 51.99 13.562 52.1572 13.2925C52.2528 13.1519 52.5395 13.0465 52.7426 13.0465C54.212 13.0231 55.6814 13.0348 57.2584 13.0348C56.0637 10.1411 54.9049 7.32937 53.6864 4.37708C53.543 4.71683 53.4475 4.91599 53.3638 5.12687C52.3364 7.62226 51.321 10.1059 50.2936 12.6013C49.6724 14.136 49.0153 15.659 48.4419 17.2172C48.2388 17.7678 47.964 18.0139 47.3786 17.9201C47.1755 17.885 46.9605 17.9201 46.6499 17.9201C46.9008 17.3109 47.1158 16.7954 47.3309 16.28C49.0989 12.0507 50.867 7.8097 52.6112 3.56871C52.7904 3.13524 53.0174 2.93608 53.4833 3.01809C53.6386 3.04152 53.8058 3.04152 53.9611 3.01809C54.3912 2.95951 54.5824 3.14696 54.7377 3.53357C55.9921 6.57958 57.2703 9.6256 58.5367 12.6716C59.1937 14.2415 59.8388 15.8114 60.4959 17.3812C60.5556 17.5335 60.6153 17.6975 60.699 17.9201C60.3047 17.9201 59.9702 17.8967 59.6477 17.9318C59.3012 17.967 59.1579 17.8147 59.0384 17.5218C58.6561 16.5846 58.238 15.659 57.8796 14.7101C57.7482 14.3704 57.569 14.2883 57.2225 14.2883C55.6337 14.3001 54.0328 14.3001 52.4439 14.3001C52.2528 14.2766 52.0617 14.2766 51.7988 14.2766Z" fill="#F8F9F9"/>
<path d="M84.9264 17.8325C84.8786 17.8677 84.8666 17.8794 84.8547 17.8794C83.5167 17.9966 83.5167 17.9966 83.003 16.7899C82.7043 16.0869 82.3937 15.3957 82.1309 14.6811C82.0114 14.3413 81.8203 14.2593 81.4738 14.2593C79.8849 14.271 78.2841 14.271 76.6952 14.271C76.5041 14.271 76.3129 14.271 76.0501 14.271C76.1815 13.8844 76.2413 13.5447 76.4085 13.2752C76.5041 13.1346 76.7908 13.0292 76.9939 13.0292C78.4633 13.0058 79.9327 13.0175 81.5097 13.0175C80.315 10.1238 79.1562 7.31207 77.9496 4.38321C77.7824 4.73467 77.6748 4.98069 77.5673 5.22672C76.5638 7.66353 75.5603 10.1003 74.5688 12.5372C73.9236 14.107 73.2785 15.6769 72.6812 17.2585C72.4901 17.774 72.2392 17.9848 71.7016 17.9028C71.4866 17.8677 71.2715 17.9028 70.949 17.9028C71.0207 17.6802 71.0565 17.5045 71.1282 17.3405C73.0516 12.7246 74.9869 8.12043 76.8983 3.50455C77.0656 3.10622 77.2687 2.98907 77.6868 3.00079C78.7739 3.02422 78.7739 3.00078 79.1682 3.96145C80.3509 6.78487 81.5216 9.62001 82.7043 12.4434C83.3853 14.0836 84.0782 15.7238 84.7591 17.3639C84.8188 17.5162 84.8786 17.6802 84.9264 17.8325Z" fill="#F8F9F9"/>
<path d="M66.5646 17.82C66.0748 17.82 65.6686 17.82 65.1788 17.82C65.1788 13.2862 65.1788 8.75228 65.1788 4.17154C63.5183 4.17154 61.9294 4.17154 60.2927 4.17154C60.2927 3.77322 60.2927 3.41004 60.2927 3C63.9842 3 67.6995 3 71.4507 3C71.4507 3.35146 71.4507 3.71464 71.4507 4.12468C69.8499 4.12468 68.2491 4.12468 66.5646 4.12468C66.5646 8.71714 66.5646 13.251 66.5646 17.82Z" fill="#F8F9F9"/>
<path d="M87.7576 3C88.1637 3 88.558 3 89 3C89 7.54559 89 12.0677 89 16.6602C91.4729 16.6602 93.8861 16.6602 96.3471 16.6602C96.3471 17.082 96.3471 17.4451 96.3471 17.8317C93.4799 17.8317 90.6486 17.8317 87.7576 17.8317C87.7576 12.923 87.7576 8.00249 87.7576 3Z" fill="#F8F9F9"/>
</svg>
