<svg width="175" height="45" viewBox="0 0 175 45" fill="none" xmlns="http://www.w3.org/2000/svg">
<path d="M22.3255 0C10.0038 0 0 10.082 0 22.5C0 34.918 10.0038 45 22.3255 45C34.6472 45 44.6509 34.918 44.6509 22.5C44.6509 10.082 34.6472 0 22.3255 0ZM14.843 34.1393L12.708 35.3893V28.0738L14.843 26.8238L12.708 25.5738V9.63115L14.843 10.8607V34.1393ZM19.1129 31.6393L16.9779 32.8893V12.1107L19.1129 13.3607V31.6393ZM23.4031 29.1598L21.2682 30.4098V14.5902L23.4031 15.8402V29.1598ZM27.673 29.1598L25.5381 27.9303V17.0902L27.673 15.8402V29.1598ZM31.9429 24.3238L29.808 25.5738L31.9429 26.8238V31.6598L29.808 30.4303V25.5943V14.5902L31.9429 13.3607V24.3238Z" fill="white"/>
<path d="M103.637 12.2745H88.7327V15.0409H94.6902V36.2089H97.6791V15.0409H103.637V12.2745Z" fill="white"/>
<path d="M136.596 12.2745H133.627V36.2089H142.554V33.4221H136.596V12.2745Z" fill="white"/>
<path d="M63.1133 36.2089H80.9655L79.2576 33.1967H68.2778L76.7973 18.2991L87.0451 36.2089H90.4813L76.7973 12.2745L63.1133 36.2089Z" fill="white"/>
<path d="M102.051 36.2089H119.903L118.174 33.1967H107.215L115.735 18.2991L125.982 36.2089H129.418L115.735 12.2745L102.051 36.2089Z" fill="white"/>
<path d="M170.694 36.2089H174.13L160.446 12.2745L146.762 36.2089H164.615L162.907 33.1967H151.927L160.446 18.2991L170.694 36.2089Z" fill="white"/>
</svg>
