<svg width="603" height="525" viewBox="0 0 603 525" fill="none" xmlns="http://www.w3.org/2000/svg">
<circle cx="186.5" cy="186.5" r="186.5" fill="#F1F1F1"/>
<circle cx="502" cy="281" r="83" fill="#40EAEA"/>
<circle r="26.5" transform="matrix(1 0 0 -1 576.5 405.5)" fill="#40EAEA"/>
<rect x="170" y="471" width="148" height="43" rx="21.5" fill="white" stroke="#FF2D3B" stroke-width="2"/>
<g filter="url(#filter0_d)">
<rect x="334" y="470" width="150" height="45" rx="22.5" fill="#FF2D3B"/>
</g>
<path d="M217.992 486.727V498H222.109C225.484 498 227.469 495.906 227.469 492.336C227.469 488.766 225.477 486.727 222.109 486.727H217.992ZM220.008 488.43H221.898C224.148 488.43 225.414 489.82 225.414 492.344C225.414 494.914 224.164 496.297 221.898 496.297H220.008V488.43ZM232.445 491.055C233.562 491.055 234.312 491.875 234.352 493.047H230.484C230.562 491.891 231.352 491.055 232.445 491.055ZM234.359 495.523C234.148 496.211 233.461 496.664 232.555 496.664C231.281 496.664 230.469 495.773 230.469 494.445V494.328H236.258V493.695C236.258 491.18 234.789 489.547 232.438 489.547C230.047 489.547 228.531 491.273 228.531 493.891C228.531 496.531 230.031 498.164 232.516 498.164C234.477 498.164 235.93 497.086 236.18 495.523H234.359ZM244.812 492.672C244.68 490.93 243.328 489.547 241.141 489.547C238.734 489.547 237.172 491.211 237.172 493.859C237.172 496.547 238.734 498.164 241.156 498.164C243.234 498.164 244.664 496.945 244.82 495.094H242.984C242.805 496.031 242.164 496.594 241.18 496.594C239.945 496.594 239.148 495.594 239.148 493.859C239.148 492.156 239.938 491.125 241.164 491.125C242.203 491.125 242.82 491.789 242.977 492.672H244.812ZM246.039 498H247.984V486.727H246.039V498ZM249.688 498H251.633V489.719H249.688V498ZM250.648 488.469C251.25 488.469 251.719 487.992 251.719 487.414C251.719 486.828 251.25 486.359 250.648 486.359C250.062 486.359 249.586 486.828 249.586 487.414C249.586 487.992 250.062 488.469 250.648 488.469ZM253.266 498H255.211V493.203C255.211 492.016 255.922 491.211 257.039 491.211C258.148 491.211 258.695 491.867 258.695 493.039V498H260.641V492.648C260.641 490.734 259.602 489.562 257.773 489.562C256.5 489.562 255.617 490.156 255.172 491.141H255.133V489.719H253.266V498ZM265.773 491.055C266.891 491.055 267.641 491.875 267.68 493.047H263.812C263.891 491.891 264.68 491.055 265.773 491.055ZM267.688 495.523C267.477 496.211 266.789 496.664 265.883 496.664C264.609 496.664 263.797 495.773 263.797 494.445V494.328H269.586V493.695C269.586 491.18 268.117 489.547 265.766 489.547C263.375 489.547 261.859 491.273 261.859 493.891C261.859 496.531 263.359 498.164 265.844 498.164C267.805 498.164 269.258 497.086 269.508 495.523H267.688Z" fill="#FF2D3B"/>
<path d="M385.852 498.188C388.516 498.188 390.359 496.727 390.711 494.312H388.734C388.422 495.672 387.352 496.477 385.859 496.477C383.906 496.477 382.672 494.891 382.672 492.359C382.672 489.844 383.914 488.25 385.852 488.25C387.312 488.25 388.461 489.18 388.727 490.594H390.711C390.461 488.172 388.469 486.539 385.852 486.539C382.648 486.539 380.609 488.766 380.609 492.359C380.609 495.977 382.633 498.188 385.852 498.188ZM395.711 498.164C398.141 498.164 399.719 496.547 399.719 493.859C399.719 491.18 398.125 489.547 395.711 489.547C393.297 489.547 391.703 491.188 391.703 493.859C391.703 496.547 393.281 498.164 395.711 498.164ZM395.711 496.625C394.477 496.625 393.68 495.625 393.68 493.859C393.68 492.102 394.484 491.094 395.711 491.094C396.945 491.094 397.742 492.102 397.742 493.859C397.742 495.625 396.945 496.625 395.711 496.625ZM400.969 498H402.914V493.203C402.914 492.016 403.625 491.211 404.742 491.211C405.852 491.211 406.398 491.867 406.398 493.039V498H408.344V492.648C408.344 490.734 407.305 489.562 405.477 489.562C404.203 489.562 403.32 490.156 402.875 491.141H402.836V489.719H400.969V498ZM410.445 498H412.391V491.219H414.016V489.742H412.359V489.062C412.359 488.391 412.695 488.039 413.438 488.039C413.664 488.039 413.891 488.062 414.055 488.086V486.727C413.812 486.68 413.391 486.641 413.008 486.641C411.211 486.641 410.445 487.398 410.445 489.008V489.742H409.312V491.219H410.445V498ZM415.344 498H417.289V489.719H415.344V498ZM416.305 488.469C416.906 488.469 417.375 487.992 417.375 487.414C417.375 486.828 416.906 486.359 416.305 486.359C415.719 486.359 415.242 486.828 415.242 487.414C415.242 487.992 415.719 488.469 416.305 488.469ZM418.922 498H420.867V493.18C420.867 492.016 421.531 491.305 422.633 491.305C422.961 491.305 423.258 491.352 423.422 491.414V489.656C423.281 489.625 423.062 489.578 422.812 489.578C421.836 489.578 421.109 490.156 420.828 491.164H420.789V489.719H418.922V498ZM424.422 498H426.367V492.93C426.367 491.93 427.023 491.203 427.961 491.203C428.867 491.203 429.43 491.773 429.43 492.695V498H431.32V492.883C431.32 491.891 431.961 491.203 432.898 491.203C433.852 491.203 434.383 491.781 434.383 492.797V498H436.328V492.32C436.328 490.664 435.258 489.562 433.625 489.562C432.43 489.562 431.445 490.203 431.047 491.227H431C430.695 490.164 429.859 489.562 428.688 489.562C427.562 489.562 426.688 490.195 426.328 491.156H426.289V489.719H424.422V498Z" fill="white"/>
<g filter="url(#filter1_d)">
<rect x="176" y="76" width="301" height="236" rx="6" fill="#495EA1" fill-opacity="0.05"/>
<rect x="176" y="76" width="301" height="236" rx="6" fill="#77869E" fill-opacity="0.2"/>
</g>
<g filter="url(#filter2_d)">
<rect x="168" y="91" width="316" height="351" rx="6" fill="#3C393A"/>
</g>
<path opacity="0.7" d="M189.591 191.659H188.8V195.82C188.8 197.174 189.745 198.149 191.318 198.149C192.891 198.149 193.836 197.174 193.836 195.82V191.659H193.045V195.768C193.045 196.726 192.417 197.42 191.318 197.42C190.219 197.42 189.591 196.726 189.591 195.768V191.659ZM195.348 198H196.104V195.196C196.104 194.366 196.591 193.86 197.347 193.86C198.103 193.86 198.463 194.265 198.463 195.117V198H199.219V194.933C199.219 193.808 198.626 193.179 197.562 193.179C196.837 193.179 196.376 193.487 196.139 194.01H196.068V193.263H195.348V198ZM200.621 198H201.377V193.263H200.621V198ZM200.999 192.349C201.289 192.349 201.526 192.111 201.526 191.821C201.526 191.531 201.289 191.294 200.999 191.294C200.709 191.294 200.472 191.531 200.472 191.821C200.472 192.111 200.709 192.349 200.999 192.349ZM206.686 193.263H205.877L204.581 197.165H204.51L203.214 193.263H202.405L204.159 198H204.932L206.686 193.263ZM209.41 193.847C210.162 193.847 210.663 194.401 210.68 195.24H208.07C208.127 194.401 208.654 193.847 209.41 193.847ZM210.658 196.774C210.46 197.191 210.047 197.416 209.437 197.416C208.632 197.416 208.109 196.822 208.07 195.886V195.851H211.476V195.561C211.476 194.089 210.698 193.179 209.419 193.179C208.118 193.179 207.283 194.146 207.283 195.636C207.283 197.134 208.105 198.083 209.419 198.083C210.456 198.083 211.194 197.583 211.414 196.774H210.658ZM212.662 198H213.418V195.064C213.418 194.396 213.941 193.913 214.662 193.913C214.811 193.913 215.083 193.939 215.145 193.957V193.201C215.048 193.188 214.89 193.179 214.767 193.179C214.139 193.179 213.594 193.504 213.453 193.966H213.383V193.263H212.662V198ZM215.892 194.559C215.892 195.245 216.296 195.627 217.184 195.842L217.997 196.04C218.502 196.163 218.749 196.383 218.749 196.708C218.749 197.143 218.292 197.446 217.654 197.446C217.048 197.446 216.67 197.191 216.542 196.792H215.765C215.848 197.578 216.573 198.083 217.628 198.083C218.705 198.083 219.526 197.499 219.526 196.651C219.526 195.97 219.096 195.583 218.204 195.368L217.474 195.192C216.916 195.056 216.652 194.854 216.652 194.528C216.652 194.106 217.092 193.821 217.654 193.821C218.226 193.821 218.595 194.071 218.696 194.449H219.443C219.342 193.671 218.652 193.179 217.659 193.179C216.652 193.179 215.892 193.772 215.892 194.559ZM220.73 198H221.486V193.263H220.73V198ZM221.108 192.349C221.398 192.349 221.636 192.111 221.636 191.821C221.636 191.531 221.398 191.294 221.108 191.294C220.818 191.294 220.581 191.531 220.581 191.821C220.581 192.111 220.818 192.349 221.108 192.349ZM223.244 192.037V193.263H222.479V193.896H223.244V196.77C223.244 197.675 223.635 198.035 224.611 198.035C224.76 198.035 224.905 198.018 225.055 197.991V197.354C224.914 197.367 224.839 197.372 224.703 197.372C224.211 197.372 224 197.134 224 196.576V193.896H225.055V193.263H224V192.037H223.244ZM226.602 199.714C227.441 199.714 227.819 199.389 228.223 198.29L230.073 193.263H229.269L227.973 197.161H227.902L226.602 193.263H225.784L227.538 198.004L227.45 198.286C227.252 198.857 227.015 199.063 226.58 199.063C226.474 199.063 226.355 199.059 226.263 199.042V199.688C226.369 199.705 226.5 199.714 226.602 199.714ZM234.503 198V193.083H234.573L238.014 198H238.783V191.659H238.001V196.594H237.931L234.49 191.659H233.721V198H234.503ZM241.763 197.42C241.213 197.42 240.805 197.139 240.805 196.655C240.805 196.181 241.121 195.93 241.842 195.882L243.116 195.798V196.233C243.116 196.91 242.541 197.42 241.763 197.42ZM241.622 198.083C242.255 198.083 242.773 197.807 243.081 197.301H243.151V198H243.872V194.757C243.872 193.772 243.226 193.179 242.07 193.179C241.06 193.179 240.312 193.68 240.211 194.44H240.976C241.082 194.067 241.477 193.852 242.044 193.852C242.751 193.852 243.116 194.172 243.116 194.757V195.188L241.75 195.271C240.646 195.337 240.022 195.825 240.022 196.673C240.022 197.539 240.704 198.083 241.622 198.083ZM245.27 198H246.025V195.064C246.025 194.396 246.504 193.86 247.124 193.86C247.722 193.86 248.113 194.221 248.113 194.783V198H248.869V194.955C248.869 194.353 249.308 193.86 249.967 193.86C250.635 193.86 250.965 194.203 250.965 194.902V198H251.721V194.726C251.721 193.733 251.18 193.179 250.213 193.179C249.559 193.179 249.018 193.509 248.763 194.01H248.693C248.473 193.518 248.025 193.179 247.383 193.179C246.75 193.179 246.276 193.482 246.061 194.01H245.99V193.263H245.27V198ZM254.99 193.847C255.742 193.847 256.243 194.401 256.26 195.24H253.65C253.707 194.401 254.234 193.847 254.99 193.847ZM256.238 196.774C256.041 197.191 255.627 197.416 255.017 197.416C254.212 197.416 253.689 196.822 253.65 195.886V195.851H257.056V195.561C257.056 194.089 256.278 193.179 254.999 193.179C253.698 193.179 252.863 194.146 252.863 195.636C252.863 197.134 253.685 198.083 254.999 198.083C256.036 198.083 256.774 197.583 256.994 196.774H256.238Z" fill="white"/>
<path d="M190.632 222V217.974H194.768V216.538H190.632V213.626H195.157V212.136H188.868V222H190.632ZM196.271 222H197.974V217.782C197.974 216.764 198.555 216.142 199.519 216.142C199.806 216.142 200.065 216.183 200.209 216.237V214.699C200.086 214.672 199.895 214.631 199.676 214.631C198.821 214.631 198.186 215.137 197.939 216.019H197.905V214.754H196.271V222ZM203.935 215.923C204.912 215.923 205.568 216.641 205.603 217.666H202.219C202.287 216.654 202.978 215.923 203.935 215.923ZM205.609 219.833C205.425 220.435 204.823 220.831 204.03 220.831C202.916 220.831 202.205 220.052 202.205 218.89V218.787H207.271V218.233C207.271 216.032 205.985 214.604 203.928 214.604C201.836 214.604 200.51 216.114 200.51 218.404C200.51 220.715 201.822 222.144 203.996 222.144C205.712 222.144 206.983 221.2 207.202 219.833H205.609ZM211.495 215.923C212.473 215.923 213.129 216.641 213.163 217.666H209.779C209.848 216.654 210.538 215.923 211.495 215.923ZM213.17 219.833C212.985 220.435 212.384 220.831 211.591 220.831C210.477 220.831 209.766 220.052 209.766 218.89V218.787H214.831V218.233C214.831 216.032 213.546 214.604 211.488 214.604C209.396 214.604 208.07 216.114 208.07 218.404C208.07 220.715 209.383 222.144 211.557 222.144C213.272 222.144 214.544 221.2 214.763 219.833H213.17ZM220.669 212.136H218.905V218.521C218.905 220.674 220.464 222.164 222.959 222.164C225.461 222.164 227.013 220.674 227.013 218.521V212.136H225.256V218.363C225.256 219.71 224.422 220.626 222.959 220.626C221.496 220.626 220.669 219.71 220.669 218.363V212.136ZM228.592 222H230.294V217.803C230.294 216.764 230.916 216.06 231.894 216.06C232.864 216.06 233.343 216.634 233.343 217.659V222H235.045V217.317C235.045 215.643 234.136 214.617 232.536 214.617C231.422 214.617 230.649 215.137 230.26 215.998H230.226V214.754H228.592V222ZM236.453 222H238.155V214.754H236.453V222ZM237.294 213.66C237.82 213.66 238.23 213.243 238.23 212.737C238.23 212.225 237.82 211.814 237.294 211.814C236.781 211.814 236.364 212.225 236.364 212.737C236.364 213.243 236.781 213.66 237.294 213.66ZM245.962 214.754H244.185L242.503 220.421H242.469L240.787 214.754H238.969L241.539 222H243.412L245.962 214.754ZM249.667 215.923C250.645 215.923 251.301 216.641 251.335 217.666H247.951C248.02 216.654 248.71 215.923 249.667 215.923ZM251.342 219.833C251.157 220.435 250.556 220.831 249.763 220.831C248.648 220.831 247.938 220.052 247.938 218.89V218.787H253.003V218.233C253.003 216.032 251.718 214.604 249.66 214.604C247.568 214.604 246.242 216.114 246.242 218.404C246.242 220.715 247.555 222.144 249.729 222.144C251.444 222.144 252.716 221.2 252.935 219.833H251.342ZM254.104 222H255.806V217.782C255.806 216.764 256.387 216.142 257.351 216.142C257.638 216.142 257.897 216.183 258.041 216.237V214.699C257.918 214.672 257.727 214.631 257.508 214.631C256.653 214.631 256.018 215.137 255.771 216.019H255.737V214.754H254.104V222ZM258.786 216.832C258.786 217.905 259.483 218.589 260.871 218.896L262.074 219.163C262.833 219.334 263.093 219.58 263.093 220.018C263.093 220.558 262.58 220.899 261.753 220.899C260.892 220.899 260.406 220.544 260.276 219.84H258.602C258.738 221.241 259.859 222.144 261.753 222.144C263.53 222.144 264.788 221.221 264.788 219.854C264.788 218.801 264.207 218.22 262.703 217.885L261.5 217.618C260.741 217.447 260.44 217.16 260.44 216.743C260.44 216.21 260.939 215.854 261.691 215.854C262.478 215.854 262.963 216.271 263.031 216.928H264.617C264.576 215.554 263.455 214.604 261.691 214.604C259.941 214.604 258.786 215.506 258.786 216.832ZM265.916 222H267.618V214.754H265.916V222ZM266.757 213.66C267.283 213.66 267.693 213.243 267.693 212.737C267.693 212.225 267.283 211.814 266.757 211.814C266.244 211.814 265.827 212.225 265.827 212.737C265.827 213.243 266.244 213.66 266.757 213.66ZM269.519 213.059V214.754H268.479V216.066H269.519V220.072C269.519 221.48 270.134 222.034 271.699 222.034C272.062 222.034 272.396 222.007 272.581 221.966V220.667C272.472 220.688 272.253 220.701 272.096 220.701C271.494 220.701 271.221 220.428 271.221 219.833V216.066H272.588V214.754H271.221V213.059H269.519ZM274.563 224.693C276.218 224.693 277.018 224.085 277.633 222.287L280.258 214.754H278.467L276.758 220.551H276.724L275.021 214.754H273.162L275.739 222.007C275.746 222.027 275.637 222.39 275.637 222.41C275.452 223.08 275.09 223.347 274.386 223.347C274.283 223.347 273.982 223.34 273.894 223.319V224.666C273.982 224.687 274.461 224.693 274.563 224.693ZM288.208 222V213.626H291.154V212.136H283.498V213.626H286.451V222H288.208ZM296.247 222.116C298.079 222.116 299.234 220.694 299.234 218.377C299.234 216.06 298.072 214.631 296.247 214.631C295.222 214.631 294.395 215.15 293.984 215.998H293.943V212.136H292.241V222H293.909V220.763H293.943C294.367 221.604 295.181 222.116 296.247 222.116ZM295.721 216.032C296.808 216.032 297.491 216.941 297.491 218.377C297.491 219.819 296.814 220.722 295.721 220.722C294.668 220.722 293.937 219.799 293.937 218.377C293.937 216.969 294.668 216.032 295.721 216.032ZM300.383 222H302.085V214.754H300.383V222ZM301.224 213.66C301.75 213.66 302.16 213.243 302.16 212.737C302.16 212.225 301.75 211.814 301.224 211.814C300.711 211.814 300.294 212.225 300.294 212.737C300.294 213.243 300.711 213.66 301.224 213.66ZM303.562 222H305.264V212.136H303.562V222ZM306.754 222H308.456V214.754H306.754V222ZM307.595 213.66C308.121 213.66 308.531 213.243 308.531 212.737C308.531 212.225 308.121 211.814 307.595 211.814C307.082 211.814 306.665 212.225 306.665 212.737C306.665 213.243 307.082 213.66 307.595 213.66ZM309.755 216.832C309.755 217.905 310.452 218.589 311.84 218.896L313.043 219.163C313.802 219.334 314.062 219.58 314.062 220.018C314.062 220.558 313.549 220.899 312.722 220.899C311.86 220.899 311.375 220.544 311.245 219.84H309.57C309.707 221.241 310.828 222.144 312.722 222.144C314.499 222.144 315.757 221.221 315.757 219.854C315.757 218.801 315.176 218.22 313.672 217.885L312.469 217.618C311.71 217.447 311.409 217.16 311.409 216.743C311.409 216.21 311.908 215.854 312.66 215.854C313.446 215.854 313.932 216.271 314 216.928H315.586C315.545 215.554 314.424 214.604 312.66 214.604C310.91 214.604 309.755 215.506 309.755 216.832ZM316.885 222H318.587V214.754H316.885V222ZM317.726 213.66C318.252 213.66 318.662 213.243 318.662 212.737C318.662 212.225 318.252 211.814 317.726 211.814C317.213 211.814 316.796 212.225 316.796 212.737C316.796 213.243 317.213 213.66 317.726 213.66Z" fill="white"/>
<path opacity="0.7" d="M192.931 260H193.761L191.423 253.659H190.641L188.303 260H189.134L189.771 258.185H192.293L192.931 260ZM190.997 254.683H191.067L192.061 257.513H190.004L190.997 254.683ZM200.12 255.263H199.36L198.428 259.051H198.358L197.299 255.263H196.574L195.515 259.051H195.444L194.513 255.263H193.748L195.075 260H195.84L196.895 256.335H196.965L198.024 260H198.793L200.12 255.263ZM202.458 259.42C201.909 259.42 201.5 259.139 201.5 258.655C201.5 258.181 201.816 257.93 202.537 257.882L203.812 257.798V258.233C203.812 258.91 203.236 259.42 202.458 259.42ZM202.317 260.083C202.95 260.083 203.469 259.807 203.776 259.301H203.847V260H204.567V256.757C204.567 255.772 203.921 255.179 202.766 255.179C201.755 255.179 201.008 255.68 200.907 256.44H201.671C201.777 256.067 202.172 255.852 202.739 255.852C203.447 255.852 203.812 256.172 203.812 256.757V257.188L202.445 257.271C201.342 257.337 200.718 257.825 200.718 258.673C200.718 259.539 201.399 260.083 202.317 260.083ZM205.965 260H206.721V257.064C206.721 256.396 207.244 255.913 207.964 255.913C208.114 255.913 208.386 255.939 208.448 255.957V255.201C208.351 255.188 208.193 255.179 208.07 255.179C207.441 255.179 206.896 255.504 206.756 255.966H206.686V255.263H205.965V260ZM211.014 260.083C211.669 260.083 212.231 259.771 212.53 259.244H212.601V260H213.321V253.382H212.565V256.01H212.5C212.231 255.491 211.673 255.179 211.014 255.179C209.81 255.179 209.023 256.146 209.023 257.631C209.023 259.121 209.801 260.083 211.014 260.083ZM211.19 255.86C212.047 255.86 212.583 256.546 212.583 257.631C212.583 258.726 212.051 259.402 211.19 259.402C210.324 259.402 209.806 258.739 209.806 257.631C209.806 256.528 210.329 255.86 211.19 255.86Z" fill="white"/>
<path d="M190.632 284V279.974H194.768V278.538H190.632V275.626H195.157V274.136H188.868V284H190.632ZM196.312 284H198.015V276.754H196.312V284ZM197.153 275.66C197.68 275.66 198.09 275.243 198.09 274.737C198.09 274.225 197.68 273.814 197.153 273.814C196.641 273.814 196.224 274.225 196.224 274.737C196.224 275.243 196.641 275.66 197.153 275.66ZM199.443 284H201.146V279.782C201.146 278.764 201.727 278.142 202.69 278.142C202.978 278.142 203.237 278.183 203.381 278.237V276.699C203.258 276.672 203.066 276.631 202.848 276.631C201.993 276.631 201.357 277.137 201.111 278.019H201.077V276.754H199.443V284ZM204.126 278.832C204.126 279.905 204.823 280.589 206.211 280.896L207.414 281.163C208.173 281.334 208.433 281.58 208.433 282.018C208.433 282.558 207.92 282.899 207.093 282.899C206.231 282.899 205.746 282.544 205.616 281.84H203.941C204.078 283.241 205.199 284.144 207.093 284.144C208.87 284.144 210.128 283.221 210.128 281.854C210.128 280.801 209.547 280.22 208.043 279.885L206.84 279.618C206.081 279.447 205.78 279.16 205.78 278.743C205.78 278.21 206.279 277.854 207.031 277.854C207.817 277.854 208.303 278.271 208.371 278.928H209.957C209.916 277.554 208.795 276.604 207.031 276.604C205.281 276.604 204.126 277.506 204.126 278.832ZM211.687 275.059V276.754H210.647V278.066H211.687V282.072C211.687 283.48 212.302 284.034 213.867 284.034C214.229 284.034 214.564 284.007 214.749 283.966V282.667C214.64 282.688 214.421 282.701 214.264 282.701C213.662 282.701 213.389 282.428 213.389 281.833V278.066H214.756V276.754H213.389V275.059H211.687ZM223.144 284.164C225.475 284.164 227.088 282.886 227.396 280.773H225.666C225.393 281.963 224.456 282.667 223.15 282.667C221.441 282.667 220.361 281.279 220.361 279.064C220.361 276.863 221.448 275.469 223.144 275.469C224.422 275.469 225.427 276.282 225.659 277.52H227.396C227.177 275.4 225.434 273.972 223.144 273.972C220.341 273.972 218.557 275.92 218.557 279.064C218.557 282.229 220.327 284.164 223.144 284.164ZM228.612 284H230.314V274.136H228.612V284ZM234.409 282.831C233.671 282.831 233.179 282.455 233.179 281.86C233.179 281.286 233.65 280.917 234.471 280.862L236.146 280.76V281.313C236.146 282.188 235.373 282.831 234.409 282.831ZM233.896 284.116C234.826 284.116 235.735 283.631 236.152 282.845H236.187V284H237.827V279.01C237.827 277.554 236.658 276.604 234.86 276.604C233.015 276.604 231.859 277.574 231.784 278.928H233.363C233.473 278.326 233.985 277.937 234.792 277.937C235.633 277.937 236.146 278.374 236.146 279.133V279.652L234.231 279.762C232.468 279.871 231.477 280.644 231.477 281.929C231.477 283.234 232.495 284.116 233.896 284.116ZM239.071 278.832C239.071 279.905 239.769 280.589 241.156 280.896L242.359 281.163C243.118 281.334 243.378 281.58 243.378 282.018C243.378 282.558 242.865 282.899 242.038 282.899C241.177 282.899 240.691 282.544 240.562 281.84H238.887C239.023 283.241 240.145 284.144 242.038 284.144C243.815 284.144 245.073 283.221 245.073 281.854C245.073 280.801 244.492 280.22 242.988 279.885L241.785 279.618C241.026 279.447 240.726 279.16 240.726 278.743C240.726 278.21 241.225 277.854 241.977 277.854C242.763 277.854 243.248 278.271 243.316 278.928H244.902C244.861 277.554 243.74 276.604 241.977 276.604C240.227 276.604 239.071 277.506 239.071 278.832ZM246.03 278.832C246.03 279.905 246.728 280.589 248.115 280.896L249.318 281.163C250.077 281.334 250.337 281.58 250.337 282.018C250.337 282.558 249.824 282.899 248.997 282.899C248.136 282.899 247.65 282.544 247.521 281.84H245.846C245.982 283.241 247.104 284.144 248.997 284.144C250.774 284.144 252.032 283.221 252.032 281.854C252.032 280.801 251.451 280.22 249.947 279.885L248.744 279.618C247.985 279.447 247.685 279.16 247.685 278.743C247.685 278.21 248.184 277.854 248.936 277.854C249.722 277.854 250.207 278.271 250.275 278.928H251.861C251.82 277.554 250.699 276.604 248.936 276.604C247.186 276.604 246.03 277.506 246.03 278.832ZM264.412 284V274.136H262.655V278.237H257.856V274.136H256.093V284H257.856V279.721H262.655V284H264.412ZM269.19 284.144C271.316 284.144 272.697 282.729 272.697 280.377C272.697 278.032 271.303 276.604 269.19 276.604C267.078 276.604 265.684 278.039 265.684 280.377C265.684 282.729 267.064 284.144 269.19 284.144ZM269.19 282.797C268.11 282.797 267.413 281.922 267.413 280.377C267.413 278.839 268.117 277.957 269.19 277.957C270.271 277.957 270.968 278.839 270.968 280.377C270.968 281.922 270.271 282.797 269.19 282.797ZM273.791 284H275.493V279.803C275.493 278.764 276.115 278.06 277.093 278.06C278.063 278.06 278.542 278.634 278.542 279.659V284H280.244V279.317C280.244 277.643 279.335 276.617 277.735 276.617C276.621 276.617 275.849 277.137 275.459 277.998H275.425V276.754H273.791V284ZM284.817 284.144C286.943 284.144 288.324 282.729 288.324 280.377C288.324 278.032 286.93 276.604 284.817 276.604C282.705 276.604 281.311 278.039 281.311 280.377C281.311 282.729 282.691 284.144 284.817 284.144ZM284.817 282.797C283.737 282.797 283.04 281.922 283.04 280.377C283.04 278.839 283.744 277.957 284.817 277.957C285.897 277.957 286.595 278.839 286.595 280.377C286.595 281.922 285.897 282.797 284.817 282.797ZM295.844 276.754H294.142V280.944C294.142 281.997 293.533 282.694 292.549 282.694C291.592 282.694 291.086 282.134 291.086 281.095V276.754H289.384V281.437C289.384 283.111 290.382 284.13 291.954 284.13C293.055 284.13 293.786 283.624 294.169 282.742H294.203V284H295.844V276.754ZM297.238 284H298.94V279.782C298.94 278.764 299.521 278.142 300.485 278.142C300.772 278.142 301.032 278.183 301.176 278.237V276.699C301.053 276.672 300.861 276.631 300.643 276.631C299.788 276.631 299.152 277.137 298.906 278.019H298.872V276.754H297.238V284ZM301.921 278.832C301.921 279.905 302.618 280.589 304.006 280.896L305.209 281.163C305.968 281.334 306.228 281.58 306.228 282.018C306.228 282.558 305.715 282.899 304.888 282.899C304.026 282.899 303.541 282.544 303.411 281.84H301.736C301.873 283.241 302.994 284.144 304.888 284.144C306.665 284.144 307.923 283.221 307.923 281.854C307.923 280.801 307.342 280.22 305.838 279.885L304.635 279.618C303.876 279.447 303.575 279.16 303.575 278.743C303.575 278.21 304.074 277.854 304.826 277.854C305.612 277.854 306.098 278.271 306.166 278.928H307.752C307.711 277.554 306.59 276.604 304.826 276.604C303.076 276.604 301.921 277.506 301.921 278.832Z" fill="white"/>
<path opacity="0.7" d="M189.6 326V323.253H192.408V322.55H189.6V320.371H192.658V319.659H188.809V326H189.6ZM197.694 321.263H196.938V324.066C196.938 324.897 196.481 325.394 195.646 325.394C194.891 325.394 194.574 324.998 194.574 324.146V321.263H193.818V324.33C193.818 325.451 194.372 326.083 195.436 326.083C196.161 326.083 196.666 325.785 196.903 325.257H196.974V326H197.694V321.263ZM199.162 326H199.918V319.382H199.162V326ZM201.43 326H202.186V319.382H201.43V326ZM207.072 326V321.083H207.143L210.583 326H211.353V319.659H210.57V324.594H210.5L207.059 319.659H206.29V326H207.072ZM214.332 325.42C213.783 325.42 213.374 325.139 213.374 324.655C213.374 324.181 213.69 323.93 214.411 323.882L215.686 323.798V324.233C215.686 324.91 215.11 325.42 214.332 325.42ZM214.191 326.083C214.824 326.083 215.343 325.807 215.65 325.301H215.721V326H216.441V322.757C216.441 321.772 215.795 321.179 214.64 321.179C213.629 321.179 212.882 321.68 212.781 322.44H213.545C213.651 322.067 214.046 321.852 214.613 321.852C215.321 321.852 215.686 322.172 215.686 322.757V323.188L214.319 323.271C213.216 323.337 212.592 323.825 212.592 324.673C212.592 325.539 213.273 326.083 214.191 326.083ZM217.839 326H218.595V323.064C218.595 322.396 219.074 321.86 219.693 321.86C220.291 321.86 220.682 322.221 220.682 322.783V326H221.438V322.955C221.438 322.353 221.877 321.86 222.537 321.86C223.205 321.86 223.534 322.203 223.534 322.902V326H224.29V322.726C224.29 321.733 223.75 321.179 222.783 321.179C222.128 321.179 221.587 321.509 221.333 322.01H221.262C221.042 321.518 220.594 321.179 219.953 321.179C219.32 321.179 218.845 321.482 218.63 322.01H218.56V321.263H217.839V326ZM227.56 321.847C228.311 321.847 228.812 322.401 228.83 323.24H226.219C226.276 322.401 226.804 321.847 227.56 321.847ZM228.808 324.774C228.61 325.191 228.197 325.416 227.586 325.416C226.782 325.416 226.259 324.822 226.219 323.886V323.851H229.625V323.561C229.625 322.089 228.847 321.179 227.568 321.179C226.268 321.179 225.433 322.146 225.433 323.636C225.433 325.134 226.254 326.083 227.568 326.083C228.605 326.083 229.344 325.583 229.563 324.774H228.808Z" fill="white"/>
<path d="M197.502 345.885V344.832H193.4V346.179H195.779L195.772 346.343C195.745 347.724 194.713 348.667 193.223 348.667C191.445 348.667 190.338 347.279 190.338 345.01C190.338 342.788 191.397 341.469 193.175 341.469C194.385 341.469 195.301 342.139 195.636 343.273H197.427C197.105 341.298 195.41 339.972 193.168 339.972C190.317 339.972 188.533 341.899 188.533 345.03C188.533 348.209 190.324 350.164 193.202 350.164C195.902 350.164 197.502 348.558 197.502 345.885ZM198.814 350H200.517V342.754H198.814V350ZM199.655 341.66C200.182 341.66 200.592 341.243 200.592 340.737C200.592 340.225 200.182 339.814 199.655 339.814C199.143 339.814 198.726 340.225 198.726 340.737C198.726 341.243 199.143 341.66 199.655 341.66ZM205.151 350.144C207.277 350.144 208.658 348.729 208.658 346.377C208.658 344.032 207.264 342.604 205.151 342.604C203.039 342.604 201.645 344.039 201.645 346.377C201.645 348.729 203.025 350.144 205.151 350.144ZM205.151 348.797C204.071 348.797 203.374 347.922 203.374 346.377C203.374 344.839 204.078 343.957 205.151 343.957C206.231 343.957 206.929 344.839 206.929 346.377C206.929 347.922 206.231 348.797 205.151 348.797ZM209.752 350H211.454V345.782C211.454 344.764 212.035 344.142 212.999 344.142C213.286 344.142 213.546 344.183 213.689 344.237V342.699C213.566 342.672 213.375 342.631 213.156 342.631C212.302 342.631 211.666 343.137 211.42 344.019H211.386V342.754H209.752V350ZM217.49 348.653C216.417 348.653 215.733 347.792 215.733 346.356C215.733 344.935 216.417 344.032 217.49 344.032C218.577 344.032 219.281 344.948 219.281 346.356C219.281 347.771 218.577 348.653 217.49 348.653ZM217.483 352.734C219.596 352.734 220.983 351.613 220.983 349.884V342.754H219.315V343.998H219.288C218.871 343.164 218.037 342.631 217.005 342.631C215.152 342.631 213.99 344.06 213.99 346.35C213.99 348.605 215.18 350.007 216.971 350.007C218.01 350.007 218.864 349.487 219.24 348.708H219.281V349.932C219.281 350.854 218.646 351.477 217.538 351.477C216.731 351.477 216.109 351.101 215.925 350.547H214.236C214.407 351.818 215.692 352.734 217.483 352.734ZM222.412 350H224.114V342.754H222.412V350ZM223.253 341.66C223.779 341.66 224.189 341.243 224.189 340.737C224.189 340.225 223.779 339.814 223.253 339.814C222.74 339.814 222.323 340.225 222.323 340.737C222.323 341.243 222.74 341.66 223.253 341.66ZM232.652 350C234.758 350 236.036 348.934 236.036 347.197C236.036 345.892 235.1 344.928 233.76 344.798V344.743C234.771 344.579 235.558 343.656 235.558 342.597C235.558 341.1 234.402 340.136 232.611 340.136H228.517V350H232.652ZM230.28 341.51H232.167C233.22 341.51 233.814 341.995 233.814 342.856C233.814 343.772 233.124 344.292 231.894 344.292H230.28V341.51ZM230.28 348.626V345.543H232.174C233.527 345.543 234.238 346.069 234.238 347.074C234.238 348.086 233.548 348.626 232.249 348.626H230.28ZM240.247 343.923C241.225 343.923 241.881 344.641 241.915 345.666H238.531C238.6 344.654 239.29 343.923 240.247 343.923ZM241.922 347.833C241.737 348.435 241.136 348.831 240.343 348.831C239.229 348.831 238.518 348.052 238.518 346.89V346.787H243.583V346.233C243.583 344.032 242.298 342.604 240.24 342.604C238.148 342.604 236.822 344.114 236.822 346.404C236.822 348.715 238.135 350.144 240.309 350.144C242.024 350.144 243.296 349.2 243.515 347.833H241.922ZM244.684 350H246.386V345.782C246.386 344.764 246.967 344.142 247.931 344.142C248.218 344.142 248.478 344.183 248.621 344.237V342.699C248.498 342.672 248.307 342.631 248.088 342.631C247.233 342.631 246.598 343.137 246.352 344.019H246.317V342.754H244.684V350ZM249.537 350H251.239V342.754H249.537V350ZM250.378 341.66C250.904 341.66 251.314 341.243 251.314 340.737C251.314 340.225 250.904 339.814 250.378 339.814C249.865 339.814 249.448 340.225 249.448 340.737C249.448 341.243 249.865 341.66 250.378 341.66ZM255.375 350.116C256.435 350.116 257.269 349.576 257.665 348.763H257.692V350H259.36V340.136H257.658V343.971H257.617C257.234 343.171 256.414 342.631 255.375 342.631C253.55 342.631 252.367 344.08 252.367 346.37C252.367 348.674 253.55 350.116 255.375 350.116ZM255.888 344.032C256.961 344.032 257.665 344.955 257.665 346.377C257.665 347.812 256.961 348.722 255.888 348.722C254.787 348.722 254.11 347.819 254.11 346.377C254.11 344.941 254.794 344.032 255.888 344.032ZM260.646 350H266.422V348.674H262.758V348.64L266.36 343.875V342.754H260.68V344.08H264.398V344.107L260.646 348.968V350ZM270.612 343.923C271.59 343.923 272.246 344.641 272.28 345.666H268.896C268.965 344.654 269.655 343.923 270.612 343.923ZM272.287 347.833C272.103 348.435 271.501 348.831 270.708 348.831C269.594 348.831 268.883 348.052 268.883 346.89V346.787H273.948V346.233C273.948 344.032 272.663 342.604 270.605 342.604C268.514 342.604 267.188 344.114 267.188 346.404C267.188 348.715 268.5 350.144 270.674 350.144C272.39 350.144 273.661 349.2 273.88 347.833H272.287Z" fill="white"/>
<rect opacity="0.2" x="188" y="301" width="272" height="1" fill="#F5F5F5"/>
<path opacity="0.7" d="M388.13 387.548V386.774H385.56V387.469H387.344V387.623C387.344 388.695 386.575 389.42 385.441 389.42C384.167 389.42 383.375 388.427 383.375 386.827C383.375 385.25 384.18 384.239 385.437 384.239C386.377 384.239 387.014 384.691 387.287 385.548H388.091C387.862 384.292 386.843 383.509 385.437 383.509C383.701 383.509 382.562 384.823 382.562 386.827C382.562 388.857 383.683 390.149 385.437 390.149C387.058 390.149 388.13 389.112 388.13 387.548ZM389.436 390H390.191V387.064C390.191 386.396 390.714 385.913 391.435 385.913C391.584 385.913 391.857 385.939 391.918 385.957V385.201C391.822 385.188 391.664 385.179 391.541 385.179C390.912 385.179 390.367 385.504 390.227 385.966H390.156V385.263H389.436V390ZM394.322 389.42C393.773 389.42 393.364 389.139 393.364 388.655C393.364 388.181 393.681 387.93 394.401 387.882L395.676 387.798V388.233C395.676 388.91 395.1 389.42 394.322 389.42ZM394.182 390.083C394.814 390.083 395.333 389.807 395.641 389.301H395.711V390H396.432V386.757C396.432 385.772 395.786 385.179 394.63 385.179C393.619 385.179 392.872 385.68 392.771 386.44H393.536C393.641 386.067 394.037 385.852 394.604 385.852C395.311 385.852 395.676 386.172 395.676 386.757V387.188L394.309 387.271C393.206 387.337 392.582 387.825 392.582 388.673C392.582 389.539 393.263 390.083 394.182 390.083ZM399.583 390.083C400.237 390.083 400.8 389.771 401.099 389.244H401.169V390H401.89V383.382H401.134V386.01H401.068C400.8 385.491 400.242 385.179 399.583 385.179C398.378 385.179 397.592 386.146 397.592 387.631C397.592 389.121 398.37 390.083 399.583 390.083ZM399.758 385.86C400.615 385.86 401.151 386.546 401.151 387.631C401.151 388.726 400.62 389.402 399.758 389.402C398.893 389.402 398.374 388.739 398.374 387.631C398.374 386.528 398.897 385.86 399.758 385.86ZM407.189 385.263H406.434V388.066C406.434 388.897 405.977 389.394 405.142 389.394C404.386 389.394 404.069 388.998 404.069 388.146V385.263H403.313V388.33C403.313 389.451 403.867 390.083 404.931 390.083C405.656 390.083 406.161 389.785 406.398 389.257H406.469V390H407.189V385.263ZM410.072 389.42C409.523 389.42 409.114 389.139 409.114 388.655C409.114 388.181 409.431 387.93 410.151 387.882L411.426 387.798V388.233C411.426 388.91 410.85 389.42 410.072 389.42ZM409.932 390.083C410.564 390.083 411.083 389.807 411.391 389.301H411.461V390H412.182V386.757C412.182 385.772 411.536 385.179 410.38 385.179C409.369 385.179 408.622 385.68 408.521 386.44H409.286C409.391 386.067 409.787 385.852 410.354 385.852C411.061 385.852 411.426 386.172 411.426 386.757V387.188L410.059 387.271C408.956 387.337 408.332 387.825 408.332 388.673C408.332 389.539 409.013 390.083 409.932 390.083ZM413.896 384.037V385.263H413.131V385.896H413.896V388.77C413.896 389.675 414.287 390.035 415.262 390.035C415.412 390.035 415.557 390.018 415.706 389.991V389.354C415.565 389.367 415.491 389.372 415.354 389.372C414.862 389.372 414.651 389.134 414.651 388.576V385.896H415.706V385.263H414.651V384.037H413.896ZM416.866 390H417.622V385.263H416.866V390ZM417.244 384.349C417.534 384.349 417.771 384.111 417.771 383.821C417.771 383.531 417.534 383.294 417.244 383.294C416.954 383.294 416.717 383.531 416.717 383.821C416.717 384.111 416.954 384.349 417.244 384.349ZM421.01 390.083C422.359 390.083 423.194 389.152 423.194 387.631C423.194 386.106 422.359 385.179 421.01 385.179C419.661 385.179 418.826 386.106 418.826 387.631C418.826 389.152 419.661 390.083 421.01 390.083ZM421.01 389.402C420.114 389.402 419.608 388.752 419.608 387.631C419.608 386.506 420.114 385.86 421.01 385.86C421.907 385.86 422.412 386.506 422.412 387.631C422.412 388.752 421.907 389.402 421.01 389.402ZM424.381 390H425.137V387.196C425.137 386.366 425.625 385.86 426.38 385.86C427.136 385.86 427.497 386.265 427.497 387.117V390H428.252V386.933C428.252 385.808 427.659 385.179 426.596 385.179C425.871 385.179 425.409 385.487 425.172 386.01H425.102V385.263H424.381V390ZM432.273 383.659V390H434.449C436.334 390 437.441 388.827 437.441 386.827C437.441 384.832 436.33 383.659 434.449 383.659H432.273ZM433.064 384.371H434.396C435.802 384.371 436.633 385.285 436.633 386.836C436.633 388.383 435.811 389.288 434.396 389.288H433.064V384.371ZM440.175 389.42C439.625 389.42 439.217 389.139 439.217 388.655C439.217 388.181 439.533 387.93 440.254 387.882L441.528 387.798V388.233C441.528 388.91 440.953 389.42 440.175 389.42ZM440.034 390.083C440.667 390.083 441.186 389.807 441.493 389.301H441.563V390H442.284V386.757C442.284 385.772 441.638 385.179 440.482 385.179C439.472 385.179 438.725 385.68 438.624 386.44H439.388C439.494 386.067 439.889 385.852 440.456 385.852C441.164 385.852 441.528 386.172 441.528 386.757V387.188L440.162 387.271C439.059 387.337 438.435 387.825 438.435 388.673C438.435 389.539 439.116 390.083 440.034 390.083ZM443.998 384.037V385.263H443.233V385.896H443.998V388.77C443.998 389.675 444.389 390.035 445.365 390.035C445.514 390.035 445.659 390.018 445.809 389.991V389.354C445.668 389.367 445.593 389.372 445.457 389.372C444.965 389.372 444.754 389.134 444.754 388.576V385.896H445.809V385.263H444.754V384.037H443.998ZM448.771 385.847C449.522 385.847 450.023 386.401 450.041 387.24H447.43C447.487 386.401 448.015 385.847 448.771 385.847ZM450.019 388.774C449.821 389.191 449.408 389.416 448.797 389.416C447.993 389.416 447.47 388.822 447.43 387.886V387.851H450.836V387.561C450.836 386.089 450.058 385.179 448.779 385.179C447.479 385.179 446.644 386.146 446.644 387.636C446.644 389.134 447.465 390.083 448.779 390.083C449.816 390.083 450.555 389.583 450.774 388.774H450.019Z" fill="white"/>
<path d="M386.471 414.198C388.897 414.198 390.34 412.209 390.34 409.051C390.34 405.893 388.884 403.938 386.471 403.938C384.051 403.938 382.588 405.906 382.588 409.058C382.588 412.223 384.037 414.198 386.471 414.198ZM386.471 412.756C385.131 412.756 384.365 411.389 384.365 409.051C384.365 406.754 385.145 405.38 386.471 405.38C387.79 405.38 388.562 406.747 388.562 409.058C388.562 411.396 387.804 412.756 386.471 412.756ZM393.908 409.577H395.077C396.342 409.577 397.107 410.165 397.101 411.218C397.101 412.12 396.328 412.756 395.2 412.756C394.031 412.756 393.245 412.168 393.177 411.272H391.488C391.577 413.016 393.04 414.198 395.2 414.198C397.36 414.198 398.892 413.009 398.892 411.259C398.892 409.885 397.928 409.01 396.472 408.873V408.839C397.661 408.593 398.543 407.772 398.543 406.528C398.543 405.004 397.23 403.938 395.187 403.938C393.204 403.938 391.816 405.059 391.7 406.822H393.341C393.402 405.893 394.147 405.339 395.187 405.339C396.273 405.339 396.848 405.899 396.848 406.768C396.848 407.643 396.123 408.265 395.036 408.265H393.908V409.577ZM401.1 416.112L404.6 404.136H403.055L399.555 416.112H401.1ZM409.07 414.198C411.497 414.198 412.939 412.209 412.939 409.051C412.939 405.893 411.483 403.938 409.07 403.938C406.65 403.938 405.188 405.906 405.188 409.058C405.188 412.223 406.637 414.198 409.07 414.198ZM409.07 412.756C407.73 412.756 406.965 411.389 406.965 409.051C406.965 406.754 407.744 405.38 409.07 405.38C410.39 405.38 411.162 406.747 411.162 409.058C411.162 411.396 410.403 412.756 409.07 412.756ZM416.651 414H418.381V404.136H416.638L414.061 405.947V407.567L416.61 405.817H416.651V414ZM421.512 416.112L425.012 404.136H423.467L419.967 416.112H421.512ZM425.647 407.082H427.302C427.302 406.077 428.108 405.353 429.175 405.353C430.152 405.353 430.802 406.009 430.802 406.87C430.802 407.608 430.515 408.101 429.229 409.365L425.743 412.797V414H432.675V412.558H428.074V412.523L430.248 410.391C431.971 408.695 432.524 407.93 432.524 406.761C432.524 405.175 431.185 403.938 429.175 403.938C427.124 403.938 425.647 405.243 425.647 407.082ZM437.713 414.198C440.14 414.198 441.582 412.209 441.582 409.051C441.582 405.893 440.126 403.938 437.713 403.938C435.293 403.938 433.83 405.906 433.83 409.058C433.83 412.223 435.279 414.198 437.713 414.198ZM437.713 412.756C436.373 412.756 435.607 411.389 435.607 409.051C435.607 406.754 436.387 405.38 437.713 405.38C439.032 405.38 439.805 406.747 439.805 409.058C439.805 411.396 439.046 412.756 437.713 412.756ZM445.294 414H447.023V404.136H445.28L442.703 405.947V407.567L445.253 405.817H445.294V414ZM451.59 409.577H452.759C454.023 409.577 454.789 410.165 454.782 411.218C454.782 412.12 454.01 412.756 452.882 412.756C451.713 412.756 450.927 412.168 450.858 411.272H449.17C449.259 413.016 450.722 414.198 452.882 414.198C455.042 414.198 456.573 413.009 456.573 411.259C456.573 409.885 455.609 409.01 454.153 408.873V408.839C455.343 408.593 456.225 407.772 456.225 406.528C456.225 405.004 454.912 403.938 452.868 403.938C450.886 403.938 449.498 405.059 449.382 406.822H451.022C451.084 405.893 451.829 405.339 452.868 405.339C453.955 405.339 454.529 405.899 454.529 406.768C454.529 407.643 453.805 408.265 452.718 408.265H451.59V409.577Z" fill="white"/>
<path opacity="0.7" d="M188.505 388.343C188.589 389.438 189.516 390.149 190.861 390.149C192.311 390.149 193.229 389.407 193.229 388.242C193.229 387.311 192.702 386.801 191.388 386.471L190.725 386.295C189.85 386.071 189.503 385.786 189.503 385.289C189.503 384.647 190.061 384.226 190.905 384.226C191.696 384.226 192.232 384.612 192.342 385.263H193.137C193.071 384.239 192.157 383.509 190.931 383.509C189.591 383.509 188.69 384.239 188.69 385.315C188.69 386.216 189.187 386.735 190.333 387.025L191.146 387.236C192.021 387.456 192.417 387.798 192.417 388.339C192.417 388.967 191.788 389.429 190.936 389.429C190.035 389.429 189.402 389.007 189.305 388.343H188.505ZM194.768 384.037V385.263H194.003V385.896H194.768V388.77C194.768 389.675 195.159 390.035 196.134 390.035C196.284 390.035 196.429 390.018 196.578 389.991V389.354C196.438 389.367 196.363 389.372 196.227 389.372C195.734 389.372 195.523 389.134 195.523 388.576V385.896H196.578V385.263H195.523V384.037H194.768ZM199.18 389.42C198.63 389.42 198.222 389.139 198.222 388.655C198.222 388.181 198.538 387.93 199.259 387.882L200.533 387.798V388.233C200.533 388.91 199.958 389.42 199.18 389.42ZM199.039 390.083C199.672 390.083 200.19 389.807 200.498 389.301H200.568V390H201.289V386.757C201.289 385.772 200.643 385.179 199.487 385.179C198.477 385.179 197.729 385.68 197.628 386.44H198.393C198.499 386.067 198.894 385.852 199.461 385.852C200.168 385.852 200.533 386.172 200.533 386.757V387.188L199.167 387.271C198.063 387.337 197.439 387.825 197.439 388.673C197.439 389.539 198.121 390.083 199.039 390.083ZM202.687 390H203.442V387.064C203.442 386.396 203.965 385.913 204.686 385.913C204.835 385.913 205.108 385.939 205.169 385.957V385.201C205.073 385.188 204.915 385.179 204.792 385.179C204.163 385.179 203.618 385.504 203.478 385.966H203.407V385.263H202.687V390ZM206.694 384.037V385.263H205.93V385.896H206.694V388.77C206.694 389.675 207.085 390.035 208.061 390.035C208.21 390.035 208.355 390.018 208.505 389.991V389.354C208.364 389.367 208.29 389.372 208.153 389.372C207.661 389.372 207.45 389.134 207.45 388.576V385.896H208.505V385.263H207.45V384.037H206.694ZM212.284 383.659V390H214.459C216.345 390 217.452 388.827 217.452 386.827C217.452 384.832 216.34 383.659 214.459 383.659H212.284ZM213.075 384.371H214.407C215.813 384.371 216.644 385.285 216.644 386.836C216.644 388.383 215.822 389.288 214.407 389.288H213.075V384.371ZM220.186 389.42C219.636 389.42 219.228 389.139 219.228 388.655C219.228 388.181 219.544 387.93 220.265 387.882L221.539 387.798V388.233C221.539 388.91 220.963 389.42 220.186 389.42ZM220.045 390.083C220.678 390.083 221.196 389.807 221.504 389.301H221.574V390H222.295V386.757C222.295 385.772 221.649 385.179 220.493 385.179C219.482 385.179 218.735 385.68 218.634 386.44H219.399C219.504 386.067 219.9 385.852 220.467 385.852C221.174 385.852 221.539 386.172 221.539 386.757V387.188L220.172 387.271C219.069 387.337 218.445 387.825 218.445 388.673C218.445 389.539 219.126 390.083 220.045 390.083ZM224.009 384.037V385.263H223.244V385.896H224.009V388.77C224.009 389.675 224.4 390.035 225.375 390.035C225.525 390.035 225.67 390.018 225.819 389.991V389.354C225.679 389.367 225.604 389.372 225.468 389.372C224.976 389.372 224.765 389.134 224.765 388.576V385.896H225.819V385.263H224.765V384.037H224.009ZM228.781 385.847C229.533 385.847 230.034 386.401 230.051 387.24H227.441C227.498 386.401 228.025 385.847 228.781 385.847ZM230.029 388.774C229.832 389.191 229.418 389.416 228.808 389.416C228.003 389.416 227.48 388.822 227.441 387.886V387.851H230.847V387.561C230.847 386.089 230.069 385.179 228.79 385.179C227.489 385.179 226.654 386.146 226.654 387.636C226.654 389.134 227.476 390.083 228.79 390.083C229.827 390.083 230.565 389.583 230.785 388.774H230.029Z" fill="white"/>
<path d="M192.471 414.198C194.897 414.198 196.34 412.209 196.34 409.051C196.34 405.893 194.884 403.938 192.471 403.938C190.051 403.938 188.588 405.906 188.588 409.058C188.588 412.223 190.037 414.198 192.471 414.198ZM192.471 412.756C191.131 412.756 190.365 411.389 190.365 409.051C190.365 406.754 191.145 405.38 192.471 405.38C193.79 405.38 194.562 406.747 194.562 409.058C194.562 411.396 193.804 412.756 192.471 412.756ZM199.908 409.577H201.077C202.342 409.577 203.107 410.165 203.101 411.218C203.101 412.12 202.328 412.756 201.2 412.756C200.031 412.756 199.245 412.168 199.177 411.272H197.488C197.577 413.016 199.04 414.198 201.2 414.198C203.36 414.198 204.892 413.009 204.892 411.259C204.892 409.885 203.928 409.01 202.472 408.873V408.839C203.661 408.593 204.543 407.772 204.543 406.528C204.543 405.004 203.23 403.938 201.187 403.938C199.204 403.938 197.816 405.059 197.7 406.822H199.341C199.402 405.893 200.147 405.339 201.187 405.339C202.273 405.339 202.848 405.899 202.848 406.768C202.848 407.643 202.123 408.265 201.036 408.265H199.908V409.577ZM207.1 416.112L210.6 404.136H209.055L205.555 416.112H207.1ZM215.07 414.198C217.497 414.198 218.939 412.209 218.939 409.051C218.939 405.893 217.483 403.938 215.07 403.938C212.65 403.938 211.188 405.906 211.188 409.058C211.188 412.223 212.637 414.198 215.07 414.198ZM215.07 412.756C213.73 412.756 212.965 411.389 212.965 409.051C212.965 406.754 213.744 405.38 215.07 405.38C216.39 405.38 217.162 406.747 217.162 409.058C217.162 411.396 216.403 412.756 215.07 412.756ZM222.651 414H224.381V404.136H222.638L220.061 405.947V407.567L222.61 405.817H222.651V414ZM227.512 416.112L231.012 404.136H229.467L225.967 416.112H227.512ZM231.647 407.082H233.302C233.302 406.077 234.108 405.353 235.175 405.353C236.152 405.353 236.802 406.009 236.802 406.87C236.802 407.608 236.515 408.101 235.229 409.365L231.743 412.797V414H238.675V412.558H234.074V412.523L236.248 410.391C237.971 408.695 238.524 407.93 238.524 406.761C238.524 405.175 237.185 403.938 235.175 403.938C233.124 403.938 231.647 405.243 231.647 407.082ZM243.713 414.198C246.14 414.198 247.582 412.209 247.582 409.051C247.582 405.893 246.126 403.938 243.713 403.938C241.293 403.938 239.83 405.906 239.83 409.058C239.83 412.223 241.279 414.198 243.713 414.198ZM243.713 412.756C242.373 412.756 241.607 411.389 241.607 409.051C241.607 406.754 242.387 405.38 243.713 405.38C245.032 405.38 245.805 406.747 245.805 409.058C245.805 411.396 245.046 412.756 243.713 412.756ZM252.641 414.198C255.067 414.198 256.51 412.209 256.51 409.051C256.51 405.893 255.054 403.938 252.641 403.938C250.221 403.938 248.758 405.906 248.758 409.058C248.758 412.223 250.207 414.198 252.641 414.198ZM252.641 412.756C251.301 412.756 250.535 411.389 250.535 409.051C250.535 406.754 251.314 405.38 252.641 405.38C253.96 405.38 254.732 406.747 254.732 409.058C254.732 411.396 253.974 412.756 252.641 412.756ZM261.288 414.198C263.797 414.198 265.301 412.243 265.301 408.955C265.301 405.298 263.339 403.931 261.315 403.931C259.183 403.931 257.631 405.373 257.631 407.383C257.631 409.29 259.06 410.616 260.905 410.616C262.184 410.616 263.195 409.974 263.578 409.017H263.605C263.605 411.313 262.854 412.77 261.302 412.77C260.399 412.77 259.736 412.359 259.49 411.58H257.74C258.014 413.139 259.442 414.198 261.288 414.198ZM261.315 409.249C260.194 409.249 259.36 408.442 259.36 407.314C259.36 406.234 260.235 405.38 261.336 405.38C262.45 405.38 263.312 406.241 263.312 407.349C263.312 408.449 262.457 409.249 261.315 409.249Z" fill="white"/>
<rect opacity="0.2" x="188" y="367" width="272" height="1" fill="#F5F5F5"/>
<rect opacity="0.2" x="188" y="237" width="272" height="1" fill="#F5F5F5"/>
<path d="M168 97C168 93.6863 170.686 91 174 91H478C481.314 91 484 93.6863 484 97V175H168V97Z" fill="#262324"/>
<path opacity="0.7" d="M189.107 117.002V125H191.709C194.041 125 195.23 123.605 195.23 120.998C195.23 118.391 194.041 117.002 191.709 117.002H189.107ZM190.186 117.963H191.633C193.297 117.963 194.111 118.977 194.111 121.004C194.111 123.031 193.303 124.033 191.633 124.033H190.186V117.963ZM199.443 125.1C201.002 125.1 201.746 124.133 201.84 123.465H200.75C200.645 123.846 200.158 124.191 199.438 124.191C198.412 124.191 197.861 123.459 197.861 122.504V122.193H201.922V121.455C201.922 119.791 200.855 118.73 199.361 118.73C197.885 118.73 196.807 119.768 196.807 121.455V122.381C196.807 124.051 197.785 125.1 199.443 125.1ZM197.861 121.426V121.326C197.861 120.307 198.465 119.639 199.367 119.639C200.27 119.639 200.867 120.307 200.867 121.326V121.426H197.861ZM205.906 126.359C205.098 126.359 204.6 125.996 204.518 125.562H203.439C203.521 126.459 204.295 127.256 205.871 127.256C207.447 127.256 208.584 126.518 208.584 124.818V118.836H207.57V119.762H207.518C207.312 119.258 206.656 118.742 205.73 118.742C204.365 118.742 203.305 119.721 203.305 121.35V122.293C203.305 123.922 204.371 124.889 205.736 124.889C206.592 124.889 207.225 124.455 207.465 123.922H207.523V124.812C207.523 125.779 206.99 126.359 205.906 126.359ZM205.994 119.662C206.961 119.662 207.523 120.477 207.523 121.379V122.299C207.523 123.178 206.99 123.986 206.006 123.986C205.051 123.986 204.371 123.236 204.371 122.117V121.543C204.371 120.418 204.992 119.662 205.994 119.662ZM210.77 125H211.836V121.197C211.836 120.365 212.375 119.715 213.459 119.715C213.646 119.715 213.857 119.727 213.957 119.75V118.771C213.834 118.754 213.705 118.742 213.57 118.742C212.48 118.742 212.035 119.375 211.883 119.785H211.83V118.836H210.77V125ZM217.689 125.1C219.248 125.1 219.992 124.133 220.086 123.465H218.996C218.891 123.846 218.404 124.191 217.684 124.191C216.658 124.191 216.107 123.459 216.107 122.504V122.193H220.168V121.455C220.168 119.791 219.102 118.73 217.607 118.73C216.131 118.73 215.053 119.768 215.053 121.455V122.381C215.053 124.051 216.031 125.1 217.689 125.1ZM216.107 121.426V121.326C216.107 120.307 216.711 119.639 217.613 119.639C218.516 119.639 219.113 120.307 219.113 121.326V121.426H216.107ZM224.264 125.1C225.822 125.1 226.566 124.133 226.66 123.465H225.57C225.465 123.846 224.979 124.191 224.258 124.191C223.232 124.191 222.682 123.459 222.682 122.504V122.193H226.742V121.455C226.742 119.791 225.676 118.73 224.182 118.73C222.705 118.73 221.627 119.768 221.627 121.455V122.381C221.627 124.051 222.605 125.1 224.264 125.1ZM222.682 121.426V121.326C222.682 120.307 223.285 119.639 224.188 119.639C225.09 119.639 225.688 120.307 225.688 121.326V121.426H222.682ZM232.344 125V118.871H232.385L236.352 125H237.371V117.002H236.311V123.119H236.258L232.303 117.002H231.283V125H232.344ZM241.191 125.1C242.1 125.1 242.656 124.678 242.955 124.186H243.002V125H244.021V120.793C244.021 119.281 242.973 118.736 241.701 118.736C240.324 118.736 239.504 119.328 239.41 120.371H240.436C240.559 119.943 240.887 119.645 241.666 119.645C242.457 119.645 242.955 120.002 242.955 120.787V121.396H241.344C239.926 121.396 239.176 122.129 239.176 123.207C239.176 124.35 239.996 125.1 241.191 125.1ZM241.484 124.203C240.846 124.203 240.26 123.875 240.26 123.172C240.26 122.621 240.6 122.205 241.432 122.205H242.955V122.896C242.955 123.641 242.316 124.203 241.484 124.203ZM246.078 125H247.139V121.086C247.139 120.242 247.695 119.668 248.469 119.668C249.277 119.668 249.775 120.207 249.775 121.01V125H250.824V121.098C250.824 120.254 251.416 119.668 252.184 119.668C253.016 119.668 253.461 120.184 253.461 120.969V125H254.521V120.664C254.521 119.428 253.754 118.736 252.494 118.736C251.451 118.736 250.865 119.293 250.613 119.896H250.566C250.373 119.234 249.787 118.736 248.855 118.736C247.719 118.736 247.326 119.381 247.186 119.814H247.127V118.836H246.078V125ZM258.916 125.1C260.475 125.1 261.219 124.133 261.312 123.465H260.223C260.117 123.846 259.631 124.191 258.91 124.191C257.885 124.191 257.334 123.459 257.334 122.504V122.193H261.395V121.455C261.395 119.791 260.328 118.73 258.834 118.73C257.357 118.73 256.279 119.768 256.279 121.455V122.381C256.279 124.051 257.258 125.1 258.916 125.1ZM257.334 121.426V121.326C257.334 120.307 257.938 119.639 258.84 119.639C259.742 119.639 260.34 120.307 260.34 121.326V121.426H257.334Z" fill="white"/>
<path d="M193.004 153C195.109 153 196.388 151.934 196.388 150.197C196.388 148.892 195.451 147.928 194.111 147.798V147.743C195.123 147.579 195.909 146.656 195.909 145.597C195.909 144.1 194.754 143.136 192.963 143.136H188.868V153H193.004ZM190.632 144.51H192.519C193.571 144.51 194.166 144.995 194.166 145.856C194.166 146.772 193.476 147.292 192.245 147.292H190.632V144.51ZM190.632 151.626V148.543H192.525C193.879 148.543 194.59 149.069 194.59 150.074C194.59 151.086 193.899 151.626 192.601 151.626H190.632ZM200.12 151.831C199.382 151.831 198.89 151.455 198.89 150.86C198.89 150.286 199.361 149.917 200.182 149.862L201.856 149.76V150.313C201.856 151.188 201.084 151.831 200.12 151.831ZM199.607 153.116C200.537 153.116 201.446 152.631 201.863 151.845H201.897V153H203.538V148.01C203.538 146.554 202.369 145.604 200.571 145.604C198.726 145.604 197.57 146.574 197.495 147.928H199.074C199.184 147.326 199.696 146.937 200.503 146.937C201.344 146.937 201.856 147.374 201.856 148.133V148.652L199.942 148.762C198.179 148.871 197.188 149.644 197.188 150.929C197.188 152.234 198.206 153.116 199.607 153.116ZM211.297 148.338C211.181 146.813 209.998 145.604 208.084 145.604C205.979 145.604 204.611 147.06 204.611 149.377C204.611 151.729 205.979 153.144 208.098 153.144C209.916 153.144 211.167 152.077 211.304 150.457H209.697C209.54 151.277 208.979 151.77 208.118 151.77C207.038 151.77 206.341 150.895 206.341 149.377C206.341 147.887 207.031 146.984 208.104 146.984C209.014 146.984 209.554 147.565 209.69 148.338H211.297ZM212.37 153H214.072V148.837C214.072 147.771 214.694 147.06 215.72 147.06C216.704 147.06 217.21 147.668 217.21 148.68V153H218.912V148.331C218.912 146.67 217.976 145.617 216.376 145.617C215.275 145.617 214.476 146.116 214.086 146.998H214.052V143.136H212.37V153ZM223.403 146.923C224.381 146.923 225.037 147.641 225.071 148.666H221.688C221.756 147.654 222.446 146.923 223.403 146.923ZM225.078 150.833C224.894 151.435 224.292 151.831 223.499 151.831C222.385 151.831 221.674 151.052 221.674 149.89V149.787H226.739V149.233C226.739 147.032 225.454 145.604 223.396 145.604C221.305 145.604 219.979 147.114 219.979 149.404C219.979 151.715 221.291 153.144 223.465 153.144C225.181 153.144 226.452 152.2 226.671 150.833H225.078ZM227.888 153H229.59V143.136H227.888V153ZM234.245 153.144C236.371 153.144 237.752 151.729 237.752 149.377C237.752 147.032 236.357 145.604 234.245 145.604C232.133 145.604 230.738 147.039 230.738 149.377C230.738 151.729 232.119 153.144 234.245 153.144ZM234.245 151.797C233.165 151.797 232.468 150.922 232.468 149.377C232.468 147.839 233.172 146.957 234.245 146.957C235.325 146.957 236.022 147.839 236.022 149.377C236.022 150.922 235.325 151.797 234.245 151.797ZM238.846 153H240.548V148.782C240.548 147.764 241.129 147.142 242.093 147.142C242.38 147.142 242.64 147.183 242.783 147.237V145.699C242.66 145.672 242.469 145.631 242.25 145.631C241.396 145.631 240.76 146.137 240.514 147.019H240.479V145.754H238.846V153ZM246.092 153.116C247.151 153.116 247.985 152.576 248.382 151.763H248.409V153H250.077V143.136H248.375V146.971H248.334C247.951 146.171 247.131 145.631 246.092 145.631C244.267 145.631 243.084 147.08 243.084 149.37C243.084 151.674 244.267 153.116 246.092 153.116ZM246.604 147.032C247.678 147.032 248.382 147.955 248.382 149.377C248.382 150.812 247.678 151.722 246.604 151.722C245.504 151.722 244.827 150.819 244.827 149.377C244.827 147.941 245.511 147.032 246.604 147.032ZM256.243 153V143.136H254.479V153H256.243ZM257.809 153H259.511V148.803C259.511 147.764 260.133 147.06 261.11 147.06C262.081 147.06 262.56 147.634 262.56 148.659V153H264.262V148.317C264.262 146.643 263.353 145.617 261.753 145.617C260.639 145.617 259.866 146.137 259.477 146.998H259.442V145.754H257.809V153ZM268.828 151.653C267.755 151.653 267.071 150.792 267.071 149.356C267.071 147.935 267.755 147.032 268.828 147.032C269.915 147.032 270.619 147.948 270.619 149.356C270.619 150.771 269.915 151.653 268.828 151.653ZM268.821 155.734C270.934 155.734 272.321 154.613 272.321 152.884V145.754H270.653V146.998H270.626C270.209 146.164 269.375 145.631 268.343 145.631C266.49 145.631 265.328 147.06 265.328 149.35C265.328 151.605 266.518 153.007 268.309 153.007C269.348 153.007 270.202 152.487 270.578 151.708H270.619V152.932C270.619 153.854 269.983 154.477 268.876 154.477C268.069 154.477 267.447 154.101 267.263 153.547H265.574C265.745 154.818 267.03 155.734 268.821 155.734ZM276.833 146.923C277.811 146.923 278.467 147.641 278.501 148.666H275.117C275.186 147.654 275.876 146.923 276.833 146.923ZM278.508 150.833C278.323 151.435 277.722 151.831 276.929 151.831C275.814 151.831 275.104 151.052 275.104 149.89V149.787H280.169V149.233C280.169 147.032 278.884 145.604 276.826 145.604C274.734 145.604 273.408 147.114 273.408 149.404C273.408 151.715 274.721 153.144 276.895 153.144C278.61 153.144 279.882 152.2 280.101 150.833H278.508ZM281.27 153H282.972V148.803C282.972 147.764 283.594 147.06 284.571 147.06C285.542 147.06 286.021 147.634 286.021 148.659V153H287.723V148.317C287.723 146.643 286.813 145.617 285.214 145.617C284.1 145.617 283.327 146.137 282.938 146.998H282.903V145.754H281.27V153ZM292.214 146.923C293.191 146.923 293.848 147.641 293.882 148.666H290.498C290.566 147.654 291.257 146.923 292.214 146.923ZM293.889 150.833C293.704 151.435 293.103 151.831 292.31 151.831C291.195 151.831 290.484 151.052 290.484 149.89V149.787H295.55V149.233C295.55 147.032 294.265 145.604 292.207 145.604C290.115 145.604 288.789 147.114 288.789 149.404C288.789 151.715 290.102 153.144 292.275 153.144C293.991 153.144 295.263 152.2 295.481 150.833H293.889ZM299.774 146.923C300.752 146.923 301.408 147.641 301.442 148.666H298.059C298.127 147.654 298.817 146.923 299.774 146.923ZM301.449 150.833C301.265 151.435 300.663 151.831 299.87 151.831C298.756 151.831 298.045 151.052 298.045 149.89V149.787H303.11V149.233C303.11 147.032 301.825 145.604 299.768 145.604C297.676 145.604 296.35 147.114 296.35 149.404C296.35 151.715 297.662 153.144 299.836 153.144C301.552 153.144 302.823 152.2 303.042 150.833H301.449ZM304.211 153H305.913V148.782C305.913 147.764 306.494 147.142 307.458 147.142C307.745 147.142 308.005 147.183 308.148 147.237V145.699C308.025 145.672 307.834 145.631 307.615 145.631C306.761 145.631 306.125 146.137 305.879 147.019H305.845V145.754H304.211V153Z" fill="white"/>
<rect x="419" y="113" width="40" height="40" rx="5" fill="#C4C4C4"/>
<defs>
<filter id="filter0_d" x="324" y="460" width="170" height="65" filterUnits="userSpaceOnUse" color-interpolation-filters="sRGB">
<feFlood flood-opacity="0" result="BackgroundImageFix"/>
<feColorMatrix in="SourceAlpha" type="matrix" values="0 0 0 0 0 0 0 0 0 0 0 0 0 0 0 0 0 0 127 0"/>
<feOffset/>
<feGaussianBlur stdDeviation="5"/>
<feColorMatrix type="matrix" values="0 0 0 0 1 0 0 0 0 0.176471 0 0 0 0 0.231373 0 0 0 0.5 0"/>
<feBlend mode="normal" in2="BackgroundImageFix" result="effect1_dropShadow"/>
<feBlend mode="normal" in="SourceGraphic" in2="effect1_dropShadow" result="shape"/>
</filter>
<filter id="filter1_d" x="138" y="40" width="377" height="312" filterUnits="userSpaceOnUse" color-interpolation-filters="sRGB">
<feFlood flood-opacity="0" result="BackgroundImageFix"/>
<feColorMatrix in="SourceAlpha" type="matrix" values="0 0 0 0 0 0 0 0 0 0 0 0 0 0 0 0 0 0 127 0"/>
<feOffset dy="2"/>
<feGaussianBlur stdDeviation="19"/>
<feColorMatrix type="matrix" values="0 0 0 0 0 0 0 0 0 0 0 0 0 0 0 0 0 0 0.153334 0"/>
<feBlend mode="normal" in2="BackgroundImageFix" result="effect1_dropShadow"/>
<feBlend mode="normal" in="SourceGraphic" in2="effect1_dropShadow" result="shape"/>
</filter>
<filter id="filter2_d" x="130" y="55" width="392" height="427" filterUnits="userSpaceOnUse" color-interpolation-filters="sRGB">
<feFlood flood-opacity="0" result="BackgroundImageFix"/>
<feColorMatrix in="SourceAlpha" type="matrix" values="0 0 0 0 0 0 0 0 0 0 0 0 0 0 0 0 0 0 127 0"/>
<feOffset dy="2"/>
<feGaussianBlur stdDeviation="19"/>
<feColorMatrix type="matrix" values="0 0 0 0 0 0 0 0 0 0 0 0 0 0 0 0 0 0 0.153334 0"/>
<feBlend mode="normal" in2="BackgroundImageFix" result="effect1_dropShadow"/>
<feBlend mode="normal" in="SourceGraphic" in2="effect1_dropShadow" result="shape"/>
</filter>
</defs>
</svg>
