<svg width="45" height="45" viewBox="0 0 45 45" fill="none" xmlns="http://www.w3.org/2000/svg">
<path d="M36.7499 41.715L33.0599 44.2501H0.749942V41.5951C0.747569 39.1874 2.0589 36.9703 4.16994 35.8126L11.4674 31.8225C12.4269 31.2945 13.0221 30.2852 13.0199 29.19V26.19C11.6136 24.3761 10.6065 22.2855 10.0649 20.0551C9.36076 19.6018 8.93441 18.8225 8.93247 17.9851V14.7001C8.93643 14.0068 9.23341 13.3474 9.74994 12.8851V8.13756C9.74994 8.13756 8.84994 1.32006 17.6249 0.787529C17.9849 0.765029 18.36 0.75 18.7499 0.75C28.7174 0.75 27.7499 8.13747 27.7499 8.13747V12.885C28.2666 13.3474 28.5635 14.0066 28.5674 14.7V17.985C28.5677 18.1337 28.5526 18.282 28.5224 18.4275L36.7499 41.715Z" fill="#A0AABB"/>
<path d="M34.4999 41.7161L30.8099 44.2511H0.749942V41.5961C0.747569 39.1884 2.0589 36.9713 4.16994 35.8136L11.4674 31.8235C12.4269 31.2955 13.0221 30.2863 13.0199 29.191V26.1911C11.6136 24.3772 10.6065 22.2865 10.0649 20.0561C9.36076 19.6029 8.93441 18.8236 8.93247 17.9861V14.7011C8.93643 14.0079 9.23341 13.3485 9.74994 12.8861V8.1386C9.74994 8.1386 8.84994 1.3211 17.6249 0.788574C26.3925 1.3211 25.4999 8.1386 25.4999 8.1386V12.8861C26.0166 13.3485 26.3135 14.0078 26.3174 14.7011V17.9861C26.3177 18.1348 26.3026 18.2831 26.2724 18.4287L34.4999 41.7161Z" fill="#F2F2F2"/>
<path d="M44.25 22.2976V27.9526C44.1792 33.1236 41.7135 37.9691 37.575 41.0701L33.885 43.9651C33.4015 44.3476 32.7185 44.3476 32.235 43.9651L31.92 43.7176L28.545 41.0701C24.4065 37.9691 21.9408 33.1236 21.87 27.9526V22.2976C21.8737 21.8821 22.1158 21.5057 22.4925 21.3301L32.0625 16.7251C32.6963 16.425 33.4312 16.425 34.065 16.7251L41.7825 20.4376L43.635 21.3301C44.0077 21.509 44.2462 21.8842 44.25 22.2976Z" fill="#3BD7D7"/>
<path d="M42 21.1126V27.0677C41.9634 32.4458 39.5129 37.5231 35.325 40.8978L31.92 43.7177L28.545 41.0702C24.4065 37.9692 21.9408 33.1237 21.87 27.9527V22.2977C21.8737 21.8822 22.1158 21.5058 22.4925 21.3302L32.0625 16.7251C32.6963 16.425 33.4312 16.425 34.065 16.7251L41.7825 20.4376C41.9231 20.6347 41.9991 20.8705 42 21.1126Z" fill="#40EAEA"/>
<path d="M33.0599 34.4012C36.2734 34.4012 38.8785 31.7962 38.8785 28.5827C38.8785 25.3692 36.2734 22.7642 33.0599 22.7642C29.8464 22.7642 27.2414 25.3692 27.2414 28.5827C27.2414 31.7962 29.8464 34.4012 33.0599 34.4012Z" fill="white"/>
<path d="M33.0604 44.9961C32.5933 44.998 32.1391 44.8429 31.7706 44.556L28.0839 41.6607C23.766 38.4137 21.1949 33.3504 21.1208 27.9482V22.2954C21.1215 21.593 21.5281 20.9542 22.1641 20.6562L31.7343 16.0508C32.5733 15.6524 33.547 15.6524 34.386 16.0508L43.9566 20.6562C44.5927 20.9542 44.9993 21.593 45 22.2954V27.9482C44.9258 33.351 42.3541 38.415 38.0353 41.6621L34.3502 44.5559C33.9817 44.843 33.5275 44.9981 33.0604 44.9961ZM33.0607 17.2506C32.8266 17.25 32.5953 17.3021 32.384 17.4029L22.8145 22.0083C22.6999 22.0585 22.6244 22.1703 22.6208 22.2955V27.9483C22.6966 32.8891 25.0555 37.5164 29.0094 40.48L32.6971 43.3767C32.9111 43.5422 33.2098 43.5422 33.4237 43.3767L37.1104 40.4815C41.0648 37.5173 43.4241 32.8895 43.5 27.9482V22.2954C43.4964 22.1703 43.4209 22.0585 43.3063 22.0082L33.7362 17.4028C33.5252 17.3021 33.2944 17.25 33.0607 17.2506Z" fill="#2F2E41"/>
<path d="M33.0604 35.1533C30.4036 35.1533 28.0084 33.5528 26.9916 31.0982C25.9749 28.6436 26.537 25.8183 28.4157 23.9396C30.2945 22.061 33.1198 21.4991 35.5744 22.516C38.0289 23.5328 39.6293 25.9281 39.6292 28.5849C39.625 32.211 36.6865 35.1494 33.0604 35.1533ZM33.0604 23.5158C30.2611 23.5158 27.9917 25.7851 27.9917 28.5844C27.9916 31.3837 30.2608 33.6531 33.0601 33.6532C35.8595 33.6534 38.1289 31.3842 38.1291 28.5848C38.1261 25.7867 35.8586 23.5191 33.0604 23.5158Z" fill="#2F2E41"/>
<path d="M32.0431 31.0436C31.8442 31.0436 31.6534 30.9645 31.5128 30.8239L30.4958 29.8066C30.3063 29.6172 30.2324 29.341 30.3018 29.0822C30.3711 28.8234 30.5733 28.6213 30.832 28.5519C31.0908 28.4826 31.3669 28.5566 31.5564 28.746L32.0431 29.2331L34.5649 26.7113C34.8578 26.4185 35.3326 26.4185 35.6255 26.7113C35.9183 27.0042 35.9183 27.4791 35.6255 27.7719L32.5735 30.8239C32.4327 30.9645 32.242 31.0436 32.0431 31.0436Z" fill="#2F2E41"/>
<path d="M33.0601 45H0.75006C0.551164 45.0001 0.360353 44.9211 0.219641 44.7804C0.0790156 44.6397 1.91738e-06 44.4489 1.91738e-06 44.2499V41.5949C-0.00193168 38.9135 1.45872 36.4444 3.80971 35.1547L11.1075 31.1644C11.827 30.7684 12.2728 30.0111 12.2699 29.1898V26.4498C10.937 24.6713 9.9624 22.6506 9.40026 20.5003C8.63104 19.8924 8.18235 18.9657 8.18262 17.9851V14.6997C8.18657 13.9163 8.47732 13.1614 9 12.5779V8.17972C8.83995 6.25315 9.45141 4.34188 10.7 2.86594C12.3674 0.9646 15.0759 0 18.7501 0C22.4205 0 25.1277 0.963896 26.7954 2.86453C28.0452 4.34021 28.6583 6.25166 28.5001 8.17901V12.5779C29.0228 13.1615 29.3135 13.9163 29.3175 14.6998V17.9854C29.3178 18.186 29.2973 18.386 29.2563 18.5824C29.1679 18.9844 28.7721 19.24 28.3692 19.1552C27.9664 19.0704 27.7073 18.6768 27.7886 18.2733C27.808 18.1786 27.8177 18.0822 27.8175 17.9855V14.6997C27.8148 14.2173 27.6068 13.7588 27.2455 13.4392C27.0892 13.2972 27.0001 13.0959 27.0001 12.8848V8.13718C27.0002 8.10457 27.0022 8.07205 27.0063 8.03979C27.1204 6.51674 26.6354 5.00941 25.6547 3.83862C24.2822 2.28665 21.9592 1.50003 18.7501 1.50003C15.5377 1.50003 13.213 2.28735 11.8412 3.84012C10.8612 5.01135 10.3777 6.51929 10.494 8.04199C10.498 8.07354 10.5001 8.10536 10.5002 8.13727V12.8848C10.5002 13.0959 10.4111 13.2972 10.2548 13.4392C9.89341 13.7588 9.68537 14.2173 9.68282 14.6997V17.9853C9.68397 18.5687 9.98174 19.1116 10.4731 19.426C10.6366 19.532 10.7525 19.6975 10.7961 19.8875C11.3121 22.0025 12.266 23.9859 13.5962 25.7095C13.7087 25.8443 13.7702 26.0144 13.7701 26.19V29.19C13.7732 30.5597 13.028 31.8217 11.8274 32.4808L4.53006 36.4702C2.65992 37.497 1.49836 39.4616 1.50003 41.5949V43.5H33.0601C33.4744 43.5 33.8101 43.8357 33.8101 44.2499C33.8101 44.6642 33.4744 45 33.0601 45Z" fill="#2F2E41"/>
</svg>
