<svg width="40" height="40" viewBox="0 0 40 40" fill="none" xmlns="http://www.w3.org/2000/svg">
<rect width="40" height="40" rx="8" fill="#EDEAFF"/>
<path d="M29.7477 14.0593C29.7355 13.4237 29.7242 12.8237 29.7242 12.2432C29.7242 11.7881 29.3556 11.4195 28.9006 11.4195C25.3781 11.4195 22.6957 10.4069 20.4602 8.23337C20.3005 8.07763 20.0935 8 19.8865 8C19.679 8 19.472 8.07763 19.3119 8.23337C17.0763 10.4069 14.395 11.4195 10.8724 11.4195C10.4179 11.4195 10.0488 11.7881 10.0488 12.2432C10.0488 12.8237 10.0376 13.4242 10.0254 14.0598C9.91258 19.9722 9.75781 28.0699 19.6165 31.487C19.7039 31.5173 19.7947 31.5324 19.886 31.5324H19.8865C19.9778 31.5324 20.0686 31.5173 20.1555 31.487C30.0152 28.0699 29.8604 19.9717 29.7477 14.0593Z" fill="#4A2DFF"/>
<path d="M24.9249 17.8166V20.7396C24.9249 21.0091 24.7067 21.2278 24.4367 21.2278H21.8364V23.8286C21.8364 24.0981 21.6177 24.3168 21.3482 24.3168H18.4252C18.1557 24.3168 17.9369 24.0981 17.9369 23.8286V21.2278H15.3361C15.0661 21.2278 14.8479 21.0091 14.8479 20.7396V17.8166C14.8479 17.5471 15.0661 17.3284 15.3361 17.3284H17.9369V14.7276C17.9369 14.4581 18.1557 14.2394 18.4252 14.2394H21.3482C21.6177 14.2394 21.8364 14.4581 21.8364 14.7276V17.3284H24.4368C24.7067 17.3284 24.9249 17.5471 24.9249 17.8166Z" fill="#EDEAFF"/>
</svg>
