<svg width="40" height="40" viewBox="0 0 40 40" fill="none" xmlns="http://www.w3.org/2000/svg">
<rect width="40" height="40" rx="8" fill="#FFEAEB"/>
<path d="M20.1273 19.7594C22.7957 19.7594 24.959 17.3509 24.959 14.3798C24.959 11.4086 24.2488 9 20.1273 9C16.0058 9 15.2954 11.4086 15.2954 14.3798C15.2954 17.3509 17.4588 19.7594 20.1273 19.7594Z" fill="#F83633"/>
<path d="M11.0009 27.9736C11.0001 27.7924 10.9993 27.9226 11.0009 27.9736V27.9736Z" fill="#F83633"/>
<path d="M29.2529 28.1152C29.2555 28.0656 29.2538 27.7712 29.2529 28.1152V28.1152Z" fill="#F83633"/>
<path d="M29.2428 27.7564C29.1533 22.5806 28.4159 21.1058 22.773 20.1722C22.773 20.1722 21.9786 21.1001 20.1272 21.1001C18.2758 21.1001 17.4813 20.1722 17.4813 20.1722C11.8999 21.0956 11.1177 22.5486 11.0148 27.5883C11.0064 27.9998 11.0025 28.0214 11.001 27.9736C11.0013 28.0631 11.0017 28.2287 11.0017 28.5174C11.0017 28.5174 12.3452 31 20.1272 31C27.9091 31 29.2527 28.5174 29.2527 28.5174C29.2527 28.3319 29.2528 28.2029 29.253 28.1152C29.2515 28.1447 29.2485 28.0875 29.2428 27.7564Z" fill="#F83633"/>
</svg>
