<svg width="40" height="40" viewBox="0 0 40 40" fill="none" xmlns="http://www.w3.org/2000/svg">
<rect width="40" height="40" rx="8" fill="#F7EAFF"/>
<path d="M15.8512 18.1756C16.0698 19.5968 17.168 21.4056 18.9718 22.0417C19.7123 22.3001 20.5222 22.3051 21.2627 22.0367C23.0367 21.3957 24.1696 19.5919 24.3933 18.1756C24.6318 18.1558 24.9448 17.8228 25.2827 16.6253C25.7449 14.9904 25.2529 14.7469 24.8355 14.7866C24.915 14.563 24.9747 14.3344 25.0144 14.1158C25.72 9.87706 23.633 9.73295 23.633 9.73295C23.633 9.73295 23.2851 9.06708 22.3758 8.56519C21.7645 8.20243 20.9148 7.92416 19.7967 8.01857C19.434 8.03348 19.0911 8.10802 18.7681 8.21237C18.3557 8.35151 17.978 8.55525 17.6351 8.79377C17.2177 9.05714 16.8202 9.38511 16.4723 9.7578C15.9207 10.3243 15.4288 11.0548 15.2151 11.9641C15.0362 12.6449 15.076 13.3555 15.2251 14.1208C15.2648 14.3444 15.3244 14.568 15.4039 14.7916C14.9865 14.7519 14.4946 14.9953 14.9567 16.6302C15.2996 17.8228 15.6127 18.1558 15.8512 18.1756Z" fill="#AF2DFF"/>
<path d="M28.3188 23.7363C25.7795 23.0903 23.7173 21.6393 23.7173 21.6393L22.1073 26.7327L21.8042 27.6918L21.7992 27.6769L21.5358 28.4918L20.6861 26.0817C22.7732 23.1698 20.2637 23.1996 20.1246 23.2046C19.9854 23.1996 17.476 23.1698 19.563 26.0817L18.7133 28.4918L18.4499 27.6769L18.445 27.6918L18.1419 26.7327L16.5269 21.6393C16.5269 21.6393 14.4646 23.0903 11.9254 23.7363C10.0321 24.2183 9.94265 26.4047 10.0172 27.4831C10.0172 27.4831 10.1265 28.949 10.2358 29.595C10.2358 29.595 13.9329 31.9951 20.1246 32.0001C26.3162 32.0001 30.0133 29.595 30.0133 29.595C30.1226 28.949 30.2319 27.4831 30.2319 27.4831C30.3015 26.4047 30.2121 24.2183 28.3188 23.7363Z" fill="#AF2DFF"/>
</svg>
