<svg width="80" height="80" viewBox="0 0 80 80" fill="none" xmlns="http://www.w3.org/2000/svg">
<rect width="80" height="80" rx="6" fill="#1ED69E" fill-opacity="0.1"/>
<path d="M40 61.0355L39.1479 60.3254C20.8284 45.4142 16 40.1597 16 31.639C16 24.6805 21.6805 19 28.639 19C34.4615 19 37.7278 22.2663 40 24.8225C42.2722 22.2663 45.5385 19 51.3609 19C58.3195 19 64 24.6805 64 31.639C64 40.1597 59.0296 45.4142 40.8521 60.3254L40 61.0355ZM28.639 21.6982C23.1006 21.6982 18.5562 26.2426 18.5562 31.7811C18.5562 39.0237 23.1006 43.9941 40 57.6272C56.7574 43.8521 61.4438 39.0237 61.4438 31.7811C61.4438 26.2426 56.8994 21.6982 51.3609 21.6982C46.2485 21.6982 43.6923 24.6805 41.5621 27.0947L40 28.7988L38.4379 27.0947C36.4497 24.6805 33.7515 21.6982 28.639 21.6982Z" fill="#1ED69E"/>
</svg>
