<svg width="45" height="42" viewBox="0 0 45 42" fill="none" xmlns="http://www.w3.org/2000/svg">
<path d="M23.686 40C33.6272 40 41.686 31.9411 41.686 22C41.686 12.0589 33.6272 4 23.686 4C13.7449 4 5.68604 12.0589 5.68604 22C5.68604 31.9411 13.7449 40 23.686 40Z" fill="#F2F2F2"/>
<path fill-rule="evenodd" clip-rule="evenodd" d="M44.0251 5.16842L42.9004 12.4742C42.8242 12.975 42.3898 13.3427 41.8832 13.3349C35.287 13.2122 28.7371 12.2039 22.4094 10.337C21.924 10.192 21.6202 9.71075 21.6982 9.21016L22.8299 1.85909C22.8746 1.56723 23.0446 1.30944 23.2952 1.15326C23.5457 0.997072 23.852 0.958045 24.1338 1.0464C30.6563 3.10144 36.965 4.18714 42.9935 4.00272C43.2942 3.99328 43.5835 4.11816 43.7829 4.34346C43.9823 4.56876 44.071 4.8711 44.0251 5.16842Z" stroke="#3F3D56" stroke-width="0.6"/>
<path d="M37.2128 8.95812C37.3615 7.99238 36.0141 6.98351 34.2033 6.70475C32.3925 6.42598 30.8041 6.98289 30.6554 7.94863C30.5068 8.91438 31.8541 9.92325 33.6649 10.202C35.4757 10.4808 37.0641 9.92386 37.2128 8.95812Z" fill="#FF3834"/>
<path fill-rule="evenodd" clip-rule="evenodd" d="M36.226 7.86467C36.3746 6.89893 35.0273 5.89006 33.2165 5.6113C31.4057 5.33254 29.8173 5.88945 29.6686 6.85519C29.5199 7.82093 30.8673 8.8298 32.6781 9.10856C34.4889 9.38732 36.0773 8.83042 36.226 7.86467Z" stroke="#3F3D56" stroke-width="0.6"/>
<mask id="path-5-inside-1" fill="white">
<path fill-rule="evenodd" clip-rule="evenodd" d="M27.9933 32.8698C28.9731 29.3959 32.1129 27.0002 35.686 27C39.2592 27.0002 42.3989 29.3959 43.3787 32.8698C44.3585 36.3436 42.9407 40.0532 39.905 41.9585C39.8927 41.9662 39.88 41.9734 39.8673 41.9805C39.856 41.9869 39.8447 41.9932 39.8337 42C39.2283 40.206 37.561 39.0002 35.686 39.0002C33.8111 39.0002 32.1438 40.206 31.5383 42C31.5273 41.9932 31.5161 41.9869 31.5048 41.9806C31.4921 41.9734 31.4794 41.9662 31.467 41.9585C28.4313 40.0532 27.0135 36.3436 27.9933 32.8698ZM33.0636 36.4461C33.503 37.5184 34.538 38.2175 35.686 38.2175C37.2537 38.2175 38.5245 36.9328 38.5245 35.3479C38.5245 34.1873 37.8329 33.1409 36.7723 32.6968C35.7116 32.2526 34.4907 32.4981 33.6789 33.3188C32.8671 34.1395 32.6243 35.3738 33.0636 36.4461Z"/>
</mask>
<path d="M35.686 27L35.6861 26.3H35.686L35.686 27ZM27.9933 32.8698L27.3196 32.6798L27.9933 32.8698ZM43.3787 32.8698L44.0524 32.6798L43.3787 32.8698ZM39.905 41.9585L39.5329 41.3656L39.5322 41.366L39.905 41.9585ZM39.8673 41.9805L40.2107 42.5905L40.2107 42.5905L39.8673 41.9805ZM39.8337 42L39.1705 42.2238L39.4516 43.0567L40.2003 42.5963L39.8337 42ZM31.5383 42L31.1718 42.5964L31.9206 43.0565L32.2016 42.2238L31.5383 42ZM31.5048 41.9806L31.1613 42.5905L31.1614 42.5905L31.5048 41.9806ZM31.467 41.9585L31.8399 41.366L31.8392 41.3656L31.467 41.9585ZM35.686 38.2175L35.686 37.5175L35.686 38.2175ZM33.0636 36.4461L32.4159 36.7115L33.0636 36.4461ZM38.5245 35.3479L39.2245 35.3479L38.5245 35.3479ZM36.7723 32.6968L37.0427 32.0511L36.7723 32.6968ZM33.6789 33.3188L33.1813 32.8265V32.8265L33.6789 33.3188ZM35.686 26.3C31.795 26.3002 28.3833 28.9086 27.3196 32.6798L28.6671 33.0598C29.563 29.8832 32.4308 27.7002 35.6861 27.7L35.686 26.3ZM44.0524 32.6798C42.9888 28.9086 39.5771 26.3002 35.6861 26.3L35.686 27.7C38.9413 27.7002 41.8091 29.8832 42.705 33.0598L44.0524 32.6798ZM40.2772 42.5514C43.5786 40.4793 45.1157 36.4496 44.0524 32.6798L42.705 33.0598C43.6013 36.2376 42.3029 39.627 39.5329 41.3656L40.2772 42.5514ZM40.2107 42.5905C40.2209 42.5847 40.2487 42.5693 40.2779 42.5509L39.5322 41.366C39.5355 41.364 39.537 41.3631 39.5354 41.364C39.5334 41.3652 39.5308 41.3667 39.5238 41.3706L40.2107 42.5905ZM40.2003 42.5963C40.1984 42.5975 40.1978 42.5978 40.1997 42.5967C40.2019 42.5955 40.2046 42.5939 40.2107 42.5905L39.5238 41.3706C39.5145 41.3758 39.4915 41.3887 39.4671 41.4037L40.2003 42.5963ZM35.686 39.7002C37.2566 39.7002 38.6598 40.7106 39.1705 42.2238L40.497 41.7762C39.7968 39.7014 37.8654 38.3002 35.686 38.3002V39.7002ZM32.2016 42.2238C32.7123 40.7106 34.1154 39.7002 35.686 39.7002V38.3002C33.5067 38.3002 31.5753 39.7014 30.8751 41.7762L32.2016 42.2238ZM31.1614 42.5905C31.1675 42.594 31.1702 42.5955 31.1724 42.5968C31.1743 42.5979 31.1738 42.5976 31.1718 42.5964L31.9048 41.4036C31.8806 41.3887 31.8576 41.3759 31.8483 41.3706L31.1614 42.5905ZM31.0942 42.5509C31.1234 42.5693 31.1511 42.5847 31.1613 42.5905L31.8483 41.3706C31.8414 41.3667 31.8387 41.3652 31.8367 41.3641C31.8351 41.3631 31.8366 41.364 31.8399 41.366L31.0942 42.5509ZM27.3196 32.6798C26.2563 36.4496 27.7935 40.4793 31.0949 42.5514L31.8392 41.3656C29.0692 39.627 27.7708 36.2376 28.6671 33.0598L27.3196 32.6798ZM35.686 37.5175C34.8256 37.5175 34.0443 36.9934 33.7114 36.1807L32.4159 36.7115C32.9616 38.0434 34.2504 38.9175 35.686 38.9175L35.686 37.5175ZM37.8245 35.3479C37.8245 36.5534 36.8599 37.5175 35.686 37.5175L35.686 38.9175C37.6475 38.9175 39.2245 37.3122 39.2245 35.3479L37.8245 35.3479ZM36.5019 33.3424C37.2991 33.6763 37.8245 34.466 37.8245 35.3479L39.2245 35.3479C39.2245 33.9086 38.3667 32.6056 37.0427 32.0511L36.5019 33.3424ZM34.1766 33.8111C34.7887 33.1923 35.7059 33.0091 36.5019 33.3424L37.0427 32.0511C35.7173 31.4961 34.1928 31.8039 33.1813 32.8265L34.1766 33.8111ZM33.7114 36.1807C33.3779 35.3669 33.5632 34.4312 34.1766 33.8111L33.1813 32.8265C32.171 33.8479 31.8706 35.3807 32.4159 36.7115L33.7114 36.1807Z" fill="#3F3D56" mask="url(#path-5-inside-1)"/>
<path d="M1.20915 17.7292C0.778326 17.7308 0.379415 17.5112 0.162996 17.1534C-0.0534234 16.7955 -0.0543891 16.3539 0.160463 15.9952C1.69051 13.5181 6.34084 7.72992 16.5011 7.72992C20.9021 7.72992 24.7616 8.85287 27.9678 11.0657C30.6068 12.8823 32.0852 14.9383 32.7901 15.9291C32.9706 16.1816 33.0386 16.4929 32.9788 16.7938C32.9191 17.0946 32.7366 17.3601 32.472 17.531C31.9178 17.8878 31.168 17.7518 30.7873 17.2255C29.5065 15.442 25.6212 10.0254 16.5011 10.0254C7.59582 10.0254 3.57299 15.0126 2.25784 17.1512C2.04434 17.5133 1.64235 17.7348 1.20915 17.7292Z" fill="#40EAEA"/>
<path d="M21.5728 41.7298C21.4699 41.7311 21.3672 41.7198 21.2673 41.696C13.7874 39.8804 10.9945 32.5671 10.881 32.2631L10.8636 32.1955C10.8025 31.9844 9.30127 26.9681 11.6055 24.0292C12.6615 22.6865 14.2675 22.0025 16.3884 22.0025C18.3609 22.0025 19.7836 22.602 20.7611 23.8435C21.5641 24.8568 21.887 26.1067 22.2012 27.3143C22.8558 29.8225 23.3271 31.1399 26.0502 31.275C27.246 31.3341 28.0315 30.6501 28.4766 30.0674C29.6811 28.4797 29.8905 25.8871 28.9828 23.607C27.8133 20.6513 23.6762 15.0861 16.3796 15.0861C13.2638 15.0861 10.401 16.0657 8.10554 17.9067C6.20284 19.4352 4.6929 21.5887 3.96848 23.8012C2.62438 27.9224 4.38742 34.3996 4.40488 34.4587C4.48774 34.7612 4.44211 35.0831 4.27816 35.3528C4.1142 35.6225 3.84555 35.8175 3.53208 35.8944C2.87724 36.0616 2.20489 35.6893 2.02215 35.0583C1.94359 34.7628 0.0583538 27.8548 1.61193 23.0919C3.30516 17.932 8.52448 12.7299 16.3796 12.7299C20.0105 12.7299 23.4406 13.9375 26.3033 16.2177C28.5202 17.9911 30.3357 20.3726 31.2783 22.7541C32.4827 25.7942 32.1598 29.206 30.4579 31.4354C29.3232 32.9218 27.7085 33.6987 25.9193 33.6142C21.2586 33.3862 20.4207 30.2025 19.8097 27.8801C19.1813 25.4987 18.7798 24.3501 16.3796 24.3501C15.0617 24.3501 14.1366 24.7048 13.5605 25.4395C12.775 26.4445 12.7139 28.0152 12.8012 29.1553C12.8021 29.1672 12.8029 29.1791 12.8039 29.191C12.9193 30.6414 13.3732 32.0476 14.1314 33.3038C15.343 35.3252 17.8007 38.4253 21.8783 39.4159C22.1928 39.4896 22.4638 39.6818 22.631 39.9499C22.7982 40.2179 22.8477 40.5395 22.7685 40.8431C22.6227 41.3661 22.1326 41.7296 21.5728 41.7298Z" fill="#40EAEA"/>
<path d="M16.5 29.7299C17.3284 29.7299 18 29.0583 18 28.2299C18 27.4015 17.3284 26.7299 16.5 26.7299C15.6716 26.7299 15 27.4015 15 28.2299C15 29.0583 15.6716 29.7299 16.5 29.7299Z" fill="#40EAEA"/>
<path d="M12.1975 41.7299C11.8647 41.7301 11.5464 41.5955 11.3165 41.3573C8.38258 38.2747 6.72319 34.828 6.09877 30.5175V30.4921C5.74808 27.6382 6.26129 23.5987 8.77604 20.821C10.6322 18.7716 13.241 17.7299 16.517 17.7299C20.3918 17.7299 23.4369 19.5337 25.3358 22.9381C26.1939 24.5038 26.7563 26.2113 26.9952 27.9769C27.0538 28.6285 26.5729 29.2059 25.9157 29.2731C25.2584 29.3402 24.6686 28.8722 24.5916 28.2225C24.3835 26.7463 23.9052 25.32 23.1803 24.0136C21.709 21.4138 19.468 20.0927 16.5085 20.0927C13.951 20.0927 11.9494 20.8633 10.5723 22.3876C8.58787 24.581 8.20295 27.96 8.47667 30.1957C9.0241 34.0066 10.4868 37.0383 13.0699 39.7483C13.2878 39.9762 13.4041 40.2812 13.3928 40.5948C13.3816 40.9085 13.2437 41.2045 13.0101 41.4166C12.7878 41.6171 12.4982 41.7288 12.1975 41.7299Z" fill="#40EAEA"/>
</svg>
