<svg id="Layer_1" data-name="Layer 1" xmlns="http://www.w3.org/2000/svg" viewBox="0 0 500 250"><defs><style>.cls-1{fill:#2f2e41;}.cls-2{fill:#a0aabb;}.cls-3{fill:#f2f2f2;}.cls-4{fill:#fff;}.cls-5{fill:#40eaea;}.cls-6{fill:#b3f7f7;}.cls-7{fill:#201f2b;}.cls-8{fill:#3f3d56;}.cls-9{fill:#dadada;}.cls-10{fill:#f83633;}.cls-11{fill:#ba2926;}</style></defs><title>illustration-social</title><polygon class="cls-1" points="330.27 118.16 327.08 120.36 327.05 146.14 330.24 148.35 352.01 163.47 352.07 103.08 330.27 118.16"/><path class="cls-2" d="M327,161.34a5.8,5.8,0,0,1-5.81,5.79L236,167.05a5.81,5.81,0,0,1-5.79-5.81l.06-56.18a5.8,5.8,0,0,1,5.8-5.79l85.25.09a5.8,5.8,0,0,1,5.8,5.8Z"/><path class="cls-3" d="M321.18,71.29A19.28,19.28,0,1,1,301.92,52,19.28,19.28,0,0,1,321.18,71.29Z"/><path class="cls-1" d="M301.93,43.21A28.07,28.07,0,1,0,330,71.3,28.07,28.07,0,0,0,301.93,43.21ZM286.35,79A7.68,7.68,0,1,1,294,71.31,7.67,7.67,0,0,1,286.35,79Zm15.52-30.92a7.67,7.67,0,1,1-7.67,7.66A7.67,7.67,0,0,1,301.87,48.06Zm.05,46.43a7.68,7.68,0,1,1,7.69-7.67A7.68,7.68,0,0,1,301.92,94.49Zm15.51-15.58a7.67,7.67,0,1,1,7.69-7.66A7.67,7.67,0,0,1,317.43,78.91Z"/><path class="cls-3" d="M265.38,76.11a14.74,14.74,0,1,1-14.73-14.76A14.74,14.74,0,0,1,265.38,76.11Z"/><path class="cls-1" d="M250.66,52.9a23.2,23.2,0,1,0,23.17,23.22A23.19,23.19,0,0,0,250.66,52.9ZM237.79,82.46a6.34,6.34,0,1,1,6.34-6.34A6.34,6.34,0,0,1,237.79,82.46Zm12.83-25.55a6.34,6.34,0,1,1-6.35,6.33A6.34,6.34,0,0,1,250.62,56.91Zm0,38.37A6.34,6.34,0,1,1,257,88.94,6.36,6.36,0,0,1,250.66,95.28ZM263.48,82.4a6.34,6.34,0,1,1,6.34-6.33A6.34,6.34,0,0,1,263.48,82.4Z"/><rect class="cls-3" x="134.39" y="43.89" width="76.86" height="130.26"/><rect class="cls-4" x="146.33" y="43.89" width="52.99" height="39.77"/><rect class="cls-4" x="146.33" y="89.14" width="52.99" height="39.77"/><rect class="cls-4" x="146.33" y="134.38" width="52.99" height="39.77"/><rect class="cls-4" x="136.46" y="44.02" width="5.81" height="6.01"/><rect class="cls-4" x="136.46" y="53.56" width="5.81" height="6.01"/><rect class="cls-4" x="136.46" y="63.1" width="5.81" height="6"/><rect class="cls-4" x="136.46" y="72.64" width="5.81" height="6.01"/><rect class="cls-4" x="136.46" y="82.17" width="5.81" height="6.01"/><rect class="cls-4" x="136.46" y="91.71" width="5.81" height="6.01"/><rect class="cls-4" x="136.46" y="101.25" width="5.81" height="6.01"/><rect class="cls-4" x="136.46" y="110.79" width="5.81" height="6.01"/><rect class="cls-4" x="136.46" y="120.33" width="5.81" height="6.01"/><rect class="cls-4" x="136.46" y="129.86" width="5.81" height="6.01"/><rect class="cls-4" x="136.46" y="139.4" width="5.81" height="6.01"/><rect class="cls-4" x="136.46" y="148.94" width="5.81" height="6.01"/><rect class="cls-4" x="136.46" y="158.48" width="5.81" height="6.01"/><rect class="cls-4" x="136.46" y="168.02" width="5.81" height="6"/><rect class="cls-4" x="203.37" y="44.02" width="5.81" height="6.01"/><rect class="cls-4" x="203.37" y="53.56" width="5.81" height="6.01"/><rect class="cls-4" x="203.37" y="63.1" width="5.81" height="6"/><rect class="cls-4" x="203.37" y="72.64" width="5.81" height="6.01"/><rect class="cls-4" x="203.37" y="82.17" width="5.81" height="6.01"/><rect class="cls-4" x="203.37" y="91.71" width="5.81" height="6.01"/><rect class="cls-4" x="203.37" y="101.25" width="5.81" height="6.01"/><rect class="cls-4" x="203.37" y="110.79" width="5.81" height="6.01"/><rect class="cls-4" x="203.37" y="120.33" width="5.81" height="6.01"/><rect class="cls-4" x="203.37" y="129.86" width="5.81" height="6.01"/><rect class="cls-4" x="203.37" y="139.4" width="5.81" height="6.01"/><rect class="cls-4" x="203.37" y="148.94" width="5.81" height="6.01"/><rect class="cls-4" x="203.37" y="158.48" width="5.81" height="6.01"/><rect class="cls-4" x="203.37" y="168.02" width="5.81" height="6"/><rect class="cls-5" x="162.72" y="133.03" width="102.3" height="9.6"/><polygon class="cls-4" points="166.1 133.03 162.72 138.15 162.72 142.62 166.47 142.62 172.82 133.03 166.1 133.03"/><polygon class="cls-6" points="180.07 142.63 173.35 142.62 179.7 133.03 186.41 133.03 180.07 142.63"/><polygon class="cls-6" points="193.66 142.63 186.94 142.63 193.29 133.03 200.01 133.03 193.66 142.63"/><polygon class="cls-6" points="207.26 142.63 200.54 142.63 206.89 133.03 213.6 133.03 207.26 142.63"/><polygon class="cls-6" points="220.85 142.63 214.13 142.63 220.48 133.03 227.2 133.03 220.85 142.63"/><polygon class="cls-6" points="234.44 142.63 227.72 142.63 234.07 133.03 240.79 133.04 234.44 142.63"/><polygon class="cls-6" points="248.04 142.63 241.32 142.63 247.67 133.04 254.39 133.04 248.04 142.63"/><polygon class="cls-6" points="265.02 133.04 261.26 133.04 254.91 142.63 261.63 142.63 265.02 137.51 265.02 133.04"/><polygon class="cls-5" points="162.72 133 263.18 114.43 261.44 105 162.72 123.24 162.72 133"/><polygon class="cls-4" points="164.17 122.97 162.72 126.38 162.72 133 166.28 132.34 170.77 121.75 164.17 122.97"/><polygon class="cls-6" points="179.65 129.87 173.03 131.09 177.54 120.5 184.14 119.28 179.65 129.87"/><polygon class="cls-6" points="193.01 127.4 186.4 128.62 190.9 118.03 197.51 116.81 193.01 127.4"/><polygon class="cls-6" points="206.38 124.93 199.77 126.15 204.27 115.56 210.88 114.34 206.38 124.93"/><polygon class="cls-6" points="219.75 122.46 213.14 123.68 217.64 113.09 224.25 111.87 219.75 122.46"/><polygon class="cls-6" points="233.11 119.99 226.51 121.21 231.01 110.62 237.61 109.39 233.11 119.99"/><polygon class="cls-6" points="246.48 117.52 239.88 118.74 244.37 108.15 250.98 106.93 246.48 117.52"/><polygon class="cls-6" points="261.44 105 257.74 105.68 253.24 116.27 259.85 115.05 262.25 109.4 261.44 105"/><polygon class="cls-5" points="182.04 142.63 162.72 142.62 162.72 123.22 172.38 121.45 182.04 133.13 182.04 142.63"/><path class="cls-4" d="M169.67,126.88a1.7,1.7,0,1,1-1.7-1.7A1.71,1.71,0,0,1,169.67,126.88Z"/><path class="cls-4" d="M169.67,138.66A1.7,1.7,0,1,1,168,137,1.7,1.7,0,0,1,169.67,138.66Z"/><circle class="cls-4" cx="177.43" cy="138.66" r="1.7"/><path class="cls-5" d="M162.71,142.62v53a1.4,1.4,0,0,0,1.4,1.4l99.5,0a1.41,1.41,0,0,0,1.4-1.41v-53Z"/><path class="cls-6" d="M169.34,148.8v42h89v-42Zm88.12,26.82H231.87V149.74h25.58Zm-87.19,14.26V183.5l87.19,0v6.37Zm0-7.08v-6.49h87.19v6.49Zm26.27-7.19V149.74H231v25.88Zm-.93-25.87v25.87H170.27V149.74Z"/><path class="cls-2" d="M338.26,154.57c1.66-5.69,7.89-19.18,9-22.08,1.27-3.33,3.8-3.63,5.46-3.23a5,5,0,0,1,3.21,5.77c-.81,3.1-6.89,17.15-10.11,22.45-.95,1.54-2.34,4.18-5.58,2.77C337.7,159.14,337.8,156.14,338.26,154.57Z"/><path class="cls-7" d="M367.18,233.85s-.61.79-.61,3.4c0,1.2,1.55,1.47,3,1.47,1.86,0,2.64,5.55,8.34,5.55,3.22,0,3.85-2.25,2.3-3.7-3-2.82-6.23-5.1-8.3-6.72Z"/><path class="cls-3" d="M367.18,235a2.39,2.39,0,0,0,2.35,1.15,2.94,2.94,0,0,0,2.34-1.15V231.1h-4.69Z"/><path class="cls-7" d="M359.47,233.85s.61.79.61,3.4c0,1.2-1.55,1.47-3,1.47-1.87,0-2.64,5.55-8.34,5.55-3.22,0-3.85-2.25-2.3-3.7,3-2.82,6.23-5.1,8.29-6.72Z"/><path class="cls-3" d="M359.47,235a2.4,2.4,0,0,1-2.35,1.15,3,3,0,0,1-2.35-1.15V231.1h4.7Z"/><path class="cls-8" d="M376.81,173.11H350.16l3,59.94a10.72,10.72,0,0,0,4.19,1.26,5.48,5.48,0,0,0,3.67-1.15l2.59-51.52,5,23.73h0l-2.09,27.13s.38,1.5,3.12,1.5a16.67,16.67,0,0,0,4.08-.55l6.37-28.08h0Z"/><path class="cls-4" d="M377.4,176.66v-46c0-1.5-1.32-2.45-2.71-3l-7.53-3h-7a67.21,67.21,0,0,0-7.53,3c-1.3.76-2.72,1.52-2.72,3v46Z"/><path class="cls-2" d="M377.4,176.66v-46c0-1.5-1.32-2.45-2.71-3l-7.53-3-3.49,19.17-3.47-19.17a67.21,67.21,0,0,0-7.53,3c-1.3.76-2.87,1.76-2.87,2.47l.15,46.53Z"/><polygon class="cls-9" points="367.16 124.66 363.62 128.36 360.19 124.66 360.19 121.25 367.16 121.25 367.16 124.66"/><path class="cls-9" d="M371.38,117.25c0,1.48-3.8,6-7.71,6-3.75,0-7.7-4.25-7.7-6v-5.71a7.71,7.71,0,0,1,7.7-7.71h0a7.7,7.7,0,0,1,7.71,7.71Z"/><path class="cls-9" d="M372.77,114.76c-.29.85-1,1.37-1.66,1.16a1.48,1.48,0,0,1-.63-1.93c.29-.84,1-1.36,1.66-1.15A1.47,1.47,0,0,1,372.77,114.76Z"/><path class="cls-9" d="M354.59,114.76c.29.85,1,1.37,1.66,1.16a1.47,1.47,0,0,0,.62-1.93c-.28-.84-1-1.36-1.65-1.15A1.46,1.46,0,0,0,354.59,114.76Z"/><path class="cls-4" d="M363.62,128.36l3.54-3.7,1.77.7a9.52,9.52,0,0,1,2.45,4.91l-2.59-1.54Z"/><path class="cls-4" d="M363.62,128.36l-3.42-3.71-1.94.59a10.37,10.37,0,0,0-2.4,5l2.59-1.54Z"/><path class="cls-1" d="M356,114.38s.84-3,2.66-4.32l1.11-1.65s1.19-.31,3.93.79,3.46,2.78,6.14,2.17a23.81,23.81,0,0,1,1.34,3.19,24.77,24.77,0,0,0,.79-3.83c.2-1.85.49-6.63-5.3-8.15-6-1.57-8.6,2.28-8.6,2.28s-.55-.62-2.07,1.74c-1.1,1.71-1.16,4.57,0,8"/><path class="cls-1" d="M371.43,114.87a5.9,5.9,0,0,0-1.24-2.71s.49,3.5-.82,5.19c-1.15,1.48-4.76,3.8-5.79,3.8s-4.64-2.32-5.79-3.8c-1.32-1.69-.81-5.61-.81-5.61a8.58,8.58,0,0,0-1.25,3.13,6.32,6.32,0,0,0,.58,3.94c1.08,1.61,4.67,4.06,4.67,4.06a7.63,7.63,0,0,0,2.6.93,7.53,7.53,0,0,0,2.6-.93s3.66-2.25,4.74-3.86S371.43,114.87,371.43,114.87Z"/><path class="cls-1" d="M368.11,119.68l-.76-1.18a6.41,6.41,0,0,0-3.5-1.07c-2.42,0-3.88.55-4.24.91a6.37,6.37,0,0,0-.9,1.27l-1.38-.72a7.66,7.66,0,0,1,1.18-1.66c.83-.83,2.93-1.37,5.34-1.37a7.86,7.86,0,0,1,4.56,1.48l.1.08.91,1.4Z"/><path class="cls-4" d="M376.49,144.72l0,0v0a.09.09,0,0,0,0,0,.09.09,0,0,0,0-.07,1.62,1.62,0,0,0-.48-.92l0,0a0,0,0,0,0,0,0l0-.09v0a.31.31,0,0,0,0-.08v0a.2.2,0,0,0,0-.07s0,0,0,0a.19.19,0,0,0,0-.08V143a0,0,0,0,1,0,0l0-.11h0a.14.14,0,0,0,0-.06,0,0,0,0,0,0,0,1.44,1.44,0,0,0-.43-.53,3.79,3.79,0,0,1-.61-.61v-.15a.57.57,0,0,1,.06-.29l.07-.08h0a.45.45,0,0,0,.12-.25h0v-.13a.06.06,0,0,0,0,0h0v-.06s0,0,0,0,0,0,0,0l0-.06c-.23-.33-.86-.68-1-.31a.46.46,0,0,1-.19.23c-.16-.25,0-.65-.14-1h0s0,0,0,0v0l0,0v0l0,0h0s0,0,0,0,0,0,0,0l0,0s0,0,0,0l0,0h0l-.06,0a1.79,1.79,0,0,0-1.14-.1v0s0,0,0,0v0h0v0s0,0,0,0a0,0,0,0,1,0,0v0a.3.3,0,0,0,0-.08c-.06-.12-.16-.33-.26-.49a.42.42,0,0,0,.23-.38v-.09h0a1.38,1.38,0,0,1,0-.22h0a.47.47,0,0,1,.22-.37.5.5,0,0,0,.08-.61h0l0,0h0l0,0h0s0,0,0,0h0l0,0h0s0,0,0,0h0l0,0h-.43l-.06,0c-.14.08-.38.18-.61.3a.3.3,0,0,0-.08-.17c-.23-.22-.86-.69-1.32-.26s-.89,0-1.17.53l-.06.1h0a.56.56,0,0,1-.05.08h0l-.1.15h0a.75.75,0,0,1-.21.2.92.92,0,0,0-.52-.24c-.29-.07-.3-.28-.4-.79s-.14-.95-1-.68a.63.63,0,0,0-.4.82,2.37,2.37,0,0,1-.35-.42.08.08,0,0,1,0,.05.29.29,0,0,0-.19-.18c-.42-.13-.63.46-.63.46-.14.26-.34.21-.87.18-.34,0-.65-.06-.8.19h-.47l-.18,0-.11,0-.05,0-.09,0h0l0,0-.08,0H362l-.06,0,0,0,0,0h0l0,0,0,0,0,0,0,0-.07.07a3.58,3.58,0,0,0-.68.77v0h0V138l0,0v0s0,0,0,0a.06.06,0,0,1,0,0s0,0,0,0,.1.3.14.45a.64.64,0,0,0-.31.22c-.39.49-.89.15-1.08.69a.49.49,0,0,0,0,.11h0l0,.09h0l0,.08h0a.16.16,0,0,0,0,.07.59.59,0,0,1-.24.27,2.47,2.47,0,0,1-.75-.06l.06,0a.3.3,0,0,0-.29,0c-.41.22-.14.83-.14.83.09.32-.1.43-.53.8s-.81.65-.08,1.33a0,0,0,0,0,0,0l0,.06,0,0h0v.06s0,0,0,.06v.11a.22.22,0,0,0,0,.08v.34h0v.22h0v.1h0a.7.7,0,0,1-.07.36l0,0h0l0,0h0a.71.71,0,0,0-.14.29h0v0a0,0,0,0,0,0,0v.2s0,0,0,0,0,0,0,0a.08.08,0,0,1,0,0l0,0a.16.16,0,0,0,0,.07c.27.4,1,.82,1.23.38s.45-.28.63-.19a1.44,1.44,0,0,0,1.19,0,.84.84,0,0,0,.39-.25l.1.07c.27.14,1.13.77,1.4.58s1.17.07,1.23-.44c0,0,0-.06,0-.09v0s0,0,0-.05,0,0,0,0l0,0a0,0,0,0,1,0,0l0,0s0,0,0,0l0,0,0,0,0,0,0,0s0,0,0,0l0,0a0,0,0,0,1,0,0v0l0,0a0,0,0,0,1,0,0v0a.06.06,0,0,0,0,0v0s0,0,0,0,0,0,0,0,0,0,0,0v0s0,0,0-.05l0,0,0,0h0l-.1-.13a.25.25,0,0,0,.1,0,1.61,1.61,0,0,0,.27.6c.18.16.41.65.66.6a5.61,5.61,0,0,0,.72-.13.68.68,0,0,0,.33.17l.11,0h0l.09,0h.25l.07,0h0l.08,0,0,0h0l0,0,0,0,.09,0h0l.05,0h0l.16-.15h0a1.6,1.6,0,0,0,.25-.4,3.35,3.35,0,0,1,.33-.59c.19.4.39.3.65.5s.84,0,1.36-.36l0,0,.08,0h0s0,0,0,0l0,0,0,0,0,0,0,0s0,0,0,0l0,0h0l0,.05h0l0,0h0l0,0h0l0,0h0l.05,0h.22l0,0h0l.14-.07a.75.75,0,0,0,.08.27h0s0,0,0,.05h0l0,0h0l0,0h0l0,0h0s0,0,0,0h0l0,0h.08c.36,0,.4-.3.56-.42s.28-.1.37-.3a.92.92,0,0,1,.48-.49l0,0h0s0,0,0,0h0l0,0h0v.13s0,0,0,0v0l0,0v0l0,0a0,0,0,0,0,0,0s0,0,0,0l0,0,0,0,0,0c.34.22,1,.87,1.39.72a1.6,1.6,0,0,0,.69.36c.28,0,.78.27,1,0a4.82,4.82,0,0,0,.91-.9h0A.08.08,0,0,0,376.49,144.72Z"/><polygon class="cls-4" points="373.38 169.93 359.87 169.93 357.12 144.89 376.12 144.89 373.38 169.93"/><polygon class="cls-10" points="361.1 169.93 359.87 169.93 357.12 144.89 358.85 144.89 361.1 169.93"/><polygon class="cls-10" points="363.55 169.93 362.32 169.93 360.58 144.89 362.3 144.89 363.55 169.93"/><polygon class="cls-10" points="366.01 169.93 364.78 169.93 364.03 144.89 365.76 144.89 366.01 169.93"/><polygon class="cls-10" points="368.46 169.93 367.23 169.93 367.48 144.89 369.21 144.89 368.46 169.93"/><polygon class="cls-10" points="370.92 169.93 369.69 169.93 370.94 144.89 372.66 144.89 370.92 169.93"/><polygon class="cls-10" points="373.38 169.93 372.15 169.93 374.39 144.89 376.12 144.89 373.38 169.93"/><path class="cls-4" d="M377.15,144.89a.54.54,0,0,1-.54.53h-20a.54.54,0,0,1-.54-.53h0a.53.53,0,0,1,.54-.53h20a.53.53,0,0,1,.54.53Z"/><path class="cls-2" d="M366.86,166.41c13.36-1,24.93-12,24.93-12,0-15.36-12.25-23.85-15.66-25.92,0,0,1.27,1.33,1.27,2.23v13.25c2.76,3,3.79,3.5,5.11,7.76-4.63,3.78-8.8,6.71-17.7,8.26Z"/><path class="cls-9" d="M366.62,165.68s-5.62,4.26-10.12-.4c-.63-.65-1.06-2.13,1.78-2.33s4.22-.28,3.46-.95-1.5-1-.22-1.14a22.43,22.43,0,0,1,3.64.21Z"/><path class="cls-4" d="M364.28,137.26a14.51,14.51,0,0,0,.52-1.82.38.38,0,0,0,0-.1v-.26c0-.29,0-.59,0-.88s-.15-.83-.17-.92a5.79,5.79,0,0,1,.08-2.81h-.42l0,0h0l0,0h0l0,0h0l0,0h0l0,0h0l0,0h0s0,0,0,.06-.21.38-.32.6a.33.33,0,0,0-.16-.09c-.32,0-1.11,0-1.21.59s-.71.55-.62,1.12c0,0,0,.08,0,.12h0a.38.38,0,0,1,0,.1h0a1,1,0,0,1,0,.17h0a.62.62,0,0,1,0,.3.85.85,0,0,0-.56.12c-.28.11-.41-.05-.79-.41s-.69-.67-1.23.08a.63.63,0,0,0,.18.89,2.19,2.19,0,0,1-.54-.13l0,0a.29.29,0,0,0-.26,0c-.41.15-.23.74-.23.74,0,.3-.15.38-.58.67s-.56.35-.53.64h0l0,0,0,0h0c-.08.06-.18.13-.28.22l-.13.12-.08.09,0,0-.05.07h0l0,0a.16.16,0,0,0,0,.07l0,0v0l0,.06s0,0,0,0,0,0,0,0h0a0,0,0,0,1,0,0s0,0,0,0a.11.11,0,0,0,0,.05l0,0v0a.36.36,0,0,0,0,.1,4.21,4.21,0,0,0-.08,1l0,0v0l0,0v0l.05,0,0,0,0,0s0,0,0,0l0,0,.39.27a.63.63,0,0,0-.13.36.79.79,0,0,1-.15.46,5.29,5.29,0,0,0,2.66.59,5.88,5.88,0,0,0,3.76-1.48c.43-.5.87-1,1.31-1.48C364.26,137.35,364.26,137.31,364.28,137.26Z"/><path class="cls-2" d="M355,140.5s-12.81,11.37-15.36,13.6a4.16,4.16,0,0,0-1,5.54c.95,1.28,3.23,2.52,6,.37s13.42-16.87,13.42-16.87Z"/><path class="cls-9" d="M357.92,143s4.51-.24,7.31-7.36c.77-2-.77-3.3-2.73-.16-1.66,2.67-5.65,4.26-4.36,2.71.84-1,1.79-2.32.82-2.13-2,.4-3.64,4.73-3.64,4.73Z"/><path class="cls-1" d="M298.41,122.65s2.8-.86,3.89-6c.19-.88.74-3.15.88-4.51.52-4.77-2.27-8.38-8.43-8.38-2.71,0-6.52,1.57-8.94,6.15-2.92,5.54-.66,7-3.15,9.53s-2.65,4.4-.81,6.89,3.08,4.4,2.2,6.38-1.18,7.4,4,5.28,10.37-12.83,10.37-12.83Z"/><rect class="cls-9" x="292.38" y="121.81" width="6.03" height="5.46"/><path class="cls-9" d="M301.77,116.77c-.52,2.25-3.66,6.5-6.49,6.5-2.44,0-6.36-3.54-6.53-5.87,0,0-.61-4.17-.7-5.57-.25-4.13,3.62-7.5,7.23-7.5h0c3.59,0,7.61,3.37,7.31,7.5A37.43,37.43,0,0,1,301.77,116.77Z"/><path class="cls-1" d="M290.57,229v13.54c0,1.46-1.81,2.51-3.86,2.51s-4.1-.8-4.1-2.68c0-2.56,3.59-4.66,3.59-11.1,0-.72-.05-2.27-.05-2.27Z"/><path class="cls-1" d="M297.83,229a4,4,0,0,0-.83,2.73v9.41a1.42,1.42,0,0,0,.68,1.22c.41.36,2.58,2,3.06,2.32A3,3,0,0,0,302,245h2.6c2.37,0,3.59-.52,3.59-2.85,0-1.68-.64-2.29-2-2.29-.86,0-1.81-1.41-2.23-3.13a76.83,76.83,0,0,1-1.69-7.78Z"/><path class="cls-9" d="M297.83,229a2.24,2.24,0,0,0,2.21,1.1,2.8,2.8,0,0,0,2.21-1.1l.88-4.64h-5.3Z"/><path class="cls-9" d="M290.57,229a2.26,2.26,0,0,1-2.21,1.1,2.8,2.8,0,0,1-2.21-1.1l-.81-4.64h5.18Z"/><path class="cls-8" d="M292.17,224.31l2.31-49.87,4.72,21.83h0l-1.82,28h7.23l5.42-28c2.23-14.73-3.9-33.76-3.9-33.76h-22S281.49,178.23,281,183c-1.25,12.64,3.51,41.29,3.51,41.29Z"/><path class="cls-11" d="M306.35,129.19l-7.94-3.65a3.35,3.35,0,0,1-2.82,1.24,4.2,4.2,0,0,1-3.21-1.24s-6,3.16-8.25,4.16c0,0-1.29,10.71,1,17.73s-1,15.08-1,15.08a23.83,23.83,0,0,0,10.4,2.66,30.65,30.65,0,0,0,11.62-2.66s-3.82-7.57-1.13-15C308.25,138.66,306.35,129.19,306.35,129.19Z"/><path class="cls-9" d="M304,115.09a1.29,1.29,0,1,1-2.33-.79c.29-.87,1.05-1.4,1.69-1.18A1.5,1.5,0,0,1,304,115.09Z"/><path class="cls-1" d="M302.35,113.79s-1.36-.14-1.44,1.62c0,0,0-3.54-1.28-5.63a7,7,0,0,1-5.14,2.75c-3.29.11-5.07,1.13-5.94,3.44,0,0-1.68-3.77-.51-7.18s5.39-4.81,7.7-4.73S304.79,107.35,302.35,113.79Z"/><path class="cls-11" d="M275.14,151.47a3.62,3.62,0,0,0,2.25,4.11c1.5.76,4-1.11,4.61-2.69.89-2.41,2.47-8.08,2.47-8.08.16-.53,0-15.62-.34-15.11C280.17,135.49,275.14,151.47,275.14,151.47Z"/><path class="cls-11" d="M315.43,151a3.61,3.61,0,0,1-2.26,4.1c-1.49.76-4-1.11-4.6-2.69-.89-2.42-2.47-8.08-2.47-8.08-.17-.52,0-15.62.34-15.11C310.4,135,315.43,151,315.43,151Z"/><path class="cls-4" d="M313.27,143.2s-12.45-.24-17-.2c-.63,0-1.08,0-2.28,1-.74.65-1.6,1.61-2.69,2.81-.4.44-.32.78,0,.93l1.38.67c.44.22.78,0,1.09-.48.41-.65,1.06-1.75,1.56-2.57a7.65,7.65,0,0,1,.45-.69c.17-.24.78-.09.78-.09l14.59,3Z"/><path class="cls-4" d="M275.71,125s7.87,9.59,10.65,13.18c.39.49.68.84.61,2.43a37.54,37.54,0,0,1-.54,3.84c-.1.59-.41.74-.72.59l-1.38-.66c-.44-.22-.49-.61-.29-1.16.26-.72.71-1.91,1-2.81.15-.39.19-.52.27-.79s-.41-.66-.41-.66l-11.36-9.56Z"/><path class="cls-4" d="M312.79,141.83,297,134.2a1,1,0,0,0-1.36.48s-.16.25-.42.69L293,134.3c.19-.47.28-.75.28-.75a1,1,0,0,0-.48-1.37l-15.76-7.63a1,1,0,0,0-1.37.48l-4.22,8.73a1.12,1.12,0,0,0,.47,1.37c2.93,2.33,8.53,5.58,10.93,6.26,4.11,1.16,5.78.11,6.91-1.31.24-.3.46-.6.68-.91a.7.7,0,0,1,.08-.2,1.4,1.4,0,1,1,2.52,1.22.08.08,0,0,1,0,0h0c-.12.41-.24.83-.34,1.26-.41,1.77-.2,3.73,3.26,6.23,2,1.47,8,3.84,11.69,4.69a1.13,1.13,0,0,0,1.37-.48l4.23-8.73A1,1,0,0,0,312.79,141.83Z"/><path class="cls-5" d="M288.26,138.81c-.88,1.08-2.19,1.87-5.48.92a37.88,37.88,0,0,1-8.77-5,.91.91,0,0,1-.4-1.07l3.25-6.7a.8.8,0,0,1,1.08-.35l12.63,6.11a.79.79,0,0,1,.39,1.06A18,18,0,0,1,288.26,138.81Z"/><path class="cls-10" d="M296.71,136.38a.82.82,0,0,1,1.12-.36L311,142.38a.83.83,0,0,1,.41,1.11l-3.37,7a.93.93,0,0,1-1.13.37,39.42,39.42,0,0,1-9.75-3.94c-2.9-2.07-3.1-3.65-2.79-5.07A18.68,18.68,0,0,1,296.71,136.38Z"/><path class="cls-9" d="M281.12,152.05s-6.34-14.07-5.87-15.24c.25-.64,1.26-3.25,1.51-3.8,1.5-3.25-2.94-7.36-5.62.32-.47,1.35.29,3.17.56,4a6.59,6.59,0,0,1,.26,1.19l3.16,14.87a3,3,0,0,0,3.69,2.32A3.05,3.05,0,0,0,281.12,152.05Z"/><path class="cls-9" d="M313.3,149.17s-15.44.11-16.32-.79c-.47-.49-2.45-2.47-2.85-2.93-2.37-2.68-7.93-.28-2,5.27,1.05,1,3,1,3.85,1.1a6.69,6.69,0,0,1,1.2.24l14.87,3.12a3,3,0,0,0,3.61-2.43A3.06,3.06,0,0,0,313.3,149.17Z"/><path class="cls-4" d="M140.93,147.72l2.23-42.65c0-1.37-1.22-2.24-2.49-2.76-2.09-.85-8.17-2.76-8.17-2.76l-3.2,4-3.19-4a59.63,59.63,0,0,0-7.38,2.76c-1.19.68-2.62,1.61-2.62,2.25l2.22,43.16Z"/><path class="cls-5" d="M129.63,105.15a.42.42,0,1,1-.42-.42A.42.42,0,0,1,129.63,105.15Z"/><circle class="cls-5" cx="129.21" cy="113.22" r="0.42"/><path class="cls-5" d="M129.63,121.3a.42.42,0,0,1-.84,0,.42.42,0,1,1,.84,0Z"/><path class="cls-5" d="M129.63,128.16a.42.42,0,1,1-.42-.42A.42.42,0,0,1,129.63,128.16Z"/><path class="cls-5" d="M129.63,136.23a.42.42,0,1,1-.84,0,.42.42,0,1,1,.84,0Z"/><path class="cls-5" d="M129.63,143.09a.42.42,0,1,1-.42-.41A.42.42,0,0,1,129.63,143.09Z"/><path class="cls-8" d="M117.87,145.73l1.31,31.51,3.71,25.13a6.25,6.25,0,0,0,2.32.29c1.67,0,1.86-.18,1.86-.18l3-43.79,2.18,43.79s.19.18,1.86.18a6.25,6.25,0,0,0,2.32-.29l3.71-25.13.86-31.51Z"/><polygon class="cls-1" points="140.94 148.7 141.03 145.73 117.88 145.73 118 148.7 140.94 148.7"/><path class="cls-5" d="M140.57,102.06c-1.53-.61-5.39-1.78-7.79-2.51,0,0-.25,36-.25,46.78a17.81,17.81,0,0,0,4.14,2c1.29.45,5.59.41,5.59.41l.9-43.75C143.16,103.51,141.89,102.61,140.57,102.06Z"/><path class="cls-5" d="M118.7,102.06c1.53-.61,5.4-1.78,7.79-2.51,0,0,.25,36,.25,46.78a17.56,17.56,0,0,1-4.13,2,28.83,28.83,0,0,1-5.6.41l-.9-43.75C116.11,103.51,117.38,102.61,118.7,102.06Z"/><polygon class="cls-9" points="132.78 99.55 129.3 103.5 126.13 99.55 126.13 96.3 132.78 96.3 132.78 99.55"/><path class="cls-9" d="M136.82,92.48c0,1.41-3.64,5.74-7.36,5.74s-7.36-4-7.36-5.74V87a7.35,7.35,0,0,1,7.36-7.35h0A7.36,7.36,0,0,1,136.82,87Z"/><path class="cls-9" d="M138.13,90.11c-.27.81-1,1.3-1.58,1.1a1.39,1.39,0,0,1-.6-1.83c.28-.81,1-1.3,1.58-1.1A1.39,1.39,0,0,1,138.13,90.11Z"/><path class="cls-9" d="M120.78,90.11c.28.81,1,1.3,1.59,1.1a1.38,1.38,0,0,0,.59-1.83c-.27-.81-1-1.3-1.57-1.1A1.39,1.39,0,0,0,120.78,90.11Z"/><path class="cls-1" d="M122.89,202.37c-.28.56-.5,1.87-.83,2.63-.88,2-2.17,2.93-3.27,4.88-.65,1.14-.4,3.88,2.69,4.17a3.93,3.93,0,0,0,4.54-3.22c.45-2.93.33-5,1-7.82.28-1.09-1.06-1.54-2.18-1.52A2.1,2.1,0,0,0,122.89,202.37Z"/><path class="cls-1" d="M136.38,202.37c.27.56.49,1.87.83,2.63.88,2,2.16,2.93,3.27,4.88.64,1.14.4,3.88-2.7,4.17a3.94,3.94,0,0,1-4.54-3.22c-.45-2.93-.32-5-1-7.82-.28-1.09,1.07-1.54,2.18-1.52A2.13,2.13,0,0,1,136.38,202.37Z"/><path class="cls-4" d="M129.3,103.5s.6-1.14,1.36-2.27a9.56,9.56,0,0,1,2.12-1.68,6.79,6.79,0,0,1,.72.13,11.41,11.41,0,0,1,1.05.45s-.64,2.51-.77,2.94A3.26,3.26,0,0,0,129.3,103.5Z"/><path class="cls-4" d="M129.27,103.5a24.9,24.9,0,0,0-1.36-2.27,8.42,8.42,0,0,0-1.76-1.68,9.93,9.93,0,0,0-1.08.13,10.93,10.93,0,0,0-1,.45s.63,2.51.76,2.94A3.26,3.26,0,0,1,129.27,103.5Z"/><path class="cls-1" d="M122.34,89.9h.87a6.43,6.43,0,0,1,2.25-4.26h7.72s2.48.79,2.48,4.26h1a12.82,12.82,0,0,0,.42-5.1c-.09-1.33-.41-2.36-2-2.82,0,0,1.77-3.15-2.8-3.15h-5.07c-1.63,0-5.33,1.77-5.33,7.6A29.38,29.38,0,0,0,122.34,89.9Z"/><path class="cls-5" d="M117.66,102.59s-7.57,2.72-7.57,23.13h6s.84-10.86.85-13A64.59,64.59,0,0,1,117.66,102.59Z"/><polygon class="cls-5" points="116.08 143.65 111.5 143.65 110.09 125.72 116.11 125.72 116.08 143.65"/><path class="cls-9" d="M114.6,152.19h0l-.14-.18c-.66-.69-1.12-1.25-1.12-1.79s0-.72,0-1.19.47-1.56.8-1.56.86,1.08,1,1.29l.11.12c-.42.1-1.17.51-.66,2.13C114.7,151.29,115.23,151.76,114.6,152.19Z"/><path class="cls-9" d="M112.38,145a19,19,0,0,0-.57,4.76,3.24,3.24,0,0,0,2.19,3.15c.17,0,.61,0,.69-.14s.09-.38-.24-.73c-.66-.69-1.12-1.25-1.12-1.79s0-.72,0-1.19.47-1.56.8-1.56.86,1.08,1,1.29c.53.66,1.42.5,1-.25a5.34,5.34,0,0,1-.84-3.54Z"/><rect class="cls-4" x="111.81" y="143.65" width="3.91" height="1.81"/><path class="cls-9" d="M174,69.54h0a1.59,1.59,0,0,0,0,.29c.19,1.23.26,2.18-.14,2.75L173,73.86c-.32.47-1.66,1.31-2,1.07s-.12-1.79-.15-2.15a1.52,1.52,0,0,0,0-.21c.53.2,1.63.33,2.29-1.78C173.18,70.42,173,69.52,174,69.54Z"/><path class="cls-9" d="M175.09,69.24c-.14-.16-.64-.45-.83-.35s-.38.33-.28.94c.19,1.23.26,2.18-.14,2.75L173,73.86c-.32.47-1.63,1.27-2,1-.15-.12-.26-.26-.24-.81l-1.37-.3a6,6,0,0,1-1.52,3L171,78.9a25.37,25.37,0,0,0,4.13-4.67A4.19,4.19,0,0,0,175.09,69.24Z"/><rect class="cls-4" x="167.98" y="75.76" width="2.36" height="5.09" transform="translate(8.31 172.5) rotate(-55.19)"/><path class="cls-5" d="M153.78,96.36c2.47-4,12.24-18.81,12.24-18.81l4.89,3.4s-8.43,14.63-11.62,19.25C157.35,103,151.54,100,153.78,96.36Z"/><path class="cls-5" d="M140.46,108.6a3.44,3.44,0,0,1-4.51-1.82l-.08-.19a3.44,3.44,0,0,1,1.83-4.51l18.05-7.63a3.45,3.45,0,0,1,4.51,1.83l.07.19a3.44,3.44,0,0,1-1.82,4.51Z"/><path class="cls-10" d="M196.47,45.68l.87-.39-1.41-.7c-4.68-2.68-5.71-5.41-3.29-10.31L133.5,5C131,10,128,10.84,122.91,8.46v0l-1.67-.82.22.93-.88.39.23.92-.88.39.22.93-.87.39.22.93-.87.38.22.93-.87.39.22.93-.87.38.22.93-.88.39.22.93-.87.38.23.93-.88.39.22.93-.87.39.22.92-.87.39.22.93-.87.39.22.93-.88.39.23.93-.88.38.22.93-.87.39.22.93-.87.38.22.93-.87.39.22.93-.87.39.22.92-.87.39.22.93-.88.38,1.67.83h0c5,2.58,6.16,5.49,3.67,10.53L172.7,74.56C175.14,69.63,178,68.8,183,71l1.32.65-.21-.93.87-.38-.22-.93.87-.39-.22-.93.87-.38-.22-.93.87-.39-.22-.93.87-.39-.22-.92.88-.39-.23-.93.88-.39-.22-.93.87-.38-.22-.93.87-.39-.22-.93.87-.39-.22-.93.87-.38-.22-.93.88-.39-.22-.93.87-.38-.22-.93.87-.39-.22-.93.87-.39-.22-.92.87-.39-.22-.93.87-.38-.22-.94.87-.38-.22-.93.87-.39Z"/><path class="cls-11" d="M171.18,70.81,116.81,43.89,134.36,8.43l54.38,26.92ZM117.76,43.56l53.1,26.3,16.93-34.19L134.69,9.38Z"/><path class="cls-4" d="M139,27.82,137.88,30l-.21-.11a3.66,3.66,0,0,0,.11-1.28,1.92,1.92,0,0,0-.37-.83,2.55,2.55,0,0,0-.73-.49l-.59-.29-3,6.14a2.39,2.39,0,0,0-.31.8.63.63,0,0,0,.13.4,1.22,1.22,0,0,0,.48.38l.26.13-.1.21L129.34,33l.1-.22.27.13a1.22,1.22,0,0,0,.62.16.65.65,0,0,0,.38-.17,2.72,2.72,0,0,0,.43-.71l3-6.14-.58-.28a1.86,1.86,0,0,0-1.33-.24,2.49,2.49,0,0,0-1.32,1l-.22-.11,1.06-2.16Z"/><path class="cls-4" d="M140,38l-.11.22-4.16-2.06.1-.22.27.13a1.21,1.21,0,0,0,.61.16A.62.62,0,0,0,137,36a2.46,2.46,0,0,0,.43-.71l2.6-5.23a3.11,3.11,0,0,0,.31-.8.61.61,0,0,0-.13-.4,1.08,1.08,0,0,0-.47-.37l-.27-.14.11-.21,4.16,2.06-.11.22-.26-.13a1.19,1.19,0,0,0-.62-.16.67.67,0,0,0-.38.16A2.93,2.93,0,0,0,142,31l-2.59,5.24a2.65,2.65,0,0,0-.31.8.65.65,0,0,0,.13.39,1.09,1.09,0,0,0,.47.38Z"/><path class="cls-4" d="M152.17,34.14l-1.36,2.76-.24-.12a3.24,3.24,0,0,0-.14-2.13,2.73,2.73,0,0,0-1.31-1.37,2.67,2.67,0,0,0-1.58-.24,2.77,2.77,0,0,0-1.46.67,5.63,5.63,0,0,0-1.35,1.79,7.36,7.36,0,0,0-.69,2.08,2.84,2.84,0,0,0,.19,1.74,2.57,2.57,0,0,0,1.26,1.19,3.27,3.27,0,0,0,1.54.35,5.24,5.24,0,0,0,1.89-.48l-.35.69a4.91,4.91,0,0,1-1.89.32,4.67,4.67,0,0,1-1.85-.52,5.4,5.4,0,0,1-2-1.64A4,4,0,0,1,142,37a4.46,4.46,0,0,1,.47-2.3A4.83,4.83,0,0,1,149,32.56a5.46,5.46,0,0,1,1.59,1.24,3.31,3.31,0,0,0,.58.55.51.51,0,0,0,.4,0,.81.81,0,0,0,.39-.34Z"/><path class="cls-4" d="M156.24,40.17l1.06,4.89a5.11,5.11,0,0,0,.53,1.51,1.4,1.4,0,0,0,.56.52l-.1.21-4.15-2,.11-.22a1.2,1.2,0,0,0,.57.13A.29.29,0,0,0,155,45a2.46,2.46,0,0,0-.08-1.19l-.69-3.2-.42.1-1.07,2.17a3.31,3.31,0,0,0-.32.81.71.71,0,0,0,.15.4,1.54,1.54,0,0,0,.58.42l-.11.22-4-2,.11-.22.26.13a1.22,1.22,0,0,0,.62.16.6.6,0,0,0,.37-.17,2.46,2.46,0,0,0,.43-.71l2.6-5.23a3.11,3.11,0,0,0,.31-.8.61.61,0,0,0-.13-.4,1.15,1.15,0,0,0-.47-.37L152.9,35l.11-.21,4,2-.1.22a1.38,1.38,0,0,0-.68-.19.61.61,0,0,0-.38.16,2.65,2.65,0,0,0-.44.71l-1.23,2.48,4.14-.93c.58-.13.92-.29,1-.49a.44.44,0,0,0-.07-.48,3,3,0,0,0-.6-.4l.1-.21,3.11,1.54-.11.21a1.76,1.76,0,0,0-.73-.17,9.67,9.67,0,0,0-1.49.27Z"/><path class="cls-4" d="M165.14,41.35l-1.6,3.25.16.08a1.38,1.38,0,0,0,1.33.06,3.3,3.3,0,0,0,1.13-1.18l.22.11-2.06,4.17-.23-.12a3.34,3.34,0,0,0,.26-1.26,1.52,1.52,0,0,0-.23-.84,2.26,2.26,0,0,0-.8-.58l-1.11,2.24a3.49,3.49,0,0,0-.34.83.52.52,0,0,0,.08.34,1.14,1.14,0,0,0,.45.34l.48.24a3.18,3.18,0,0,0,2,.37,3.22,3.22,0,0,0,1.75-1.1l.21.11-1.61,2.35-6.88-3.4.11-.22.26.13a1.3,1.3,0,0,0,.62.15.61.61,0,0,0,.38-.16,2.93,2.93,0,0,0,.43-.71l2.59-5.24a4,4,0,0,0,.3-.68.61.61,0,0,0-.06-.42,1.18,1.18,0,0,0-.53-.47l-.26-.13.1-.21L169,42.7l-1.17,2.35-.22-.11a3.25,3.25,0,0,0,.13-1.48,2,2,0,0,0-.6-1,5,5,0,0,0-1.18-.72Z"/><path class="cls-4" d="M177.7,47l-1.07,2.16-.21-.11a3.67,3.67,0,0,0,.11-1.28,1.77,1.77,0,0,0-.37-.83,2.41,2.41,0,0,0-.73-.49l-.59-.29-3,6.14a3,3,0,0,0-.31.8.65.65,0,0,0,.13.39,1.31,1.31,0,0,0,.48.39l.27.13-.11.21-4.17-2.06.11-.22.26.13a1.1,1.1,0,0,0,.62.15.56.56,0,0,0,.38-.16,2.54,2.54,0,0,0,.43-.71l3-6.14-.57-.28a1.84,1.84,0,0,0-1.34-.24,2.57,2.57,0,0,0-1.32,1l-.22-.12,1.07-2.15Z"/></svg>