<svg width="40" height="40" viewBox="0 0 40 40" fill="none" xmlns="http://www.w3.org/2000/svg">
<rect width="40" height="40" rx="5" fill="white"/>
<path d="M20.1273 19.7594C22.7957 19.7594 24.959 17.3509 24.959 14.3798C24.959 11.4086 24.2488 9 20.1273 9C16.0058 9 15.2954 11.4086 15.2954 14.3798C15.2954 17.3509 17.4588 19.7594 20.1273 19.7594Z" fill="#9B51E0"/>
<path d="M29.2423 27.7564C29.1701 23.5788 28.6758 21.8123 25.5206 20.7955C23.8552 20.2587 21.9336 21.0816 20.1839 21.0998C20.165 21.1 20.1459 21.1001 20.1267 21.1001C20.1074 21.1001 20.0882 21.1 20.0691 21.0998C18.3196 21.0815 16.3979 20.2588 14.7326 20.7955C11.6202 21.7987 11.0971 23.5313 11.0143 27.5883C11.0059 27.9998 11.002 28.0214 11.0005 27.9736V27.9736C11.0019 28.3305 11.0928 28.6842 11.3551 28.9262C12.1194 29.6309 14.3477 31 20.1267 31C26.1863 31 28.3421 29.4948 28.9995 28.8284C29.1849 28.6405 29.2519 28.3792 29.2526 28.1152V28.1152C29.2511 28.1447 29.248 28.0875 29.2423 27.7564Z" fill="#9B51E0"/>
</svg>
