<svg width="34" height="23" viewBox="0 0 34 23" fill="none" xmlns="http://www.w3.org/2000/svg">
    <path d="M2.54635 0C1.14 0 0 1.14 0 2.54635V19.7296C0 21.1358 1.14 22.2759 2.54635 22.2759H11.3334V0H2.54635Z" fill="#FF4B55"/>
    <path d="M22.6673 0.000244141H11.3337V22.2762H22.6673V0.000244141Z" fill="white"/>
    <path d="M31.4535 0H22.6665V22.2758H31.4535C32.8598 22.2758 33.9999 21.1358 33.9999 19.7295V2.54635C33.9999 1.14 32.8599 0 31.4535 0Z" fill="#FF4B55"/>
    <path d="M18.0327 9.7192L20.3656 10.0056L18.7192 11.6832L19.1676 13.9907L17.0634 12.943L15.0072 14.0822L15.3535 11.7573L13.6345 10.1541L15.9525 9.76494L16.9465 7.63464L18.0327 9.7192Z" fill="#FF4B55"/>
    <path d="M15.007 14.7167C14.8803 14.7167 14.7539 14.6789 14.6458 14.6034C14.4472 14.4658 14.3441 14.2281 14.3796 13.9888L14.677 11.9939L13.2016 10.6184C13.0252 10.4536 12.9573 10.2027 13.027 9.97145C13.0963 9.7402 13.2909 9.56885 13.5294 9.52855L15.5185 9.19456L16.3709 7.36631C16.4729 7.1474 16.6904 7.00581 16.9322 7C17.1587 6.99928 17.3968 7.12707 17.5087 7.34126L18.4409 9.12994L20.4427 9.37607C20.6823 9.40512 20.8845 9.56812 20.9644 9.79611C21.0443 10.0241 20.9873 10.2775 20.8185 10.4496L19.4055 11.8897L19.79 13.8697C19.8361 14.1064 19.7435 14.3493 19.5515 14.4952C19.3594 14.6415 19.1009 14.667 18.8846 14.5584L17.0788 13.6595L15.3148 14.6372C15.2186 14.6902 15.1126 14.7167 15.007 14.7167ZM15.0073 10.5668L15.786 11.2929C15.9389 11.4356 16.0119 11.6436 15.981 11.8505L15.8242 12.9048L16.7557 12.3878C16.9387 12.2876 17.1591 12.2825 17.346 12.3748L18.2993 12.85L18.0964 11.8041C18.0565 11.5997 18.12 11.388 18.2663 11.2392L19.0127 10.479L17.9556 10.349C17.7479 10.3236 17.5664 10.1976 17.4702 10.0125L16.9775 9.06822L16.5277 10.0335C16.4392 10.2227 16.2638 10.3563 16.0576 10.3911L15.0073 10.5668Z" fill="#FF4B55"/>
</svg>